<svg width="24" height="24" viewBox="0 0 24 24" fill="none" xmlns="http://www.w3.org/2000/svg">
<path d="M21.4565 10.154C21.5795 10.813 21.6465 11.502 21.6465 12.221C21.6465 17.845 17.8825 21.844 12.1975 21.844C10.9047 21.8444 9.62442 21.59 8.42991 21.0955C7.23541 20.6009 6.15006 19.8758 5.23588 18.9616C4.3217 18.0475 3.59661 16.9621 3.10204 15.7676C2.60748 14.5731 2.35312 13.2929 2.35352 12C2.35312 10.7072 2.60748 9.42691 3.10204 8.2324C3.59661 7.0379 4.3217 5.95255 5.23588 5.03837C6.15006 4.12419 7.23541 3.3991 8.42991 2.90453C9.62442 2.40997 10.9047 2.15561 12.1975 2.15601C14.8555 2.15601 17.0765 3.13401 18.7805 4.72201L16.0055 7.49701V7.49001C14.9725 6.50601 13.6615 6.00101 12.1975 6.00101C8.94952 6.00101 6.30952 8.74501 6.30952 11.994C6.30952 15.242 8.94952 17.992 12.1975 17.992C15.1445 17.992 17.1505 16.307 17.5625 13.993H12.1975V10.154H21.4575H21.4565Z" fill="black"/>
</svg>
