<svg width="25" height="24" viewBox="0 0 25 24" fill="none" xmlns="http://www.w3.org/2000/svg">
<path d="M9.00293 8.25C9.00293 8.84674 8.76588 9.41903 8.34392 9.84099C7.92196 10.2629 7.34967 10.5 6.75293 10.5C6.15619 10.5 5.5839 10.2629 5.16194 9.84099C4.73998 9.41903 4.50293 8.84674 4.50293 8.25C4.50293 7.65326 4.73998 7.08097 5.16194 6.65901C5.5839 6.23705 6.15619 6 6.75293 6C7.34967 6 7.92196 6.23705 8.34392 6.65901C8.76588 7.08097 9.00293 7.65326 9.00293 8.25Z" fill="black"/>
<path d="M3.00391 1.5C2.20826 1.5 1.44519 1.81607 0.882586 2.37868C0.319977 2.94129 0.00390625 3.70435 0.00390625 4.5V19.5C0.00390625 20.2956 0.319977 21.0587 0.882586 21.6213C1.44519 22.1839 2.20826 22.5 3.00391 22.5H21.0039C21.7996 22.5 22.5626 22.1839 23.1252 21.6213C23.6878 21.0587 24.0039 20.2956 24.0039 19.5V4.5C24.0039 3.70435 23.6878 2.94129 23.1252 2.37868C22.5626 1.81607 21.7996 1.5 21.0039 1.5H3.00391ZM21.0039 3C21.4017 3 21.7833 3.15804 22.0646 3.43934C22.3459 3.72064 22.5039 4.10218 22.5039 4.5V14.25L16.8384 11.3295C16.6977 11.259 16.5385 11.2346 16.3832 11.2596C16.2278 11.2847 16.0843 11.3579 15.9729 11.469L10.4079 17.034L6.41791 14.376C6.27385 14.2801 6.10105 14.237 5.92881 14.2539C5.75658 14.2709 5.59551 14.3468 5.47291 14.469L1.50391 18V4.5C1.50391 4.10218 1.66194 3.72064 1.94325 3.43934C2.22455 3.15804 2.60608 3 3.00391 3H21.0039Z" fill="black"/>
</svg>
