<svg width="24" height="24" viewBox="0 0 24 24" fill="none" xmlns="http://www.w3.org/2000/svg">
<path d="M12.3147 19.5001C15.4737 19.5001 17.4327 17.8696 17.4327 15.2656C17.4327 13.3066 15.9567 11.8411 13.9467 11.6866V11.6041C14.7164 11.4882 15.4194 11.101 15.9288 10.5124C16.4382 9.9238 16.7205 9.17252 16.7247 8.3941C16.7247 6.1291 14.9817 4.7041 12.2037 4.7041H5.76416V19.5001H12.3147ZM8.86166 7.0111H11.4057C12.8502 7.0111 13.6812 7.6876 13.6812 8.8771C13.6812 10.1281 12.7377 10.8571 11.0862 10.8571H8.86166V7.0096V7.0111ZM8.86166 17.1931V12.8971H11.4567C13.2822 12.8971 14.2767 13.6351 14.2767 15.0196C14.2767 16.4341 13.3122 17.1931 11.5287 17.1931H8.86016H8.86166Z" fill="black"/>
</svg>
