<svg width="24" height="24" viewBox="0 0 24 24" fill="none" xmlns="http://www.w3.org/2000/svg">
<path d="M21.8858 5.536C21.8009 5.37444 21.6736 5.23914 21.5174 5.14468C21.3613 5.05022 21.1823 5.00019 20.9998 5H2.99981C2.81766 5.00075 2.63915 5.05115 2.4835 5.14576C2.32784 5.24038 2.20092 5.37564 2.11638 5.53699C2.03185 5.69835 1.9929 5.8797 2.00372 6.06153C2.01455 6.24337 2.07474 6.41881 2.17781 6.569L11.1778 19.569C11.2696 19.7022 11.3923 19.8112 11.5355 19.8864C11.6787 19.9617 11.838 20.001 11.9998 20.001C12.1616 20.001 12.3209 19.9617 12.4641 19.8864C12.6073 19.8112 12.7301 19.7022 12.8218 19.569L21.8218 6.569C21.9259 6.41912 21.9869 6.24357 21.9982 6.06144C22.0095 5.87932 21.9706 5.69758 21.8858 5.536ZM11.9998 17.243L4.90781 7H19.0918L11.9998 17.243Z" fill="black"/>
</svg>
