<svg width="24" height="24" viewBox="0 0 24 24" fill="none" xmlns="http://www.w3.org/2000/svg">
<path d="M16.0515 11.7323C16.4286 11.3838 16.7296 10.9613 16.9359 10.4912C17.1421 10.021 17.249 9.51338 17.25 9V8.25C17.2488 7.2558 16.8533 6.30267 16.1503 5.59966C15.4473 4.89666 14.4942 4.50119 13.5 4.5H12.75V2.25H11.25V4.5H7.5V19.5H11.25V21.75H12.75V19.5H14.25C15.2442 19.4988 16.1973 19.1033 16.9003 18.4003C17.6033 17.6973 17.9988 16.7442 18 15.75V15C17.9976 14.3308 17.8154 13.6744 17.4727 13.0996C17.1299 12.5248 16.6391 12.0526 16.0515 11.7323ZM9 6H13.5C14.0966 6.0006 14.6685 6.23784 15.0903 6.65967C15.5122 7.0815 15.7494 7.65345 15.75 8.25V9C15.7494 9.59655 15.5122 10.1685 15.0903 10.5903C14.6685 11.0122 14.0966 11.2494 13.5 11.25H9V6ZM16.5 15.75C16.4994 16.3466 16.2622 16.9185 15.8403 17.3403C15.4185 17.7622 14.8466 17.9994 14.25 18H9V12.75H14.25C14.8466 12.7506 15.4185 12.9878 15.8403 13.4097C16.2622 13.8315 16.4994 14.4034 16.5 15V15.75Z" fill="black"/>
</svg>
