<svg width="24" height="24" viewBox="0 0 24 24" fill="none" xmlns="http://www.w3.org/2000/svg">
<path d="M16.0594 2.45407C16.3406 2.73536 16.4985 3.11683 16.4985 3.51457C16.4985 3.91232 16.3406 4.29378 16.0594 4.57507L8.63435 12.0001L16.0594 19.4251C16.3326 19.708 16.4838 20.0869 16.4804 20.4802C16.4769 20.8735 16.3192 21.2497 16.0411 21.5278C15.763 21.8059 15.3867 21.9637 14.9935 21.9671C14.6002 21.9705 14.2213 21.8193 13.9384 21.5461L5.45285 13.0606C5.17164 12.7793 5.01367 12.3978 5.01367 12.0001C5.01367 11.6023 5.17164 11.2209 5.45285 10.9396L13.9384 2.45407C14.2196 2.17287 14.6011 2.01489 14.9989 2.01489C15.3966 2.01489 15.7781 2.17287 16.0594 2.45407V2.45407Z" fill="#8B8B8B"/>
</svg>
