<svg width="24" height="24" viewBox="0 0 24 24" fill="none" xmlns="http://www.w3.org/2000/svg">
<path d="M7.93918 2.45407C7.65797 2.73536 7.5 3.11683 7.5 3.51457C7.5 3.91232 7.65797 4.29378 7.93918 4.57507L15.3642 12.0001L7.93918 19.4251C7.66594 19.708 7.51475 20.0869 7.51817 20.4802C7.52159 20.8735 7.67934 21.2497 7.95745 21.5278C8.23556 21.8059 8.61178 21.9637 9.00508 21.9671C9.39837 21.9705 9.77728 21.8193 10.0602 21.5461L18.5457 13.0606C18.8269 12.7793 18.9849 12.3978 18.9849 12.0001C18.9849 11.6023 18.8269 11.2209 18.5457 10.9396L10.0602 2.45407C9.77889 2.17287 9.39743 2.01489 8.99968 2.01489C8.60193 2.01489 8.22047 2.17287 7.93918 2.45407V2.45407Z" fill="black"/>
</svg>
