<svg width="24" height="24" viewBox="0 0 24 24" fill="none" xmlns="http://www.w3.org/2000/svg">
<path d="M7.93918 2.45395C7.65797 2.73524 7.5 3.1167 7.5 3.51445C7.5 3.9122 7.65797 4.29366 7.93918 4.57495L15.3642 12L7.93918 19.425C7.66594 19.7079 7.51475 20.0868 7.51817 20.4801C7.52159 20.8733 7.67934 21.2496 7.95745 21.5277C8.23556 21.8058 8.61178 21.9635 9.00508 21.967C9.39837 21.9704 9.77728 21.8192 10.0602 21.5459L18.5457 13.0604C18.8269 12.7792 18.9849 12.3977 18.9849 12C18.9849 11.6022 18.8269 11.2207 18.5457 10.9395L10.0602 2.45395C9.77889 2.17274 9.39743 2.01477 8.99968 2.01477C8.60193 2.01477 8.22047 2.17274 7.93918 2.45395V2.45395Z" fill="black"/>
</svg>
