<svg width="26" height="25" viewBox="0 0 26 25" fill="none" xmlns="http://www.w3.org/2000/svg">
<path d="M11.1161 5.10633C11.2655 5.10468 11.4133 5.13652 11.5488 5.19952C11.6842 5.26251 11.8039 5.35506 11.8989 5.47035L16.7747 11.4332C16.9231 11.611 17.0052 11.8348 17.007 12.0665C17.0088 12.2981 16.9301 12.5231 16.7844 12.7032L11.8304 18.7413C11.6623 18.9468 11.4194 19.0771 11.1551 19.1035C10.8909 19.1299 10.627 19.0502 10.4215 18.8821C10.216 18.7139 10.0857 18.471 10.0593 18.2067C10.0329 17.9425 10.1125 17.6786 10.2807 17.4731L14.7095 12.079L10.3486 6.75226C10.2252 6.60641 10.1462 6.42827 10.1209 6.23891C10.0955 6.04955 10.125 5.85689 10.2057 5.68374C10.2865 5.51059 10.4151 5.36419 10.5764 5.26186C10.7378 5.15954 10.925 5.10556 11.1161 5.10633Z" fill="black"/>
</svg>
