<svg width="24" height="24" viewBox="0 0 24 24" fill="none" xmlns="http://www.w3.org/2000/svg">
<path d="M9.5 9.385V14.616C9.5 15.186 10.11 15.547 10.61 15.274L15.396 12.658C15.5141 12.5934 15.6126 12.4982 15.6812 12.3825C15.7499 12.2667 15.7861 12.1346 15.7861 12C15.7861 11.8654 15.7499 11.7333 15.6812 11.6175C15.6126 11.5018 15.5141 11.4066 15.396 11.342L10.61 8.726C10.4957 8.66346 10.3671 8.63178 10.2368 8.63407C10.1066 8.63635 9.97915 8.67253 9.86712 8.73904C9.75509 8.80555 9.66233 8.9001 9.59795 9.01337C9.53358 9.12663 9.49982 9.25472 9.5 9.385ZM5.25 3C4.38805 3 3.5614 3.34241 2.9519 3.9519C2.34241 4.5614 2 5.38805 2 6.25V17.75C2 18.612 2.34241 19.4386 2.9519 20.0481C3.5614 20.6576 4.38805 21 5.25 21H18.75C19.1768 21 19.5994 20.9159 19.9937 20.7526C20.388 20.5893 20.7463 20.3499 21.0481 20.0481C21.3499 19.7463 21.5893 19.388 21.7526 18.9937C21.9159 18.5994 22 18.1768 22 17.75V6.25C22 5.8232 21.9159 5.40059 21.7526 5.00628C21.5893 4.61197 21.3499 4.25369 21.0481 3.9519C20.7463 3.65011 20.388 3.41072 19.9937 3.24739C19.5994 3.08406 19.1768 3 18.75 3H5.25ZM3.5 6.25C3.5 5.284 4.284 4.5 5.25 4.5H18.75C19.716 4.5 20.5 5.284 20.5 6.25V17.75C20.5 18.2141 20.3156 18.6592 19.9874 18.9874C19.6592 19.3156 19.2141 19.5 18.75 19.5H5.25C4.78587 19.5 4.34075 19.3156 4.01256 18.9874C3.68437 18.6592 3.5 18.2141 3.5 17.75V6.25Z" fill="black"/>
</svg>
