<svg width="24" height="24" viewBox="0 0 24 24" fill="none" xmlns="http://www.w3.org/2000/svg">
<path d="M10.5176 8.49123C10.4268 8.43446 10.3224 8.40304 10.2154 8.40023C10.1083 8.39742 10.0024 8.42332 9.90875 8.47524C9.81507 8.52716 9.737 8.60321 9.68264 8.69549C9.62828 8.78777 9.59961 8.89292 9.59961 9.00003V15.18C9.59959 15.2885 9.62897 15.3949 9.68461 15.488C9.74025 15.581 9.82007 15.6573 9.9156 15.7086C10.0111 15.76 10.1188 15.7845 10.2271 15.7795C10.3354 15.7745 10.4404 15.7403 10.5308 15.6804L15.3308 12.5016C15.4144 12.4462 15.4827 12.3708 15.5296 12.2822C15.5765 12.1936 15.6005 12.0946 15.5993 11.9944C15.5981 11.8941 15.5718 11.7958 15.5228 11.7083C15.4738 11.6208 15.4037 11.547 15.3188 11.4936L10.5188 8.49123H10.5176Z" fill="black"/>
<path d="M5.40039 3.59998C4.60474 3.59998 3.84168 3.91605 3.27907 4.47866C2.71646 5.04126 2.40039 5.80433 2.40039 6.59998V17.4C2.40039 18.1956 2.71646 18.9587 3.27907 19.5213C3.84168 20.0839 4.60474 20.4 5.40039 20.4H18.6004C19.396 20.4 20.1591 20.0839 20.7217 19.5213C21.2843 18.9587 21.6004 18.1956 21.6004 17.4V6.59998C21.6004 5.80433 21.2843 5.04126 20.7217 4.47866C20.1591 3.91605 19.396 3.59998 18.6004 3.59998H5.40039ZM3.60039 6.59998C3.60039 6.12259 3.79003 5.66475 4.1276 5.32718C4.46516 4.98962 4.923 4.79998 5.40039 4.79998H18.6004C19.0778 4.79998 19.5356 4.98962 19.8732 5.32718C20.2107 5.66475 20.4004 6.12259 20.4004 6.59998V17.4C20.4004 17.8774 20.2107 18.3352 19.8732 18.6728C19.5356 19.0103 19.0778 19.2 18.6004 19.2H5.40039C4.923 19.2 4.46516 19.0103 4.1276 18.6728C3.79003 18.3352 3.60039 17.8774 3.60039 17.4V6.59998Z" fill="black"/>
</svg>
