<svg width="32" height="32" viewBox="0 0 32 32" fill="none" xmlns="http://www.w3.org/2000/svg">
<path d="M7.66667 4H24.3333C25.3058 4 26.2384 4.38631 26.9261 5.07394C27.6137 5.76158 28 6.69421 28 7.66667V24.3333C28 25.3058 27.6137 26.2384 26.9261 26.9261C26.2384 27.6137 25.3058 28 24.3333 28H7.66667C6.69421 28 5.76158 27.6137 5.07394 26.9261C4.38631 26.2384 4 25.3058 4 24.3333V7.66667C4 6.69421 4.38631 5.76158 5.07394 5.07394C5.76158 4.38631 6.69421 4 7.66667 4ZM7.66667 6C6.74667 6 6 6.74667 6 7.66667V24.3333C6 25.2533 6.74667 26 7.66667 26H24.3333C25.2533 26 26 25.2533 26 24.3333V7.66667C26 6.74667 25.2533 6 24.3333 6H7.66667Z" fill="#8B8B8B"/>
</svg>
