<svg width="26" height="24" viewBox="0 0 26 24" fill="none" xmlns="http://www.w3.org/2000/svg">
<path d="M1 0L9.77108 13.462V13.455L10.4652 14.515C14.32 20.424 16.3932 23.592 16.4043 23.599C16.4154 23.606 16.9951 23.619 17.6966 23.639C19.8308 23.689 22.4782 23.819 24.4849 23.949C24.7102 23.969 24.9686 23.98 25.2308 23.98L25.3785 23.979H25.3711L16.6738 10.617L15.8689 9.387L11.3957 2.536C10.5465 1.236 9.82646 0.128 9.78954 0.086L9.736 0.001H1.01108L1 0Z" fill="black"/>
<path d="M16.7125 0.012L16.694 5.319L16.6793 10.626L15.8725 9.394L14.8257 21.204C15.8504 22.771 16.3987 23.604 16.4042 23.611C16.4097 23.618 16.995 23.635 17.6965 23.653C19.8325 23.703 22.4781 23.833 24.4922 23.963C24.7174 23.983 24.9759 23.994 25.2399 23.994L25.3857 23.993H25.3784C25.4024 23.983 25.4153 18.572 25.4097 11.981L25.3913 0.01H16.7125V0.012ZM0.999893 0V11.992C0.999893 18.587 1.01282 23.989 1.02759 23.994C1.04235 23.999 1.79559 23.964 2.70205 23.908C3.60851 23.852 4.86205 23.778 5.48974 23.748C6.44605 23.698 9.30759 23.598 9.63989 23.598C9.73589 23.598 9.74328 23.328 9.7562 18.517L9.77097 13.436L10.4725 14.496L10.7125 14.872L11.7648 3.07L11.414 2.524L9.73405 0H0.998047H0.999893Z" fill="black"/>
</svg>
