<svg width="451" height="55" viewBox="0 0 451 55" fill="none" xmlns="http://www.w3.org/2000/svg">
<g filter="url(#filter0_d_456_3117)">
<rect x="4" width="443" height="47" rx="23.5" fill="white"/>
<path d="M359.132 30.2549C358.042 30.2549 357.166 30.1406 356.504 29.9121C355.848 29.6777 355.364 29.3086 355.054 28.8047C354.743 28.2949 354.588 27.6211 354.588 26.7832H356.038C356.038 27.334 356.138 27.7646 356.337 28.0752C356.536 28.3799 356.861 28.5996 357.312 28.7344C357.764 28.8633 358.391 28.9277 359.193 28.9277C359.926 28.9277 360.506 28.8486 360.934 28.6904C361.361 28.5322 361.669 28.2832 361.856 27.9434C362.05 27.5977 362.146 27.1348 362.146 26.5547C362.146 26.0332 362.035 25.6113 361.812 25.2891C361.59 24.9668 361.212 24.7061 360.679 24.5068C360.146 24.3018 359.396 24.1289 358.429 23.9883C357.104 23.7949 356.138 23.4053 355.528 22.8193C354.925 22.2275 354.623 21.4072 354.623 20.3584C354.623 19.2217 354.998 18.3809 355.748 17.8359C356.498 17.291 357.652 17.0186 359.211 17.0186C360.207 17.0186 361.004 17.127 361.602 17.3438C362.199 17.5547 362.636 17.8945 362.911 18.3633C363.187 18.832 363.324 19.4561 363.324 20.2354H361.927C361.927 19.749 361.839 19.3711 361.663 19.1016C361.487 18.832 361.194 18.6416 360.784 18.5303C360.38 18.4131 359.812 18.3545 359.079 18.3545C358.37 18.3545 357.802 18.4219 357.374 18.5566C356.952 18.6855 356.642 18.8936 356.442 19.1807C356.249 19.4678 356.152 19.8486 356.152 20.3232C356.152 20.8213 356.255 21.2197 356.46 21.5186C356.665 21.8115 357.022 22.0547 357.532 22.248C358.042 22.4355 358.78 22.6055 359.747 22.7578C361.112 22.9688 362.108 23.376 362.735 23.9795C363.362 24.583 363.676 25.418 363.676 26.4844C363.676 27.7734 363.31 28.7256 362.577 29.3408C361.845 29.9502 360.696 30.2549 359.132 30.2549ZM369.512 30.2021C368.545 30.2021 367.771 30.0469 367.191 29.7363C366.611 29.4258 366.187 28.9336 365.917 28.2598C365.653 27.5859 365.521 26.6865 365.521 25.5615C365.521 24.5068 365.653 23.6396 365.917 22.96C366.181 22.2744 366.603 21.7617 367.183 21.4219C367.763 21.082 368.527 20.9121 369.477 20.9121C370.385 20.9121 371.111 21.0469 371.656 21.3164C372.207 21.5859 372.608 22.0137 372.86 22.5996C373.112 23.1797 373.238 23.9561 373.238 24.9287L373.229 25.7812H366.893C366.893 26.5957 366.98 27.249 367.156 27.7412C367.338 28.2275 367.619 28.585 368 28.8135C368.387 29.0361 368.902 29.1475 369.547 29.1475C370.068 29.1475 370.487 29.0947 370.804 28.9893C371.126 28.8838 371.363 28.7168 371.516 28.4883C371.674 28.2539 371.762 27.9434 371.779 27.5566H373.159C373.159 28.459 372.86 29.127 372.263 29.5605C371.671 29.9883 370.754 30.2021 369.512 30.2021ZM371.858 24.7793C371.876 24.1055 371.806 23.5664 371.647 23.1621C371.489 22.7578 371.231 22.4619 370.874 22.2744C370.517 22.0869 370.039 21.9932 369.441 21.9932C368.814 21.9932 368.322 22.0781 367.965 22.248C367.613 22.418 367.355 22.7021 367.191 23.1006C367.027 23.499 366.934 24.0586 366.91 24.7793H371.858ZM382.388 30.2109C381.96 30.2109 381.614 30.0967 381.351 29.8682C381.093 29.6396 380.964 29.3379 380.964 28.9629C380.671 29.3613 380.258 29.6689 379.725 29.8857C379.197 30.0967 378.588 30.2021 377.896 30.2021C376.906 30.2021 376.145 29.9707 375.611 29.5078C375.078 29.0391 374.812 28.377 374.812 27.5215C374.812 26.8594 374.949 26.3291 375.225 25.9307C375.5 25.5322 375.937 25.2422 376.534 25.0605C377.132 24.8789 377.929 24.7881 378.925 24.7881H380.771V23.6016C380.771 23.2148 380.697 22.9072 380.551 22.6787C380.404 22.4443 380.173 22.2744 379.856 22.1689C379.54 22.0635 379.118 22.0107 378.591 22.0107C378.046 22.0107 377.609 22.0605 377.281 22.1602C376.953 22.2598 376.713 22.4209 376.561 22.6436C376.408 22.8604 376.332 23.1504 376.332 23.5137H375.11C375.11 22.6289 375.395 21.9756 375.963 21.5537C376.531 21.1318 377.407 20.9209 378.591 20.9209C379.792 20.9209 380.68 21.1406 381.254 21.5801C381.834 22.0195 382.124 22.6963 382.124 23.6104V28.1455C382.124 28.5029 382.168 28.7461 382.256 28.875C382.35 29.0039 382.525 29.0684 382.783 29.0684C382.877 29.0684 382.95 29.0654 383.003 29.0596V30.1318C382.897 30.167 382.804 30.1875 382.722 30.1934C382.646 30.2051 382.534 30.2109 382.388 30.2109ZM378.222 29.1299C379.042 29.1299 379.672 28.9746 380.111 28.6641C380.557 28.3477 380.779 27.8994 380.779 27.3193V25.79H378.916C378.26 25.79 377.732 25.8486 377.334 25.9658C376.941 26.0771 376.654 26.2559 376.473 26.502C376.291 26.748 376.2 27.0791 376.2 27.4951C376.2 28.0166 376.376 28.4209 376.728 28.708C377.079 28.9893 377.577 29.1299 378.222 29.1299ZM385.121 21.1143H386.343L386.396 22.4941C386.788 21.9551 387.21 21.5566 387.661 21.2988C388.112 21.041 388.631 20.9121 389.217 20.9121H389.384V22.2568H389.19C388.511 22.2568 387.925 22.3887 387.433 22.6523C386.94 22.916 386.604 23.3203 386.422 23.8652V30H385.121V21.1143ZM394.789 30.2021C393.793 30.2021 392.996 30.0469 392.398 29.7363C391.807 29.4199 391.373 28.9219 391.098 28.2422C390.828 27.5625 390.693 26.6572 390.693 25.5264C390.693 24.4072 390.831 23.5107 391.106 22.8369C391.382 22.1631 391.815 21.6738 392.407 21.3691C393.005 21.0586 393.802 20.9033 394.798 20.9033C395.958 20.9033 396.819 21.1436 397.382 21.624C397.95 22.0986 398.243 22.834 398.261 23.8301H396.881C396.846 23.3848 396.752 23.0303 396.6 22.7666C396.453 22.5029 396.23 22.3096 395.932 22.1865C395.633 22.0635 395.243 22.002 394.763 22.002C394.065 22.002 393.523 22.1104 393.137 22.3271C392.756 22.5439 392.48 22.9072 392.311 23.417C392.146 23.9209 392.064 24.6299 392.064 25.5439C392.064 26.5342 392.141 27.2812 392.293 27.7852C392.445 28.2891 392.715 28.6436 393.102 28.8486C393.488 29.0479 394.057 29.1475 394.807 29.1475C395.299 29.1475 395.694 29.0859 395.993 28.9629C396.292 28.834 396.512 28.6348 396.652 28.3652C396.793 28.0898 396.869 27.7266 396.881 27.2754H398.261C398.255 27.9844 398.135 28.5527 397.9 28.9805C397.666 29.4023 397.297 29.7129 396.793 29.9121C396.289 30.1055 395.621 30.2021 394.789 30.2021ZM400.59 17.3262H401.935L401.908 22.3447C402.119 21.9639 402.351 21.6709 402.603 21.4658C402.86 21.2549 403.171 21.1055 403.534 21.0176C403.903 20.9238 404.372 20.877 404.94 20.877C405.737 20.877 406.364 21.0146 406.821 21.29C407.278 21.5654 407.604 21.9902 407.797 22.5645C407.996 23.1328 408.096 23.8887 408.096 24.832V29.9912H406.742V24.5684C406.742 23.9473 406.669 23.4521 406.522 23.083C406.376 22.708 406.142 22.4355 405.819 22.2656C405.503 22.0957 405.078 22.0107 404.545 22.0107C403.66 22.0107 403.007 22.2363 402.585 22.6875C402.163 23.1328 401.952 23.8184 401.952 24.7441V29.9912H400.599L400.59 17.3262Z" fill="black"/>
<path d="M51.3187 31.0273L45.232 24.9406C46.1766 23.7195 46.6875 22.2266 46.6875 20.6562C46.6875 18.7766 45.9539 17.0141 44.6273 15.6852C43.3008 14.3562 41.5336 13.625 39.6562 13.625C37.7789 13.625 36.0117 14.3586 34.6852 15.6852C33.3562 17.0117 32.625 18.7766 32.625 20.6562C32.625 22.5336 33.3586 24.3008 34.6852 25.6273C36.0117 26.9562 37.7766 27.6875 39.6562 27.6875C41.2266 27.6875 42.7172 27.1766 43.9383 26.2344L50.025 32.3187C50.0428 32.3366 50.064 32.3508 50.0874 32.3604C50.1107 32.3701 50.1357 32.3751 50.1609 32.3751C50.1862 32.3751 50.2112 32.3701 50.2345 32.3604C50.2578 32.3508 50.279 32.3366 50.2969 32.3187L51.3187 31.2992C51.3366 31.2814 51.3508 31.2602 51.3604 31.2369C51.3701 31.2135 51.3751 31.1885 51.3751 31.1633C51.3751 31.138 51.3701 31.113 51.3604 31.0897C51.3508 31.0664 51.3366 31.0452 51.3187 31.0273ZM43.3688 24.3688C42.375 25.3602 41.0578 25.9062 39.6562 25.9062C38.2547 25.9062 36.9375 25.3602 35.9438 24.3688C34.9523 23.375 34.4062 22.0578 34.4062 20.6562C34.4062 19.2547 34.9523 17.9352 35.9438 16.9438C36.9375 15.9523 38.2547 15.4062 39.6562 15.4062C41.0578 15.4062 42.3773 15.95 43.3688 16.9438C44.3602 17.9375 44.9062 19.2547 44.9062 20.6562C44.9062 22.0578 44.3602 23.3773 43.3688 24.3688Z" fill="black"/>
</g>
<defs>
<filter id="filter0_d_456_3117" x="0" y="0" width="451" height="55" filterUnits="userSpaceOnUse" color-interpolation-filters="sRGB">
<feFlood flood-opacity="0" result="BackgroundImageFix"/>
<feColorMatrix in="SourceAlpha" type="matrix" values="0 0 0 0 0 0 0 0 0 0 0 0 0 0 0 0 0 0 127 0" result="hardAlpha"/>
<feOffset dy="4"/>
<feGaussianBlur stdDeviation="2"/>
<feComposite in2="hardAlpha" operator="out"/>
<feColorMatrix type="matrix" values="0 0 0 0 0 0 0 0 0 0 0 0 0 0 0 0 0 0 0.25 0"/>
<feBlend mode="normal" in2="BackgroundImageFix" result="effect1_dropShadow_456_3117"/>
<feBlend mode="normal" in="SourceGraphic" in2="effect1_dropShadow_456_3117" result="shape"/>
</filter>
</defs>
</svg>
