<svg width="32" height="32" viewBox="0 0 32 32" fill="none" xmlns="http://www.w3.org/2000/svg">
<g filter="url(#filter0_d_44_517)">
<rect x="4" width="24" height="24" rx="2" fill="white"/>
<path d="M15.8389 16.1343C15.001 16.1343 14.3923 15.9803 14.0127 15.6724C13.6331 15.3608 13.4434 14.8757 13.4434 14.2168H14.3672C14.3672 14.4997 14.4155 14.7271 14.5122 14.8989C14.6125 15.0672 14.77 15.1908 14.9849 15.2695C15.1997 15.3483 15.4862 15.3877 15.8442 15.3877C16.3312 15.3877 16.6982 15.3358 16.9453 15.2319C17.196 15.1281 17.3714 14.9455 17.4717 14.6841C17.5719 14.4227 17.6221 14.036 17.6221 13.5239C17.6221 13.1121 17.5719 12.7935 17.4717 12.5679C17.375 12.3387 17.2103 12.1758 16.9775 12.0791C16.7484 11.9788 16.4261 11.9287 16.0107 11.9287C15.6598 11.9287 15.359 11.986 15.1084 12.1006C14.8577 12.2152 14.6125 12.4085 14.3726 12.6807L13.6045 12.4014L13.8999 8.26562H18.2505V9.0498H14.8022L14.5498 11.8804C14.7038 11.6619 14.9097 11.4811 15.1675 11.3379C15.4253 11.1947 15.7708 11.123 16.2041 11.123C16.777 11.123 17.2336 11.2036 17.5737 11.3647C17.9175 11.5259 18.1663 11.7801 18.3203 12.1274C18.4779 12.4748 18.5566 12.9403 18.5566 13.5239C18.5566 14.1541 18.4618 14.659 18.272 15.0386C18.0858 15.4181 17.7939 15.6956 17.3965 15.8711C17.0026 16.0465 16.4834 16.1343 15.8389 16.1343Z" fill="#C4C4C4"/>
</g>
<defs>
<filter id="filter0_d_44_517" x="0" y="0" width="32" height="32" filterUnits="userSpaceOnUse" color-interpolation-filters="sRGB">
<feFlood flood-opacity="0" result="BackgroundImageFix"/>
<feColorMatrix in="SourceAlpha" type="matrix" values="0 0 0 0 0 0 0 0 0 0 0 0 0 0 0 0 0 0 127 0" result="hardAlpha"/>
<feOffset dy="4"/>
<feGaussianBlur stdDeviation="2"/>
<feComposite in2="hardAlpha" operator="out"/>
<feColorMatrix type="matrix" values="0 0 0 0 0 0 0 0 0 0 0 0 0 0 0 0 0 0 0.25 0"/>
<feBlend mode="normal" in2="BackgroundImageFix" result="effect1_dropShadow_44_517"/>
<feBlend mode="normal" in="SourceGraphic" in2="effect1_dropShadow_44_517" result="shape"/>
</filter>
</defs>
</svg>
