<svg width="32" height="32" viewBox="0 0 32 32" fill="none" xmlns="http://www.w3.org/2000/svg">
<g filter="url(#filter0_d_42_1243)">
<rect x="4" width="24" height="24" rx="2" fill="white"/>
<path d="M12.874 9.14111L11.6924 9.70508V8.83496L12.917 8.21729H13.8086V16H12.874V9.14111ZM15.3662 15.8174C15.3662 15.3197 15.4235 14.9007 15.5381 14.5605C15.6527 14.2204 15.8532 13.8945 16.1396 13.583C16.4261 13.2679 16.8504 12.9045 17.4126 12.4927C17.9282 12.1095 18.3167 11.7962 18.5781 11.5527C18.8395 11.3092 19.0221 11.0872 19.126 10.8867C19.2334 10.6826 19.2871 10.4588 19.2871 10.2153C19.2871 9.89307 19.2334 9.63525 19.126 9.44189C19.0221 9.24854 18.8556 9.1071 18.6265 9.01758C18.4009 8.92806 18.0983 8.8833 17.7188 8.8833C17.3678 8.8833 17.0868 8.92806 16.8755 9.01758C16.6678 9.10352 16.5156 9.24316 16.4189 9.43652C16.3223 9.62988 16.2739 9.8877 16.2739 10.21H15.3179C15.3179 9.49382 15.5166 8.96566 15.9141 8.62549C16.3115 8.28174 16.9256 8.10986 17.7563 8.10986C18.3543 8.10986 18.8324 8.18148 19.1904 8.32471C19.5485 8.46794 19.8099 8.69531 19.9746 9.00684C20.1393 9.31478 20.2217 9.72835 20.2217 10.2476C20.2217 10.5806 20.1626 10.8742 20.0444 11.1284C19.9299 11.3826 19.7275 11.6494 19.4375 11.9287C19.1475 12.2044 18.7196 12.5482 18.1538 12.96C17.7313 13.2607 17.3929 13.5329 17.1387 13.7764C16.8844 14.0199 16.6982 14.2526 16.5801 14.4746C16.4655 14.693 16.4082 14.9186 16.4082 15.1514H20.125V16H15.3662V15.8174Z" fill="#C4C4C4"/>
</g>
<defs>
<filter id="filter0_d_42_1243" x="0" y="0" width="32" height="32" filterUnits="userSpaceOnUse" color-interpolation-filters="sRGB">
<feFlood flood-opacity="0" result="BackgroundImageFix"/>
<feColorMatrix in="SourceAlpha" type="matrix" values="0 0 0 0 0 0 0 0 0 0 0 0 0 0 0 0 0 0 127 0" result="hardAlpha"/>
<feOffset dy="4"/>
<feGaussianBlur stdDeviation="2"/>
<feComposite in2="hardAlpha" operator="out"/>
<feColorMatrix type="matrix" values="0 0 0 0 0 0 0 0 0 0 0 0 0 0 0 0 0 0 0.25 0"/>
<feBlend mode="normal" in2="BackgroundImageFix" result="effect1_dropShadow_42_1243"/>
<feBlend mode="normal" in="SourceGraphic" in2="effect1_dropShadow_42_1243" result="shape"/>
</filter>
</defs>
</svg>
