<svg width="32" height="32" viewBox="0 0 32 32" fill="none" xmlns="http://www.w3.org/2000/svg">
<g filter="url(#filter0_d_42_1231)">
<rect x="4" width="24" height="24" rx="2" fill="white"/>
<path d="M17.0259 11.9341C18.0894 12.1274 18.6211 12.7935 18.6211 13.9321C18.6211 14.6805 18.4062 15.2319 17.9766 15.5864C17.5469 15.9373 16.8844 16.1128 15.9893 16.1128C15.0977 16.1128 14.4388 15.9373 14.0127 15.5864C13.5866 15.2319 13.3735 14.6805 13.3735 13.9321C13.3735 12.8006 13.9017 12.1346 14.958 11.9341C14.0199 11.6226 13.5508 11.0282 13.5508 10.1509C13.5508 9.44548 13.7495 8.92627 14.147 8.59326C14.5444 8.26025 15.1603 8.09375 15.9946 8.09375C16.8289 8.09375 17.443 8.26025 17.8369 8.59326C18.2344 8.92627 18.4331 9.44548 18.4331 10.1509C18.4331 11.0282 17.964 11.6226 17.0259 11.9341ZM14.4424 10.1509C14.4424 10.4194 14.5033 10.6576 14.625 10.8652C14.7467 11.0729 14.924 11.234 15.1567 11.3486C15.3895 11.4632 15.6688 11.5205 15.9946 11.5205C16.3205 11.5205 16.5998 11.4632 16.8325 11.3486C17.0653 11.234 17.2407 11.0729 17.3589 10.8652C17.4806 10.6576 17.5415 10.4194 17.5415 10.1509C17.5415 9.71045 17.4162 9.38818 17.1655 9.18408C16.9149 8.9764 16.5246 8.87256 15.9946 8.87256C15.4647 8.87256 15.0726 8.9764 14.8184 9.18408C14.5677 9.38818 14.4424 9.71045 14.4424 10.1509ZM15.9893 15.3286C16.5765 15.3286 17.0098 15.2158 17.2891 14.9902C17.5684 14.7646 17.708 14.4119 17.708 13.9321C17.708 12.8687 17.1154 12.3369 15.9302 12.3369C15.3716 12.3369 14.9562 12.4712 14.6841 12.7397C14.4119 13.0047 14.2759 13.4022 14.2759 13.9321C14.2759 14.4119 14.4155 14.7646 14.6948 14.9902C14.9741 15.2158 15.4056 15.3286 15.9893 15.3286Z" fill="#C4C4C4"/>
</g>
<defs>
<filter id="filter0_d_42_1231" x="0" y="0" width="32" height="32" filterUnits="userSpaceOnUse" color-interpolation-filters="sRGB">
<feFlood flood-opacity="0" result="BackgroundImageFix"/>
<feColorMatrix in="SourceAlpha" type="matrix" values="0 0 0 0 0 0 0 0 0 0 0 0 0 0 0 0 0 0 127 0" result="hardAlpha"/>
<feOffset dy="4"/>
<feGaussianBlur stdDeviation="2"/>
<feComposite in2="hardAlpha" operator="out"/>
<feColorMatrix type="matrix" values="0 0 0 0 0 0 0 0 0 0 0 0 0 0 0 0 0 0 0.25 0"/>
<feBlend mode="normal" in2="BackgroundImageFix" result="effect1_dropShadow_42_1231"/>
<feBlend mode="normal" in="SourceGraphic" in2="effect1_dropShadow_42_1231" result="shape"/>
</filter>
</defs>
</svg>
