<svg width="152" height="42" viewBox="0 0 152 42" fill="none" xmlns="http://www.w3.org/2000/svg">
<g filter="url(#filter0_d_1035_1182)">
<path d="M4 4C4 1.79086 5.79086 0 8 0H82.9851H144C146.209 0 148 1.79086 148 4V30C148 32.2091 146.209 34 144 34H8C5.79086 34 4 32.2091 4 30V4Z" fill="#0144E4"/>
<path d="M71.8779 19.333H71.0589L67.7649 14.338V19.333H66.9459V13.051H67.7649L71.0589 18.037V13.051H71.8779V19.333ZM77.7741 16.678C77.7741 16.834 77.7651 16.999 77.7471 17.173H73.8051C73.8351 17.659 74.0001 18.04 74.3001 18.316C74.6061 18.586 74.9751 18.721 75.4071 18.721C75.7611 18.721 76.0551 18.64 76.2891 18.478C76.5291 18.31 76.6971 18.088 76.7931 17.812H77.6751C77.5431 18.286 77.2791 18.673 76.8831 18.973C76.4871 19.267 75.9951 19.414 75.4071 19.414C74.9391 19.414 74.5191 19.309 74.1471 19.099C73.7811 18.889 73.4931 18.592 73.2831 18.208C73.0731 17.818 72.9681 17.368 72.9681 16.858C72.9681 16.348 73.0701 15.901 73.2741 15.517C73.4781 15.133 73.7631 14.839 74.1291 14.635C74.5011 14.425 74.9271 14.32 75.4071 14.32C75.8751 14.32 76.2891 14.422 76.6491 14.626C77.0091 14.83 77.2851 15.112 77.4771 15.472C77.6751 15.826 77.7741 16.228 77.7741 16.678ZM76.9281 16.507C76.9281 16.195 76.8591 15.928 76.7211 15.706C76.5831 15.478 76.3941 15.307 76.1541 15.193C75.9201 15.073 75.6591 15.013 75.3711 15.013C74.9571 15.013 74.6031 15.145 74.3091 15.409C74.0211 15.673 73.8561 16.039 73.8141 16.507H76.9281ZM81.4291 19.333L80.2591 17.497L79.1341 19.333H78.2791L79.8721 16.885L78.2791 14.401H79.2061L80.3761 16.228L81.4921 14.401H82.3471L80.7631 16.84L82.3561 19.333H81.4291ZM84.1608 15.076V17.983C84.1608 18.223 84.2118 18.394 84.3138 18.496C84.4158 18.592 84.5928 18.64 84.8447 18.64H85.4478V19.333H84.7098C84.2538 19.333 83.9118 19.228 83.6838 19.018C83.4558 18.808 83.3418 18.463 83.3418 17.983V15.076H82.7028V14.401H83.3418V13.159H84.1608V14.401H85.4478V15.076H84.1608Z" fill="white"/>
</g>
<defs>
<filter id="filter0_d_1035_1182" x="0" y="0" width="152" height="42" filterUnits="userSpaceOnUse" color-interpolation-filters="sRGB">
<feFlood flood-opacity="0" result="BackgroundImageFix"/>
<feColorMatrix in="SourceAlpha" type="matrix" values="0 0 0 0 0 0 0 0 0 0 0 0 0 0 0 0 0 0 127 0" result="hardAlpha"/>
<feOffset dy="4"/>
<feGaussianBlur stdDeviation="2"/>
<feComposite in2="hardAlpha" operator="out"/>
<feColorMatrix type="matrix" values="0 0 0 0 0 0 0 0 0 0 0 0 0 0 0 0 0 0 0.25 0"/>
<feBlend mode="normal" in2="BackgroundImageFix" result="effect1_dropShadow_1035_1182"/>
<feBlend mode="normal" in="SourceGraphic" in2="effect1_dropShadow_1035_1182" result="shape"/>
</filter>
</defs>
</svg>
