<svg width="32" height="32" viewBox="0 0 32 32" fill="none" xmlns="http://www.w3.org/2000/svg">
<g filter="url(#filter0_d_42_1225)">
<rect x="4" width="24" height="24" rx="2" fill="white"/>
<path d="M16.1343 16.1719C15.4468 16.1719 14.9079 16.0931 14.5176 15.9355C14.1273 15.778 13.848 15.5273 13.6797 15.1836C13.515 14.8398 13.4344 14.3726 13.438 13.7817L13.4487 10.4302C13.4487 9.63167 13.6618 9.04085 14.0879 8.65771C14.5176 8.27458 15.1782 8.08301 16.0698 8.08301C16.8683 8.08301 17.486 8.24056 17.9229 8.55566C18.3597 8.86719 18.5781 9.40072 18.5781 10.1562H17.6865C17.6865 9.82324 17.6292 9.56543 17.5146 9.38281C17.4036 9.19661 17.23 9.06592 16.9937 8.99072C16.7573 8.91553 16.4404 8.87793 16.043 8.87793C15.6419 8.87793 15.3215 8.92985 15.0815 9.03369C14.8416 9.13395 14.6662 9.29329 14.5552 9.51172C14.4442 9.73014 14.3851 10.0238 14.3779 10.3926L14.3564 11.9556C14.5462 11.6799 14.7915 11.4829 15.0923 11.3647C15.3966 11.2466 15.8084 11.1875 16.3276 11.1875C16.9614 11.1875 17.452 11.2627 17.7993 11.4131C18.1502 11.5635 18.4009 11.8123 18.5513 12.1597C18.7017 12.507 18.7769 12.9958 18.7769 13.626C18.7769 14.2848 18.6999 14.7951 18.5459 15.1567C18.3955 15.5184 18.1323 15.778 17.7563 15.9355C17.3804 16.0931 16.8397 16.1719 16.1343 16.1719ZM16.1235 15.377C16.6177 15.377 16.9811 15.3304 17.2139 15.2373C17.4502 15.1406 17.6095 14.9723 17.6919 14.7324C17.7778 14.4925 17.8208 14.1255 17.8208 13.6313C17.8208 13.1981 17.7707 12.8633 17.6704 12.627C17.5737 12.387 17.409 12.2152 17.1763 12.1113C16.9471 12.0075 16.623 11.9556 16.2041 11.9556C15.6956 11.9556 15.2892 12.029 14.9849 12.1758C14.6841 12.3226 14.4764 12.55 14.3618 12.8579L14.3726 13.7817C14.3797 14.2078 14.437 14.5355 14.5444 14.7646C14.6519 14.9902 14.8291 15.1496 15.0762 15.2427C15.3232 15.3322 15.6724 15.377 16.1235 15.377Z" fill="#C4C4C4"/>
</g>
<defs>
<filter id="filter0_d_42_1225" x="0" y="0" width="32" height="32" filterUnits="userSpaceOnUse" color-interpolation-filters="sRGB">
<feFlood flood-opacity="0" result="BackgroundImageFix"/>
<feColorMatrix in="SourceAlpha" type="matrix" values="0 0 0 0 0 0 0 0 0 0 0 0 0 0 0 0 0 0 127 0" result="hardAlpha"/>
<feOffset dy="4"/>
<feGaussianBlur stdDeviation="2"/>
<feComposite in2="hardAlpha" operator="out"/>
<feColorMatrix type="matrix" values="0 0 0 0 0 0 0 0 0 0 0 0 0 0 0 0 0 0 0.25 0"/>
<feBlend mode="normal" in2="BackgroundImageFix" result="effect1_dropShadow_42_1225"/>
<feBlend mode="normal" in="SourceGraphic" in2="effect1_dropShadow_42_1225" result="shape"/>
</filter>
</defs>
</svg>
