<svg width="32" height="32" viewBox="0 0 32 32" fill="none" xmlns="http://www.w3.org/2000/svg">
<g filter="url(#filter0_d_44_177)">
<rect x="4" width="24" height="24" rx="2" fill="white"/>
<path d="M12.4658 9.14111L11.2842 9.70508V8.83496L12.5088 8.21729H13.4004V16H12.4658V9.14111ZM17.9873 16.1719C17.2998 16.1719 16.7609 16.0931 16.3706 15.9355C15.9803 15.778 15.701 15.5273 15.5327 15.1836C15.368 14.8398 15.2874 14.3726 15.291 13.7817L15.3018 10.4302C15.3018 9.63167 15.5148 9.04085 15.9409 8.65771C16.3706 8.27458 17.0312 8.08301 17.9229 8.08301C18.7214 8.08301 19.339 8.24056 19.7759 8.55566C20.2127 8.86719 20.4312 9.40072 20.4312 10.1562H19.5396C19.5396 9.82324 19.4823 9.56543 19.3677 9.38281C19.2567 9.19661 19.083 9.06592 18.8467 8.99072C18.6104 8.91553 18.2935 8.87793 17.896 8.87793C17.495 8.87793 17.1745 8.92985 16.9346 9.03369C16.6947 9.13395 16.5192 9.29329 16.4082 9.51172C16.2972 9.73014 16.2381 10.0238 16.231 10.3926L16.2095 11.9556C16.3993 11.6799 16.6445 11.4829 16.9453 11.3647C17.2497 11.2466 17.6615 11.1875 18.1807 11.1875C18.8145 11.1875 19.305 11.2627 19.6523 11.4131C20.0033 11.5635 20.2539 11.8123 20.4043 12.1597C20.5547 12.507 20.6299 12.9958 20.6299 13.626C20.6299 14.2848 20.5529 14.7951 20.3989 15.1567C20.2485 15.5184 19.9854 15.778 19.6094 15.9355C19.2334 16.0931 18.6927 16.1719 17.9873 16.1719ZM17.9766 15.377C18.4707 15.377 18.8341 15.3304 19.0669 15.2373C19.3032 15.1406 19.4626 14.9723 19.5449 14.7324C19.6309 14.4925 19.6738 14.1255 19.6738 13.6313C19.6738 13.1981 19.6237 12.8633 19.5234 12.627C19.4268 12.387 19.262 12.2152 19.0293 12.1113C18.8001 12.0075 18.4761 11.9556 18.0571 11.9556C17.5487 11.9556 17.1423 12.029 16.8379 12.1758C16.5371 12.3226 16.3294 12.55 16.2148 12.8579L16.2256 13.7817C16.2327 14.2078 16.29 14.5355 16.3975 14.7646C16.5049 14.9902 16.6821 15.1496 16.9292 15.2427C17.1763 15.3322 17.5254 15.377 17.9766 15.377Z" fill="#C4C4C4"/>
</g>
<defs>
<filter id="filter0_d_44_177" x="0" y="0" width="32" height="32" filterUnits="userSpaceOnUse" color-interpolation-filters="sRGB">
<feFlood flood-opacity="0" result="BackgroundImageFix"/>
<feColorMatrix in="SourceAlpha" type="matrix" values="0 0 0 0 0 0 0 0 0 0 0 0 0 0 0 0 0 0 127 0" result="hardAlpha"/>
<feOffset dy="4"/>
<feGaussianBlur stdDeviation="2"/>
<feComposite in2="hardAlpha" operator="out"/>
<feColorMatrix type="matrix" values="0 0 0 0 0 0 0 0 0 0 0 0 0 0 0 0 0 0 0.25 0"/>
<feBlend mode="normal" in2="BackgroundImageFix" result="effect1_dropShadow_44_177"/>
<feBlend mode="normal" in="SourceGraphic" in2="effect1_dropShadow_44_177" result="shape"/>
</filter>
</defs>
</svg>
