<svg width="32" height="32" viewBox="0 0 32 32" fill="none" xmlns="http://www.w3.org/2000/svg">
<g filter="url(#filter0_d_42_1252)">
<rect x="4" width="24" height="24" rx="2" fill="white"/>
<path d="M12.6914 9.14111L11.5098 9.70508V8.83496L12.7344 8.21729H13.626V16H12.6914V9.14111ZM17.6919 16.1343C16.854 16.1343 16.2453 15.9803 15.8657 15.6724C15.4862 15.3608 15.2964 14.8757 15.2964 14.2168H16.2202C16.2202 14.4997 16.2686 14.7271 16.3652 14.8989C16.4655 15.0672 16.623 15.1908 16.8379 15.2695C17.0527 15.3483 17.3392 15.3877 17.6973 15.3877C18.1842 15.3877 18.5513 15.3358 18.7983 15.2319C19.049 15.1281 19.2244 14.9455 19.3247 14.6841C19.425 14.4227 19.4751 14.036 19.4751 13.5239C19.4751 13.1121 19.425 12.7935 19.3247 12.5679C19.228 12.3387 19.0633 12.1758 18.8306 12.0791C18.6014 11.9788 18.2791 11.9287 17.8638 11.9287C17.5129 11.9287 17.2121 11.986 16.9614 12.1006C16.7108 12.2152 16.4655 12.4085 16.2256 12.6807L15.4575 12.4014L15.7529 8.26562H20.1035V9.0498H16.6553L16.4028 11.8804C16.5568 11.6619 16.7627 11.4811 17.0205 11.3379C17.2783 11.1947 17.6239 11.123 18.0571 11.123C18.63 11.123 19.0866 11.2036 19.4268 11.3647C19.7705 11.5259 20.0194 11.7801 20.1733 12.1274C20.3309 12.4748 20.4097 12.9403 20.4097 13.5239C20.4097 14.1541 20.3148 14.659 20.125 15.0386C19.9388 15.4181 19.647 15.6956 19.2495 15.8711C18.8556 16.0465 18.3364 16.1343 17.6919 16.1343Z" fill="#C4C4C4"/>
</g>
<defs>
<filter id="filter0_d_42_1252" x="0" y="0" width="32" height="32" filterUnits="userSpaceOnUse" color-interpolation-filters="sRGB">
<feFlood flood-opacity="0" result="BackgroundImageFix"/>
<feColorMatrix in="SourceAlpha" type="matrix" values="0 0 0 0 0 0 0 0 0 0 0 0 0 0 0 0 0 0 127 0" result="hardAlpha"/>
<feOffset dy="4"/>
<feGaussianBlur stdDeviation="2"/>
<feComposite in2="hardAlpha" operator="out"/>
<feColorMatrix type="matrix" values="0 0 0 0 0 0 0 0 0 0 0 0 0 0 0 0 0 0 0.25 0"/>
<feBlend mode="normal" in2="BackgroundImageFix" result="effect1_dropShadow_42_1252"/>
<feBlend mode="normal" in="SourceGraphic" in2="effect1_dropShadow_42_1252" result="shape"/>
</filter>
</defs>
</svg>
