<svg width="32" height="32" viewBox="0 0 32 32" fill="none" xmlns="http://www.w3.org/2000/svg">
<g filter="url(#filter0_d_42_1234)">
<rect x="4" width="24" height="24" rx="2" fill="white"/>
<path d="M15.8604 8.08301C16.5479 8.08301 17.0868 8.16178 17.4771 8.31934C17.8674 8.47689 18.1449 8.72754 18.3096 9.07129C18.4779 9.41504 18.5602 9.88232 18.5566 10.4731L18.5459 13.8247C18.5459 14.6232 18.3311 15.214 17.9014 15.5972C17.4753 15.9803 16.8164 16.1719 15.9248 16.1719C15.1263 16.1719 14.5086 16.0161 14.0718 15.7046C13.6349 15.3895 13.4165 14.8542 13.4165 14.0986H14.3081C14.3081 14.4316 14.3636 14.6912 14.4746 14.8774C14.5892 15.0601 14.7646 15.189 15.001 15.2642C15.2373 15.3394 15.5542 15.377 15.9517 15.377C16.3527 15.377 16.6732 15.3268 16.9131 15.2266C17.153 15.1227 17.3285 14.9616 17.4395 14.7432C17.5505 14.5247 17.6095 14.2311 17.6167 13.8623L17.6382 12.2993C17.4484 12.575 17.2013 12.772 16.897 12.8901C16.5962 13.0083 16.1862 13.0674 15.667 13.0674C15.0332 13.0674 14.5409 12.9922 14.1899 12.8418C13.8426 12.6914 13.5938 12.4425 13.4434 12.0952C13.293 11.7479 13.2178 11.2591 13.2178 10.6289C13.2178 9.97005 13.293 9.4598 13.4434 9.09814C13.5973 8.73649 13.8623 8.47689 14.2383 8.31934C14.6143 8.16178 15.1549 8.08301 15.8604 8.08301ZM15.8711 8.87793C15.377 8.87793 15.0117 8.92627 14.7754 9.02295C14.5426 9.11605 14.3833 9.28255 14.2974 9.52246C14.215 9.76237 14.1738 10.1294 14.1738 10.6235C14.1738 11.0568 14.2222 11.3934 14.3188 11.6333C14.4191 11.8696 14.5838 12.0397 14.813 12.1436C15.0457 12.2474 15.3716 12.2993 15.7905 12.2993C16.299 12.2993 16.7036 12.2259 17.0044 12.0791C17.3088 11.9323 17.5182 11.7049 17.6328 11.397L17.6221 10.4731C17.6149 10.047 17.5576 9.72119 17.4502 9.49561C17.3428 9.26644 17.1655 9.1071 16.9185 9.01758C16.6714 8.92448 16.3223 8.87793 15.8711 8.87793Z" fill="#C4C4C4"/>
</g>
<defs>
<filter id="filter0_d_42_1234" x="0" y="0" width="32" height="32" filterUnits="userSpaceOnUse" color-interpolation-filters="sRGB">
<feFlood flood-opacity="0" result="BackgroundImageFix"/>
<feColorMatrix in="SourceAlpha" type="matrix" values="0 0 0 0 0 0 0 0 0 0 0 0 0 0 0 0 0 0 127 0" result="hardAlpha"/>
<feOffset dy="4"/>
<feGaussianBlur stdDeviation="2"/>
<feComposite in2="hardAlpha" operator="out"/>
<feColorMatrix type="matrix" values="0 0 0 0 0 0 0 0 0 0 0 0 0 0 0 0 0 0 0.25 0"/>
<feBlend mode="normal" in2="BackgroundImageFix" result="effect1_dropShadow_42_1234"/>
<feBlend mode="normal" in="SourceGraphic" in2="effect1_dropShadow_42_1234" result="shape"/>
</filter>
</defs>
</svg>
