<svg width="152" height="42" viewBox="0 0 152 42" fill="none" xmlns="http://www.w3.org/2000/svg">
<g filter="url(#filter0_d_456_2619)">
<path d="M4 4C4 1.79086 5.79086 0 8 0H82.9851H144C146.209 0 148 1.79086 148 4V30C148 32.2091 146.209 34 144 34H8C5.79086 34 4 32.2091 4 30V4Z" fill="#0144E4"/>
<path d="M62.7386 19.3965C62.3246 19.3965 61.9526 19.3245 61.6226 19.1805C61.2986 19.0305 61.0436 18.8265 60.8576 18.5685C60.6716 18.3045 60.5756 18.0015 60.5696 17.6595H61.4426C61.4726 17.9535 61.5926 18.2025 61.8026 18.4065C62.0186 18.6045 62.3306 18.7035 62.7386 18.7035C63.1286 18.7035 63.4346 18.6075 63.6566 18.4155C63.8846 18.2175 63.9986 17.9655 63.9986 17.6595C63.9986 17.4195 63.9326 17.2245 63.8006 17.0745C63.6686 16.9245 63.5036 16.8105 63.3056 16.7325C63.1076 16.6545 62.8406 16.5705 62.5046 16.4805C62.0906 16.3725 61.7576 16.2645 61.5056 16.1565C61.2596 16.0485 61.0466 15.8805 60.8666 15.6525C60.6926 15.4185 60.6056 15.1065 60.6056 14.7165C60.6056 14.3745 60.6926 14.0715 60.8666 13.8075C61.0406 13.5435 61.2836 13.3395 61.5956 13.1955C61.9136 13.0515 62.2766 12.9795 62.6846 12.9795C63.2726 12.9795 63.7526 13.1265 64.1246 13.4205C64.5026 13.7145 64.7156 14.1045 64.7636 14.5905H63.8636C63.8336 14.3505 63.7076 14.1405 63.4856 13.9605C63.2636 13.7745 62.9696 13.6815 62.6036 13.6815C62.2616 13.6815 61.9826 13.7715 61.7666 13.9515C61.5506 14.1255 61.4426 14.3715 61.4426 14.6895C61.4426 14.9175 61.5056 15.1035 61.6316 15.2475C61.7636 15.3915 61.9226 15.5025 62.1086 15.5805C62.3006 15.6525 62.5676 15.7365 62.9096 15.8325C63.3236 15.9465 63.6566 16.0605 63.9086 16.1745C64.1606 16.2825 64.3766 16.4535 64.5566 16.6875C64.7366 16.9155 64.8266 17.2275 64.8266 17.6235C64.8266 17.9295 64.7456 18.2175 64.5836 18.4875C64.4216 18.7575 64.1816 18.9765 63.8636 19.1445C63.5456 19.3125 63.1706 19.3965 62.7386 19.3965ZM70.4059 14.4015V19.3335H69.5869V18.6045C69.4309 18.8565 69.2119 19.0545 68.9299 19.1985C68.6539 19.3365 68.3479 19.4055 68.0119 19.4055C67.6279 19.4055 67.2829 19.3275 66.9769 19.1715C66.6709 19.0095 66.4279 18.7695 66.2479 18.4515C66.0739 18.1335 65.9869 17.7465 65.9869 17.2905V14.4015H66.7969V17.1825C66.7969 17.6685 66.9199 18.0435 67.1659 18.3075C67.4119 18.5655 67.7479 18.6945 68.1739 18.6945C68.6119 18.6945 68.9569 18.5595 69.2089 18.2895C69.4609 18.0195 69.5869 17.6265 69.5869 17.1105V14.4015H70.4059ZM72.6077 15.3195C72.7757 15.0255 73.0217 14.7855 73.3457 14.5995C73.6697 14.4135 74.0387 14.3205 74.4527 14.3205C74.8967 14.3205 75.2957 14.4255 75.6497 14.6355C76.0037 14.8455 76.2827 15.1425 76.4867 15.5265C76.6907 15.9045 76.7927 16.3455 76.7927 16.8495C76.7927 17.3475 76.6907 17.7915 76.4867 18.1815C76.2827 18.5715 76.0007 18.8745 75.6407 19.0905C75.2867 19.3065 74.8907 19.4145 74.4527 19.4145C74.0267 19.4145 73.6517 19.3215 73.3277 19.1355C73.0097 18.9495 72.7697 18.7125 72.6077 18.4245V19.3335H71.7887V12.6735H72.6077V15.3195ZM75.9557 16.8495C75.9557 16.4775 75.8807 16.1535 75.7307 15.8775C75.5807 15.6015 75.3767 15.3915 75.1187 15.2475C74.8667 15.1035 74.5877 15.0315 74.2817 15.0315C73.9817 15.0315 73.7027 15.1065 73.4447 15.2565C73.1927 15.4005 72.9887 15.6135 72.8327 15.8955C72.6827 16.1715 72.6077 16.4925 72.6077 16.8585C72.6077 17.2305 72.6827 17.5575 72.8327 17.8395C72.9887 18.1155 73.1927 18.3285 73.4447 18.4785C73.7027 18.6225 73.9817 18.6945 74.2817 18.6945C74.5877 18.6945 74.8667 18.6225 75.1187 18.4785C75.3767 18.3285 75.5807 18.1155 75.7307 17.8395C75.8807 17.5575 75.9557 17.2275 75.9557 16.8495ZM83.8017 14.3115C84.1857 14.3115 84.5277 14.3925 84.8277 14.5545C85.1277 14.7105 85.3647 14.9475 85.5387 15.2655C85.7127 15.5835 85.7997 15.9705 85.7997 16.4265V19.3335H84.9897V16.5435C84.9897 16.0515 84.8667 15.6765 84.6207 15.4185C84.3807 15.1545 84.0537 15.0225 83.6397 15.0225C83.2137 15.0225 82.8747 15.1605 82.6227 15.4365C82.3707 15.7065 82.2447 16.0995 82.2447 16.6155V19.3335H81.4347V16.5435C81.4347 16.0515 81.3117 15.6765 81.0657 15.4185C80.8257 15.1545 80.4987 15.0225 80.0847 15.0225C79.6587 15.0225 79.3197 15.1605 79.0677 15.4365C78.8157 15.7065 78.6897 16.0995 78.6897 16.6155V19.3335H77.8707V14.4015H78.6897V15.1125C78.8517 14.8545 79.0677 14.6565 79.3377 14.5185C79.6137 14.3805 79.9167 14.3115 80.2467 14.3115C80.6607 14.3115 81.0267 14.4045 81.3447 14.5905C81.6627 14.7765 81.8997 15.0495 82.0557 15.4095C82.1937 15.0615 82.4217 14.7915 82.7397 14.5995C83.0577 14.4075 83.4117 14.3115 83.8017 14.3115ZM87.5662 13.6005C87.4102 13.6005 87.2782 13.5465 87.1702 13.4385C87.0622 13.3305 87.0082 13.1985 87.0082 13.0425C87.0082 12.8865 87.0622 12.7545 87.1702 12.6465C87.2782 12.5385 87.4102 12.4845 87.5662 12.4845C87.7162 12.4845 87.8422 12.5385 87.9442 12.6465C88.0522 12.7545 88.1062 12.8865 88.1062 13.0425C88.1062 13.1985 88.0522 13.3305 87.9442 13.4385C87.8422 13.5465 87.7162 13.6005 87.5662 13.6005ZM87.9622 14.4015V19.3335H87.1432V14.4015H87.9622ZM90.357 15.0765V17.9835C90.357 18.2235 90.408 18.3945 90.51 18.4965C90.612 18.5925 90.789 18.6405 91.041 18.6405H91.644V19.3335H90.906C90.45 19.3335 90.108 19.2285 89.88 19.0185C89.652 18.8085 89.538 18.4635 89.538 17.9835V15.0765H88.899V14.4015H89.538V13.1595H90.357V14.4015H91.644V15.0765H90.357Z" fill="white"/>
</g>
<defs>
<filter id="filter0_d_456_2619" x="0" y="0" width="152" height="42" filterUnits="userSpaceOnUse" color-interpolation-filters="sRGB">
<feFlood flood-opacity="0" result="BackgroundImageFix"/>
<feColorMatrix in="SourceAlpha" type="matrix" values="0 0 0 0 0 0 0 0 0 0 0 0 0 0 0 0 0 0 127 0" result="hardAlpha"/>
<feOffset dy="4"/>
<feGaussianBlur stdDeviation="2"/>
<feComposite in2="hardAlpha" operator="out"/>
<feColorMatrix type="matrix" values="0 0 0 0 0 0 0 0 0 0 0 0 0 0 0 0 0 0 0.25 0"/>
<feBlend mode="normal" in2="BackgroundImageFix" result="effect1_dropShadow_456_2619"/>
<feBlend mode="normal" in="SourceGraphic" in2="effect1_dropShadow_456_2619" result="shape"/>
</filter>
</defs>
</svg>
