<svg width="152" height="42" viewBox="0 0 152 42" fill="none" xmlns="http://www.w3.org/2000/svg">
<g filter="url(#filter0_d_122_5595)">
<path d="M4 4C4 1.79086 5.79086 0 8 0H82.9851H144C146.209 0 148 1.79086 148 4V30C148 32.2091 146.209 34 144 34H8C5.79086 34 4 32.2091 4 30V4Z" fill="#8B8B8B"/>
<path d="M34.8191 14.7264V16.8234H37.1051V17.4984H34.8191V19.6584H37.3751V20.3334H34.0001V14.0514H37.3751V14.7264H34.8191ZM41.0174 15.3114C41.6174 15.3114 42.1034 15.4944 42.4754 15.8604C42.8474 16.2204 43.0334 16.7424 43.0334 17.4264V20.3334H42.2234V17.5434C42.2234 17.0514 42.1004 16.6764 41.8544 16.4184C41.6084 16.1544 41.2724 16.0224 40.8464 16.0224C40.4144 16.0224 40.0694 16.1574 39.8114 16.4274C39.5594 16.6974 39.4334 17.0904 39.4334 17.6064V20.3334H38.6144V15.4014H39.4334V16.1034C39.5954 15.8514 39.8144 15.6564 40.0904 15.5184C40.3724 15.3804 40.6814 15.3114 41.0174 15.3114ZM45.1902 16.2024C45.3342 15.9204 45.5382 15.7014 45.8022 15.5454C46.0722 15.3894 46.3992 15.3114 46.7832 15.3114V16.1574H46.5672C45.6492 16.1574 45.1902 16.6554 45.1902 17.6514V20.3334H44.3712V15.4014H45.1902V16.2024ZM49.8796 20.4144C49.4176 20.4144 48.9976 20.3094 48.6196 20.0994C48.2476 19.8894 47.9536 19.5924 47.7376 19.2084C47.5276 18.8184 47.4226 18.3684 47.4226 17.8584C47.4226 17.3544 47.5306 16.9104 47.7466 16.5264C47.9686 16.1364 48.2686 15.8394 48.6466 15.6354C49.0246 15.4254 49.4476 15.3204 49.9156 15.3204C50.3836 15.3204 50.8066 15.4254 51.1846 15.6354C51.5626 15.8394 51.8596 16.1334 52.0756 16.5174C52.2976 16.9014 52.4086 17.3484 52.4086 17.8584C52.4086 18.3684 52.2946 18.8184 52.0666 19.2084C51.8446 19.5924 51.5416 19.8894 51.1576 20.0994C50.7736 20.3094 50.3476 20.4144 49.8796 20.4144ZM49.8796 19.6944C50.1736 19.6944 50.4496 19.6254 50.7076 19.4874C50.9656 19.3494 51.1726 19.1424 51.3286 18.8664C51.4906 18.5904 51.5716 18.2544 51.5716 17.8584C51.5716 17.4624 51.4936 17.1264 51.3376 16.8504C51.1816 16.5744 50.9776 16.3704 50.7256 16.2384C50.4736 16.1004 50.2006 16.0314 49.9066 16.0314C49.6066 16.0314 49.3306 16.1004 49.0786 16.2384C48.8326 16.3704 48.6346 16.5744 48.4846 16.8504C48.3346 17.1264 48.2596 17.4624 48.2596 17.8584C48.2596 18.2604 48.3316 18.5994 48.4756 18.8754C48.6256 19.1514 48.8236 19.3584 49.0696 19.4964C49.3156 19.6284 49.5856 19.6944 49.8796 19.6944ZM54.3045 13.6734V20.3334H53.4855V13.6734H54.3045ZM56.5193 13.6734V20.3334H55.7003V13.6734H56.5193ZM61.3136 16.0764V18.9834C61.3136 19.2234 61.3646 19.3944 61.4666 19.4964C61.5686 19.5924 61.7456 19.6404 61.9976 19.6404H62.6006V20.3334H61.8626C61.4066 20.3334 61.0646 20.2284 60.8366 20.0184C60.6086 19.8084 60.4946 19.4634 60.4946 18.9834V16.0764H59.8556V15.4014H60.4946V14.1594H61.3136V15.4014H62.6006V16.0764H61.3136ZM65.7439 20.4144C65.2819 20.4144 64.8619 20.3094 64.4839 20.0994C64.1119 19.8894 63.8179 19.5924 63.6019 19.2084C63.3919 18.8184 63.2869 18.3684 63.2869 17.8584C63.2869 17.3544 63.3949 16.9104 63.6109 16.5264C63.8329 16.1364 64.1329 15.8394 64.5109 15.6354C64.8889 15.4254 65.3119 15.3204 65.7799 15.3204C66.2479 15.3204 66.6709 15.4254 67.0489 15.6354C67.4269 15.8394 67.7239 16.1334 67.9399 16.5174C68.1619 16.9014 68.2729 17.3484 68.2729 17.8584C68.2729 18.3684 68.1589 18.8184 67.9309 19.2084C67.7089 19.5924 67.4059 19.8894 67.0219 20.0994C66.6379 20.3094 66.2119 20.4144 65.7439 20.4144ZM65.7439 19.6944C66.0379 19.6944 66.3139 19.6254 66.5719 19.4874C66.8299 19.3494 67.0369 19.1424 67.1929 18.8664C67.3549 18.5904 67.4359 18.2544 67.4359 17.8584C67.4359 17.4624 67.3579 17.1264 67.2019 16.8504C67.0459 16.5744 66.8419 16.3704 66.5899 16.2384C66.3379 16.1004 66.0649 16.0314 65.7709 16.0314C65.4709 16.0314 65.1949 16.1004 64.9429 16.2384C64.6969 16.3704 64.4989 16.5744 64.3489 16.8504C64.1989 17.1264 64.1239 17.4624 64.1239 17.8584C64.1239 18.2604 64.1959 18.5994 64.3399 18.8754C64.4899 19.1514 64.6879 19.3584 64.9339 19.4964C65.1799 19.6284 65.4499 19.6944 65.7439 19.6944ZM72.7482 16.0764V18.9834C72.7482 19.2234 72.7992 19.3944 72.9012 19.4964C73.0032 19.5924 73.1802 19.6404 73.4322 19.6404H74.0352V20.3334H73.2972C72.8412 20.3334 72.4992 20.2284 72.2712 20.0184C72.0432 19.8084 71.9292 19.4634 71.9292 18.9834V16.0764H71.2902V15.4014H71.9292V14.1594H72.7482V15.4014H74.0352V16.0764H72.7482ZM77.4755 15.3114C77.8475 15.3114 78.1835 15.3924 78.4835 15.5544C78.7835 15.7104 79.0175 15.9474 79.1855 16.2654C79.3595 16.5834 79.4465 16.9704 79.4465 17.4264V20.3334H78.6365V17.5434C78.6365 17.0514 78.5135 16.6764 78.2675 16.4184C78.0215 16.1544 77.6855 16.0224 77.2595 16.0224C76.8275 16.0224 76.4825 16.1574 76.2245 16.4274C75.9725 16.6974 75.8465 17.0904 75.8465 17.6064V20.3334H75.0275V13.6734H75.8465V16.1034C76.0085 15.8514 76.2305 15.6564 76.5125 15.5184C76.8005 15.3804 77.1215 15.3114 77.4755 15.3114ZM85.2843 17.6784C85.2843 17.8344 85.2753 17.9994 85.2573 18.1734H81.3153C81.3453 18.6594 81.5103 19.0404 81.8103 19.3164C82.1163 19.5864 82.4853 19.7214 82.9173 19.7214C83.2713 19.7214 83.5653 19.6404 83.7993 19.4784C84.0393 19.3104 84.2073 19.0884 84.3033 18.8124H85.1853C85.0533 19.2864 84.7893 19.6734 84.3933 19.9734C83.9973 20.2674 83.5053 20.4144 82.9173 20.4144C82.4493 20.4144 82.0293 20.3094 81.6573 20.0994C81.2913 19.8894 81.0033 19.5924 80.7933 19.2084C80.5833 18.8184 80.4783 18.3684 80.4783 17.8584C80.4783 17.3484 80.5803 16.9014 80.7843 16.5174C80.9883 16.1334 81.2733 15.8394 81.6393 15.6354C82.0113 15.4254 82.4373 15.3204 82.9173 15.3204C83.3853 15.3204 83.7993 15.4224 84.1593 15.6264C84.5193 15.8304 84.7953 16.1124 84.9873 16.4724C85.1853 16.8264 85.2843 17.2284 85.2843 17.6784ZM84.4383 17.5074C84.4383 17.1954 84.3693 16.9284 84.2313 16.7064C84.0933 16.4784 83.9043 16.3074 83.6643 16.1934C83.4303 16.0734 83.1693 16.0134 82.8813 16.0134C82.4673 16.0134 82.1133 16.1454 81.8193 16.4094C81.5313 16.6734 81.3663 17.0394 81.3243 17.5074H84.4383ZM88.4588 17.8584C88.4588 17.3484 88.5608 16.9044 88.7648 16.5264C88.9688 16.1424 89.2508 15.8454 89.6108 15.6354C89.9768 15.4254 90.3938 15.3204 90.8618 15.3204C91.4678 15.3204 91.9658 15.4674 92.3558 15.7614C92.7518 16.0554 93.0128 16.4634 93.1388 16.9854H92.2568C92.1728 16.6854 92.0078 16.4484 91.7618 16.2744C91.5218 16.1004 91.2218 16.0134 90.8618 16.0134C90.3938 16.0134 90.0158 16.1754 89.7278 16.4994C89.4398 16.8174 89.2958 17.2704 89.2958 17.8584C89.2958 18.4524 89.4398 18.9114 89.7278 19.2354C90.0158 19.5594 90.3938 19.7214 90.8618 19.7214C91.2218 19.7214 91.5218 19.6374 91.7618 19.4694C92.0018 19.3014 92.1668 19.0614 92.2568 18.7494H93.1388C93.0068 19.2534 92.7428 19.6584 92.3468 19.9644C91.9508 20.2644 91.4558 20.4144 90.8618 20.4144C90.3938 20.4144 89.9768 20.3094 89.6108 20.0994C89.2508 19.8894 88.9688 19.5924 88.7648 19.2084C88.5608 18.8244 88.4588 18.3744 88.4588 17.8584ZM96.3826 20.4144C95.9206 20.4144 95.5006 20.3094 95.1226 20.0994C94.7506 19.8894 94.4566 19.5924 94.2406 19.2084C94.0306 18.8184 93.9256 18.3684 93.9256 17.8584C93.9256 17.3544 94.0336 16.9104 94.2496 16.5264C94.4716 16.1364 94.7716 15.8394 95.1496 15.6354C95.5276 15.4254 95.9506 15.3204 96.4186 15.3204C96.8866 15.3204 97.3096 15.4254 97.6876 15.6354C98.0656 15.8394 98.3626 16.1334 98.5786 16.5174C98.8006 16.9014 98.9116 17.3484 98.9116 17.8584C98.9116 18.3684 98.7976 18.8184 98.5696 19.2084C98.3476 19.5924 98.0446 19.8894 97.6606 20.0994C97.2766 20.3094 96.8506 20.4144 96.3826 20.4144ZM96.3826 19.6944C96.6766 19.6944 96.9526 19.6254 97.2106 19.4874C97.4686 19.3494 97.6756 19.1424 97.8316 18.8664C97.9936 18.5904 98.0746 18.2544 98.0746 17.8584C98.0746 17.4624 97.9966 17.1264 97.8406 16.8504C97.6846 16.5744 97.4806 16.3704 97.2286 16.2384C96.9766 16.1004 96.7036 16.0314 96.4096 16.0314C96.1096 16.0314 95.8336 16.1004 95.5816 16.2384C95.3356 16.3704 95.1376 16.5744 94.9876 16.8504C94.8376 17.1264 94.7626 17.4624 94.7626 17.8584C94.7626 18.2604 94.8346 18.5994 94.9786 18.8754C95.1286 19.1514 95.3266 19.3584 95.5726 19.4964C95.8186 19.6284 96.0886 19.6944 96.3826 19.6944ZM104.362 15.4014V20.3334H103.543V19.6044C103.387 19.8564 103.168 20.0544 102.886 20.1984C102.61 20.3364 102.304 20.4054 101.968 20.4054C101.584 20.4054 101.239 20.3274 100.933 20.1714C100.627 20.0094 100.384 19.7694 100.204 19.4514C100.03 19.1334 99.9434 18.7464 99.9434 18.2904V15.4014H100.753V18.1824C100.753 18.6684 100.876 19.0434 101.122 19.3074C101.368 19.5654 101.704 19.6944 102.13 19.6944C102.568 19.6944 102.913 19.5594 103.165 19.2894C103.417 19.0194 103.543 18.6264 103.543 18.1104V15.4014H104.362ZM106.564 16.2024C106.708 15.9204 106.912 15.7014 107.176 15.5454C107.446 15.3894 107.773 15.3114 108.157 15.3114V16.1574H107.941C107.023 16.1574 106.564 16.6554 106.564 17.6514V20.3334H105.745V15.4014H106.564V16.2024ZM110.849 20.4144C110.471 20.4144 110.132 20.3514 109.832 20.2254C109.532 20.0934 109.295 19.9134 109.121 19.6854C108.947 19.4514 108.851 19.1844 108.833 18.8844H109.679C109.703 19.1304 109.817 19.3314 110.021 19.4874C110.231 19.6434 110.504 19.7214 110.84 19.7214C111.152 19.7214 111.398 19.6524 111.578 19.5144C111.758 19.3764 111.848 19.2024 111.848 18.9924C111.848 18.7764 111.752 18.6174 111.56 18.5154C111.368 18.4074 111.071 18.3024 110.669 18.2004C110.303 18.1044 110.003 18.0084 109.769 17.9124C109.541 17.8104 109.343 17.6634 109.175 17.4714C109.013 17.2734 108.932 17.0154 108.932 16.6974C108.932 16.4454 109.007 16.2144 109.157 16.0044C109.307 15.7944 109.52 15.6294 109.796 15.5094C110.072 15.3834 110.387 15.3204 110.741 15.3204C111.287 15.3204 111.728 15.4584 112.064 15.7344C112.4 16.0104 112.58 16.3884 112.604 16.8684H111.785C111.767 16.6104 111.662 16.4034 111.47 16.2474C111.284 16.0914 111.032 16.0134 110.714 16.0134C110.42 16.0134 110.186 16.0764 110.012 16.2024C109.838 16.3284 109.751 16.4934 109.751 16.6974C109.751 16.8594 109.802 16.9944 109.904 17.1024C110.012 17.2044 110.144 17.2884 110.3 17.3544C110.462 17.4144 110.684 17.4834 110.966 17.5614C111.32 17.6574 111.608 17.7534 111.83 17.8494C112.052 17.9394 112.241 18.0774 112.397 18.2634C112.559 18.4494 112.643 18.6924 112.649 18.9924C112.649 19.2624 112.574 19.5054 112.424 19.7214C112.274 19.9374 112.061 20.1084 111.785 20.2344C111.515 20.3544 111.203 20.4144 110.849 20.4144ZM118.305 17.6784C118.305 17.8344 118.296 17.9994 118.278 18.1734H114.336C114.366 18.6594 114.531 19.0404 114.831 19.3164C115.137 19.5864 115.506 19.7214 115.938 19.7214C116.292 19.7214 116.586 19.6404 116.82 19.4784C117.06 19.3104 117.228 19.0884 117.324 18.8124H118.206C118.074 19.2864 117.81 19.6734 117.414 19.9734C117.018 20.2674 116.526 20.4144 115.938 20.4144C115.47 20.4144 115.05 20.3094 114.678 20.0994C114.312 19.8894 114.024 19.5924 113.814 19.2084C113.604 18.8184 113.499 18.3684 113.499 17.8584C113.499 17.3484 113.601 16.9014 113.805 16.5174C114.009 16.1334 114.294 15.8394 114.66 15.6354C115.032 15.4254 115.458 15.3204 115.938 15.3204C116.406 15.3204 116.82 15.4224 117.18 15.6264C117.54 15.8304 117.816 16.1124 118.008 16.4724C118.206 16.8264 118.305 17.2284 118.305 17.6784ZM117.459 17.5074C117.459 17.1954 117.39 16.9284 117.252 16.7064C117.114 16.4784 116.925 16.3074 116.685 16.1934C116.451 16.0734 116.19 16.0134 115.902 16.0134C115.488 16.0134 115.134 16.1454 114.84 16.4094C114.552 16.6734 114.387 17.0394 114.345 17.5074H117.459Z" fill="white"/>
</g>
<defs>
<filter id="filter0_d_122_5595" x="0" y="0" width="152" height="42" filterUnits="userSpaceOnUse" color-interpolation-filters="sRGB">
<feFlood flood-opacity="0" result="BackgroundImageFix"/>
<feColorMatrix in="SourceAlpha" type="matrix" values="0 0 0 0 0 0 0 0 0 0 0 0 0 0 0 0 0 0 127 0" result="hardAlpha"/>
<feOffset dy="4"/>
<feGaussianBlur stdDeviation="2"/>
<feComposite in2="hardAlpha" operator="out"/>
<feColorMatrix type="matrix" values="0 0 0 0 0 0 0 0 0 0 0 0 0 0 0 0 0 0 0.25 0"/>
<feBlend mode="normal" in2="BackgroundImageFix" result="effect1_dropShadow_122_5595"/>
<feBlend mode="normal" in="SourceGraphic" in2="effect1_dropShadow_122_5595" result="shape"/>
</filter>
</defs>
</svg>
