<svg width="152" height="42" viewBox="0 0 152 42" fill="none" xmlns="http://www.w3.org/2000/svg">
<g filter="url(#filter0_d_216_6124)">
<path d="M4 4C4 1.79086 5.79086 0 8 0H82.9851H144C146.209 0 148 1.79086 148 4V30C148 32.2091 146.209 34 144 34H8C5.79086 34 4 32.2091 4 30V4Z" fill="#0144E4"/>
<path d="M34.8191 14.7263V16.8233H37.1051V17.4983H34.8191V19.6583H37.3751V20.3333H34.0001V14.0513H37.3751V14.7263H34.8191ZM41.0174 15.3113C41.6174 15.3113 42.1034 15.4943 42.4754 15.8603C42.8474 16.2203 43.0334 16.7423 43.0334 17.4263V20.3333H42.2234V17.5433C42.2234 17.0513 42.1004 16.6763 41.8544 16.4183C41.6084 16.1543 41.2724 16.0223 40.8464 16.0223C40.4144 16.0223 40.0694 16.1573 39.8114 16.4273C39.5594 16.6973 39.4334 17.0903 39.4334 17.6063V20.3333H38.6144V15.4013H39.4334V16.1033C39.5954 15.8513 39.8144 15.6563 40.0904 15.5183C40.3724 15.3803 40.6814 15.3113 41.0174 15.3113ZM45.1902 16.2023C45.3342 15.9203 45.5382 15.7013 45.8022 15.5453C46.0722 15.3893 46.3992 15.3113 46.7832 15.3113V16.1573H46.5672C45.6492 16.1573 45.1902 16.6553 45.1902 17.6513V20.3333H44.3712V15.4013H45.1902V16.2023ZM49.8796 20.4143C49.4176 20.4143 48.9976 20.3093 48.6196 20.0993C48.2476 19.8893 47.9536 19.5923 47.7376 19.2083C47.5276 18.8183 47.4226 18.3683 47.4226 17.8583C47.4226 17.3543 47.5306 16.9103 47.7466 16.5263C47.9686 16.1363 48.2686 15.8393 48.6466 15.6353C49.0246 15.4253 49.4476 15.3203 49.9156 15.3203C50.3836 15.3203 50.8066 15.4253 51.1846 15.6353C51.5626 15.8393 51.8596 16.1333 52.0756 16.5173C52.2976 16.9013 52.4086 17.3483 52.4086 17.8583C52.4086 18.3683 52.2946 18.8183 52.0666 19.2083C51.8446 19.5923 51.5416 19.8893 51.1576 20.0993C50.7736 20.3093 50.3476 20.4143 49.8796 20.4143ZM49.8796 19.6943C50.1736 19.6943 50.4496 19.6253 50.7076 19.4873C50.9656 19.3493 51.1726 19.1423 51.3286 18.8663C51.4906 18.5903 51.5716 18.2543 51.5716 17.8583C51.5716 17.4623 51.4936 17.1263 51.3376 16.8503C51.1816 16.5743 50.9776 16.3703 50.7256 16.2383C50.4736 16.1003 50.2006 16.0313 49.9066 16.0313C49.6066 16.0313 49.3306 16.1003 49.0786 16.2383C48.8326 16.3703 48.6346 16.5743 48.4846 16.8503C48.3346 17.1263 48.2596 17.4623 48.2596 17.8583C48.2596 18.2603 48.3316 18.5993 48.4756 18.8753C48.6256 19.1513 48.8236 19.3583 49.0696 19.4963C49.3156 19.6283 49.5856 19.6943 49.8796 19.6943ZM54.3045 13.6733V20.3333H53.4855V13.6733H54.3045ZM56.5193 13.6733V20.3333H55.7003V13.6733H56.5193ZM61.3136 16.0763V18.9833C61.3136 19.2233 61.3646 19.3943 61.4666 19.4963C61.5686 19.5923 61.7456 19.6403 61.9976 19.6403H62.6006V20.3333H61.8626C61.4066 20.3333 61.0646 20.2283 60.8366 20.0183C60.6086 19.8083 60.4946 19.4633 60.4946 18.9833V16.0763H59.8556V15.4013H60.4946V14.1593H61.3136V15.4013H62.6006V16.0763H61.3136ZM65.7439 20.4143C65.2819 20.4143 64.8619 20.3093 64.4839 20.0993C64.1119 19.8893 63.8179 19.5923 63.6019 19.2083C63.3919 18.8183 63.2869 18.3683 63.2869 17.8583C63.2869 17.3543 63.3949 16.9103 63.6109 16.5263C63.8329 16.1363 64.1329 15.8393 64.5109 15.6353C64.8889 15.4253 65.3119 15.3203 65.7799 15.3203C66.2479 15.3203 66.6709 15.4253 67.0489 15.6353C67.4269 15.8393 67.7239 16.1333 67.9399 16.5173C68.1619 16.9013 68.2729 17.3483 68.2729 17.8583C68.2729 18.3683 68.1589 18.8183 67.9309 19.2083C67.7089 19.5923 67.4059 19.8893 67.0219 20.0993C66.6379 20.3093 66.2119 20.4143 65.7439 20.4143ZM65.7439 19.6943C66.0379 19.6943 66.3139 19.6253 66.5719 19.4873C66.8299 19.3493 67.0369 19.1423 67.1929 18.8663C67.3549 18.5903 67.4359 18.2543 67.4359 17.8583C67.4359 17.4623 67.3579 17.1263 67.2019 16.8503C67.0459 16.5743 66.8419 16.3703 66.5899 16.2383C66.3379 16.1003 66.0649 16.0313 65.7709 16.0313C65.4709 16.0313 65.1949 16.1003 64.9429 16.2383C64.6969 16.3703 64.4989 16.5743 64.3489 16.8503C64.1989 17.1263 64.1239 17.4623 64.1239 17.8583C64.1239 18.2603 64.1959 18.5993 64.3399 18.8753C64.4899 19.1513 64.6879 19.3583 64.9339 19.4963C65.1799 19.6283 65.4499 19.6943 65.7439 19.6943ZM72.7482 16.0763V18.9833C72.7482 19.2233 72.7992 19.3943 72.9012 19.4963C73.0032 19.5923 73.1802 19.6403 73.4322 19.6403H74.0352V20.3333H73.2972C72.8412 20.3333 72.4992 20.2283 72.2712 20.0183C72.0432 19.8083 71.9292 19.4633 71.9292 18.9833V16.0763H71.2902V15.4013H71.9292V14.1593H72.7482V15.4013H74.0352V16.0763H72.7482ZM77.4755 15.3113C77.8475 15.3113 78.1835 15.3923 78.4835 15.5543C78.7835 15.7103 79.0175 15.9473 79.1855 16.2653C79.3595 16.5833 79.4465 16.9703 79.4465 17.4263V20.3333H78.6365V17.5433C78.6365 17.0513 78.5135 16.6763 78.2675 16.4183C78.0215 16.1543 77.6855 16.0223 77.2595 16.0223C76.8275 16.0223 76.4825 16.1573 76.2245 16.4273C75.9725 16.6973 75.8465 17.0903 75.8465 17.6063V20.3333H75.0275V13.6733H75.8465V16.1033C76.0085 15.8513 76.2305 15.6563 76.5125 15.5183C76.8005 15.3803 77.1215 15.3113 77.4755 15.3113ZM85.2843 17.6783C85.2843 17.8343 85.2753 17.9993 85.2573 18.1733H81.3153C81.3453 18.6593 81.5103 19.0403 81.8103 19.3163C82.1163 19.5863 82.4853 19.7213 82.9173 19.7213C83.2713 19.7213 83.5653 19.6403 83.7993 19.4783C84.0393 19.3103 84.2073 19.0883 84.3033 18.8123H85.1853C85.0533 19.2863 84.7893 19.6733 84.3933 19.9733C83.9973 20.2673 83.5053 20.4143 82.9173 20.4143C82.4493 20.4143 82.0293 20.3093 81.6573 20.0993C81.2913 19.8893 81.0033 19.5923 80.7933 19.2083C80.5833 18.8183 80.4783 18.3683 80.4783 17.8583C80.4783 17.3483 80.5803 16.9013 80.7843 16.5173C80.9883 16.1333 81.2733 15.8393 81.6393 15.6353C82.0113 15.4253 82.4373 15.3203 82.9173 15.3203C83.3853 15.3203 83.7993 15.4223 84.1593 15.6263C84.5193 15.8303 84.7953 16.1123 84.9873 16.4723C85.1853 16.8263 85.2843 17.2283 85.2843 17.6783ZM84.4383 17.5073C84.4383 17.1953 84.3693 16.9283 84.2313 16.7063C84.0933 16.4783 83.9043 16.3073 83.6643 16.1933C83.4303 16.0733 83.1693 16.0133 82.8813 16.0133C82.4673 16.0133 82.1133 16.1453 81.8193 16.4093C81.5313 16.6733 81.3663 17.0393 81.3243 17.5073H84.4383ZM88.4588 17.8583C88.4588 17.3483 88.5608 16.9043 88.7648 16.5263C88.9688 16.1423 89.2508 15.8453 89.6108 15.6353C89.9768 15.4253 90.3938 15.3203 90.8618 15.3203C91.4678 15.3203 91.9658 15.4673 92.3558 15.7613C92.7518 16.0553 93.0128 16.4633 93.1388 16.9853H92.2568C92.1728 16.6853 92.0078 16.4483 91.7618 16.2743C91.5218 16.1003 91.2218 16.0133 90.8618 16.0133C90.3938 16.0133 90.0158 16.1753 89.7278 16.4993C89.4398 16.8173 89.2958 17.2703 89.2958 17.8583C89.2958 18.4523 89.4398 18.9113 89.7278 19.2353C90.0158 19.5593 90.3938 19.7213 90.8618 19.7213C91.2218 19.7213 91.5218 19.6373 91.7618 19.4693C92.0018 19.3013 92.1668 19.0613 92.2568 18.7493H93.1388C93.0068 19.2533 92.7428 19.6583 92.3468 19.9643C91.9508 20.2643 91.4558 20.4143 90.8618 20.4143C90.3938 20.4143 89.9768 20.3093 89.6108 20.0993C89.2508 19.8893 88.9688 19.5923 88.7648 19.2083C88.5608 18.8243 88.4588 18.3743 88.4588 17.8583ZM96.3826 20.4143C95.9206 20.4143 95.5006 20.3093 95.1226 20.0993C94.7506 19.8893 94.4566 19.5923 94.2406 19.2083C94.0306 18.8183 93.9256 18.3683 93.9256 17.8583C93.9256 17.3543 94.0336 16.9103 94.2496 16.5263C94.4716 16.1363 94.7716 15.8393 95.1496 15.6353C95.5276 15.4253 95.9506 15.3203 96.4186 15.3203C96.8866 15.3203 97.3096 15.4253 97.6876 15.6353C98.0656 15.8393 98.3626 16.1333 98.5786 16.5173C98.8006 16.9013 98.9116 17.3483 98.9116 17.8583C98.9116 18.3683 98.7976 18.8183 98.5696 19.2083C98.3476 19.5923 98.0446 19.8893 97.6606 20.0993C97.2766 20.3093 96.8506 20.4143 96.3826 20.4143ZM96.3826 19.6943C96.6766 19.6943 96.9526 19.6253 97.2106 19.4873C97.4686 19.3493 97.6756 19.1423 97.8316 18.8663C97.9936 18.5903 98.0746 18.2543 98.0746 17.8583C98.0746 17.4623 97.9966 17.1263 97.8406 16.8503C97.6846 16.5743 97.4806 16.3703 97.2286 16.2383C96.9766 16.1003 96.7036 16.0313 96.4096 16.0313C96.1096 16.0313 95.8336 16.1003 95.5816 16.2383C95.3356 16.3703 95.1376 16.5743 94.9876 16.8503C94.8376 17.1263 94.7626 17.4623 94.7626 17.8583C94.7626 18.2603 94.8346 18.5993 94.9786 18.8753C95.1286 19.1513 95.3266 19.3583 95.5726 19.4963C95.8186 19.6283 96.0886 19.6943 96.3826 19.6943ZM104.362 15.4013V20.3333H103.543V19.6043C103.387 19.8563 103.168 20.0543 102.886 20.1983C102.61 20.3363 102.304 20.4053 101.968 20.4053C101.584 20.4053 101.239 20.3273 100.933 20.1713C100.627 20.0093 100.384 19.7693 100.204 19.4513C100.03 19.1333 99.9434 18.7463 99.9434 18.2903V15.4013H100.753V18.1823C100.753 18.6683 100.876 19.0433 101.122 19.3073C101.368 19.5653 101.704 19.6943 102.13 19.6943C102.568 19.6943 102.913 19.5593 103.165 19.2893C103.417 19.0193 103.543 18.6263 103.543 18.1103V15.4013H104.362ZM106.564 16.2023C106.708 15.9203 106.912 15.7013 107.176 15.5453C107.446 15.3893 107.773 15.3113 108.157 15.3113V16.1573H107.941C107.023 16.1573 106.564 16.6553 106.564 17.6513V20.3333H105.745V15.4013H106.564V16.2023ZM110.849 20.4143C110.471 20.4143 110.132 20.3513 109.832 20.2253C109.532 20.0933 109.295 19.9133 109.121 19.6853C108.947 19.4513 108.851 19.1843 108.833 18.8843H109.679C109.703 19.1303 109.817 19.3313 110.021 19.4873C110.231 19.6433 110.504 19.7213 110.84 19.7213C111.152 19.7213 111.398 19.6523 111.578 19.5143C111.758 19.3763 111.848 19.2023 111.848 18.9923C111.848 18.7763 111.752 18.6173 111.56 18.5153C111.368 18.4073 111.071 18.3023 110.669 18.2003C110.303 18.1043 110.003 18.0083 109.769 17.9123C109.541 17.8103 109.343 17.6633 109.175 17.4713C109.013 17.2733 108.932 17.0153 108.932 16.6973C108.932 16.4453 109.007 16.2143 109.157 16.0043C109.307 15.7943 109.52 15.6293 109.796 15.5093C110.072 15.3833 110.387 15.3203 110.741 15.3203C111.287 15.3203 111.728 15.4583 112.064 15.7343C112.4 16.0103 112.58 16.3883 112.604 16.8683H111.785C111.767 16.6103 111.662 16.4033 111.47 16.2473C111.284 16.0913 111.032 16.0133 110.714 16.0133C110.42 16.0133 110.186 16.0763 110.012 16.2023C109.838 16.3283 109.751 16.4933 109.751 16.6973C109.751 16.8593 109.802 16.9943 109.904 17.1023C110.012 17.2043 110.144 17.2883 110.3 17.3543C110.462 17.4143 110.684 17.4833 110.966 17.5613C111.32 17.6573 111.608 17.7533 111.83 17.8493C112.052 17.9393 112.241 18.0773 112.397 18.2633C112.559 18.4493 112.643 18.6923 112.649 18.9923C112.649 19.2623 112.574 19.5053 112.424 19.7213C112.274 19.9373 112.061 20.1083 111.785 20.2343C111.515 20.3543 111.203 20.4143 110.849 20.4143ZM118.305 17.6783C118.305 17.8343 118.296 17.9993 118.278 18.1733H114.336C114.366 18.6593 114.531 19.0403 114.831 19.3163C115.137 19.5863 115.506 19.7213 115.938 19.7213C116.292 19.7213 116.586 19.6403 116.82 19.4783C117.06 19.3103 117.228 19.0883 117.324 18.8123H118.206C118.074 19.2863 117.81 19.6733 117.414 19.9733C117.018 20.2673 116.526 20.4143 115.938 20.4143C115.47 20.4143 115.05 20.3093 114.678 20.0993C114.312 19.8893 114.024 19.5923 113.814 19.2083C113.604 18.8183 113.499 18.3683 113.499 17.8583C113.499 17.3483 113.601 16.9013 113.805 16.5173C114.009 16.1333 114.294 15.8393 114.66 15.6353C115.032 15.4253 115.458 15.3203 115.938 15.3203C116.406 15.3203 116.82 15.4223 117.18 15.6263C117.54 15.8303 117.816 16.1123 118.008 16.4723C118.206 16.8263 118.305 17.2283 118.305 17.6783ZM117.459 17.5073C117.459 17.1953 117.39 16.9283 117.252 16.7063C117.114 16.4783 116.925 16.3073 116.685 16.1933C116.451 16.0733 116.19 16.0133 115.902 16.0133C115.488 16.0133 115.134 16.1453 114.84 16.4093C114.552 16.6733 114.387 17.0393 114.345 17.5073H117.459Z" fill="white"/>
</g>
<defs>
<filter id="filter0_d_216_6124" x="0" y="0" width="152" height="42" filterUnits="userSpaceOnUse" color-interpolation-filters="sRGB">
<feFlood flood-opacity="0" result="BackgroundImageFix"/>
<feColorMatrix in="SourceAlpha" type="matrix" values="0 0 0 0 0 0 0 0 0 0 0 0 0 0 0 0 0 0 127 0" result="hardAlpha"/>
<feOffset dy="4"/>
<feGaussianBlur stdDeviation="2"/>
<feComposite in2="hardAlpha" operator="out"/>
<feColorMatrix type="matrix" values="0 0 0 0 0 0 0 0 0 0 0 0 0 0 0 0 0 0 0.25 0"/>
<feBlend mode="normal" in2="BackgroundImageFix" result="effect1_dropShadow_216_6124"/>
<feBlend mode="normal" in="SourceGraphic" in2="effect1_dropShadow_216_6124" result="shape"/>
</filter>
</defs>
</svg>
