<svg width="32" height="32" viewBox="0 0 32 32" fill="none" xmlns="http://www.w3.org/2000/svg">
<g filter="url(#filter0_d_44_168)">
<rect x="4" width="24" height="24" rx="2" fill="white"/>
<path d="M12.7827 9.14111L11.6011 9.70508V8.83496L12.8257 8.21729H13.7173V16H12.7827V9.14111ZM17.8315 16.1128C16.9435 16.1128 16.2865 15.9463 15.8604 15.6133C15.4378 15.2803 15.2266 14.7682 15.2266 14.0771L16.0913 14.0557C16.0913 14.3672 16.1486 14.6178 16.2632 14.8076C16.3813 14.9938 16.5675 15.1299 16.8218 15.2158C17.076 15.3018 17.4162 15.3447 17.8423 15.3447C18.2397 15.3447 18.5495 15.2982 18.7715 15.2051C18.9971 15.112 19.1582 14.9616 19.2549 14.7539C19.3516 14.5426 19.3999 14.2526 19.3999 13.8838C19.3999 13.3789 19.2262 12.9976 18.8789 12.7397C18.5316 12.4819 18.0303 12.353 17.375 12.353L16.7036 12.3584V11.5044H17.375C17.973 11.5044 18.4313 11.3898 18.75 11.1606C19.0723 10.9279 19.2334 10.5895 19.2334 10.1455C19.2334 9.83757 19.1833 9.59049 19.083 9.4043C18.9827 9.2181 18.8234 9.08203 18.605 8.99609C18.3866 8.91016 18.0947 8.86719 17.7295 8.86719C17.3356 8.86719 17.0223 8.90658 16.7896 8.98535C16.5568 9.06413 16.3831 9.20378 16.2686 9.4043C16.1576 9.60482 16.1021 9.8877 16.1021 10.2529H15.2319C15.2319 9.50098 15.4378 8.95312 15.8496 8.60938C16.2614 8.26562 16.8809 8.09375 17.708 8.09375C18.5316 8.09375 19.1403 8.25488 19.5342 8.57715C19.9316 8.89583 20.1304 9.38818 20.1304 10.0542C20.1304 10.534 20.0068 10.9279 19.7598 11.2358C19.5163 11.5438 19.1403 11.7765 18.6318 11.9341C19.1761 12.0308 19.5915 12.2402 19.8779 12.5625C20.168 12.8812 20.313 13.3073 20.313 13.8408C20.313 14.5999 20.1089 15.1693 19.7007 15.5488C19.2925 15.9248 18.6694 16.1128 17.8315 16.1128Z" fill="#C4C4C4"/>
</g>
<defs>
<filter id="filter0_d_44_168" x="0" y="0" width="32" height="32" filterUnits="userSpaceOnUse" color-interpolation-filters="sRGB">
<feFlood flood-opacity="0" result="BackgroundImageFix"/>
<feColorMatrix in="SourceAlpha" type="matrix" values="0 0 0 0 0 0 0 0 0 0 0 0 0 0 0 0 0 0 127 0" result="hardAlpha"/>
<feOffset dy="4"/>
<feGaussianBlur stdDeviation="2"/>
<feComposite in2="hardAlpha" operator="out"/>
<feColorMatrix type="matrix" values="0 0 0 0 0 0 0 0 0 0 0 0 0 0 0 0 0 0 0.25 0"/>
<feBlend mode="normal" in2="BackgroundImageFix" result="effect1_dropShadow_44_168"/>
<feBlend mode="normal" in="SourceGraphic" in2="effect1_dropShadow_44_168" result="shape"/>
</filter>
</defs>
</svg>
