<svg width="32" height="32" viewBox="0 0 32 32" fill="none" xmlns="http://www.w3.org/2000/svg">
<g filter="url(#filter0_d_44_159)">
<rect x="4" width="24" height="24" rx="2" fill="white"/>
<path d="M12.1865 9.14111L11.0049 9.70508V8.83496L12.2295 8.21729H13.1211V16H12.1865V9.14111ZM17.8584 16.1128C17.1208 16.1128 16.5479 15.9893 16.1396 15.7422C15.735 15.4915 15.445 15.0762 15.2695 14.4961C15.0941 13.916 15.0063 13.1014 15.0063 12.0522C15.0063 11.0282 15.0941 10.2332 15.2695 9.66748C15.445 9.10173 15.7386 8.6971 16.1504 8.45361C16.5622 8.21012 17.1387 8.08838 17.8799 8.08838C18.6068 8.08838 19.1707 8.21012 19.5718 8.45361C19.9764 8.6971 20.2646 9.10173 20.4365 9.66748C20.612 10.2332 20.6997 11.0264 20.6997 12.0469C20.6997 13.096 20.612 13.9106 20.4365 14.4907C20.2611 15.0708 19.971 15.4862 19.5664 15.7368C19.1618 15.9875 18.5924 16.1128 17.8584 16.1128ZM17.8477 15.3286C18.3669 15.3286 18.759 15.2355 19.0239 15.0493C19.2889 14.8631 19.4751 14.5391 19.5825 14.0771C19.6899 13.6117 19.7437 12.9242 19.7437 12.0146C19.7437 11.2054 19.6864 10.5752 19.5718 10.124C19.4572 9.67285 19.2656 9.35059 18.9971 9.15723C18.7285 8.96387 18.3543 8.86719 17.8745 8.86719C17.3804 8.86719 16.9954 8.96566 16.7197 9.1626C16.4476 9.35954 16.2524 9.68717 16.1343 10.1455C16.0197 10.6038 15.9624 11.2466 15.9624 12.0737C15.9624 12.9653 16.0143 13.6403 16.1182 14.0986C16.2256 14.5534 16.4118 14.8721 16.6768 15.0547C16.9417 15.2373 17.332 15.3286 17.8477 15.3286Z" fill="#C4C4C4"/>
</g>
<defs>
<filter id="filter0_d_44_159" x="0" y="0" width="32" height="32" filterUnits="userSpaceOnUse" color-interpolation-filters="sRGB">
<feFlood flood-opacity="0" result="BackgroundImageFix"/>
<feColorMatrix in="SourceAlpha" type="matrix" values="0 0 0 0 0 0 0 0 0 0 0 0 0 0 0 0 0 0 127 0" result="hardAlpha"/>
<feOffset dy="4"/>
<feGaussianBlur stdDeviation="2"/>
<feComposite in2="hardAlpha" operator="out"/>
<feColorMatrix type="matrix" values="0 0 0 0 0 0 0 0 0 0 0 0 0 0 0 0 0 0 0.25 0"/>
<feBlend mode="normal" in2="BackgroundImageFix" result="effect1_dropShadow_44_159"/>
<feBlend mode="normal" in="SourceGraphic" in2="effect1_dropShadow_44_159" result="shape"/>
</filter>
</defs>
</svg>
