<svg width="24" height="24" viewBox="0 0 24 24" fill="none" xmlns="http://www.w3.org/2000/svg">
<path d="M9 6.5C9 7.286 8.74 8.012 8.303 8.596L20 20.293V21H19.293L11.5 13.207L8.303 16.404C8.83292 17.1127 9.07474 17.9957 8.97981 18.8755C8.88487 19.7553 8.46022 20.5664 7.79132 21.1457C7.12243 21.725 6.25893 22.0294 5.37462 21.9977C4.49031 21.966 3.65084 21.6006 3.02513 20.9749C2.39943 20.3492 2.03395 19.5097 2.00225 18.6254C1.97055 17.7411 2.27499 16.8776 2.85428 16.2087C3.43358 15.5398 4.24473 15.1151 5.1245 15.0202C6.00427 14.9253 6.88735 15.1671 7.596 15.697L10.793 12.5L7.596 9.303C6.96475 9.77504 6.19263 10.0202 5.4047 9.99871C4.61676 9.97724 3.85914 9.69044 3.25451 9.18473C2.64989 8.67903 2.23367 7.98404 2.07325 7.21231C1.91284 6.44057 2.01762 5.63728 2.37063 4.93252C2.72364 4.22776 3.3042 3.66279 4.01832 3.3291C4.73243 2.99542 5.53827 2.91255 6.30535 3.09392C7.07243 3.27529 7.75583 3.71028 8.24488 4.32845C8.73393 4.94662 9 5.71177 9 6.5ZM8 6.5C8 5.83696 7.73661 5.20107 7.26777 4.73223C6.79893 4.26339 6.16305 4 5.5 4C4.83696 4 4.20108 4.26339 3.73224 4.73223C3.2634 5.20107 3 5.83696 3 6.5C3 7.16304 3.2634 7.79892 3.73224 8.26777C4.20108 8.73661 4.83696 9 5.5 9C6.16305 9 6.79893 8.73661 7.26777 8.26777C7.73661 7.79892 8 7.16304 8 6.5ZM19.293 4H20V4.707L12.854 11.854L12.146 11.147L19.293 4ZM5.5 16C4.83696 16 4.20108 16.2634 3.73224 16.7322C3.2634 17.2011 3 17.837 3 18.5C3 19.163 3.2634 19.7989 3.73224 20.2678C4.20108 20.7366 4.83696 21 5.5 21C6.16305 21 6.79893 20.7366 7.26777 20.2678C7.73661 19.7989 8 19.163 8 18.5C8 17.837 7.73661 17.2011 7.26777 16.7322C6.79893 16.2634 6.16305 16 5.5 16Z" fill="black"/>
</svg>
