<svg width="24" height="24" viewBox="0 0 24 24" fill="none" xmlns="http://www.w3.org/2000/svg">
<path d="M4.24403 12.252C3.81568 11.8235 3.48389 11.3084 3.2709 10.7413C3.05792 10.1741 2.96866 9.5679 3.00911 8.9634C3.04957 8.35889 3.2188 7.77002 3.50547 7.23628C3.79213 6.70253 4.1896 6.23624 4.67123 5.86868C5.15285 5.50111 5.70749 5.24077 6.29796 5.10511C6.88844 4.96944 7.50109 4.96159 8.09485 5.08208C8.6886 5.20257 9.24974 5.44862 9.74062 5.80372C10.2315 6.15882 10.6408 6.61477 10.941 7.141H12.059C12.3593 6.61477 12.7686 6.15882 13.2595 5.80372C13.7503 5.44862 14.3115 5.20257 14.9052 5.08208C15.499 4.96159 16.1116 4.96944 16.7021 5.10511C17.2926 5.24077 17.8472 5.50111 18.3288 5.86868C18.8105 6.23624 19.2079 6.70253 19.4946 7.23628C19.7813 7.77002 19.9505 8.35889 19.991 8.9634C20.0314 9.5679 19.9422 10.1741 19.7292 10.7413C19.5162 11.3084 19.1844 11.8235 18.756 12.252L11.5 19.51L4.24403 12.253V12.252ZM19.462 12.962C19.9742 12.4498 20.3748 11.8372 20.6387 11.1627C20.9026 10.4882 21.0241 9.76636 20.9955 9.04263C20.9669 8.31889 20.7889 7.6089 20.4726 6.9573C20.1563 6.30571 19.7086 5.7266 19.1577 5.25642C18.6067 4.78623 17.9645 4.43513 17.2713 4.22519C16.578 4.01526 15.8489 3.95104 15.1297 4.03656C14.4104 4.12209 13.7167 4.35551 13.092 4.72215C12.4674 5.0888 11.9253 5.58072 11.5 6.167C11.0747 5.58072 10.5327 5.0888 9.90805 4.72215C9.2834 4.35551 8.58964 4.12209 7.87041 4.03656C7.15117 3.95104 6.42202 4.01526 5.72881 4.22519C5.0356 4.43513 4.39333 4.78623 3.84239 5.25642C3.29145 5.7266 2.84376 6.30571 2.52748 6.9573C2.2112 7.6089 2.03317 8.31889 2.00458 9.04263C1.97599 9.76636 2.09747 10.4882 2.36137 11.1627C2.62528 11.8372 3.0259 12.4498 3.53803 12.962L11.5 20.923L19.462 12.963V12.962Z" fill="black"/>
</svg>
