<svg width="24" height="24" viewBox="0 0 24 24" fill="none" xmlns="http://www.w3.org/2000/svg">
<path d="M4.24403 12.252C3.81568 11.8235 3.48389 11.3084 3.2709 10.7412C3.05792 10.1741 2.96866 9.56789 3.00911 8.96338C3.04957 8.35888 3.2188 7.77001 3.50547 7.23626C3.79213 6.70251 4.1896 6.23622 4.67123 5.86866C5.15285 5.5011 5.70749 5.24075 6.29796 5.10509C6.88844 4.96943 7.50109 4.96158 8.09485 5.08207C8.6886 5.20256 9.24974 5.4486 9.74062 5.8037C10.2315 6.15881 10.6408 6.61476 10.941 7.14098H12.059C12.3593 6.61476 12.7686 6.15881 13.2595 5.8037C13.7503 5.4486 14.3115 5.20256 14.9052 5.08207C15.499 4.96158 16.1116 4.96943 16.7021 5.10509C17.2926 5.24075 17.8472 5.5011 18.3288 5.86866C18.8105 6.23622 19.2079 6.70251 19.4946 7.23626C19.7813 7.77001 19.9505 8.35888 19.991 8.96338C20.0314 9.56789 19.9422 10.1741 19.7292 10.7412C19.5162 11.3084 19.1844 11.8235 18.756 12.252L11.5 19.51L4.24403 12.253V12.252ZM19.462 12.962C19.9742 12.4498 20.3748 11.8372 20.6387 11.1627C20.9026 10.4882 21.0241 9.76635 20.9955 9.04261C20.9669 8.31888 20.7889 7.60888 20.4726 6.95729C20.1563 6.30569 19.7086 5.72659 19.1577 5.2564C18.6067 4.78621 17.9645 4.43511 17.2713 4.22518C16.578 4.01524 15.8489 3.95102 15.1297 4.03655C14.4104 4.12207 13.7167 4.3555 13.092 4.72214C12.4674 5.08878 11.9253 5.58071 11.5 6.16698C11.0747 5.58071 10.5327 5.08878 9.90805 4.72214C9.2834 4.3555 8.58964 4.12207 7.87041 4.03655C7.15117 3.95102 6.42202 4.01524 5.72881 4.22518C5.0356 4.43511 4.39333 4.78621 3.84239 5.2564C3.29145 5.72659 2.84376 6.30569 2.52748 6.95729C2.2112 7.60888 2.03317 8.31888 2.00458 9.04261C1.97599 9.76635 2.09747 10.4882 2.36137 11.1627C2.62528 11.8372 3.0259 12.4498 3.53803 12.962L11.5 20.923L19.462 12.963V12.962Z" fill="black"/>
</svg>
