<svg width="24" height="24" viewBox="0 0 24 24" fill="none" xmlns="http://www.w3.org/2000/svg">
<path d="M4.24403 12.252C3.81568 11.8236 3.48389 11.3085 3.2709 10.7413C3.05792 10.1741 2.96866 9.56795 3.00911 8.96344C3.04957 8.35894 3.2188 7.77007 3.50547 7.23632C3.79213 6.70257 4.1896 6.23628 4.67123 5.86872C5.15285 5.50116 5.70749 5.24082 6.29796 5.10515C6.88844 4.96949 7.50109 4.96164 8.09485 5.08213C8.6886 5.20262 9.24974 5.44866 9.74062 5.80376C10.2315 6.15887 10.6408 6.61482 10.941 7.14105H12.059C12.3593 6.61482 12.7686 6.15887 13.2595 5.80376C13.7503 5.44866 14.3115 5.20262 14.9052 5.08213C15.499 4.96164 16.1116 4.96949 16.7021 5.10515C17.2926 5.24082 17.8472 5.50116 18.3288 5.86872C18.8105 6.23628 19.2079 6.70257 19.4946 7.23632C19.7813 7.77007 19.9505 8.35894 19.991 8.96344C20.0314 9.56795 19.9422 10.1741 19.7292 10.7413C19.5162 11.3085 19.1844 11.8236 18.756 12.252L11.5 19.51L4.24403 12.253V12.252ZM19.462 12.962C19.9742 12.4499 20.3748 11.8373 20.6387 11.1627C20.9026 10.4882 21.0241 9.76641 20.9955 9.04267C20.9669 8.31894 20.7889 7.60894 20.4726 6.95735C20.1563 6.30575 19.7086 5.72665 19.1577 5.25646C18.6067 4.78627 17.9645 4.43517 17.2713 4.22524C16.578 4.0153 15.8489 3.95108 15.1297 4.03661C14.4104 4.12213 13.7167 4.35556 13.092 4.7222C12.4674 5.08884 11.9253 5.58077 11.5 6.16705C11.0747 5.58077 10.5327 5.08884 9.90805 4.7222C9.2834 4.35556 8.58964 4.12213 7.87041 4.03661C7.15117 3.95108 6.42202 4.0153 5.72881 4.22524C5.0356 4.43517 4.39333 4.78627 3.84239 5.25646C3.29145 5.72665 2.84376 6.30575 2.52748 6.95735C2.2112 7.60894 2.03317 8.31894 2.00458 9.04267C1.97599 9.76641 2.09747 10.4882 2.36137 11.1627C2.62528 11.8373 3.0259 12.4499 3.53803 12.962L11.5 20.923L19.462 12.963V12.962Z" fill="black"/>
</svg>
