<svg width="17" height="18" viewBox="0 0 17 18" fill="none" xmlns="http://www.w3.org/2000/svg">
<path fill-rule="evenodd" clip-rule="evenodd" d="M14.736 9.88536C14.4428 8.85588 13.4027 8.05699 12.004 7.65899C11.7351 7.54625 11.4745 7.06277 11.1131 6.97418C11.0552 6.96003 11.1466 7.073 11.1131 7.07974C10.9936 7.10381 10.8597 7.10633 10.7278 7.01937C10.492 6.86411 10.418 6.41033 10.2746 6.20529C9.51853 5.12366 7.63053 5.54685 7.37763 6.74255C7.20123 6.82774 6.95193 6.90277 6.76003 6.97137C6.56233 7.04203 6.38843 7.21329 6.18473 7.27448C6.00295 7.32907 5.70345 7.2904 5.52029 7.33803C4.67788 7.557 3.96439 7.83329 3.40501 8.39314C3.28714 8.51122 3.15428 8.65633 3.04702 8.77566C2.49404 9.24737 2.10996 9.77611 1.75621 10.3433C0.766511 12.0083 0.497311 13.8518 0.255791 15.6457C0.261281 15.9596 -0.0197888 16.83 0.395921 16.9805C0.371081 16.9995 0.380081 17.0379 0.426181 17.0375C1.48026 17.0297 2.53188 17.0996 3.56961 17.2354C4.07029 17.3011 4.56829 17.391 5.07829 17.4057C6.13693 17.4003 7.19183 17.2688 8.24913 17.3933C9.52013 17.3933 11.0648 17.3658 12.4789 17.3255C13.8004 17.2879 15.129 17.3729 16.4342 17.2064C16.5375 17.1943 16.5879 17.1009 16.5663 17.034C16.4131 16.6206 16.338 16.195 16.252 15.7718C16.2692 15.5003 16.2385 15.217 16.103 14.9642C15.749 13.2574 15.295 11.5618 14.736 9.88536Z" fill="white"/>
<path fill-rule="evenodd" clip-rule="evenodd" d="M14.3106 12.1288C14.2827 12.2292 14.2436 12.3295 14.1916 12.4246C14.1416 12.5163 14.0662 12.5985 14.0142 12.6891C14.0072 12.7013 13.9958 12.7106 13.9821 12.7176L13.9864 12.7423L13.9903 12.767C14.0162 12.9333 14.0454 13.0992 14.0706 13.2656L14.0829 13.3489C14.1325 13.6963 14.2109 14.0419 14.2717 14.3884C14.3313 14.7276 14.392 15.0669 14.4568 15.4057C14.5238 15.755 14.592 16.1038 14.6716 16.4516C14.7053 16.5986 14.7404 16.7453 14.7769 16.8921L14.8052 17.0043C15.0959 17.0561 15.1753 17.3564 14.8793 17.4672C14.745 17.5173 14.5724 17.5052 14.4616 17.4265C14.3466 17.3445 14.3418 17.1965 14.3151 17.0854L14.2894 16.9821C14.0969 16.2055 13.9298 15.42 13.8517 14.6324C13.8316 14.4291 13.8147 14.2256 13.8038 14.0219C13.7933 13.8303 13.7983 13.6387 13.7943 13.4472L13.793 13.3949C13.7869 13.1906 13.7919 12.9866 13.7991 12.7823C13.8 12.7574 13.8014 12.7325 13.8031 12.7075C13.7934 12.699 13.7864 12.689 13.7835 12.6793L13.7797 12.6664C13.7702 12.6334 13.7809 12.5947 13.8152 12.5711C13.83 12.4319 13.8494 12.2929 13.8547 12.1538C13.8551 12.1424 13.8773 12.1428 13.8786 12.1538C13.891 12.2722 13.9159 12.3909 13.9409 12.5094C14.1012 12.4139 14.2197 12.2564 14.2897 12.1246C14.2947 12.115 14.3136 12.1185 14.3106 12.1288ZM10.5166 6.59585C10.5432 6.686 10.5959 6.76696 10.6664 6.84229C10.7 6.87829 10.7382 6.91178 10.7841 6.93978C10.8234 6.9637 10.8682 6.97941 10.91 7.00022C10.9709 6.99318 11.0344 7.01022 11.0771 7.04341L11.0704 6.99489C11.0682 6.97926 11.1033 6.97615 11.1074 6.99126C11.2922 7.68207 11.4608 8.37326 11.6067 9.06896L11.6706 9.37622L11.7308 9.66466C11.8307 10.1453 11.9274 10.6258 12.0002 11.1099C12.0971 11.7561 12.1787 12.4039 12.2382 13.0527C12.298 13.706 12.3348 14.3598 12.361 15.0143C12.3675 15.1793 12.3745 15.3441 12.3813 15.5092L12.4264 15.3119C12.4714 15.1146 12.5156 14.9171 12.5535 14.7189C12.6893 14.0095 12.7979 13.2952 12.8509 12.5797C12.8995 11.925 12.8833 11.2573 12.6585 10.6195C12.6018 10.459 12.5325 10.301 12.4489 10.1471C12.3678 9.99748 12.2571 9.85874 12.1698 9.71133C12.0684 9.5397 12.038 9.37785 12.0902 9.19311C12.1358 9.03214 12.2159 8.88081 12.2302 8.71511C12.2571 8.40763 12.1221 8.10985 11.9313 7.84081C11.881 7.76985 11.828 7.69985 11.7726 7.63052C11.6051 7.42089 11.4162 7.21889 11.2202 7.02526C11.2096 7.01496 11.232 7.00348 11.2434 7.012C11.4221 7.14289 11.6175 7.27155 11.7783 7.41444C11.8565 7.484 11.9328 7.55489 12.005 7.6277C12.7977 7.72585 13.4788 8.0917 13.9444 8.57488C14.4728 9.12311 14.7401 9.78303 14.9378 10.4329C15.1578 11.155 15.3433 11.8838 15.5408 12.6096C15.7453 13.3606 15.9487 14.1116 16.1545 14.8624C16.2568 15.2352 16.359 15.608 16.4611 15.9809C16.5128 16.1697 16.5671 16.3581 16.624 16.5462C16.6531 16.6427 16.6844 16.7389 16.7114 16.8357C16.7418 16.9448 16.7135 17.0146 16.6138 17.0948C16.5771 17.1245 16.519 17.1241 16.4733 17.1082L16.4591 17.1032L16.4453 17.0984C16.3888 17.0778 16.3445 17.0564 16.3094 17.0107C16.2707 16.9604 16.2646 16.9047 16.2513 16.8488C16.2268 16.746 16.2025 16.6431 16.178 16.5401C16.1414 16.3861 16.1016 16.2324 16.061 16.0789L15.8577 15.3114C15.8035 15.1067 15.7492 14.9021 15.6946 14.6976C15.4996 13.9661 15.3044 13.2349 15.1092 12.5036C14.9218 11.8015 14.7559 11.0944 14.5426 10.3964L14.5304 10.357L14.5181 10.3178C14.3273 9.71599 14.0607 9.13385 13.5771 8.62385C13.2048 8.2317 12.6878 7.88148 12.079 7.70422C12.1219 7.75 12.1631 7.79659 12.2024 7.84422C12.4491 8.14296 12.6293 8.49755 12.5871 8.85326C12.5664 9.02703 12.4772 9.19777 12.4856 9.37296C12.4935 9.52859 12.6234 9.66525 12.7132 9.80066C12.9171 10.1075 13.0645 10.4336 13.1596 10.7682C13.3504 11.44 13.3497 12.1312 13.284 12.8131C13.2126 13.5544 13.077 14.2955 12.9226 15.0296C12.8433 15.4061 12.7379 15.7795 12.6572 16.1555C12.6173 16.3408 12.563 16.5257 12.5154 16.7101L12.4928 16.7982C12.4801 16.8471 12.4669 16.8958 12.4517 16.9441L12.4424 16.9729V16.9781C12.4419 17.0137 12.4288 17.0431 12.4077 17.0666C12.3788 17.1353 12.3428 17.2024 12.2951 17.2667C12.2706 17.2995 12.2351 17.318 12.1964 17.3247C12.1575 17.3907 12.0694 17.4414 11.9643 17.4411L10.5806 17.4372C9.77701 17.4348 8.97331 17.4309 8.16971 17.4276C7.96691 17.4268 7.76431 17.424 7.56171 17.4201C7.37171 17.4162 7.18961 17.3992 7.00181 17.3818C6.78971 17.362 6.67471 17.2507 6.70641 17.0937C6.71341 17.0591 6.72101 17.0247 6.72821 16.9902C6.68591 17.0005 6.63571 16.9957 6.60171 16.9711L6.56981 16.948C6.52561 16.9155 6.48601 16.8838 6.45801 16.8405C6.42901 16.7961 6.40561 16.7491 6.38001 16.7037C6.32491 16.606 6.27121 16.508 6.21901 16.4095C6.11451 16.2126 6.0099 16.0149 5.9127 15.8158C5.72025 15.4218 5.54995 15.0218 5.40187 14.6172C5.13779 13.8955 4.94678 13.1599 4.82636 12.4177L4.79757 12.2408L4.7892 12.1885C4.74353 11.9008 4.7051 11.6087 4.72326 11.3216C4.73448 11.1419 4.77206 10.9608 4.86272 10.793C4.94636 10.6381 5.07544 10.5057 5.19819 10.3673L5.21224 10.3513L5.22636 10.335C5.3337 10.2093 5.41912 10.0778 5.4234 9.92518C5.42774 9.77022 5.36683 9.61948 5.29874 9.47444L5.28177 9.43866L5.27038 9.41503C5.12551 9.11525 4.96065 8.81977 5.01502 8.49362C5.09532 8.01333 5.48826 7.62615 5.98265 7.32755C5.54298 7.39207 5.10779 7.51948 4.7237 7.68111C4.27009 7.87207 3.86171 8.12414 3.50953 8.40859C2.84403 8.94622 2.36889 9.59125 1.97997 10.2572C1.57284 10.9542 1.27094 11.6845 1.04342 12.4244C0.814615 13.1685 0.661445 13.9245 0.556845 14.6835C0.504685 15.0612 0.463675 15.44 0.429685 15.8189C0.412365 16.0129 0.399265 16.2074 0.378975 16.4012C0.358695 16.5949 0.349595 16.7915 0.285785 16.98C0.256005 17.0678 0.0550851 17.0768 0.0335551 16.98C-0.0142249 16.7639 -0.000865192 16.5405 0.0124648 16.3217L0.0136748 16.3018C0.0267948 16.0839 0.043905 15.8661 0.064165 15.6484C0.105595 15.2032 0.160935 14.7588 0.233185 14.3158C0.486495 12.7605 0.953625 11.2135 1.8699 9.79377C2.30131 9.12518 2.85504 8.47548 3.62532 7.99266C3.99206 7.76296 4.40551 7.57963 4.85108 7.44689C5.24955 7.32807 5.65434 7.27185 6.07772 7.272C6.29001 7.15148 6.51801 7.04644 6.74571 6.95666C6.75941 6.95126 6.77381 6.96437 6.76241 6.97281C6.75651 6.97704 6.75081 6.9814 6.74491 6.98548C6.77071 6.98674 6.79731 6.9957 6.82111 7.01429C6.90481 7.07926 6.97541 7.16052 7.03851 7.24489C7.13471 7.33385 7.22631 7.4257 7.32231 7.5137C7.47591 7.65459 7.63301 7.79348 7.79211 7.93126C8.05931 8.16281 8.33521 8.38992 8.62301 8.60792L8.67101 8.64422C8.82021 8.75614 8.97121 8.89014 9.14761 8.97874L9.15701 8.9834C9.23151 9.01933 9.28421 9.02585 9.34771 8.97222C9.40541 8.92333 9.45341 8.86666 9.50281 8.81281L9.51421 8.80044C9.76621 8.52918 9.99991 8.24785 10.2114 7.95822C10.3078 7.82637 10.3995 7.69266 10.4865 7.55748L10.5124 7.51689C10.5597 7.44237 10.6111 7.36926 10.6502 7.29252C10.6592 7.27452 10.6681 7.25652 10.6768 7.23866C10.5437 7.174 10.4406 7.03407 10.4032 6.92444C10.3643 6.81066 10.384 6.69385 10.4532 6.58978C10.4663 6.57015 10.5103 6.57504 10.5166 6.59585ZM3.95068 11.221C3.93227 11.6537 3.92109 12.0869 3.89361 12.5193L3.88412 12.6669C3.92699 12.7023 3.95213 12.7432 3.93206 12.7992C3.92426 12.8207 3.90121 12.8401 3.87248 12.8472L3.86352 12.9845C3.82275 13.6021 3.77496 14.2183 3.68762 14.8343C3.5784 15.6052 3.45206 16.3747 3.32595 17.1443C3.308 17.2532 3.20572 17.3396 3.04664 17.3237C2.88567 17.3075 2.82039 17.2037 2.84152 17.0955C2.92454 16.6712 3.00438 16.2464 3.07433 15.8206L3.15398 15.3354C3.25385 14.729 3.35607 14.1226 3.47384 13.5181C3.52307 13.2654 3.57419 13.0129 3.62551 12.7604L3.60757 12.7432C3.53424 12.6726 3.4584 12.6035 3.3834 12.534C3.23933 12.4 3.09715 12.267 2.96511 12.1268C2.95854 12.1198 2.97187 12.1094 2.98135 12.1147C3.16642 12.2161 3.34159 12.3244 3.51778 12.4344L3.67201 12.5312C3.76074 12.0949 3.84863 11.6584 3.92699 11.221C3.92891 11.21 3.95109 11.2092 3.95068 11.221ZM6.61281 7.07978C6.50151 7.15755 6.38761 7.23363 6.27541 7.31096L6.23431 7.33948L6.19341 7.36807C5.99624 7.50659 5.80731 7.65089 5.64989 7.81652C5.36088 8.12066 5.1887 8.49155 5.30889 8.86296C5.40862 9.17051 5.63743 9.4494 5.69891 9.76466C5.72973 9.92266 5.71475 10.0814 5.63445 10.2306C5.55248 10.3827 5.42149 10.5132 5.30381 10.6505C5.04818 10.9489 5.01332 11.2764 5.03869 11.6221C5.06531 11.9831 5.12128 12.3442 5.19039 12.702C5.33022 13.4268 5.54107 14.1441 5.82015 14.8467C5.95982 15.1984 6.12481 15.5427 6.28901 15.8884C6.37071 16.0604 6.46601 16.2284 6.56421 16.3956C6.61601 16.4836 6.66901 16.5711 6.72291 16.6584C6.70301 16.5351 6.70301 16.4084 6.69331 16.2858C6.67941 16.1102 6.66161 15.9349 6.64541 15.7593C6.61221 15.4032 6.58261 15.0467 6.55621 14.6902C6.46261 13.419 6.39381 12.1467 6.39881 10.8734C6.40141 10.2367 6.41891 9.59999 6.45591 8.96392C6.47321 8.66437 6.50681 8.36511 6.53711 8.066L6.54351 8.00185C6.57041 7.7334 6.60251 7.46429 6.65761 7.19815C6.64131 7.17081 6.62711 7.14318 6.61661 7.11481L6.61281 7.10415L6.61561 7.10452C6.61311 7.09615 6.61221 7.08792 6.61281 7.07978ZM7.57581 5.98578C7.57811 5.97837 7.59231 5.97904 7.59481 5.98578C7.65761 6.1423 7.63541 6.31452 7.58131 6.472C7.55221 6.55733 7.51081 6.64015 7.46071 6.72L7.44321 6.74792C7.40031 6.81592 7.35201 6.886 7.26841 6.92837C7.23361 6.94607 7.17121 6.94718 7.13641 6.92837L7.11861 6.91837C7.11571 6.91666 7.11281 6.91496 7.11001 6.91318C7.07741 6.89296 7.06141 6.84837 7.07641 6.81896C7.11501 6.74304 7.20271 6.68726 7.26331 6.61963C7.31701 6.55955 7.36461 6.49615 7.40401 6.43022C7.48921 6.28755 7.52741 6.13622 7.57581 5.98578Z" fill="black"/>
<path fill-rule="evenodd" clip-rule="evenodd" d="M10.0416 7.09803C9.6043 7.09714 9.204 7.03395 8.8242 6.89573C8.3656 6.78484 7.8648 6.72447 7.4927 6.47899C7.3115 6.50751 7.1257 6.36966 6.9754 6.28751C6.7302 6.9561 5.45412 6.84492 4.91494 6.41284C4.58511 6.2064 4.45244 5.69581 5.0252 5.5607C4.08678 5.0884 3.74782 4.27247 3.81232 3.38962C3.8802 1.90864 5.41666 0.368943 7.3915 0.112069C7.7811 0.0612839 8.1811 0.0666467 8.569 0.127047C8.7857 0.161869 8.995 0.229373 9.2269 0.226306C10.126 0.120987 11.1135 0.133091 11.8562 0.559506C13.0431 1.14798 13.2081 2.32542 13.0694 3.27208L13.075 3.28094C13.006 3.62843 12.8914 3.9467 12.6745 4.15618C12.6576 4.45736 12.5164 5.10033 12.5059 5.35455C12.5312 6.53729 11.6247 7.06225 10.0416 7.09803Z" fill="white"/>
<path fill-rule="evenodd" clip-rule="evenodd" d="M4.81836 5.54435C1.97573 3.68315 4.89197 -0.505381 8.59051 0.0503447C8.96491 0.143234 9.34501 0.175463 9.73261 0.106641C11.6862 -0.119411 13.2843 1.10894 13.2017 2.53008C13.2155 2.77315 13.2128 3.01643 13.1773 3.25853C13.1368 3.57675 13.0261 3.91709 12.7791 4.1816C12.7763 4.35931 12.6351 5.02583 12.6124 5.33938L12.6081 5.40486C12.5856 5.72716 12.5371 6.05583 12.3459 6.34968C11.758 7.13909 10.2435 7.30849 9.15761 7.07857L9.11241 7.06753C8.91071 7.01783 8.68201 6.95168 8.55401 6.82642C8.48631 6.76035 8.59831 6.6759 8.69151 6.69383C8.81151 6.71701 8.91091 6.77123 9.02291 6.80968C9.75331 7.04894 10.6173 6.96879 11.3383 6.74538L11.3601 6.73857C12.6515 6.35012 12.2978 4.96835 12.4678 4.18042C12.5064 3.17991 11.3803 2.49858 10.5319 1.83685L10.5065 1.81589C10.4193 1.74426 10.3273 1.67443 10.2061 1.65916C10.1729 1.73379 10.0912 1.79731 10.0155 1.85174L9.84431 1.98886C9.67301 2.12583 9.50141 2.26223 9.32731 2.39741C8.48211 3.03364 7.62101 3.89746 6.31821 3.96249C6.39831 4.0162 6.46851 4.07753 6.55241 4.12812C6.58781 4.15435 6.55171 4.19842 6.50421 4.18946C6.41571 4.17264 6.35901 4.11042 6.30091 4.06183C5.59726 3.84294 5.0194 4.65175 5.61556 4.98664C5.83671 5.16012 6.48291 5.02812 6.33351 5.24205C6.49661 5.62109 6.74771 6.00235 7.17231 6.25583C7.29701 6.3256 7.49181 6.36094 7.57451 6.4636C7.59451 6.48842 7.58431 6.52879 7.54681 6.54198C7.36641 6.60427 7.17261 6.49946 7.03401 6.42049C6.30241 7.48035 3.61937 6.30938 4.81836 5.54435ZM9.16621 0.365582L9.09291 0.35496C8.31111 0.24036 7.79581 0.1269 6.96931 0.3341C5.12724 0.790034 3.93969 2.24242 3.99102 3.65403C3.99223 4.45598 4.5287 5.47849 5.73707 5.59235C5.91976 5.60309 5.92263 5.81316 5.7426 5.80686L5.73709 5.80664C5.43922 5.79286 5.15088 5.71279 4.9051 5.58968C4.57535 5.98538 4.90581 6.34449 5.41957 6.51457C5.94014 6.71812 6.49661 6.65323 6.84451 6.2936C6.52701 6.03227 6.29301 5.6416 6.23891 5.29516C5.34734 5.55146 4.67494 4.60672 5.255 4.10568C5.45912 3.89005 5.85538 3.75523 6.18201 3.90835C7.58741 3.50767 8.56861 2.65614 9.50801 1.82199L9.55811 1.77972C9.72261 1.64206 10.1008 1.33111 10.1428 1.29091C10.1899 1.24571 10.2851 1.2864 10.2863 1.33494C10.2871 1.36946 10.2845 1.40447 10.2793 1.4394C10.4542 1.52298 10.5959 1.64991 10.7264 1.76709C11.7003 2.33349 12.4923 2.92669 12.7386 3.82531C12.8916 3.69296 12.961 3.51926 13.0111 3.35335C13.116 2.25897 12.834 0.948456 11.3103 0.473715C10.578 0.204515 9.92471 0.327885 9.16621 0.365582ZM5.71082 4.47568C5.64738 4.43375 6.06656 4.42864 6.10611 4.46153L6.11511 4.46383C6.26521 4.50294 6.54001 4.62901 6.40511 4.75983C6.21271 4.8942 6.07866 4.49531 5.71082 4.47568Z" fill="#221E1F"/>
<path fill-rule="evenodd" clip-rule="evenodd" d="M10.4069 5.82273C10.2649 5.77984 10.1381 5.70821 10.0455 5.61673C10.0133 5.58488 10.0049 5.55132 10.0117 5.52058C10.0193 5.48607 10.0469 5.45473 10.0845 5.43377C10.1222 5.41273 10.1694 5.40229 10.215 5.40762C10.2546 5.41221 10.2941 5.42829 10.3253 5.46162L10.3318 5.46829C10.3869 5.52355 10.4587 5.56881 10.5405 5.59807C10.6193 5.62621 10.7074 5.63932 10.7987 5.6317C10.9724 5.61718 11.0922 5.54755 11.2195 5.45295C11.2352 5.44103 11.251 5.42873 11.2669 5.41621C11.2769 5.40488 11.2908 5.39755 11.3062 5.39377C11.3234 5.38947 11.3428 5.38977 11.3605 5.39436C11.3777 5.39873 11.393 5.40718 11.4032 5.41836C11.413 5.42895 11.4185 5.44207 11.4167 5.45718C11.4051 5.5551 11.3359 5.64258 11.2377 5.71125C11.1287 5.78755 10.9841 5.84029 10.848 5.85881C10.698 5.87918 10.5452 5.86458 10.4069 5.82273ZM10.9187 4.31103C11.0783 4.38288 11.3213 4.55044 11.1497 4.72858C10.9477 4.8857 10.6568 4.70562 10.5135 4.62414C10.3806 4.56103 10.2313 4.7234 10.3546 4.7971C11.3903 5.36532 11.8106 4.32984 10.9994 4.22658C10.9101 4.21518 10.8769 4.28881 10.9187 4.31103ZM9.06269 3.65006C9.08029 3.48793 9.41359 3.4511 9.44669 3.61155C9.47639 3.75525 9.44139 3.88725 9.35409 4.01666C9.27059 4.14029 9.06079 4.08266 9.04489 3.97007C9.02369 3.81918 9.05169 3.75088 9.06269 3.65006ZM11.5993 3.57827C11.6457 3.53319 11.7128 3.50241 11.7932 3.51981C12.0443 3.57418 11.9703 3.83836 11.8821 3.96688C11.8342 4.03673 11.6793 4.05444 11.6093 3.99295C11.4952 3.89273 11.4406 3.69248 11.5856 3.59373C11.5895 3.58863 11.5939 3.58347 11.5993 3.57827ZM9.35059 2.94061L9.39019 2.93547C9.51289 2.91974 9.66549 2.90463 9.75229 2.97773C9.79829 3.0165 9.81419 3.08854 9.75229 3.12564C9.64339 3.19093 9.52309 3.16563 9.39269 3.17116C9.28519 3.17573 9.18189 3.18891 9.07829 3.21084C8.85119 3.25896 8.66609 3.34678 8.47209 3.44322C8.44659 3.45587 8.42059 3.43174 8.43279 3.4141C8.54479 3.25155 8.76179 3.11802 8.97919 3.03663C9.09519 2.99318 9.22219 2.95714 9.35059 2.94061ZM11.3704 2.86779L11.4007 2.8724C11.7311 2.92357 12.1603 3.02579 12.3168 3.26625C12.3227 3.30025 12.3164 3.30754 12.3113 3.3123L12.3096 3.31389C12.3054 3.31796 12.302 3.32356 12.2821 3.32819C12.2766 3.32721 12.271 3.32618 12.2654 3.32508C12.1937 3.31116 12.137 3.29197 12.082 3.27207L12.0225 3.25033C11.9534 3.22522 11.8837 3.20103 11.8098 3.18317C11.6521 3.14506 11.49 3.11822 11.3253 3.10389C11.2896 3.10079 11.2553 3.09186 11.2281 3.07656C11.2024 3.06204 11.1828 3.04193 11.1738 3.01521C11.1622 2.98063 11.1655 2.95444 11.1905 2.92324C11.2094 2.89981 11.2363 2.88357 11.2673 2.87424C11.2988 2.86474 11.3347 2.8625 11.3704 2.86779Z" fill="black"/>
</svg>
