<svg width="18" height="21" viewBox="0 0 18 21" fill="none" xmlns="http://www.w3.org/2000/svg">
<g filter="url(#filter0_d_877_3256)">
<path fill-rule="evenodd" clip-rule="evenodd" d="M13.0284 12.597C12.6681 10.5967 12.4657 8.65571 12.2022 8.65571C11.8358 8.65571 11.3481 10.3674 10.7366 10.2436C10.1232 10.1224 10.1232 8.04534 10.8578 8.04534C11.5924 8.04534 12.4474 6.45489 12.4474 5.96485C12.4474 5.47742 11.7154 5.47742 10.9808 5.47742C10.2445 5.47742 8.65581 5.59863 8.65581 5.59863C8.65581 5.59863 7.67433 5.23327 7.67433 4.62029C7.67433 4.00904 7.30965 3.519 6.32904 3.519C5.35192 3.519 5.35192 2.54241 4.61646 3.519C3.88274 4.49734 6.20777 4.49734 5.96262 5.23327C5.71834 5.96485 4.98462 5.47742 4.86161 6.08692C4.7386 6.69729 4.98637 8.28775 5.35192 9.14401C5.63284 9.80409 6.05684 11.473 6.07167 12.8786C6.6405 12.7696 6.90833 12.5054 7.43615 12.5054C8.10007 12.5054 9.00566 12.4156 9.06673 11.7198C9.12605 11.0266 9.88245 10.5139 10.303 10.724C10.727 10.9359 11.3603 12.6266 11.39 13.5003C11.4005 13.7802 11.52 14.1499 11.7084 14.5318C12.0461 14.1988 12.4395 13.9337 12.4395 13.9337C12.4395 13.9337 12.6891 13.0042 13.0284 12.597Z" fill="white"/>
<path fill-rule="evenodd" clip-rule="evenodd" d="M13.0284 12.597C12.6681 10.5967 12.4657 8.65571 12.2022 8.65571C11.8358 8.65571 11.3481 10.3674 10.7366 10.2436C10.1232 10.1224 10.1232 8.04534 10.8578 8.04534C11.5924 8.04534 12.4474 6.45489 12.4474 5.96485C12.4474 5.47742 11.7154 5.47742 10.9808 5.47742C10.2445 5.47742 8.65581 5.59863 8.65581 5.59863C8.65581 5.59863 7.67433 5.23327 7.67433 4.62029C7.67433 4.00904 7.30965 3.519 6.32904 3.519C5.35192 3.519 5.35192 2.54241 4.61646 3.519C3.88274 4.49734 6.20777 4.49734 5.96262 5.23327C5.71834 5.96485 4.98462 5.47742 4.86161 6.08692C4.7386 6.69729 4.98637 8.28775 5.35192 9.14401C5.63284 9.80409 6.05684 11.473 6.07167 12.8786C6.6405 12.7696 6.90833 12.5054 7.43615 12.5054C8.10007 12.5054 9.00566 12.4156 9.06673 11.7198C9.12605 11.0266 9.88245 10.5139 10.303 10.724C10.727 10.9359 11.3603 12.6266 11.39 13.5003C11.4005 13.7802 11.52 14.1499 11.7084 14.5318C12.0461 14.1988 12.4395 13.9337 12.4395 13.9337C12.4395 13.9337 12.6891 13.0042 13.0284 12.597Z" stroke="#868686" stroke-width="0.25"/>
</g>
<defs>
<filter id="filter0_d_877_3256" x="0.347656" y="0.959961" width="16.8145" height="19.7822" filterUnits="userSpaceOnUse" color-interpolation-filters="sRGB">
<feFlood flood-opacity="0" result="BackgroundImageFix"/>
<feColorMatrix in="SourceAlpha" type="matrix" values="0 0 0 0 0 0 0 0 0 0 0 0 0 0 0 0 0 0 127 0" result="hardAlpha"/>
<feOffset dy="2"/>
<feGaussianBlur stdDeviation="2"/>
<feColorMatrix type="matrix" values="0 0 0 0 0 0 0 0 0 0 0 0 0 0 0 0 0 0 0.01 0"/>
<feBlend mode="normal" in2="BackgroundImageFix" result="effect1_dropShadow_877_3256"/>
<feBlend mode="normal" in="SourceGraphic" in2="effect1_dropShadow_877_3256" result="shape"/>
</filter>
</defs>
</svg>
