<svg width="18" height="19" viewBox="0 0 18 19" fill="none" xmlns="http://www.w3.org/2000/svg">
<g filter="url(#filter0_d_877_3261)">
<path fill-rule="evenodd" clip-rule="evenodd" d="M12.6207 2.6709C11.3409 3.32661 10.2277 3.87159 10.0069 3.90385C9.44161 3.98581 8.07189 4.95194 8.07189 4.95194L6.21711 3.98581L6.05483 3.2586L6.01732 3.24465C5.94055 3.9396 5.84283 4.74355 5.77827 4.99816C5.65701 5.4821 5.65701 7.89655 5.29495 8.37962C5.07597 8.67085 4.81162 10.1122 4.64062 11.339C5.30803 11.7009 6.08537 12.0837 6.45877 12.1256C7.1855 12.2032 8.07189 11.3983 8.07189 10.9153C8.07189 10.4322 8.71662 10.3511 9.36222 10.3511C10.0078 10.3511 10.0881 9.62565 10.5714 9.38411C11.0556 9.14171 9.52362 7.77273 9.03942 7.61229C8.55522 7.45185 9.44161 6.40376 11.0556 6.32266C12.6687 6.24157 12.2648 5.67741 13.1512 5.67741C13.1931 5.67741 13.2245 5.67741 13.2637 5.67741C13.1076 4.972 12.913 4.11922 12.7856 3.67191C12.7071 3.40509 12.6565 3.0441 12.6207 2.6709Z" fill="white"/>
<path fill-rule="evenodd" clip-rule="evenodd" d="M12.6207 2.6709C11.3409 3.32661 10.2277 3.87159 10.0069 3.90385C9.44161 3.98581 8.07189 4.95194 8.07189 4.95194L6.21711 3.98581L6.05483 3.2586L6.01732 3.24465C5.94055 3.9396 5.84283 4.74355 5.77827 4.99816C5.65701 5.4821 5.65701 7.89655 5.29495 8.37962C5.07597 8.67085 4.81162 10.1122 4.64062 11.339C5.30803 11.7009 6.08537 12.0837 6.45877 12.1256C7.1855 12.2032 8.07189 11.3983 8.07189 10.9153C8.07189 10.4322 8.71662 10.3511 9.36222 10.3511C10.0078 10.3511 10.0881 9.62565 10.5714 9.38411C11.0556 9.14171 9.52362 7.77273 9.03942 7.61229C8.55522 7.45185 9.44161 6.40376 11.0556 6.32266C12.6687 6.24157 12.2648 5.67741 13.1512 5.67741C13.1931 5.67741 13.2245 5.67741 13.2637 5.67741C13.1076 4.972 12.913 4.11922 12.7856 3.67191C12.7071 3.40509 12.6565 3.0441 12.6207 2.6709Z" stroke="#868686" stroke-width="0.25"/>
</g>
<defs>
<filter id="filter0_d_877_3261" x="0.503906" y="0.475586" width="16.916" height="17.7803" filterUnits="userSpaceOnUse" color-interpolation-filters="sRGB">
<feFlood flood-opacity="0" result="BackgroundImageFix"/>
<feColorMatrix in="SourceAlpha" type="matrix" values="0 0 0 0 0 0 0 0 0 0 0 0 0 0 0 0 0 0 127 0" result="hardAlpha"/>
<feOffset dy="2"/>
<feGaussianBlur stdDeviation="2"/>
<feColorMatrix type="matrix" values="0 0 0 0 0 0 0 0 0 0 0 0 0 0 0 0 0 0 0.01 0"/>
<feBlend mode="normal" in2="BackgroundImageFix" result="effect1_dropShadow_877_3261"/>
<feBlend mode="normal" in="SourceGraphic" in2="effect1_dropShadow_877_3261" result="shape"/>
</filter>
</defs>
</svg>
