<svg width="22" height="16" viewBox="0 0 22 16" fill="none" xmlns="http://www.w3.org/2000/svg">
<g filter="url(#filter0_d_877_3313)">
<path fill-rule="evenodd" clip-rule="evenodd" d="M9.65441 8.71118C9.74166 8.53679 9.12921 7.53055 10.3096 7.44336C11.4909 7.35616 12.3642 7.22537 12.5395 6.48246C12.7149 5.74042 14.1134 6.0892 14.5069 6.04561C14.8323 6.00986 15.874 5.04983 16.893 5.08819C16.9078 4.09416 15.5564 4.41591 14.6238 3.48205C13.6275 2.48801 11.4534 2.94056 10.2765 3.39136C9.09868 3.84391 7.7403 2.89434 6.47266 3.61807C6.45608 3.62505 6.44387 3.63202 6.42904 3.63987C6.15161 3.98865 5.77123 4.41853 5.32629 4.77778C4.47218 5.47011 4.70861 6.15373 4.39453 6.35166C4.71908 6.47374 5.03053 6.61674 5.28267 6.78851C6.24496 7.44248 7.16275 6.87571 7.5126 7.35529C7.63037 7.51834 7.59286 8.05198 7.4934 8.68764C7.67138 8.5429 7.80748 8.44175 8.10323 8.68764C8.36845 8.90738 8.32047 9.18379 8.28644 9.45409L9.04284 9.27883C9.04197 9.28057 9.56717 8.88732 9.65441 8.71118Z" fill="white"/>
<path fill-rule="evenodd" clip-rule="evenodd" d="M9.65441 8.71118C9.74166 8.53679 9.12921 7.53055 10.3096 7.44336C11.4909 7.35616 12.3642 7.22537 12.5395 6.48246C12.7149 5.74042 14.1134 6.0892 14.5069 6.04561C14.8323 6.00986 15.874 5.04983 16.893 5.08819C16.9078 4.09416 15.5564 4.41591 14.6238 3.48205C13.6275 2.48801 11.4534 2.94056 10.2765 3.39136C9.09868 3.84391 7.7403 2.89434 6.47266 3.61807C6.45608 3.62505 6.44387 3.63202 6.42904 3.63987C6.15161 3.98865 5.77123 4.41853 5.32629 4.77778C4.47218 5.47011 4.70861 6.15373 4.39453 6.35166C4.71908 6.47374 5.03053 6.61674 5.28267 6.78851C6.24496 7.44248 7.16275 6.87571 7.5126 7.35529C7.63037 7.51834 7.59286 8.05198 7.4934 8.68764C7.67138 8.5429 7.80748 8.44175 8.10323 8.68764C8.36845 8.90738 8.32047 9.18379 8.28644 9.45409L9.04284 9.27883C9.04197 9.28057 9.56717 8.88732 9.65441 8.71118Z" stroke="#868686" stroke-width="0.25"/>
</g>
<defs>
<filter id="filter0_d_877_3313" x="0.115234" y="0.761719" width="20.9023" height="14.8545" filterUnits="userSpaceOnUse" color-interpolation-filters="sRGB">
<feFlood flood-opacity="0" result="BackgroundImageFix"/>
<feColorMatrix in="SourceAlpha" type="matrix" values="0 0 0 0 0 0 0 0 0 0 0 0 0 0 0 0 0 0 127 0" result="hardAlpha"/>
<feOffset dy="2"/>
<feGaussianBlur stdDeviation="2"/>
<feColorMatrix type="matrix" values="0 0 0 0 0 0 0 0 0 0 0 0 0 0 0 0 0 0 0.01 0"/>
<feBlend mode="normal" in2="BackgroundImageFix" result="effect1_dropShadow_877_3313"/>
<feBlend mode="normal" in="SourceGraphic" in2="effect1_dropShadow_877_3313" result="shape"/>
</filter>
</defs>
</svg>
