<svg width="24" height="38" viewBox="0 0 24 38" fill="none" xmlns="http://www.w3.org/2000/svg">
<g filter="url(#filter0_d_877_3456)">
<path fill-rule="evenodd" clip-rule="evenodd" d="M17.6171 3.09C17.3467 2.10032 17.1338 3.4536 16.893 3.69252C16.6522 3.93405 16.531 4.65778 16.5894 5.14259C16.6514 5.62565 15.8662 6.10697 15.3837 6.04594C14.8995 5.98752 14.1143 6.28834 14.356 6.9519C14.5959 7.61721 13.9939 7.49601 14.2958 8.03749C14.5968 8.58159 13.6319 9.2469 12.7856 9.30532C11.9402 9.36549 10.8532 10.8766 9.94936 10.7536C9.04203 10.6342 8.13645 11.3579 7.35126 11.2376C6.56433 11.1155 7.10872 12.8664 6.505 13.9537C5.90041 15.0393 6.20314 16.3063 6.74579 17.6343C7.28844 18.9631 7.71244 20.0487 6.26247 21.7979C4.81423 23.5505 4.93375 25.4802 5.47815 26.687C6.02167 27.8955 6.02167 29.7057 6.80599 30.5506C7.59205 31.3973 9.76527 32.1184 10.4292 31.4566C11.0931 30.7921 11.7928 31.5455 12.5413 30.6709C13.2663 29.826 14.4764 25.1776 15.5006 22.1022C16.5284 19.0242 17.8571 14.9792 17.7367 14.1334C17.6163 13.2884 18.4608 12.7469 18.0996 11.8401C17.7367 10.9341 18.22 9.84855 18.6423 10.5723C19.0654 11.296 19.67 11.296 19.8506 10.3325C20.0312 9.36636 19.1264 7.85612 19.0663 6.46797C19.0061 5.07981 17.7986 3.75443 17.6171 3.09Z" fill="white"/>
<path fill-rule="evenodd" clip-rule="evenodd" d="M17.6171 3.09C17.3467 2.10032 17.1338 3.4536 16.893 3.69252C16.6522 3.93405 16.531 4.65778 16.5894 5.14259C16.6514 5.62565 15.8662 6.10697 15.3837 6.04594C14.8995 5.98752 14.1143 6.28834 14.356 6.9519C14.5959 7.61721 13.9939 7.49601 14.2958 8.03749C14.5968 8.58159 13.6319 9.2469 12.7856 9.30532C11.9402 9.36549 10.8532 10.8766 9.94936 10.7536C9.04203 10.6342 8.13645 11.3579 7.35126 11.2376C6.56433 11.1155 7.10872 12.8664 6.505 13.9537C5.90041 15.0393 6.20314 16.3063 6.74579 17.6343C7.28844 18.9631 7.71244 20.0487 6.26247 21.7979C4.81423 23.5505 4.93375 25.4802 5.47815 26.687C6.02167 27.8955 6.02167 29.7057 6.80599 30.5506C7.59205 31.3973 9.76527 32.1184 10.4292 31.4566C11.0931 30.7921 11.7928 31.5455 12.5413 30.6709C13.2663 29.826 14.4764 25.1776 15.5006 22.1022C16.5284 19.0242 17.8571 14.9792 17.7367 14.1334C17.6163 13.2884 18.4608 12.7469 18.0996 11.8401C17.7367 10.9341 18.22 9.84855 18.6423 10.5723C19.0654 11.296 19.67 11.296 19.8506 10.3325C20.0312 9.36636 19.1264 7.85612 19.0663 6.46797C19.0061 5.07981 17.7986 3.75443 17.6171 3.09Z" stroke="#868686" stroke-width="0.25"/>
</g>
<defs>
<filter id="filter0_d_877_3456" x="0.976562" y="0.607422" width="23.0234" height="37.2324" filterUnits="userSpaceOnUse" color-interpolation-filters="sRGB">
<feFlood flood-opacity="0" result="BackgroundImageFix"/>
<feColorMatrix in="SourceAlpha" type="matrix" values="0 0 0 0 0 0 0 0 0 0 0 0 0 0 0 0 0 0 127 0" result="hardAlpha"/>
<feOffset dy="2"/>
<feGaussianBlur stdDeviation="2"/>
<feColorMatrix type="matrix" values="0 0 0 0 0 0 0 0 0 0 0 0 0 0 0 0 0 0 0.01 0"/>
<feBlend mode="normal" in2="BackgroundImageFix" result="effect1_dropShadow_877_3456"/>
<feBlend mode="normal" in="SourceGraphic" in2="effect1_dropShadow_877_3456" result="shape"/>
</filter>
</defs>
</svg>
