<svg width="25" height="33" viewBox="0 0 25 33" fill="none" xmlns="http://www.w3.org/2000/svg">
<g filter="url(#filter0_d_877_3233)">
<path fill-rule="evenodd" clip-rule="evenodd" d="M11.3192 25.356C11.3192 25.356 16.1071 25.608 16.7353 25.4816C17.3652 25.356 19.6317 26.4887 19.6317 26.4887C19.6317 26.4887 19.739 25.349 20.1369 24.6663C19.9816 24.5834 19.8272 24.4692 19.7853 24.3236C19.6937 24.0062 18.7872 23.4176 18.4723 23.0104C18.1538 22.6032 18.0186 22.332 18.0186 22.332C18.0186 22.332 18.1093 21.6519 17.7019 21.1095C17.2936 20.5663 17.113 20.2053 17.113 19.479C17.113 18.7561 16.8417 18.212 16.8417 17.8057C16.8417 17.3976 17.5658 16.6277 17.8371 15.7697C17.9968 15.2683 18.474 14.862 18.8666 14.4984C18.6668 14.1853 18.4461 13.622 18.2611 13.023C18.0195 12.2382 17.3564 11.9976 16.5695 11.2747C15.7861 10.5484 16.0879 10.1263 16.0879 9.82552C16.0879 9.52383 17.1139 9.52121 17.838 9.58399C18.5621 9.64416 18.9853 9.46279 18.686 9.28142C18.3807 9.10005 17.7787 7.71189 17.838 6.74838C17.8982 5.7805 17.5362 5.48142 17.5964 4.93558C17.6574 4.39322 16.9324 3.00419 16.3278 3.00419C16.2868 3.00419 16.2511 2.99721 16.2144 2.99023C16.1106 3.42447 16.0879 3.91887 16.0879 4.09152C16.0879 4.39322 16.5695 4.81437 16.9324 4.93558C17.2945 5.05678 17.1139 5.66192 17.0546 6.20253C16.9944 6.74838 16.0277 6.62456 15.8454 6.86697C15.6648 7.1085 14.5777 8.79836 14.6388 9.10092C14.699 9.40437 14.4574 10.3086 14.1564 10.4289C13.8528 10.5492 13.9147 11.2137 13.9147 11.5145C13.9147 11.8162 12.9472 12.2382 12.9472 12.7222C12.9472 13.2052 11.8017 15.195 11.4387 15.8604C11.0758 16.5239 10.7138 17.3706 10.5925 16.7663C10.4721 16.1638 9.56564 15.4401 9.14251 15.7409C8.71938 16.0417 8.17847 15.8604 7.93506 15.9223C7.6934 15.9824 5.59608 18.1527 5.59608 18.1527C5.59608 18.1527 5.43642 19.179 5.00195 20.3414C5.26979 20.5079 5.5542 21.0476 5.85257 21.474C6.2757 22.0783 7.08968 21.6249 7.42207 21.8062C7.7536 21.9885 8.1174 23.4072 7.99439 23.7978C7.87923 24.1762 7.37845 25.1345 7.60965 25.6097H10.4389L11.3192 25.356Z" fill="white"/>
<path fill-rule="evenodd" clip-rule="evenodd" d="M11.3192 25.356C11.3192 25.356 16.1071 25.608 16.7353 25.4816C17.3652 25.356 19.6317 26.4887 19.6317 26.4887C19.6317 26.4887 19.739 25.349 20.1369 24.6663C19.9816 24.5834 19.8272 24.4692 19.7853 24.3236C19.6937 24.0062 18.7872 23.4176 18.4723 23.0104C18.1538 22.6032 18.0186 22.332 18.0186 22.332C18.0186 22.332 18.1093 21.6519 17.7019 21.1095C17.2936 20.5663 17.113 20.2053 17.113 19.479C17.113 18.7561 16.8417 18.212 16.8417 17.8057C16.8417 17.3976 17.5658 16.6277 17.8371 15.7697C17.9968 15.2683 18.474 14.862 18.8666 14.4984C18.6668 14.1853 18.4461 13.622 18.2611 13.023C18.0195 12.2382 17.3564 11.9976 16.5695 11.2747C15.7861 10.5484 16.0879 10.1263 16.0879 9.82552C16.0879 9.52383 17.1139 9.52121 17.838 9.58399C18.5621 9.64416 18.9853 9.46279 18.686 9.28142C18.3807 9.10005 17.7787 7.71189 17.838 6.74838C17.8982 5.7805 17.5362 5.48142 17.5964 4.93558C17.6574 4.39322 16.9324 3.00419 16.3278 3.00419C16.2868 3.00419 16.2511 2.99721 16.2144 2.99023C16.1106 3.42447 16.0879 3.91887 16.0879 4.09152C16.0879 4.39322 16.5695 4.81437 16.9324 4.93558C17.2945 5.05678 17.1139 5.66192 17.0546 6.20253C16.9944 6.74838 16.0277 6.62456 15.8454 6.86697C15.6648 7.1085 14.5777 8.79836 14.6388 9.10092C14.699 9.40437 14.4574 10.3086 14.1564 10.4289C13.8528 10.5492 13.9147 11.2137 13.9147 11.5145C13.9147 11.8162 12.9472 12.2382 12.9472 12.7222C12.9472 13.2052 11.8017 15.195 11.4387 15.8604C11.0758 16.5239 10.7138 17.3706 10.5925 16.7663C10.4721 16.1638 9.56564 15.4401 9.14251 15.7409C8.71938 16.0417 8.17847 15.8604 7.93506 15.9223C7.6934 15.9824 5.59608 18.1527 5.59608 18.1527C5.59608 18.1527 5.43642 19.179 5.00195 20.3414C5.26979 20.5079 5.5542 21.0476 5.85257 21.474C6.2757 22.0783 7.08968 21.6249 7.42207 21.8062C7.7536 21.9885 8.1174 23.4072 7.99439 23.7978C7.87923 24.1762 7.37845 25.1345 7.60965 25.6097H10.4389L11.3192 25.356Z" stroke="#868686" stroke-width="0.25"/>
</g>
<defs>
<filter id="filter0_d_877_3233" x="0.849609" y="0.844727" width="23.4609" height="31.8369" filterUnits="userSpaceOnUse" color-interpolation-filters="sRGB">
<feFlood flood-opacity="0" result="BackgroundImageFix"/>
<feColorMatrix in="SourceAlpha" type="matrix" values="0 0 0 0 0 0 0 0 0 0 0 0 0 0 0 0 0 0 127 0" result="hardAlpha"/>
<feOffset dy="2"/>
<feGaussianBlur stdDeviation="2"/>
<feColorMatrix type="matrix" values="0 0 0 0 0 0 0 0 0 0 0 0 0 0 0 0 0 0 0.01 0"/>
<feBlend mode="normal" in2="BackgroundImageFix" result="effect1_dropShadow_877_3233"/>
<feBlend mode="normal" in="SourceGraphic" in2="effect1_dropShadow_877_3233" result="shape"/>
</filter>
</defs>
</svg>
