<svg width="31" height="44" viewBox="0 0 31 44" fill="none" xmlns="http://www.w3.org/2000/svg">
<g filter="url(#filter0_d_877_3522)">
<path fill-rule="evenodd" clip-rule="evenodd" d="M26.0748 11.7645C25.8646 11.2204 25.4406 8.7745 25.5618 7.78047C25.6831 6.78469 25.3804 4.1601 25.3804 2.89314C25.3804 2.86349 25.3751 2.84082 25.3743 2.81641C24.3753 3.26895 23.3014 3.78951 23.208 3.97786C23.0266 4.34059 22.2422 3.91769 21.7572 4.34059C21.2738 4.76262 20.9737 4.40163 20.5515 4.28217C20.1301 4.1601 19.946 4.7042 19.8858 5.06519C19.8265 5.42705 18.9811 5.24481 18.6775 5.18465C18.3756 5.12623 17.4098 5.42705 16.9256 5.42705C16.4423 5.42705 16.8061 5.00502 16.2626 4.82453C15.7191 4.64403 15.357 5.06519 15.0534 5.06519C14.8711 5.06519 14.3075 4.99979 13.8957 4.94486C13.8878 5.22476 13.8564 5.47152 13.7858 5.65376C13.394 6.67657 14.6015 8.99075 14.6617 9.96996C15.1092 10.3562 15.6257 10.8271 15.9005 11.1611C16.4423 11.8255 15.9005 11.7645 15.959 13.2136C16.0201 14.6602 15.357 14.0586 14.8126 14.5399C14.27 15.0221 14.7515 16.1094 14.6329 16.412C14.5108 16.7137 12.8802 14.2975 12.7598 13.9356C12.6394 13.5738 13.3653 12.1246 13.1829 11.2823C13.0015 10.4373 11.9153 10.9788 11.5532 11.039C11.1912 11.1 10.344 10.0746 10.1626 10.0746C9.98197 10.0746 4.48828 12.1254 4.48828 12.1254L4.90879 13.6365L4.7884 13.6383L5.08939 14.2984C5.08939 14.2984 6.90142 14.3899 7.71715 14.9332C8.53112 15.4773 9.80051 15.5662 10.0718 15.7502C10.344 15.9298 10.0718 17.9222 10.1626 18.918C10.2542 19.9138 9.07639 20.185 9.61904 20.7282C10.1626 21.2714 9.89037 22.1774 10.255 22.2663C10.6162 22.357 9.61904 23.5333 9.16538 23.8062C8.71433 24.0783 9.16538 25.0749 8.62273 25.7969C8.2755 26.2616 7.25999 27.1702 6.55071 27.8582C6.5856 27.8783 6.61614 27.8983 6.63097 27.9236C6.81244 28.241 7.35509 31.4097 7.89774 31.7271C8.44301 32.0436 8.12544 35.167 8.08008 35.439C8.03384 35.7111 8.30778 37.7924 8.30778 37.7924C8.30778 37.7924 9.11565 37.666 9.82755 37.6765C9.87728 37.264 9.90782 36.9057 9.92265 36.6606C9.98197 35.6971 9.31805 36.4793 9.10605 35.8776C8.89493 35.2742 10.5857 34.1572 12.307 33.5233C14.0283 32.8903 14.6914 32.5275 14.8728 31.9224C15.0534 31.3216 14.8432 29.6318 15.0848 28.9639C15.3247 28.302 14.933 27.9097 14.7228 26.4012C14.5108 24.8918 13.9655 24.6503 13.7256 23.8053C13.483 22.9604 13.5441 22.2986 14.0571 22.2655C14.5701 22.2367 14.5701 21.9943 14.9932 21.1799C15.4163 20.3637 15.8997 20.6977 16.7154 20.0925C17.5302 19.49 17.559 18.7349 18.8581 17.74C20.1545 16.7442 21.5748 16.7756 22.8425 16.0196C24.1136 15.2636 26.2859 12.3068 26.0748 11.7645Z" fill="white"/>
<path fill-rule="evenodd" clip-rule="evenodd" d="M26.0748 11.7645C25.8646 11.2204 25.4406 8.7745 25.5618 7.78047C25.6831 6.78469 25.3804 4.1601 25.3804 2.89314C25.3804 2.86349 25.3751 2.84082 25.3743 2.81641C24.3753 3.26895 23.3014 3.78951 23.208 3.97786C23.0266 4.34059 22.2422 3.91769 21.7572 4.34059C21.2738 4.76262 20.9737 4.40163 20.5515 4.28217C20.1301 4.1601 19.946 4.7042 19.8858 5.06519C19.8265 5.42705 18.9811 5.24481 18.6775 5.18465C18.3756 5.12623 17.4098 5.42705 16.9256 5.42705C16.4423 5.42705 16.8061 5.00502 16.2626 4.82453C15.7191 4.64403 15.357 5.06519 15.0534 5.06519C14.8711 5.06519 14.3075 4.99979 13.8957 4.94486C13.8878 5.22476 13.8564 5.47152 13.7858 5.65376C13.394 6.67657 14.6015 8.99075 14.6617 9.96996C15.1092 10.3562 15.6257 10.8271 15.9005 11.1611C16.4423 11.8255 15.9005 11.7645 15.959 13.2136C16.0201 14.6602 15.357 14.0586 14.8126 14.5399C14.27 15.0221 14.7515 16.1094 14.6329 16.412C14.5108 16.7137 12.8802 14.2975 12.7598 13.9356C12.6394 13.5738 13.3653 12.1246 13.1829 11.2823C13.0015 10.4373 11.9153 10.9788 11.5532 11.039C11.1912 11.1 10.344 10.0746 10.1626 10.0746C9.98197 10.0746 4.48828 12.1254 4.48828 12.1254L4.90879 13.6365L4.7884 13.6383L5.08939 14.2984C5.08939 14.2984 6.90142 14.3899 7.71715 14.9332C8.53112 15.4773 9.80051 15.5662 10.0718 15.7502C10.344 15.9298 10.0718 17.9222 10.1626 18.918C10.2542 19.9138 9.07639 20.185 9.61904 20.7282C10.1626 21.2714 9.89037 22.1774 10.255 22.2663C10.6162 22.357 9.61904 23.5333 9.16538 23.8062C8.71433 24.0783 9.16538 25.0749 8.62273 25.7969C8.2755 26.2616 7.25999 27.1702 6.55071 27.8582C6.5856 27.8783 6.61614 27.8983 6.63097 27.9236C6.81244 28.241 7.35509 31.4097 7.89774 31.7271C8.44301 32.0436 8.12544 35.167 8.08008 35.439C8.03384 35.7111 8.30778 37.7924 8.30778 37.7924C8.30778 37.7924 9.11565 37.666 9.82755 37.6765C9.87728 37.264 9.90782 36.9057 9.92265 36.6606C9.98197 35.6971 9.31805 36.4793 9.10605 35.8776C8.89493 35.2742 10.5857 34.1572 12.307 33.5233C14.0283 32.8903 14.6914 32.5275 14.8728 31.9224C15.0534 31.3216 14.8432 29.6318 15.0848 28.9639C15.3247 28.302 14.933 27.9097 14.7228 26.4012C14.5108 24.8918 13.9655 24.6503 13.7256 23.8053C13.483 22.9604 13.5441 22.2986 14.0571 22.2655C14.5701 22.2367 14.5701 21.9943 14.9932 21.1799C15.4163 20.3637 15.8997 20.6977 16.7154 20.0925C17.5302 19.49 17.559 18.7349 18.8581 17.74C20.1545 16.7442 21.5748 16.7756 22.8425 16.0196C24.1136 15.2636 26.2859 12.3068 26.0748 11.7645Z" stroke="#868686" stroke-width="0.25"/>
</g>
<defs>
<filter id="filter0_d_877_3522" x="0.337891" y="0.625977" width="29.877" height="43.3096" filterUnits="userSpaceOnUse" color-interpolation-filters="sRGB">
<feFlood flood-opacity="0" result="BackgroundImageFix"/>
<feColorMatrix in="SourceAlpha" type="matrix" values="0 0 0 0 0 0 0 0 0 0 0 0 0 0 0 0 0 0 127 0" result="hardAlpha"/>
<feOffset dy="2"/>
<feGaussianBlur stdDeviation="2"/>
<feColorMatrix type="matrix" values="0 0 0 0 0 0 0 0 0 0 0 0 0 0 0 0 0 0 0.01 0"/>
<feBlend mode="normal" in2="BackgroundImageFix" result="effect1_dropShadow_877_3522"/>
<feBlend mode="normal" in="SourceGraphic" in2="effect1_dropShadow_877_3522" result="shape"/>
</filter>
</defs>
</svg>
