<svg width="27" height="47" viewBox="0 0 27 47" fill="none" xmlns="http://www.w3.org/2000/svg">
<g filter="url(#filter0_d_877_3270)">
<path fill-rule="evenodd" clip-rule="evenodd" d="M18.8275 37.1137C18.8275 36.3106 18.1837 36.2286 18.1837 35.5851C18.1837 34.939 18.1837 33.8107 17.3775 33.087C16.5679 32.3615 16.1657 31.3117 16.6499 30.9088C17.1341 30.5069 16.7311 29.3785 16.9727 29.457C17.2153 29.539 17.5381 28.7324 17.053 28.4926C16.5679 28.2511 17.053 27.2823 16.6499 27.1228C16.246 26.9615 15.1188 25.6718 15.1188 25.2707C15.1188 24.867 15.4416 22.6095 15.5219 22.0462C15.6021 21.4821 16.4074 21.401 16.6499 21.401C16.8925 21.401 17.8609 21.4821 18.1837 20.9162C18.5065 20.3529 19.8753 20.2718 20.0376 19.8698C20.199 19.467 21.0862 19.467 21.0862 18.983C21.0862 18.4991 22.1332 17.2897 22.1332 17.2897C22.1489 17.2879 22.1593 17.2967 22.175 17.2967C22.0538 17.0813 21.7886 17.2749 21.2546 17.4868C20.349 17.8504 19.8962 17.3516 19.987 16.8084C20.0777 16.266 19.3527 16.266 18.8546 16.266C18.3573 16.266 18.674 15.4507 18.8546 14.9066C19.0369 14.3643 18.674 14.0477 18.0842 13.9998C17.4953 13.9562 17.2249 12.6884 17.45 12.3256C17.6777 11.9646 16.2277 11.6481 15.5934 11.9646C14.9583 12.2812 15.4128 11.4205 15.2322 10.9671C15.049 10.5154 16.0471 8.9773 16.9073 8.11842C17.7666 7.25693 17.4055 6.12513 17.4055 5.12848C17.4055 4.1327 16.998 4.1327 16.5906 4.1327C16.1823 4.1327 16.1361 3.54413 16.1361 3.0009C16.1361 2.45854 15.2759 2.05133 14.7777 2.41232C14.7079 2.46377 14.5858 2.5344 14.4331 2.61375C14.4523 2.61898 14.4715 2.62159 14.4715 2.62159C14.4715 2.62159 14.3101 3.42728 13.9864 3.58947C13.6636 3.75165 13.6636 4.2321 14.1487 4.95844C14.632 5.68304 13.4237 5.36042 13.2614 4.95844C13.0991 4.5556 12.1307 5.19911 11.5689 5.68304C11.0044 6.16698 10.1983 6.40938 10.1983 7.29617C10.1983 8.18208 9.47071 9.06973 9.63385 9.79346C9.79525 10.5181 8.82685 11.8888 8.90799 12.2925C8.98913 12.6945 7.5374 12.2114 7.29574 12.2114C7.0532 12.2114 7.21373 13.7408 6.8918 14.2248C6.56813 14.7096 6.8098 16.402 6.32647 16.402C5.84402 16.402 5.44008 17.9332 5.44008 17.9332C5.44008 17.9332 5.04661 18.1983 4.70898 18.5314C5.1042 19.3379 5.82482 20.2212 6.62571 20.5508C7.80349 21.0321 8.58694 23.4152 8.95074 24.6813C9.31193 25.9482 9.07201 27.2483 8.64888 27.9712C8.22575 28.6967 8.79894 28.7263 9.49339 29.0873C10.1896 29.45 10.973 29.5721 11.486 28.8458C11.9999 28.122 13.0555 27.6102 13.2073 26.7949C13.3591 25.9805 13.8416 27.1856 14.2647 27.6102C14.6878 28.0322 14.9906 28.8458 15.0804 29.8729C15.1712 30.8984 15.2602 33.4637 16.1361 34.2798C17.012 35.0925 17.1629 36.8756 16.9213 37.5078C16.6822 38.1426 17.3758 39.2291 17.1935 39.9223C17.1568 40.0618 17.1176 40.2588 17.0739 40.4777C17.8635 40.6286 18.8275 37.1137 18.8275 37.1137Z" fill="white"/>
<path fill-rule="evenodd" clip-rule="evenodd" d="M18.8275 37.1137C18.8275 36.3106 18.1837 36.2286 18.1837 35.5851C18.1837 34.939 18.1837 33.8107 17.3775 33.087C16.5679 32.3615 16.1657 31.3117 16.6499 30.9088C17.1341 30.5069 16.7311 29.3785 16.9727 29.457C17.2153 29.539 17.5381 28.7324 17.053 28.4926C16.5679 28.2511 17.053 27.2823 16.6499 27.1228C16.246 26.9615 15.1188 25.6718 15.1188 25.2707C15.1188 24.867 15.4416 22.6095 15.5219 22.0462C15.6021 21.4821 16.4074 21.401 16.6499 21.401C16.8925 21.401 17.8609 21.4821 18.1837 20.9162C18.5065 20.3529 19.8753 20.2718 20.0376 19.8698C20.199 19.467 21.0862 19.467 21.0862 18.983C21.0862 18.4991 22.1332 17.2897 22.1332 17.2897C22.1489 17.2879 22.1593 17.2967 22.175 17.2967C22.0538 17.0813 21.7886 17.2749 21.2546 17.4868C20.349 17.8504 19.8962 17.3516 19.987 16.8084C20.0777 16.266 19.3527 16.266 18.8546 16.266C18.3573 16.266 18.674 15.4507 18.8546 14.9066C19.0369 14.3643 18.674 14.0477 18.0842 13.9998C17.4953 13.9562 17.2249 12.6884 17.45 12.3256C17.6777 11.9646 16.2277 11.6481 15.5934 11.9646C14.9583 12.2812 15.4128 11.4205 15.2322 10.9671C15.049 10.5154 16.0471 8.9773 16.9073 8.11842C17.7666 7.25693 17.4055 6.12513 17.4055 5.12848C17.4055 4.1327 16.998 4.1327 16.5906 4.1327C16.1823 4.1327 16.1361 3.54413 16.1361 3.0009C16.1361 2.45854 15.2759 2.05133 14.7777 2.41232C14.7079 2.46377 14.5858 2.5344 14.4331 2.61375C14.4523 2.61898 14.4715 2.62159 14.4715 2.62159C14.4715 2.62159 14.3101 3.42728 13.9864 3.58947C13.6636 3.75165 13.6636 4.2321 14.1487 4.95844C14.632 5.68304 13.4237 5.36042 13.2614 4.95844C13.0991 4.5556 12.1307 5.19911 11.5689 5.68304C11.0044 6.16698 10.1983 6.40938 10.1983 7.29617C10.1983 8.18208 9.47071 9.06973 9.63385 9.79346C9.79525 10.5181 8.82685 11.8888 8.90799 12.2925C8.98913 12.6945 7.5374 12.2114 7.29574 12.2114C7.0532 12.2114 7.21373 13.7408 6.8918 14.2248C6.56813 14.7096 6.8098 16.402 6.32647 16.402C5.84402 16.402 5.44008 17.9332 5.44008 17.9332C5.44008 17.9332 5.04661 18.1983 4.70898 18.5314C5.1042 19.3379 5.82482 20.2212 6.62571 20.5508C7.80349 21.0321 8.58694 23.4152 8.95074 24.6813C9.31193 25.9482 9.07201 27.2483 8.64888 27.9712C8.22575 28.6967 8.79894 28.7263 9.49339 29.0873C10.1896 29.45 10.973 29.5721 11.486 28.8458C11.9999 28.122 13.0555 27.6102 13.2073 26.7949C13.3591 25.9805 13.8416 27.1856 14.2647 27.6102C14.6878 28.0322 14.9906 28.8458 15.0804 29.8729C15.1712 30.8984 15.2602 33.4637 16.1361 34.2798C17.012 35.0925 17.1629 36.8756 16.9213 37.5078C16.6822 38.1426 17.3758 39.2291 17.1935 39.9223C17.1568 40.0618 17.1176 40.2588 17.0739 40.4777C17.8635 40.6286 18.8275 37.1137 18.8275 37.1137Z" stroke="#868686" stroke-width="0.25"/>
</g>
<defs>
<filter id="filter0_d_877_3270" x="0.556641" y="0.150391" width="25.832" height="46.457" filterUnits="userSpaceOnUse" color-interpolation-filters="sRGB">
<feFlood flood-opacity="0" result="BackgroundImageFix"/>
<feColorMatrix in="SourceAlpha" type="matrix" values="0 0 0 0 0 0 0 0 0 0 0 0 0 0 0 0 0 0 127 0" result="hardAlpha"/>
<feOffset dy="2"/>
<feGaussianBlur stdDeviation="2"/>
<feColorMatrix type="matrix" values="0 0 0 0 0 0 0 0 0 0 0 0 0 0 0 0 0 0 0.01 0"/>
<feBlend mode="normal" in2="BackgroundImageFix" result="effect1_dropShadow_877_3270"/>
<feBlend mode="normal" in="SourceGraphic" in2="effect1_dropShadow_877_3270" result="shape"/>
</filter>
</defs>
</svg>
