<svg width="12" height="14" viewBox="0 0 12 14" fill="none" xmlns="http://www.w3.org/2000/svg">
<g filter="url(#filter0_d_877_3521)">
<path fill-rule="evenodd" clip-rule="evenodd" d="M4.65461 5.14453C4.81339 5.50465 4.97479 6.33214 5.16149 7.26601C5.56542 7.00617 5.8952 6.80736 6.03479 6.75068C6.55738 6.54228 7.70637 4.34931 7.70637 4.34931L7.18378 4.03627C7.18378 4.03627 7.23962 3.57762 7.1009 2.96289C6.63328 3.0187 6.13861 2.99167 6.13861 2.99167C6.13861 2.99167 6.2433 3.82526 5.09344 3.61686C4.91023 3.5846 4.67554 3.56454 4.41992 3.55408C4.49582 3.58634 4.5534 3.59593 4.5534 3.59593L4.65461 5.14453Z" fill="white"/>
<path fill-rule="evenodd" clip-rule="evenodd" d="M4.65461 5.14453C4.81339 5.50465 4.97479 6.33214 5.16149 7.26601C5.56542 7.00617 5.8952 6.80736 6.03479 6.75068C6.55738 6.54228 7.70637 4.34931 7.70637 4.34931L7.18378 4.03627C7.18378 4.03627 7.23962 3.57762 7.1009 2.96289C6.63328 3.0187 6.13861 2.99167 6.13861 2.99167C6.13861 2.99167 6.2433 3.82526 5.09344 3.61686C4.91023 3.5846 4.67554 3.56454 4.41992 3.55408C4.49582 3.58634 4.5534 3.59593 4.5534 3.59593L4.65461 5.14453Z" stroke="#868686" stroke-width="0.25"/>
</g>
<defs>
<filter id="filter0_d_877_3521" x="0.371094" y="0.825195" width="11.5" height="12.6455" filterUnits="userSpaceOnUse" color-interpolation-filters="sRGB">
<feFlood flood-opacity="0" result="BackgroundImageFix"/>
<feColorMatrix in="SourceAlpha" type="matrix" values="0 0 0 0 0 0 0 0 0 0 0 0 0 0 0 0 0 0 127 0" result="hardAlpha"/>
<feOffset dy="2"/>
<feGaussianBlur stdDeviation="2"/>
<feColorMatrix type="matrix" values="0 0 0 0 0 0 0 0 0 0 0 0 0 0 0 0 0 0 0.01 0"/>
<feBlend mode="normal" in2="BackgroundImageFix" result="effect1_dropShadow_877_3521"/>
<feBlend mode="normal" in="SourceGraphic" in2="effect1_dropShadow_877_3521" result="shape"/>
</filter>
</defs>
</svg>
