<svg width="16" height="15" viewBox="0 0 16 15" fill="none" xmlns="http://www.w3.org/2000/svg">
<g filter="url(#filter0_d_877_3529)">
<path fill-rule="evenodd" clip-rule="evenodd" d="M11.363 7.52078C11.363 7.04033 10.0953 6.61568 10.0953 6.01316C10.0953 5.40889 9.24996 4.86566 9.37036 4.38347C9.45411 4.05038 9.02749 3.57865 8.80938 3.19935C8.2519 3.06855 7.54262 2.94909 6.99735 3.01275C6.24095 3.10256 5.67474 3.3188 4.92969 3.43129C5.32926 4.03556 5.04747 4.20297 5.3851 5.0479C5.74628 5.95212 6.65274 5.46993 6.9546 5.71059C7.0715 5.80476 7.20499 6.11692 7.328 6.46047C7.38471 6.45611 7.43967 6.44827 7.51993 6.46309C7.85407 6.52326 7.98145 6.69939 8.05735 6.91476C8.48048 7.01242 8.85911 7.29668 9.05628 7.38475C9.31801 7.49985 9.49162 7.15107 10.0142 7.73266C10.4714 8.2384 10.5054 8.36832 10.4513 8.82C10.918 8.82348 11.3586 8.71623 11.7678 8.54184C11.561 8.17387 11.363 7.75621 11.363 7.52078Z" fill="white"/>
<path fill-rule="evenodd" clip-rule="evenodd" d="M11.363 7.52078C11.363 7.04033 10.0953 6.61568 10.0953 6.01316C10.0953 5.40889 9.24996 4.86566 9.37036 4.38347C9.45411 4.05038 9.02749 3.57865 8.80938 3.19935C8.2519 3.06855 7.54262 2.94909 6.99735 3.01275C6.24095 3.10256 5.67474 3.3188 4.92969 3.43129C5.32926 4.03556 5.04747 4.20297 5.3851 5.0479C5.74628 5.95212 6.65274 5.46993 6.9546 5.71059C7.0715 5.80476 7.20499 6.11692 7.328 6.46047C7.38471 6.45611 7.43967 6.44827 7.51993 6.46309C7.85407 6.52326 7.98145 6.69939 8.05735 6.91476C8.48048 7.01242 8.85911 7.29668 9.05628 7.38475C9.31801 7.49985 9.49162 7.15107 10.0142 7.73266C10.4714 8.2384 10.5054 8.36832 10.4513 8.82C10.918 8.82348 11.3586 8.71623 11.7678 8.54184C11.561 8.17387 11.363 7.75621 11.363 7.52078Z" stroke="#868686" stroke-width="0.25"/>
</g>
<defs>
<filter id="filter0_d_877_3529" x="0.716797" y="0.870117" width="15.2285" height="14.0752" filterUnits="userSpaceOnUse" color-interpolation-filters="sRGB">
<feFlood flood-opacity="0" result="BackgroundImageFix"/>
<feColorMatrix in="SourceAlpha" type="matrix" values="0 0 0 0 0 0 0 0 0 0 0 0 0 0 0 0 0 0 127 0" result="hardAlpha"/>
<feOffset dy="2"/>
<feGaussianBlur stdDeviation="2"/>
<feColorMatrix type="matrix" values="0 0 0 0 0 0 0 0 0 0 0 0 0 0 0 0 0 0 0.01 0"/>
<feBlend mode="normal" in2="BackgroundImageFix" result="effect1_dropShadow_877_3529"/>
<feBlend mode="normal" in="SourceGraphic" in2="effect1_dropShadow_877_3529" result="shape"/>
</filter>
</defs>
</svg>
