<svg width="21" height="16" viewBox="0 0 21 16" fill="none" xmlns="http://www.w3.org/2000/svg">
<g filter="url(#filter0_d_877_3295)">
<path fill-rule="evenodd" clip-rule="evenodd" d="M5.92615 5.92206C6.15211 6.23945 6.8771 6.5115 7.14929 6.37635C7.42062 6.24032 8.28084 6.692 8.28084 7.05386C8.28084 7.41659 8.05488 8.50393 8.28084 8.50393C8.48498 8.50393 9.79014 8.90852 9.88 9.45349C10.4645 9.46831 11.1284 9.49709 11.3762 9.55987C11.8613 9.67933 12.1605 9.37937 12.4022 9.07593C12.6439 8.77423 13.4892 8.65478 13.73 8.65478C13.9726 8.65478 13.9726 7.98947 14.0328 7.6869C14.093 7.38782 14.6976 6.84372 15.0605 6.72339C15.4225 6.60393 15.3615 6.18103 15.7244 6.18103C16.0865 6.18103 16.0263 5.69622 15.9661 5.39539C15.9303 5.21141 15.9722 4.98208 16.1126 4.75189C15.7244 4.52605 15.3728 4.32986 15.0788 4.08397C14.5239 3.62183 13.6 2.97571 13.1403 3.06639C12.6779 3.16143 12.6779 2.32958 11.9407 2.60774C11.2017 2.88328 9.90792 2.60774 9.35392 2.60774C8.80168 2.60774 7.04635 2.1456 6.40075 2.60774C6.03084 2.8702 5.38698 2.98181 4.78326 3.02889C5.19505 3.87208 5.04412 4.72398 4.58086 5.24542C4.25283 5.616 4.44476 5.66483 4.68468 5.81132C5.18284 5.76336 5.74381 5.66832 5.92615 5.92206Z" fill="white"/>
<path fill-rule="evenodd" clip-rule="evenodd" d="M5.92615 5.92206C6.15211 6.23945 6.8771 6.5115 7.14929 6.37635C7.42062 6.24032 8.28084 6.692 8.28084 7.05386C8.28084 7.41659 8.05488 8.50393 8.28084 8.50393C8.48498 8.50393 9.79014 8.90852 9.88 9.45349C10.4645 9.46831 11.1284 9.49709 11.3762 9.55987C11.8613 9.67933 12.1605 9.37937 12.4022 9.07593C12.6439 8.77423 13.4892 8.65478 13.73 8.65478C13.9726 8.65478 13.9726 7.98947 14.0328 7.6869C14.093 7.38782 14.6976 6.84372 15.0605 6.72339C15.4225 6.60393 15.3615 6.18103 15.7244 6.18103C16.0865 6.18103 16.0263 5.69622 15.9661 5.39539C15.9303 5.21141 15.9722 4.98208 16.1126 4.75189C15.7244 4.52605 15.3728 4.32986 15.0788 4.08397C14.5239 3.62183 13.6 2.97571 13.1403 3.06639C12.6779 3.16143 12.6779 2.32958 11.9407 2.60774C11.2017 2.88328 9.90792 2.60774 9.35392 2.60774C8.80168 2.60774 7.04635 2.1456 6.40075 2.60774C6.03084 2.8702 5.38698 2.98181 4.78326 3.02889C5.19505 3.87208 5.04412 4.72398 4.58086 5.24542C4.25283 5.616 4.44476 5.66483 4.68468 5.81132C5.18284 5.76336 5.74381 5.66832 5.92615 5.92206Z" stroke="#868686" stroke-width="0.25"/>
</g>
<defs>
<filter id="filter0_d_877_3295" x="0.28125" y="0.277344" width="20.0039" height="15.4346" filterUnits="userSpaceOnUse" color-interpolation-filters="sRGB">
<feFlood flood-opacity="0" result="BackgroundImageFix"/>
<feColorMatrix in="SourceAlpha" type="matrix" values="0 0 0 0 0 0 0 0 0 0 0 0 0 0 0 0 0 0 127 0" result="hardAlpha"/>
<feOffset dy="2"/>
<feGaussianBlur stdDeviation="2"/>
<feColorMatrix type="matrix" values="0 0 0 0 0 0 0 0 0 0 0 0 0 0 0 0 0 0 0.01 0"/>
<feBlend mode="normal" in2="BackgroundImageFix" result="effect1_dropShadow_877_3295"/>
<feBlend mode="normal" in="SourceGraphic" in2="effect1_dropShadow_877_3295" result="shape"/>
</filter>
</defs>
</svg>
