<svg width="19" height="18" viewBox="0 0 19 18" fill="none" xmlns="http://www.w3.org/2000/svg">
<g filter="url(#filter0_d_877_3416)">
<path fill-rule="evenodd" clip-rule="evenodd" d="M9.78038 6.07468C9.47677 5.92558 9.35637 4.9577 9.71843 4.65775C10.0805 4.35605 10.2332 3.20681 9.93043 2.90598C9.63032 2.60341 8.54065 2.90598 8.44992 3.72039C8.36006 4.53567 7.48501 4.17294 7.24335 4.35431C7.00169 4.53567 7.7258 4.89754 7.33321 5.26027C6.94061 5.62301 6.78968 4.71704 6.1563 4.65862C5.52117 4.59671 5.46097 5.62213 5.13032 6.13659C4.79705 6.6493 5.00818 7.73576 5.13032 8.46036C5.25072 9.18322 6.12664 9.63663 5.91376 10.24C5.81692 10.5208 6.01409 10.8365 6.22435 11.1443C7.02786 11.1608 7.76506 11.2192 8.08873 11.3256C8.21873 11.3692 8.49005 11.3579 8.84513 11.3082C8.57904 10.8766 7.98317 10.5252 8.02854 10.2095C8.08873 9.7901 8.66192 10.0569 9.08592 10.4197C9.50643 10.7815 10.4443 10.8426 10.5333 10.39C10.5891 10.1119 10.3841 8.82048 9.80917 9.12305C9.23511 9.42562 9.08505 9.30442 8.87305 9.00185C8.66105 8.69928 9.2953 8.21796 9.44711 7.73489C9.59629 7.25095 10.5935 7.43058 10.7453 7.03994C10.8988 6.64843 10.0805 6.2264 9.78038 6.07468ZM14.3406 7.91539C14.098 7.76367 13.9174 8.33742 13.6452 8.39845C13.373 8.45949 13.0721 7.25183 12.9499 7.91539C12.8286 8.58069 12.2258 7.64421 11.6221 8.48739C11.0175 9.33494 11.9841 10.0874 12.4064 10.3604C12.8286 10.6315 12.3767 11.0231 11.8332 10.9027C11.2897 10.7824 11.6221 11.6849 12.3767 11.8078C13.1305 11.9281 13.9462 10.4807 13.8564 10.118C13.7648 9.75697 14.6259 8.09327 14.3406 7.91539Z" fill="white"/>
<path d="M9.78038 6.07468L9.83677 5.96312L9.83548 5.96248L9.78038 6.07468ZM9.71843 4.65775L9.79818 4.75401L9.79845 4.75378L9.71843 4.65775ZM9.93043 2.90598L9.84168 2.99401L9.84232 2.99465L9.93043 2.90598ZM8.44992 3.72039L8.32569 3.70655L8.32567 3.7067L8.44992 3.72039ZM6.1563 4.65862L6.14417 4.78303L6.14482 4.78309L6.1563 4.65862ZM5.13032 6.13659L5.23513 6.20472L5.23548 6.20417L5.13032 6.13659ZM5.13032 8.46036L5.25362 8.43983L5.25358 8.43958L5.13032 8.46036ZM5.91376 10.24L5.79588 10.1984L5.7956 10.1993L5.91376 10.24ZM6.22435 11.1443L6.12113 11.2148L6.15743 11.2679L6.22177 11.2692L6.22435 11.1443ZM8.08873 11.3256L8.12848 11.2071L8.12776 11.2069L8.08873 11.3256ZM8.84513 11.3082L8.86246 11.432L9.05194 11.4055L8.95153 11.2426L8.84513 11.3082ZM8.02854 10.2095L8.15226 10.2273L8.15227 10.2273L8.02854 10.2095ZM9.08592 10.4197L9.16746 10.3249L9.16718 10.3247L9.08592 10.4197ZM10.5333 10.39L10.4107 10.3654L10.4106 10.3659L10.5333 10.39ZM9.80917 9.12305L9.75095 9.01243L9.75088 9.01247L9.80917 9.12305ZM9.44711 7.73489L9.56636 7.77237L9.56656 7.77172L9.44711 7.73489ZM10.7453 7.03994L10.6289 6.9943L10.6288 6.99466L10.7453 7.03994ZM14.3406 7.91539L14.2743 8.02136L14.2744 8.02146L14.3406 7.91539ZM12.9499 7.91539L12.827 7.89276L12.8269 7.89297L12.9499 7.91539ZM11.6221 8.48739L11.5204 8.41462L11.5203 8.4148L11.6221 8.48739ZM12.4064 10.3604L12.3385 10.4653L12.3388 10.4655L12.4064 10.3604ZM12.3767 11.8078L12.3566 11.9312L12.357 11.9313L12.3767 11.8078ZM13.8564 10.118L13.9777 10.0879L13.9775 10.0872L13.8564 10.118ZM9.83548 5.96248C9.80072 5.94541 9.75159 5.89167 9.70714 5.78463C9.6648 5.68264 9.635 5.55166 9.62442 5.41325C9.61384 5.27494 9.62293 5.1353 9.65371 5.01594C9.68485 4.89521 9.73519 4.80619 9.79818 4.754L9.63869 4.56149C9.52065 4.65928 9.45026 4.80373 9.41163 4.9535C9.37265 5.10464 9.36293 5.27253 9.37514 5.43231C9.38735 5.59201 9.42195 5.7497 9.47625 5.88049C9.52846 6.00624 9.60823 6.1294 9.72527 6.18688L9.83548 5.96248ZM9.79845 4.75378C9.91253 4.65872 9.9996 4.50763 10.0633 4.34454C10.1281 4.17863 10.1739 3.98703 10.1978 3.79713C10.2216 3.60747 10.2242 3.41454 10.1996 3.24612C10.1757 3.08223 10.1231 2.92117 10.0185 2.81731L9.84232 2.99465C9.88917 3.0412 9.93098 3.13661 9.95225 3.28224C9.97286 3.42334 9.97145 3.59298 9.94971 3.76595C9.92799 3.93867 9.88662 4.10976 9.83044 4.25358C9.77315 4.40022 9.70536 4.50593 9.63841 4.56172L9.79845 4.75378ZM10.0192 2.81795C9.9113 2.7092 9.74824 2.66768 9.5865 2.66607C9.42111 2.66441 9.23659 2.70373 9.06184 2.77968C8.71411 2.93079 8.37756 3.24099 8.32569 3.70655L8.57415 3.73423C8.61302 3.38538 8.86666 3.13709 9.16148 3.00896C9.308 2.94528 9.45783 2.91479 9.584 2.91605C9.71382 2.91735 9.7995 2.95148 9.84169 2.99401L10.0192 2.81795ZM8.32567 3.7067C8.30589 3.88614 8.24557 3.98409 8.17663 4.04254C8.10453 4.10367 8.00676 4.13557 7.88741 4.15111C7.76497 4.16706 7.64402 4.16388 7.51668 4.16847C7.45635 4.17065 7.39428 4.17478 7.33741 4.18566C7.2813 4.19639 7.22011 4.21546 7.16832 4.25433L7.31838 4.45428C7.327 4.44781 7.34602 4.43854 7.38437 4.43121C7.42196 4.42402 7.4686 4.42037 7.5257 4.41831C7.6332 4.41443 7.78194 4.41697 7.91971 4.39902C8.06056 4.38067 8.21351 4.33904 8.33831 4.23322C8.46626 4.12473 8.54902 3.96228 8.57417 3.73409L8.32567 3.7067ZM7.16832 4.25433C7.11615 4.29348 7.07987 4.34662 7.07025 4.41232C7.06141 4.47268 7.07756 4.52796 7.09567 4.57041C7.11404 4.61349 7.13991 4.6557 7.16435 4.69323C7.19377 4.73841 7.21176 4.7633 7.23969 4.80681C7.2896 4.88455 7.32077 4.94785 7.32645 5.0038C7.33095 5.04822 7.32097 5.10139 7.24838 5.16846L7.41804 5.35208C7.54174 5.23778 7.58847 5.10969 7.57517 4.97858C7.56304 4.859 7.5019 4.75248 7.45006 4.67174C7.42713 4.63601 7.39188 4.58449 7.37384 4.5568C7.35083 4.52146 7.33502 4.49434 7.32562 4.47232C7.31596 4.44968 7.31826 4.44409 7.31761 4.44854C7.31618 4.45832 7.31013 4.46048 7.31838 4.45428L7.16832 4.25433ZM7.24838 5.16846C7.2097 5.2042 7.18326 5.21562 7.16801 5.21911C7.15503 5.22208 7.1419 5.22136 7.12306 5.21307C7.07389 5.19146 7.0166 5.13438 6.92886 5.03476C6.77205 4.85673 6.54315 4.56877 6.16778 4.53415L6.14482 4.78309C6.40284 4.80689 6.56609 5.00113 6.74125 5.2C6.81948 5.28883 6.91312 5.39388 7.02246 5.44194C7.08287 5.4685 7.15089 5.4795 7.22379 5.46281C7.29441 5.44664 7.35857 5.40702 7.41804 5.35208L7.24838 5.16846ZM6.16843 4.53421C5.97006 4.51487 5.81212 4.58254 5.68829 4.70062C5.56967 4.81372 5.48423 4.97091 5.41446 5.13171C5.34478 5.29231 5.28367 5.47435 5.2236 5.63649C5.16173 5.80346 5.09987 5.95278 5.02517 6.06901L5.23548 6.20417C5.3261 6.06317 5.39576 5.8914 5.45802 5.72334C5.52208 5.55046 5.57771 5.38355 5.6438 5.23122C5.7098 5.0791 5.77917 4.95939 5.8608 4.88156C5.93721 4.8087 6.02497 4.77141 6.14417 4.78303L6.16843 4.53421ZM5.02552 6.06847C4.83476 6.36193 4.8083 6.79902 4.83478 7.22674C4.86168 7.66126 4.94653 8.12205 5.00706 8.48114L5.25358 8.43958C5.19197 8.07408 5.11019 7.62934 5.08431 7.21129C5.058 6.78646 5.09262 6.42396 5.23513 6.20471L5.02552 6.06847ZM5.00702 8.4809C5.07343 8.87963 5.34834 9.20262 5.54669 9.46955C5.75926 9.75562 5.87756 9.96694 5.79589 10.1984L6.03164 10.2816C6.16285 9.90972 5.94962 9.59264 5.74735 9.32044C5.53086 9.02909 5.30761 8.76395 5.25362 8.43983L5.00702 8.4809ZM5.7956 10.1993C5.7331 10.3805 5.76921 10.5636 5.83849 10.73C5.90752 10.8959 6.01641 11.0614 6.12113 11.2148L6.32757 11.0737C6.22204 10.9193 6.12721 10.7731 6.0693 10.634C6.01164 10.4955 5.99759 10.3804 6.03193 10.2808L5.7956 10.1993ZM6.22177 11.2692C6.62159 11.2775 7.00364 11.2961 7.32501 11.3257C7.64947 11.3556 7.9024 11.396 8.0497 11.4444L8.12776 11.2069C7.95139 11.1489 7.67388 11.1068 7.34795 11.0768C7.01892 11.0465 6.63062 11.0276 6.22693 11.0193L6.22177 11.2692ZM8.04899 11.4441C8.136 11.4733 8.25494 11.4805 8.38602 11.4768C8.52082 11.4731 8.68241 11.4572 8.86246 11.432L8.8278 11.1844C8.65277 11.2089 8.50115 11.2235 8.37903 11.2269C8.25318 11.2305 8.17146 11.2215 8.12848 11.2071L8.04899 11.4441ZM8.95153 11.2426C8.80897 11.0113 8.57737 10.8004 8.40958 10.6281C8.32186 10.5381 8.25118 10.4589 8.20495 10.3864C8.15835 10.3134 8.14708 10.2634 8.15226 10.2273L7.90481 10.1917C7.88731 10.3135 7.93351 10.4258 7.99419 10.5209C8.05525 10.6166 8.14165 10.7114 8.23049 10.8026C8.41582 10.9928 8.6152 11.1734 8.73873 11.3738L8.95153 11.2426ZM8.15227 10.2273C8.16262 10.1551 8.18857 10.1376 8.20706 10.13C8.23713 10.1176 8.29436 10.1145 8.38571 10.1413C8.56532 10.1938 8.79888 10.3386 9.00466 10.5146L9.16718 10.3247C8.94896 10.138 8.68393 9.96801 8.4559 9.90131C8.34342 9.8684 8.21956 9.85456 8.11199 9.89879C7.99282 9.94778 7.92455 10.0542 7.9048 10.1918L8.15227 10.2273ZM9.00439 10.5144C9.24195 10.7188 9.61221 10.831 9.93228 10.8352C10.0934 10.8373 10.2533 10.8124 10.3836 10.7488C10.5166 10.6838 10.6244 10.5746 10.6559 10.4141L10.4106 10.3659C10.3977 10.4317 10.3548 10.4846 10.2739 10.5241C10.1901 10.565 10.0726 10.587 9.93557 10.5852C9.65933 10.5816 9.3504 10.4823 9.16745 10.3249L9.00439 10.5144ZM10.6558 10.4146C10.6741 10.3239 10.6692 10.1739 10.6485 10.0159C10.6272 9.85359 10.5871 9.66635 10.5253 9.49609C10.4647 9.32936 10.3776 9.16249 10.2528 9.05832C10.1885 9.00454 10.1113 8.96521 10.0218 8.95501C9.93204 8.94479 9.84087 8.96511 9.75095 9.01243L9.86738 9.23367C9.92119 9.20535 9.96219 9.19984 9.99348 9.20341C10.025 9.207 10.0578 9.2211 10.0926 9.25018C10.1663 9.31174 10.2347 9.42836 10.2903 9.58143C10.3446 9.73095 10.3812 9.89981 10.4006 10.0484C10.4206 10.2013 10.4204 10.3171 10.4107 10.3654L10.6558 10.4146ZM9.75088 9.01247C9.46599 9.16263 9.32081 9.18707 9.23256 9.16738C9.14927 9.14879 9.08323 9.08398 8.97542 8.93012L8.77068 9.07358C8.87487 9.22229 8.98985 9.36936 9.17811 9.41138C9.3614 9.45228 9.57829 9.38604 9.86745 9.23363L9.75088 9.01247ZM8.97542 8.93012C8.95326 8.8985 8.94581 8.85726 8.97044 8.78401C8.99634 8.707 9.05125 8.61598 9.12648 8.50713C9.19677 8.40542 9.29049 8.28058 9.36798 8.1628C9.44764 8.04174 9.52321 7.90966 9.56636 7.77237L9.32786 7.69742C9.2951 7.80166 9.23447 7.91089 9.15913 8.02539C9.08163 8.14318 9.00157 8.24815 8.92082 8.36498C8.84501 8.47467 8.77162 8.5909 8.73348 8.70433C8.69407 8.82153 8.68683 8.95391 8.77068 9.07358L8.97542 8.93012ZM9.56656 7.77172C9.59006 7.69549 9.64749 7.63792 9.74659 7.5893C9.84832 7.53939 9.97778 7.50691 10.1226 7.47439C10.2608 7.44337 10.4164 7.41175 10.5448 7.36174C10.6726 7.31193 10.8046 7.23242 10.8618 7.08522L10.6288 6.99466C10.6101 7.04278 10.5605 7.08731 10.454 7.1288C10.348 7.17011 10.2166 7.19707 10.0678 7.23046C9.92573 7.26237 9.76843 7.30012 9.63648 7.36485C9.50191 7.43087 9.37875 7.53232 9.32765 7.69807L9.56656 7.77172ZM10.8617 7.08558C10.9192 6.93884 10.8803 6.79703 10.8079 6.67967C10.7367 6.56423 10.626 6.45923 10.5097 6.36873C10.2761 6.18695 9.98624 6.03869 9.83677 5.96313L9.72398 6.18624C9.87463 6.2624 10.144 6.401 10.3562 6.56605C10.4628 6.64896 10.5467 6.73236 10.5951 6.8109C10.6424 6.88752 10.6481 6.94528 10.6289 6.9943L10.8617 7.08558ZM14.4069 7.80941C14.3574 7.7785 14.3033 7.76266 14.2466 7.76521C14.1914 7.76768 14.1432 7.78713 14.1032 7.81129C14.0275 7.85706 13.9615 7.93257 13.9078 7.99737C13.8486 8.06881 13.7995 8.13329 13.7455 8.18825C13.6913 8.24337 13.65 8.26929 13.6179 8.27648L13.6726 8.52042C13.7766 8.4971 13.8599 8.42841 13.9237 8.36353C13.9877 8.29848 14.05 8.21756 14.1003 8.1569C14.1561 8.0896 14.1977 8.0463 14.2325 8.02526C14.2478 8.01602 14.2556 8.01505 14.2578 8.01495C14.2585 8.01492 14.2631 8.01434 14.2743 8.02136L14.4069 7.80941ZM13.6179 8.27648C13.634 8.27287 13.6368 8.28272 13.6172 8.268C13.5975 8.25324 13.5716 8.22544 13.5401 8.182C13.4764 8.09416 13.4153 7.98001 13.349 7.86751C13.3175 7.81412 13.2844 7.76056 13.2513 7.71701C13.2223 7.67893 13.1772 7.62592 13.1164 7.60273C13.0803 7.58896 13.0356 7.58451 12.99 7.60262C12.9473 7.61957 12.9186 7.65053 12.8998 7.67868C12.8643 7.73176 12.8428 7.80704 12.827 7.89276L13.0728 7.93802C13.0876 7.85784 13.1022 7.82571 13.1076 7.81759C13.1093 7.81513 13.1022 7.82704 13.0822 7.83497C13.0594 7.84404 13.0385 7.84058 13.0272 7.83629C13.0161 7.83205 13.0246 7.83194 13.0524 7.86843C13.076 7.89946 13.1028 7.94216 13.1336 7.99443C13.1919 8.09328 13.2647 8.22813 13.3378 8.32882C13.3746 8.37964 13.4179 8.431 13.4672 8.46801C13.5166 8.50506 13.5885 8.53929 13.6726 8.52042L13.6179 8.27648ZM12.8269 7.89297C12.8136 7.96643 12.7957 8.00383 12.7822 8.02223C12.7715 8.03672 12.762 8.04188 12.7484 8.045C12.7296 8.04928 12.7008 8.0496 12.6537 8.04273C12.605 8.03562 12.5569 8.02447 12.4901 8.01185C12.3652 7.98828 12.2053 7.96612 12.0327 8.01572C11.8569 8.06621 11.6842 8.18593 11.5204 8.41462L11.7237 8.56016C11.8618 8.36726 11.9908 8.28785 12.1017 8.256C12.2157 8.22325 12.3273 8.23553 12.4437 8.25752C12.4976 8.26768 12.5626 8.28208 12.6176 8.29011C12.6742 8.29837 12.7397 8.30339 12.804 8.28873C12.8733 8.27292 12.9356 8.23549 12.9834 8.17056C13.0284 8.10955 13.056 8.03067 13.0729 7.9378L12.8269 7.89297ZM11.5203 8.4148C11.3538 8.64823 11.2913 8.88225 11.3054 9.10707C11.3194 9.32941 11.4076 9.53247 11.5252 9.70872C11.7585 10.0586 12.1234 10.3263 12.3385 10.4653L12.4742 10.2554C12.2672 10.1215 11.9375 9.87644 11.7332 9.57C11.6318 9.41807 11.5654 9.25703 11.5549 9.09138C11.5447 8.9282 11.5881 8.75032 11.7238 8.55998L11.5203 8.4148ZM12.3388 10.4655C12.4263 10.5217 12.4446 10.5685 12.4472 10.5909C12.4497 10.6122 12.442 10.6457 12.3978 10.686C12.3062 10.7693 12.1018 10.8342 11.8602 10.7807L11.8062 11.0248C12.1081 11.0916 12.4014 11.0208 12.5661 10.8708C12.6501 10.7943 12.7101 10.6865 12.6956 10.5619C12.6811 10.4384 12.5976 10.3346 12.4739 10.2552L12.3388 10.4655ZM11.8602 10.7807C11.779 10.7627 11.7007 10.7606 11.6311 10.7831C11.5579 10.8068 11.502 10.8556 11.4701 10.9219C11.4114 11.0439 11.4456 11.1945 11.5057 11.3185C11.6313 11.5777 11.9355 11.8626 12.3566 11.9312L12.3968 11.6844C12.0633 11.6301 11.824 11.4023 11.7306 11.2095C11.6813 11.1076 11.687 11.0475 11.6954 11.0303C11.6969 11.027 11.6984 11.0241 11.708 11.021C11.7213 11.0166 11.7515 11.0127 11.8062 11.0248L11.8602 10.7807ZM12.357 11.9313C12.5891 11.9683 12.8139 11.8829 13.0094 11.7486C13.2057 11.6137 13.3851 11.4211 13.5338 11.2178C13.6829 11.0141 13.8051 10.7941 13.8848 10.5993C13.9246 10.5019 13.9548 10.4085 13.972 10.3247C13.9885 10.2439 13.9956 10.16 13.9777 10.0879L13.735 10.148C13.7396 10.1666 13.7408 10.2073 13.7271 10.2746C13.7139 10.3389 13.6892 10.4171 13.6534 10.5046C13.5819 10.6795 13.4699 10.8818 13.332 11.0702C13.1938 11.2591 13.0336 11.4285 12.8678 11.5425C12.7011 11.6571 12.5413 11.7075 12.3964 11.6844L12.357 11.9313ZM13.9775 10.0872C13.973 10.0694 13.9719 10.0263 13.9857 9.94874C13.9986 9.87545 14.022 9.78555 14.0531 9.68272C14.1155 9.47648 14.2041 9.23355 14.2892 8.98908C14.373 8.74825 14.4537 8.5051 14.4947 8.3095C14.5151 8.2124 14.5276 8.11848 14.5227 8.03853C14.518 7.96352 14.4953 7.86453 14.4067 7.80932L14.2744 8.02146C14.2572 8.01071 14.27 8.00263 14.2732 8.05406C14.276 8.10055 14.2688 8.16861 14.2501 8.25814C14.2128 8.43579 14.1374 8.66448 14.053 8.90693C13.9699 9.14574 13.8782 9.39754 13.8139 9.61033C13.7816 9.71702 13.755 9.81771 13.7395 9.90519C13.7248 9.98841 13.7168 10.0763 13.7352 10.1487L13.9775 10.0872Z" fill="#868686"/>
</g>
<defs>
<filter id="filter0_d_877_3416" x="0.826172" y="0.666016" width="17.6973" height="17.2734" filterUnits="userSpaceOnUse" color-interpolation-filters="sRGB">
<feFlood flood-opacity="0" result="BackgroundImageFix"/>
<feColorMatrix in="SourceAlpha" type="matrix" values="0 0 0 0 0 0 0 0 0 0 0 0 0 0 0 0 0 0 127 0" result="hardAlpha"/>
<feOffset dy="2"/>
<feGaussianBlur stdDeviation="2"/>
<feColorMatrix type="matrix" values="0 0 0 0 0 0 0 0 0 0 0 0 0 0 0 0 0 0 0.01 0"/>
<feBlend mode="normal" in2="BackgroundImageFix" result="effect1_dropShadow_877_3416"/>
<feBlend mode="normal" in="SourceGraphic" in2="effect1_dropShadow_877_3416" result="shape"/>
</filter>
</defs>
</svg>
