<svg width="34" height="39" viewBox="0 0 34 39" fill="none" xmlns="http://www.w3.org/2000/svg">
<g filter="url(#filter0_d_877_3480)">
<path fill-rule="evenodd" clip-rule="evenodd" d="M19.9794 17.2403C19.3452 16.7878 19.0285 17.4226 18.3497 17.7382C17.6701 18.0547 17.2173 16.2454 16.3571 16.9247C15.4969 17.6031 16.2664 17.8742 15.3154 18.6895C14.3636 19.5048 14.7728 19.7734 13.6395 21.5408C12.5071 23.3048 8.61168 24.3015 8.02453 25.2536C7.43564 26.2041 5.48838 26.9723 5.44127 27.696C5.39677 28.4223 4.20939 28.9394 4.89774 29.9151C5.44127 30.6851 6.16538 30.1418 6.75602 30.7304C7.34404 31.3199 7.93293 30.8211 8.20512 31.3199C8.47732 31.8169 10.4682 31.8169 11.9644 30.4592C13.4589 29.1007 12.7348 28.4686 13.3228 28.1058C13.9117 27.7431 14.0016 26.6584 14.3636 25.9791C14.7257 25.3007 14.9987 24.5744 16.6293 24.5744C18.2608 24.5744 17.3997 24.2605 17.3089 23.4914C17.2182 22.7215 18.6673 22.5837 18.6673 21.5888C18.6673 20.593 20.6608 19.687 20.2516 18.918C19.8442 18.1472 20.6128 17.6955 19.9794 17.2403ZM6.89124 32.8589C7.20794 32.9478 8.24962 32.6766 7.6616 31.9546C7.07184 31.2283 6.1427 32.6435 6.89124 32.8589ZM27.3637 9.95424C26.9545 10.6318 26.1397 9.77287 25.3702 9.77287C24.5998 9.77287 24.1462 9.23051 24.1462 8.55038C24.1462 7.87374 23.9656 6.87448 23.2423 6.92157C22.5165 6.96691 23.4683 7.68976 23.1961 8.05337C22.923 8.4161 22.7424 7.64442 22.3804 7.64442C22.0192 7.64442 21.61 7.1474 21.61 6.24231C21.61 5.33721 20.8405 5.4279 20.8405 4.38765C20.8405 3.34566 19.21 2.53125 18.3035 2.53125C17.3988 2.53125 18.485 4.16094 18.9378 4.70417C19.3914 5.2474 20.3877 5.74442 20.3424 6.15075C20.2961 6.56057 21.022 7.60082 21.5646 7.78132C22.1082 7.96356 21.2471 9.54616 21.2471 10.814C21.2471 12.0818 20.2508 11.856 19.5729 12.6713C18.8941 13.4839 21.2942 14.2992 22.2896 15.1136C23.2868 15.9298 21.4355 17.9318 21.7016 18.3739C21.836 18.6006 22.5156 18.918 23.5573 18.6468C24.599 18.3739 25.0971 16.1103 25.8239 15.4772C26.5462 14.8424 26.0934 13.8475 26.4572 13.3496C26.8193 12.8526 27.3157 12.898 27.8147 12.898C28.3138 12.898 28.0416 11.6746 28.6758 11.6746C29.3101 11.6746 28.9925 10.8149 29.3555 9.86443C29.7166 8.91399 27.7702 9.27411 27.3637 9.95424Z" fill="white"/>
<path d="M19.9794 17.2403L20.0524 17.1388L20.052 17.1386L19.9794 17.2403ZM18.3497 17.7382L18.297 17.6249L18.297 17.6249L18.3497 17.7382ZM16.3571 16.9247L16.4345 17.0228L16.4346 17.0228L16.3571 16.9247ZM15.3154 18.6895L15.3967 18.7845L15.3968 18.7844L15.3154 18.6895ZM13.6395 21.5408L13.7447 21.6084L13.7447 21.6083L13.6395 21.5408ZM8.02453 25.2536L8.13079 25.3195L8.13093 25.3192L8.02453 25.2536ZM5.44127 27.696L5.31653 27.6879L5.3165 27.6884L5.44127 27.696ZM4.89774 29.9151L4.7956 29.9872L4.79562 29.9872L4.89774 29.9151ZM6.75602 30.7304L6.84451 30.6421L6.84425 30.6419L6.75602 30.7304ZM8.20512 31.3199L8.0954 31.3797L8.09549 31.3799L8.20512 31.3199ZM11.9644 30.4592L12.0484 30.5518L12.0485 30.5517L11.9644 30.4592ZM13.3228 28.1058L13.2572 27.9994L13.2572 27.9994L13.3228 28.1058ZM14.3636 25.9791L14.2533 25.9203L14.2533 25.9203L14.3636 25.9791ZM17.3089 23.4914L17.1848 23.506L17.1848 23.5061L17.3089 23.4914ZM20.2516 18.918L20.1411 18.9764L20.1413 18.9767L20.2516 18.918ZM6.89124 32.8589L6.85668 32.979L6.85745 32.9792L6.89124 32.8589ZM7.6616 31.9546L7.56456 32.0334L7.56468 32.0336L7.6616 31.9546ZM27.3637 9.95424L27.4707 10.0189L27.471 10.0184L27.3637 9.95424ZM23.2423 6.92157L23.2501 7.04632L23.2505 7.0463L23.2423 6.92157ZM23.1961 8.05337L23.296 8.12855L23.2962 8.12828L23.1961 8.05337ZM18.9378 4.70417L18.8417 4.78421L18.8418 4.7843L18.9378 4.70417ZM20.3424 6.15075L20.4666 6.16477L20.4666 6.16462L20.3424 6.15075ZM21.5646 7.78132L21.6044 7.6628L21.6041 7.66271L21.5646 7.78132ZM19.5729 12.6713L19.6688 12.7514L19.669 12.7512L19.5729 12.6713ZM22.2896 15.1136L22.3688 15.0169L22.3688 15.0169L22.2896 15.1136ZM21.7016 18.3739L21.8092 18.3101L21.8087 18.3094L21.7016 18.3739ZM23.5573 18.6468L23.5888 18.7678L23.589 18.7677L23.5573 18.6468ZM25.8239 15.4772L25.906 15.5715L25.9064 15.5711L25.8239 15.4772ZM26.4572 13.3496L26.5582 13.4234L26.5583 13.4232L26.4572 13.3496ZM29.3555 9.86443L29.4722 9.90902L29.4723 9.90883L29.3555 9.86443ZM20.052 17.1386C19.8777 17.0142 19.7139 16.9568 19.5519 16.9578C19.3917 16.9588 19.2494 17.0169 19.1184 17.0932C18.9899 17.1679 18.8585 17.269 18.7287 17.362C18.5954 17.4576 18.4559 17.551 18.297 17.6249L18.4025 17.8516C18.5829 17.7676 18.7375 17.6633 18.8744 17.5652C19.0147 17.4646 19.1293 17.3761 19.2441 17.3092C19.3564 17.2439 19.4546 17.2084 19.5535 17.2078C19.6505 17.2072 19.764 17.2402 19.9068 17.3421L20.052 17.1386ZM18.297 17.6249C18.1875 17.6759 18.0823 17.6509 17.948 17.5494C17.808 17.4436 17.673 17.2822 17.5126 17.1102C17.3608 16.9474 17.1852 16.7744 16.982 16.6936C16.8769 16.6518 16.7628 16.6339 16.6411 16.6543C16.5201 16.6747 16.3999 16.7316 16.2796 16.8266L16.4346 17.0228C16.5294 16.9479 16.6115 16.9128 16.6826 16.9009C16.7529 16.889 16.8206 16.8985 16.8896 16.9259C17.0344 16.9834 17.1758 17.1156 17.3297 17.2807C17.475 17.4365 17.6344 17.6257 17.7973 17.7488C17.9659 17.8763 18.1722 17.9588 18.4025 17.8515L18.297 17.6249ZM16.2797 16.8265C16.0543 17.0043 15.9265 17.1626 15.8523 17.3182C15.7788 17.4723 15.763 17.615 15.7464 17.7392C15.7297 17.8644 15.7118 17.9784 15.6465 18.1095C15.5809 18.2412 15.463 18.3984 15.2341 18.5946L15.3968 18.7844C15.6433 18.5731 15.7858 18.3906 15.8703 18.2209C15.9551 18.0507 15.9769 17.9017 15.9942 17.7723C16.0116 17.642 16.0241 17.5387 16.078 17.4258C16.1312 17.3142 16.2298 17.1843 16.4345 17.0228L16.2797 16.8265ZM15.2341 18.5946C14.9901 18.8036 14.8288 18.9814 14.7078 19.1604C14.587 19.3391 14.5096 19.5143 14.4297 19.7111C14.2716 20.1004 14.0942 20.6001 13.5343 21.4734L13.7447 21.6083C14.3181 20.7141 14.5027 20.1958 14.6613 19.8051C14.7398 19.6119 14.8093 19.4567 14.9149 19.3004C15.0203 19.1446 15.1649 18.9831 15.3967 18.7845L15.2341 18.5946ZM13.5343 21.4733C13.2647 21.8932 12.8253 22.2748 12.2976 22.6273C11.771 22.979 11.1656 23.2957 10.5721 23.5896C9.98182 23.8819 9.39871 24.1537 8.93028 24.4102C8.69534 24.5389 8.48506 24.6659 8.31366 24.7925C8.14365 24.9181 8.0038 25.0491 7.91813 25.188L8.13093 25.3192C8.19205 25.2201 8.30236 25.1117 8.4622 24.9936C8.62063 24.8766 8.81985 24.7557 9.05037 24.6295C9.51285 24.3762 10.0845 24.1101 10.683 23.8137C11.2783 23.5189 11.8957 23.1963 12.4364 22.8352C12.9759 22.4749 13.4481 22.0704 13.7447 21.6084L13.5343 21.4733ZM7.91827 25.1878C7.78203 25.4077 7.56266 25.6235 7.30009 25.8376C7.03813 26.0512 6.74254 26.2558 6.45746 26.4578C6.17532 26.6578 5.90175 26.8563 5.69583 27.0521C5.49447 27.2436 5.33161 27.4562 5.31653 27.6879L5.566 27.7041C5.57447 27.574 5.67269 27.4191 5.8681 27.2333C6.05894 27.0518 6.31783 26.8632 6.60201 26.6618C6.88324 26.4625 7.18783 26.2517 7.45808 26.0313C7.72771 25.8115 7.97259 25.5748 8.13079 25.3195L7.91827 25.1878ZM5.3165 27.6884C5.30736 27.8375 5.23895 27.9839 5.13568 28.1443C5.08436 28.2239 5.02695 28.3034 4.96677 28.3871C4.90734 28.4697 4.84542 28.5561 4.78905 28.6452C4.67663 28.8229 4.57891 29.0223 4.56138 29.2493C4.54356 29.4801 4.60973 29.7237 4.7956 29.9872L4.99988 29.8431C4.84158 29.6187 4.79804 29.4318 4.81064 29.2685C4.82355 29.1014 4.89638 28.9432 5.00033 28.7789C5.05214 28.697 5.10985 28.6163 5.16971 28.5331C5.22883 28.4509 5.29036 28.3658 5.34586 28.2796C5.45622 28.1083 5.55292 27.9177 5.56603 27.7036L5.3165 27.6884ZM4.79562 29.9872C4.94418 30.1977 5.10917 30.3232 5.28464 30.3993C5.45696 30.4739 5.63334 30.4979 5.79612 30.5151C6.12893 30.5502 6.40912 30.5612 6.66778 30.819L6.84425 30.6419C6.51228 30.3111 6.13509 30.2994 5.82231 30.2665C5.66228 30.2496 5.51881 30.2283 5.38404 30.1699C5.25241 30.1128 5.12306 30.0176 4.99986 29.843L4.79562 29.9872ZM6.66752 30.8187C6.99605 31.148 7.33117 31.1723 7.59345 31.184C7.72782 31.19 7.82556 31.193 7.90874 31.2194C7.98175 31.2425 8.04331 31.2843 8.0954 31.3797L8.31485 31.26C8.23084 31.1061 8.11671 31.0231 7.98437 30.9811C7.86221 30.9423 7.72494 30.9396 7.60456 30.9343C7.35733 30.9233 7.10401 30.9023 6.84451 30.6421L6.66752 30.8187ZM8.09549 31.3799C8.19171 31.5556 8.41663 31.6584 8.67289 31.7086C8.93834 31.7607 9.27428 31.764 9.64427 31.7087C10.3849 31.5978 11.2802 31.2489 12.0484 30.5518L11.8804 30.3667C11.1524 31.0272 10.3042 31.3571 9.60727 31.4614C9.25849 31.5136 8.95215 31.5086 8.72099 31.4633C8.48065 31.4162 8.35464 31.3326 8.31476 31.2598L8.09549 31.3799ZM12.0485 30.5517C12.8134 29.8564 13.0206 29.3361 13.1058 28.9351C13.1265 28.8379 13.1398 28.7484 13.1521 28.6714C13.1647 28.5924 13.176 28.5278 13.1927 28.4704C13.2235 28.3641 13.2716 28.2843 13.3884 28.2122L13.2572 27.9994C13.08 28.1087 12.9981 28.244 12.9526 28.4007C12.9311 28.4748 12.9177 28.5536 12.9052 28.632C12.8924 28.7121 12.8803 28.7937 12.8613 28.8831C12.7879 29.2285 12.6099 29.7035 11.8803 30.3667L12.0485 30.5517ZM13.3884 28.2122C13.7243 28.0053 13.9054 27.6025 14.0462 27.2027C14.1164 27.0032 14.1835 26.7824 14.2495 26.587C14.3175 26.3857 14.3884 26.1984 14.4739 26.0379L14.2533 25.9203C14.1578 26.0994 14.0817 26.3024 14.0126 26.5069C13.9416 26.7173 13.8815 26.9177 13.8104 27.1196C13.6685 27.5227 13.5102 27.8436 13.2572 27.9994L13.3884 28.2122ZM14.4739 26.038C14.6604 25.6885 14.8069 25.3651 15.1011 25.1181C15.389 24.8765 15.8328 24.6994 16.6293 24.6994V24.4494C15.7953 24.4494 15.2873 24.6354 14.9404 24.9266C14.5999 25.2124 14.4289 25.5913 14.2533 25.9203L14.4739 26.038ZM16.6293 24.6994C17.0361 24.6994 17.3044 24.6804 17.4704 24.6336C17.5536 24.6102 17.6287 24.5753 17.6797 24.5163C17.7361 24.4511 17.748 24.375 17.7389 24.3052C17.7306 24.2411 17.7042 24.1767 17.6771 24.119C17.6506 24.0625 17.6135 23.9925 17.5825 23.9297C17.5164 23.7959 17.4532 23.6475 17.4331 23.4768L17.1848 23.5061C17.21 23.7198 17.2885 23.899 17.3584 24.0405C17.3953 24.1152 17.4248 24.1697 17.4507 24.2251C17.4761 24.2793 17.488 24.3141 17.491 24.3374C17.4923 24.3476 17.4914 24.3517 17.4913 24.3521C17.4912 24.3523 17.4913 24.3521 17.4914 24.3518C17.4916 24.3515 17.4915 24.3518 17.4907 24.3527C17.4865 24.3575 17.4667 24.375 17.4027 24.393C17.2741 24.4292 17.0383 24.4494 16.6293 24.4494V24.6994ZM17.4331 23.4768C17.4159 23.3308 17.4684 23.2121 17.5758 23.0928C17.6879 22.9683 17.847 22.8568 18.0276 22.7256C18.3722 22.4751 18.7923 22.1575 18.7923 21.5888H18.5423C18.5423 22.015 18.2379 22.2637 17.8806 22.5233C17.7102 22.6472 17.5241 22.7766 17.39 22.9256C17.2512 23.0798 17.1566 23.2671 17.1848 23.506L17.4331 23.4768ZM18.7923 21.5888C18.7923 21.381 18.897 21.1648 19.0718 20.9353C19.246 20.7066 19.4751 20.4829 19.7013 20.2568C19.9227 20.0354 20.1446 19.8087 20.2829 19.5856C20.4225 19.3605 20.4948 19.1089 20.362 18.8593L20.1413 18.9767C20.2131 19.1116 20.1896 19.2617 20.0705 19.4538C19.9501 19.648 19.7503 19.8543 19.5245 20.08C19.3035 20.3009 19.0598 20.5385 18.873 20.7838C18.6868 21.0282 18.5423 21.2987 18.5423 21.5888H18.7923ZM20.3622 18.8596C20.1829 18.5204 20.259 18.2594 20.322 17.9892C20.3526 17.8578 20.3838 17.7099 20.3545 17.5619C20.3236 17.4054 20.2301 17.2665 20.0524 17.1388L19.9065 17.3418C20.0455 17.4417 20.0934 17.53 20.1093 17.6103C20.1268 17.699 20.11 17.7976 20.0785 17.9324C20.0174 18.1945 19.913 18.5447 20.1411 18.9764L20.3622 18.8596ZM6.85745 32.9792C6.96254 33.0087 7.1084 33.0054 7.25028 32.9796C7.39482 32.9533 7.55306 32.9005 7.68371 32.8157C7.81404 32.7312 7.92984 32.6057 7.95729 32.4326C7.98484 32.259 7.9181 32.0716 7.75852 31.8757L7.56468 32.0336C7.69912 32.1986 7.72267 32.316 7.71038 32.3934C7.69801 32.4715 7.64384 32.5436 7.54766 32.606C7.45182 32.6682 7.32701 32.7116 7.20553 32.7337C7.08141 32.7562 6.97829 32.7535 6.92504 32.7385L6.85745 32.9792ZM7.75864 31.8759C7.5844 31.6613 7.36954 31.5923 7.161 31.637C6.96353 31.6793 6.79165 31.8188 6.67373 31.9797C6.55594 32.1405 6.47696 32.343 6.4881 32.5319C6.49379 32.6283 6.52333 32.7239 6.58662 32.8052C6.65025 32.8869 6.74159 32.9459 6.85668 32.979L6.92581 32.7387C6.85376 32.718 6.8104 32.6857 6.78387 32.6516C6.75699 32.6171 6.74093 32.5725 6.73767 32.5172C6.73093 32.4029 6.78074 32.2567 6.87539 32.1275C6.9699 31.9985 7.0941 31.907 7.21333 31.8814C7.32147 31.8583 7.44392 31.8849 7.56456 32.0334L7.75864 31.8759ZM27.2567 9.88962C27.173 10.0281 27.0789 10.0769 26.9752 10.0874C26.8597 10.099 26.7186 10.0645 26.5455 10.0004C26.4605 9.96892 26.3723 9.93215 26.2792 9.89346C26.1869 9.85513 26.0901 9.81512 25.9917 9.77911C25.796 9.70743 25.5845 9.64787 25.3702 9.64787V9.89787C25.5407 9.89787 25.7195 9.94567 25.9058 10.0139C25.9984 10.0478 26.0906 10.0858 26.1833 10.1243C26.2751 10.1625 26.3681 10.2013 26.4586 10.2348C26.6365 10.3007 26.824 10.3539 27.0004 10.3361C27.1886 10.3171 27.3498 10.2191 27.4707 10.0189L27.2567 9.88962ZM25.3702 9.64787C25.0158 9.64787 24.7438 9.52397 24.5599 9.33055C24.3751 9.13614 24.2712 8.86273 24.2712 8.55038H24.0212C24.0212 8.91817 24.1441 9.256 24.3787 9.5028C24.6143 9.7506 24.9542 9.89787 25.3702 9.89787V9.64787ZM24.2712 8.55038C24.2712 8.20457 24.2255 7.767 24.081 7.4169C24.0085 7.24125 23.9079 7.07961 23.7681 6.96453C23.6253 6.84704 23.4473 6.78296 23.2342 6.79683L23.2505 7.0463C23.399 7.03663 23.5147 7.0798 23.6092 7.15757C23.7067 7.23775 23.7868 7.35939 23.8499 7.51226C23.9766 7.81918 24.0212 8.21956 24.0212 8.55038H24.2712ZM23.2345 6.79681C23.1352 6.80302 23.0491 6.82136 22.9817 6.85944C22.9087 6.90064 22.8615 6.963 22.8449 7.04023C22.8299 7.11035 22.8428 7.18076 22.8609 7.2402C22.8795 7.30098 22.9078 7.3637 22.9368 7.42296C22.9982 7.54889 23.0613 7.65984 23.0974 7.7688C23.1332 7.87673 23.1264 7.93793 23.096 7.97846L23.2962 8.12828C23.4019 7.987 23.3782 7.82149 23.3347 7.6902C23.2916 7.55995 23.2131 7.41918 23.1614 7.31327C23.1337 7.25661 23.1126 7.20839 23.1001 7.16726C23.0871 7.12477 23.0873 7.10228 23.0894 7.09258C23.0899 7.08999 23.0896 7.08559 23.1045 7.07716C23.125 7.06561 23.168 7.05145 23.2501 7.04632L23.2345 6.79681ZM23.0962 7.97819C23.0695 8.01375 23.0527 8.02314 23.0483 8.02504C23.0479 8.02521 23.0495 8.02586 23.0456 8.02451C23.0377 8.02173 23.0221 8.01316 22.9975 7.99085C22.9736 7.96911 22.9475 7.94023 22.9171 7.9043C22.8606 7.83733 22.7867 7.74121 22.707 7.66755C22.6261 7.59276 22.5175 7.51942 22.3804 7.51942V7.76942C22.4242 7.76942 22.474 7.79254 22.5373 7.85111C22.6019 7.9108 22.6581 7.98493 22.7261 8.06554C22.758 8.1034 22.7928 8.14264 22.8294 8.17591C22.8654 8.20861 22.91 8.24193 22.9631 8.26049C23.0202 8.28047 23.0835 8.2819 23.1467 8.25484C23.2058 8.22952 23.2545 8.18367 23.296 8.12855L23.0962 7.97819ZM22.3804 7.51942C22.2588 7.51942 22.1004 7.43334 21.9659 7.21682C21.8334 7.00342 21.735 6.67702 21.735 6.24231H21.485C21.485 6.71269 21.5912 7.08735 21.7536 7.34872C21.914 7.60699 22.1407 7.76942 22.3804 7.76942V7.51942ZM21.735 6.24231C21.735 5.9965 21.6823 5.8121 21.6 5.65807C21.5198 5.50791 21.4129 5.39054 21.3195 5.28349C21.2238 5.17383 21.1378 5.07048 21.0737 4.9354C21.0103 4.80202 20.9655 4.63126 20.9655 4.38765H20.7155C20.7155 4.66417 20.7669 4.87216 20.8478 5.04263C20.928 5.21141 21.0344 5.337 21.1311 5.44784C21.2301 5.56128 21.3155 5.65597 21.3795 5.77587C21.4415 5.8919 21.485 6.03557 21.485 6.24231H21.735ZM20.9655 4.38765C20.9655 3.80058 20.5105 3.30382 19.9794 2.96346C19.4436 2.6201 18.7862 2.40625 18.3035 2.40625V2.65625C18.7272 2.65625 19.3384 2.84961 19.8445 3.17395C20.3553 3.50129 20.7155 3.93273 20.7155 4.38765H20.9655ZM18.3035 2.40625C18.1731 2.40625 18.0593 2.43553 17.9735 2.50543C17.8859 2.57682 17.8449 2.67628 17.8331 2.78027C17.8106 2.97793 17.8892 3.22579 17.9977 3.46553C18.2189 3.95445 18.6109 4.50729 18.8417 4.78421L19.0338 4.62414C18.8118 4.35783 18.4344 3.8242 18.2255 3.36247C18.1189 3.12688 18.0673 2.93336 18.0815 2.80849C18.088 2.7512 18.107 2.7191 18.1314 2.69925C18.1576 2.6779 18.2077 2.65625 18.3035 2.65625V2.40625ZM18.8418 4.7843C19.079 5.06832 19.4585 5.34116 19.7486 5.57596C19.8981 5.69705 20.0243 5.80779 20.1101 5.91002C20.1988 6.01586 20.2236 6.08842 20.2181 6.13688L20.4666 6.16462C20.4839 6.00992 20.4011 5.86797 20.3016 5.74937C20.1991 5.62715 20.0564 5.5035 19.9059 5.38164C19.5957 5.13054 19.2502 4.88325 19.0337 4.62405L18.8418 4.7843ZM20.2182 6.13674C20.2027 6.27357 20.2511 6.44099 20.3233 6.6037C20.3976 6.77136 20.5058 6.95313 20.6317 7.12569C20.7576 7.29837 20.9035 7.46487 21.0546 7.60093C21.2042 7.73558 21.3663 7.84706 21.5252 7.89993L21.6041 7.66271C21.4917 7.62532 21.3596 7.53908 21.2219 7.41513C21.0857 7.29256 20.9512 7.13955 20.8337 6.97837C20.716 6.81708 20.6175 6.65066 20.5518 6.50238C20.4839 6.34914 20.4589 6.23285 20.4666 6.16477L20.2182 6.13674ZM21.5249 7.89983C21.5575 7.91075 21.5779 7.92952 21.5931 7.9633C21.6106 8.00225 21.6213 8.0627 21.6194 8.151C21.6154 8.32834 21.5627 8.56941 21.4886 8.85963C21.3438 9.42656 21.1221 10.1599 21.1221 10.814H21.3721C21.3721 10.2002 21.5809 9.50838 21.7308 8.92149C21.804 8.6348 21.8646 8.36681 21.8693 8.15653C21.8716 8.05103 21.8604 7.94803 21.821 7.8606C21.7793 7.768 21.7077 7.69744 21.6044 7.6628L21.5249 7.89983ZM21.1221 10.814C21.1221 11.1143 21.0632 11.3137 20.9742 11.4591C20.8849 11.6051 20.7578 11.7086 20.599 11.8057C20.5192 11.8544 20.4337 11.9002 20.3416 11.9494C20.2506 11.998 20.1536 12.0497 20.0561 12.1082C19.8601 12.2259 19.6582 12.3732 19.4768 12.5913L19.669 12.7512C19.8265 12.5617 20.0034 12.4315 20.1848 12.3226C20.276 12.2678 20.3675 12.219 20.4594 12.1699C20.5503 12.1213 20.6423 12.0722 20.7294 12.019C20.9044 11.9121 21.0688 11.7834 21.1874 11.5897C21.3064 11.3954 21.3721 11.1476 21.3721 10.814H21.1221ZM19.477 12.5911C19.3763 12.7117 19.3254 12.842 19.329 12.9793C19.3324 13.1139 19.3877 13.2395 19.4693 13.3538C19.6297 13.5787 19.9159 13.7932 20.2363 13.9972C20.5593 14.2029 20.9364 14.4094 21.2875 14.6111C21.6422 14.8149 21.9705 15.0141 22.2105 15.2104L22.3688 15.0169C22.111 14.806 21.766 14.5978 21.412 14.3943C21.0543 14.1887 20.6872 13.9879 20.3706 13.7863C20.0514 13.5831 19.8026 13.3906 19.6728 13.2086C19.6092 13.1195 19.5806 13.0416 19.5789 12.9729C19.5772 12.9069 19.5998 12.834 19.6688 12.7514L19.477 12.5911ZM22.2105 15.2104C22.4182 15.3804 22.4831 15.6118 22.4566 15.8934C22.4295 16.1805 22.3077 16.505 22.1564 16.8315C22.0812 16.9935 22.0003 17.1531 21.9223 17.3066C21.8447 17.459 21.7694 17.6065 21.7079 17.7406C21.6467 17.8738 21.5959 18.0006 21.5697 18.1117C21.5448 18.2176 21.5348 18.3392 21.5945 18.4383L21.8087 18.3094C21.8019 18.2981 21.7916 18.2604 21.8131 18.169C21.8333 18.0828 21.8756 17.9743 21.9351 17.8449C21.9941 17.7164 22.0667 17.5739 22.1451 17.4199C22.2229 17.2669 22.3059 17.1034 22.3832 16.9366C22.5368 16.6053 22.6742 16.2486 22.7055 15.9169C22.7373 15.5798 22.6597 15.255 22.3688 15.0169L22.2105 15.2104ZM21.5941 18.4376C21.6427 18.5197 21.7303 18.5953 21.839 18.6584C21.95 18.7228 22.092 18.7795 22.2609 18.8188C22.5991 18.8975 23.05 18.908 23.5888 18.7678L23.5258 18.5258C23.0229 18.6568 22.6131 18.6441 22.3175 18.5753C22.1695 18.5408 22.0513 18.4926 21.9645 18.4422C21.8755 18.3905 21.8277 18.3414 21.8092 18.3102L21.5941 18.4376ZM23.589 18.7677C23.8878 18.6894 24.1354 18.4721 24.347 18.2026C24.5595 17.932 24.7467 17.5945 24.9201 17.2537C25.0962 16.9076 25.2549 16.5652 25.4196 16.2606C25.5842 15.956 25.7427 15.7137 25.906 15.5715L25.7417 15.383C25.5416 15.5573 25.3653 15.8353 25.1996 16.1417C25.034 16.4481 24.8667 16.8074 24.6973 17.1404C24.5251 17.4787 24.347 17.7979 24.1504 18.0482C23.9529 18.2997 23.7476 18.4677 23.5256 18.5259L23.589 18.7677ZM25.9064 15.5711C26.3071 15.219 26.3768 14.767 26.3998 14.3693C26.4117 14.1634 26.411 13.9864 26.4305 13.8172C26.4496 13.6521 26.4861 13.522 26.5582 13.4234L26.3563 13.2759C26.2465 13.4262 26.2031 13.6073 26.1822 13.7885C26.1617 13.9657 26.1609 14.1705 26.1502 14.3549C26.1281 14.7378 26.063 15.1007 25.7413 15.3833L25.9064 15.5711ZM26.5583 13.4232C26.876 12.987 27.2967 13.023 27.8147 13.023V12.773C27.3348 12.773 26.7626 12.7182 26.3562 13.276L26.5583 13.4232ZM27.8147 13.023C27.9053 13.023 27.9834 12.9943 28.0474 12.9428C28.1088 12.8933 28.1517 12.8274 28.1835 12.7605C28.2452 12.6308 28.2812 12.4607 28.3161 12.3155C28.3535 12.1602 28.3908 12.0268 28.45 11.9319C28.5034 11.8461 28.5688 11.7996 28.6758 11.7996V11.5496C28.4657 11.5496 28.3273 11.6561 28.2378 11.7997C28.154 11.9341 28.1093 12.1065 28.073 12.257C28.0344 12.4178 28.0052 12.5535 27.9577 12.6531C27.935 12.7009 27.9123 12.7306 27.8906 12.748C27.8715 12.7634 27.8489 12.773 27.8147 12.773V13.023ZM28.6758 11.7996C28.8684 11.7996 29.0096 11.7311 29.1018 11.5959C29.1851 11.4737 29.2186 11.3097 29.2413 11.1427C29.2887 10.7931 29.2976 10.3663 29.4722 9.90902L29.2387 9.81984C29.0504 10.313 29.0366 10.7913 28.9935 11.1091C28.9709 11.2759 28.9422 11.3862 28.8953 11.455C28.8573 11.5106 28.8004 11.5496 28.6758 11.5496V11.7996ZM29.4723 9.90883C29.5232 9.77493 29.539 9.64984 29.5117 9.53791C29.4837 9.42308 29.4138 9.3365 29.3217 9.27689C29.1464 9.16352 28.8877 9.14461 28.6333 9.17368C28.3726 9.20346 28.0887 9.28669 27.8423 9.40735C27.5986 9.52664 27.3759 9.69018 27.2564 9.8901L27.471 10.0184C27.5548 9.87824 27.7278 9.74171 27.9522 9.63189C28.1737 9.52345 28.4301 9.44852 28.6617 9.42206C28.8995 9.39489 29.0851 9.42166 29.1859 9.48682C29.2318 9.51647 29.2579 9.55238 29.2688 9.59712C29.2804 9.64475 29.278 9.71632 29.2386 9.82002L29.4723 9.90883Z" fill="#868686"/>
</g>
<defs>
<filter id="filter0_d_877_3480" x="0.558594" y="0.40625" width="32.9668" height="38.5938" filterUnits="userSpaceOnUse" color-interpolation-filters="sRGB">
<feFlood flood-opacity="0" result="BackgroundImageFix"/>
<feColorMatrix in="SourceAlpha" type="matrix" values="0 0 0 0 0 0 0 0 0 0 0 0 0 0 0 0 0 0 127 0" result="hardAlpha"/>
<feOffset dy="2"/>
<feGaussianBlur stdDeviation="2"/>
<feColorMatrix type="matrix" values="0 0 0 0 0 0 0 0 0 0 0 0 0 0 0 0 0 0 0.01 0"/>
<feBlend mode="normal" in2="BackgroundImageFix" result="effect1_dropShadow_877_3480"/>
<feBlend mode="normal" in="SourceGraphic" in2="effect1_dropShadow_877_3480" result="shape"/>
</filter>
</defs>
</svg>
