<svg width="21" height="18" viewBox="0 0 21 18" fill="none" xmlns="http://www.w3.org/2000/svg">
<g filter="url(#filter0_d_877_3227)">
<path fill-rule="evenodd" clip-rule="evenodd" d="M6.67664 11.6503C7.05789 11.6887 7.82301 11.1908 7.82301 11.1908C7.82301 11.1908 10.3819 10.9999 10.8006 10.9624C10.9489 10.9493 11.1374 11.0138 11.3162 11.0984C11.3241 10.9903 11.3223 10.9109 11.3223 10.9109C11.3223 10.9109 12.6816 11.1804 12.7723 11.4978C12.8622 11.8143 14.7187 12.0401 15.7613 11.68C15.8372 11.6521 15.9113 11.6259 15.9863 11.5989C15.9994 11.1838 16.0151 10.5116 15.9733 10.3058C15.9122 10.0041 15.2491 9.34314 14.8862 8.97953C14.5241 8.61592 14.5835 7.71257 14.5835 7.71257L14.2092 7.15452C14.2092 7.15452 13.9204 6.00702 13.0593 5.71928C12.1982 5.43415 11.6233 3.85328 11.6233 3.85328H10.9053C10.9053 3.85328 10.3321 3.13828 9.75893 2.84966C9.184 2.56278 8.17984 2.99266 8.17984 2.99266C8.17984 2.99266 7.02997 3.13828 6.31284 2.99266C5.59483 2.84966 5.73703 3.85328 5.16297 3.99803C5.14029 4.00413 5.09667 4.01634 5.05915 4.02419C4.99372 4.6084 4.89426 5.20569 4.59066 5.65649C3.92848 6.65489 4.86286 8.10234 5.34531 8.55402C5.44564 8.64906 5.4753 8.78421 5.46745 8.94029C6.56671 9.0519 7.17741 8.93681 8.05246 8.51827C8.931 8.09885 9.00865 9.2821 10.0006 9.35971C10.9934 9.43469 11.1086 9.51317 11.1086 9.51317C11.1086 9.51317 10.4595 9.93084 9.84792 9.85585C9.23809 9.77825 8.54975 9.01441 8.12924 9.3972C7.70872 9.77912 6.41142 10.0084 5.79985 10.0459C5.69952 10.052 5.4849 10.1009 5.20223 10.1715C5.15774 10.5107 5.1874 10.8438 5.43517 11.1237C5.51282 11.2109 5.57825 11.2876 5.64194 11.3678C6.67489 11.1045 6.35558 11.6163 6.67664 11.6503Z" fill="white"/>
<path fill-rule="evenodd" clip-rule="evenodd" d="M6.67664 11.6503C7.05789 11.6887 7.82301 11.1908 7.82301 11.1908C7.82301 11.1908 10.3819 10.9999 10.8006 10.9624C10.9489 10.9493 11.1374 11.0138 11.3162 11.0984C11.3241 10.9903 11.3223 10.9109 11.3223 10.9109C11.3223 10.9109 12.6816 11.1804 12.7723 11.4978C12.8622 11.8143 14.7187 12.0401 15.7613 11.68C15.8372 11.6521 15.9113 11.6259 15.9863 11.5989C15.9994 11.1838 16.0151 10.5116 15.9733 10.3058C15.9122 10.0041 15.2491 9.34314 14.8862 8.97953C14.5241 8.61592 14.5835 7.71257 14.5835 7.71257L14.2092 7.15452C14.2092 7.15452 13.9204 6.00702 13.0593 5.71928C12.1982 5.43415 11.6233 3.85328 11.6233 3.85328H10.9053C10.9053 3.85328 10.3321 3.13828 9.75893 2.84966C9.184 2.56278 8.17984 2.99266 8.17984 2.99266C8.17984 2.99266 7.02997 3.13828 6.31284 2.99266C5.59483 2.84966 5.73703 3.85328 5.16297 3.99803C5.14029 4.00413 5.09667 4.01634 5.05915 4.02419C4.99372 4.6084 4.89426 5.20569 4.59066 5.65649C3.92848 6.65489 4.86286 8.10234 5.34531 8.55402C5.44564 8.64906 5.4753 8.78421 5.46745 8.94029C6.56671 9.0519 7.17741 8.93681 8.05246 8.51827C8.931 8.09885 9.00865 9.2821 10.0006 9.35971C10.9934 9.43469 11.1086 9.51317 11.1086 9.51317C11.1086 9.51317 10.4595 9.93084 9.84792 9.85585C9.23809 9.77825 8.54975 9.01441 8.12924 9.3972C7.70872 9.77912 6.41142 10.0084 5.79985 10.0459C5.69952 10.052 5.4849 10.1009 5.20223 10.1715C5.15774 10.5107 5.1874 10.8438 5.43517 11.1237C5.51282 11.2109 5.57825 11.2876 5.64194 11.3678C6.67489 11.1045 6.35558 11.6163 6.67664 11.6503Z" stroke="#868686" stroke-width="0.25"/>
</g>
<defs>
<filter id="filter0_d_877_3227" x="0.236328" y="0.625977" width="19.8887" height="17.3633" filterUnits="userSpaceOnUse" color-interpolation-filters="sRGB">
<feFlood flood-opacity="0" result="BackgroundImageFix"/>
<feColorMatrix in="SourceAlpha" type="matrix" values="0 0 0 0 0 0 0 0 0 0 0 0 0 0 0 0 0 0 127 0" result="hardAlpha"/>
<feOffset dy="2"/>
<feGaussianBlur stdDeviation="2"/>
<feColorMatrix type="matrix" values="0 0 0 0 0 0 0 0 0 0 0 0 0 0 0 0 0 0 0.01 0"/>
<feBlend mode="normal" in2="BackgroundImageFix" result="effect1_dropShadow_877_3227"/>
<feBlend mode="normal" in="SourceGraphic" in2="effect1_dropShadow_877_3227" result="shape"/>
</filter>
</defs>
</svg>
