<svg width="25" height="19" viewBox="0 0 25 19" fill="none" xmlns="http://www.w3.org/2000/svg">
<g filter="url(#filter0_d_877_3526)">
<path fill-rule="evenodd" clip-rule="evenodd" d="M17.0058 10.5802C17.4586 10.8514 17.367 11.215 17.7892 11.1531C18.1364 11.1052 18.8658 11.2612 19.2165 11.6013C19.5882 11.5115 19.897 11.4757 19.897 11.4757C19.897 11.4757 19.5751 9.38043 19.4931 8.73518C19.4137 8.0908 17.476 7.44555 17.476 7.44555L17.1541 5.67286C17.1541 5.67286 14.8962 5.99636 14.4941 5.83591C14.091 5.67286 13.2037 6.07658 12.8015 5.51329C12.3985 4.94913 11.6717 5.91614 10.9467 5.4322C10.2218 4.94826 8.12444 5.59438 8.04243 5.19067C7.96304 4.78695 8.92969 3.90104 9.49502 3.98213C9.62938 4.00131 9.85621 4.00654 10.124 3.99957C10.3893 3.57318 10.9886 2.56258 10.8438 2.32453C10.6632 2.02196 9.93909 2.26437 9.45489 2.62536C8.97069 2.9881 8.06686 2.44487 7.88452 2.9881C7.70305 3.53133 7.46401 4.07456 6.91961 4.07456C6.37609 4.07456 6.79834 4.98052 6.25569 5.22118C5.71042 5.46272 4.44278 5.40255 4.32326 5.94578C4.20286 6.48814 5.71042 6.85 5.59177 7.51444C5.4705 8.17974 6.37521 8.9026 5.83256 9.32462C5.36756 9.68649 4.94966 10.2742 4.98892 11.4548C5.38239 11.7068 5.75841 11.9309 5.94511 11.556C6.26965 10.9116 8.04156 11.556 8.04156 10.9927C8.04156 10.4268 9.97922 10.5881 9.97922 10.0248C9.97922 9.46152 11.1064 8.17189 11.8323 8.25299C12.5581 8.33233 11.7529 9.54261 12.6393 9.94459C13.5265 10.3474 12.2362 11.7975 12.7204 12.3617C12.901 12.5718 13.2535 12.536 13.6844 12.4096C14.0133 12.3163 14.3894 12.1698 14.7732 12.0434C15.5671 11.3441 16.6455 10.364 17.0058 10.5802Z" fill="white"/>
<path fill-rule="evenodd" clip-rule="evenodd" d="M17.0058 10.5802C17.4586 10.8514 17.367 11.215 17.7892 11.1531C18.1364 11.1052 18.8658 11.2612 19.2165 11.6013C19.5882 11.5115 19.897 11.4757 19.897 11.4757C19.897 11.4757 19.5751 9.38043 19.4931 8.73518C19.4137 8.0908 17.476 7.44555 17.476 7.44555L17.1541 5.67286C17.1541 5.67286 14.8962 5.99636 14.4941 5.83591C14.091 5.67286 13.2037 6.07658 12.8015 5.51329C12.3985 4.94913 11.6717 5.91614 10.9467 5.4322C10.2218 4.94826 8.12444 5.59438 8.04243 5.19067C7.96304 4.78695 8.92969 3.90104 9.49502 3.98213C9.62938 4.00131 9.85621 4.00654 10.124 3.99957C10.3893 3.57318 10.9886 2.56258 10.8438 2.32453C10.6632 2.02196 9.93909 2.26437 9.45489 2.62536C8.97069 2.9881 8.06686 2.44487 7.88452 2.9881C7.70305 3.53133 7.46401 4.07456 6.91961 4.07456C6.37609 4.07456 6.79834 4.98052 6.25569 5.22118C5.71042 5.46272 4.44278 5.40255 4.32326 5.94578C4.20286 6.48814 5.71042 6.85 5.59177 7.51444C5.4705 8.17974 6.37521 8.9026 5.83256 9.32462C5.36756 9.68649 4.94966 10.2742 4.98892 11.4548C5.38239 11.7068 5.75841 11.9309 5.94511 11.556C6.26965 10.9116 8.04156 11.556 8.04156 10.9927C8.04156 10.4268 9.97922 10.5881 9.97922 10.0248C9.97922 9.46152 11.1064 8.17189 11.8323 8.25299C12.5581 8.33233 11.7529 9.54261 12.6393 9.94459C13.5265 10.3474 12.2362 11.7975 12.7204 12.3617C12.901 12.5718 13.2535 12.536 13.6844 12.4096C14.0133 12.3163 14.3894 12.1698 14.7732 12.0434C15.5671 11.3441 16.6455 10.364 17.0058 10.5802Z" stroke="#868686" stroke-width="0.25"/>
</g>
<defs>
<filter id="filter0_d_877_3526" x="0.191406" y="0.0625" width="23.8496" height="18.5742" filterUnits="userSpaceOnUse" color-interpolation-filters="sRGB">
<feFlood flood-opacity="0" result="BackgroundImageFix"/>
<feColorMatrix in="SourceAlpha" type="matrix" values="0 0 0 0 0 0 0 0 0 0 0 0 0 0 0 0 0 0 127 0" result="hardAlpha"/>
<feOffset dy="2"/>
<feGaussianBlur stdDeviation="2"/>
<feColorMatrix type="matrix" values="0 0 0 0 0 0 0 0 0 0 0 0 0 0 0 0 0 0 0.01 0"/>
<feBlend mode="normal" in2="BackgroundImageFix" result="effect1_dropShadow_877_3526"/>
<feBlend mode="normal" in="SourceGraphic" in2="effect1_dropShadow_877_3526" result="shape"/>
</filter>
</defs>
</svg>
