<svg width="14" height="12" viewBox="0 0 14 12" fill="none" xmlns="http://www.w3.org/2000/svg">
<g filter="url(#filter0_d_877_3220)">
<path fill-rule="evenodd" clip-rule="evenodd" d="M8.26742 2.32129C7.81725 2.44685 7.33915 2.59334 7.13937 2.69013C6.84885 2.83749 6.69879 2.92817 6.12037 2.86801C6.05232 2.95346 5.97206 3.02583 5.87173 3.06071C5.37444 3.24208 5.46256 4.37388 5.46256 4.37388C5.46256 4.37388 5.00977 4.42097 5.00977 4.96245C5.00977 5.33216 5.25928 5.48999 5.41981 5.55364C5.67543 5.56498 5.91099 5.58416 6.09332 5.61642C7.24319 5.82482 7.1385 4.99123 7.1385 4.99123C7.1385 4.99123 8.81182 5.09325 8.91564 4.57269C9.02033 4.04864 8.60156 3.2133 8.60156 3.2133L8.26742 2.32129Z" fill="white"/>
<path fill-rule="evenodd" clip-rule="evenodd" d="M8.26742 2.32129C7.81725 2.44685 7.33915 2.59334 7.13937 2.69013C6.84885 2.83749 6.69879 2.92817 6.12037 2.86801C6.05232 2.95346 5.97206 3.02583 5.87173 3.06071C5.37444 3.24208 5.46256 4.37388 5.46256 4.37388C5.46256 4.37388 5.00977 4.42097 5.00977 4.96245C5.00977 5.33216 5.25928 5.48999 5.41981 5.55364C5.67543 5.56498 5.91099 5.58416 6.09332 5.61642C7.24319 5.82482 7.1385 4.99123 7.1385 4.99123C7.1385 4.99123 8.81182 5.09325 8.91564 4.57269C9.02033 4.04864 8.60156 3.2133 8.60156 3.2133L8.26742 2.32129Z" stroke="#868686" stroke-width="0.25"/>
</g>
<defs>
<filter id="filter0_d_877_3220" x="0.884766" y="0.169922" width="12.1719" height="11.6045" filterUnits="userSpaceOnUse" color-interpolation-filters="sRGB">
<feFlood flood-opacity="0" result="BackgroundImageFix"/>
<feColorMatrix in="SourceAlpha" type="matrix" values="0 0 0 0 0 0 0 0 0 0 0 0 0 0 0 0 0 0 127 0" result="hardAlpha"/>
<feOffset dy="2"/>
<feGaussianBlur stdDeviation="2"/>
<feColorMatrix type="matrix" values="0 0 0 0 0 0 0 0 0 0 0 0 0 0 0 0 0 0 0.01 0"/>
<feBlend mode="normal" in2="BackgroundImageFix" result="effect1_dropShadow_877_3220"/>
<feBlend mode="normal" in="SourceGraphic" in2="effect1_dropShadow_877_3220" result="shape"/>
</filter>
</defs>
</svg>
