<svg width="15" height="14" viewBox="0 0 15 14" fill="none" xmlns="http://www.w3.org/2000/svg">
<g filter="url(#filter0_d_877_3317)">
<path fill-rule="evenodd" clip-rule="evenodd" d="M7.40601 2.42972C6.49955 3.06451 8.76438 4.42215 8.76438 5.23569C8.76438 6.0501 5.12984 5.08309 4.77912 5.96116C4.59765 6.41457 6.04763 7.04674 7.40688 6.5942C8.67103 6.17391 9.53997 6.61251 10.2405 6.9674C10.3417 5.59755 10.4988 4.04982 10.6419 2.99911C9.49286 2.70526 8.06469 1.96758 7.40601 2.42972Z" fill="white"/>
<path fill-rule="evenodd" clip-rule="evenodd" d="M7.40601 2.42972C6.49955 3.06451 8.76438 4.42215 8.76438 5.23569C8.76438 6.0501 5.12984 5.08309 4.77912 5.96116C4.59765 6.41457 6.04763 7.04674 7.40688 6.5942C8.67103 6.17391 9.53997 6.61251 10.2405 6.9674C10.3417 5.59755 10.4988 4.04982 10.6419 2.99911C9.49286 2.70526 8.06469 1.96758 7.40601 2.42972Z" stroke="#868686" stroke-width="0.25"/>
</g>
<defs>
<filter id="filter0_d_877_3317" x="0.638672" y="0.15625" width="14.1426" height="13.0078" filterUnits="userSpaceOnUse" color-interpolation-filters="sRGB">
<feFlood flood-opacity="0" result="BackgroundImageFix"/>
<feColorMatrix in="SourceAlpha" type="matrix" values="0 0 0 0 0 0 0 0 0 0 0 0 0 0 0 0 0 0 127 0" result="hardAlpha"/>
<feOffset dy="2"/>
<feGaussianBlur stdDeviation="2"/>
<feColorMatrix type="matrix" values="0 0 0 0 0 0 0 0 0 0 0 0 0 0 0 0 0 0 0.01 0"/>
<feBlend mode="normal" in2="BackgroundImageFix" result="effect1_dropShadow_877_3317"/>
<feBlend mode="normal" in="SourceGraphic" in2="effect1_dropShadow_877_3317" result="shape"/>
</filter>
</defs>
</svg>
