<svg width="103" height="43" viewBox="0 0 103 43" fill="none" xmlns="http://www.w3.org/2000/svg">
<g filter="url(#filter0_d_877_3535)">
<path fill-rule="evenodd" clip-rule="evenodd" d="M11.0741 16.8208C10.9537 17.1208 11.6176 18.3284 12.039 17.9674C12.463 17.6038 11.4553 15.8651 11.0741 16.8208ZM30.8207 20.5013C30.8207 19.9572 29.2625 20.2214 29.7336 20.9853C30.217 21.7674 30.8207 21.0437 30.8207 20.5013ZM8.11568 11.63C7.99354 12.2334 8.65746 13.9817 9.38333 13.2597C10.1092 12.5351 8.23259 11.0371 8.11568 11.63ZM53.7063 21.9505C54.6119 22.0098 54.4915 23.3378 54.31 24.1217C54.1277 24.9065 53.7621 26.7699 54.5517 26.4743C55.5166 26.1124 56.1212 24.9065 55.5776 24.4845C55.0332 24.0624 55.0952 21.4056 55.336 20.7437C55.5776 20.0776 57.2091 20.5615 56.6647 21.5878C56.1212 22.615 57.6907 22.4903 57.6907 23.6404C57.6907 24.7853 58.5962 24.1836 59.5629 23.8819C60.5304 23.5802 60.3498 23.0344 59.685 22.3115C59.0202 21.5878 60.1684 20.5615 59.2636 19.9572C58.3572 19.3556 57.7526 18.4496 58.5971 18.2683C59.4442 18.0869 61.9787 16.6377 61.6777 16.0352C61.3758 15.43 57.8128 16.1555 57.5101 17.2411C57.2099 18.3267 54.6738 17.119 54.9757 15.2504C55.2784 13.3792 60.2888 13.0775 61.7379 13.741C63.1878 14.4063 64.7573 12.6546 65.3 11.6292C65.8444 10.6011 64.1545 11.8105 63.1268 12.4741C62.1008 13.1394 59.384 12.413 57.9943 11.9309C56.6054 11.4495 56.6664 12.7758 55.5183 12.9563C54.3711 13.1394 54.6127 15.6733 54.0692 15.975C53.5248 16.2784 53.5248 18.1479 52.4395 19.8988C51.3507 21.6471 52.7998 21.8895 53.7063 21.9505ZM26.1113 23.5183C26.0502 22.6743 26.4123 21.8293 26.4123 21.4056C26.4123 20.9853 26.7142 20.8039 27.2568 20.9234C27.8012 21.0437 27.7427 19.7759 27.3179 19.6555C26.8956 19.537 26.6548 18.0267 25.6262 18.0267C24.6011 18.0267 24.7817 18.8708 25.3872 18.9327C25.9918 18.992 26.3512 19.4759 26.1715 19.8979C25.99 20.32 25.7501 19.4759 24.9039 19.537C24.0567 19.5954 24.6011 18.508 23.6353 18.4488C22.6696 18.3886 22.8519 16.6377 21.8224 16.6377C20.7956 16.6377 20.7371 15.7936 21.4011 15.1911C22.0641 14.586 20.3742 14.0427 20.3742 13.3199C20.3742 12.5935 19.288 13.0182 19.288 12.413C19.288 11.8114 18.8056 12.1131 18.2603 11.3876C17.7185 10.6639 17.476 11.3275 16.9927 10.786C16.5111 10.2419 15.8463 9.94017 15.4232 10.1207C15.0009 10.3038 14.0334 9.33591 13.6713 8.37065C13.3843 7.60071 10.5925 6.31805 10.2287 5.29263C9.86752 4.26721 8.90087 3.84343 7.27117 3.90447C5.64147 3.96289 4.99762 2.30879 4.612 3.11971C4.13042 4.14775 6.36472 6.43926 7.39157 7.04352C8.41754 7.64518 8.9602 9.8181 10.1685 9.94017C11.3786 10.0605 11.4964 13.8622 12.4028 14.0427C13.3093 14.2259 15.2443 17.1827 15.5453 18.7504C15.8472 20.3208 17.838 21.1056 18.5046 22.2522C19.1676 23.398 21.8242 24.9693 22.1871 25.4506C22.5483 25.9328 22.9121 27.0192 23.2157 26.4751C23.5176 25.9328 24.7843 26.4751 25.3889 26.537C25.9909 26.599 26.1706 24.3641 26.1113 23.5183ZM72.2454 13.8622C73.5732 13.9843 72.9678 13.1978 72.9678 12.3538C72.9678 11.5097 71.7621 12.2334 71.7621 11.8114C71.7621 11.3885 71.3398 9.69951 70.3732 11.0258C69.4065 12.3538 70.6838 15.6349 71.4585 15.4937C72.1259 15.3716 70.9158 13.741 72.2454 13.8622ZM67.2935 21.4056C67.5352 22.3726 69.2861 22.9132 69.7703 22.0709C70.2519 21.2242 67.0143 20.2868 67.2935 21.4056ZM62.523 31.6075C60.8933 31.3686 59.8063 32.5736 58.1749 31.9685C56.5452 31.3686 54.1058 31.9807 54.3711 32.5117C54.6136 32.9956 56.0618 33.0558 57.6924 33.116C59.323 33.1744 60.7721 32.2684 61.8591 32.21C62.9453 32.1498 64.1545 31.849 62.523 31.6075ZM75.4446 20.5624C73.8742 20.0784 71.195 20.4918 71.4594 21.2861C71.7001 22.0107 72.9678 21.709 74.2389 21.709C75.5066 21.709 76.1696 22.615 76.8353 22.615C77.4992 22.615 77.0167 21.0437 75.4446 20.5624ZM43.6227 30.9431C43.5634 30.2185 41.2052 30.8829 40.0597 30.4007C38.9133 29.9159 41.3274 29.4956 42.1125 29.0099C42.8969 28.5269 41.6292 28.3472 39.6977 28.9524C37.7626 29.5549 35.5309 27.6244 35.4699 28.4676C35.4105 29.3134 31.9662 28.1057 31.1225 27.5032C30.2772 26.9007 27.016 26.1133 26.3503 27.2608C25.6873 28.41 25.1132 27.3811 25.3863 28.4684C25.5669 29.193 26.3503 28.771 26.8947 28.771C27.4383 28.771 27.1966 29.7982 27.98 29.9168C28.7661 30.0397 31.3642 30.7634 31.605 30.2193C31.8458 29.6778 34.2624 30.2193 35.4699 31.1855C36.6773 32.1498 39.4543 32.2109 40.5422 32.0304C41.6283 31.8499 42.8367 32.7541 43.2589 32.1507C43.6829 31.5491 44.4664 33.1169 45.6755 32.2109C46.883 31.3067 43.6838 31.6668 43.6227 30.9431ZM91.1457 17.7834C90.241 17.8454 90.1189 19.4149 89.3346 19.4149C88.5503 19.4149 87.4623 21.0437 86.0132 21.5285C84.5633 22.0107 84.5031 17.3649 83.8383 16.4589C83.1743 15.553 79.5529 14.8292 79.1908 15.8538C78.8279 16.8818 77.569 16.3377 77.4372 17.1827C77.3177 17.9674 77.74 17.7259 78.5243 17.7259C79.3077 17.7259 79.3077 18.3275 79.6715 19.1132C80.0345 19.8988 82.2086 19.3556 82.9327 19.2954C83.6568 19.2353 83.7772 20.2598 82.7512 19.8988C81.7252 19.5378 81.7252 20.3801 81.0003 20.2005C80.2761 20.0183 79.3077 20.0784 79.7911 20.5022C80.2761 20.9242 81.0578 21.3463 81.0578 22.3124C81.0578 23.2777 82.4494 23.0972 82.4494 22.3124C82.4494 21.5294 83.1735 22.5531 84.5624 22.9141C85.9522 23.2777 84.9864 23.82 86.3744 23.8819C87.7625 23.943 90.9023 24.9693 92.1098 25.8717C93.3207 26.7777 92.4718 27.3811 93.2579 28.2278C94.0422 29.071 94.283 30.038 93.196 30.038C92.1098 30.038 90.9634 31.1227 91.2644 31.6659C91.5663 32.2091 95.131 31.4244 95.9738 31.4244C96.5286 31.4244 97.0852 32.4079 98.1487 33.1203V20.2389C95.5367 19.3591 91.8908 17.7346 91.1457 17.7834ZM65.0042 33.0828C64.8184 33.2084 64.602 33.3043 64.3412 33.3636C64.2601 33.5886 64.1798 33.8388 64.0402 33.947C63.871 34.0795 63.5796 33.8135 63.3728 33.579C62.2055 34.0638 61.5913 35.4589 62.4018 35.8914C63.1809 36.3065 64.3159 35.2034 64.965 34.4265C65.0705 34.2992 65.1639 34.1824 65.2398 34.0812C65.2843 34.0219 65.3567 33.96 65.4439 33.8973C65.5033 33.851 65.5713 33.8066 65.6472 33.763C65.4588 33.4996 65.2171 33.2407 65.0042 33.0828ZM48.2134 17.5454C49.2996 16.881 49.5404 15.6114 49.4191 14.4063C49.2996 13.1978 52.0757 13.1394 52.4997 12.6546C52.9228 12.1724 51.8942 11.3876 51.1099 11.0249C50.3247 10.6639 50.9878 9.87914 50.4451 9.39694C49.9016 8.91562 48.9969 7.64518 49.7821 7.58763C50.5655 7.52572 49.2368 6.43926 49.9016 6.07827C49.9915 6.02856 50.0953 5.97712 50.2043 5.92393C49.8074 5.72687 49.461 5.59433 49.2377 5.59433C48.2736 5.59433 45.9783 5.35367 46.0969 6.92058C46.2199 8.49098 44.77 7.88584 44.8895 8.73251C45.0108 9.57831 44.1645 9.57831 44.2858 10.6639C44.4088 11.7512 43.6847 11.2673 42.4746 11.8724C41.2672 12.4741 41.7505 11.5088 40.543 11.5088C39.3356 11.5088 39.2143 12.1131 38.4893 12.3538C37.7635 12.5935 36.3161 12.2334 35.8328 12.5935C35.3503 12.9563 34.6253 11.7512 34.142 11.7512C33.896 11.7512 33.6823 11.0903 33.5304 10.4433C33.4441 10.4276 33.3656 10.4171 33.2966 10.4224C32.5132 10.4843 31.2124 12.5561 31.9679 13.2597C32.8744 14.1047 32.6336 15.4309 33.0541 16.0962C33.4781 16.7606 34.8094 16.8792 34.8094 18.1488C34.8094 19.4158 35.9541 21.4064 36.7401 20.8641C37.5244 20.3217 38.1282 21.1065 38.3698 21.6471C38.6115 22.1912 40.4828 21.2251 41.0883 21.3454C41.6912 21.4675 43.5616 21.8302 43.6855 22.5531C43.8051 23.2777 45.4958 22.4912 46.6431 22.0709C47.7894 21.6471 47.1247 18.2063 48.2134 17.5454ZM52.7405 34.4431C53.1025 34.9863 54.1285 34.9863 54.5525 35.3491C54.9757 35.7101 56.485 36.4948 56.485 35.4703C56.485 34.4431 52.3383 33.8388 52.7405 34.4431ZM49.7201 31.4854C49.4811 32.0295 48.4525 32.1498 47.8488 31.7261C47.2451 31.3067 46.4965 32.299 46.883 32.8125C47.0645 33.0549 48.3321 34.0202 49.8414 33.2965C51.3525 32.5736 52.3776 33.2354 52.7405 32.4515C53.1025 31.6668 49.9627 30.9431 49.7201 31.4854Z" fill="white"/>
<path d="M11.0741 16.8208L11.1901 16.8674L11.1902 16.8671L11.0741 16.8208ZM12.039 17.9674L12.1203 18.0624L12.1204 18.0623L12.039 17.9674ZM29.7336 20.9853L29.6272 21.0509L29.6273 21.051L29.7336 20.9853ZM8.11568 11.63L8.2382 11.6548L8.23832 11.6542L8.11568 11.63ZM9.38333 13.2597L9.47148 13.3483L9.47164 13.3482L9.38333 13.2597ZM53.7063 21.9505L53.6979 22.0753L53.6981 22.0753L53.7063 21.9505ZM54.31 24.1217L54.4317 24.15L54.4318 24.1499L54.31 24.1217ZM54.5517 26.4743L54.5955 26.5913L54.5955 26.5913L54.5517 26.4743ZM55.5776 24.4845L55.6543 24.3857L55.6542 24.3857L55.5776 24.4845ZM55.336 20.7437L55.4534 20.7865L55.4535 20.7864L55.336 20.7437ZM56.6647 21.5878L56.5543 21.5292L56.5542 21.5293L56.6647 21.5878ZM59.5629 23.8819L59.5257 23.7626L59.5257 23.7626L59.5629 23.8819ZM59.685 22.3115L59.593 22.3961L59.593 22.3961L59.685 22.3115ZM59.2636 19.9572L59.3331 19.8533L59.3328 19.8531L59.2636 19.9572ZM58.5971 18.2683L58.5709 18.146L58.5709 18.146L58.5971 18.2683ZM61.6777 16.0352L61.5658 16.091L61.5658 16.091L61.6777 16.0352ZM57.5101 17.2411L57.3897 17.2075L57.3896 17.2078L57.5101 17.2411ZM54.9757 15.2504L54.8523 15.2304L54.8523 15.2305L54.9757 15.2504ZM61.7379 13.741L61.79 13.6274L61.7899 13.6274L61.7379 13.741ZM65.3 11.6292L65.1895 11.5707L65.1895 11.5707L65.3 11.6292ZM63.1268 12.4741L63.059 12.3691L63.0588 12.3692L63.1268 12.4741ZM57.9943 11.9309L58.0352 11.8128L58.0352 11.8127L57.9943 11.9309ZM55.5183 12.9563L55.4989 12.8328L55.4986 12.8328L55.5183 12.9563ZM54.0692 15.975L54.0085 15.8657L54.0083 15.8658L54.0692 15.975ZM52.4395 19.8988L52.5456 19.9649L52.5457 19.9647L52.4395 19.8988ZM26.1113 23.5183L26.236 23.5096L26.236 23.5093L26.1113 23.5183ZM27.2568 20.9234L27.2838 20.8013L27.2837 20.8013L27.2568 20.9234ZM27.3179 19.6555L27.3519 19.5353L27.3517 19.5352L27.3179 19.6555ZM25.3872 18.9327L25.3745 19.057L25.375 19.0571L25.3872 18.9327ZM26.1715 19.8979L26.2863 19.9473L26.2865 19.9469L26.1715 19.8979ZM24.9039 19.537L24.9125 19.6617L24.9129 19.6616L24.9039 19.537ZM23.6353 18.4488L23.6276 18.5735L23.6277 18.5735L23.6353 18.4488ZM21.4011 15.1911L21.4851 15.2837L21.4853 15.2834L21.4011 15.1911ZM18.2603 11.3876L18.1602 11.4625L18.1604 11.4627L18.2603 11.3876ZM16.9927 10.786L16.8991 10.8688L16.8994 10.8692L16.9927 10.786ZM15.4232 10.1207L15.3741 10.0057L15.3734 10.006L15.4232 10.1207ZM13.6713 8.37065L13.5542 8.41431L13.5543 8.41455L13.6713 8.37065ZM10.2287 5.29263L10.1108 5.33416L10.1109 5.33443L10.2287 5.29263ZM7.27117 3.90447L7.27565 4.02939L7.27585 4.02938L7.27117 3.90447ZM4.612 3.11971L4.49912 3.06603L4.49881 3.06668L4.612 3.11971ZM7.39157 7.04352L7.32817 7.15126L7.32834 7.15135L7.39157 7.04352ZM10.1685 9.94017L10.1559 10.0645L10.1561 10.0646L10.1685 9.94017ZM12.4028 14.0427L12.4276 13.9202L12.4272 13.9201L12.4028 14.0427ZM15.5453 18.7504L15.4225 18.774L15.4225 18.774L15.5453 18.7504ZM18.5046 22.2522L18.6128 22.1896L18.6127 22.1894L18.5046 22.2522ZM22.1871 25.4506L22.2872 25.3756L22.2869 25.3753L22.1871 25.4506ZM23.2157 26.4751L23.3249 26.536L23.3249 26.5359L23.2157 26.4751ZM25.3889 26.537L25.4017 26.4127L25.4017 26.4127L25.3889 26.537ZM72.2454 13.8622L72.2569 13.7378L72.2568 13.7378L72.2454 13.8622ZM70.3732 11.0258L70.2722 10.9521L70.2721 10.9522L70.3732 11.0258ZM71.4585 15.4937L71.4809 15.6167L71.481 15.6166L71.4585 15.4937ZM67.2935 21.4056L67.1722 21.4358L67.1722 21.4359L67.2935 21.4056ZM69.7703 22.0709L69.8787 22.1332L69.879 22.1327L69.7703 22.0709ZM62.523 31.6075L62.5414 31.4838L62.5412 31.4838L62.523 31.6075ZM58.1749 31.9685L58.2183 31.8513L58.218 31.8512L58.1749 31.9685ZM54.3711 32.5117L54.2592 32.5676L54.2593 32.5677L54.3711 32.5117ZM57.6924 33.116L57.6878 33.2409L57.6879 33.2409L57.6924 33.116ZM61.8591 32.21L61.8658 32.3348L61.866 32.3348L61.8591 32.21ZM75.4446 20.5624L75.4078 20.6818L75.408 20.6819L75.4446 20.5624ZM71.4594 21.2861L71.578 21.2467L71.578 21.2466L71.4594 21.2861ZM43.6227 30.9431L43.4981 30.9533L43.4982 30.9536L43.6227 30.9431ZM40.0597 30.4007L40.011 30.5158L40.0112 30.5159L40.0597 30.4007ZM42.1125 29.0099L42.047 28.9035L42.0468 28.9036L42.1125 29.0099ZM39.6977 28.9524L39.7348 29.0717L39.735 29.0717L39.6977 28.9524ZM35.4699 28.4676L35.3452 28.4585L35.3452 28.4588L35.4699 28.4676ZM31.1225 27.5032L31.1952 27.4015L31.1951 27.4014L31.1225 27.5032ZM26.3503 27.2608L26.2422 27.198L26.2421 27.1983L26.3503 27.2608ZM25.3863 28.4684L25.5076 28.4382L25.5075 28.438L25.3863 28.4684ZM27.98 29.9168L27.9994 29.7933L27.9988 29.7932L27.98 29.9168ZM31.605 30.2193L31.4908 30.1685L31.4907 30.1687L31.605 30.2193ZM35.4699 31.1855L35.3918 31.2831L35.3919 31.2831L35.4699 31.1855ZM40.5422 32.0304L40.5626 32.1537L40.5627 32.1537L40.5422 32.0304ZM43.2589 32.1507L43.1567 32.0787L43.1565 32.0791L43.2589 32.1507ZM45.6755 32.2109L45.6006 32.1108L45.6006 32.1108L45.6755 32.2109ZM91.1457 17.7834L91.1376 17.6587L91.1372 17.6587L91.1457 17.7834ZM86.0132 21.5285L86.0527 21.6471L86.0529 21.6471L86.0132 21.5285ZM83.8383 16.4589L83.7374 16.5328L83.7375 16.5329L83.8383 16.4589ZM79.1908 15.8538L79.073 15.8122L79.073 15.8122L79.1908 15.8538ZM77.4372 17.1827L77.3137 17.1634L77.3137 17.1638L77.4372 17.1827ZM79.6715 19.1132L79.785 19.0608L79.785 19.0607L79.6715 19.1132ZM81.0003 20.2005L80.9697 20.3217L80.9702 20.3218L81.0003 20.2005ZM79.7911 20.5022L79.7087 20.5962L79.709 20.5965L79.7911 20.5022ZM84.5624 22.9141L84.594 22.7931L84.5938 22.7931L84.5624 22.9141ZM86.3744 23.8819L86.3689 24.0068L86.3689 24.0068L86.3744 23.8819ZM92.1098 25.8717L92.1847 25.7717L92.1846 25.7716L92.1098 25.8717ZM93.2579 28.2278L93.1663 28.3128L93.1664 28.3129L93.2579 28.2278ZM91.2644 31.6659L91.1551 31.7265L91.1551 31.7266L91.2644 31.6659ZM98.1487 33.1203L98.0792 33.2242L98.2737 33.3545V33.1203H98.1487ZM98.1487 20.2389H98.2737V20.1491L98.1886 20.1204L98.1487 20.2389ZM65.0042 33.0828L65.0787 32.9824L65.0076 32.9297L64.9343 32.9793L65.0042 33.0828ZM64.3412 33.3636L64.3135 33.2417L64.2468 33.2569L64.2236 33.3212L64.3412 33.3636ZM64.0402 33.947L63.9637 33.8481L63.9631 33.8485L64.0402 33.947ZM63.3728 33.579L63.4666 33.4963L63.4074 33.4293L63.3248 33.4635L63.3728 33.579ZM62.4018 35.8914L62.3429 36.0017L62.343 36.0017L62.4018 35.8914ZM64.965 34.4265L65.0609 34.5067L65.0612 34.5063L64.965 34.4265ZM65.2398 34.0812L65.3398 34.1563L65.2398 34.0812ZM65.4439 33.8973L65.517 33.9988L65.5208 33.9959L65.4439 33.8973ZM65.6472 33.763L65.7095 33.8714L65.8293 33.8026L65.7489 33.6902L65.6472 33.763ZM48.2134 17.5454L48.2783 17.6523L48.2787 17.652L48.2134 17.5454ZM49.4191 14.4063L49.2948 14.4187L49.2948 14.4189L49.4191 14.4063ZM52.4997 12.6546L52.4057 12.5721L52.4056 12.5723L52.4997 12.6546ZM51.1099 11.0249L51.1624 10.9114L51.1621 10.9113L51.1099 11.0249ZM50.4451 9.39694L50.5282 9.3035L50.528 9.30336L50.4451 9.39694ZM49.7821 7.58763L49.7912 7.71229L49.7919 7.71224L49.7821 7.58763ZM49.9016 6.07827L49.9613 6.18812L49.9621 6.18765L49.9016 6.07827ZM50.2043 5.92393L50.2591 6.03628L50.4874 5.92492L50.2599 5.81197L50.2043 5.92393ZM46.0969 6.92058L45.9723 6.93002L45.9723 6.93034L46.0969 6.92058ZM44.8895 8.73251L44.7657 8.74998L44.7658 8.75025L44.8895 8.73251ZM44.2858 10.6639L44.1615 10.6778L44.1616 10.678L44.2858 10.6639ZM42.4746 11.8724L42.5303 11.9843L42.5305 11.9842L42.4746 11.8724ZM38.4893 12.3538L38.5285 12.4724L38.5287 12.4724L38.4893 12.3538ZM35.8328 12.5935L35.7581 12.4933L35.7577 12.4936L35.8328 12.5935ZM33.5304 10.4433L33.6521 10.4147L33.6334 10.335L33.5528 10.3203L33.5304 10.4433ZM33.2966 10.4224L33.2872 10.2977L33.2868 10.2978L33.2966 10.4224ZM31.9679 13.2597L32.0532 13.1683L32.0531 13.1683L31.9679 13.2597ZM33.0541 16.0962L32.9484 16.163L32.9487 16.1634L33.0541 16.0962ZM36.7401 20.8641L36.8111 20.967L36.8112 20.9669L36.7401 20.8641ZM38.3698 21.6471L38.4841 21.5964L38.4839 21.5961L38.3698 21.6471ZM41.0883 21.3454L41.1131 21.2229L41.1127 21.2228L41.0883 21.3454ZM43.6855 22.5531L43.8089 22.5327L43.8087 22.5319L43.6855 22.5531ZM46.6431 22.0709L46.6861 22.1882L46.6864 22.1881L46.6431 22.0709ZM52.7405 34.4431L52.6364 34.5124L52.6365 34.5124L52.7405 34.4431ZM54.5525 35.3491L54.4713 35.444L54.4714 35.4442L54.5525 35.3491ZM49.7201 31.4854L49.606 31.4344L49.6057 31.4351L49.7201 31.4854ZM47.8488 31.7261L47.9206 31.6238L47.9201 31.6234L47.8488 31.7261ZM46.883 32.8125L46.9831 32.7376L46.9829 32.7374L46.883 32.8125ZM49.8414 33.2965L49.7875 33.1837L49.7874 33.1838L49.8414 33.2965ZM52.7405 32.4515L52.8539 32.5041L52.854 32.5039L52.7405 32.4515ZM10.9581 16.7742C10.9316 16.8403 10.9311 16.9167 10.9396 16.9862C10.9485 17.0584 10.9688 17.1377 10.9967 17.2182C11.0525 17.3792 11.1427 17.5571 11.2506 17.7131C11.3571 17.867 11.4888 18.0112 11.6324 18.0917C11.7052 18.1326 11.7871 18.1605 11.8736 18.1591C11.9627 18.1577 12.0468 18.1253 12.1203 18.0624L11.9577 17.8725C11.9258 17.8998 11.897 17.9087 11.8696 17.9091C11.8397 17.9096 11.8015 17.9 11.7547 17.8737C11.659 17.82 11.5533 17.7112 11.4562 17.5709C11.3605 17.4326 11.2809 17.2749 11.2329 17.1363C11.2089 17.0671 11.1939 17.0056 11.1878 16.9558C11.1814 16.9033 11.1865 16.8763 11.1901 16.8674L10.9581 16.7742ZM12.1204 18.0623C12.2028 17.9917 12.2432 17.8934 12.2585 17.7934C12.2737 17.6938 12.2655 17.5841 12.2432 17.4754C12.1987 17.258 12.0932 17.0212 11.9617 16.8288C11.8344 16.6426 11.6633 16.4699 11.4748 16.4242C11.3732 16.3996 11.2672 16.4124 11.1719 16.4776C11.0807 16.5399 11.0108 16.6421 10.958 16.7745L11.1902 16.8671C11.2327 16.7606 11.2777 16.7081 11.3129 16.684C11.344 16.6627 11.376 16.6575 11.4159 16.6671C11.5103 16.69 11.6361 16.7955 11.7553 16.9699C11.8704 17.1383 11.9612 17.3446 11.9983 17.5256C12.0168 17.616 12.0207 17.6944 12.0113 17.7557C12.002 17.8167 11.9812 17.8523 11.9576 17.8725L12.1204 18.0623ZM30.9457 20.5013C30.9457 20.4004 30.9084 20.3141 30.8448 20.248C30.7834 20.1842 30.7025 20.1438 30.6191 20.1199C30.4532 20.0723 30.2489 20.081 30.0665 20.1326C29.8855 20.1837 29.7024 20.2841 29.5997 20.4431C29.4895 20.6139 29.4886 20.8261 29.6272 21.0509L29.84 20.9197C29.7431 20.7625 29.7604 20.6552 29.8098 20.5787C29.8668 20.4904 29.9848 20.4154 30.1345 20.3731C30.2827 20.3312 30.4385 20.3281 30.5501 20.3602C30.6054 20.376 30.6425 20.3983 30.6645 20.4212C30.6843 20.4418 30.6957 20.4663 30.6957 20.5013H30.9457ZM29.6273 21.051C29.7577 21.262 29.9085 21.3916 30.0748 21.4366C30.2441 21.4823 30.403 21.4332 30.5311 21.3417C30.7786 21.1649 30.9457 20.8086 30.9457 20.5013H30.6957C30.6957 20.7365 30.5609 21.0132 30.3857 21.1383C30.3025 21.1977 30.2198 21.2168 30.14 21.1952C30.0571 21.1728 29.9513 21.0997 29.84 20.9196L29.6273 21.051ZM7.99317 11.6052C7.95732 11.7823 7.98057 12.0256 8.03853 12.2696C8.09729 12.517 8.19551 12.781 8.32299 13.0039C8.44819 13.2229 8.61218 13.4208 8.81131 13.5088C8.91414 13.5543 9.02669 13.5704 9.14348 13.5435C9.25901 13.517 9.36863 13.4506 9.47148 13.3483L9.29517 13.1711C9.21656 13.2493 9.14664 13.2863 9.08741 13.2999C9.02943 13.3133 8.97198 13.3065 8.9124 13.2802C8.78671 13.2246 8.65627 13.0831 8.54002 12.8798C8.42605 12.6805 8.33583 12.4395 8.28177 12.2119C8.22692 11.981 8.21298 11.7794 8.2382 11.6548L7.99317 11.6052ZM9.47164 13.3482C9.69593 13.1243 9.71233 12.8408 9.62681 12.5774C9.54281 12.3187 9.35821 12.0656 9.1537 11.8622C8.94935 11.6589 8.71205 11.4923 8.50932 11.4157C8.41009 11.3782 8.30181 11.3556 8.20487 11.3784C8.15378 11.3904 8.10493 11.4154 8.06577 11.4574C8.02691 11.499 8.00394 11.5506 7.99305 11.6059L8.23832 11.6542C8.24204 11.6354 8.24744 11.6291 8.24855 11.6279C8.24937 11.6271 8.25211 11.6241 8.26211 11.6218C8.28734 11.6158 8.33917 11.6187 8.42098 11.6496C8.5803 11.7097 8.7887 11.8517 8.97739 12.0394C9.1659 12.2269 9.32166 12.4472 9.38903 12.6546C9.45488 12.8574 9.43366 13.0329 9.29501 13.1713L9.47164 13.3482ZM53.6981 22.0753C53.8897 22.0878 54.0188 22.165 54.1096 22.2815C54.2041 22.4025 54.2633 22.5743 54.292 22.7815C54.3493 23.1965 54.2777 23.7069 54.1882 24.0935L54.4318 24.1499C54.5237 23.7526 54.6031 23.2071 54.5396 22.7473C54.5078 22.5171 54.4387 22.2968 54.3067 22.1277C54.1711 21.9539 53.9757 21.8429 53.7144 21.8258L53.6981 22.0753ZM54.1882 24.0934C54.097 24.4862 53.9573 25.1589 53.9414 25.6995C53.9336 25.965 53.9544 26.2227 54.0437 26.3984C54.0903 26.49 54.1606 26.5692 54.2636 26.6074C54.3658 26.6454 54.479 26.635 54.5955 26.5913L54.5078 26.3572C54.427 26.3875 54.3788 26.3835 54.3506 26.373C54.3232 26.3629 54.2939 26.3389 54.2666 26.2851C54.2081 26.17 54.1836 25.9682 54.1913 25.7068C54.2064 25.1934 54.3407 24.542 54.4317 24.15L54.1882 24.0934ZM54.5955 26.5913C55.1103 26.3983 55.5252 25.9829 55.7416 25.5587C55.85 25.3463 55.9126 25.1239 55.9073 24.9192C55.9018 24.7119 55.8257 24.5188 55.6543 24.3857L55.501 24.5832C55.6013 24.6611 55.6535 24.777 55.6574 24.9258C55.6613 25.0772 55.6144 25.258 55.519 25.4451C55.3277 25.8199 54.9579 26.1884 54.5078 26.3572L54.5955 26.5913ZM55.6542 24.3857C55.6099 24.3513 55.5618 24.2854 55.5156 24.1797C55.4703 24.0758 55.4311 23.9437 55.3987 23.7893C55.3338 23.4805 55.2984 23.0963 55.2873 22.7005C55.2762 22.3054 55.2894 21.903 55.3201 21.5592C55.3511 21.2118 55.3992 20.9356 55.4534 20.7865L55.2185 20.701C55.1524 20.8828 55.1024 21.1869 55.0711 21.537C55.0395 21.8907 55.026 22.3029 55.0374 22.7075C55.0488 23.1115 55.0849 23.5119 55.154 23.8407C55.1885 24.005 55.232 24.1549 55.2865 24.2797C55.3402 24.4027 55.4093 24.5121 55.501 24.5832L55.6542 24.3857ZM55.4535 20.7864C55.4943 20.6738 55.5953 20.6002 55.7443 20.5733C55.8947 20.5461 56.0787 20.571 56.2439 20.6451C56.409 20.7192 56.5422 20.8362 56.6066 20.9803C56.6689 21.1195 56.675 21.3016 56.5543 21.5292L56.7751 21.6464C56.9266 21.3609 56.9329 21.0976 56.8348 20.8782C56.7389 20.6638 56.5512 20.509 56.3463 20.4171C56.1414 20.3252 55.9063 20.2899 55.6998 20.3273C55.492 20.3649 55.2985 20.4806 55.2185 20.7011L55.4535 20.7864ZM56.5542 21.5293C56.4064 21.8086 56.39 22.0361 56.4825 22.2332C56.5686 22.4167 56.7407 22.5505 56.8993 22.6683C57.2339 22.9169 57.5657 23.1376 57.5657 23.6404H57.8157C57.8157 22.9931 57.3627 22.7011 57.0484 22.4676C56.8826 22.3445 56.7642 22.245 56.7089 22.127C56.6599 22.0227 56.6512 21.8806 56.7752 21.6463L56.5542 21.5293ZM57.5657 23.6404C57.5657 23.9368 57.6231 24.1563 57.7589 24.292C57.8994 24.4323 58.0913 24.4521 58.2804 24.4276C58.4696 24.4031 58.6855 24.3305 58.9056 24.2498C59.1305 24.1674 59.3624 24.0755 59.6001 24.0013L59.5257 23.7626C59.2801 23.8392 59.0363 23.9357 58.8195 24.0151C58.5979 24.0963 58.4062 24.1592 58.2482 24.1797C58.09 24.2002 57.9951 24.1746 57.9356 24.1151C57.8715 24.0511 57.8157 23.9165 57.8157 23.6404H57.5657ZM59.6001 24.0013C59.851 23.923 60.0419 23.8249 60.1704 23.7009C60.3031 23.5729 60.3657 23.4204 60.361 23.2512C60.3565 23.0883 60.2901 22.9212 60.1894 22.7547C60.088 22.5872 59.946 22.4106 59.777 22.2269L59.593 22.3961C59.7565 22.5739 59.8863 22.7366 59.9755 22.8841C60.0654 23.0327 60.1083 23.1564 60.1111 23.2581C60.1138 23.3535 60.0816 23.4392 59.9969 23.521C59.9079 23.6068 59.7585 23.69 59.5257 23.7626L59.6001 24.0013ZM59.7771 22.227C59.4968 21.9219 59.5912 21.5594 59.6865 21.1159C59.7316 20.9063 59.7752 20.6774 59.7412 20.459C59.7057 20.2309 59.5874 20.0232 59.3331 19.8533L59.1942 20.0612C59.3922 20.1934 59.4697 20.3406 59.4942 20.4975C59.5201 20.6641 59.4879 20.8503 59.4421 21.0633C59.3558 21.4649 59.2084 21.9775 59.593 22.3961L59.7771 22.227ZM59.3328 19.8531C58.8883 19.558 58.531 19.1962 58.386 18.9002C58.3131 18.7513 58.3048 18.6423 58.3336 18.5705C58.36 18.5045 58.4338 18.4312 58.6234 18.3905L58.5709 18.146C58.3382 18.196 58.1709 18.304 58.1014 18.4777C58.0344 18.6455 58.0755 18.8346 58.1615 19.0101C58.3343 19.3628 58.7326 19.7548 59.1945 20.0614L59.3328 19.8531ZM58.6233 18.3905C58.8503 18.3419 59.1785 18.2119 59.5327 18.04C59.8894 17.867 60.2809 17.6474 60.6365 17.4142C60.9908 17.1818 61.3154 16.9321 61.5338 16.6981C61.6427 16.5814 61.731 16.4626 61.7812 16.3462C61.8318 16.2292 61.8495 16.0995 61.7895 15.9793L61.5658 16.091C61.5811 16.1215 61.5855 16.1689 61.5517 16.2471C61.5176 16.3261 61.4507 16.4207 61.3511 16.5275C61.1525 16.7403 60.8469 16.9772 60.4994 17.2051C60.1531 17.4322 59.771 17.6465 59.4236 17.8151C59.0738 17.9848 58.7675 18.1039 58.5709 18.146L58.6233 18.3905ZM61.7895 15.9794C61.7278 15.8556 61.5958 15.7874 61.4584 15.7485C61.3161 15.7081 61.1382 15.6907 60.9417 15.6906C60.5477 15.6905 60.054 15.7604 59.5639 15.8828C59.0737 16.0053 58.5795 16.1822 58.186 16.4002C57.8 16.614 57.4798 16.8843 57.3897 17.2075L57.6305 17.2747C57.6917 17.0551 57.9304 16.8276 58.3071 16.6189C58.6761 16.4145 59.1483 16.2443 59.6245 16.1254C60.1007 16.0064 60.5733 15.9405 60.9417 15.9406C61.1264 15.9407 61.2788 15.9574 61.3903 15.989C61.5067 16.022 61.5521 16.0634 61.5658 16.091L61.7895 15.9794ZM57.3896 17.2078C57.3594 17.3171 57.3034 17.3915 57.2317 17.441C57.1583 17.4916 57.0604 17.5214 56.9404 17.5259C56.6979 17.5349 56.3869 17.439 56.0838 17.2478C55.4772 16.8652 54.9586 16.1396 55.0991 15.2703L54.8523 15.2305C54.6908 16.2298 55.2894 17.0423 55.9504 17.4593C56.2811 17.6679 56.6416 17.7872 56.9497 17.7757C57.1048 17.7699 57.252 17.7306 57.3736 17.6468C57.4968 17.5618 57.5857 17.4365 57.6305 17.2744L57.3896 17.2078ZM55.0991 15.2704C55.1655 14.8598 55.4935 14.5162 56.0143 14.2425C56.5324 13.9703 57.2174 13.7808 57.9459 13.6687C58.6731 13.5569 59.4361 13.5233 60.1059 13.5586C60.7794 13.5942 61.3453 13.6988 61.6858 13.8547L61.7899 13.6274C61.4059 13.4516 60.8021 13.345 60.1191 13.309C59.4324 13.2727 58.6523 13.3071 57.9079 13.4216C57.1647 13.536 56.4498 13.7313 55.898 14.0212C55.349 14.3096 54.9372 14.7054 54.8523 15.2304L55.0991 15.2704ZM61.6857 13.8547C62.4727 14.2157 63.2783 13.9129 63.9344 13.419C64.5926 12.9234 65.1319 12.2141 65.4105 11.6876L65.1895 11.5707C64.9255 12.0697 64.4087 12.7489 63.784 13.2193C63.1571 13.6912 62.453 13.9316 61.79 13.6274L61.6857 13.8547ZM65.4105 11.6877C65.4798 11.5567 65.5242 11.4431 65.5298 11.3507C65.5328 11.3024 65.5259 11.2474 65.4936 11.1991C65.4596 11.1482 65.4093 11.1223 65.3606 11.1119C65.2746 11.0936 65.1727 11.1191 65.0805 11.152C64.9818 11.1873 64.8673 11.2415 64.7442 11.3069C64.2551 11.567 63.5666 12.0413 63.059 12.3691L63.1946 12.5791C63.7147 12.2433 64.385 11.7811 64.8616 11.5276C64.98 11.4647 65.0824 11.4169 65.1646 11.3875C65.2535 11.3557 65.2968 11.3539 65.3086 11.3564C65.3089 11.3565 65.2958 11.353 65.2857 11.338C65.2774 11.3255 65.2813 11.3198 65.2803 11.3355C65.2781 11.3712 65.2563 11.4446 65.1895 11.5707L65.4105 11.6877ZM63.0588 12.3692C62.8297 12.5177 62.4939 12.5953 62.0821 12.6128C61.6729 12.6302 61.2028 12.588 60.7169 12.5094C59.7453 12.3522 58.726 12.0524 58.0352 11.8128L57.9533 12.049C58.6523 12.2915 59.6863 12.5959 60.677 12.7562C61.1722 12.8363 61.6605 12.881 62.0927 12.8626C62.5223 12.8443 62.9108 12.7631 63.1948 12.579L63.0588 12.3692ZM58.0352 11.8127C57.6713 11.6866 57.3875 11.674 57.1485 11.7425C56.911 11.8105 56.7345 11.9542 56.5788 12.1058C56.2604 12.4159 56.0232 12.7504 55.4989 12.8328L55.5377 13.0798C56.1615 12.9817 56.4679 12.5628 56.7532 12.2849C56.8994 12.1426 57.0398 12.0337 57.2173 11.9828C57.3933 11.9324 57.6228 11.9344 57.9533 12.049L58.0352 11.8127ZM55.4986 12.8328C55.1596 12.887 54.9323 13.1156 54.7748 13.4026C54.6183 13.6875 54.521 14.0459 54.4452 14.3946C54.3672 14.7534 54.314 15.0889 54.2424 15.3711C54.2073 15.5095 54.1702 15.6245 54.1279 15.7118C54.0848 15.801 54.0434 15.8463 54.0085 15.8657L54.1299 16.0843C54.2309 16.0282 54.3008 15.9284 54.353 15.8206C54.4061 15.7109 54.4481 15.5769 54.4848 15.4325C54.5566 15.149 54.6166 14.7831 54.6895 14.4477C54.7646 14.1023 54.856 13.7741 54.9939 13.5229C55.1306 13.2739 55.3034 13.1172 55.538 13.0797L55.4986 12.8328ZM54.0083 15.8658C53.8293 15.9656 53.7144 16.1797 53.6207 16.4254C53.5246 16.6774 53.4377 17.0018 53.3369 17.3603C53.1334 18.0834 52.8659 18.9736 52.3333 19.833L52.5457 19.9647C53.0984 19.0731 53.3735 18.1532 53.5775 17.428C53.6804 17.0623 53.7634 16.753 53.8543 16.5144C53.9477 16.2695 54.0369 16.1361 54.1301 16.0842L54.0083 15.8658ZM52.3334 19.8327C52.0554 20.2791 51.9291 20.645 51.9256 20.9469C51.9221 21.2562 52.0477 21.4871 52.244 21.6529C52.4353 21.8144 52.6891 21.911 52.9439 21.9717C53.2002 22.0327 53.4688 22.0598 53.6979 22.0753L53.7147 21.8258C53.4905 21.8107 53.2381 21.7847 53.0018 21.7285C52.7639 21.6718 52.5536 21.5871 52.4053 21.4619C52.2622 21.341 52.173 21.1796 52.1756 20.9498C52.1783 20.7127 52.2792 20.3927 52.5456 19.9649L52.3334 19.8327ZM26.236 23.5093C26.2068 23.1063 26.2785 22.6989 26.3609 22.3317C26.4005 22.1548 26.4465 21.9714 26.4788 21.8223C26.5119 21.6698 26.5373 21.5261 26.5373 21.4056H26.2873C26.2873 21.497 26.2674 21.6178 26.2345 21.7693C26.2009 21.9242 26.1601 22.0842 26.1169 22.277C26.0335 22.6492 25.9547 23.0862 25.9866 23.5273L26.236 23.5093ZM26.5373 21.4056C26.5373 21.2272 26.5989 21.1251 26.6937 21.0702C26.7977 21.01 26.9717 20.9886 27.2299 21.0455L27.2837 20.8013C26.9992 20.7387 26.751 20.7482 26.5684 20.8539C26.3766 20.9649 26.2873 21.1636 26.2873 21.4056H26.5373ZM27.2298 21.0454C27.3214 21.0657 27.4087 21.058 27.4864 21.0215C27.5629 20.9855 27.6202 20.9261 27.662 20.8589C27.7435 20.7275 27.7756 20.5502 27.7758 20.3798C27.776 20.2072 27.7435 20.0242 27.6792 19.8726C27.6172 19.726 27.5128 19.5808 27.3519 19.5353L27.2838 19.7758C27.3354 19.7904 27.3977 19.8488 27.449 19.9701C27.4983 20.0863 27.526 20.2353 27.5258 20.3796C27.5257 20.5262 27.4969 20.6508 27.4496 20.727C27.4268 20.7636 27.4028 20.7845 27.3799 20.7953C27.3583 20.8055 27.3283 20.8112 27.2838 20.8013L27.2298 21.0454ZM27.3517 19.5352C27.3301 19.5291 27.299 19.5108 27.2576 19.4663C27.2169 19.4225 27.1738 19.3618 27.1263 19.2852C27.0791 19.2089 27.0306 19.122 26.9773 19.027C26.9246 18.9329 26.8678 18.8317 26.8059 18.7311C26.5624 18.3357 26.2126 17.9017 25.6262 17.9017V18.1517C26.0684 18.1517 26.3533 18.4729 26.593 18.8622C26.6518 18.9578 26.7063 19.0547 26.7592 19.1491C26.8116 19.2426 26.863 19.3349 26.9138 19.4168C26.9643 19.4984 27.0174 19.5752 27.0746 19.6367C27.1313 19.6975 27.2001 19.7523 27.2841 19.7759L27.3517 19.5352ZM25.6262 17.9017C25.3546 17.9017 25.1463 17.9574 25.001 18.0562C24.8525 18.1572 24.7754 18.3003 24.7703 18.4523C24.7604 18.7494 25.0198 19.0208 25.3745 19.057L25.3999 18.8083C25.1491 18.7827 25.0155 18.6011 25.0202 18.4607C25.0224 18.3939 25.0545 18.3222 25.1416 18.2629C25.2318 18.2016 25.3853 18.1517 25.6262 18.1517V17.9017ZM25.375 19.0571C25.6472 19.0838 25.8557 19.2051 25.9753 19.3567C26.0943 19.5075 26.1259 19.686 26.0565 19.849L26.2865 19.9469C26.3968 19.6878 26.3386 19.4134 26.1716 19.2019C26.0053 18.9912 25.7317 18.8409 25.3994 18.8083L25.375 19.0571ZM26.0567 19.8486C26.0373 19.8935 26.0255 19.9003 26.0293 19.8978C26.0415 19.8894 26.0551 19.8923 26.0526 19.8915C26.0433 19.8886 26.0237 19.8788 25.9878 19.8524C25.9528 19.8266 25.915 19.7951 25.865 19.7552C25.6706 19.5998 25.367 19.3782 24.8949 19.4123L24.9129 19.6616C25.287 19.6346 25.5265 19.8046 25.7089 19.9505C25.7532 19.9858 25.7993 20.024 25.8398 20.0538C25.8794 20.083 25.9273 20.1145 25.9791 20.1305C26.0379 20.1485 26.1066 20.1476 26.17 20.1044C26.2249 20.067 26.2603 20.0079 26.2863 19.9473L26.0567 19.8486ZM24.8953 19.4123C24.713 19.4248 24.6298 19.3764 24.578 19.3174C24.5152 19.2459 24.4808 19.142 24.4327 18.9975C24.3883 18.8642 24.3327 18.7 24.2149 18.5686C24.0914 18.4307 23.9114 18.3405 23.643 18.324L23.6277 18.5735C23.8422 18.5867 23.9563 18.6546 24.0288 18.7354C24.107 18.8228 24.1494 18.9379 24.1955 19.0765C24.2379 19.2039 24.2866 19.3646 24.3902 19.4824C24.5047 19.6127 24.6712 19.6783 24.9125 19.6617L24.8953 19.4123ZM23.6431 18.324C23.4468 18.3118 23.3073 18.2163 23.1879 18.0635C23.0641 17.905 22.9705 17.696 22.8664 17.4686C22.7659 17.2489 22.6552 17.0113 22.4987 16.8304C22.3369 16.6433 22.1226 16.5127 21.8224 16.5127V16.7627C22.037 16.7627 22.186 16.851 22.3096 16.994C22.4388 17.1433 22.5359 17.3471 22.6391 17.5727C22.7389 17.7906 22.8451 18.0306 22.9909 18.2173C23.1411 18.4097 23.341 18.5557 23.6276 18.5735L23.6431 18.324ZM21.8224 16.5127C21.5817 16.5127 21.4108 16.4631 21.297 16.3909C21.1855 16.3201 21.123 16.2243 21.1 16.1147C21.0527 15.8889 21.1706 15.5691 21.4851 15.2837L21.317 15.0985C20.9676 15.4157 20.7827 15.8192 20.8554 16.166C20.8924 16.3427 20.9956 16.4956 21.163 16.6019C21.3282 16.7068 21.5497 16.7627 21.8224 16.7627V16.5127ZM21.4853 15.2834C21.5812 15.196 21.6445 15.1004 21.669 14.9949C21.6938 14.8885 21.6755 14.7869 21.6346 14.6945C21.5568 14.5187 21.3864 14.3547 21.2193 14.2062C21.0432 14.0497 20.8624 13.9034 20.7202 13.7478C20.5773 13.5914 20.4992 13.4519 20.4992 13.3199H20.2492C20.2492 13.5493 20.3824 13.7487 20.5356 13.9164C20.6895 14.0849 20.8897 14.2478 21.0532 14.3931C21.2257 14.5464 21.3535 14.6769 21.406 14.7957C21.4303 14.8506 21.4353 14.8963 21.4255 14.9383C21.4156 14.9812 21.3867 15.035 21.3168 15.0988L21.4853 15.2834ZM20.4992 13.3199C20.4992 13.1 20.4135 12.9513 20.2765 12.8547C20.1512 12.7663 19.9908 12.7284 19.8582 12.699C19.7134 12.6668 19.6003 12.6442 19.5185 12.5987C19.4811 12.5778 19.4566 12.5553 19.4408 12.5299C19.4254 12.5051 19.413 12.4692 19.413 12.413H19.163C19.163 12.5081 19.1846 12.5914 19.2286 12.662C19.2722 12.7321 19.3326 12.7813 19.397 12.8171C19.5188 12.8849 19.6773 12.9149 19.804 12.943C19.943 12.9739 20.0542 13.0038 20.1325 13.059C20.1992 13.1061 20.2492 13.1766 20.2492 13.3199H20.4992ZM19.413 12.413C19.413 12.2463 19.3795 12.1208 19.302 12.0233C19.2282 11.9303 19.1255 11.8785 19.0327 11.834C18.8459 11.7446 18.6134 11.6493 18.3602 11.3125L18.1604 11.4627C18.4525 11.8514 18.7338 11.9681 18.9246 12.0595C19.0206 12.1055 19.0726 12.1364 19.1062 12.1788C19.1363 12.2165 19.163 12.279 19.163 12.413H19.413ZM18.3604 11.3127C18.2173 11.1215 18.0852 11.0101 17.953 10.9505C17.8195 10.8903 17.6994 10.8895 17.5994 10.8936C17.4951 10.8978 17.4261 10.9051 17.3493 10.8855C17.2792 10.8677 17.194 10.8238 17.0859 10.7027L16.8994 10.8692C17.033 11.0189 17.1593 11.0951 17.2876 11.1278C17.4091 11.1587 17.5252 11.1468 17.6097 11.1434C17.6985 11.1397 17.7708 11.1426 17.8502 11.1784C17.9311 11.2148 18.0325 11.2919 18.1602 11.4625L18.3604 11.3127ZM17.0863 10.7031C16.8349 10.4192 16.5338 10.1959 16.2356 10.0669C15.9405 9.93913 15.63 9.89653 15.3741 10.0057L15.4722 10.2356C15.6394 10.1643 15.8729 10.1823 16.1363 10.2963C16.3967 10.409 16.6688 10.6087 16.8991 10.8688L17.0863 10.7031ZM15.3734 10.006C15.3206 10.0289 15.2252 10.024 15.0794 9.94905C14.939 9.8769 14.7775 9.7523 14.613 9.58788C14.2841 9.25914 13.9624 8.79064 13.7884 8.32675L13.5543 8.41455C13.7423 8.91592 14.0854 9.41398 14.4363 9.76471C14.6117 9.94003 14.7939 10.0834 14.9651 10.1714C15.1307 10.2566 15.3145 10.304 15.4729 10.2353L15.3734 10.006ZM13.7884 8.32698C13.744 8.2077 13.6558 8.08904 13.5468 7.9736C13.4365 7.85671 13.2974 7.73527 13.1412 7.61122C12.8296 7.36361 12.4379 7.09599 12.0505 6.82501C11.6605 6.55226 11.2736 6.27521 10.9618 6.00365C10.6462 5.72864 10.4258 5.47433 10.3465 5.25083L10.1109 5.33443C10.2135 5.62364 10.4786 5.9142 10.7976 6.19215C11.1206 6.47355 11.5178 6.75755 11.9072 7.02987C12.299 7.30398 12.6818 7.56548 12.9857 7.80696C13.1374 7.92745 13.2663 8.04054 13.365 8.14518C13.4651 8.25126 13.5269 8.3411 13.5542 8.41431L13.7884 8.32698ZM10.3466 5.2511C10.1547 4.70637 9.79905 4.31821 9.27803 4.07764C8.76224 3.83948 8.09079 3.74869 7.26649 3.77956L7.27585 4.02938C8.08125 3.99922 8.70798 4.08979 9.17323 4.30461C9.63326 4.51702 9.94149 4.85346 10.1108 5.33416L10.3466 5.2511ZM7.26669 3.77955C6.49826 3.8071 5.96054 3.43299 5.54931 3.12934C5.44784 3.05442 5.35074 2.98137 5.26205 2.92276C5.17413 2.86467 5.08431 2.81373 4.99543 2.78827C4.90271 2.76171 4.8032 2.76092 4.7088 2.81409C4.61918 2.86456 4.55258 2.95359 4.49912 3.06603L4.72489 3.17339C4.76783 3.08309 4.8057 3.04643 4.83148 3.03192C4.85246 3.0201 4.87924 3.01504 4.92658 3.0286C4.97775 3.04326 5.04174 3.07684 5.12422 3.13134C5.20593 3.18533 5.29583 3.25295 5.40081 3.33046C5.81533 3.63653 6.41438 4.06027 7.27565 4.02939L7.26669 3.77955ZM4.49881 3.06668C4.35519 3.37326 4.4219 3.7522 4.58382 4.1307C4.74788 4.5142 5.02178 4.92598 5.33883 5.31901C5.97187 6.10374 6.79807 6.83931 7.32817 7.15126L7.45496 6.93579C6.95821 6.64347 6.15384 5.93115 5.53341 5.16205C5.22374 4.77816 4.96518 4.38654 4.81367 4.03237C4.66001 3.67319 4.62803 3.38017 4.7252 3.17273L4.49881 3.06668ZM7.32834 7.15135C7.56266 7.28876 7.77679 7.52088 7.98778 7.80697C8.19908 8.0935 8.39634 8.41831 8.60709 8.74017C8.815 9.05768 9.03452 9.36966 9.28199 9.6103C9.5303 9.85174 9.81569 10.0302 10.1559 10.0645L10.1811 9.81581C9.91718 9.78914 9.68162 9.65017 9.45628 9.43106C9.2301 9.21114 9.02327 8.91939 8.81624 8.60321C8.61204 8.29137 8.40574 7.95252 8.18898 7.65859C7.9719 7.36423 7.73346 7.09911 7.4548 6.9357L7.32834 7.15135ZM10.1561 10.0646C10.3899 10.0878 10.5968 10.2928 10.7897 10.6642C10.9788 11.0283 11.1323 11.5093 11.2797 12.0045C11.4253 12.494 11.5653 12.9987 11.7258 13.3899C11.8062 13.5859 11.8948 13.7612 11.9967 13.8952C12.098 14.0285 12.2227 14.1343 12.3784 14.1653L12.4272 13.9201C12.3563 13.906 12.279 13.8535 12.1957 13.7439C12.1129 13.6351 12.0341 13.4828 11.9571 13.295C11.8028 12.9189 11.6677 12.4318 11.5193 11.9332C11.3727 11.4404 11.2132 10.9372 11.0116 10.549C10.8137 10.168 10.5522 9.85271 10.1809 9.81579L10.1561 10.0646ZM12.3781 14.1653C12.4662 14.1831 12.5787 14.2378 12.7125 14.3346C12.8447 14.4302 12.9901 14.5613 13.1436 14.7216C13.4506 15.0421 13.7823 15.4715 14.0969 15.9464C14.7285 16.8998 15.2767 18.0144 15.4225 18.774L15.6681 18.7269C15.5129 17.9187 14.9431 16.7711 14.3053 15.8083C13.9852 15.3252 13.6444 14.883 13.3242 14.5486C13.1641 14.3815 13.0073 14.2392 12.859 14.132C12.7123 14.0259 12.566 13.9482 12.4276 13.9202L12.3781 14.1653ZM15.4225 18.774C15.5823 19.6051 16.187 20.2185 16.8064 20.7548C17.1226 21.0286 17.4345 21.2755 17.7193 21.5347C18.0014 21.7912 18.2396 22.045 18.3965 22.3151L18.6127 22.1894C18.4363 21.8861 18.1757 21.6118 17.8876 21.3497C17.6022 21.0901 17.2726 20.8278 16.97 20.5658C16.3518 20.0304 15.8102 19.4662 15.6681 18.7269L15.4225 18.774ZM18.3964 22.3148C18.5721 22.6184 18.8741 22.942 19.2246 23.2602C19.5769 23.58 19.986 23.9016 20.3832 24.2005C20.582 24.35 20.7783 24.4943 20.9633 24.63C21.1486 24.7659 21.3223 24.893 21.4768 25.0089C21.6315 25.1249 21.7655 25.2287 21.8715 25.3177C21.9795 25.4084 22.0512 25.4779 22.0873 25.5258L22.2869 25.3753C22.2323 25.3029 22.1415 25.218 22.0323 25.1262C21.9209 25.0327 21.7826 24.9258 21.6269 24.8089C21.471 24.692 21.296 24.5639 21.1112 24.4284C20.9262 24.2927 20.731 24.1492 20.5335 24.0007C20.1384 23.7034 19.7364 23.3872 19.3927 23.0751C19.0473 22.7615 18.7686 22.4589 18.6128 22.1896L18.3964 22.3148ZM22.0871 25.5255C22.1715 25.6383 22.2581 25.7892 22.3483 25.9514C22.4365 26.11 22.5283 26.2796 22.6187 26.4165C22.6641 26.4854 22.7115 26.5497 22.7606 26.6025C22.8087 26.654 22.8655 26.7022 22.9314 26.7285C23.003 26.757 23.0826 26.7581 23.1585 26.7171C23.2279 26.6797 23.2814 26.6139 23.3249 26.536L23.1066 26.4142C23.0741 26.4724 23.0498 26.4917 23.0398 26.4971C23.0363 26.499 23.0349 26.5006 23.024 26.4963C23.0074 26.4897 22.9804 26.4716 22.9435 26.432C22.9077 26.3936 22.869 26.342 22.8273 26.2789C22.7436 26.152 22.6578 25.9936 22.5667 25.8298C22.4776 25.6697 22.3833 25.504 22.2872 25.3756L22.0871 25.5255ZM23.3249 26.5359C23.3745 26.4469 23.4666 26.3923 23.6153 26.371C23.7661 26.3494 23.9559 26.3655 24.1672 26.4026C24.3771 26.4395 24.5968 26.4949 24.807 26.5464C25.0134 26.597 25.2148 26.6449 25.3762 26.6614L25.4017 26.4127C25.2608 26.3983 25.0771 26.3552 24.8665 26.3036C24.6597 26.2529 24.4305 26.195 24.2104 26.1564C23.9916 26.1179 23.7704 26.0963 23.5799 26.1236C23.3873 26.1512 23.2079 26.2322 23.1065 26.4143L23.3249 26.5359ZM25.3761 26.6614C25.495 26.6736 25.5975 26.6268 25.6794 26.5522C25.7589 26.4798 25.8235 26.3779 25.8772 26.2636C25.985 26.0343 26.0643 25.7213 26.1213 25.3892C26.2356 24.7234 26.2664 23.9432 26.236 23.5096L25.9866 23.5271C26.0155 23.9392 25.9861 24.6993 25.8749 25.3469C25.8192 25.6716 25.7444 25.9585 25.651 26.1573C25.6041 26.2569 25.5564 26.3261 25.5111 26.3674C25.4681 26.4065 25.4333 26.416 25.4017 26.4127L25.3761 26.6614ZM72.234 13.9867C72.5708 14.0177 72.8135 13.9949 72.9776 13.9069C73.0631 13.861 73.1262 13.7979 73.1677 13.72C73.2084 13.6439 73.2251 13.5602 73.2294 13.4767C73.2376 13.3148 73.1993 13.1239 73.1645 12.9395C73.1283 12.748 73.0928 12.5515 73.0928 12.3538H72.8428C72.8428 12.5781 72.883 12.7963 72.9188 12.9859C72.956 13.1826 72.9861 13.3389 72.9797 13.4639C72.9766 13.5239 72.9653 13.5685 72.9472 13.6023C72.9301 13.6343 72.9038 13.6628 72.8593 13.6866C72.7634 13.7381 72.5839 13.7678 72.2569 13.7378L72.234 13.9867ZM73.0928 12.3538C73.0928 12.2339 73.0714 12.1313 73.0263 12.0466C72.9803 11.9603 72.9135 11.9002 72.836 11.8608C72.689 11.7861 72.5065 11.7883 72.3556 11.7997C72.2784 11.8055 72.1984 11.8149 72.1313 11.8215C72.061 11.8284 72.0026 11.8325 71.9557 11.8306C71.9058 11.8285 71.8874 11.8201 71.8838 11.8176C71.8836 11.8175 71.8843 11.818 71.8854 11.8192C71.8865 11.8205 71.8874 11.8218 71.8879 11.8229C71.8891 11.8253 71.8871 11.8229 71.8871 11.8114H71.6371C71.6371 11.899 71.6714 11.9759 71.744 12.0249C71.8063 12.0669 71.8821 12.0778 71.9453 12.0804C72.0113 12.0831 72.0849 12.0773 72.1558 12.0703C72.23 12.063 72.3007 12.0545 72.3743 12.049C72.5248 12.0376 72.6437 12.0435 72.7228 12.0837C72.7583 12.1018 72.7858 12.1269 72.8057 12.1642C72.8265 12.2032 72.8428 12.2626 72.8428 12.3538H73.0928ZM71.8871 11.8114C71.8871 11.6908 71.858 11.4942 71.8015 11.2903C71.7449 11.0864 71.6568 10.8608 71.531 10.6888C71.4056 10.5175 71.2233 10.3759 70.9828 10.4055C70.7539 10.4336 70.5192 10.6132 70.2722 10.9521L70.4742 11.0994C70.7105 10.7752 70.8911 10.6686 71.0132 10.6536C71.1238 10.64 71.2282 10.6985 71.3293 10.8365C71.4298 10.9739 71.5078 11.1669 71.5606 11.3572C71.6133 11.5474 71.6371 11.7205 71.6371 11.8114H71.8871ZM70.2721 10.9522C70.0091 11.3136 69.9052 11.7973 69.901 12.3029C69.8968 12.8105 69.9928 13.3535 70.1432 13.8471C70.2936 14.3402 70.5005 14.7912 70.7234 15.1131C70.8345 15.2736 70.9533 15.4074 71.0757 15.4974C71.1972 15.5867 71.3367 15.6429 71.4809 15.6167L71.4361 15.3707C71.3866 15.3797 71.3167 15.3643 71.2238 15.296C71.1319 15.2284 71.0313 15.1187 70.9289 14.9708C70.7245 14.6756 70.5274 14.2498 70.3824 13.7742C70.2375 13.2992 70.147 12.7818 70.151 12.305C70.155 11.8264 70.254 11.4019 70.4742 11.0993L70.2721 10.9522ZM71.481 15.6166C71.5957 15.5956 71.6829 15.538 71.7368 15.4475C71.7868 15.3636 71.8004 15.2642 71.801 15.1711C71.8017 15.0766 71.7889 14.9735 71.7738 14.8733C71.7581 14.769 71.7407 14.6715 71.7276 14.5707C71.7008 14.3641 71.7036 14.2099 71.7621 14.1139C71.8093 14.0365 71.9208 13.9582 72.2341 13.9867L72.2568 13.7378C71.9052 13.7057 71.6694 13.7857 71.5487 13.9838C71.4393 14.1633 71.4536 14.4017 71.4797 14.6028C71.493 14.7059 71.5124 14.816 71.5266 14.9105C71.5414 15.009 71.5515 15.0957 71.551 15.1693C71.5505 15.2444 71.5387 15.2915 71.522 15.3196C71.5091 15.3412 71.4881 15.3612 71.436 15.3707L71.481 15.6166ZM67.1722 21.4359C67.3082 21.9799 67.8556 22.3797 68.4067 22.5369C68.9531 22.6928 69.5924 22.6312 69.8787 22.1332L69.662 22.0086C69.464 22.3529 68.9857 22.4421 68.4753 22.2965C67.9694 22.1522 67.5205 21.7982 67.4148 21.3753L67.1722 21.4359ZM69.879 22.1327C69.9594 21.9914 69.9618 21.844 69.9067 21.7068C69.854 21.5752 69.7507 21.4575 69.6264 21.3557C69.3773 21.1517 69.0089 20.9839 68.6416 20.8808C68.2761 20.7783 67.8895 20.7338 67.6037 20.7964C67.4603 20.8278 67.3261 20.8898 67.2401 21.0024C67.1506 21.1197 67.1306 21.2691 67.1722 21.4358L67.4148 21.3753C67.3866 21.2623 67.4067 21.1963 67.4389 21.1541C67.4747 21.1071 67.5438 21.0654 67.6572 21.0406C67.8849 20.9907 68.2252 21.0237 68.5741 21.1216C68.9211 21.2189 69.2543 21.3742 69.468 21.5491C69.5752 21.6368 69.6437 21.7225 69.6747 21.7998C69.7035 21.8716 69.7017 21.9387 69.6617 22.0091L69.879 22.1327ZM62.5412 31.4838C61.6937 31.3596 60.9849 31.6122 60.315 31.8052C59.6408 31.9995 58.9945 32.1392 58.2183 31.8513L58.1314 32.0857C58.9866 32.4029 59.6996 32.2427 60.3842 32.0454C61.0731 31.8469 61.7227 31.6165 62.5049 31.7312L62.5412 31.4838ZM58.218 31.8512C57.3756 31.5411 56.3341 31.5461 55.5396 31.6931C55.1425 31.7666 54.7965 31.8774 54.5628 32.0096C54.4471 32.0751 54.3479 32.1519 54.2877 32.2417C54.2233 32.3377 54.2022 32.4533 54.2592 32.5676L54.4829 32.4559C54.4736 32.4373 54.4707 32.4176 54.4953 32.3809C54.5242 32.3379 54.5848 32.2845 54.6859 32.2272C54.8859 32.1141 55.2018 32.0098 55.5851 31.9389C56.3514 31.7971 57.3444 31.796 58.1317 32.0858L58.218 31.8512ZM54.2593 32.5677C54.3413 32.7312 54.514 32.8405 54.7184 32.9186C54.9267 32.9982 55.1922 33.0545 55.494 33.0966C56.0978 33.1807 56.8745 33.2109 57.6878 33.2409L57.697 32.9911C56.8797 32.9609 56.117 32.9309 55.5285 32.849C55.234 32.8079 54.9901 32.7547 54.8077 32.6851C54.6214 32.6139 54.5221 32.5342 54.4828 32.4557L54.2593 32.5677ZM57.6879 33.2409C58.5264 33.2709 59.314 33.0529 60.018 32.8258C60.3733 32.7111 60.7017 32.5961 61.014 32.5044C61.3251 32.413 61.6085 32.3487 61.8658 32.3348L61.8524 32.0852C61.5662 32.1006 61.2609 32.1713 60.9436 32.2645C60.6275 32.3573 60.2879 32.476 59.9412 32.5879C59.2413 32.8137 58.489 33.0194 57.6969 32.9911L57.6879 33.2409ZM61.866 32.3348C62.1416 32.3196 62.4255 32.289 62.6712 32.2477C62.9131 32.2071 63.1303 32.1541 63.2645 32.0894C63.299 32.0727 63.3325 32.0532 63.3608 32.03C63.3881 32.0075 63.4192 31.9744 63.4348 31.9284C63.4523 31.8765 63.4447 31.8236 63.4187 31.7791C63.3956 31.7395 63.3607 31.7108 63.3275 31.6896C63.261 31.6473 63.1631 31.6116 63.0389 31.5793C62.9121 31.5463 62.7478 31.5144 62.5414 31.4838L62.5047 31.7311C62.7062 31.761 62.8609 31.7913 62.976 31.8212C63.0937 31.8518 63.1606 31.8797 63.1932 31.9005C63.2095 31.9109 63.2077 31.9136 63.2028 31.9051C63.195 31.8918 63.1906 31.8699 63.1979 31.8484C63.2031 31.8329 63.2105 31.8299 63.2019 31.8369C63.1944 31.8431 63.18 31.8526 63.1559 31.8642C63.056 31.9124 62.8692 31.9609 62.6298 32.0012C62.3943 32.0408 62.1197 32.0704 61.8522 32.0852L61.866 32.3348ZM75.4814 20.4429C74.6731 20.1938 73.5901 20.1771 72.7429 20.3217C72.32 20.3938 71.9433 20.5082 71.6855 20.6626C71.5566 20.7398 71.4483 20.8324 71.3827 20.9435C71.3143 21.0593 71.2956 21.19 71.3407 21.3256L71.578 21.2466C71.557 21.1836 71.5642 21.1277 71.5979 21.0707C71.6343 21.009 71.7043 20.9428 71.8139 20.8771C72.0332 20.7457 72.3749 20.6381 72.785 20.5681C73.6039 20.4284 74.6458 20.447 75.4078 20.6818L75.4814 20.4429ZM71.3407 21.3255C71.4141 21.5463 71.5678 21.6877 71.7674 21.7729C71.9616 21.8557 72.2011 21.8865 72.459 21.8942C72.7183 21.902 73.0089 21.8865 73.3092 21.8696C73.6115 21.8526 73.9253 21.834 74.2389 21.834V21.584C73.9169 21.584 73.5956 21.6031 73.2952 21.62C72.9928 21.637 72.7131 21.6517 72.4665 21.6443C72.2185 21.6369 72.0165 21.6073 71.8655 21.5429C71.72 21.4808 71.625 21.3882 71.578 21.2467L71.3407 21.3255ZM74.2389 21.834C74.8407 21.834 75.3008 22.0481 75.7021 22.2712C75.8991 22.3807 76.0929 22.499 76.2726 22.5859C76.4546 22.674 76.641 22.74 76.8353 22.74V22.49C76.6967 22.49 76.5506 22.4427 76.3815 22.3609C76.21 22.2779 76.034 22.1697 75.8236 22.0527C75.41 21.8229 74.9048 21.584 74.2389 21.584V21.834ZM76.8353 22.74C76.944 22.74 77.0413 22.7071 77.1157 22.6381C77.1888 22.5702 77.2279 22.4783 77.2427 22.3808C77.2718 22.1895 77.2128 21.9503 77.0895 21.7118C76.8402 21.2294 76.3 20.6935 75.4812 20.4429L75.408 20.6819C76.1614 20.9125 76.6484 21.4029 76.8674 21.8266C76.9783 22.041 77.0136 22.2247 76.9956 22.3431C76.9868 22.4005 76.967 22.435 76.9455 22.4549C76.9253 22.4737 76.8925 22.49 76.8353 22.49V22.74ZM43.7473 30.9329C43.7366 30.8019 43.6714 30.7012 43.5726 30.63C43.4788 30.5625 43.3568 30.5227 43.2255 30.4976C42.963 30.4476 42.6135 30.4484 42.246 30.456C41.8727 30.4637 41.4747 30.4787 41.0968 30.4621C40.718 30.4454 40.3738 30.3973 40.1082 30.2855L40.0112 30.5159C40.3184 30.6452 40.6985 30.6948 41.0859 30.7118C41.4742 30.7289 41.8842 30.7135 42.2511 30.7059C42.6237 30.6983 42.9464 30.699 43.1787 30.7432C43.2947 30.7653 43.3755 30.7962 43.4265 30.8329C43.4725 30.866 43.494 30.903 43.4981 30.9533L43.7473 30.9329ZM40.1084 30.2856C39.9696 30.2269 39.9093 30.1783 39.8882 30.1488C39.8838 30.1427 39.8821 30.1388 39.8816 30.1371C39.8813 30.1363 39.8812 30.1358 39.8812 30.1357C39.8812 30.1357 39.8812 30.1357 39.8812 30.1357C39.8811 30.1354 39.8812 30.1359 39.8812 30.1356C39.8811 30.1354 39.8812 30.1359 39.8812 30.1356C39.8812 30.1354 39.8812 30.1359 39.8812 30.1356C39.8812 30.1354 39.8812 30.1359 39.8812 30.1357C39.8812 30.1357 39.8812 30.1357 39.8812 30.1356C39.8812 30.1356 39.8812 30.1356 39.8812 30.1355C39.8812 30.1354 39.8812 30.1352 39.8813 30.1349C39.8814 30.1344 39.8816 30.1334 39.8821 30.132C39.8832 30.129 39.8854 30.124 39.8902 30.1169C39.9121 30.0842 39.965 30.0389 40.0605 29.9841C40.1527 29.9314 40.2713 29.8772 40.4088 29.8215C40.6851 29.7094 41.0184 29.5984 41.3418 29.4815C41.6592 29.3668 41.9693 29.2455 42.1783 29.1162L42.0468 28.9036C41.8632 29.0172 41.5771 29.1306 41.2568 29.2464C40.9426 29.36 40.5969 29.4754 40.3148 29.5898C40.1731 29.6472 40.0427 29.7063 39.9363 29.7672C39.8334 29.8261 39.7381 29.8949 39.6827 29.9775C39.6535 30.0209 39.632 30.073 39.6312 30.1322C39.6304 30.1924 39.6511 30.2473 39.685 30.2945C39.7482 30.3827 39.8632 30.4533 40.011 30.5158L40.1084 30.2856ZM42.1781 29.1164C42.2814 29.0527 42.3633 28.987 42.414 28.9178C42.4662 28.8467 42.4981 28.7506 42.4489 28.6549C42.4067 28.5727 42.3211 28.5279 42.2422 28.5014C42.1581 28.4731 42.0524 28.4561 41.9316 28.4483C41.45 28.4173 40.6337 28.5281 39.6603 28.8331L39.735 29.0717C40.6932 28.7715 41.4765 28.6695 41.9155 28.6978C42.0249 28.7049 42.1069 28.7197 42.1626 28.7384C42.2236 28.7588 42.2301 28.776 42.2266 28.7692C42.2161 28.7488 42.2335 28.7412 42.2124 28.77C42.1898 28.8008 42.1397 28.8464 42.047 28.9035L42.1781 29.1164ZM39.6605 28.833C38.7384 29.1202 37.7346 28.8054 36.9248 28.5026C36.5304 28.3552 36.1702 28.2056 35.9102 28.1501C35.782 28.1227 35.6499 28.111 35.5421 28.1554C35.4842 28.1793 35.435 28.2185 35.4001 28.2745C35.3662 28.3288 35.35 28.3919 35.3452 28.4585L35.5945 28.4766C35.5973 28.4378 35.6057 28.4172 35.6122 28.4069C35.6176 28.3982 35.6245 28.3919 35.6373 28.3866C35.6707 28.3728 35.7381 28.369 35.858 28.3946C36.0941 28.445 36.4242 28.5824 36.8372 28.7368C37.6423 29.0378 38.7219 29.3871 39.7348 29.0717L39.6605 28.833ZM35.3452 28.4588C35.3416 28.51 35.3173 28.5484 35.2483 28.5801C35.1717 28.6154 35.0509 28.6352 34.8855 28.6334C34.5576 28.6299 34.1077 28.5429 33.6239 28.4081C33.1423 28.2738 32.6357 28.0946 32.1975 27.9116C31.757 27.7277 31.3942 27.5436 31.1952 27.4015L31.0499 27.6049C31.2727 27.764 31.6568 27.9568 32.1012 28.1423C32.548 28.3289 33.0644 28.5117 33.5568 28.6489C34.0469 28.7855 34.5219 28.8796 34.8829 28.8834C35.0619 28.8853 35.2265 28.8654 35.3529 28.8072C35.4869 28.7455 35.5833 28.6366 35.5946 28.4763L35.3452 28.4588ZM31.1951 27.4014C30.9682 27.2396 30.5914 27.0728 30.1523 26.9308C29.7104 26.788 29.1952 26.6671 28.6849 26.6017C28.1759 26.5365 27.665 26.5255 27.2347 26.607C26.807 26.688 26.4352 26.8653 26.2422 27.198L26.4585 27.3235C26.5983 27.0825 26.8838 26.9279 27.2812 26.8526C27.676 26.7779 28.1581 26.7862 28.6532 26.8497C29.1471 26.913 29.6472 27.0303 30.0754 27.1687C30.5063 27.308 30.8542 27.4655 31.05 27.605L31.1951 27.4014ZM26.2421 27.1983C26.0842 27.4719 25.9383 27.6046 25.8193 27.673C25.7006 27.7413 25.5981 27.7526 25.5029 27.7637C25.4594 27.7687 25.4003 27.775 25.3494 27.7957C25.2879 27.8208 25.2363 27.8668 25.2104 27.9417C25.1881 28.0061 25.1882 28.0824 25.198 28.166C25.2081 28.2522 25.2305 28.3612 25.2651 28.4989L25.5075 28.438C25.4739 28.3038 25.4545 28.2071 25.4463 28.137C25.4378 28.0642 25.4431 28.0336 25.4466 28.0236C25.4476 28.0206 25.4473 28.0228 25.4442 28.026C25.4412 28.0289 25.4397 28.0289 25.4436 28.0273C25.4567 28.022 25.479 28.0181 25.5317 28.012C25.6287 28.0007 25.777 27.9858 25.9439 27.8898C26.1105 27.7939 26.2849 27.6243 26.4586 27.3232L26.2421 27.1983ZM25.265 28.4987C25.3164 28.7049 25.4161 28.8466 25.5589 28.9295C25.6968 29.0096 25.8573 29.0243 26.0106 29.0163C26.1639 29.0083 26.3278 28.9762 26.4775 28.9485C26.632 28.92 26.7719 28.896 26.8947 28.896V28.646C26.7454 28.646 26.5832 28.6748 26.4321 28.7027C26.2761 28.7315 26.1308 28.7597 25.9976 28.7666C25.8644 28.7736 25.7612 28.7579 25.6844 28.7133C25.6125 28.6716 25.5465 28.5943 25.5076 28.4382L25.265 28.4987ZM26.8947 28.896C26.9794 28.896 27.031 28.9307 27.0797 29.0031C27.1357 29.0863 27.1745 29.1995 27.2309 29.3447C27.2839 29.4811 27.3503 29.6382 27.4611 29.7687C27.5757 29.9035 27.7342 30.006 27.9613 30.0404L27.9988 29.7932C27.8342 29.7683 27.7291 29.6979 27.6516 29.6068C27.5705 29.5112 27.5164 29.3893 27.464 29.2542C27.4149 29.1277 27.3632 28.9767 27.2872 28.8636C27.2038 28.7397 27.0818 28.646 26.8947 28.646V28.896ZM27.9607 30.0403C28.1528 30.0703 28.4575 30.1374 28.818 30.2146C29.176 30.2913 29.5845 30.3769 29.9767 30.4415C30.3674 30.506 30.7487 30.5509 31.0505 30.5439C31.2009 30.5404 31.3394 30.5239 31.4521 30.4861C31.5637 30.4487 31.669 30.3836 31.7193 30.2699L31.4907 30.1687C31.4808 30.1911 31.4522 30.2224 31.3726 30.2491C31.294 30.2754 31.1839 30.2907 31.0446 30.2939C30.767 30.3004 30.4045 30.2587 30.0173 30.1949C29.6316 30.1312 29.2282 30.0468 28.8704 29.9702C28.5152 29.8941 28.2004 29.8247 27.9994 29.7933L27.9607 30.0403ZM31.7192 30.2701C31.7309 30.2438 31.7614 30.2109 31.8355 30.1824C31.9093 30.1541 32.013 30.1358 32.1453 30.1309C32.409 30.1212 32.7593 30.1658 33.1458 30.2586C33.9196 30.4443 34.8068 30.815 35.3918 31.2831L35.548 31.0879C34.9254 30.5898 34.0007 30.2067 33.2041 30.0155C32.8054 29.9198 32.4309 29.8702 32.1361 29.8811C31.989 29.8865 31.8551 29.9071 31.7459 29.9491C31.6369 29.9909 31.5393 30.0595 31.4908 30.1685L31.7192 30.2701ZM35.3919 31.2831C36.0245 31.7885 37.0509 32.0477 38.0365 32.1614C39.0268 32.2757 40.0049 32.2462 40.5626 32.1537L40.5217 31.9071C39.9915 31.995 39.0372 32.0253 38.0652 31.9131C37.0885 31.8004 36.1226 31.5469 35.5479 31.0878L35.3919 31.2831ZM40.5627 32.1537C41.0729 32.0689 41.6148 32.2388 42.1179 32.3701C42.3618 32.4337 42.602 32.4893 42.8109 32.4861C43.0263 32.4828 43.2256 32.4163 43.3613 32.2224L43.1565 32.0791C43.0811 32.1868 42.971 32.2336 42.8071 32.2361C42.6368 32.2387 42.4279 32.1926 42.1811 32.1282C41.7029 32.0034 41.0976 31.8114 40.5217 31.9071L40.5627 32.1537ZM43.3611 32.2227C43.4007 32.1665 43.4361 32.1464 43.4659 32.1388C43.4988 32.1304 43.5433 32.1325 43.6075 32.1528C43.6721 32.1733 43.7455 32.2086 43.8325 32.2547C43.9153 32.2985 44.0158 32.3553 44.1161 32.4063C44.3212 32.5107 44.5651 32.6127 44.8424 32.624C45.1237 32.6354 45.4272 32.5531 45.7505 32.3109L45.6006 32.1108C45.3193 32.3216 45.0714 32.3831 44.8525 32.3742C44.6295 32.3651 44.4244 32.2827 44.2295 32.1835C44.1298 32.1328 44.0426 32.0831 43.9496 32.0338C43.8609 31.9868 43.7706 31.9423 43.6832 31.9146C43.5955 31.8867 43.4997 31.8721 43.4039 31.8966C43.305 31.922 43.2231 31.9846 43.1567 32.0787L43.3611 32.2227ZM45.7505 32.3109C45.9045 32.1956 46.013 32.0836 46.0542 31.9686C46.0765 31.9064 46.0797 31.8415 46.0577 31.7788C46.0364 31.7181 45.9957 31.6713 45.9508 31.6354C45.8643 31.5663 45.7383 31.5192 45.606 31.4827C45.4702 31.4452 45.3109 31.4146 45.1461 31.3861C44.8108 31.3282 44.4544 31.2788 44.1731 31.1991C44.0328 31.1593 43.9224 31.1148 43.8477 31.0645C43.7739 31.0149 43.7505 30.9709 43.7473 30.9325L43.4982 30.9536C43.5102 31.0962 43.6001 31.1992 43.7082 31.272C43.8155 31.3441 43.9556 31.3972 44.1049 31.4396C44.403 31.5241 44.7823 31.5769 45.1035 31.6325C45.2671 31.6607 45.4162 31.6897 45.5395 31.7237C45.6663 31.7587 45.7502 31.7952 45.7948 31.8308C45.8154 31.8472 45.8205 31.8581 45.8218 31.8615C45.8222 31.8629 45.8245 31.8684 45.8188 31.8844C45.8041 31.9256 45.7484 32.0001 45.6006 32.1108L45.7505 32.3109ZM91.1372 17.6587C90.871 17.677 90.6666 17.8071 90.5016 17.9775C90.3392 18.1452 90.2077 18.3595 90.088 18.5578C89.9647 18.7619 89.8546 18.9473 89.7291 19.0842C89.6064 19.2179 89.4826 19.2899 89.3346 19.2899V19.5399C89.5787 19.5399 89.7643 19.4156 89.9133 19.2532C90.0596 19.0938 90.1836 18.883 90.302 18.687C90.4239 18.4851 90.5417 18.2955 90.6812 18.1514C90.818 18.0101 90.9681 17.9209 91.1543 17.9082L91.1372 17.6587ZM89.3346 19.2899C89.0987 19.2899 88.857 19.4107 88.6181 19.5737C88.3764 19.7386 88.1158 19.9625 87.8423 20.1946C87.2882 20.6649 86.6716 21.1764 85.9736 21.41L86.0529 21.6471C86.8039 21.3958 87.4558 20.8505 88.0041 20.3852C88.2818 20.1495 88.5308 19.9359 88.759 19.7802C88.9899 19.6226 89.1783 19.5399 89.3346 19.5399V19.2899ZM85.9738 21.4099C85.8254 21.4593 85.7033 21.4422 85.5937 21.3783C85.4786 21.3111 85.3681 21.1866 85.2635 21.0048C85.0538 20.6407 84.8928 20.0932 84.7531 19.4863C84.6123 18.8743 84.5013 18.2423 84.3768 17.6743C84.3156 17.3953 84.2521 17.1369 84.1822 16.9186C84.1131 16.7026 84.0345 16.5151 83.939 16.385L83.7375 16.5329C83.8082 16.6293 83.877 16.7851 83.9441 16.9948C84.0104 17.202 84.072 17.4514 84.1326 17.7278C84.2516 18.2707 84.3709 18.9399 84.5095 19.5423C84.6492 20.1497 84.8167 20.73 85.0469 21.1296C85.1621 21.3298 85.2995 21.4961 85.4678 21.5943C85.6416 21.6957 85.8386 21.7183 86.0527 21.6471L85.9738 21.4099ZM83.9391 16.3851C83.7515 16.129 83.3726 15.9032 82.9302 15.7224C82.4818 15.5391 81.9463 15.3934 81.4212 15.309C80.8972 15.2248 80.3757 15.2004 79.9572 15.2652C79.5497 15.3283 79.1885 15.4852 79.073 15.8122L79.3087 15.8954C79.3742 15.7101 79.6014 15.5733 79.9955 15.5122C80.3787 15.4529 80.8718 15.4739 81.3815 15.5558C81.8901 15.6376 82.4069 15.7786 82.8356 15.9538C83.2703 16.1315 83.5931 16.3359 83.7374 16.5328L83.9391 16.3851ZM79.073 15.8122C78.9149 16.26 78.5718 16.368 78.1958 16.4659C78.0148 16.5131 77.8132 16.5606 77.6523 16.6555C77.4804 16.7568 77.3529 16.9124 77.3137 17.1634L77.5608 17.2019C77.5875 17.0305 77.6667 16.9372 77.7793 16.8708C77.9028 16.798 78.0633 16.7588 78.2589 16.7079C78.6361 16.6096 79.1039 16.4756 79.3087 15.8954L79.073 15.8122ZM77.3137 17.1638C77.2832 17.364 77.2822 17.5245 77.3303 17.645C77.3557 17.7087 77.3947 17.7609 77.4476 17.7999C77.4992 17.8381 77.558 17.8593 77.6173 17.8711C77.7311 17.8939 77.871 17.8862 78.0155 17.8761C78.1659 17.8655 78.3337 17.8509 78.5243 17.8509V17.6009C78.3227 17.6009 78.1437 17.6165 77.998 17.6267C77.8465 17.6373 77.7412 17.641 77.6663 17.626C77.6313 17.619 77.6099 17.6091 77.5962 17.5989C77.5836 17.5896 77.5721 17.5763 77.5625 17.5523C77.5405 17.4973 77.5315 17.3937 77.5608 17.2015L77.3137 17.1638ZM78.5243 17.8509C78.704 17.8509 78.8274 17.8853 78.9192 17.9397C79.0109 17.9941 79.0822 18.0751 79.147 18.1874C79.2129 18.3017 79.2683 18.4413 79.3321 18.6094C79.395 18.7748 79.4649 18.9644 79.5581 19.1657L79.785 19.0607C79.6963 18.8691 79.6298 18.6889 79.5658 18.5206C79.5029 18.3549 79.441 18.1968 79.3636 18.0625C79.2849 17.9262 79.1866 17.8076 79.0466 17.7247C78.9067 17.6417 78.7363 17.6009 78.5243 17.6009V17.8509ZM79.5581 19.1656C79.6731 19.4147 79.9245 19.5418 80.2055 19.6036C80.4889 19.666 80.8312 19.669 81.1749 19.6462C81.5202 19.6233 81.8755 19.5736 82.1874 19.5264C82.503 19.4786 82.7676 19.4346 82.943 19.42L82.9223 19.1709C82.7357 19.1864 82.457 19.2328 82.15 19.2792C81.8392 19.3263 81.4925 19.3746 81.1584 19.3968C80.8227 19.4191 80.5082 19.4143 80.2593 19.3595C80.0079 19.3041 79.8514 19.2045 79.785 19.0608L79.5581 19.1656ZM82.943 19.42C83.2462 19.3948 83.3776 19.5917 83.3733 19.7052C83.3714 19.7556 83.346 19.8038 83.2714 19.8309C83.1883 19.8612 83.036 19.8665 82.7927 19.7809L82.7097 20.0167C82.9794 20.1116 83.1968 20.1242 83.357 20.0658C83.5258 20.0043 83.6174 19.8678 83.6231 19.7146C83.6342 19.4211 83.3433 19.1359 82.9223 19.1709L82.943 19.42ZM82.7927 19.7809C82.5217 19.6855 82.3077 19.666 82.1266 19.6956C81.9456 19.7251 81.8094 19.8019 81.6945 19.877C81.5741 19.9557 81.4914 20.0206 81.3883 20.0626C81.2948 20.1007 81.1859 20.1177 81.0303 20.0792L80.9702 20.3218C81.1771 20.3731 81.3401 20.3522 81.4826 20.2942C81.6153 20.2401 81.7328 20.1506 81.8312 20.0863C81.9352 20.0184 82.0367 19.9635 82.1669 19.9423C82.297 19.9211 82.4678 19.9316 82.7097 20.0167L82.7927 19.7809ZM81.0308 20.0793C80.6576 19.9854 80.2164 19.9519 79.9224 20.0008C79.848 20.0132 79.7777 20.0316 79.7183 20.0588C79.6605 20.0853 79.6 20.1261 79.5646 20.1907C79.5256 20.2619 79.5291 20.3398 79.5601 20.4103C79.5889 20.476 79.6418 20.5376 79.7087 20.5962L79.8735 20.4082C79.8195 20.3609 79.7969 20.3279 79.789 20.3099C79.7832 20.2967 79.7888 20.3018 79.7839 20.3107C79.7827 20.3129 79.7884 20.3017 79.8224 20.2861C79.8547 20.2713 79.9016 20.2577 79.9634 20.2474C80.2138 20.2058 80.6188 20.2334 80.9697 20.3217L81.0308 20.0793ZM79.709 20.5965C79.8325 20.7039 79.9782 20.8142 80.1152 20.9246C80.2551 21.0373 80.3926 21.1552 80.5143 21.2878C80.7551 21.5503 80.9328 21.8685 80.9328 22.3124H81.1828C81.1828 21.7902 80.9697 21.4143 80.6984 21.1188C80.564 20.9723 80.4151 20.8452 80.2721 20.7299C80.126 20.6122 79.9922 20.5115 79.8731 20.4079L79.709 20.5965ZM80.9328 22.3124C80.9328 22.5863 81.0331 22.7935 81.1962 22.9268C81.3561 23.0574 81.5633 23.1063 81.7617 23.0934C82.1495 23.0683 82.5744 22.7938 82.5744 22.3124H82.3244C82.3244 22.6158 82.0535 22.8239 81.7455 22.8439C81.596 22.8536 81.4553 22.8157 81.3543 22.7332C81.2566 22.6533 81.1828 22.5211 81.1828 22.3124H80.9328ZM82.5744 22.3124C82.5744 22.22 82.5857 22.1736 82.5956 22.1534C82.5995 22.1452 82.6012 22.1457 82.598 22.148C82.5944 22.1505 82.5923 22.1501 82.596 22.1498C82.6089 22.1485 82.6409 22.1525 82.7033 22.1787C82.7626 22.2037 82.8348 22.2422 82.9229 22.2927C83.2708 22.492 83.8163 22.8493 84.5309 23.035L84.5938 22.7931C83.9195 22.6178 83.4085 22.2828 83.0472 22.0758C82.9579 22.0246 82.8745 21.9795 82.8001 21.9482C82.7288 21.9183 82.6491 21.8936 82.5724 21.9009C82.5313 21.9048 82.4899 21.9179 82.4527 21.9445C82.4158 21.9708 82.3894 22.0058 82.3708 22.0439C82.3356 22.1162 82.3244 22.209 82.3244 22.3124H82.5744ZM84.5307 23.035C84.8686 23.1234 85.0501 23.2194 85.1578 23.307C85.2634 23.3929 85.3062 23.4761 85.36 23.5722C85.4161 23.6724 85.4839 23.7842 85.6438 23.8668C85.7948 23.9447 86.0168 23.9911 86.3689 24.0068L86.38 23.7571C86.038 23.7418 85.8603 23.6972 85.7585 23.6446C85.6656 23.5967 85.6278 23.5387 85.5781 23.45C85.5262 23.3574 85.463 23.233 85.3155 23.113C85.17 22.9947 84.9511 22.8865 84.594 22.7931L84.5307 23.035ZM86.3689 24.0068C87.0449 24.0365 88.1633 24.3037 89.2696 24.6796C90.3764 25.0558 91.4477 25.5329 92.0349 25.9719L92.1846 25.7716C91.5645 25.3081 90.4621 24.8209 89.35 24.4429C88.2375 24.0649 87.092 23.7884 86.3799 23.7571L86.3689 24.0068ZM92.0349 25.9718C92.3266 26.1901 92.4864 26.3841 92.5787 26.5609C92.6709 26.7374 92.7007 26.9059 92.7188 27.0846C92.7553 27.4451 92.7398 27.8534 93.1663 28.3128L93.3495 28.1427C92.9899 27.7554 93.0059 27.4387 92.9675 27.0594C92.9482 26.8682 92.9141 26.663 92.8003 26.4451C92.6866 26.2275 92.4984 26.0064 92.1847 25.7717L92.0349 25.9718ZM93.1664 28.3129C93.5525 28.728 93.7844 29.1537 93.8039 29.4571C93.8133 29.6025 93.7738 29.7078 93.692 29.7798C93.6059 29.8556 93.4522 29.913 93.196 29.913V30.163C93.4832 30.163 93.7071 30.0995 93.8571 29.9676C94.0113 29.8319 94.0664 29.6428 94.0534 29.441C94.0283 29.0501 93.7476 28.5707 93.3494 28.1426L93.1664 28.3129ZM93.196 29.913C92.6148 29.913 92.0284 30.201 91.6273 30.5544C91.4262 30.7317 91.2644 30.9317 91.173 31.13C91.0822 31.3269 91.0528 31.5419 91.1551 31.7265L91.3737 31.6053C91.3255 31.5183 91.3265 31.394 91.4 31.2347C91.4728 31.0769 91.6091 30.9038 91.7926 30.742C92.1611 30.4173 92.691 30.163 93.196 30.163V29.913ZM91.1551 31.7266C91.2201 31.8435 91.3557 31.9011 91.4898 31.9331C91.6313 31.9668 91.8095 31.9809 92.0082 31.9823C92.4066 31.9852 92.9137 31.9372 93.4316 31.8729C93.9502 31.8086 94.4866 31.7271 94.9424 31.6623C95.4033 31.5967 95.774 31.5494 95.9738 31.5494V31.2994C95.7522 31.2994 95.3612 31.3502 94.9072 31.4148C94.4482 31.4801 93.9165 31.5608 93.4009 31.6248C92.8846 31.6888 92.3911 31.7351 92.01 31.7323C91.8188 31.731 91.6624 31.7172 91.5479 31.6899C91.426 31.6608 91.3841 31.6241 91.3737 31.6052L91.1551 31.7266ZM95.9738 31.5494C96.0751 31.5494 96.1884 31.5944 96.3262 31.6914C96.4637 31.7882 96.612 31.9267 96.783 32.0944C97.1209 32.4259 97.5355 32.86 98.0792 33.2242L98.2183 33.0165C97.6985 32.6683 97.303 32.2544 96.9581 31.916C96.7876 31.7488 96.6262 31.5969 96.4701 31.487C96.3142 31.3773 96.1498 31.2994 95.9738 31.2994V31.5494ZM98.2737 33.1203V20.2389H98.0237V33.1203H98.2737ZM98.1886 20.1204C96.8858 19.6816 95.3258 19.0573 93.9918 18.5462C93.3262 18.2912 92.7164 18.0642 92.2258 17.904C91.9805 17.8239 91.763 17.7598 91.5821 17.7172C91.4045 17.6754 91.2505 17.6513 91.1376 17.6587L91.1539 17.9082C91.2272 17.9034 91.3502 17.9194 91.5248 17.9605C91.696 18.0008 91.906 18.0625 92.1482 18.1416C92.6323 18.2997 93.2369 18.5247 93.9024 18.7797C95.2306 19.2885 96.7996 19.9164 98.1088 20.3573L98.1886 20.1204ZM64.9343 32.9793C64.7618 33.0958 64.5599 33.1857 64.3135 33.2417L64.3689 33.4855C64.6442 33.4229 64.875 33.321 65.0742 33.1864L64.9343 32.9793ZM64.2236 33.3212C64.1817 33.4373 64.1438 33.549 64.0989 33.6471C64.0533 33.7469 64.0086 33.8133 63.9637 33.8481L64.1167 34.0458C64.2114 33.9725 64.2766 33.8597 64.3263 33.7511C64.3767 33.6408 64.4195 33.5149 64.4588 33.406L64.2236 33.3212ZM63.9631 33.8485C63.9548 33.8551 63.9433 33.8604 63.9161 33.8554C63.8851 33.8497 63.8426 33.8315 63.7895 33.7964C63.6837 33.7264 63.568 33.6114 63.4666 33.4963L63.279 33.6616C63.3844 33.7812 63.5177 33.9163 63.6516 34.0049C63.7184 34.049 63.7933 34.0871 63.8711 34.1013C63.9526 34.1162 64.041 34.1051 64.1173 34.0454L63.9631 33.8485ZM63.3248 33.4635C62.7115 33.7183 62.2419 34.2118 62.0307 34.7057C61.925 34.9528 61.8805 35.2088 61.9247 35.4393C61.9697 35.6744 62.1059 35.8752 62.3429 36.0017L62.4606 35.7811C62.2924 35.6914 62.2015 35.5556 62.1702 35.3923C62.138 35.2245 62.1681 35.0203 62.2605 34.804C62.4457 34.371 62.8667 33.9245 63.4207 33.6944L63.3248 33.4635ZM62.343 36.0017C62.8013 36.2459 63.3375 36.0322 63.8034 35.7086C64.2792 35.3783 64.7336 34.8985 65.0609 34.5067L64.8691 34.3464C64.5473 34.7315 64.1097 35.1916 63.6608 35.5033C63.2022 35.8217 62.7814 35.952 62.4606 35.7811L62.343 36.0017ZM65.0612 34.5063C65.1675 34.3781 65.2622 34.2596 65.3398 34.1563L65.1398 34.0062C65.0655 34.1052 64.9736 34.2203 64.8688 34.3467L65.0612 34.5063ZM65.3398 34.1563C65.3725 34.1126 65.4323 34.0597 65.517 33.9987L65.3709 33.7958C65.2811 33.8604 65.196 33.9313 65.1398 34.0062L65.3398 34.1563ZM65.5208 33.9959C65.5744 33.9541 65.6373 33.9128 65.7095 33.8714L65.585 33.6546C65.5054 33.7003 65.4322 33.748 65.3671 33.7986L65.5208 33.9959ZM65.7489 33.6902C65.5551 33.4195 65.3047 33.15 65.0787 32.9824L64.9298 33.1833C65.1295 33.3313 65.3624 33.5798 65.5456 33.8357L65.7489 33.6902ZM48.2787 17.652C49.4271 16.9495 49.6665 15.6154 49.5435 14.3938L49.2948 14.4189C49.4144 15.6074 49.1721 16.8124 48.1482 17.4388L48.2787 17.652ZM49.5435 14.394C49.5195 14.1508 49.6358 13.959 49.8643 13.7918C50.0966 13.6218 50.4287 13.4909 50.7925 13.3785C51.1621 13.2643 51.5261 13.1793 51.8576 13.0829C52.0181 13.0362 52.1668 12.9877 52.2904 12.9342C52.411 12.8819 52.5219 12.819 52.5938 12.7369L52.4056 12.5723C52.3715 12.6113 52.3029 12.6563 52.191 12.7048C52.082 12.752 51.9452 12.797 51.7878 12.8429C51.4832 12.9315 51.0812 13.0276 50.7187 13.1396C50.3504 13.2535 49.9844 13.3941 49.7166 13.5901C49.4449 13.7889 49.259 14.0576 49.2948 14.4187L49.5435 14.394ZM52.5937 12.737C52.7338 12.5773 52.7506 12.3893 52.6899 12.2079C52.6318 12.0341 52.5028 11.8631 52.3459 11.7065C52.0304 11.3915 51.5637 11.097 51.1624 10.9114L51.0574 11.1383C51.4405 11.3155 51.8802 11.5948 52.1693 11.8834C52.3147 12.0286 52.4126 12.1668 52.4528 12.2872C52.4905 12.3999 52.4771 12.4908 52.4057 12.5721L52.5937 12.737ZM51.1621 10.9113C50.9902 10.8323 50.9089 10.7366 50.8659 10.6366C50.8202 10.5303 50.8117 10.4061 50.8116 10.2563C50.8114 9.9754 50.8502 9.58964 50.5282 9.3035L50.3621 9.49038C50.5827 9.68644 50.5613 9.93416 50.5616 10.2565C50.5617 10.4082 50.5686 10.578 50.6363 10.7354C50.7067 10.8992 50.837 11.037 51.0577 11.1385L51.1621 10.9113ZM50.528 9.30336C50.2663 9.07164 49.9147 8.64584 49.7267 8.27666C49.6306 8.08783 49.5899 7.93769 49.602 7.84267C49.6073 7.80063 49.6221 7.7755 49.6429 7.75812C49.6659 7.73897 49.7095 7.71828 49.7912 7.71229L49.7729 7.46296C49.6584 7.47136 49.5585 7.50296 49.4827 7.56619C49.4049 7.63118 49.3658 7.7185 49.354 7.81118C49.3318 7.98559 49.4041 8.19394 49.5039 8.39008C49.7079 8.79084 50.0804 9.24092 50.3623 9.49052L50.528 9.30336ZM49.7919 7.71224C49.902 7.70354 49.9995 7.67553 50.069 7.61227C50.1437 7.54432 50.1656 7.45523 50.1627 7.37213C50.16 7.29302 50.135 7.2102 50.1057 7.1334C50.0758 7.05538 50.0369 6.97222 49.9996 6.89232C49.9216 6.72489 49.8527 6.57246 49.8367 6.44247C49.8291 6.38049 49.8351 6.33275 49.8518 6.2953C49.8678 6.25956 49.8985 6.22217 49.9613 6.18811L49.8419 5.96842C49.7385 6.02461 49.6653 6.10014 49.6236 6.19315C49.5828 6.28445 49.5773 6.3813 49.5886 6.47291C49.6103 6.65009 49.6999 6.84084 49.773 6.99788C49.8114 7.08022 49.8461 7.15463 49.8721 7.22266C49.8986 7.29192 49.9116 7.34365 49.9129 7.38074C49.914 7.41384 49.906 7.42261 49.9008 7.42734C49.8904 7.43675 49.858 7.45624 49.7722 7.46302L49.7919 7.71224ZM49.9621 6.18765C50.0488 6.13968 50.15 6.0895 50.2591 6.03628L50.1495 5.81158C50.0405 5.86474 49.9341 5.91745 49.8411 5.96888L49.9621 6.18765ZM50.2599 5.81197C50.059 5.7122 49.8681 5.62741 49.6974 5.56732C49.5288 5.50797 49.3705 5.46933 49.2377 5.46933V5.71933C49.3282 5.71933 49.4548 5.74696 49.6144 5.80314C49.7719 5.85858 49.9528 5.93859 50.1488 6.03589L50.2599 5.81197ZM49.2377 5.46933C48.7703 5.46933 47.9325 5.40836 47.2368 5.54728C46.8872 5.6171 46.5551 5.74018 46.3171 5.9606C46.0732 6.18653 45.94 6.50371 45.9723 6.93002L46.2216 6.91114C46.1945 6.55399 46.3038 6.31366 46.487 6.14402C46.6761 5.96887 46.9559 5.85833 47.2858 5.79244C47.9492 5.65996 48.741 5.71933 49.2377 5.71933V5.46933ZM45.9723 6.93034C46.0016 7.30481 45.9359 7.53116 45.839 7.6784C45.7415 7.8264 45.6012 7.91222 45.4428 7.98413C45.3582 8.02257 45.2878 8.04905 45.2016 8.08658C45.1226 8.12095 45.041 8.16042 44.9706 8.21262C44.8986 8.26599 44.8353 8.33478 44.7966 8.42816C44.7581 8.5211 44.7485 8.62776 44.7657 8.74998L45.0133 8.71504C45.0006 8.62559 45.0101 8.56595 45.0276 8.5238C45.0449 8.48207 45.0743 8.44696 45.1195 8.41347C45.1662 8.3788 45.2264 8.34843 45.3013 8.31582C45.369 8.28637 45.4648 8.24873 45.5462 8.21175C45.72 8.13281 45.9117 8.02255 46.0478 7.81588C46.1843 7.60845 46.2537 7.32155 46.2215 6.91082L45.9723 6.93034ZM44.7658 8.75025C44.7928 8.93889 44.7657 9.0737 44.715 9.18769C44.6618 9.30749 44.5821 9.40746 44.4877 9.53324C44.3959 9.65546 44.2956 9.79603 44.2285 9.98032C44.1609 10.1662 44.1293 10.3894 44.1615 10.6778L44.41 10.65C44.3816 10.3956 44.4104 10.2117 44.4635 10.0658C44.5171 9.91837 44.5981 9.80253 44.6876 9.68333C44.7744 9.56768 44.8759 9.44121 44.9435 9.28921C45.0136 9.1314 45.0468 8.94903 45.0132 8.71477L44.7658 8.75025ZM44.1616 10.678C44.1915 10.9426 44.1654 11.0817 44.1174 11.1625C44.0726 11.2379 43.9943 11.2863 43.8457 11.3288C43.5589 11.4108 43.0361 11.4519 42.4187 11.7606L42.5305 11.9842C43.1232 11.6879 43.5674 11.6684 43.9144 11.5692C44.0828 11.5211 44.2381 11.4488 44.3323 11.2902C44.4233 11.137 44.4415 10.9289 44.41 10.6498L44.1616 10.678ZM42.4189 11.7606C42.1219 11.9085 41.9491 11.9491 41.8383 11.9445C41.7386 11.9405 41.6755 11.8995 41.5933 11.8241C41.5128 11.7503 41.4057 11.6318 41.246 11.5415C41.0808 11.448 40.8627 11.3838 40.543 11.3838V11.6338C40.8271 11.6338 41.0013 11.6903 41.1229 11.759C41.2499 11.8309 41.3238 11.9161 41.4243 12.0084C41.5232 12.0991 41.6411 12.1867 41.8281 12.1943C42.004 12.2016 42.2236 12.1372 42.5303 11.9843L42.4189 11.7606ZM40.543 11.3838C39.9129 11.3838 39.5569 11.5432 39.266 11.737C38.9719 11.933 38.7913 12.1218 38.45 12.2351L38.5287 12.4724C38.9124 12.345 39.1549 12.1114 39.4046 11.9451C39.6574 11.7766 39.9657 11.6338 40.543 11.6338V11.3838ZM38.4501 12.2351C38.2866 12.2891 38.0751 12.3113 37.8332 12.3168C37.5921 12.3223 37.3329 12.3112 37.0738 12.3036C36.8177 12.2961 36.5615 12.292 36.3378 12.3134C36.1176 12.3346 35.9075 12.382 35.7581 12.4933L35.9075 12.6938C35.9997 12.6251 36.1518 12.5824 36.3616 12.5623C36.5679 12.5425 36.8096 12.5459 37.0665 12.5535C37.3204 12.5609 37.5893 12.5724 37.8388 12.5667C38.0876 12.561 38.3291 12.5383 38.5285 12.4724L38.4501 12.2351ZM35.7577 12.4936C35.686 12.5475 35.6023 12.552 35.4826 12.5002C35.3581 12.4464 35.2197 12.3412 35.0686 12.2131C34.9236 12.0902 34.7645 11.944 34.6171 11.8338C34.4733 11.7262 34.3079 11.6262 34.142 11.6262V11.8762C34.2178 11.8762 34.3243 11.9269 34.4674 12.034C34.6069 12.1383 34.7499 12.2707 34.9069 12.4038C35.0577 12.5316 35.2212 12.6596 35.3834 12.7297C35.5505 12.8019 35.7384 12.8209 35.9079 12.6935L35.7577 12.4936ZM34.142 11.6262C34.139 11.6262 34.1118 11.6231 34.0621 11.5603C34.0153 11.5012 33.966 11.4104 33.9162 11.2916C33.8171 11.0553 33.7276 10.7364 33.6521 10.4147L33.4088 10.4718C33.4851 10.7972 33.5783 11.1323 33.6856 11.3882C33.739 11.5155 33.7987 11.6303 33.866 11.7154C33.9303 11.7967 34.022 11.8762 34.142 11.8762V11.6262ZM33.5528 10.3203C33.4654 10.3044 33.3733 10.2912 33.2872 10.2977L33.3061 10.547C33.3578 10.5431 33.4228 10.5508 33.5081 10.5663L33.5528 10.3203ZM33.2868 10.2978C33.046 10.3168 32.791 10.4839 32.5652 10.7032C32.3346 10.9271 32.1147 11.2246 31.945 11.5414C31.7757 11.8574 31.6522 12.2006 31.6222 12.5164C31.5922 12.8318 31.6547 13.1388 31.8827 13.3512L32.0531 13.1683C31.9034 13.0288 31.8451 12.813 31.8711 12.5401C31.897 12.2676 32.006 11.957 32.1654 11.6594C32.3244 11.3626 32.5293 11.0865 32.7393 10.8825C32.9541 10.674 33.1555 10.5589 33.3065 10.547L33.2868 10.2978ZM31.8827 13.3512C32.3064 13.7461 32.4664 14.2564 32.5707 14.7702C32.5968 14.8985 32.6191 15.0255 32.6416 15.1511C32.6639 15.2761 32.6864 15.3997 32.7124 15.5179C32.7639 15.7529 32.8314 15.9778 32.9484 16.163L33.1598 16.0294C33.0665 15.8819 33.0064 15.6916 32.9565 15.4643C32.9318 15.3515 32.9101 15.2323 32.8877 15.1071C32.8654 14.9827 32.8425 14.8523 32.8157 14.7204C32.7087 14.1935 32.5359 13.6183 32.0532 13.1683L31.8827 13.3512ZM32.9487 16.1634C33.069 16.3519 33.2493 16.4955 33.4374 16.6223C33.5318 16.6861 33.6318 16.7478 33.7296 16.8089C33.8282 16.8705 33.9254 16.9321 34.0189 16.9978C34.2059 17.1294 34.3712 17.2733 34.4903 17.4546C34.608 17.6337 34.6844 17.8552 34.6844 18.1488H34.9344C34.9344 17.8076 34.8444 17.5382 34.6993 17.3173C34.5555 17.0985 34.3615 16.9332 34.1627 16.7933C34.0632 16.7234 33.9609 16.6587 33.8621 16.5969C33.7624 16.5346 33.6671 16.4757 33.5771 16.4151C33.3963 16.2931 33.2512 16.1728 33.1595 16.029L32.9487 16.1634ZM34.6844 18.1488C34.6844 18.8122 34.9811 19.65 35.3754 20.2533C35.5725 20.555 35.8018 20.8102 36.0427 20.9541C36.2882 21.1008 36.5621 21.1387 36.8111 20.967L36.6691 20.7612C36.5251 20.8606 36.3611 20.8531 36.1709 20.7395C35.9762 20.6231 35.7719 20.4031 35.5846 20.1166C35.2101 19.5433 34.9344 18.7524 34.9344 18.1488H34.6844ZM36.8112 20.9669C36.9887 20.8441 37.1476 20.8018 37.2874 20.8065C37.4284 20.8113 37.5619 20.8642 37.6866 20.9518C37.9398 21.1295 38.1394 21.4379 38.2557 21.6981L38.4839 21.5961C38.3586 21.3156 38.1355 20.9614 37.8303 20.7472C37.6759 20.6388 37.4963 20.5634 37.2959 20.5567C37.0944 20.5499 36.8837 20.6128 36.669 20.7613L36.8112 20.9669ZM38.2556 21.6978C38.3028 21.8042 38.3898 21.8691 38.4906 21.9037C38.5878 21.937 38.7014 21.9439 38.8183 21.9374C39.0522 21.9244 39.3394 21.8548 39.6259 21.7757C39.9188 21.6948 40.2093 21.6044 40.472 21.5397C40.602 21.5076 40.7205 21.4831 40.8232 21.4701C40.9275 21.457 41.0075 21.4568 41.0639 21.468L41.1127 21.2228C41.0177 21.2039 40.9068 21.2076 40.7919 21.2221C40.6755 21.2368 40.5465 21.2638 40.4122 21.2969C40.1461 21.3625 39.8402 21.4571 39.5594 21.5347C39.2721 21.614 39.0084 21.6764 38.8044 21.6878C38.7025 21.6934 38.6255 21.6856 38.5717 21.6672C38.5216 21.65 38.4972 21.626 38.4841 21.5964L38.2556 21.6978ZM41.0635 21.4679C41.3664 21.5293 41.9762 21.6489 42.5251 21.8419C42.7999 21.9385 43.0526 22.0511 43.2419 22.1799C43.4344 22.3109 43.54 22.4438 43.5623 22.5742L43.8087 22.5319C43.7691 22.3009 43.5945 22.1174 43.3825 21.9732C43.1674 21.8269 42.8916 21.7057 42.608 21.606C42.04 21.4064 41.413 21.2836 41.1131 21.2229L41.0635 21.4679ZM43.5622 22.5734C43.5817 22.6914 43.6356 22.7876 43.7227 22.856C43.807 22.9221 43.9123 22.9544 44.0229 22.9667C44.241 22.9911 44.5187 22.9419 44.8118 22.8619C45.3995 22.7015 46.1224 22.3947 46.6861 22.1882L46.6001 21.9535C46.0165 22.1673 45.3204 22.4639 44.746 22.6207C44.458 22.6993 44.219 22.7371 44.0506 22.7183C43.9679 22.709 43.9126 22.6872 43.8771 22.6593C43.8443 22.6336 43.8193 22.5959 43.8089 22.5327L43.5622 22.5734ZM46.6864 22.1881C47.0321 22.0603 47.2208 21.7133 47.3388 21.3133C47.4584 20.9084 47.5178 20.4064 47.5741 19.9112C47.631 19.4102 47.685 18.9148 47.791 18.5029C47.8983 18.0863 48.0507 17.7904 48.2783 17.6523L48.1486 17.4385C47.8318 17.6309 47.659 18.013 47.5489 18.4406C47.4375 18.873 47.3819 19.3882 47.3257 19.883C47.2688 20.3835 47.2113 20.8625 47.0991 21.2425C46.9854 21.6276 46.8273 21.8695 46.5997 21.9536L46.6864 22.1881ZM52.6365 34.5124C52.845 34.8253 53.2354 34.9712 53.5853 35.0828C53.7682 35.1412 53.9401 35.1899 54.0982 35.2482C54.2557 35.3062 54.3824 35.368 54.4713 35.444L54.6338 35.2541C54.5106 35.1487 54.3502 35.0746 54.1847 35.0136C54.0199 34.9529 53.8332 34.8996 53.6613 34.8447C53.3017 34.7299 52.998 34.6041 52.8445 34.3738L52.6365 34.5124ZM54.4714 35.4442C54.6956 35.6354 55.1952 35.9316 55.6456 36.0501C55.8681 36.1087 56.1047 36.1311 56.2927 36.0488C56.3904 36.006 56.4725 35.9359 56.5286 35.8347C56.5837 35.7352 56.61 35.613 56.61 35.4703H56.36C56.36 35.5837 56.339 35.661 56.31 35.7134C56.2819 35.764 56.2428 35.7977 56.1924 35.8198C56.0841 35.8672 55.9169 35.863 55.7092 35.8084C55.2992 35.7004 54.8326 35.4237 54.6337 35.254L54.4714 35.4442ZM56.61 35.4703C56.61 35.2971 56.5222 35.1455 56.3964 35.0185C56.2705 34.8914 56.0969 34.7787 55.8993 34.6797C55.5035 34.4814 54.9862 34.3257 54.4872 34.2225C53.9884 34.1194 53.497 34.0665 53.1513 34.0793C52.9832 34.0855 52.8295 34.1076 52.7278 34.1609C52.6756 34.1883 52.6179 34.2342 52.5962 34.3089C52.5739 34.386 52.6 34.4576 52.6364 34.5124L52.8445 34.3738C52.8307 34.3531 52.8421 34.3586 52.8363 34.3786C52.8312 34.3963 52.8213 34.3942 52.844 34.3823C52.8921 34.3571 52.9963 34.3352 53.1605 34.3291C53.4791 34.3174 53.949 34.3665 54.4366 34.4673C54.924 34.5681 55.4182 34.7182 55.7873 34.9032C55.9722 34.9959 56.1194 35.0942 56.2188 35.1944C56.3181 35.2947 56.36 35.3867 56.36 35.4703H56.61ZM49.6057 31.4351C49.5117 31.649 49.2482 31.802 48.9058 31.8447C48.5681 31.8867 48.1926 31.8147 47.9206 31.6238L47.777 31.8284C48.1087 32.0613 48.5493 32.141 48.9366 32.0927C49.3192 32.0451 49.6895 31.8659 49.8346 31.5357L49.6057 31.4351ZM47.9201 31.6234C47.7366 31.496 47.5377 31.4748 47.3549 31.5264C47.176 31.5769 47.0175 31.6951 46.8981 31.8399C46.6669 32.1203 46.5394 32.5638 46.7831 32.8877L46.9829 32.7374C46.8401 32.5477 46.8936 32.2383 47.091 31.999C47.1859 31.8839 47.3036 31.8006 47.4228 31.767C47.5381 31.7344 47.6591 31.7465 47.7775 31.8287L47.9201 31.6234ZM46.7829 32.8874C46.8403 32.9641 46.9666 33.0791 47.1397 33.1958C47.3156 33.3145 47.548 33.4405 47.8237 33.535C48.3766 33.7246 49.1056 33.7879 49.8955 33.4092L49.7874 33.1838C49.0679 33.5288 48.4084 33.4713 47.9048 33.2986C47.6523 33.212 47.4394 33.0965 47.2795 32.9886C47.1166 32.8787 47.0164 32.7821 46.9831 32.7376L46.7829 32.8874ZM49.8953 33.4092C50.6257 33.0598 51.2365 33.0447 51.7273 33.0218C51.9689 33.0105 52.1971 32.9972 52.388 32.9307C52.589 32.8607 52.7482 32.7324 52.8539 32.5041L52.6271 32.399C52.5513 32.5626 52.4463 32.6456 52.3058 32.6946C52.1552 32.747 51.9646 32.7604 51.7157 32.772C51.2254 32.7949 50.5682 32.8102 49.7875 33.1837L49.8953 33.4092ZM52.854 32.5039C52.9182 32.3648 52.9022 32.2257 52.8341 32.1022C52.7691 31.9841 52.6574 31.8803 52.5262 31.7902C52.2626 31.6093 51.8814 31.4576 51.4901 31.3503C51.0975 31.2426 50.6828 31.1762 50.3468 31.1722C50.1795 31.1702 50.025 31.1836 49.9004 31.2187C49.7808 31.2525 49.6594 31.315 49.606 31.4344L49.8342 31.5364C49.8415 31.5202 49.8713 31.4867 49.9684 31.4593C50.0605 31.4333 50.1883 31.4203 50.3438 31.4222C50.6535 31.4259 51.0465 31.4878 51.424 31.5914C51.8027 31.6952 52.1538 31.8378 52.3847 31.9963C52.5007 32.0759 52.5768 32.1532 52.6151 32.2228C52.6504 32.2869 52.6533 32.3421 52.627 32.3992L52.854 32.5039Z" fill="#868686"/>
</g>
<defs>
<filter id="filter0_d_877_3535" x="0.419922" y="0.770508" width="101.854" height="41.3369" filterUnits="userSpaceOnUse" color-interpolation-filters="sRGB">
<feFlood flood-opacity="0" result="BackgroundImageFix"/>
<feColorMatrix in="SourceAlpha" type="matrix" values="0 0 0 0 0 0 0 0 0 0 0 0 0 0 0 0 0 0 127 0" result="hardAlpha"/>
<feOffset dy="2"/>
<feGaussianBlur stdDeviation="2"/>
<feColorMatrix type="matrix" values="0 0 0 0 0 0 0 0 0 0 0 0 0 0 0 0 0 0 0.01 0"/>
<feBlend mode="normal" in2="BackgroundImageFix" result="effect1_dropShadow_877_3535"/>
<feBlend mode="normal" in="SourceGraphic" in2="effect1_dropShadow_877_3535" result="shape"/>
</filter>
</defs>
</svg>
