<svg width="31" height="32" viewBox="0 0 31 32" fill="none" xmlns="http://www.w3.org/2000/svg">
<g filter="url(#filter0_d_877_3245)">
<path fill-rule="evenodd" clip-rule="evenodd" d="M25.5145 7.98676L24.0488 4.39342C23.9441 4.55735 23.8638 4.67158 23.8194 4.7143C23.5786 4.95671 22.5805 4.35331 21.6453 4.5931C20.7091 4.8355 19.9841 4.50329 19.0786 4.05161C18.173 3.59819 15.2146 4.1702 14.8202 4.74482C14.4294 5.31857 13.4313 5.31857 12.5266 4.95671C11.6219 4.5931 10.4433 4.05161 8.78302 3.89989C7.23097 3.75951 5.98252 3.53628 5.70072 3.16309C5.63442 3.33748 5.57335 3.50838 5.5149 3.67144C5.00976 5.05698 5.89266 5.43367 5.26276 6.18878C4.632 6.94303 5.26276 7.82545 5.26276 9.21012C5.26276 10.1658 5.26276 19.3423 5.26276 24.9333H17.7193C17.7193 24.9333 18.0823 24.6918 18.4443 24.4494C18.8072 24.2087 19.411 24.8112 19.411 24.8112H22.0666C22.0666 24.8112 22.5517 25.4164 23.1546 25.4164C23.7574 25.4164 23.3954 24.4494 24.3638 24.4494C25.3269 24.4494 25.087 22.9984 25.6907 22.9984C26.2944 22.9984 26.1749 23.1222 26.7778 22.2764C26.7961 22.2511 26.8257 22.2189 26.8449 22.191C26.7987 21.9294 26.7943 21.6556 26.838 21.3713C26.9898 20.407 26.3241 20.4654 25.9036 19.1086C25.4813 17.7501 23.7888 15.7289 23.7304 14.9433C23.6684 14.162 22.7323 13.7077 22.7628 12.861C22.7916 12.017 22.31 11.9263 21.3731 10.5983C20.4378 9.27116 20.1639 6.94652 20.4378 6.85583C20.71 6.76602 21.4943 8.81774 21.7962 9.48217C22.0989 10.1475 23.124 12.1687 23.8499 12.1687C24.5758 12.1687 24.8488 9.12031 25.0887 9.27116C25.1105 9.28511 25.1254 9.31825 25.1385 9.36097L25.2187 8.80815L25.5145 7.98676Z" fill="white"/>
<path fill-rule="evenodd" clip-rule="evenodd" d="M25.5145 7.98676L24.0488 4.39342C23.9441 4.55735 23.8638 4.67158 23.8194 4.7143C23.5786 4.95671 22.5805 4.35331 21.6453 4.5931C20.7091 4.8355 19.9841 4.50329 19.0786 4.05161C18.173 3.59819 15.2146 4.1702 14.8202 4.74482C14.4294 5.31857 13.4313 5.31857 12.5266 4.95671C11.6219 4.5931 10.4433 4.05161 8.78302 3.89989C7.23097 3.75951 5.98252 3.53628 5.70072 3.16309C5.63442 3.33748 5.57335 3.50838 5.5149 3.67144C5.00976 5.05698 5.89266 5.43367 5.26276 6.18878C4.632 6.94303 5.26276 7.82545 5.26276 9.21012C5.26276 10.1658 5.26276 19.3423 5.26276 24.9333H17.7193C17.7193 24.9333 18.0823 24.6918 18.4443 24.4494C18.8072 24.2087 19.411 24.8112 19.411 24.8112H22.0666C22.0666 24.8112 22.5517 25.4164 23.1546 25.4164C23.7574 25.4164 23.3954 24.4494 24.3638 24.4494C25.3269 24.4494 25.087 22.9984 25.6907 22.9984C26.2944 22.9984 26.1749 23.1222 26.7778 22.2764C26.7961 22.2511 26.8257 22.2189 26.8449 22.191C26.7987 21.9294 26.7943 21.6556 26.838 21.3713C26.9898 20.407 26.3241 20.4654 25.9036 19.1086C25.4813 17.7501 23.7888 15.7289 23.7304 14.9433C23.6684 14.162 22.7323 13.7077 22.7628 12.861C22.7916 12.017 22.31 11.9263 21.3731 10.5983C20.4378 9.27116 20.1639 6.94652 20.4378 6.85583C20.71 6.76602 21.4943 8.81774 21.7962 9.48217C22.0989 10.1475 23.124 12.1687 23.8499 12.1687C24.5758 12.1687 24.8488 9.12031 25.0887 9.27116C25.1105 9.28511 25.1254 9.31825 25.1385 9.36097L25.2187 8.80815L25.5145 7.98676Z" stroke="#868686" stroke-width="0.25"/>
</g>
<defs>
<filter id="filter0_d_877_3245" x="0.857422" y="0.907227" width="30.127" height="30.6338" filterUnits="userSpaceOnUse" color-interpolation-filters="sRGB">
<feFlood flood-opacity="0" result="BackgroundImageFix"/>
<feColorMatrix in="SourceAlpha" type="matrix" values="0 0 0 0 0 0 0 0 0 0 0 0 0 0 0 0 0 0 127 0" result="hardAlpha"/>
<feOffset dy="2"/>
<feGaussianBlur stdDeviation="2"/>
<feColorMatrix type="matrix" values="0 0 0 0 0 0 0 0 0 0 0 0 0 0 0 0 0 0 0.01 0"/>
<feBlend mode="normal" in2="BackgroundImageFix" result="effect1_dropShadow_877_3245"/>
<feBlend mode="normal" in="SourceGraphic" in2="effect1_dropShadow_877_3245" result="shape"/>
</filter>
</defs>
</svg>
