<svg width="13" height="18" viewBox="0 0 13 18" fill="none" xmlns="http://www.w3.org/2000/svg">
<g filter="url(#filter0_d_877_3260)">
<path fill-rule="evenodd" clip-rule="evenodd" d="M6.42901 11.2235C6.49619 11.2609 6.56773 11.3002 6.64101 11.3386C6.81201 10.1126 7.07636 8.67036 7.29534 8.37912C7.41748 8.21694 7.49687 7.83676 7.55445 7.38596C6.99173 6.81308 6.7998 6.22364 6.7998 6.0911C6.7998 5.90799 6.92106 4.73869 7.2299 4.61575C7.31802 4.58174 7.54485 4.58348 7.84846 4.60005C7.90429 4.23557 7.96711 3.71588 8.01771 3.24415L6.9865 2.80469C6.83208 3.13865 6.70906 3.46563 6.66108 3.7621C6.48921 4.8503 5.52256 6.64828 5.04883 7.39294L6.51451 10.9863L6.42901 11.2235Z" fill="white"/>
<path fill-rule="evenodd" clip-rule="evenodd" d="M6.42901 11.2235C6.49619 11.2609 6.56773 11.3002 6.64101 11.3386C6.81201 10.1126 7.07636 8.67036 7.29534 8.37912C7.41748 8.21694 7.49687 7.83676 7.55445 7.38596C6.99173 6.81308 6.7998 6.22364 6.7998 6.0911C6.7998 5.90799 6.92106 4.73869 7.2299 4.61575C7.31802 4.58174 7.54485 4.58348 7.84846 4.60005C7.90429 4.23557 7.96711 3.71588 8.01771 3.24415L6.9865 2.80469C6.83208 3.13865 6.70906 3.46563 6.66108 3.7621C6.48921 4.8503 5.52256 6.64828 5.04883 7.39294L6.51451 10.9863L6.42901 11.2235Z" stroke="#868686" stroke-width="0.25"/>
</g>
<defs>
<filter id="filter0_d_877_3260" x="0.908203" y="0.642578" width="11.2441" height="16.8887" filterUnits="userSpaceOnUse" color-interpolation-filters="sRGB">
<feFlood flood-opacity="0" result="BackgroundImageFix"/>
<feColorMatrix in="SourceAlpha" type="matrix" values="0 0 0 0 0 0 0 0 0 0 0 0 0 0 0 0 0 0 127 0" result="hardAlpha"/>
<feOffset dy="2"/>
<feGaussianBlur stdDeviation="2"/>
<feColorMatrix type="matrix" values="0 0 0 0 0 0 0 0 0 0 0 0 0 0 0 0 0 0 0.01 0"/>
<feBlend mode="normal" in2="BackgroundImageFix" result="effect1_dropShadow_877_3260"/>
<feBlend mode="normal" in="SourceGraphic" in2="effect1_dropShadow_877_3260" result="shape"/>
</filter>
</defs>
</svg>
