<svg width="22" height="22" viewBox="0 0 22 22" fill="none" xmlns="http://www.w3.org/2000/svg">
<g filter="url(#filter0_d_877_3234)">
<path fill-rule="evenodd" clip-rule="evenodd" d="M16.6499 12.8021C16.3777 12.4385 15.7443 10.8995 15.7888 10.5385C15.8341 10.1767 16.6045 9.08935 16.56 8.54612C16.5146 8.00376 17.3303 7.64189 17.3303 7.18673C17.3303 6.84231 17.1175 5.13414 16.6184 4.0189C16.5138 4.02501 16.3873 3.97094 16.2433 3.82446C15.8795 3.46172 14.3719 3.52014 13.8284 4.12528C13.284 4.72868 12.197 3.58292 12.0164 3.28035C11.8349 2.97778 11.0497 2.31597 10.446 2.73887C9.84053 3.16002 9.66169 3.03882 9.72101 2.49646C9.78208 1.95236 8.81456 2.13285 8.69416 2.61766C8.57551 3.09986 7.78945 3.52101 7.54779 3.16089C7.30612 2.79729 6.76347 2.31597 6.52094 2.85832C6.35343 3.23588 6.06727 3.20275 5.82997 3.02487C5.67642 3.69715 5.4906 4.46622 5.82561 4.65282C6.23304 4.87865 6.27927 5.33033 6.18941 5.60325C6.09781 5.8753 6.86729 6.55456 6.55147 6.87108C6.23391 7.18586 5.82648 6.55456 5.60052 7.00624C5.37456 7.45791 6.05331 7.86599 5.78199 8.22959C5.51066 8.59059 5.10324 8.6368 5.19397 9.36053C5.28383 10.0834 5.23759 10.5813 4.96714 10.8097C4.69494 11.0356 5.01163 11.0356 5.64676 11.4428C6.28102 11.8491 7.32183 12.3025 7.23197 12.9818C7.14996 13.6 6.87863 13.743 6.6265 14.8853C7.85576 14.9105 10.0595 14.0168 12.6515 13.5695C14.2725 13.2931 15.6422 13.5206 16.615 13.8023C16.717 13.4186 16.7868 12.9844 16.6499 12.8021Z" fill="white"/>
<path fill-rule="evenodd" clip-rule="evenodd" d="M16.6499 12.8021C16.3777 12.4385 15.7443 10.8995 15.7888 10.5385C15.8341 10.1767 16.6045 9.08935 16.56 8.54612C16.5146 8.00376 17.3303 7.64189 17.3303 7.18673C17.3303 6.84231 17.1175 5.13414 16.6184 4.0189C16.5138 4.02501 16.3873 3.97094 16.2433 3.82446C15.8795 3.46172 14.3719 3.52014 13.8284 4.12528C13.284 4.72868 12.197 3.58292 12.0164 3.28035C11.8349 2.97778 11.0497 2.31597 10.446 2.73887C9.84053 3.16002 9.66169 3.03882 9.72101 2.49646C9.78208 1.95236 8.81456 2.13285 8.69416 2.61766C8.57551 3.09986 7.78945 3.52101 7.54779 3.16089C7.30612 2.79729 6.76347 2.31597 6.52094 2.85832C6.35343 3.23588 6.06727 3.20275 5.82997 3.02487C5.67642 3.69715 5.4906 4.46622 5.82561 4.65282C6.23304 4.87865 6.27927 5.33033 6.18941 5.60325C6.09781 5.8753 6.86729 6.55456 6.55147 6.87108C6.23391 7.18586 5.82648 6.55456 5.60052 7.00624C5.37456 7.45791 6.05331 7.86599 5.78199 8.22959C5.51066 8.59059 5.10324 8.6368 5.19397 9.36053C5.28383 10.0834 5.23759 10.5813 4.96714 10.8097C4.69494 11.0356 5.01163 11.0356 5.64676 11.4428C6.28102 11.8491 7.32183 12.3025 7.23197 12.9818C7.14996 13.6 6.87863 13.743 6.6265 14.8853C7.85576 14.9105 10.0595 14.0168 12.6515 13.5695C14.2725 13.2931 15.6422 13.5206 16.615 13.8023C16.717 13.4186 16.7868 12.9844 16.6499 12.8021Z" stroke="#868686" stroke-width="0.25"/>
</g>
<defs>
<filter id="filter0_d_877_3234" x="0.744141" y="0.0380859" width="20.7109" height="20.9727" filterUnits="userSpaceOnUse" color-interpolation-filters="sRGB">
<feFlood flood-opacity="0" result="BackgroundImageFix"/>
<feColorMatrix in="SourceAlpha" type="matrix" values="0 0 0 0 0 0 0 0 0 0 0 0 0 0 0 0 0 0 127 0" result="hardAlpha"/>
<feOffset dy="2"/>
<feGaussianBlur stdDeviation="2"/>
<feColorMatrix type="matrix" values="0 0 0 0 0 0 0 0 0 0 0 0 0 0 0 0 0 0 0.01 0"/>
<feBlend mode="normal" in2="BackgroundImageFix" result="effect1_dropShadow_877_3234"/>
<feBlend mode="normal" in="SourceGraphic" in2="effect1_dropShadow_877_3234" result="shape"/>
</filter>
</defs>
</svg>
