<svg width="29" height="22" viewBox="0 0 29 22" fill="none" xmlns="http://www.w3.org/2000/svg">
<g filter="url(#filter0_d_877_3293)">
<path fill-rule="evenodd" clip-rule="evenodd" d="M23.0763 8.90515C22.7142 8.81446 22.4874 8.0018 21.8968 7.77421C21.3087 7.54663 21.4448 6.82291 20.9467 6.50639C20.4494 6.18899 20.7643 5.55595 20.7198 5.05719C20.6745 4.56017 20.8106 3.79023 20.5393 3.65508C20.2662 3.51905 19.1346 2.88514 18.6374 3.11272C18.1383 3.33856 17.7763 3.51905 17.5486 3.11272C17.3226 2.70377 17.0068 2.47793 16.5086 2.61309C16.0096 2.74998 15.692 2.52328 15.4207 2.29657C15.3806 2.26169 15.3457 2.20763 15.3178 2.14746C15.1171 2.18931 14.8528 2.26692 14.6826 2.40382C14.379 2.64535 14.3197 3.12754 13.8966 3.12754C13.4743 3.12754 12.9919 2.94618 12.5085 3.30891C12.0243 3.67077 11.9039 4.09455 11.965 4.3945C12.0243 4.6962 12.0854 5.18014 11.7233 5.18014C11.3604 5.18014 11.4215 5.60304 11.0594 5.72249C10.6965 5.8437 10.0928 6.3878 10.0317 6.68601C9.97238 6.98945 9.97238 7.65388 9.72897 7.65388C9.48818 7.65388 8.6428 7.77421 8.40113 8.07504C8.16034 8.37848 7.86023 8.67756 7.37515 8.55898C7.12738 8.4962 6.46347 8.46742 5.87894 8.4526C5.88766 8.51189 5.88766 8.57119 5.86411 8.63309C5.63815 9.26875 5.81874 9.85471 6.1808 10.1721C6.54373 10.4886 6.67983 11.7565 6.27153 11.9378C5.86323 12.1174 5.09375 12.6615 5.09375 12.9789C5.09375 13.2946 5.9086 13.5675 5.7725 14.0192C5.69573 14.279 5.69224 14.7386 5.73673 15.1379C6.12235 15.1562 6.50185 15.2234 6.82901 14.8946C7.19194 14.5328 7.37341 14.1099 8.15772 14.1099C8.94204 14.1099 11.2985 14.1099 11.6605 14.5328C12.0226 14.9557 12.9892 14.5929 13.5328 14.8353C14.0763 15.076 14.8606 15.3193 14.9208 15.0158C14.9827 14.7141 15.7077 15.4379 16.2504 15.137C16.7939 14.8353 17.2764 15.7404 17.5791 15.5599C17.881 15.3768 19.1486 15.3786 19.4505 15.6803C19.7541 15.982 19.8116 15.3768 19.8116 15.0158C19.8116 14.654 21.0217 13.6896 21.0217 13.6896C21.0217 13.6896 21.8444 13.6451 22.3347 13.4245C22.2248 13.2676 22.1323 13.0103 22.0311 12.5709C21.806 11.5742 21.4431 10.9874 21.7153 10.6691C21.9866 10.3517 22.7561 11.0763 23.1627 10.8958C23.5718 10.7153 24.2959 10.3517 24.2052 9.94452C24.1145 9.53732 23.4383 8.99583 23.0763 8.90515Z" fill="white"/>
<path fill-rule="evenodd" clip-rule="evenodd" d="M23.0763 8.90515C22.7142 8.81446 22.4874 8.0018 21.8968 7.77421C21.3087 7.54663 21.4448 6.82291 20.9467 6.50639C20.4494 6.18899 20.7643 5.55595 20.7198 5.05719C20.6745 4.56017 20.8106 3.79023 20.5393 3.65508C20.2662 3.51905 19.1346 2.88514 18.6374 3.11272C18.1383 3.33856 17.7763 3.51905 17.5486 3.11272C17.3226 2.70377 17.0068 2.47793 16.5086 2.61309C16.0096 2.74998 15.692 2.52328 15.4207 2.29657C15.3806 2.26169 15.3457 2.20763 15.3178 2.14746C15.1171 2.18931 14.8528 2.26692 14.6826 2.40382C14.379 2.64535 14.3197 3.12754 13.8966 3.12754C13.4743 3.12754 12.9919 2.94618 12.5085 3.30891C12.0243 3.67077 11.9039 4.09455 11.965 4.3945C12.0243 4.6962 12.0854 5.18014 11.7233 5.18014C11.3604 5.18014 11.4215 5.60304 11.0594 5.72249C10.6965 5.8437 10.0928 6.3878 10.0317 6.68601C9.97238 6.98945 9.97238 7.65388 9.72897 7.65388C9.48818 7.65388 8.6428 7.77421 8.40113 8.07504C8.16034 8.37848 7.86023 8.67756 7.37515 8.55898C7.12738 8.4962 6.46347 8.46742 5.87894 8.4526C5.88766 8.51189 5.88766 8.57119 5.86411 8.63309C5.63815 9.26875 5.81874 9.85471 6.1808 10.1721C6.54373 10.4886 6.67983 11.7565 6.27153 11.9378C5.86323 12.1174 5.09375 12.6615 5.09375 12.9789C5.09375 13.2946 5.9086 13.5675 5.7725 14.0192C5.69573 14.279 5.69224 14.7386 5.73673 15.1379C6.12235 15.1562 6.50185 15.2234 6.82901 14.8946C7.19194 14.5328 7.37341 14.1099 8.15772 14.1099C8.94204 14.1099 11.2985 14.1099 11.6605 14.5328C12.0226 14.9557 12.9892 14.5929 13.5328 14.8353C14.0763 15.076 14.8606 15.3193 14.9208 15.0158C14.9827 14.7141 15.7077 15.4379 16.2504 15.137C16.7939 14.8353 17.2764 15.7404 17.5791 15.5599C17.881 15.3768 19.1486 15.3786 19.4505 15.6803C19.7541 15.982 19.8116 15.3768 19.8116 15.0158C19.8116 14.654 21.0217 13.6896 21.0217 13.6896C21.0217 13.6896 21.8444 13.6451 22.3347 13.4245C22.2248 13.2676 22.1323 13.0103 22.0311 12.5709C21.806 11.5742 21.4431 10.9874 21.7153 10.6691C21.9866 10.3517 22.7561 11.0763 23.1627 10.8958C23.5718 10.7153 24.2959 10.3517 24.2052 9.94452C24.1145 9.53732 23.4383 8.99583 23.0763 8.90515Z" stroke="#868686" stroke-width="0.25"/>
</g>
<defs>
<filter id="filter0_d_877_3293" x="0.96875" y="0.00488281" width="27.3691" height="21.8828" filterUnits="userSpaceOnUse" color-interpolation-filters="sRGB">
<feFlood flood-opacity="0" result="BackgroundImageFix"/>
<feColorMatrix in="SourceAlpha" type="matrix" values="0 0 0 0 0 0 0 0 0 0 0 0 0 0 0 0 0 0 127 0" result="hardAlpha"/>
<feOffset dy="2"/>
<feGaussianBlur stdDeviation="2"/>
<feColorMatrix type="matrix" values="0 0 0 0 0 0 0 0 0 0 0 0 0 0 0 0 0 0 0.01 0"/>
<feBlend mode="normal" in2="BackgroundImageFix" result="effect1_dropShadow_877_3293"/>
<feBlend mode="normal" in="SourceGraphic" in2="effect1_dropShadow_877_3293" result="shape"/>
</filter>
</defs>
</svg>
