<svg width="27" height="101" viewBox="0 0 27 101" fill="none" xmlns="http://www.w3.org/2000/svg">
<g filter="url(#filter0_d_877_3325)">
<path fill-rule="evenodd" clip-rule="evenodd" d="M12.2172 84.3371C11.726 84.3973 11.5428 83.4809 11.2366 83.4809C10.9295 83.4809 10.8684 81.8878 11.1127 81.151C11.3587 80.4151 9.7037 80.7839 9.21165 80.5389C8.72222 80.2947 9.39573 79.8021 8.84523 79.1899C8.29385 78.5787 8.72309 77.7181 8.78416 77.29C8.84523 76.8618 9.21252 75.941 9.88778 75.941C10.5613 75.941 10.071 74.9601 10.7454 74.5328C11.4206 74.1056 10.1321 73.3696 10.6852 72.9424C11.2366 72.5116 10.6852 71.7146 11.5428 71.5934C12.4013 71.4696 11.5428 70.3657 12.1561 70.1835C12.7694 69.9995 12.0331 69.3255 12.2172 68.5895C12.4013 67.8536 11.726 67.3025 12.5243 66.9973C13.3208 66.6895 12.7694 66.0766 12.2172 65.6493C11.6649 65.2185 12.3393 65.2185 13.0146 65.2185C13.689 65.2185 13.3217 64.1181 12.7084 64.3004C11.9807 64.5184 11.5437 63.8103 12.0942 63.2601C12.6455 62.7056 11.6047 62.3393 11.7879 61.9731C11.972 61.6051 11.972 61.1142 11.6056 60.8692C11.2374 60.6242 11.4817 58.7852 11.9109 58.7242C12.3393 58.6623 12.034 57.009 12.034 56.5173C12.034 56.029 11.5437 55.5381 11.6056 55.1099C11.6649 54.68 12.1561 54.5562 12.1561 53.7C12.1561 52.842 12.3402 52.4749 12.7084 52.413C13.0756 52.351 12.7694 51.3701 12.8314 50.88C12.8916 50.39 13.873 50.88 13.9952 50.0857C14.1182 49.2861 13.3819 49.4117 13.504 48.9208C13.6506 48.3339 13.4429 47.5736 13.4429 46.2247C13.4429 44.8757 14.5466 44.5714 14.9749 44.2017C15.4042 43.8337 14.4235 41.8745 14.9749 41.6277C15.5272 41.3827 15.159 40.4636 15.5891 40.1576C16.0184 39.8506 15.8953 39.1766 16.1405 38.4407C16.3856 37.7056 15.6511 37.3359 15.6511 36.6645C15.6511 35.9905 15.5272 35.3775 14.9758 34.6416C14.4235 33.9065 14.6076 32.4381 14.9758 32.4381C15.344 32.4381 15.1599 31.0273 15.8351 30.8442C16.5087 30.6619 16.1405 29.6182 15.8351 28.7593C15.5272 27.9004 16.3856 28.3312 16.3856 27.6572C16.3856 26.9823 16.7538 26.0641 17.3061 25.8191C17.8583 25.5732 17.9194 24.5321 17.9194 24.1004C17.9194 23.6732 18.7159 23.4883 19.1451 23.1221C19.5744 22.755 18.4088 22.1429 19.0841 21.7732C19.7576 21.4043 18.5318 19.8732 18.9 19.5689C19.2673 19.2611 18.9611 18.587 19.023 18.097C19.0841 17.607 21.1072 16.6888 21.3524 16.2589C21.5312 15.9459 21.7101 14.8472 21.7703 13.8724C21.1386 14.2822 20.5881 14.5028 20.4869 14.2665C20.3063 13.8453 20.548 12.5757 20.0045 12.0334C19.461 11.4893 19.823 10.4046 19.2795 10.163C18.736 9.9215 18.0729 8.83592 18.5545 8.47144C19.037 8.10957 18.5545 7.38759 18.9776 7.02486C19.3999 6.66299 18.736 6.60108 18.1314 5.87649C17.5285 5.15363 18.373 4.24854 17.6481 3.70443C16.9239 3.1612 16.9239 2.49852 16.7425 2.80021C16.5619 3.10366 16.5017 4.12821 15.898 4.42991C15.7985 4.47873 15.6423 4.59645 15.4539 4.75079C15.4583 5.25042 15.2785 6.09535 15.4748 6.58713C15.7462 7.26639 15.8814 10.5702 15.6101 11.8372C15.3379 13.1068 15.0657 14.1453 14.7952 14.9135C14.523 15.686 15.4295 15.7305 15.0665 16.0924C14.7053 16.4551 14.8406 17.3611 14.8406 18.8085C14.8406 20.2577 13.9795 22.7009 13.9341 23.4709C13.8896 24.2399 13.2999 24.7378 13.3915 25.5976C13.4822 26.4582 12.984 26.957 12.485 27.3624C11.9869 27.7705 13.2999 29.0837 13.2554 29.8074C13.21 30.5311 12.2582 30.8485 12.485 32.0265C12.7685 33.4958 12.485 36.0079 12.485 36.5084C12.485 37.0046 11.8961 36.9601 12.0322 37.9088C12.1683 38.861 11.4433 39.0877 11.3072 40.4444C11.1711 41.8038 10.1294 43.7492 9.72289 44.7894C9.3146 45.8297 9.3146 46.4191 8.77195 46.4191C8.22668 46.4191 8.09232 47.0077 8.49888 47.9145C8.9063 48.8187 8.22668 49.5878 8.77195 50.4938C9.3146 51.3989 9.13313 51.7145 8.86181 52.576C8.58961 53.434 8.22668 53.4811 8.22668 54.2955C8.22668 55.1117 7.59242 55.7918 7.95535 56.6951C8.31915 57.6011 8.22668 57.9185 7.77389 57.9185C7.32109 57.9185 7.09426 58.6414 6.91367 60.135C6.7322 61.6278 6.77757 61.5842 7.86462 61.4935C8.95167 61.4046 8.09145 57.8269 8.77107 57.8269C9.44982 57.8269 8.86093 57.2384 9.53968 57.0579C10.2193 56.8774 9.63042 57.6909 10.0841 57.8269C10.5369 57.9621 10.8536 58.3248 10.2202 58.7312C9.58592 59.1401 10.3554 59.9545 10.0387 60.4533C9.72202 60.9503 9.26836 61.4935 9.53968 62.083C9.81188 62.6724 9.22212 62.6262 9.17763 63.3953C9.13226 64.1643 9.58505 64.2114 9.26836 64.3911C8.95167 64.5724 9.67578 65.161 9.22212 65.2517C8.7702 65.3406 9.04153 65.9301 9.31285 66.4724C9.58505 67.0148 8.72483 66.6983 8.27117 67.0619C7.81838 67.4229 8.72483 67.9199 8.45264 68.4204C8.18131 68.9183 7.45632 68.1475 7.13963 67.8772C6.82294 67.6051 7.63866 67.0619 8.04608 66.5186C8.45351 65.9745 7.63866 64.7538 6.95904 65.0232C6.27941 65.2953 7.63866 66.0635 7.63866 66.6529C7.63866 67.2424 6.50624 66.5186 6.55074 67.1508C6.5961 67.7856 5.78125 67.5589 5.37383 68.0114C4.96641 68.4631 5.91735 68.8703 5.46456 69.0081C5.01177 69.1432 4.24142 69.778 4.19605 70.2297C4.15068 70.6814 4.69421 70.7721 4.69421 70.3195C4.69421 69.867 5.41832 69.7318 5.64428 70.3195C5.87112 70.909 6.18868 70.3195 6.82206 70.4555C7.45632 70.5907 7.36646 71.5429 7.00353 71.4967C6.6406 71.4513 6.27854 72.0861 6.36927 72.7636C6.46001 73.4437 7.72765 72.7636 8.27117 72.9458C8.81557 73.1272 8.63497 74.0768 8.31741 73.7594C7.99985 73.4446 7.27486 72.8988 6.95729 73.4446C6.6406 73.9861 6.14244 73.7167 5.73502 73.5344C5.32759 73.3539 3.87848 74.3061 4.37664 74.6662C4.87393 75.0272 4.82943 75.6167 5.147 75.5722C5.46369 75.526 5.96185 75.2993 6.14331 74.9374C6.32478 74.5747 6.95816 74.2128 7.00353 75.0272C7.0489 75.8442 6.14331 75.4362 5.96185 75.8878C5.78038 76.3421 5.41745 76.7031 4.87393 77.1103C4.3304 77.5175 4.87393 78.1968 5.32759 77.9701C5.78125 77.7425 5.19236 78.5116 5.82575 78.6031C6.41028 78.6877 6.59523 78.2413 6.46001 77.7887C6.32478 77.3362 6.7767 76.3413 7.32109 76.8383C7.86462 77.3362 7.0489 77.8349 7.0489 78.2866C7.0489 78.7409 6.73133 79.3286 6.73133 79.8247C6.73133 80.3226 6.14244 80.0514 6.18781 80.5956C6.23317 81.1388 4.91929 80.7769 5.50906 81.1388C6.09707 81.5006 5.147 81.9977 5.46369 82.3613C5.78125 82.7214 6.05258 81.8625 6.55074 82.0439C7.04977 82.2244 6.95816 82.3613 7.59242 82.0892C8.22668 81.8172 8.58874 82.5871 8.00072 82.7676C7.41183 82.9481 6.77757 83.6273 7.04977 83.7198C7.32197 83.8096 8.09145 83.2672 8.27204 83.8541C8.45351 84.4435 8.9063 84.2621 8.95167 83.6273C8.99616 82.9952 10.0841 83.5367 10.2647 84.0808C10.4461 84.6231 9.13226 84.9405 8.45264 84.8062C7.77389 84.6685 7.41183 85.4393 7.86462 86.027C8.31828 86.6164 8.86093 86.027 9.35909 85.5291C9.85725 85.0329 12.3035 85.1672 12.4841 85.7105C12.6647 86.2528 11.3526 85.8011 11.2165 86.1168C11.0804 86.4342 10.0841 86.7062 9.94798 86.3444C9.81188 85.9825 8.86093 86.4795 8.81557 87.069C8.77107 87.6558 8.04521 87.6558 8.86093 87.8843C9.67666 88.1101 9.44982 87.0236 10.7183 87.1143C11.986 87.2033 12.6647 85.9354 13.0268 86.6618C13.3897 87.3864 11.986 87.9749 11.4869 87.5198C10.9897 87.0681 10.3999 87.8363 10.4453 88.5164C10.4898 89.1957 8.99529 88.3351 8.27117 88.2444C7.54705 88.1537 7.86375 88.9245 8.498 89.602C9.13226 90.2822 9.49432 89.5131 10.2638 90.011C11.0342 90.5089 11.0342 91.053 11.5768 90.5542C12.1221 90.0546 11.5768 90.1025 11.2156 89.8749C10.8527 89.6482 11.1703 88.8792 12.0305 89.2855C12.8907 89.6936 13.887 88.9254 13.6157 87.8372C13.3435 86.7516 14.3852 86.2537 15.4277 85.891C16.4694 85.53 15.9259 86.5702 15.1564 86.8867C14.386 87.2033 14.2499 87.4317 14.8388 88.0648C15.4277 88.6995 16.1981 87.6567 16.6954 88.1554C17.1935 88.6533 15.7898 88.5626 15.5638 89.0614C15.337 89.5575 16.424 90.147 15.6545 90.5097C14.8851 90.8725 15.2471 89.0143 14.7943 88.8338C14.3407 88.6533 13.9332 89.0614 14.386 90.1034C14.8388 91.1419 13.8425 90.2368 13.3897 89.7398C12.9361 89.2428 12.3027 89.9665 12.8453 90.5097C13.3897 91.0538 11.8045 90.4635 11.8045 91.3241C11.8045 92.183 12.4833 91.4602 13.2981 91.6424C14.1138 91.822 13.7518 93.0009 14.3398 93.4526C14.9287 93.9043 14.4305 92.0025 15.0639 91.8682C15.6982 91.7322 15.1102 93.3157 16.5139 93.7691C17.9176 94.2225 16.6046 93.4971 17.238 93.0436C17.8723 92.5911 18.6871 94.4022 19.3667 94.5835C20.0455 94.7658 19.5927 93.7691 19.0937 93.2241C18.5964 92.6835 19.5918 93.0009 20.2714 93.2241C20.9511 93.4535 21.4946 93.5415 21.6307 93.0436C21.6813 92.8579 21.8078 92.8614 21.9692 92.9137C21.2617 92.4525 18.8581 92.7882 18.5275 92.7324C18.2012 92.68 18.4533 87.253 18.5144 86.0095C18.4655 85.9965 18.4175 85.9843 18.3696 85.9843C17.7815 85.9843 16.4677 86.1185 16.6936 85.2143C16.7329 85.0539 16.8201 84.9606 16.9318 84.91C16.6639 84.6685 16.2853 84.3964 15.8308 84.2761C14.9147 84.0328 12.7084 84.2761 12.2172 84.3371Z" fill="white"/>
<path fill-rule="evenodd" clip-rule="evenodd" d="M12.2172 84.3371C11.726 84.3973 11.5428 83.4809 11.2366 83.4809C10.9295 83.4809 10.8684 81.8878 11.1127 81.151C11.3587 80.4151 9.7037 80.7839 9.21165 80.5389C8.72222 80.2947 9.39573 79.8021 8.84523 79.1899C8.29385 78.5787 8.72309 77.7181 8.78416 77.29C8.84523 76.8618 9.21252 75.941 9.88778 75.941C10.5613 75.941 10.071 74.9601 10.7454 74.5328C11.4206 74.1056 10.1321 73.3696 10.6852 72.9424C11.2366 72.5116 10.6852 71.7146 11.5428 71.5934C12.4013 71.4696 11.5428 70.3657 12.1561 70.1835C12.7694 69.9995 12.0331 69.3255 12.2172 68.5895C12.4013 67.8536 11.726 67.3025 12.5243 66.9973C13.3208 66.6895 12.7694 66.0766 12.2172 65.6493C11.6649 65.2185 12.3393 65.2185 13.0146 65.2185C13.689 65.2185 13.3217 64.1181 12.7084 64.3004C11.9807 64.5184 11.5437 63.8103 12.0942 63.2601C12.6455 62.7056 11.6047 62.3393 11.7879 61.9731C11.972 61.6051 11.972 61.1142 11.6056 60.8692C11.2374 60.6242 11.4817 58.7852 11.9109 58.7242C12.3393 58.6623 12.034 57.009 12.034 56.5173C12.034 56.029 11.5437 55.5381 11.6056 55.1099C11.6649 54.68 12.1561 54.5562 12.1561 53.7C12.1561 52.842 12.3402 52.4749 12.7084 52.413C13.0756 52.351 12.7694 51.3701 12.8314 50.88C12.8916 50.39 13.873 50.88 13.9952 50.0857C14.1182 49.2861 13.3819 49.4117 13.504 48.9208C13.6506 48.3339 13.4429 47.5736 13.4429 46.2247C13.4429 44.8757 14.5466 44.5714 14.9749 44.2017C15.4042 43.8337 14.4235 41.8745 14.9749 41.6277C15.5272 41.3827 15.159 40.4636 15.5891 40.1576C16.0184 39.8506 15.8953 39.1766 16.1405 38.4407C16.3856 37.7056 15.6511 37.3359 15.6511 36.6645C15.6511 35.9905 15.5272 35.3775 14.9758 34.6416C14.4235 33.9065 14.6076 32.4381 14.9758 32.4381C15.344 32.4381 15.1599 31.0273 15.8351 30.8442C16.5087 30.6619 16.1405 29.6182 15.8351 28.7593C15.5272 27.9004 16.3856 28.3312 16.3856 27.6572C16.3856 26.9823 16.7538 26.0641 17.3061 25.8191C17.8583 25.5732 17.9194 24.5321 17.9194 24.1004C17.9194 23.6732 18.7159 23.4883 19.1451 23.1221C19.5744 22.755 18.4088 22.1429 19.0841 21.7732C19.7576 21.4043 18.5318 19.8732 18.9 19.5689C19.2673 19.2611 18.9611 18.587 19.023 18.097C19.0841 17.607 21.1072 16.6888 21.3524 16.2589C21.5312 15.9459 21.7101 14.8472 21.7703 13.8724C21.1386 14.2822 20.5881 14.5028 20.4869 14.2665C20.3063 13.8453 20.548 12.5757 20.0045 12.0334C19.461 11.4893 19.823 10.4046 19.2795 10.163C18.736 9.9215 18.0729 8.83592 18.5545 8.47144C19.037 8.10957 18.5545 7.38759 18.9776 7.02486C19.3999 6.66299 18.736 6.60108 18.1314 5.87649C17.5285 5.15363 18.373 4.24854 17.6481 3.70443C16.9239 3.1612 16.9239 2.49852 16.7425 2.80021C16.5619 3.10366 16.5017 4.12821 15.898 4.42991C15.7985 4.47873 15.6423 4.59645 15.4539 4.75079C15.4583 5.25042 15.2785 6.09535 15.4748 6.58713C15.7462 7.26639 15.8814 10.5702 15.6101 11.8372C15.3379 13.1068 15.0657 14.1453 14.7952 14.9135C14.523 15.686 15.4295 15.7305 15.0665 16.0924C14.7053 16.4551 14.8406 17.3611 14.8406 18.8085C14.8406 20.2577 13.9795 22.7009 13.9341 23.4709C13.8896 24.2399 13.2999 24.7378 13.3915 25.5976C13.4822 26.4582 12.984 26.957 12.485 27.3624C11.9869 27.7705 13.2999 29.0837 13.2554 29.8074C13.21 30.5311 12.2582 30.8485 12.485 32.0265C12.7685 33.4958 12.485 36.0079 12.485 36.5084C12.485 37.0046 11.8961 36.9601 12.0322 37.9088C12.1683 38.861 11.4433 39.0877 11.3072 40.4444C11.1711 41.8038 10.1294 43.7492 9.72289 44.7894C9.3146 45.8297 9.3146 46.4191 8.77195 46.4191C8.22668 46.4191 8.09232 47.0077 8.49888 47.9145C8.9063 48.8187 8.22668 49.5878 8.77195 50.4938C9.3146 51.3989 9.13313 51.7145 8.86181 52.576C8.58961 53.434 8.22668 53.4811 8.22668 54.2955C8.22668 55.1117 7.59242 55.7918 7.95535 56.6951C8.31915 57.6011 8.22668 57.9185 7.77389 57.9185C7.32109 57.9185 7.09426 58.6414 6.91367 60.135C6.7322 61.6278 6.77757 61.5842 7.86462 61.4935C8.95167 61.4046 8.09145 57.8269 8.77107 57.8269C9.44982 57.8269 8.86093 57.2384 9.53968 57.0579C10.2193 56.8774 9.63042 57.6909 10.0841 57.8269C10.5369 57.9621 10.8536 58.3248 10.2202 58.7312C9.58592 59.1401 10.3554 59.9545 10.0387 60.4533C9.72202 60.9503 9.26836 61.4935 9.53968 62.083C9.81188 62.6724 9.22212 62.6262 9.17763 63.3953C9.13226 64.1643 9.58505 64.2114 9.26836 64.3911C8.95167 64.5724 9.67578 65.161 9.22212 65.2517C8.7702 65.3406 9.04153 65.9301 9.31285 66.4724C9.58505 67.0148 8.72483 66.6983 8.27117 67.0619C7.81838 67.4229 8.72483 67.9199 8.45264 68.4204C8.18131 68.9183 7.45632 68.1475 7.13963 67.8772C6.82294 67.6051 7.63866 67.0619 8.04608 66.5186C8.45351 65.9745 7.63866 64.7538 6.95904 65.0232C6.27941 65.2953 7.63866 66.0635 7.63866 66.6529C7.63866 67.2424 6.50624 66.5186 6.55074 67.1508C6.5961 67.7856 5.78125 67.5589 5.37383 68.0114C4.96641 68.4631 5.91735 68.8703 5.46456 69.0081C5.01177 69.1432 4.24142 69.778 4.19605 70.2297C4.15068 70.6814 4.69421 70.7721 4.69421 70.3195C4.69421 69.867 5.41832 69.7318 5.64428 70.3195C5.87112 70.909 6.18868 70.3195 6.82206 70.4555C7.45632 70.5907 7.36646 71.5429 7.00353 71.4967C6.6406 71.4513 6.27854 72.0861 6.36927 72.7636C6.46001 73.4437 7.72765 72.7636 8.27117 72.9458C8.81557 73.1272 8.63497 74.0768 8.31741 73.7594C7.99985 73.4446 7.27486 72.8988 6.95729 73.4446C6.6406 73.9861 6.14244 73.7167 5.73502 73.5344C5.32759 73.3539 3.87848 74.3061 4.37664 74.6662C4.87393 75.0272 4.82943 75.6167 5.147 75.5722C5.46369 75.526 5.96185 75.2993 6.14331 74.9374C6.32478 74.5747 6.95816 74.2128 7.00353 75.0272C7.0489 75.8442 6.14331 75.4362 5.96185 75.8878C5.78038 76.3421 5.41745 76.7031 4.87393 77.1103C4.3304 77.5175 4.87393 78.1968 5.32759 77.9701C5.78125 77.7425 5.19236 78.5116 5.82575 78.6031C6.41028 78.6877 6.59523 78.2413 6.46001 77.7887C6.32478 77.3362 6.7767 76.3413 7.32109 76.8383C7.86462 77.3362 7.0489 77.8349 7.0489 78.2866C7.0489 78.7409 6.73133 79.3286 6.73133 79.8247C6.73133 80.3226 6.14244 80.0514 6.18781 80.5956C6.23317 81.1388 4.91929 80.7769 5.50906 81.1388C6.09707 81.5006 5.147 81.9977 5.46369 82.3613C5.78125 82.7214 6.05258 81.8625 6.55074 82.0439C7.04977 82.2244 6.95816 82.3613 7.59242 82.0892C8.22668 81.8172 8.58874 82.5871 8.00072 82.7676C7.41183 82.9481 6.77757 83.6273 7.04977 83.7198C7.32197 83.8096 8.09145 83.2672 8.27204 83.8541C8.45351 84.4435 8.9063 84.2621 8.95167 83.6273C8.99616 82.9952 10.0841 83.5367 10.2647 84.0808C10.4461 84.6231 9.13226 84.9405 8.45264 84.8062C7.77389 84.6685 7.41183 85.4393 7.86462 86.027C8.31828 86.6164 8.86093 86.027 9.35909 85.5291C9.85725 85.0329 12.3035 85.1672 12.4841 85.7105C12.6647 86.2528 11.3526 85.8011 11.2165 86.1168C11.0804 86.4342 10.0841 86.7062 9.94798 86.3444C9.81188 85.9825 8.86093 86.4795 8.81557 87.069C8.77107 87.6558 8.04521 87.6558 8.86093 87.8843C9.67666 88.1101 9.44982 87.0236 10.7183 87.1143C11.986 87.2033 12.6647 85.9354 13.0268 86.6618C13.3897 87.3864 11.986 87.9749 11.4869 87.5198C10.9897 87.0681 10.3999 87.8363 10.4453 88.5164C10.4898 89.1957 8.99529 88.3351 8.27117 88.2444C7.54705 88.1537 7.86375 88.9245 8.498 89.602C9.13226 90.2822 9.49432 89.5131 10.2638 90.011C11.0342 90.5089 11.0342 91.053 11.5768 90.5542C12.1221 90.0546 11.5768 90.1025 11.2156 89.8749C10.8527 89.6482 11.1703 88.8792 12.0305 89.2855C12.8907 89.6936 13.887 88.9254 13.6157 87.8372C13.3435 86.7516 14.3852 86.2537 15.4277 85.891C16.4694 85.53 15.9259 86.5702 15.1564 86.8867C14.386 87.2033 14.2499 87.4317 14.8388 88.0648C15.4277 88.6995 16.1981 87.6567 16.6954 88.1554C17.1935 88.6533 15.7898 88.5626 15.5638 89.0614C15.337 89.5575 16.424 90.147 15.6545 90.5097C14.8851 90.8725 15.2471 89.0143 14.7943 88.8338C14.3407 88.6533 13.9332 89.0614 14.386 90.1034C14.8388 91.1419 13.8425 90.2368 13.3897 89.7398C12.9361 89.2428 12.3027 89.9665 12.8453 90.5097C13.3897 91.0538 11.8045 90.4635 11.8045 91.3241C11.8045 92.183 12.4833 91.4602 13.2981 91.6424C14.1138 91.822 13.7518 93.0009 14.3398 93.4526C14.9287 93.9043 14.4305 92.0025 15.0639 91.8682C15.6982 91.7322 15.1102 93.3157 16.5139 93.7691C17.9176 94.2225 16.6046 93.4971 17.238 93.0436C17.8723 92.5911 18.6871 94.4022 19.3667 94.5835C20.0455 94.7658 19.5927 93.7691 19.0937 93.2241C18.5964 92.6835 19.5918 93.0009 20.2714 93.2241C20.9511 93.4535 21.4946 93.5415 21.6307 93.0436C21.6813 92.8579 21.8078 92.8614 21.9692 92.9137C21.2617 92.4525 18.8581 92.7882 18.5275 92.7324C18.2012 92.68 18.4533 87.253 18.5144 86.0095C18.4655 85.9965 18.4175 85.9843 18.3696 85.9843C17.7815 85.9843 16.4677 86.1185 16.6936 85.2143C16.7329 85.0539 16.8201 84.9606 16.9318 84.91C16.6639 84.6685 16.2853 84.3964 15.8308 84.2761C14.9147 84.0328 12.7084 84.2761 12.2172 84.3371Z" stroke="#868686" stroke-width="0.25"/>
</g>
<defs>
<filter id="filter0_d_877_3325" x="0.0683594" y="0.599609" width="25.9688" height="100.131" filterUnits="userSpaceOnUse" color-interpolation-filters="sRGB">
<feFlood flood-opacity="0" result="BackgroundImageFix"/>
<feColorMatrix in="SourceAlpha" type="matrix" values="0 0 0 0 0 0 0 0 0 0 0 0 0 0 0 0 0 0 127 0" result="hardAlpha"/>
<feOffset dy="2"/>
<feGaussianBlur stdDeviation="2"/>
<feColorMatrix type="matrix" values="0 0 0 0 0 0 0 0 0 0 0 0 0 0 0 0 0 0 0.01 0"/>
<feBlend mode="normal" in2="BackgroundImageFix" result="effect1_dropShadow_877_3325"/>
<feBlend mode="normal" in="SourceGraphic" in2="effect1_dropShadow_877_3325" result="shape"/>
</filter>
</defs>
</svg>
