<svg width="30" height="40" viewBox="0 0 30 40" fill="none" xmlns="http://www.w3.org/2000/svg">
<g filter="url(#filter0_d_877_3411)">
<path fill-rule="evenodd" clip-rule="evenodd" d="M8.601 19.2101C7.83675 18.4733 6.85265 19.6278 6.04565 19.6156C5.91479 20.2042 5.70279 20.6271 5.48991 20.7788C5.16973 21.0072 4.57735 21.8731 5.03363 21.9655C5.48991 22.0562 6.21839 22.7852 6.31174 22.2384C6.40073 21.6909 6.72179 20.9601 7.4965 21.8722C7.68059 22.0902 7.91789 22.2969 8.17177 22.4861C8.29739 22.0719 9.25096 22.0013 9.7465 21.5034C10.3511 20.9 9.44551 20.0245 8.601 19.2101ZM25.1152 26.6933C25.1772 25.7873 23.1837 25.1543 22.9708 25.6356C22.7605 26.1187 22.3069 26.0602 21.9736 25.5179C21.6421 24.9729 22.2772 24.4602 21.9457 24.4C21.6116 24.3399 21.1902 23.5847 21.2826 23.2839C21.3725 22.9822 20.7679 21.0508 19.7419 20.8093C18.7142 20.5686 18.5642 19.1194 18.3827 18.3356C18.2012 17.5508 17.5356 17.9711 17.0243 17.3084C16.5105 16.6448 15.6345 16.977 15.1817 17.0067C14.7298 17.0372 15.1817 16.16 15.9059 15.6787C16.6308 15.1956 17.478 12.6295 17.478 12.1185C17.478 11.604 14.3076 11.6337 13.703 11.9371C13.0984 12.2379 12.4955 11.4846 13.0076 11.2727C13.5215 11.0617 14.6094 10.0057 14.5484 9.58283C14.489 9.1608 15.3048 8.76841 14.8511 8.37603C14.3983 7.98452 14.3372 8.89049 13.9446 9.19132C13.5529 9.49301 12.6761 9.4032 11.74 9.22183C10.8039 9.04047 10.4418 10.3676 10.4715 10.9413C10.5029 11.5151 9.38444 11.8464 9.56416 12.3295C9.74563 12.8126 9.35391 13.1736 9.05292 12.9015C8.75193 12.6303 8.41954 11.9668 7.81494 12.449C7.21035 12.9329 8.5094 13.5668 9.29371 13.6584C10.0789 13.7482 8.69173 14.3219 8.53993 15.1642C8.38987 16.0118 9.56504 15.649 9.62785 16.2516C9.68892 16.855 7.93621 16.9456 7.93621 17.5185C7.93621 18.094 8.9334 17.2465 9.38532 17.0067C9.83898 16.7643 9.1454 18.4236 10.2324 18.244C11.3186 18.0626 11.0159 16.5847 11.4085 16.6448C11.8019 16.7032 11.2279 17.4278 11.5603 18.0626C11.8901 18.6957 10.7742 19.6627 10.8344 20.1152C10.8946 20.5686 13.0687 20.5686 13.7632 19.8432C14.4585 19.1186 14.7883 19.9033 14.3067 20.4466C13.8234 20.9889 14.0336 21.5034 14.6391 21.7144C15.2428 21.9254 15.4557 21.9864 15.1835 22.4669C14.9113 22.9517 15.1521 23.8551 15.0011 24.3076C14.8511 24.7601 12.9789 24.7 12.9178 24.3983C12.8576 24.0966 12.0715 24.3076 12.2844 24.7288C12.4955 25.1525 11.6187 25.6051 11.6798 25.9983C11.7417 26.3916 12.8576 26.3 12.8872 26.7831C12.9169 27.2653 12.0715 27.8373 10.926 28.1704C9.77791 28.5017 11.1659 29.4086 11.7095 29.0153C12.253 28.6238 12.1335 29.2865 12.9178 29.2865C13.703 29.2865 14.188 29.9213 15.0613 29.5899C15.9373 29.2577 15.9076 29.5899 15.2437 30.1018C14.578 30.6171 13.5826 30.073 12.9789 30.4043C12.3751 30.7357 9.91837 33.0385 10.3825 33.6044C10.6547 33.9349 11.0159 33.1214 11.8909 32.7586C12.7677 32.3968 12.9178 32.9993 13.402 33.0595C13.8853 33.1214 13.9141 32.0646 14.3076 32.1544C14.7002 32.245 15.0613 31.823 15.7855 31.9442C16.5113 32.0654 17.0243 31.7934 17.3864 31.4917C17.7484 31.19 18.7133 32.0933 19.0178 31.8841C19.3179 31.6713 20.6475 31.4298 21.3123 31.4594C21.9745 31.4917 23.6967 30.706 24.1486 30.2831C24.6022 29.8611 23.8764 29.7713 23.2744 29.8611C22.6698 29.9527 22.7902 29.2586 23.4253 28.6543C24.0587 28.0527 25.0559 27.5984 25.1152 26.6933ZM6.97043 11.5447C7.78615 11.5151 8.7214 10.1269 8.32967 9.7328C7.93621 9.34129 6.36322 11.5657 6.97043 11.5447ZM18.6558 4.99545C19.1679 4.48448 19.7716 2.52257 18.9882 2.73358C18.2021 2.94547 18.4307 5.22041 18.6558 4.99545Z" fill="white"/>
<path d="M8.601 19.2101L8.68777 19.1201L8.68776 19.1201L8.601 19.2101ZM6.04565 19.6156L6.04754 19.4906L5.94573 19.4891L5.92363 19.5885L6.04565 19.6156ZM5.48991 20.7788L5.41736 20.677L5.41731 20.677L5.48991 20.7788ZM5.03363 21.9655L5.00882 22.088L5.00927 22.0881L5.03363 21.9655ZM6.31174 22.2384L6.43496 22.2595L6.43513 22.2585L6.31174 22.2384ZM7.4965 21.8722L7.59201 21.7916L7.59177 21.7913L7.4965 21.8722ZM8.17177 22.4861L8.09707 22.5863L8.23974 22.6926L8.29138 22.5224L8.17177 22.4861ZM9.7465 21.5034L9.6582 21.4149L9.6579 21.4152L9.7465 21.5034ZM25.1152 26.6933L24.9905 26.6848L24.9905 26.6851L25.1152 26.6933ZM22.9708 25.6356L22.8565 25.585L22.8562 25.5857L22.9708 25.6356ZM21.9736 25.5179L21.8668 25.5828L21.8671 25.5833L21.9736 25.5179ZM21.9457 24.4L21.968 24.277L21.9678 24.277L21.9457 24.4ZM21.2826 23.2839L21.4021 23.3207L21.4024 23.3196L21.2826 23.2839ZM19.7419 20.8093L19.7706 20.6876L19.7704 20.6876L19.7419 20.8093ZM18.3827 18.3356L18.2609 18.3637L18.2609 18.3637L18.3827 18.3356ZM17.0243 17.3084L17.1233 17.232L17.1231 17.2318L17.0243 17.3084ZM15.1817 17.0067L15.1736 16.882L15.1733 16.882L15.1817 17.0067ZM15.9059 15.6787L15.9751 15.7828L15.9752 15.7827L15.9059 15.6787ZM13.703 11.9371L13.7587 12.049L13.759 12.0488L13.703 11.9371ZM13.0076 11.2727L12.9602 11.1571L12.9599 11.1572L13.0076 11.2727ZM14.5484 9.58283L14.4246 9.60023L14.4246 9.60069L14.5484 9.58283ZM14.8511 8.37603L14.9329 8.28149L14.9328 8.28148L14.8511 8.37603ZM13.9446 9.19132L13.8686 9.09209L13.8684 9.09228L13.9446 9.19132ZM10.4715 10.9413L10.3467 10.9478L10.3467 10.9482L10.4715 10.9413ZM9.56416 12.3295L9.44701 12.3731L9.44715 12.3735L9.56416 12.3295ZM9.05292 12.9015L9.13674 12.8088L9.13659 12.8086L9.05292 12.9015ZM7.81494 12.449L7.737 12.3512L7.73683 12.3514L7.81494 12.449ZM9.29371 13.6584L9.27922 13.7825L9.27951 13.7826L9.29371 13.6584ZM8.53993 15.1642L8.41691 15.1421L8.41684 15.1424L8.53993 15.1642ZM9.62785 16.2516L9.75222 16.239L9.75218 16.2386L9.62785 16.2516ZM9.38532 17.0067L9.4439 17.1171L9.44422 17.1169L9.38532 17.0067ZM10.2324 18.244L10.2528 18.3673L10.253 18.3673L10.2324 18.244ZM11.4085 16.6448L11.3895 16.7684L11.3901 16.7685L11.4085 16.6448ZM11.5603 18.0626L11.6711 18.0049L11.671 18.0046L11.5603 18.0626ZM10.8344 20.1152L10.9583 20.0988L10.9583 20.0987L10.8344 20.1152ZM13.7632 19.8432L13.673 19.7566L13.6729 19.7567L13.7632 19.8432ZM14.3067 20.4466L14.4 20.5297L14.4002 20.5295L14.3067 20.4466ZM14.6391 21.7144L14.6803 21.5964L14.6802 21.5964L14.6391 21.7144ZM15.1835 22.4669L15.0747 22.4053L15.0745 22.4057L15.1835 22.4669ZM15.0011 24.3076L14.8826 24.2681L14.8825 24.2683L15.0011 24.3076ZM12.9178 24.3983L12.7952 24.4227L12.7953 24.4231L12.9178 24.3983ZM12.2844 24.7288L12.3963 24.673L12.396 24.6724L12.2844 24.7288ZM11.6798 25.9983L11.5563 26.0175L11.5563 26.0178L11.6798 25.9983ZM12.8872 26.7831L12.7625 26.7908L12.7625 26.7908L12.8872 26.7831ZM10.926 28.1704L10.9607 28.2905L10.9609 28.2904L10.926 28.1704ZM11.7095 29.0153L11.6364 28.9139L11.6362 28.914L11.7095 29.0153ZM15.0613 29.5899L15.017 29.4731L15.017 29.4731L15.0613 29.5899ZM15.2437 30.1018L15.1674 30.0028L15.1672 30.0029L15.2437 30.1018ZM10.3825 33.6044L10.2859 33.6837L10.286 33.6839L10.3825 33.6044ZM11.8909 32.7586L11.8432 32.6431L11.8431 32.6432L11.8909 32.7586ZM13.402 33.0595L13.4179 32.9355L13.4174 32.9354L13.402 33.0595ZM14.3076 32.1544L14.3357 32.0326L14.3354 32.0325L14.3076 32.1544ZM15.7855 31.9442L15.7648 32.0675L15.7649 32.0675L15.7855 31.9442ZM19.0178 31.8841L19.0886 31.9871L19.0901 31.986L19.0178 31.8841ZM21.3123 31.4594L21.3184 31.3346L21.3179 31.3345L21.3123 31.4594ZM24.1486 30.2831L24.0634 30.1916L24.0632 30.1919L24.1486 30.2831ZM23.2744 29.8611L23.256 29.7375L23.2557 29.7375L23.2744 29.8611ZM23.4253 28.6543L23.3392 28.5637L23.3392 28.5638L23.4253 28.6543ZM6.97043 11.5447L6.97473 11.6697L6.97497 11.6697L6.97043 11.5447ZM8.32967 9.7328L8.41833 9.64468L8.41784 9.64419L8.32967 9.7328ZM18.6558 4.99545L18.5675 4.90696L18.5674 4.90703L18.6558 4.99545ZM18.9882 2.73358L18.9556 2.61289L18.9556 2.61289L18.9882 2.73358ZM8.68776 19.1201C8.47185 18.912 8.23452 18.8343 7.99019 18.8394C7.75241 18.8443 7.514 18.9276 7.28895 19.0267C7.17562 19.0767 7.06236 19.1323 6.95235 19.1861C6.84145 19.2404 6.73383 19.293 6.62791 19.3392C6.414 19.4326 6.22152 19.4932 6.04754 19.4906L6.04376 19.7406C6.27328 19.744 6.50644 19.665 6.7279 19.5683C6.83967 19.5196 6.95216 19.4646 7.06227 19.4107C7.17326 19.3563 7.28188 19.3031 7.38977 19.2555C7.60715 19.1597 7.80849 19.0932 7.9954 19.0893C8.17575 19.0856 8.34802 19.1399 8.51424 19.3001L8.68776 19.1201ZM5.92363 19.5885C5.8598 19.8755 5.77688 20.1188 5.68602 20.3065C5.59372 20.4972 5.4988 20.619 5.41736 20.677L5.56246 20.8806C5.69391 20.7869 5.81141 20.6213 5.91105 20.4155C6.01213 20.2066 6.10064 19.9442 6.16767 19.6427L5.92363 19.5885ZM5.41731 20.677C5.23718 20.8056 4.99715 21.0964 4.85929 21.3663C4.79107 21.4998 4.73765 21.6474 4.74249 21.7779C4.74502 21.8459 4.76376 21.9168 4.81217 21.9763C4.86115 22.0364 4.93006 22.0721 5.00882 22.088L5.05845 21.843C5.02314 21.8359 5.01075 21.8242 5.00604 21.8184C5.00076 21.812 4.99342 21.7982 4.99232 21.7686C4.98991 21.7036 5.01905 21.6031 5.08191 21.48C5.20622 21.2367 5.42247 20.9805 5.56252 20.8805L5.41731 20.677ZM5.00927 22.0881C5.10296 22.1067 5.21933 22.1607 5.35316 22.2332C5.47854 22.3011 5.62628 22.3896 5.75295 22.4528C5.87685 22.5147 6.01968 22.574 6.14685 22.5638C6.21731 22.5581 6.28629 22.531 6.34058 22.4722C6.39236 22.4161 6.42089 22.3419 6.43496 22.2595L6.18853 22.2174C6.17926 22.2717 6.16461 22.2943 6.1569 22.3026C6.1517 22.3082 6.14488 22.3131 6.1268 22.3146C6.07686 22.3186 5.99155 22.2925 5.86463 22.2292C5.74047 22.1672 5.61471 22.0906 5.47225 22.0134C5.33824 21.9408 5.19245 21.8696 5.058 21.8429L5.00927 22.0881ZM6.43513 22.2585C6.45632 22.1281 6.49093 21.9898 6.54084 21.87C6.59166 21.7481 6.65312 21.6581 6.72058 21.609C6.78028 21.5655 6.85204 21.5478 6.95425 21.5851C7.06512 21.6255 7.21346 21.7321 7.40123 21.9531L7.59177 21.7913C7.39219 21.5563 7.20988 21.4122 7.03988 21.3502C6.86122 21.2851 6.7019 21.3133 6.57338 21.4069C6.4526 21.4949 6.3687 21.6332 6.31008 21.7738C6.25056 21.9166 6.21166 22.075 6.18836 22.2184L6.43513 22.2585ZM7.401 21.9529C7.59346 22.1808 7.83888 22.3939 8.09707 22.5863L8.24646 22.3859C7.9969 22.1999 7.76771 21.9996 7.59201 21.7916L7.401 21.9529ZM8.29138 22.5224C8.30992 22.4612 8.36295 22.3999 8.46797 22.3334C8.57238 22.2674 8.70901 22.2079 8.86849 22.1415C9.17653 22.0132 9.56597 21.862 9.8351 21.5916L9.6579 21.4152C9.43149 21.6427 9.09638 21.7757 8.77235 21.9107C8.61578 21.976 8.4595 22.043 8.33429 22.1222C8.20971 22.201 8.09642 22.3038 8.05215 22.4498L8.29138 22.5224ZM9.8348 21.5919C10.0111 21.4159 10.0818 21.2126 10.066 20.996C10.0507 20.7862 9.95543 20.5739 9.8221 20.368C9.5562 19.9572 9.10649 19.5239 8.68777 19.1201L8.51423 19.3001C8.94003 19.7107 9.36536 20.1224 9.61223 20.5038C9.73528 20.6939 9.80578 20.8645 9.81667 21.0141C9.82705 21.1567 9.78417 21.2892 9.6582 21.4149L9.8348 21.5919ZM25.2399 26.7018C25.2588 26.4254 25.1198 26.1825 24.9241 25.9892C24.7277 25.7953 24.4623 25.6384 24.1934 25.5285C23.9245 25.4186 23.6423 25.3518 23.4078 25.3454C23.2908 25.3423 23.1787 25.354 23.0842 25.3881C22.9888 25.4225 22.9012 25.484 22.8565 25.585L23.0851 25.6862C23.0937 25.6668 23.1149 25.6428 23.169 25.6233C23.224 25.6034 23.3021 25.5927 23.401 25.5954C23.5982 25.6007 23.8504 25.6584 24.0988 25.7599C24.3471 25.8614 24.5817 26.0025 24.7484 26.1671C24.9157 26.3322 25.0026 26.5082 24.9905 26.6848L25.2399 26.7018ZM22.8562 25.5857C22.7652 25.7947 22.6425 25.8504 22.5334 25.8372C22.407 25.8218 22.238 25.7094 22.0801 25.4524L21.8671 25.5833C22.0425 25.8687 22.267 26.0567 22.5033 26.0854C22.7569 26.1162 22.9661 25.9596 23.0854 25.6855L22.8562 25.5857ZM22.0804 25.4529C21.9471 25.2338 22.0025 25.0202 22.0768 24.8208C22.0938 24.7752 22.1154 24.7209 22.1305 24.6785C22.1462 24.6346 22.1618 24.5855 22.1674 24.5382C22.1731 24.4908 22.1709 24.4269 22.1299 24.3699C22.0886 24.3126 22.0262 24.2876 21.968 24.277L21.9234 24.523C21.948 24.5275 21.9383 24.5317 21.927 24.516C21.9161 24.5008 21.9213 24.491 21.9192 24.5087C21.9171 24.5264 21.9098 24.5532 21.8951 24.5944C21.8798 24.6371 21.8635 24.6772 21.8425 24.7335C21.765 24.9418 21.6686 25.257 21.8668 25.5828L22.0804 25.4529ZM21.9678 24.277C21.9209 24.2686 21.854 24.2307 21.7759 24.1536C21.7005 24.0791 21.6258 23.9791 21.5623 23.8695C21.4989 23.76 21.4491 23.6453 21.4207 23.5433C21.3911 23.437 21.3896 23.3615 21.4021 23.3207L21.1632 23.2472C21.1295 23.3567 21.1459 23.4885 21.1798 23.6103C21.2149 23.7363 21.2739 23.8705 21.346 23.9949C21.4181 24.1192 21.5057 24.2381 21.6003 24.3315C21.6923 24.4223 21.8034 24.5014 21.9235 24.5231L21.9678 24.277ZM21.4024 23.3196C21.4216 23.2553 21.4186 23.1698 21.4084 23.0859C21.3976 22.9964 21.376 22.8895 21.3449 22.772C21.2828 22.5369 21.1808 22.252 21.0431 21.9693C20.9057 21.687 20.7306 21.4025 20.5207 21.1714C20.3114 20.9409 20.0604 20.7559 19.7706 20.6876L19.7133 20.931C19.9364 20.9835 20.1458 21.1305 20.3356 21.3395C20.5248 21.5478 20.6876 21.8103 20.8183 22.0788C20.9489 22.3468 21.0452 22.6164 21.1032 22.8359C21.1323 22.9457 21.1512 23.041 21.1602 23.1159C21.1699 23.1963 21.1662 23.2371 21.1628 23.2482L21.4024 23.3196ZM19.7704 20.6876C19.3175 20.5815 19.0451 20.2083 18.8616 19.7313C18.6771 19.2517 18.5985 18.7135 18.5045 18.3074L18.2609 18.3637C18.3484 18.7415 18.4355 19.3198 18.6283 19.821C18.8221 20.3248 19.1386 20.7964 19.7134 20.931L19.7704 20.6876ZM18.5045 18.3074C18.4545 18.0912 18.3674 17.9442 18.2466 17.8418C18.1293 17.7424 17.991 17.6948 17.8631 17.6565C17.6033 17.5786 17.3505 17.5265 17.1233 17.232L16.9253 17.3847C17.2094 17.7529 17.545 17.8221 17.7913 17.8959C17.9163 17.9334 18.0104 17.9693 18.0849 18.0325C18.156 18.0927 18.2202 18.1876 18.2609 18.3637L18.5045 18.3074ZM17.1231 17.2318C16.8334 16.8576 16.4405 16.7685 16.0787 16.7726C15.899 16.7746 15.7234 16.7995 15.5684 16.8246C15.4088 16.8505 15.2789 16.8751 15.1736 16.882L15.1899 17.1314C15.311 17.1235 15.4604 17.0954 15.6084 17.0714C15.761 17.0466 15.9214 17.0244 16.0815 17.0226C16.3994 17.019 16.7014 17.0956 16.9255 17.3849L17.1231 17.2318ZM15.1733 16.882C15.1346 16.8846 15.1256 16.876 15.1282 16.878C15.133 16.8816 15.1286 16.8833 15.1266 16.8654C15.1213 16.8195 15.1422 16.7263 15.2131 16.5935C15.3499 16.3369 15.6294 16.0125 15.9751 15.7828L15.8367 15.5746C15.4582 15.8262 15.1497 16.1811 14.9925 16.4758C14.9164 16.6186 14.8638 16.7691 14.8782 16.8941C14.886 16.9617 14.9148 17.0307 14.9786 17.0783C15.0402 17.1242 15.116 17.1364 15.1902 17.1314L15.1733 16.882ZM15.9752 15.7827C16.1824 15.6447 16.3832 15.3712 16.5658 15.0526C16.7512 14.7292 16.9275 14.3412 17.0801 13.955C17.2327 13.5683 17.3626 13.1806 17.4545 12.8565C17.5448 12.5381 17.603 12.266 17.603 12.1185H17.353C17.353 12.2264 17.3052 12.4667 17.214 12.7883C17.1245 13.1041 16.9973 13.484 16.8475 13.8631C16.6977 14.2427 16.5263 14.6188 16.3489 14.9283C16.1687 15.2427 15.9918 15.4712 15.8365 15.5747L15.9752 15.7827ZM17.603 12.1185C17.603 11.9817 17.4977 11.8937 17.4003 11.8407C17.2967 11.7843 17.1567 11.7415 16.999 11.7081C16.6814 11.641 16.2574 11.6057 15.8199 11.5961C15.3814 11.5865 14.9234 11.6027 14.5357 11.6407C14.3419 11.6597 14.1641 11.6842 14.0143 11.7141C13.8669 11.7435 13.7378 11.7798 13.6469 11.8254L13.759 12.0488C13.8192 12.0186 13.9216 11.9875 14.0632 11.9593C14.2025 11.9315 14.3716 11.9079 14.5601 11.8895C14.9369 11.8526 15.3848 11.8367 15.8145 11.8461C16.2452 11.8555 16.6516 11.8902 16.9473 11.9527C17.0963 11.9842 17.2087 12.0211 17.2808 12.0603C17.3167 12.0798 17.3365 12.0967 17.3463 12.1085C17.3509 12.1139 17.3524 12.1173 17.3528 12.1183C17.353 12.1188 17.353 12.119 17.353 12.1188C17.353 12.1188 17.353 12.1187 17.353 12.1186C17.353 12.1185 17.353 12.1185 17.353 12.1185H17.603ZM13.6473 11.8252C13.4037 11.9464 13.1605 11.8566 13.0287 11.7128C12.9622 11.6401 12.9367 11.5673 12.94 11.5161C12.9425 11.4756 12.9639 11.426 13.0554 11.3882L12.9599 11.1572C12.7953 11.2253 12.7 11.3493 12.6905 11.5003C12.6816 11.6405 12.7486 11.777 12.8444 11.8816C13.0372 12.0922 13.3976 12.2287 13.7587 12.049L13.6473 11.8252ZM13.0551 11.3883C13.1993 11.3291 13.3742 11.2154 13.5507 11.0776C13.7289 10.9385 13.9156 10.7694 14.0839 10.5937C14.2517 10.4184 14.4041 10.2334 14.5115 10.062C14.5653 9.97635 14.6096 9.89123 14.6385 9.81023C14.6669 9.73055 14.6838 9.64587 14.6721 9.56496L14.4246 9.60069C14.4282 9.62551 14.4244 9.66633 14.403 9.72617C14.3821 9.78469 14.3475 9.85309 14.2997 9.9292C14.2043 10.0814 14.0641 10.2528 13.9033 10.4208C13.743 10.5882 13.5652 10.7492 13.3968 10.8806C13.2268 11.0133 13.073 11.1107 12.9602 11.1571L13.0551 11.3883ZM14.6721 9.56542C14.6633 9.50256 14.6855 9.42964 14.7418 9.33547C14.8002 9.23749 14.8721 9.15143 14.95 9.03995C15.0205 8.93925 15.0952 8.81783 15.111 8.68558C15.1285 8.53885 15.072 8.40181 14.9329 8.28149L14.7693 8.47058C14.857 8.54644 14.8687 8.6056 14.8627 8.65598C14.855 8.72085 14.8145 8.79747 14.7452 8.89667C14.6833 8.98509 14.5907 9.10078 14.5271 9.20733C14.4612 9.31769 14.4037 9.45208 14.4246 9.60023L14.6721 9.56542ZM14.9328 8.28148C14.8017 8.16807 14.6607 8.11861 14.5216 8.18229C14.4051 8.23561 14.3259 8.35677 14.2663 8.4628C14.2344 8.51954 14.2033 8.58146 14.173 8.64164C14.1421 8.70282 14.1117 8.76299 14.0792 8.82076C14.0133 8.93815 13.946 9.03281 13.8686 9.09209L14.0207 9.29054C14.1396 9.1994 14.2271 9.06801 14.2972 8.94316C14.3328 8.87981 14.3656 8.81481 14.3962 8.75421C14.4273 8.69261 14.4557 8.63614 14.4843 8.5853C14.5456 8.47617 14.5911 8.42544 14.6257 8.40961C14.6376 8.40413 14.6741 8.38824 14.7693 8.47059L14.9328 8.28148ZM13.8684 9.09228C13.7085 9.21537 13.4295 9.27007 13.0489 9.26275C12.6746 9.25555 12.2299 9.18942 11.7638 9.09912L11.7162 9.34455C12.1863 9.43562 12.6479 9.50508 13.0441 9.5127C13.4338 9.5202 13.789 9.46896 14.0209 9.29035L13.8684 9.09228ZM11.7638 9.09912C11.4969 9.04741 11.2658 9.10354 11.0743 9.22866C10.886 9.35169 10.7414 9.53755 10.6334 9.73943C10.4185 10.1409 10.3307 10.6388 10.3467 10.9478L10.5963 10.9349C10.5826 10.6701 10.661 10.2176 10.8538 9.8574C10.9496 9.67846 11.0691 9.53068 11.2111 9.43795C11.3498 9.34732 11.515 9.30557 11.7162 9.34455L11.7638 9.09912ZM10.3467 10.9482C10.3521 11.0474 10.309 11.1456 10.221 11.2532C10.132 11.3619 10.0105 11.4645 9.88132 11.5741C9.75771 11.679 9.62321 11.7934 9.53369 11.9156C9.44115 12.0419 9.38177 12.1977 9.44701 12.3731L9.68132 12.2859C9.6567 12.2197 9.66972 12.153 9.73537 12.0634C9.80404 11.9696 9.91349 11.8747 10.0431 11.7647C10.1671 11.6595 10.3081 11.5414 10.4144 11.4115C10.5216 11.2805 10.6066 11.1221 10.5963 10.9345L10.3467 10.9482ZM9.44715 12.3735C9.52399 12.578 9.4732 12.7357 9.39964 12.8117C9.36272 12.8499 9.32052 12.8683 9.28016 12.8699C9.24082 12.8716 9.19096 12.8578 9.13674 12.8088L8.9691 12.9942C9.06537 13.0813 9.17735 13.1244 9.29043 13.1197C9.40251 13.1151 9.50333 13.0641 9.57928 12.9856C9.73146 12.8284 9.78581 12.5641 9.68118 12.2855L9.44715 12.3735ZM9.13659 12.8086C9.068 12.7468 8.99827 12.6632 8.91073 12.5653C8.82725 12.4719 8.73067 12.3693 8.6202 12.2908C8.50841 12.2114 8.3753 12.1514 8.2197 12.1531C8.06371 12.1549 7.90345 12.2185 7.737 12.3512L7.89288 12.5467C8.02873 12.4383 8.13674 12.4041 8.22252 12.4031C8.30869 12.4021 8.39086 12.4345 8.47537 12.4946C8.56119 12.5556 8.64193 12.6397 8.72432 12.7319C8.80265 12.8195 8.88735 12.9206 8.96925 12.9944L9.13659 12.8086ZM7.73683 12.3514C7.64794 12.4225 7.58423 12.5043 7.55388 12.5974C7.52302 12.692 7.53063 12.7864 7.5638 12.8736C7.62713 13.0402 7.78488 13.1858 7.96437 13.305C8.32891 13.5469 8.86867 13.7346 9.27922 13.7825L9.3082 13.5342C8.93443 13.4906 8.43252 13.3156 8.1026 13.0966C7.93487 12.9853 7.83219 12.8761 7.79748 12.7848C7.78163 12.7431 7.78082 12.7078 7.79157 12.6749C7.80284 12.6403 7.83079 12.5964 7.89305 12.5465L7.73683 12.3514ZM9.27951 13.7826C9.37423 13.7934 9.41141 13.8098 9.42114 13.8166C9.42293 13.8179 9.41515 13.8127 9.41047 13.799C9.40596 13.7859 9.40869 13.7775 9.40805 13.7798C9.40504 13.7907 9.39006 13.8191 9.34569 13.8705C9.30414 13.9186 9.24832 13.9741 9.1811 14.0394C9.04954 14.1672 8.87975 14.3269 8.73462 14.5081C8.58952 14.6892 8.46014 14.9022 8.41691 15.1421L8.66295 15.1864C8.69562 15.0051 8.79656 14.8306 8.92972 14.6644C9.06284 14.4982 9.21922 14.3509 9.35529 14.2188C9.42187 14.1541 9.48522 14.0914 9.53489 14.0339C9.58173 13.9797 9.63002 13.9151 9.64901 13.8464C9.65937 13.8089 9.66278 13.7641 9.64698 13.718C9.63101 13.6714 9.59996 13.6367 9.56483 13.612C9.50071 13.567 9.40948 13.5458 9.30792 13.5342L9.27951 13.7826ZM8.41684 15.1424C8.37413 15.3837 8.42364 15.5633 8.54724 15.6931C8.66154 15.8132 8.82501 15.8737 8.96595 15.9188C9.11911 15.9679 9.24745 16 9.35016 16.0563C9.44265 16.107 9.4933 16.1665 9.50352 16.2645L9.75218 16.2386C9.73099 16.0354 9.61119 15.9143 9.47036 15.8371C9.33975 15.7655 9.1719 15.7223 9.04218 15.6807C8.90023 15.6353 8.79412 15.5899 8.72831 15.5208C8.67182 15.4614 8.63071 15.3685 8.66302 15.186L8.41684 15.1424ZM9.50349 16.2642C9.51139 16.3423 9.46621 16.4234 9.32066 16.5191C9.1778 16.6129 8.9774 16.6941 8.75909 16.7802C8.54776 16.8635 8.319 16.9515 8.14458 17.0567C7.97585 17.1584 7.81121 17.3038 7.81121 17.5185H8.06121C8.06121 17.4468 8.11566 17.366 8.27366 17.2708C8.42596 17.179 8.63156 17.0992 8.85077 17.0128C9.063 16.9291 9.28933 16.8388 9.45793 16.728C9.62384 16.619 9.77484 16.4626 9.75222 16.239L9.50349 16.2642ZM7.81121 17.5185C7.81121 17.6054 7.82957 17.6911 7.88682 17.755C7.9471 17.8223 8.0286 17.8417 8.10191 17.84C8.17313 17.8384 8.24857 17.8173 8.32081 17.7892C8.39447 17.7606 8.47285 17.7216 8.55201 17.6776C8.70997 17.5898 8.88117 17.4765 9.03734 17.3729C9.1967 17.2672 9.33766 17.1735 9.4439 17.1171L9.32673 16.8963C9.20701 16.9598 9.05386 17.0619 8.89913 17.1646C8.74123 17.2693 8.5784 17.3769 8.43058 17.4591C8.35684 17.5 8.28939 17.5332 8.23031 17.5562C8.1698 17.5797 8.12558 17.5894 8.09625 17.5901C8.06901 17.5907 8.06908 17.5838 8.07306 17.5882C8.07401 17.5893 8.06121 17.5756 8.06121 17.5185H7.81121ZM9.44422 17.1169C9.48752 17.0938 9.46208 17.1222 9.42805 17.0942C9.41813 17.0861 9.41811 17.0803 9.42167 17.0899C9.42503 17.0989 9.42899 17.1146 9.43229 17.1395C9.43898 17.1898 9.44047 17.2565 9.4411 17.34C9.4417 17.4205 9.44155 17.5143 9.44654 17.6084C9.45624 17.7916 9.48605 18.0085 9.6053 18.1674C9.66746 18.2502 9.75239 18.3154 9.8642 18.3514C9.97418 18.3869 10.1033 18.392 10.2528 18.3673L10.2121 18.1207C10.0898 18.1409 10.0028 18.1335 9.9409 18.1135C9.8808 18.0941 9.83803 18.061 9.80526 18.0173C9.73465 17.9232 9.70567 17.7741 9.69619 17.5952C9.69158 17.5083 9.69172 17.4219 9.69109 17.3381C9.69048 17.2571 9.68919 17.1749 9.68012 17.1066C9.67554 17.0721 9.66837 17.036 9.65594 17.0026C9.6437 16.9698 9.62321 16.931 9.58671 16.901C9.49953 16.8294 9.39653 16.859 9.32641 16.8964L9.44422 17.1169ZM10.253 18.3673C10.8717 18.264 11.0885 17.7836 11.2008 17.388C11.229 17.2886 11.2516 17.1913 11.2719 17.1053C11.2926 17.0175 11.3106 16.9434 11.3306 16.8829C11.3512 16.8202 11.3694 16.7873 11.3828 16.7723C11.3892 16.7652 11.3866 16.7679 11.3895 16.7684L11.4274 16.5213C11.3322 16.5067 11.2532 16.5425 11.1967 16.6053C11.1473 16.6604 11.1162 16.7345 11.0931 16.8047C11.0692 16.8772 11.0489 16.9619 11.0286 17.0478C11.0079 17.1355 10.9867 17.2268 10.9603 17.3197C10.8543 17.6934 10.6793 18.0426 10.2119 18.1207L10.253 18.3673ZM11.3901 16.7685C11.4045 16.7706 11.4123 16.7736 11.4159 16.7754C11.4176 16.7763 11.4184 16.7769 11.4187 16.7771C11.4189 16.7772 11.419 16.7773 11.419 16.7773C11.419 16.7773 11.419 16.7773 11.419 16.7774C11.419 16.7774 11.4193 16.7777 11.4197 16.7785C11.4202 16.7793 11.421 16.7809 11.4219 16.7835C11.4237 16.7888 11.4258 16.7977 11.4268 16.8114C11.4319 16.8759 11.4129 16.9703 11.3846 17.1134C11.3325 17.3778 11.2605 17.7596 11.4495 18.1206L11.671 18.0046C11.5277 17.7309 11.5765 17.433 11.6299 17.1618C11.6545 17.0371 11.6845 16.8997 11.6761 16.792C11.6716 16.7343 11.6555 16.6696 11.6097 16.6156C11.5623 16.5599 11.4972 16.5316 11.4268 16.5212L11.3901 16.7685ZM11.4494 18.1204C11.5108 18.2383 11.5102 18.38 11.458 18.5501C11.4056 18.721 11.306 18.9041 11.1917 19.0915C11.0814 19.2724 10.9517 19.4655 10.8595 19.632C10.8124 19.7171 10.771 19.8018 10.7435 19.8829C10.7163 19.963 10.6994 20.0484 10.7105 20.1317L10.9583 20.0987C10.9544 20.0689 10.9592 20.0251 10.9802 19.9633C11.0009 19.9023 11.0343 19.8323 11.0781 19.7532C11.1679 19.5913 11.2853 19.4183 11.4052 19.2217C11.5211 19.0316 11.6349 18.8261 11.697 18.6234C11.7594 18.42 11.7746 18.2035 11.6711 18.0049L11.4494 18.1204ZM10.7105 20.1317C10.725 20.2407 10.8007 20.3177 10.8824 20.3692C10.9653 20.4215 11.0727 20.4599 11.1912 20.4877C11.4293 20.5437 11.741 20.5635 12.0676 20.5461C12.395 20.5286 12.7444 20.4734 13.0585 20.3748C13.3705 20.2768 13.6592 20.1325 13.8535 19.9296L13.6729 19.7567C13.5199 19.9165 13.2764 20.0443 12.9836 20.1362C12.6929 20.2275 12.3647 20.2799 12.0543 20.2965C11.743 20.3131 11.4565 20.2932 11.2484 20.2443C11.1437 20.2197 11.066 20.1894 11.0157 20.1577C10.9643 20.1253 10.9589 20.1031 10.9583 20.0988L10.7105 20.1317ZM13.8534 19.9297C14.0188 19.7573 14.1466 19.6923 14.2294 19.6787C14.3011 19.667 14.3427 19.6919 14.3705 19.736C14.4034 19.7884 14.4219 19.8802 14.3998 19.9982C14.3782 20.1137 14.3191 20.2441 14.2132 20.3636L14.4002 20.5295C14.5351 20.3774 14.6153 20.206 14.6456 20.0442C14.6754 19.8849 14.6583 19.724 14.5821 19.6029C14.5006 19.4734 14.3596 19.4041 14.189 19.432C14.0294 19.4581 13.8552 19.5667 13.673 19.7566L13.8534 19.9297ZM14.2134 20.3634C13.9534 20.6551 13.8604 20.9633 13.945 21.2411C14.0284 21.5152 14.2726 21.719 14.598 21.8324L14.6802 21.5964C14.4001 21.4987 14.2364 21.3399 14.1842 21.1683C14.1331 21.0006 14.1767 20.7803 14.4 20.5297L14.2134 20.3634ZM14.5978 21.8324C14.7509 21.8859 14.8724 21.9276 14.9681 21.9684C15.0656 22.01 15.1197 22.0441 15.1483 22.0748C15.1696 22.0977 15.1788 22.1201 15.174 22.1619C15.1681 22.213 15.1405 22.2892 15.0747 22.4053L15.2922 22.5285C15.3626 22.4044 15.4105 22.2928 15.4223 22.1907C15.4352 22.0793 15.4046 21.9832 15.3313 21.9044C15.2651 21.8334 15.1698 21.7827 15.0662 21.7385C14.9607 21.6935 14.8291 21.6484 14.6803 21.5964L14.5978 21.8324ZM15.0745 22.4057C14.995 22.5473 14.9562 22.7131 14.9372 22.8814C14.9181 23.0501 14.9182 23.2296 14.9219 23.402C14.9256 23.5776 14.9329 23.7423 14.9301 23.8949C14.9272 24.0478 14.9141 24.1735 14.8826 24.2681L15.1197 24.3471C15.1637 24.2154 15.1771 24.0585 15.18 23.8996C15.183 23.7404 15.1754 23.5641 15.1718 23.3967C15.1682 23.2261 15.1685 23.0606 15.1856 22.9094C15.2027 22.7578 15.2359 22.6289 15.2925 22.5281L15.0745 22.4057ZM14.8825 24.2683C14.8763 24.2868 14.857 24.3152 14.8048 24.3478C14.7533 24.38 14.6805 24.4096 14.5884 24.4344C14.4046 24.484 14.166 24.5089 13.9251 24.5108C13.6845 24.5126 13.4498 24.4914 13.2748 24.453C13.1866 24.4336 13.1197 24.4111 13.0761 24.3885C13.0252 24.3622 13.0359 24.3519 13.0403 24.3735L12.7953 24.4231C12.8149 24.5201 12.8975 24.5777 12.9613 24.6106C13.0323 24.6473 13.1229 24.6755 13.2211 24.6971C13.419 24.7406 13.6732 24.7627 13.9271 24.7608C14.1806 24.7588 14.4421 24.7328 14.6535 24.6758C14.7589 24.6474 14.8574 24.6097 14.9373 24.5598C15.0165 24.5103 15.0884 24.4415 15.1198 24.3469L14.8825 24.2683ZM13.0404 24.3738C13.012 24.2318 12.8968 24.163 12.7884 24.1409C12.6817 24.1192 12.5601 24.1353 12.4541 24.1757C12.3485 24.216 12.2415 24.2871 12.178 24.3926C12.1102 24.5053 12.1011 24.6431 12.1728 24.7851L12.396 24.6724C12.3613 24.6038 12.3706 24.5574 12.3922 24.5215C12.4181 24.4784 12.4715 24.4366 12.5432 24.4092C12.6148 24.382 12.6876 24.3755 12.7385 24.3859C12.7879 24.396 12.7934 24.4139 12.7952 24.4227L13.0404 24.3738ZM12.1725 24.7845C12.2023 24.8443 12.1992 24.9096 12.1576 24.9968C12.1141 25.088 12.0368 25.1851 11.9436 25.2935C11.855 25.3964 11.7502 25.5115 11.6745 25.6238C11.5999 25.7346 11.5335 25.8706 11.5563 26.0175L11.8033 25.9791C11.7956 25.9294 11.8159 25.8614 11.8819 25.7635C11.9468 25.6671 12.0365 25.5688 12.1331 25.4565C12.2251 25.3496 12.3236 25.2295 12.3833 25.1044C12.4448 24.9753 12.472 24.8251 12.3963 24.673L12.1725 24.7845ZM11.5563 26.0178C11.582 26.1807 11.7147 26.2736 11.8366 26.3317C11.9616 26.3913 12.1202 26.4351 12.2599 26.4768C12.407 26.5207 12.5364 26.563 12.6307 26.6193C12.7223 26.674 12.7586 26.7279 12.7625 26.7908L13.012 26.7754C13.001 26.5968 12.8868 26.481 12.7588 26.4046C12.6337 26.3299 12.4746 26.28 12.3314 26.2373C12.1807 26.1923 12.0469 26.155 11.9442 26.1061C11.8386 26.0557 11.8086 26.0126 11.8033 25.9789L11.5563 26.0178ZM12.7625 26.7908C12.7675 26.8724 12.7362 26.9701 12.6537 27.0825C12.5714 27.1945 12.4442 27.3125 12.2758 27.4302C11.9391 27.6652 11.4548 27.8864 10.8911 28.0504L10.9609 28.2904C11.5427 28.1212 12.0539 27.8899 12.4189 27.6351C12.6012 27.5078 12.7515 27.3716 12.8552 27.2304C12.9586 27.0895 13.0218 26.9349 13.012 26.7754L12.7625 26.7908ZM10.8914 28.0503C10.5948 28.1359 10.4011 28.2749 10.3647 28.4751C10.329 28.6709 10.4595 28.8446 10.6049 28.9619C10.7575 29.0849 10.9654 29.1802 11.1736 29.2187C11.3795 29.2568 11.6081 29.2429 11.7827 29.1166L11.6362 28.914C11.5391 28.9843 11.3904 29.0046 11.219 28.9729C11.05 28.9416 10.8807 28.8632 10.7619 28.7673C10.6358 28.6656 10.6006 28.575 10.6106 28.5199C10.6199 28.4692 10.6832 28.3706 10.9607 28.2905L10.8914 28.0503ZM11.7825 29.1167C11.9104 29.0246 11.9738 29.0141 12.0059 29.017C12.0391 29.02 12.0721 29.039 12.142 29.099C12.2058 29.1537 12.2936 29.2358 12.4168 29.2999C12.5431 29.3657 12.7027 29.4115 12.9178 29.4115V29.1615C12.7407 29.1615 12.6211 29.1244 12.5323 29.0782C12.4403 29.0303 12.377 28.9712 12.3047 28.9092C12.2385 28.8524 12.1504 28.7791 12.0286 28.768C11.9057 28.7568 11.7803 28.8103 11.6364 28.9139L11.7825 29.1167ZM12.9178 29.4115C13.2821 29.4115 13.5685 29.5567 13.9145 29.6802C14.256 29.8021 14.6293 29.8876 15.1057 29.7068L15.017 29.4731C14.6201 29.6236 14.3142 29.5574 13.9985 29.4447C13.6873 29.3337 13.3387 29.1615 12.9178 29.1615V29.4115ZM15.1057 29.7068C15.3212 29.6251 15.4698 29.5888 15.5613 29.5825C15.608 29.5793 15.6274 29.5849 15.6309 29.5863C15.6314 29.5865 15.6258 29.5842 15.6192 29.5767C15.6122 29.5686 15.6083 29.5592 15.607 29.5516C15.6049 29.5401 15.6101 29.5442 15.5963 29.5727C15.5836 29.5987 15.5603 29.6342 15.5228 29.6786C15.4483 29.7672 15.3295 29.8778 15.1674 30.0028L15.32 30.2008C15.4899 30.0698 15.6237 29.9469 15.7141 29.8397C15.7591 29.7862 15.7963 29.7331 15.8211 29.6819C15.8448 29.6331 15.8646 29.5714 15.853 29.5071C15.8394 29.4324 15.789 29.3814 15.7271 29.3556C15.6719 29.3325 15.6075 29.3287 15.5441 29.3331C15.4156 29.3419 15.2395 29.3887 15.017 29.4731L15.1057 29.7068ZM15.1672 30.0029C14.8763 30.2281 14.5077 30.2278 14.0973 30.1974C13.8989 30.1827 13.6877 30.161 13.4914 30.1648C13.2934 30.1686 13.0949 30.1981 12.9187 30.2948L13.039 30.5139C13.1647 30.445 13.317 30.4182 13.4962 30.4147C13.6772 30.4112 13.8696 30.4312 14.0788 30.4467C14.4834 30.4767 14.9454 30.4908 15.3202 30.2006L15.1672 30.0029ZM12.9187 30.2948C12.7544 30.3849 12.4786 30.5994 12.1706 30.8708C11.8596 31.1447 11.5073 31.4844 11.1882 31.8319C10.8701 32.1782 10.5806 32.5373 10.3994 32.8495C10.3091 33.0051 10.2414 33.1563 10.2136 33.2931C10.1858 33.4297 10.1944 33.5721 10.2859 33.6837L10.4792 33.5252C10.4546 33.4952 10.4384 33.4419 10.4585 33.3429C10.4786 33.2443 10.5314 33.1201 10.6156 32.975C10.7833 32.686 11.0587 32.3425 11.3723 32.001C11.6849 31.6606 12.0308 31.3271 12.3358 31.0584C12.6438 30.787 12.9014 30.5894 13.039 30.5139L12.9187 30.2948ZM10.286 33.6839C10.3325 33.7403 10.3901 33.7832 10.4615 33.7997C10.5322 33.8159 10.5993 33.8024 10.6577 33.7782C10.7668 33.7331 10.881 33.6349 10.9936 33.535C11.2311 33.3242 11.5243 33.0459 11.9388 32.8741L11.8431 32.6432C11.3825 32.8341 11.0576 33.144 10.8277 33.348C10.7066 33.4555 10.6248 33.5213 10.5622 33.5472C10.5348 33.5585 10.5223 33.5571 10.5177 33.556C10.5137 33.5551 10.5006 33.5512 10.479 33.525L10.286 33.6839ZM11.9386 32.8742C12.1454 32.7888 12.3008 32.7639 12.4232 32.7694C12.5444 32.7749 12.642 32.8106 12.734 32.8606C12.7808 32.8861 12.8258 32.915 12.873 32.9464C12.9187 32.9769 12.9688 33.0114 13.0192 33.0425C13.1218 33.106 13.2398 33.1653 13.3866 33.1835L13.4174 32.9354C13.322 32.9236 13.2398 32.885 13.1507 32.8299C13.1051 32.8017 13.0615 32.7717 13.0116 32.7384C12.963 32.706 12.9104 32.672 12.8534 32.641C12.7377 32.5781 12.6031 32.5273 12.4345 32.5196C12.267 32.5121 12.0748 32.5475 11.8432 32.6431L11.9386 32.8742ZM13.3861 33.1834C13.5623 33.206 13.693 33.1217 13.7867 33.0132C13.8763 32.9094 13.9441 32.7703 14.0013 32.6502C14.0626 32.5215 14.1117 32.415 14.1672 32.3427C14.1938 32.308 14.2157 32.2898 14.2325 32.2813C14.2461 32.2743 14.2596 32.2716 14.2797 32.2762L14.3354 32.0325C14.2572 32.0147 14.1837 32.0253 14.1185 32.0588C14.0565 32.0905 14.0078 32.1397 13.9689 32.1905C13.8932 32.2891 13.8311 32.4261 13.7756 32.5427C13.716 32.6678 13.6615 32.7757 13.5974 32.8498C13.5375 32.9192 13.4833 32.9439 13.4179 32.9355L13.3861 33.1834ZM14.2794 32.2762C14.4036 32.3048 14.5212 32.2917 14.6324 32.2641C14.7399 32.2374 14.8544 32.1933 14.9628 32.1561C15.185 32.0797 15.4329 32.0119 15.7648 32.0675L15.8061 31.8209C15.4139 31.7553 15.1192 31.838 14.8816 31.9196C14.7601 31.9614 14.6655 31.9983 14.5722 32.0214C14.4826 32.0437 14.4078 32.0492 14.3357 32.0326L14.2794 32.2762ZM15.7649 32.0675C16.5377 32.1965 17.0863 31.9045 17.4664 31.5877L17.3064 31.3956C16.9624 31.6823 16.485 31.9343 15.8061 31.8209L15.7649 32.0675ZM17.4664 31.5877C17.508 31.553 17.5827 31.5395 17.719 31.5759C17.8511 31.6112 18.0044 31.6834 18.1679 31.765C18.3257 31.8438 18.4951 31.9324 18.6426 31.9861C18.717 32.0131 18.7934 32.0343 18.8661 32.0396C18.9391 32.0449 19.0192 32.0348 19.0886 31.9871L18.947 31.781C18.9404 31.7856 18.9237 31.7931 18.8842 31.7902C18.8444 31.7873 18.7927 31.7746 18.7281 31.7511C18.5978 31.7037 18.4462 31.6246 18.2795 31.5414C18.1185 31.461 17.9436 31.3771 17.7834 31.3344C17.6275 31.2927 17.4457 31.2795 17.3064 31.3956L17.4664 31.5877ZM19.0901 31.986C19.1466 31.946 19.2679 31.8957 19.4447 31.8437C19.6167 31.7932 19.8274 31.7449 20.0509 31.7038C20.5 31.6212 20.988 31.5701 21.3067 31.5843L21.3179 31.3345C20.9718 31.3191 20.4626 31.3739 20.0057 31.4579C19.7762 31.5001 19.5567 31.5502 19.3742 31.6039C19.1966 31.6561 19.0391 31.7157 18.9455 31.7821L19.0901 31.986ZM21.3062 31.5843C21.4932 31.5934 21.7414 31.5454 22.006 31.4688C22.2739 31.3912 22.5704 31.2809 22.8587 31.1568C23.1472 31.0326 23.4296 30.8938 23.6692 30.7588C23.9067 30.625 24.1098 30.4907 24.234 30.3744L24.0632 30.1919C23.9614 30.2871 23.7797 30.4096 23.5465 30.541C23.3155 30.6712 23.0412 30.8061 22.7599 30.9271C22.4784 31.0483 22.1919 31.1547 21.9365 31.2286C21.6779 31.3035 21.4625 31.3416 21.3184 31.3346L21.3062 31.5843ZM24.2337 30.3747C24.3511 30.2655 24.4386 30.1378 24.4105 30.0013C24.382 29.863 24.252 29.7952 24.1454 29.7611C23.9182 29.6884 23.5635 29.6916 23.256 29.7375L23.2929 29.9847C23.5873 29.9408 23.8965 29.944 24.0693 29.9992C24.1627 30.0291 24.1668 30.0574 24.1656 30.0517C24.1648 30.0479 24.1729 30.0898 24.0634 30.1916L24.2337 30.3747ZM23.2557 29.7375C23.1232 29.7576 23.0644 29.7294 23.0405 29.7062C23.0169 29.6835 22.9947 29.6343 23.0087 29.5363C23.037 29.3381 23.2038 29.0376 23.5115 28.7449L23.3392 28.5638C23.0117 28.8753 22.8008 29.224 22.7612 29.501C22.7413 29.6406 22.7627 29.7855 22.8668 29.8861C22.9704 29.9862 23.1233 30.0104 23.2931 29.9847L23.2557 29.7375ZM23.5114 28.7449C23.6644 28.5996 23.8406 28.4621 24.0245 28.3204C24.2067 28.1801 24.3969 28.0354 24.5691 27.8806C24.9134 27.5711 25.2071 27.203 25.24 26.7015L24.9905 26.6851C24.964 27.0887 24.7295 27.4002 24.402 27.6946C24.2384 27.8417 24.0568 27.98 23.872 28.1223C23.689 28.2633 23.5029 28.4082 23.3392 28.5637L23.5114 28.7449ZM6.97497 11.6697C7.21215 11.661 7.44708 11.5548 7.65478 11.4062C7.8637 11.2567 8.05423 11.0578 8.20443 10.8483C8.3541 10.6395 8.4685 10.4136 8.51871 10.2076C8.56746 10.0076 8.56299 9.79023 8.41833 9.64468L8.24102 9.82092C8.29222 9.87244 8.31774 9.9764 8.27582 10.1484C8.23534 10.3145 8.1384 10.5113 8.00126 10.7026C7.86465 10.8931 7.6929 11.0715 7.50928 11.2029C7.32444 11.3352 7.13657 11.4136 6.96589 11.4198L6.97497 11.6697ZM8.41784 9.64419C8.32472 9.55154 8.20308 9.5484 8.09821 9.57916C7.99617 9.6091 7.88999 9.67514 7.78829 9.75571C7.58285 9.91847 7.36068 10.1689 7.17367 10.4263C6.98719 10.683 6.82707 10.9585 6.75304 11.1749C6.71752 11.2788 6.69355 11.3918 6.717 11.4868C6.72987 11.5389 6.75837 11.5905 6.81016 11.6263C6.86047 11.6611 6.91899 11.6716 6.97473 11.6697L6.96612 11.4198C6.94596 11.4205 6.94561 11.416 6.95245 11.4208C6.96077 11.4265 6.96118 11.4328 6.95972 11.4269C6.9545 11.4057 6.95688 11.3515 6.98959 11.2558C7.05201 11.0733 7.19588 10.8211 7.37593 10.5733C7.55545 10.3262 7.76235 10.0952 7.94353 9.95167C8.03515 9.87909 8.11166 9.83575 8.16858 9.81906C8.22268 9.80319 8.23626 9.81619 8.24151 9.82141L8.41784 9.64419ZM18.744 5.08393C18.8877 4.94063 19.0289 4.70639 19.1474 4.44912C19.2672 4.18927 19.3692 3.89427 19.4298 3.62082C19.4893 3.35264 19.5134 3.0857 19.4591 2.89232C19.4312 2.79316 19.3785 2.69859 19.2841 2.64202C19.1884 2.58469 19.0745 2.58088 18.9556 2.61289L19.0207 2.85428C19.0977 2.83353 19.1362 2.84488 19.1555 2.85645C19.1761 2.86877 19.2007 2.89685 19.2184 2.95993C19.2552 3.09103 19.2433 3.30693 19.1858 3.56672C19.1293 3.82125 19.0334 4.09934 18.9204 4.34447C18.8062 4.59216 18.6799 4.79478 18.5675 4.90696L18.744 5.08393ZM18.9556 2.61289C18.699 2.68206 18.5454 2.91351 18.4552 3.16597C18.3634 3.4229 18.3245 3.73481 18.3178 4.02548C18.3111 4.31665 18.3367 4.59685 18.3801 4.79366C18.4011 4.88879 18.4291 4.97823 18.4678 5.03885C18.4859 5.06702 18.5198 5.11091 18.5763 5.12868C18.6476 5.15114 18.7081 5.11985 18.7441 5.08386L18.5674 4.90703C18.5753 4.89916 18.6076 4.87647 18.6513 4.89021C18.6801 4.89927 18.6868 4.91714 18.6785 4.90423C18.6647 4.88266 18.6441 4.82963 18.6243 4.73981C18.5861 4.56672 18.5614 4.30712 18.5677 4.03119C18.5741 3.75476 18.6113 3.47226 18.6907 3.25008C18.7716 3.02343 18.8843 2.89105 19.0207 2.85428L18.9556 2.61289Z" fill="#868686"/>
</g>
<defs>
<filter id="filter0_d_877_3411" x="0.742188" y="0.592773" width="28.5" height="39.2139" filterUnits="userSpaceOnUse" color-interpolation-filters="sRGB">
<feFlood flood-opacity="0" result="BackgroundImageFix"/>
<feColorMatrix in="SourceAlpha" type="matrix" values="0 0 0 0 0 0 0 0 0 0 0 0 0 0 0 0 0 0 127 0" result="hardAlpha"/>
<feOffset dy="2"/>
<feGaussianBlur stdDeviation="2"/>
<feColorMatrix type="matrix" values="0 0 0 0 0 0 0 0 0 0 0 0 0 0 0 0 0 0 0.01 0"/>
<feBlend mode="normal" in2="BackgroundImageFix" result="effect1_dropShadow_877_3411"/>
<feBlend mode="normal" in="SourceGraphic" in2="effect1_dropShadow_877_3411" result="shape"/>
</filter>
</defs>
</svg>
