<svg width="26" height="30" viewBox="0 0 26 30" fill="none" xmlns="http://www.w3.org/2000/svg">
<g filter="url(#filter0_d_877_3426)">
<path fill-rule="evenodd" clip-rule="evenodd" d="M19.6105 7.43807L20.5501 5.97492L21.5255 4.54665C21.0666 4.64954 20.6557 4.75941 20.5074 4.83527C20.1462 5.01489 19.6463 4.74372 19.5119 4.42545C19.3758 4.10893 18.4694 4.38011 17.7444 4.78644C17.0194 5.19539 16.6582 6.05601 16.3852 5.87378C16.113 5.69154 14.4841 5.46744 14.0305 5.46744C13.5768 5.46744 12.1277 4.51701 11.6758 4.10806C11.223 3.70172 9.90998 3.88222 9.59154 3.70172C9.27572 3.51861 8.64147 3.38433 8.41551 3.11228C8.1878 2.84023 7.64428 2.88644 7.19062 2.97538C6.7387 3.06694 5.65078 3.70172 5.56179 4.06359C5.53387 4.18043 5.42831 4.2903 5.30093 4.39668L6.23094 5.24248L6.43945 6.70562L7.27437 7.4372C7.27437 7.4372 7.27437 8.27253 7.17142 9.10874C7.06673 9.94408 6.33476 10.9887 5.81043 11.5119C5.65601 11.6671 5.43703 12.1632 5.20497 12.7797C6.00498 12.9794 6.60173 13.2837 6.55636 13.5243C6.4665 14.0222 5.10813 13.7964 5.10813 14.8375C5.10813 14.9073 5.10202 14.9744 5.09766 15.0433L12.8143 19.1354L12.7105 20.3902C12.7105 20.3902 14.4449 21.6571 16.1374 22.8238C16.8903 20.9098 17.8779 18.7805 18.1361 18.382C18.5889 17.6871 19.0426 17.8083 19.4343 17.3243C19.8269 16.8422 19.9482 17.5659 20.5519 16.6006C20.5999 16.5265 20.6583 16.4393 20.7272 16.353L19.7144 14.7486L19.6105 7.43807Z" fill="white"/>
<path fill-rule="evenodd" clip-rule="evenodd" d="M19.6105 7.43807L20.5501 5.97492L21.5255 4.54665C21.0666 4.64954 20.6557 4.75941 20.5074 4.83527C20.1462 5.01489 19.6463 4.74372 19.5119 4.42545C19.3758 4.10893 18.4694 4.38011 17.7444 4.78644C17.0194 5.19539 16.6582 6.05601 16.3852 5.87378C16.113 5.69154 14.4841 5.46744 14.0305 5.46744C13.5768 5.46744 12.1277 4.51701 11.6758 4.10806C11.223 3.70172 9.90998 3.88222 9.59154 3.70172C9.27572 3.51861 8.64147 3.38433 8.41551 3.11228C8.1878 2.84023 7.64428 2.88644 7.19062 2.97538C6.7387 3.06694 5.65078 3.70172 5.56179 4.06359C5.53387 4.18043 5.42831 4.2903 5.30093 4.39668L6.23094 5.24248L6.43945 6.70562L7.27437 7.4372C7.27437 7.4372 7.27437 8.27253 7.17142 9.10874C7.06673 9.94408 6.33476 10.9887 5.81043 11.5119C5.65601 11.6671 5.43703 12.1632 5.20497 12.7797C6.00498 12.9794 6.60173 13.2837 6.55636 13.5243C6.4665 14.0222 5.10813 13.7964 5.10813 14.8375C5.10813 14.9073 5.10202 14.9744 5.09766 15.0433L12.8143 19.1354L12.7105 20.3902C12.7105 20.3902 14.4449 21.6571 16.1374 22.8238C16.8903 20.9098 17.8779 18.7805 18.1361 18.382C18.5889 17.6871 19.0426 17.8083 19.4343 17.3243C19.8269 16.8422 19.9482 17.5659 20.5519 16.6006C20.5999 16.5265 20.6583 16.4393 20.7272 16.353L19.7144 14.7486L19.6105 7.43807Z" stroke="#868686" stroke-width="0.25"/>
</g>
<defs>
<filter id="filter0_d_877_3426" x="0.96875" y="0.78125" width="24.8379" height="28.2344" filterUnits="userSpaceOnUse" color-interpolation-filters="sRGB">
<feFlood flood-opacity="0" result="BackgroundImageFix"/>
<feColorMatrix in="SourceAlpha" type="matrix" values="0 0 0 0 0 0 0 0 0 0 0 0 0 0 0 0 0 0 127 0" result="hardAlpha"/>
<feOffset dy="2"/>
<feGaussianBlur stdDeviation="2"/>
<feColorMatrix type="matrix" values="0 0 0 0 0 0 0 0 0 0 0 0 0 0 0 0 0 0 0.01 0"/>
<feBlend mode="normal" in2="BackgroundImageFix" result="effect1_dropShadow_877_3426"/>
<feBlend mode="normal" in="SourceGraphic" in2="effect1_dropShadow_877_3426" result="shape"/>
</filter>
</defs>
</svg>
