<svg width="15" height="17" viewBox="0 0 15 17" fill="none" xmlns="http://www.w3.org/2000/svg">
<g filter="url(#filter0_d_877_3335)">
<path fill-rule="evenodd" clip-rule="evenodd" d="M4.54315 5.82998C4.91219 6.70892 4.91219 8.2488 4.76475 8.54265C4.69147 8.68914 4.41665 9.10942 4.16016 9.49657C4.49342 9.87326 5.03171 10.1471 5.98354 9.8471C7.14823 9.47739 7.69961 10.2142 8.12971 8.92718C8.46473 7.92094 9.65647 6.54935 10.5437 5.67303C10.5333 5.6678 10.5245 5.65908 10.5149 5.65559C9.65385 5.29198 8.33997 3.20974 7.02696 2.93857C6.45378 2.81998 5.87448 2.58193 5.31089 2.36133C5.14687 2.93159 5.00554 3.33095 4.91219 3.40855C4.47249 3.77652 4.17586 4.95018 4.54315 5.82998Z" fill="white"/>
<path fill-rule="evenodd" clip-rule="evenodd" d="M4.54315 5.82998C4.91219 6.70892 4.91219 8.2488 4.76475 8.54265C4.69147 8.68914 4.41665 9.10942 4.16016 9.49657C4.49342 9.87326 5.03171 10.1471 5.98354 9.8471C7.14823 9.47739 7.69961 10.2142 8.12971 8.92718C8.46473 7.92094 9.65647 6.54935 10.5437 5.67303C10.5333 5.6678 10.5245 5.65908 10.5149 5.65559C9.65385 5.29198 8.33997 3.20974 7.02696 2.93857C6.45378 2.81998 5.87448 2.58193 5.31089 2.36133C5.14687 2.93159 5.00554 3.33095 4.91219 3.40855C4.47249 3.77652 4.17586 4.95018 4.54315 5.82998Z" stroke="#868686" stroke-width="0.25"/>
</g>
<defs>
<filter id="filter0_d_877_3335" x="0.00390625" y="0.195312" width="14.752" height="15.9043" filterUnits="userSpaceOnUse" color-interpolation-filters="sRGB">
<feFlood flood-opacity="0" result="BackgroundImageFix"/>
<feColorMatrix in="SourceAlpha" type="matrix" values="0 0 0 0 0 0 0 0 0 0 0 0 0 0 0 0 0 0 127 0" result="hardAlpha"/>
<feOffset dy="2"/>
<feGaussianBlur stdDeviation="2"/>
<feColorMatrix type="matrix" values="0 0 0 0 0 0 0 0 0 0 0 0 0 0 0 0 0 0 0.01 0"/>
<feBlend mode="normal" in2="BackgroundImageFix" result="effect1_dropShadow_877_3335"/>
<feBlend mode="normal" in="SourceGraphic" in2="effect1_dropShadow_877_3335" result="shape"/>
</filter>
</defs>
</svg>
