<svg width="25" height="18" viewBox="0 0 25 18" fill="none" xmlns="http://www.w3.org/2000/svg">
<g filter="url(#filter0_d_877_3269)">
<path fill-rule="evenodd" clip-rule="evenodd" d="M20.3566 8.69146C20.2179 8.68012 20.0652 8.67576 19.889 8.68012C18.7104 8.72633 17.9862 8.13689 17.2159 8.18398C16.4464 8.22757 14.2287 7.36782 13.276 6.59963C12.3259 5.82969 9.74352 4.19999 9.11014 3.56608C8.47675 2.93217 7.57117 2.93217 7.47956 3.24956C7.39668 3.54079 6.93168 3.56521 6.22676 3.63671C6.04703 3.95149 5.29936 4.37613 5.29936 4.80252C5.29936 5.28733 4.97656 5.93171 4.97656 6.33455C4.97656 6.73827 5.78269 6.81674 6.02435 7.13937C6.26601 7.46112 7.55634 7.62331 7.63747 7.94593C7.71774 8.26768 8.60413 8.6714 9.17033 8.75337C9.73392 8.83271 10.5409 9.47709 10.8637 9.71862C11.1848 9.96016 12.3948 9.39687 12.7988 9.39687C13.2018 9.39687 13.8474 10.1206 13.9277 10.5234C14.0088 10.9272 16.1035 11.1687 16.5895 11.5724C17.0728 11.9761 19.6535 11.7337 20.1368 11.2498C20.6201 10.7658 20.2179 9.87907 20.2179 9.15534C20.217 8.91381 20.2729 8.78301 20.3566 8.69146Z" fill="white"/>
<path fill-rule="evenodd" clip-rule="evenodd" d="M20.3566 8.69146C20.2179 8.68012 20.0652 8.67576 19.889 8.68012C18.7104 8.72633 17.9862 8.13689 17.2159 8.18398C16.4464 8.22757 14.2287 7.36782 13.276 6.59963C12.3259 5.82969 9.74352 4.19999 9.11014 3.56608C8.47675 2.93217 7.57117 2.93217 7.47956 3.24956C7.39668 3.54079 6.93168 3.56521 6.22676 3.63671C6.04703 3.95149 5.29936 4.37613 5.29936 4.80252C5.29936 5.28733 4.97656 5.93171 4.97656 6.33455C4.97656 6.73827 5.78269 6.81674 6.02435 7.13937C6.26601 7.46112 7.55634 7.62331 7.63747 7.94593C7.71774 8.26768 8.60413 8.6714 9.17033 8.75337C9.73392 8.83271 10.5409 9.47709 10.8637 9.71862C11.1848 9.96016 12.3948 9.39687 12.7988 9.39687C13.2018 9.39687 13.8474 10.1206 13.9277 10.5234C14.0088 10.9272 16.1035 11.1687 16.5895 11.5724C17.0728 11.9761 19.6535 11.7337 20.1368 11.2498C20.6201 10.7658 20.2179 9.87907 20.2179 9.15534C20.217 8.91381 20.2729 8.78301 20.3566 8.69146Z" stroke="#868686" stroke-width="0.25"/>
</g>
<defs>
<filter id="filter0_d_877_3269" x="0.851562" y="0.916016" width="23.7695" height="16.9854" filterUnits="userSpaceOnUse" color-interpolation-filters="sRGB">
<feFlood flood-opacity="0" result="BackgroundImageFix"/>
<feColorMatrix in="SourceAlpha" type="matrix" values="0 0 0 0 0 0 0 0 0 0 0 0 0 0 0 0 0 0 127 0" result="hardAlpha"/>
<feOffset dy="2"/>
<feGaussianBlur stdDeviation="2"/>
<feColorMatrix type="matrix" values="0 0 0 0 0 0 0 0 0 0 0 0 0 0 0 0 0 0 0.01 0"/>
<feBlend mode="normal" in2="BackgroundImageFix" result="effect1_dropShadow_877_3269"/>
<feBlend mode="normal" in="SourceGraphic" in2="effect1_dropShadow_877_3269" result="shape"/>
</filter>
</defs>
</svg>
