<svg width="16" height="16" viewBox="0 0 16 16" fill="none" xmlns="http://www.w3.org/2000/svg">
<g filter="url(#filter0_d_877_3238)">
<path fill-rule="evenodd" clip-rule="evenodd" d="M10.7985 7.00489C10.8893 6.59768 11.1615 6.18786 10.9346 5.82774C10.7087 5.46501 10.6633 5.05693 10.6633 4.60526C10.6633 4.15358 9.48466 2.56836 9.03187 2.56836C8.57995 2.56836 7.99106 2.97644 7.49291 2.88575C6.99475 2.79507 6.58558 2.6137 6.54196 3.11246C6.51055 3.45165 5.72711 4.14312 5.14258 4.63839C5.25599 4.87295 5.36069 5.11884 5.44008 5.38915C5.92253 7.04849 6.37619 7.38245 7.06978 7.95271C7.38385 8.21517 7.99717 8.60145 8.70384 9.04963C8.87658 8.72265 9.04234 8.4628 9.16797 8.36253C9.62076 8.00067 10.7087 7.41209 10.7985 7.00489Z" fill="white"/>
<path fill-rule="evenodd" clip-rule="evenodd" d="M10.7985 7.00489C10.8893 6.59768 11.1615 6.18786 10.9346 5.82774C10.7087 5.46501 10.6633 5.05693 10.6633 4.60526C10.6633 4.15358 9.48466 2.56836 9.03187 2.56836C8.57995 2.56836 7.99106 2.97644 7.49291 2.88575C6.99475 2.79507 6.58558 2.6137 6.54196 3.11246C6.51055 3.45165 5.72711 4.14312 5.14258 4.63839C5.25599 4.87295 5.36069 5.11884 5.44008 5.38915C5.92253 7.04849 6.37619 7.38245 7.06978 7.95271C7.38385 8.21517 7.99717 8.60145 8.70384 9.04963C8.87658 8.72265 9.04234 8.4628 9.16797 8.36253C9.62076 8.00067 10.7087 7.41209 10.7985 7.00489Z" stroke="#868686" stroke-width="0.25"/>
</g>
<defs>
<filter id="filter0_d_877_3238" x="0.988281" y="0.443359" width="14.1602" height="14.7842" filterUnits="userSpaceOnUse" color-interpolation-filters="sRGB">
<feFlood flood-opacity="0" result="BackgroundImageFix"/>
<feColorMatrix in="SourceAlpha" type="matrix" values="0 0 0 0 0 0 0 0 0 0 0 0 0 0 0 0 0 0 127 0" result="hardAlpha"/>
<feOffset dy="2"/>
<feGaussianBlur stdDeviation="2"/>
<feColorMatrix type="matrix" values="0 0 0 0 0 0 0 0 0 0 0 0 0 0 0 0 0 0 0.01 0"/>
<feBlend mode="normal" in2="BackgroundImageFix" result="effect1_dropShadow_877_3238"/>
<feBlend mode="normal" in="SourceGraphic" in2="effect1_dropShadow_877_3238" result="shape"/>
</filter>
</defs>
</svg>
