<svg width="38" height="27" viewBox="0 0 38 27" fill="none" xmlns="http://www.w3.org/2000/svg">
<g filter="url(#filter0_d_877_3487)">
<path fill-rule="evenodd" clip-rule="evenodd" d="M33.1508 14.203C33.1508 14.203 31.823 13.5395 31.3396 13.5997C30.8563 13.6607 30.072 12.5167 29.2249 12.2132C28.3803 11.9098 27.2331 11.3674 26.871 10.8251C26.5081 10.2818 24.9988 9.73861 24.8173 9.31571C24.6376 8.89281 24.3349 8.16822 23.9118 7.62498C23.4886 7.08263 23.4904 6.3589 23.0672 6.29873C22.6441 6.2377 20.046 6.29873 20.046 5.936C20.046 5.57501 19.8654 3.88341 19.3228 3.76395C18.7784 3.64013 18.0543 3.52242 17.7541 3.22072C17.4505 2.9164 16.4839 2.55454 16.3024 2.85973C16.1227 3.15794 15.6394 3.27914 15.4588 3.27914C15.2782 3.27914 15.3366 4.12581 14.7338 4.06478C14.1292 4.00461 13.2838 4.72834 13.2838 5.14949C13.2838 5.57414 13.344 6.17666 12.5606 6.11562C12.1671 6.08423 11.6061 6.00924 11.1237 5.77382C11.0103 5.86363 10.3559 6.31617 9.69463 5.43462C8.97052 4.46588 7.83985 3.49887 7.19599 3.49887C6.6167 3.49887 4.61447 3.50323 5.08646 4.61237C5.22779 4.36473 5.49912 4.19731 6.03828 4.24353C7.48739 4.36473 6.82172 6.05371 7.60953 6.11475C8.39384 6.17492 9.3003 7.38258 8.57443 7.32241C7.84857 7.26225 7.24485 7.98598 6.52161 7.74532C5.79662 7.50291 4.89016 6.89864 4.64937 7.74532C4.40771 8.58937 4.10497 9.49534 5.07163 9.43343C6.03741 9.37501 5.85594 10.0394 5.19202 10.7021C4.52897 11.3666 6.21974 10.5801 6.33927 11.1861C6.45966 11.7895 7.00231 11.8488 6.76327 12.814C6.60885 13.4253 6.72226 14.6451 6.76501 15.5467C7.40538 15.5424 8.26821 15.4883 8.45317 15.2285C8.7559 14.8064 9.72081 13.9615 10.2643 13.9615C10.8079 13.9615 11.4116 14.2022 11.7143 13.781C12.0162 13.3581 13.7671 13.4793 14.0673 13.8403C14.3717 14.2022 15.3349 14.5047 15.5774 14.5047C15.8182 14.5047 15.9404 15.0471 16.5441 14.9887C17.1469 14.9285 18.2942 15.1709 18.2942 15.5319C18.2942 15.8938 18.7173 16.2565 19.2006 16.2565C19.684 16.2565 20.1062 17.4633 20.5895 17.4014C21.0737 17.343 22.0378 17.343 22.0378 17.6429C22.0378 17.8949 22.1259 19.3241 22.4033 20.1411C22.5691 20.0513 22.7401 20.0382 22.8361 20.101C23.0777 20.2632 24.1264 19.9405 24.2878 20.5038C24.45 21.0689 26.1426 20.7454 26.0623 19.8594C25.9803 18.9727 28.7223 18.9727 28.964 18.1687C29.2065 17.3613 29.5293 15.9103 30.1758 16.1519C30.8179 16.3925 31.2218 15.1055 31.7863 15.1849C32.3037 15.259 32.6875 15.6627 33.3043 15.5467L33.1508 14.203Z" fill="white"/>
<path fill-rule="evenodd" clip-rule="evenodd" d="M33.1508 14.203C33.1508 14.203 31.823 13.5395 31.3396 13.5997C30.8563 13.6607 30.072 12.5167 29.2249 12.2132C28.3803 11.9098 27.2331 11.3674 26.871 10.8251C26.5081 10.2818 24.9988 9.73861 24.8173 9.31571C24.6376 8.89281 24.3349 8.16822 23.9118 7.62498C23.4886 7.08263 23.4904 6.3589 23.0672 6.29873C22.6441 6.2377 20.046 6.29873 20.046 5.936C20.046 5.57501 19.8654 3.88341 19.3228 3.76395C18.7784 3.64013 18.0543 3.52242 17.7541 3.22072C17.4505 2.9164 16.4839 2.55454 16.3024 2.85973C16.1227 3.15794 15.6394 3.27914 15.4588 3.27914C15.2782 3.27914 15.3366 4.12581 14.7338 4.06478C14.1292 4.00461 13.2838 4.72834 13.2838 5.14949C13.2838 5.57414 13.344 6.17666 12.5606 6.11562C12.1671 6.08423 11.6061 6.00924 11.1237 5.77382C11.0103 5.86363 10.3559 6.31617 9.69463 5.43462C8.97052 4.46588 7.83985 3.49887 7.19599 3.49887C6.6167 3.49887 4.61447 3.50323 5.08646 4.61237C5.22779 4.36473 5.49912 4.19731 6.03828 4.24353C7.48739 4.36473 6.82172 6.05371 7.60953 6.11475C8.39384 6.17492 9.3003 7.38258 8.57443 7.32241C7.84857 7.26225 7.24485 7.98598 6.52161 7.74532C5.79662 7.50291 4.89016 6.89864 4.64937 7.74532C4.40771 8.58937 4.10497 9.49534 5.07163 9.43343C6.03741 9.37501 5.85594 10.0394 5.19202 10.7021C4.52897 11.3666 6.21974 10.5801 6.33927 11.1861C6.45966 11.7895 7.00231 11.8488 6.76327 12.814C6.60885 13.4253 6.72226 14.6451 6.76501 15.5467C7.40538 15.5424 8.26821 15.4883 8.45317 15.2285C8.7559 14.8064 9.72081 13.9615 10.2643 13.9615C10.8079 13.9615 11.4116 14.2022 11.7143 13.781C12.0162 13.3581 13.7671 13.4793 14.0673 13.8403C14.3717 14.2022 15.3349 14.5047 15.5774 14.5047C15.8182 14.5047 15.9404 15.0471 16.5441 14.9887C17.1469 14.9285 18.2942 15.1709 18.2942 15.5319C18.2942 15.8938 18.7173 16.2565 19.2006 16.2565C19.684 16.2565 20.1062 17.4633 20.5895 17.4014C21.0737 17.343 22.0378 17.343 22.0378 17.6429C22.0378 17.8949 22.1259 19.3241 22.4033 20.1411C22.5691 20.0513 22.7401 20.0382 22.8361 20.101C23.0777 20.2632 24.1264 19.9405 24.2878 20.5038C24.45 21.0689 26.1426 20.7454 26.0623 19.8594C25.9803 18.9727 28.7223 18.9727 28.964 18.1687C29.2065 17.3613 29.5293 15.9103 30.1758 16.1519C30.8179 16.3925 31.2218 15.1055 31.7863 15.1849C32.3037 15.259 32.6875 15.6627 33.3043 15.5467L33.1508 14.203Z" stroke="#868686" stroke-width="0.25"/>
</g>
<defs>
<filter id="filter0_d_877_3487" x="0.28125" y="0.619141" width="37.1602" height="26.291" filterUnits="userSpaceOnUse" color-interpolation-filters="sRGB">
<feFlood flood-opacity="0" result="BackgroundImageFix"/>
<feColorMatrix in="SourceAlpha" type="matrix" values="0 0 0 0 0 0 0 0 0 0 0 0 0 0 0 0 0 0 127 0" result="hardAlpha"/>
<feOffset dy="2"/>
<feGaussianBlur stdDeviation="2"/>
<feColorMatrix type="matrix" values="0 0 0 0 0 0 0 0 0 0 0 0 0 0 0 0 0 0 0.01 0"/>
<feBlend mode="normal" in2="BackgroundImageFix" result="effect1_dropShadow_877_3487"/>
<feBlend mode="normal" in="SourceGraphic" in2="effect1_dropShadow_877_3487" result="shape"/>
</filter>
</defs>
</svg>
