<svg width="20" height="20" viewBox="0 0 20 20" fill="none" xmlns="http://www.w3.org/2000/svg">
<g filter="url(#filter0_d_877_3321)">
<path fill-rule="evenodd" clip-rule="evenodd" d="M14.8158 7.53102C14.8158 6.56838 13.761 6.29284 13.4391 5.92575C13.1171 5.55865 11.696 4.96223 11.1455 4.18357C10.595 3.40317 10.273 4.45649 9.99821 4.50445C9.72339 4.54979 9.76963 3.90716 9.08041 3.08054C8.39207 2.25567 7.74996 2.25567 7.33642 2.44052C7.19247 2.50418 6.9796 2.51377 6.72834 2.47715C6.36279 2.8983 6.0967 3.27673 6.0967 3.63162C6.0967 4.50445 5.45372 5.46622 5.4101 7.11684C5.36211 8.7692 4.90409 8.49367 4.85872 9.77719C4.81248 11.0625 5.27138 10.8323 5.45372 11.0162C5.55667 11.1174 5.43191 11.5263 5.30279 11.8725C5.4956 12.0425 5.68753 12.3111 6.10979 12.2631C6.92551 12.1725 7.74036 12.4916 8.73667 12.9424C9.73212 13.3949 9.37006 12.8064 10.3219 12.9424C11.272 13.0793 12.359 13.1691 13.4007 12.5343C14.1135 12.1001 14.472 11.3476 15.0295 10.6265C14.4904 9.52432 14.8158 8.22074 14.8158 7.53102Z" fill="white"/>
<path fill-rule="evenodd" clip-rule="evenodd" d="M14.8158 7.53102C14.8158 6.56838 13.761 6.29284 13.4391 5.92575C13.1171 5.55865 11.696 4.96223 11.1455 4.18357C10.595 3.40317 10.273 4.45649 9.99821 4.50445C9.72339 4.54979 9.76963 3.90716 9.08041 3.08054C8.39207 2.25567 7.74996 2.25567 7.33642 2.44052C7.19247 2.50418 6.9796 2.51377 6.72834 2.47715C6.36279 2.8983 6.0967 3.27673 6.0967 3.63162C6.0967 4.50445 5.45372 5.46622 5.4101 7.11684C5.36211 8.7692 4.90409 8.49367 4.85872 9.77719C4.81248 11.0625 5.27138 10.8323 5.45372 11.0162C5.55667 11.1174 5.43191 11.5263 5.30279 11.8725C5.4956 12.0425 5.68753 12.3111 6.10979 12.2631C6.92551 12.1725 7.74036 12.4916 8.73667 12.9424C9.73212 13.3949 9.37006 12.8064 10.3219 12.9424C11.272 13.0793 12.359 13.1691 13.4007 12.5343C14.1135 12.1001 14.472 11.3476 15.0295 10.6265C14.4904 9.52432 14.8158 8.22074 14.8158 7.53102Z" stroke="#868686" stroke-width="0.25"/>
</g>
<defs>
<filter id="filter0_d_877_3321" x="0.730469" y="0.21582" width="18.4453" height="19.0254" filterUnits="userSpaceOnUse" color-interpolation-filters="sRGB">
<feFlood flood-opacity="0" result="BackgroundImageFix"/>
<feColorMatrix in="SourceAlpha" type="matrix" values="0 0 0 0 0 0 0 0 0 0 0 0 0 0 0 0 0 0 127 0" result="hardAlpha"/>
<feOffset dy="2"/>
<feGaussianBlur stdDeviation="2"/>
<feColorMatrix type="matrix" values="0 0 0 0 0 0 0 0 0 0 0 0 0 0 0 0 0 0 0.01 0"/>
<feBlend mode="normal" in2="BackgroundImageFix" result="effect1_dropShadow_877_3321"/>
<feBlend mode="normal" in="SourceGraphic" in2="effect1_dropShadow_877_3321" result="shape"/>
</filter>
</defs>
</svg>
