<svg width="18" height="18" viewBox="0 0 18 18" fill="none" xmlns="http://www.w3.org/2000/svg">
<g filter="url(#filter0_d_877_3333)">
<path fill-rule="evenodd" clip-rule="evenodd" d="M6.67396 4.26184C6.96797 4.84954 6.30841 5.14252 5.7204 5.21576C5.13412 5.28901 5.27982 6.6109 4.9134 6.97712C4.5461 7.34421 6.30841 8.29814 6.59981 9.10296C6.77429 9.58079 7.35882 10.6237 7.80899 11.3953C8.21467 11.4974 8.60203 11.5898 8.83323 11.4607C9.3846 11.1521 8.89517 10.1101 9.69257 10.172C10.4882 10.2339 11.6547 9.74036 11.9609 10.2339C12.0176 10.322 12.0856 10.4109 12.1607 10.4963C12.4172 10.1101 12.692 9.68891 12.7653 9.54242C12.9127 9.24857 12.9127 7.70782 12.5437 6.82976C12.1764 5.94995 12.4721 4.77629 12.9127 4.4092C13.0061 4.33159 13.1474 3.93224 13.3114 3.36198C12.5821 3.07772 11.8806 2.82136 11.2673 2.89809C10.1811 3.03499 9.04959 3.53288 8.64129 2.94431C8.23387 2.35574 7.6441 2.44729 7.10145 2.89809C7.03951 2.95041 6.97146 2.96523 6.89905 2.95564C6.71409 3.48492 6.52652 3.96712 6.67396 4.26184Z" fill="white"/>
<path fill-rule="evenodd" clip-rule="evenodd" d="M6.67396 4.26184C6.96797 4.84954 6.30841 5.14252 5.7204 5.21576C5.13412 5.28901 5.27982 6.6109 4.9134 6.97712C4.5461 7.34421 6.30841 8.29814 6.59981 9.10296C6.77429 9.58079 7.35882 10.6237 7.80899 11.3953C8.21467 11.4974 8.60203 11.5898 8.83323 11.4607C9.3846 11.1521 8.89517 10.1101 9.69257 10.172C10.4882 10.2339 11.6547 9.74036 11.9609 10.2339C12.0176 10.322 12.0856 10.4109 12.1607 10.4963C12.4172 10.1101 12.692 9.68891 12.7653 9.54242C12.9127 9.24857 12.9127 7.70782 12.5437 6.82976C12.1764 5.94995 12.4721 4.77629 12.9127 4.4092C13.0061 4.33159 13.1474 3.93224 13.3114 3.36198C12.5821 3.07772 11.8806 2.82136 11.2673 2.89809C10.1811 3.03499 9.04959 3.53288 8.64129 2.94431C8.23387 2.35574 7.6441 2.44729 7.10145 2.89809C7.03951 2.95041 6.97146 2.96523 6.89905 2.95564C6.71409 3.48492 6.52652 3.96712 6.67396 4.26184Z" stroke="#868686" stroke-width="0.25"/>
</g>
<defs>
<filter id="filter0_d_877_3333" x="0.738281" y="0.40625" width="16.7246" height="17.2432" filterUnits="userSpaceOnUse" color-interpolation-filters="sRGB">
<feFlood flood-opacity="0" result="BackgroundImageFix"/>
<feColorMatrix in="SourceAlpha" type="matrix" values="0 0 0 0 0 0 0 0 0 0 0 0 0 0 0 0 0 0 127 0" result="hardAlpha"/>
<feOffset dy="2"/>
<feGaussianBlur stdDeviation="2"/>
<feColorMatrix type="matrix" values="0 0 0 0 0 0 0 0 0 0 0 0 0 0 0 0 0 0 0.01 0"/>
<feBlend mode="normal" in2="BackgroundImageFix" result="effect1_dropShadow_877_3333"/>
<feBlend mode="normal" in="SourceGraphic" in2="effect1_dropShadow_877_3333" result="shape"/>
</filter>
</defs>
</svg>
