<svg width="25" height="27" viewBox="0 0 25 27" fill="none" xmlns="http://www.w3.org/2000/svg">
<g filter="url(#filter0_d_877_3300)">
<path fill-rule="evenodd" clip-rule="evenodd" d="M12.6395 2.85227V4.39913L11.35 6.03231L10.6625 7.75181C10.858 7.76315 11.008 7.76576 11.0796 7.75617C11.6065 7.69775 12.13 8.80688 12.13 9.21496C12.13 9.62391 11.0211 13.2408 10.7306 13.4727C10.5195 13.641 6.87882 14.8408 4.47266 15.5846C4.99437 16.665 6.03692 18.8187 6.97566 20.7405C7.13706 20.6769 7.30631 20.5993 7.49301 20.4894C8.63938 19.8276 9.9393 20.1607 10.8152 19.9191C11.6911 19.6776 10.844 18.9513 11.5995 18.3182C12.3551 17.6834 13.4404 18.1674 13.8338 17.9564C14.2264 17.7462 14.4995 16.3589 15.1617 16.086C15.8256 15.8139 16.5506 15.9944 16.459 15.4216C16.3691 14.8487 16.5209 12.7961 17.1552 12.6758C17.7894 12.5563 18.7857 11.891 18.8154 11.5274C18.8459 11.1673 20.1136 9.80789 20.5053 9.14695C20.8979 8.48164 20.9284 8.11891 20.3561 8.0291C19.7821 7.93841 18.8765 6.33837 18.6366 5.88669C18.394 5.4324 16.6431 5.7341 15.2236 4.61973C14.6469 4.16544 14.3276 3.30831 14.1226 2.45117L13.4133 2.85402H12.6395V2.85227Z" fill="white"/>
<path fill-rule="evenodd" clip-rule="evenodd" d="M12.6395 2.85227V4.39913L11.35 6.03231L10.6625 7.75181C10.858 7.76315 11.008 7.76576 11.0796 7.75617C11.6065 7.69775 12.13 8.80688 12.13 9.21496C12.13 9.62391 11.0211 13.2408 10.7306 13.4727C10.5195 13.641 6.87882 14.8408 4.47266 15.5846C4.99437 16.665 6.03692 18.8187 6.97566 20.7405C7.13706 20.6769 7.30631 20.5993 7.49301 20.4894C8.63938 19.8276 9.9393 20.1607 10.8152 19.9191C11.6911 19.6776 10.844 18.9513 11.5995 18.3182C12.3551 17.6834 13.4404 18.1674 13.8338 17.9564C14.2264 17.7462 14.4995 16.3589 15.1617 16.086C15.8256 15.8139 16.5506 15.9944 16.459 15.4216C16.3691 14.8487 16.5209 12.7961 17.1552 12.6758C17.7894 12.5563 18.7857 11.891 18.8154 11.5274C18.8459 11.1673 20.1136 9.80789 20.5053 9.14695C20.8979 8.48164 20.9284 8.11891 20.3561 8.0291C19.7821 7.93841 18.8765 6.33837 18.6366 5.88669C18.394 5.4324 16.6431 5.7341 15.2236 4.61973C14.6469 4.16544 14.3276 3.30831 14.1226 2.45117L13.4133 2.85402H12.6395V2.85227Z" stroke="#868686" stroke-width="0.25"/>
</g>
<defs>
<filter id="filter0_d_877_3300" x="0.296875" y="0.260742" width="24.6211" height="26.6387" filterUnits="userSpaceOnUse" color-interpolation-filters="sRGB">
<feFlood flood-opacity="0" result="BackgroundImageFix"/>
<feColorMatrix in="SourceAlpha" type="matrix" values="0 0 0 0 0 0 0 0 0 0 0 0 0 0 0 0 0 0 127 0" result="hardAlpha"/>
<feOffset dy="2"/>
<feGaussianBlur stdDeviation="2"/>
<feColorMatrix type="matrix" values="0 0 0 0 0 0 0 0 0 0 0 0 0 0 0 0 0 0 0.01 0"/>
<feBlend mode="normal" in2="BackgroundImageFix" result="effect1_dropShadow_877_3300"/>
<feBlend mode="normal" in="SourceGraphic" in2="effect1_dropShadow_877_3300" result="shape"/>
</filter>
</defs>
</svg>
