<svg width="47" height="48" viewBox="0 0 47 48" fill="none" xmlns="http://www.w3.org/2000/svg">
<g filter="url(#filter0_d_877_3520)">
<path fill-rule="evenodd" clip-rule="evenodd" d="M39.3687 28.5117C38.3724 27.9685 37.9641 21.1332 38.4613 20.9535C38.5268 20.9309 38.5896 21.0032 38.6533 21.1445L38.5529 19.595C38.5529 19.595 38.4954 19.5854 38.4195 19.5532C38.2589 19.4904 38.0094 19.3317 38.0094 18.962C38.0094 18.4205 38.4622 18.3734 38.4622 18.3734C38.4622 18.3734 38.3732 17.2416 38.8714 17.0602C38.9717 17.0254 39.052 16.953 39.12 16.8675C39.3983 16.5249 39.4603 15.8578 39.4603 15.3843C39.4603 14.7975 39.5946 14.1183 39.8215 13.6204C40.0492 13.1234 39.9576 12.4432 40.3214 12.1712C40.6825 11.9017 40.6381 11.1763 41.09 11.0411C41.5445 10.9042 41.9066 10.7237 41.9502 10.4517C41.9964 10.1787 42.54 9.81688 42.54 9.41142C42.54 9.00422 41.8612 8.91266 41.8612 8.41564C41.8612 7.91601 42.0418 6.64905 42.0418 6.64905C42.0418 6.64905 42.0601 6.64295 42.0715 6.63946C41.0952 5.74658 39.9698 4.82056 39.7115 4.65052C39.3346 4.3994 38.7021 4.90426 38.7021 4.90426C38.7021 4.90426 38.0705 4.27122 37.5654 4.77696C37.062 5.28008 36.3038 4.77696 36.3038 4.77696C36.3038 4.77696 35.6722 4.39853 35.4192 3.76636C35.318 3.51087 35.1278 3.35654 34.8914 3.23185L34.9228 3.31555L33.4117 3.56755C33.4117 3.56755 31.5229 2.56131 31.146 3.31555C30.7674 4.07154 30.3896 3.56755 29.5076 3.56755C28.6256 3.56755 27.8709 3.94685 27.3658 4.19623C26.8624 4.44997 26.1077 3.94685 25.7291 4.19623C25.3513 4.44997 25.0992 5.58352 25.0992 5.58352L21.1959 4.82753C21.1959 4.82753 20.4395 3.69311 19.5575 3.69311C18.6746 3.69311 17.4166 5.33065 17.4166 5.33065V6.69963C17.5684 7.51927 17.3756 8.37902 17.113 8.815C16.7343 9.4463 16.3548 9.70004 16.3548 10.96C16.3548 12.2235 14.8394 14.2421 14.8394 15.2518C14.8394 16.2598 13.0719 16.8911 13.0719 17.5224C13.0719 18.1528 12.9462 19.5401 12.9462 20.9283C12.9462 22.3164 12.1881 21.1803 12.1881 22.4411C12.1881 23.7046 11.5565 22.9468 10.9274 23.5799C10.2958 24.2103 10.0428 24.3376 10.0428 23.7072C10.0428 23.0742 9.15815 22.9477 8.40089 23.5799C7.64362 24.2103 7.39061 23.5799 7.01372 23.4526C6.80434 23.3837 5.93976 23.8929 5.09961 24.4658C5.47824 25.2471 5.6728 26.0283 5.82547 26.7181C5.8403 26.7835 5.85862 26.8524 5.87956 26.9239C6.3245 26.6082 6.77468 26.3309 7.03204 26.2943C7.66717 26.2036 13.6442 26.2943 13.6442 26.2943C13.6442 26.2943 14.1877 27.1994 14.0062 28.0164C13.8257 28.8291 14.3701 28.4681 14.822 29.5554C15.2765 30.6401 15.6386 31.0944 16.545 30.8224C17.4489 30.5512 18.5368 30.3681 18.8997 30.4596C19.2609 30.5512 19.1719 28.9206 19.7146 28.6495C20.2572 28.3765 21.3451 28.6495 21.3451 28.6495C21.3451 28.6495 21.4359 29.1011 22.3414 29.1011C23.2479 29.1011 23.7007 28.7393 23.7007 29.3741C23.7007 30.0088 23.7906 30.7326 24.0628 31.0029C24.3341 31.2758 23.3386 33.5368 23.7897 33.9004C24.2442 34.2631 24.8776 35.0758 24.7877 35.5301C24.697 35.9826 24.4239 37.0691 24.7877 37.1598C25.1507 37.2513 25.2405 36.6166 25.8739 36.6166C26.509 36.6166 27.0517 36.7064 27.6851 36.4343C27.8945 36.3462 28.0785 36.3794 28.2382 36.4561C28.5636 36.6148 28.773 36.9775 28.773 36.9775C28.773 36.9775 28.9536 37.6123 29.3165 37.4318C29.6777 37.2513 30.6749 36.9775 30.5842 37.3403C30.4934 37.7039 30.8564 38.5183 31.2184 38.3361C31.5805 38.1556 32.4861 38.8793 32.9397 38.8793C33.3934 38.8793 33.8453 38.8793 33.8453 38.6072C33.8453 38.3352 34.388 37.8835 34.572 38.2445C34.7518 38.6072 35.2054 39.4225 35.6565 39.4225C36.1101 39.4225 37.1963 39.4225 37.1963 39.7853C37.1963 40.148 37.5592 41.1446 38.012 41.5056C38.4648 41.8675 39.462 41.5056 39.462 41.5056C39.462 41.5056 39.8232 41.2327 39.8232 40.6005C39.8232 39.9666 39.8232 39.1513 39.551 39.1513C39.2797 39.1513 38.8278 39.7861 38.1935 39.6048C37.5584 39.4234 37.1065 38.1564 36.8343 37.9742C36.5612 37.7937 37.2879 36.6174 37.2879 36.0742C37.2879 35.531 37.7416 33.9928 37.3778 33.8088C37.0157 33.6292 37.1963 33.086 37.65 32.725C38.1045 32.3623 37.4694 31.3674 38.1944 31.3674C38.874 31.3674 40.2585 31.4406 40.652 31.0011C40.6791 30.9724 40.7113 30.9471 40.7297 30.9122C40.7803 30.8128 40.823 30.7055 40.8605 30.5983C40.3929 29.8345 39.9296 28.8186 39.3687 28.5117Z" fill="white"/>
<path fill-rule="evenodd" clip-rule="evenodd" d="M39.3687 28.5117C38.3724 27.9685 37.9641 21.1332 38.4613 20.9535C38.5268 20.9309 38.5896 21.0032 38.6533 21.1445L38.5529 19.595C38.5529 19.595 38.4954 19.5854 38.4195 19.5532C38.2589 19.4904 38.0094 19.3317 38.0094 18.962C38.0094 18.4205 38.4622 18.3734 38.4622 18.3734C38.4622 18.3734 38.3732 17.2416 38.8714 17.0602C38.9717 17.0254 39.052 16.953 39.12 16.8675C39.3983 16.5249 39.4603 15.8578 39.4603 15.3843C39.4603 14.7975 39.5946 14.1183 39.8215 13.6204C40.0492 13.1234 39.9576 12.4432 40.3214 12.1712C40.6825 11.9017 40.6381 11.1763 41.09 11.0411C41.5445 10.9042 41.9066 10.7237 41.9502 10.4517C41.9964 10.1787 42.54 9.81688 42.54 9.41142C42.54 9.00422 41.8612 8.91266 41.8612 8.41564C41.8612 7.91601 42.0418 6.64905 42.0418 6.64905C42.0418 6.64905 42.0601 6.64295 42.0715 6.63946C41.0952 5.74658 39.9698 4.82056 39.7115 4.65052C39.3346 4.3994 38.7021 4.90426 38.7021 4.90426C38.7021 4.90426 38.0705 4.27122 37.5654 4.77696C37.062 5.28008 36.3038 4.77696 36.3038 4.77696C36.3038 4.77696 35.6722 4.39853 35.4192 3.76636C35.318 3.51087 35.1278 3.35654 34.8914 3.23185L34.9228 3.31555L33.4117 3.56755C33.4117 3.56755 31.5229 2.56131 31.146 3.31555C30.7674 4.07154 30.3896 3.56755 29.5076 3.56755C28.6256 3.56755 27.8709 3.94685 27.3658 4.19623C26.8624 4.44997 26.1077 3.94685 25.7291 4.19623C25.3513 4.44997 25.0992 5.58352 25.0992 5.58352L21.1959 4.82753C21.1959 4.82753 20.4395 3.69311 19.5575 3.69311C18.6746 3.69311 17.4166 5.33065 17.4166 5.33065V6.69963C17.5684 7.51927 17.3756 8.37902 17.113 8.815C16.7343 9.4463 16.3548 9.70004 16.3548 10.96C16.3548 12.2235 14.8394 14.2421 14.8394 15.2518C14.8394 16.2598 13.0719 16.8911 13.0719 17.5224C13.0719 18.1528 12.9462 19.5401 12.9462 20.9283C12.9462 22.3164 12.1881 21.1803 12.1881 22.4411C12.1881 23.7046 11.5565 22.9468 10.9274 23.5799C10.2958 24.2103 10.0428 24.3376 10.0428 23.7072C10.0428 23.0742 9.15815 22.9477 8.40089 23.5799C7.64362 24.2103 7.39061 23.5799 7.01372 23.4526C6.80434 23.3837 5.93976 23.8929 5.09961 24.4658C5.47824 25.2471 5.6728 26.0283 5.82547 26.7181C5.8403 26.7835 5.85862 26.8524 5.87956 26.9239C6.3245 26.6082 6.77468 26.3309 7.03204 26.2943C7.66717 26.2036 13.6442 26.2943 13.6442 26.2943C13.6442 26.2943 14.1877 27.1994 14.0062 28.0164C13.8257 28.8291 14.3701 28.4681 14.822 29.5554C15.2765 30.6401 15.6386 31.0944 16.545 30.8224C17.4489 30.5512 18.5368 30.3681 18.8997 30.4596C19.2609 30.5512 19.1719 28.9206 19.7146 28.6495C20.2572 28.3765 21.3451 28.6495 21.3451 28.6495C21.3451 28.6495 21.4359 29.1011 22.3414 29.1011C23.2479 29.1011 23.7007 28.7393 23.7007 29.3741C23.7007 30.0088 23.7906 30.7326 24.0628 31.0029C24.3341 31.2758 23.3386 33.5368 23.7897 33.9004C24.2442 34.2631 24.8776 35.0758 24.7877 35.5301C24.697 35.9826 24.4239 37.0691 24.7877 37.1598C25.1507 37.2513 25.2405 36.6166 25.8739 36.6166C26.509 36.6166 27.0517 36.7064 27.6851 36.4343C27.8945 36.3462 28.0785 36.3794 28.2382 36.4561C28.5636 36.6148 28.773 36.9775 28.773 36.9775C28.773 36.9775 28.9536 37.6123 29.3165 37.4318C29.6777 37.2513 30.6749 36.9775 30.5842 37.3403C30.4934 37.7039 30.8564 38.5183 31.2184 38.3361C31.5805 38.1556 32.4861 38.8793 32.9397 38.8793C33.3934 38.8793 33.8453 38.8793 33.8453 38.6072C33.8453 38.3352 34.388 37.8835 34.572 38.2445C34.7518 38.6072 35.2054 39.4225 35.6565 39.4225C36.1101 39.4225 37.1963 39.4225 37.1963 39.7853C37.1963 40.148 37.5592 41.1446 38.012 41.5056C38.4648 41.8675 39.462 41.5056 39.462 41.5056C39.462 41.5056 39.8232 41.2327 39.8232 40.6005C39.8232 39.9666 39.8232 39.1513 39.551 39.1513C39.2797 39.1513 38.8278 39.7861 38.1935 39.6048C37.5584 39.4234 37.1065 38.1564 36.8343 37.9742C36.5612 37.7937 37.2879 36.6174 37.2879 36.0742C37.2879 35.531 37.7416 33.9928 37.3778 33.8088C37.0157 33.6292 37.1963 33.086 37.65 32.725C38.1045 32.3623 37.4694 31.3674 38.1944 31.3674C38.874 31.3674 40.2585 31.4406 40.652 31.0011C40.6791 30.9724 40.7113 30.9471 40.7297 30.9122C40.7803 30.8128 40.823 30.7055 40.8605 30.5983C40.3929 29.8345 39.9296 28.8186 39.3687 28.5117Z" stroke="#868686" stroke-width="0.25"/>
</g>
<defs>
<filter id="filter0_d_877_3520" x="0.939453" y="0.910156" width="45.7246" height="46.8809" filterUnits="userSpaceOnUse" color-interpolation-filters="sRGB">
<feFlood flood-opacity="0" result="BackgroundImageFix"/>
<feColorMatrix in="SourceAlpha" type="matrix" values="0 0 0 0 0 0 0 0 0 0 0 0 0 0 0 0 0 0 127 0" result="hardAlpha"/>
<feOffset dy="2"/>
<feGaussianBlur stdDeviation="2"/>
<feColorMatrix type="matrix" values="0 0 0 0 0 0 0 0 0 0 0 0 0 0 0 0 0 0 0.01 0"/>
<feBlend mode="normal" in2="BackgroundImageFix" result="effect1_dropShadow_877_3520"/>
<feBlend mode="normal" in="SourceGraphic" in2="effect1_dropShadow_877_3520" result="shape"/>
</filter>
</defs>
</svg>
