<svg width="24" height="22" viewBox="0 0 24 22" fill="none" xmlns="http://www.w3.org/2000/svg">
<g filter="url(#filter0_d_877_3268)">
<path fill-rule="evenodd" clip-rule="evenodd" d="M18.3707 2.80774C17.5812 3.07195 17.3177 2.14941 16.659 2.14941C16.0012 2.14941 16.1321 3.73028 15.4769 3.73028C14.8182 3.73028 14.949 4.64845 14.0286 4.77924C13.1082 4.91091 12.8439 4.91091 13.2391 5.56924C13.6343 6.2267 12.7139 5.96424 11.9243 5.96424C11.1339 5.96424 11.1339 5.43757 10.6078 5.43757C10.0818 5.43757 9.68742 6.35836 9.29308 6.88241C8.89787 7.40994 6.26749 8.59232 5.47794 8.98645C5.25285 9.0998 5.06179 9.44684 4.90039 9.88456C5.84349 9.96217 6.81537 10.501 7.23763 11.0338C7.81169 11.7593 6.57197 12.5737 6.03019 13.2364C5.48579 13.9008 6.36171 13.9313 6.39137 14.4746C6.42278 15.016 7.14864 15.4695 7.42084 14.9881C7.69042 14.5059 8.14321 14.6847 8.99034 14.6847C9.23637 14.6847 9.37509 14.8024 9.4728 14.9611C9.94216 14.5818 10.4901 14.2409 10.675 14.0578C10.9978 13.7343 11.8031 13.654 12.5289 13.654C12.9773 13.654 13.2766 13.5128 13.6072 13.2468C12.8386 12.4098 12.0866 11.7244 11.7978 11.5474C11.1034 11.1254 11.5256 9.94647 12.3701 9.7372C13.2181 9.52532 15.2989 7.92527 15.934 7.56428C16.5683 7.20155 16.1451 6.02527 16.659 5.08966C16.9251 4.60049 17.9284 3.66837 18.9308 2.88884C18.7171 2.79815 18.5199 2.7563 18.3707 2.80774Z" fill="white"/>
<path fill-rule="evenodd" clip-rule="evenodd" d="M18.3707 2.80774C17.5812 3.07195 17.3177 2.14941 16.659 2.14941C16.0012 2.14941 16.1321 3.73028 15.4769 3.73028C14.8182 3.73028 14.949 4.64845 14.0286 4.77924C13.1082 4.91091 12.8439 4.91091 13.2391 5.56924C13.6343 6.2267 12.7139 5.96424 11.9243 5.96424C11.1339 5.96424 11.1339 5.43757 10.6078 5.43757C10.0818 5.43757 9.68742 6.35836 9.29308 6.88241C8.89787 7.40994 6.26749 8.59232 5.47794 8.98645C5.25285 9.0998 5.06179 9.44684 4.90039 9.88456C5.84349 9.96217 6.81537 10.501 7.23763 11.0338C7.81169 11.7593 6.57197 12.5737 6.03019 13.2364C5.48579 13.9008 6.36171 13.9313 6.39137 14.4746C6.42278 15.016 7.14864 15.4695 7.42084 14.9881C7.69042 14.5059 8.14321 14.6847 8.99034 14.6847C9.23637 14.6847 9.37509 14.8024 9.4728 14.9611C9.94216 14.5818 10.4901 14.2409 10.675 14.0578C10.9978 13.7343 11.8031 13.654 12.5289 13.654C12.9773 13.654 13.2766 13.5128 13.6072 13.2468C12.8386 12.4098 12.0866 11.7244 11.7978 11.5474C11.1034 11.1254 11.5256 9.94647 12.3701 9.7372C13.2181 9.52532 15.2989 7.92527 15.934 7.56428C16.5683 7.20155 16.1451 6.02527 16.659 5.08966C16.9251 4.60049 17.9284 3.66837 18.9308 2.88884C18.7171 2.79815 18.5199 2.7563 18.3707 2.80774Z" stroke="#868686" stroke-width="0.25"/>
</g>
<defs>
<filter id="filter0_d_877_3268" x="0.726562" y="0.0244141" width="22.4492" height="21.292" filterUnits="userSpaceOnUse" color-interpolation-filters="sRGB">
<feFlood flood-opacity="0" result="BackgroundImageFix"/>
<feColorMatrix in="SourceAlpha" type="matrix" values="0 0 0 0 0 0 0 0 0 0 0 0 0 0 0 0 0 0 127 0" result="hardAlpha"/>
<feOffset dy="2"/>
<feGaussianBlur stdDeviation="2"/>
<feColorMatrix type="matrix" values="0 0 0 0 0 0 0 0 0 0 0 0 0 0 0 0 0 0 0.01 0"/>
<feBlend mode="normal" in2="BackgroundImageFix" result="effect1_dropShadow_877_3268"/>
<feBlend mode="normal" in="SourceGraphic" in2="effect1_dropShadow_877_3268" result="shape"/>
</filter>
</defs>
</svg>
