<svg width="28" height="25" viewBox="0 0 28 25" fill="none" xmlns="http://www.w3.org/2000/svg">
<g filter="url(#filter0_d_877_3276)">
<path fill-rule="evenodd" clip-rule="evenodd" d="M4.56804 6.17828C4.70414 6.53927 4.84111 7.80622 4.52355 8.30498C4.20773 8.80287 4.34295 8.9389 4.65877 9.11852C4.97634 9.30163 5.11244 9.75331 5.11244 10.116C5.11244 10.4779 5.33927 10.4334 5.38551 11.2034C5.43 11.9716 5.61147 12.5148 5.88367 12.8313C6.09479 13.079 6.05641 13.4609 5.94474 13.746C6.32512 14.0268 6.75173 14.2971 7.12513 14.4305C8.06998 14.7688 8.40848 15.0383 8.47391 15.3757C8.54283 15.7123 9.35245 16.3209 9.55485 15.8474C9.75638 15.3774 10.2964 15.646 10.7012 15.646C11.106 15.646 11.1741 16.1177 11.2386 16.3872C11.3076 16.6575 12.2515 16.5232 12.59 16.7246C12.9268 16.9269 13.0611 17.669 13.534 17.9393C14.0069 18.2078 14.4099 17.6018 14.7493 17.8041C15.0852 18.0064 15.9637 18.2078 16.5029 18.0064C17.0412 17.8041 17.3797 18.207 18.0532 18.1416C18.7258 18.0735 19.6044 18.3412 19.8068 18.5453C19.9141 18.6508 20.4838 18.7563 21.0029 18.8348C21.1381 18.5584 20.8764 17.7047 20.9174 17.4946C20.9627 17.2696 22.548 15.8657 22.8202 15.5492C23.0915 15.2327 23.4989 15.2327 23.7249 14.8255C23.9526 14.4174 23.0906 13.1042 22.91 12.8331C22.7294 12.5628 22.6387 11.4763 22.7748 11.0229C22.91 10.5703 22.096 10.2983 22.096 9.98263C22.096 9.66524 22.8655 9.12114 23.2738 8.94151C23.6821 8.76015 23.546 7.49232 23.1831 7.1758C22.821 6.85928 22.6404 6.27245 22.8664 5.63679C23.0924 5.00462 21.508 4.50673 21.2821 4.50673C21.2445 4.50673 21.2219 4.46575 21.207 4.41169C19.7919 4.67502 16.1714 4.29746 15.8965 4.18846C15.7177 4.11696 15.2597 3.95216 14.8645 3.81091C14.6847 4.11086 14.3096 4.38465 13.7478 4.38465C12.8727 4.38465 12.8125 3.50921 12.7828 3.1177C12.7549 2.72532 9.25037 3.44991 8.31338 4.38465C7.37814 5.32027 5.20404 4.95753 5.14559 5.47024C5.09935 5.84257 4.77306 6.03615 4.56106 5.93238C4.54449 6.02045 4.54187 6.1059 4.56804 6.17828Z" fill="white"/>
<path fill-rule="evenodd" clip-rule="evenodd" d="M4.56804 6.17828C4.70414 6.53927 4.84111 7.80622 4.52355 8.30498C4.20773 8.80287 4.34295 8.9389 4.65877 9.11852C4.97634 9.30163 5.11244 9.75331 5.11244 10.116C5.11244 10.4779 5.33927 10.4334 5.38551 11.2034C5.43 11.9716 5.61147 12.5148 5.88367 12.8313C6.09479 13.079 6.05641 13.4609 5.94474 13.746C6.32512 14.0268 6.75173 14.2971 7.12513 14.4305C8.06998 14.7688 8.40848 15.0383 8.47391 15.3757C8.54283 15.7123 9.35245 16.3209 9.55485 15.8474C9.75638 15.3774 10.2964 15.646 10.7012 15.646C11.106 15.646 11.1741 16.1177 11.2386 16.3872C11.3076 16.6575 12.2515 16.5232 12.59 16.7246C12.9268 16.9269 13.0611 17.669 13.534 17.9393C14.0069 18.2078 14.4099 17.6018 14.7493 17.8041C15.0852 18.0064 15.9637 18.2078 16.5029 18.0064C17.0412 17.8041 17.3797 18.207 18.0532 18.1416C18.7258 18.0735 19.6044 18.3412 19.8068 18.5453C19.9141 18.6508 20.4838 18.7563 21.0029 18.8348C21.1381 18.5584 20.8764 17.7047 20.9174 17.4946C20.9627 17.2696 22.548 15.8657 22.8202 15.5492C23.0915 15.2327 23.4989 15.2327 23.7249 14.8255C23.9526 14.4174 23.0906 13.1042 22.91 12.8331C22.7294 12.5628 22.6387 11.4763 22.7748 11.0229C22.91 10.5703 22.096 10.2983 22.096 9.98263C22.096 9.66524 22.8655 9.12114 23.2738 8.94151C23.6821 8.76015 23.546 7.49232 23.1831 7.1758C22.821 6.85928 22.6404 6.27245 22.8664 5.63679C23.0924 5.00462 21.508 4.50673 21.2821 4.50673C21.2445 4.50673 21.2219 4.46575 21.207 4.41169C19.7919 4.67502 16.1714 4.29746 15.8965 4.18846C15.7177 4.11696 15.2597 3.95216 14.8645 3.81091C14.6847 4.11086 14.3096 4.38465 13.7478 4.38465C12.8727 4.38465 12.8125 3.50921 12.7828 3.1177C12.7549 2.72532 9.25037 3.44991 8.31338 4.38465C7.37814 5.32027 5.20404 4.95753 5.14559 5.47024C5.09935 5.84257 4.77306 6.03615 4.56106 5.93238C4.54449 6.02045 4.54187 6.1059 4.56804 6.17828Z" stroke="#868686" stroke-width="0.25"/>
</g>
<defs>
<filter id="filter0_d_877_3276" x="0.21875" y="0.883789" width="27.6699" height="24.0879" filterUnits="userSpaceOnUse" color-interpolation-filters="sRGB">
<feFlood flood-opacity="0" result="BackgroundImageFix"/>
<feColorMatrix in="SourceAlpha" type="matrix" values="0 0 0 0 0 0 0 0 0 0 0 0 0 0 0 0 0 0 127 0" result="hardAlpha"/>
<feOffset dy="2"/>
<feGaussianBlur stdDeviation="2"/>
<feColorMatrix type="matrix" values="0 0 0 0 0 0 0 0 0 0 0 0 0 0 0 0 0 0 0.01 0"/>
<feBlend mode="normal" in2="BackgroundImageFix" result="effect1_dropShadow_877_3276"/>
<feBlend mode="normal" in="SourceGraphic" in2="effect1_dropShadow_877_3276" result="shape"/>
</filter>
</defs>
</svg>
