<svg width="16" height="15" viewBox="0 0 16 15" fill="none" xmlns="http://www.w3.org/2000/svg">
<g filter="url(#filter0_d_877_3327)">
<path fill-rule="evenodd" clip-rule="evenodd" d="M10.6571 6.78569C10.5899 6.54939 10.6292 5.94774 10.9685 5.48821C10.227 4.6895 9.39379 3.6135 8.94885 2.97C8.52485 3.0258 8.15582 3.02319 7.93771 2.85751C7.48841 2.52181 6.36559 2.7459 5.91629 2.52181C5.68422 2.40409 5.23405 2.42066 4.78998 2.45467C4.89642 2.79037 4.84582 3.11474 4.63469 3.25861C4.22726 3.52979 4.18277 4.61626 5.17908 5.02172C6.17453 5.42892 5.85783 4.79588 6.35512 4.79588C6.85415 4.79588 6.80878 5.56582 7.26157 5.56582C7.71524 5.56582 8.75605 6.10818 8.71068 6.8319C8.66619 7.55563 9.07274 7.87215 9.88933 7.87215C10.0376 7.87215 10.2069 7.88697 10.3831 7.91052C10.5227 7.42745 10.7286 7.03507 10.6571 6.78569Z" fill="white"/>
<path fill-rule="evenodd" clip-rule="evenodd" d="M10.6571 6.78569C10.5899 6.54939 10.6292 5.94774 10.9685 5.48821C10.227 4.6895 9.39379 3.6135 8.94885 2.97C8.52485 3.0258 8.15582 3.02319 7.93771 2.85751C7.48841 2.52181 6.36559 2.7459 5.91629 2.52181C5.68422 2.40409 5.23405 2.42066 4.78998 2.45467C4.89642 2.79037 4.84582 3.11474 4.63469 3.25861C4.22726 3.52979 4.18277 4.61626 5.17908 5.02172C6.17453 5.42892 5.85783 4.79588 6.35512 4.79588C6.85415 4.79588 6.80878 5.56582 7.26157 5.56582C7.71524 5.56582 8.75605 6.10818 8.71068 6.8319C8.66619 7.55563 9.07274 7.87215 9.88933 7.87215C10.0376 7.87215 10.2069 7.88697 10.3831 7.91052C10.5227 7.42745 10.7286 7.03507 10.6571 6.78569Z" stroke="#868686" stroke-width="0.25"/>
</g>
<defs>
<filter id="filter0_d_877_3327" x="0.238281" y="0.304688" width="14.8926" height="13.7441" filterUnits="userSpaceOnUse" color-interpolation-filters="sRGB">
<feFlood flood-opacity="0" result="BackgroundImageFix"/>
<feColorMatrix in="SourceAlpha" type="matrix" values="0 0 0 0 0 0 0 0 0 0 0 0 0 0 0 0 0 0 127 0" result="hardAlpha"/>
<feOffset dy="2"/>
<feGaussianBlur stdDeviation="2"/>
<feColorMatrix type="matrix" values="0 0 0 0 0 0 0 0 0 0 0 0 0 0 0 0 0 0 0.01 0"/>
<feBlend mode="normal" in2="BackgroundImageFix" result="effect1_dropShadow_877_3327"/>
<feBlend mode="normal" in="SourceGraphic" in2="effect1_dropShadow_877_3327" result="shape"/>
</filter>
</defs>
</svg>
