<svg width="50" height="90" viewBox="0 0 50 90" fill="none" xmlns="http://www.w3.org/2000/svg">
<g filter="url(#filter0_d_877_3322)">
<path fill-rule="evenodd" clip-rule="evenodd" d="M20.0784 81.5952C18.9468 81.5499 16.7273 79.4694 16.0477 78.9253C15.369 78.3812 15.8671 77.8371 15.0523 77.9749C14.2366 78.1091 14.7801 77.3401 15.2329 77.1142C15.649 76.905 15.0706 76.1333 14.5166 76.0077C14.4564 77.2232 14.2034 82.6782 14.5306 82.7305C14.8612 82.7863 17.2648 82.4506 17.9723 82.9119C18.2454 83 18.6179 83.2197 18.9014 82.9084C19.3551 82.4105 20.7126 82.6817 21.4385 82.2291C22.1626 81.7766 21.2116 81.6423 20.0784 81.5952ZM45.1712 10.1216C44.9653 10.0187 44.3389 10.017 43.8276 10.0344C43.8259 10.1111 43.8276 10.1809 43.8355 10.2428C43.9594 11.1008 43.4071 13.306 42.7938 13.245C42.1805 13.1848 41.6911 14.164 41.1999 14.0419C40.7096 13.9181 40.0343 14.777 39.421 14.4082C38.8086 14.0419 37.951 14.532 37.4607 14.2233C36.9695 13.9181 35.5588 14.164 35.5588 13.7969C35.5588 13.4289 36.234 13.551 36.234 12.4471C36.234 11.345 38.0714 10.119 37.8279 9.69172C37.5837 9.26097 34.456 8.3428 34.0276 7.79172C33.5975 7.23977 32.9851 6.74799 31.7584 6.62766C30.5318 6.50384 30.5946 5.89172 29.4893 5.2177C28.5688 4.65441 27.1381 3.15552 26.6539 2.31669C25.9062 2.23996 24.8479 2.08213 24.6368 2.335C24.3349 2.69687 23.8525 4.38759 23.4294 3.54267C23.0071 2.69687 21.9794 2.69687 21.0747 2.57566C20.1691 2.4562 20.2302 1.61215 19.2626 2.63757C18.8325 3.09361 18.2733 3.54528 17.7673 3.87227C17.7071 4.84712 17.5291 5.94579 17.3494 6.25882C17.1042 6.68869 15.0811 7.60774 15.02 8.09691C14.9581 8.58695 15.2652 9.26097 14.897 9.56878C14.5288 9.87396 15.7546 11.4043 15.0811 11.7731C14.4058 12.1428 15.5714 12.7549 15.1421 13.122C14.7129 13.4882 13.9164 13.6731 13.9164 14.1003C13.9164 14.532 13.8553 15.5722 13.3031 15.819C12.7508 16.064 12.3826 16.9822 12.3826 17.6571C12.3826 18.3302 11.5242 17.8995 11.8321 18.7592C12.1375 19.6172 12.5057 20.6618 11.8321 20.8441C11.1569 21.0272 11.341 22.438 10.9728 22.438C10.6046 22.438 10.4206 23.9073 10.9728 24.6415C11.525 25.3783 11.6481 25.9904 11.6481 26.6644C11.6481 27.3367 12.3826 27.7055 12.1375 28.4406C11.8923 29.1765 12.0154 29.8505 11.5861 30.1575C11.1569 30.4635 11.5242 31.3817 10.9719 31.6276C10.4206 31.8744 11.4012 33.8337 10.9719 34.2016C10.5427 34.5713 9.43994 34.8756 9.43994 36.2246C9.43994 37.5735 9.64758 38.3338 9.50101 38.9207C9.37887 39.4116 10.1143 39.286 9.99219 40.0856C9.86917 40.88 8.88769 40.3908 8.82837 40.88C8.7673 41.37 9.07352 42.351 8.70535 42.4129C8.33719 42.4739 8.1531 42.841 8.1531 43.6999C8.1531 44.5561 7.66193 44.68 7.6026 45.1098C7.54066 45.538 8.03096 46.0298 8.03096 46.5172C8.03096 47.009 8.33632 48.6622 7.90795 48.7241C7.47872 48.7851 7.23444 50.6241 7.6026 50.8691C7.96902 51.1133 7.96902 51.6051 7.78494 51.973C7.6026 52.3393 8.64254 52.7055 8.09116 53.26C7.53979 53.8111 7.97775 54.5183 8.70535 54.3003C9.31867 54.118 9.68596 55.2185 9.01158 55.2185C8.33719 55.2185 7.66193 55.2185 8.21417 55.6492C8.76642 56.0765 9.3178 56.6895 8.52127 56.9973C7.72387 57.3033 8.39826 57.8535 8.21417 58.5895C8.03009 59.3254 8.76642 59.9994 8.1531 60.1834C7.53979 60.3656 8.39826 61.4704 7.53979 61.5934C6.68219 61.7146 7.23356 62.5115 6.68219 62.9423C6.12907 63.3695 7.41765 64.1055 6.74238 64.5327C6.06887 64.96 6.55917 65.9409 5.88479 65.9409C5.20953 65.9409 4.84223 66.8626 4.78116 67.2899C4.72009 67.7171 4.29086 68.5786 4.84223 69.1899C5.39361 69.802 4.71922 70.2946 5.20865 70.5388C5.7007 70.7838 7.3557 70.415 7.10968 71.1509C6.86453 71.8877 6.92647 73.4808 7.23356 73.4808C7.53979 73.4808 7.72387 74.3981 8.21417 74.337C8.70535 74.276 10.9117 74.0319 11.8321 74.276C12.2867 74.3963 12.6653 74.6675 12.9331 74.9099C13.4584 74.6788 14.6082 75.4279 14.8691 75.1689C15.1866 74.8515 13.7375 73.6752 13.7829 73.2689C13.8283 72.8599 13.5561 72.1798 13.5561 71.7281C13.5561 71.2756 13.3292 70.2807 13.9644 69.8255C14.5986 69.373 14.6431 68.9213 15.0514 69.0129C15.4588 69.1027 16.2737 68.6493 16.3191 67.5628C16.3635 66.4763 16.8626 66.07 17.769 65.2983C18.7549 64.4621 20.3942 63.6712 20.1682 63.3068C19.9414 62.9466 20.5303 61.7686 20.5303 61.3169C20.5303 60.8627 18.9904 60.9542 18.4923 60.7728C17.9941 60.5915 16.183 59.3245 17.0885 57.6512C17.9941 55.9744 19.896 55.7931 20.4404 55.7477C20.9839 55.7033 20.4849 54.9333 20.9377 54.6622C21.3905 54.391 21.4812 53.9393 21.4812 53.2592C21.4812 52.4901 21.4812 51.2676 22.2961 51.1761C23.1118 51.0854 23.3378 50.6328 22.8405 50.4994C22.3423 50.3616 22.1146 49.7748 22.9312 49.6833C23.746 49.5926 23.4747 50.3608 24.0627 50.3608C24.6516 50.3608 25.6479 49.365 24.8785 48.7764C24.1081 48.1879 23.8813 49.0485 23.4747 49.14C23.0664 49.2298 22.7489 48.5977 22.3423 48.5977C21.934 48.5977 22.2071 47.4641 22.0256 47.0578C21.8442 46.6488 21.5728 45.6548 21.9349 45.1561C22.2978 44.6582 23.8377 45.9251 25.1969 46.0158C26.5553 46.1074 27.5516 45.3392 27.5516 44.8387C27.5516 44.3399 26.9165 43.4339 27.7322 42.8933C28.5479 42.3492 27.8692 42.167 27.6423 41.4441C27.4155 40.7204 28.0044 40.2652 28.3673 40.6288C28.7294 40.9916 31.4008 40.7657 33.6202 40.3141C35.8388 39.8598 37.3804 39.0454 37.5147 38.4123C37.6508 37.7767 39.0555 36.2839 39.3721 35.7415C39.6897 35.1974 39.4175 34.5173 38.5119 34.383C37.6055 34.2478 37.6517 33.205 38.1499 32.6173C38.648 32.0296 37.8777 31.4855 37.0175 31.3948C36.1572 31.3041 34.798 30.7173 35.5675 29.9944C35.9391 29.6422 36.1206 29.7145 36.3012 29.8723C36.4303 29.5262 36.5551 29.1172 36.4521 29.0161C36.2698 28.8321 35.8109 29.0623 35.8571 27.777C35.9025 26.4935 36.3605 26.769 36.4085 25.1167C36.4521 23.4661 37.0951 22.5043 37.0951 21.6315C37.0951 20.7612 38.6568 19.7541 39.5274 18.3302C40.3999 16.9081 42.2808 15.1197 43.0608 14.6148C43.8407 14.1099 45.3553 13.6975 45.5394 13.2406C45.7217 12.7811 45.5385 10.3073 45.1712 10.1216Z" fill="white"/>
<path d="M20.0784 81.5952L20.0835 81.4703L20.0834 81.4703L20.0784 81.5952ZM16.0477 78.9253L15.9695 79.0228L15.9696 79.0229L16.0477 78.9253ZM15.0523 77.9749L15.0726 78.0982L15.0731 78.0981L15.0523 77.9749ZM15.2329 77.1142L15.2887 77.2261L15.289 77.2259L15.2329 77.1142ZM14.5166 76.0077L14.5442 75.8858L14.3991 75.8529L14.3918 76.0015L14.5166 76.0077ZM14.5306 82.7305L14.5514 82.6073L14.5503 82.6071L14.5306 82.7305ZM17.9723 82.9119L17.904 83.0166L17.918 83.0257L17.9339 83.0309L17.9723 82.9119ZM18.9014 82.9084L18.809 82.8242L18.809 82.8242L18.9014 82.9084ZM21.4385 82.2291L21.5046 82.3352L21.5047 82.3351L21.4385 82.2291ZM45.1712 10.1216L45.2276 10.01L45.2271 10.0098L45.1712 10.1216ZM43.8276 10.0344L43.8234 9.90947L43.7054 9.9135L43.7027 10.0316L43.8276 10.0344ZM43.8355 10.2428L43.7115 10.2585L43.7118 10.2607L43.8355 10.2428ZM42.7938 13.245L42.8062 13.1206L42.806 13.1206L42.7938 13.245ZM41.1999 14.0419L41.1693 14.1631L41.1697 14.1632L41.1999 14.0419ZM39.421 14.4082L39.4854 14.301L39.4852 14.3009L39.421 14.4082ZM37.4607 14.2233L37.5272 14.1175L37.5266 14.1171L37.4607 14.2233ZM37.8279 9.69172L37.7192 9.75339L37.7193 9.7536L37.8279 9.69172ZM34.0276 7.79172L34.1263 7.71501L34.1262 7.71489L34.0276 7.79172ZM31.7584 6.62766L31.7459 6.75203L31.7462 6.75206L31.7584 6.62766ZM29.4893 5.2177L29.424 5.32432L29.4242 5.32442L29.4893 5.2177ZM26.6539 2.31669L26.7621 2.2542L26.7302 2.19887L26.6666 2.19234L26.6539 2.31669ZM24.6368 2.335L24.5408 2.25489L24.5408 2.25493L24.6368 2.335ZM23.4294 3.54267L23.3175 3.5985L23.3176 3.59864L23.4294 3.54267ZM21.0747 2.57566L21.0913 2.45177L21.091 2.45174L21.0747 2.57566ZM19.2626 2.63757L19.1717 2.55179L19.1717 2.55181L19.2626 2.63757ZM17.7673 3.87227L17.6994 3.76728L17.6464 3.80155L17.6425 3.86456L17.7673 3.87227ZM17.3494 6.25882L17.241 6.19658L17.2408 6.19689L17.3494 6.25882ZM15.02 8.09691L15.144 8.11258L15.144 8.11239L15.02 8.09691ZM14.897 9.56878L14.9768 9.66501L14.9772 9.66468L14.897 9.56878ZM15.0811 11.7731L15.1411 11.8827L15.1411 11.8827L15.0811 11.7731ZM15.1421 13.122L15.2233 13.2171L15.2234 13.217L15.1421 13.122ZM13.3031 15.819L13.3538 15.9332L13.3541 15.9331L13.3031 15.819ZM11.8321 18.7592L11.9499 18.7173L11.9498 18.7171L11.8321 18.7592ZM11.8321 20.8441L11.7995 20.7234L11.7994 20.7234L11.8321 20.8441ZM10.9728 24.6415L11.0728 24.5665L11.0727 24.5663L10.9728 24.6415ZM12.1375 28.4406L12.0189 28.401L12.0189 28.4011L12.1375 28.4406ZM11.5861 30.1575L11.6587 30.2593L11.6588 30.2592L11.5861 30.1575ZM10.9719 31.6276L10.9211 31.5134L10.9209 31.5135L10.9719 31.6276ZM10.9719 34.2016L10.8906 34.1067L10.8903 34.1069L10.9719 34.2016ZM9.50101 38.9207L9.37973 38.8904L9.37971 38.8905L9.50101 38.9207ZM9.99219 40.0856L10.1157 40.1047L10.1158 40.1045L9.99219 40.0856ZM8.82837 40.88L8.95241 40.8954L8.95246 40.895L8.82837 40.88ZM8.70535 42.4129L8.7258 42.5362L8.72608 42.5361L8.70535 42.4129ZM7.6026 45.1098L7.72632 45.1277L7.72643 45.1269L7.6026 45.1098ZM7.90795 48.7241L7.92555 48.8479L7.92583 48.8478L7.90795 48.7241ZM7.6026 50.8691L7.67191 50.7651L7.67186 50.7651L7.6026 50.8691ZM7.78494 51.973L7.67315 51.9171L7.67304 51.9173L7.78494 51.973ZM8.09116 53.26L8.17953 53.3485L8.17981 53.3482L8.09116 53.26ZM8.70535 54.3003L8.66975 54.1805L8.66948 54.1805L8.70535 54.3003ZM8.21417 55.6492L8.1373 55.7478L8.13769 55.7481L8.21417 55.6492ZM8.52127 56.9973L8.56606 57.114L8.56633 57.1139L8.52127 56.9973ZM8.1531 60.1834L8.18871 60.3032L8.18902 60.3031L8.1531 60.1834ZM7.53979 61.5934L7.55728 61.7171L7.55751 61.7171L7.53979 61.5934ZM6.68219 62.9423L6.7586 63.0412L6.75914 63.0408L6.68219 62.9423ZM6.74238 64.5327L6.67555 64.4271L6.67543 64.4272L6.74238 64.5327ZM4.84223 69.1899L4.93511 69.1062L4.93505 69.1061L4.84223 69.1899ZM5.20865 70.5388L5.15285 70.6506L5.15293 70.6507L5.20865 70.5388ZM7.10968 71.1509L6.99113 71.1113L6.99107 71.1114L7.10968 71.1509ZM8.21417 74.337L8.19876 74.213H8.19873L8.21417 74.337ZM11.8321 74.276L11.8001 74.3968L11.8002 74.3968L11.8321 74.276ZM12.9331 74.9099L12.8493 75.0026L12.9093 75.057L12.9835 75.0243L12.9331 74.9099ZM14.8691 75.1689L14.9571 75.2576L14.9574 75.2573L14.8691 75.1689ZM13.7829 73.2689L13.9071 73.2828L13.9071 73.2827L13.7829 73.2689ZM13.9644 69.8255L13.8918 69.7238L13.8915 69.7239L13.9644 69.8255ZM15.0514 69.0129L15.0241 69.1348L15.0245 69.1349L15.0514 69.0129ZM16.3191 67.5628L16.4439 67.568L16.4439 67.5679L16.3191 67.5628ZM17.769 65.2983L17.6882 65.203L17.688 65.2031L17.769 65.2983ZM20.1682 63.3068L20.2745 63.2409L20.274 63.2401L20.1682 63.3068ZM17.0885 57.6512L17.1985 57.7107L17.1985 57.7106L17.0885 57.6512ZM20.4404 55.7477L20.4302 55.6232L20.43 55.6232L20.4404 55.7477ZM22.2961 51.1761L22.2823 51.0518L22.2821 51.0518L22.2961 51.1761ZM22.8405 50.4994L22.8071 50.6199L22.8081 50.6201L22.8405 50.4994ZM22.9312 49.6833L22.9174 49.559L22.9173 49.559L22.9312 49.6833ZM24.8785 48.7764L24.9544 48.6771L24.9544 48.6771L24.8785 48.7764ZM23.4747 49.14L23.5016 49.2621L23.5022 49.262L23.4747 49.14ZM22.0256 47.0578L21.9114 47.1085L21.9115 47.1088L22.0256 47.0578ZM21.9349 45.1561L21.8339 45.0824L21.8337 45.0826L21.9349 45.1561ZM25.1969 46.0158L25.2053 45.8911L25.2052 45.8911L25.1969 46.0158ZM27.7322 42.8933L27.8012 42.9975L27.8015 42.9973L27.7322 42.8933ZM27.6423 41.4441L27.523 41.4815L27.5231 41.4815L27.6423 41.4441ZM28.3673 40.6288L28.4558 40.5405L28.3673 40.6288ZM33.6202 40.3141L33.6451 40.4366L33.6453 40.4365L33.6202 40.3141ZM37.5147 38.4123L37.3925 38.3862L37.3925 38.3864L37.5147 38.4123ZM39.3721 35.7415L39.4801 35.8045L39.4801 35.8045L39.3721 35.7415ZM38.5119 34.383L38.4935 34.5066L38.4936 34.5066L38.5119 34.383ZM35.5675 29.9944L35.6531 30.0855L35.6535 30.0851L35.5675 29.9944ZM36.3012 29.8723L36.2189 29.9665L36.3551 30.0855L36.4183 29.916L36.3012 29.8723ZM36.4521 29.0161L36.3633 29.1041L36.3645 29.1052L36.4521 29.0161ZM35.8571 27.777L35.982 27.7815L35.982 27.7814L35.8571 27.777ZM36.4085 25.1167L36.5335 25.1203L36.5335 25.12L36.4085 25.1167ZM39.5274 18.3302L39.4209 18.2649L39.4208 18.265L39.5274 18.3302ZM45.5394 13.2406L45.6553 13.2873L45.6555 13.2867L45.5394 13.2406ZM20.0834 81.4703C19.831 81.4602 19.5016 81.334 19.1275 81.1262C18.7571 80.9204 18.3576 80.643 17.9692 80.3478C17.1855 79.7521 16.4785 79.1101 16.1258 78.8277L15.9696 79.0229C16.2965 79.2846 17.0391 79.9548 17.8179 80.5468C18.2108 80.8454 18.6208 81.1307 19.0061 81.3447C19.3876 81.5567 19.7599 81.7076 20.0733 81.7201L20.0834 81.4703ZM16.1259 78.8278C15.8206 78.583 15.7847 78.3503 15.7196 78.1549C15.6871 78.057 15.6386 77.9417 15.513 77.8774C15.3962 77.8177 15.2394 77.8165 15.0314 77.8516L15.0731 78.0981C15.2726 78.0644 15.3591 78.0795 15.3992 78.1C15.4306 78.1161 15.4529 78.145 15.4824 78.2338C15.5417 78.412 15.5961 78.7235 15.9695 79.0228L16.1259 78.8278ZM15.032 77.8515C14.9372 77.8671 14.87 77.8682 14.8244 77.8619C14.7787 77.8555 14.7639 77.8432 14.7611 77.8405C14.7605 77.8399 14.7566 77.8371 14.7566 77.821C14.7566 77.8021 14.7626 77.772 14.7811 77.7303C14.818 77.6472 14.8919 77.5465 14.9873 77.4513C15.082 77.3567 15.1902 77.2752 15.2887 77.2261L15.1771 77.0024C15.0492 77.0662 14.9196 77.1656 14.8106 77.2744C14.7022 77.3827 14.6062 77.5082 14.5527 77.6288C14.5033 77.7399 14.4685 77.9013 14.5843 78.0171C14.6382 78.0711 14.7112 78.0986 14.7901 78.1095C14.8692 78.1204 14.9634 78.1162 15.0726 78.0982L15.032 77.8515ZM15.289 77.2259C15.3608 77.1898 15.4172 77.1382 15.4536 77.0723C15.4898 77.0071 15.5023 76.9356 15.4993 76.8655C15.4936 76.7287 15.429 76.5857 15.3415 76.4586C15.1665 76.2048 14.859 75.9571 14.5442 75.8858L14.489 76.1296C14.7282 76.1838 14.9869 76.3848 15.1356 76.6005C15.2099 76.7082 15.2466 76.8053 15.2495 76.876C15.2509 76.9095 15.2447 76.9336 15.235 76.9512C15.2256 76.9681 15.2089 76.9864 15.1767 77.0026L15.289 77.2259ZM14.3918 76.0015C14.3617 76.6095 14.2833 78.2787 14.2534 79.8029C14.2384 80.5646 14.2355 81.2923 14.257 81.8339C14.2677 82.104 14.2846 82.3319 14.31 82.4956C14.3226 82.5766 14.3382 82.6484 14.3587 82.7035C14.3689 82.7307 14.3827 82.7604 14.4024 82.7861C14.4216 82.8112 14.4566 82.8453 14.5108 82.854L14.5503 82.6071C14.5841 82.6125 14.5998 82.6327 14.6008 82.634C14.6023 82.636 14.5989 82.6319 14.5929 82.616C14.5813 82.5849 14.5688 82.5329 14.5571 82.4573C14.5339 82.308 14.5174 82.0916 14.5068 81.824C14.4856 81.2901 14.4884 80.5683 14.5033 79.8078C14.5331 78.2875 14.6114 76.6214 14.6415 76.0139L14.3918 76.0015ZM14.5098 82.8538C14.5653 82.8631 14.6513 82.8632 14.7481 82.8604C14.8488 82.8574 14.9743 82.8505 15.1156 82.8423C15.3993 82.8259 15.7505 82.8037 16.1134 82.7941C16.4766 82.7845 16.8475 82.7877 17.1696 82.8211C17.4968 82.8551 17.7538 82.9187 17.904 83.0166L18.0406 82.8072C17.837 82.6745 17.5282 82.607 17.1954 82.5725C16.8576 82.5374 16.4743 82.5345 16.1068 82.5442C15.739 82.5539 15.3831 82.5764 15.1011 82.5927C14.9595 82.601 14.8374 82.6076 14.7407 82.6105C14.6399 82.6135 14.5785 82.6118 14.5514 82.6073L14.5098 82.8538ZM17.9339 83.0309C18.0001 83.0522 18.0655 83.0791 18.1503 83.1098C18.2302 83.1387 18.3197 83.1678 18.4125 83.1832C18.6042 83.2151 18.8158 83.1881 18.9939 82.9926L18.809 82.8242C18.7036 82.94 18.5871 82.9588 18.4534 82.9366C18.3835 82.925 18.311 82.9021 18.2353 82.8747C18.1646 82.8492 18.0811 82.8156 18.0107 82.7929L17.9339 83.0309ZM18.9938 82.9926C19.0831 82.8947 19.2249 82.8263 19.4181 82.777C19.6103 82.7279 19.8363 82.7017 20.0809 82.6761C20.322 82.6508 20.5804 82.6262 20.8235 82.5789C21.0667 82.5316 21.3046 82.4599 21.5046 82.3352L21.3723 82.1231C21.2094 82.2246 21.0055 82.2888 20.7758 82.3335C20.546 82.3782 20.3005 82.4017 20.0549 82.4275C19.8126 82.4528 19.5688 82.4805 19.3563 82.5347C19.1446 82.5888 18.9467 82.6732 18.809 82.8242L18.9938 82.9926ZM21.5047 82.3351C21.6002 82.2755 21.676 82.2163 21.7286 82.1561C21.7804 82.0967 21.8211 82.0227 21.8155 81.9376C21.8098 81.8501 21.7577 81.7861 21.7011 81.7428C21.645 81.7 21.5725 81.6675 21.4944 81.6415C21.186 81.539 20.6469 81.4937 20.0835 81.4703L20.0732 81.7201C20.6431 81.7438 21.1461 81.7892 21.4155 81.8788C21.4818 81.9008 21.5247 81.9227 21.5492 81.9414C21.5732 81.9597 21.5668 81.9645 21.5661 81.9539C21.5655 81.9459 21.5706 81.957 21.5402 81.9917C21.5106 82.0257 21.4578 82.0697 21.3722 82.1231L21.5047 82.3351ZM45.2271 10.0098C45.1574 9.97495 45.0636 9.95332 44.9649 9.9385C44.8633 9.92326 44.745 9.91367 44.6196 9.908C44.3685 9.89667 44.0803 9.90071 43.8234 9.90947L43.8319 10.1593C44.0862 10.1507 44.3669 10.1468 44.6083 10.1577C44.7291 10.1632 44.838 10.1723 44.9277 10.1857C45.0204 10.1996 45.0821 10.2168 45.1153 10.2334L45.2271 10.0098ZM43.7027 10.0316C43.7009 10.1113 43.7025 10.1879 43.7115 10.2585L43.9595 10.2271C43.9528 10.1738 43.9509 10.111 43.9526 10.0372L43.7027 10.0316ZM43.7118 10.2607C43.7699 10.663 43.6686 11.4082 43.4716 12.0519C43.3736 12.3722 43.2549 12.6567 43.1276 12.8547C43.0639 12.9538 43.0017 13.0252 42.9439 13.0693C42.887 13.1127 42.8421 13.1241 42.8062 13.1206L42.7814 13.3693C42.8989 13.381 43.0054 13.3369 43.0956 13.268C43.1849 13.1999 43.2655 13.1024 43.3379 12.9899C43.4827 12.7647 43.6094 12.4558 43.7106 12.1251C43.9121 11.4671 44.025 10.6806 43.9592 10.2249L43.7118 10.2607ZM42.806 13.1206C42.6167 13.102 42.4443 13.1646 42.2922 13.2533C42.1411 13.3412 41.9988 13.4617 41.87 13.5715C41.7368 13.685 41.6195 13.7859 41.5063 13.8529C41.3939 13.9193 41.3066 13.9396 41.23 13.9206L41.1697 14.1632C41.3388 14.2053 41.4968 14.1489 41.6336 14.068C41.7694 13.9876 41.9049 13.8703 42.0322 13.7618C42.1637 13.6496 42.2894 13.5442 42.418 13.4693C42.5455 13.395 42.6642 13.3578 42.7816 13.3694L42.806 13.1206ZM41.2305 13.9207C41.0685 13.8798 40.9035 13.9227 40.7545 13.9829C40.6067 14.0427 40.4459 14.1326 40.3007 14.2051C39.9905 14.3599 39.7282 14.4471 39.4854 14.301L39.3566 14.5153C39.7271 14.7381 40.1091 14.5802 40.4124 14.4288C40.5741 14.3481 40.7123 14.2696 40.8482 14.2147C40.9829 14.1602 41.0861 14.1421 41.1693 14.1631L41.2305 13.9207ZM39.4852 14.3009C39.1376 14.0931 38.7274 14.1324 38.3816 14.1699C38.2018 14.1893 38.0391 14.2089 37.8902 14.2059C37.7426 14.203 37.6228 14.1777 37.5272 14.1175L37.3941 14.3291C37.5436 14.4233 37.715 14.4525 37.8852 14.4559C38.0541 14.4593 38.236 14.4371 38.4085 14.4184C38.7672 14.3796 39.0919 14.357 39.3568 14.5154L39.4852 14.3009ZM37.5266 14.1171C37.3794 14.0257 37.176 13.9815 36.972 13.9555C36.765 13.9292 36.5366 13.9196 36.3323 13.9085C36.1228 13.8971 35.9428 13.8841 35.8158 13.8539C35.7519 13.8387 35.7139 13.8217 35.6943 13.8073C35.6899 13.8041 35.6872 13.8016 35.6856 13.7998C35.684 13.7981 35.6835 13.7972 35.6835 13.7972C35.6834 13.7972 35.6835 13.7973 35.6836 13.7975C35.6837 13.7977 35.6837 13.7979 35.6838 13.7981C35.6839 13.7985 35.6838 13.7983 35.6838 13.7969H35.4338C35.4338 13.8909 35.4821 13.9617 35.5464 14.0089C35.6058 14.0525 35.6819 14.079 35.7579 14.0971C35.9108 14.1335 36.1141 14.147 36.3187 14.1581C36.5285 14.1696 36.7449 14.1787 36.9405 14.2035C37.1392 14.2288 37.2963 14.2683 37.3947 14.3295L37.5266 14.1171ZM35.6838 13.7969C35.6838 13.7535 35.6993 13.7231 35.7483 13.6785C35.7751 13.6542 35.807 13.6301 35.8483 13.5985C35.888 13.5682 35.9339 13.5328 35.9805 13.4905C36.0753 13.4043 36.1718 13.2903 36.2436 13.1207C36.3149 12.9524 36.359 12.7357 36.359 12.4471H36.109C36.109 12.7105 36.0687 12.8925 36.0134 13.0233C35.9586 13.1528 35.8863 13.2382 35.8123 13.3055C35.7744 13.3399 35.736 13.3697 35.6965 13.3998C35.6587 13.4287 35.6167 13.4603 35.5802 13.4935C35.5027 13.564 35.4338 13.6564 35.4338 13.7969H35.6838ZM36.359 12.4471C36.359 12.2049 36.4606 11.9451 36.6241 11.6767C36.7868 11.4096 37.0029 11.1462 37.2169 10.8979C37.4275 10.6537 37.6408 10.4186 37.7831 10.2204C37.8544 10.1211 37.9144 10.0224 37.9473 9.92908C37.98 9.83589 37.9924 9.72793 37.9366 9.62985L37.7193 9.7536C37.7243 9.76233 37.7325 9.78615 37.7114 9.84609C37.6904 9.90586 37.6468 9.98169 37.58 10.0746C37.4463 10.2609 37.246 10.4813 37.0276 10.7347C36.8127 10.9841 36.5847 11.2606 36.4105 11.5467C36.2371 11.8315 36.109 12.1383 36.109 12.4471H36.359ZM37.9367 9.63006C37.9108 9.58448 37.8715 9.54441 37.83 9.50964C37.7873 9.47385 37.7354 9.43808 37.6775 9.4025C37.5617 9.33136 37.4128 9.25565 37.244 9.17725C36.9063 9.0204 36.4756 8.84666 36.0439 8.67106C35.6103 8.49466 35.175 8.31613 34.8216 8.14767C34.6449 8.06346 34.4912 7.98293 34.3697 7.90766C34.2455 7.83068 34.1657 7.76559 34.1263 7.71501L33.9289 7.86844C33.9967 7.95562 34.1083 8.03978 34.2381 8.12017C34.3706 8.20227 34.5334 8.28726 34.714 8.37335C35.0752 8.5455 35.5174 8.72677 35.9497 8.90263C36.384 9.0793 36.8078 9.25032 37.1387 9.40399C37.3042 9.48086 37.443 9.55185 37.5467 9.61552C37.5985 9.64735 37.6393 9.67601 37.6694 9.70127C37.7008 9.72753 37.7145 9.74512 37.7192 9.75339L37.9367 9.63006ZM34.1262 7.71489C33.6771 7.13858 33.0346 6.62725 31.7707 6.50325L31.7462 6.75206C32.9356 6.86873 33.5179 7.34097 33.929 7.86856L34.1262 7.71489ZM31.771 6.50329C31.4748 6.47339 31.2629 6.4147 31.0945 6.33651C30.9263 6.25849 30.7953 6.15827 30.6628 6.03685C30.3986 5.79469 30.1209 5.45644 29.5543 5.11098L29.4242 5.32442C29.963 5.65298 30.2066 5.9578 30.4939 6.22116C30.6372 6.3525 30.7896 6.47065 30.9892 6.56329C31.1885 6.65576 31.4287 6.72001 31.7459 6.75203L31.771 6.50329ZM29.5545 5.11108C29.1075 4.83753 28.5283 4.33069 27.9977 3.78351C27.467 3.23619 26.9966 2.66041 26.7621 2.2542L26.5456 2.37918C26.7953 2.8118 27.2824 3.40488 27.8182 3.95754C28.3542 4.51033 28.9506 5.03458 29.424 5.32432L29.5545 5.11108ZM26.6666 2.19234C26.298 2.15452 25.8389 2.09503 25.4498 2.07737C25.2549 2.06853 25.0705 2.06973 24.9187 2.09086C24.7753 2.11082 24.6262 2.15262 24.5408 2.25489L24.7328 2.41512C24.7529 2.39095 24.8153 2.35765 24.9531 2.33848C25.0824 2.32048 25.2489 2.31852 25.4385 2.32712C25.8181 2.34434 26.262 2.40213 26.6411 2.44104L26.6666 2.19234ZM24.5408 2.25493C24.4531 2.36007 24.3593 2.55036 24.2676 2.74103C24.172 2.93996 24.073 3.15277 23.9706 3.32842C23.9195 3.41592 23.8699 3.49019 23.8223 3.54658C23.7732 3.60464 23.734 3.63432 23.7062 3.64583C23.6863 3.65409 23.6743 3.65329 23.6566 3.6422C23.6307 3.626 23.5897 3.58374 23.5411 3.48669L23.3176 3.59864C23.3748 3.71282 23.4415 3.80255 23.5241 3.8542C23.6149 3.91097 23.7124 3.91387 23.8019 3.87679C23.8836 3.84295 23.9538 3.77825 24.0132 3.70796C24.074 3.63601 24.1319 3.54799 24.1865 3.45434C24.2954 3.26769 24.4 3.04278 24.493 2.84933C24.5899 2.64762 24.6696 2.49086 24.7328 2.41507L24.5408 2.25493ZM23.5412 3.48683C23.3088 3.02142 22.9096 2.79371 22.4673 2.66725C22.0328 2.54305 21.5308 2.51065 21.0913 2.45177L21.0581 2.69956C21.5233 2.76188 21.9874 2.79008 22.3986 2.90762C22.8019 3.02292 23.1276 3.21811 23.3175 3.5985L23.5412 3.48683ZM21.091 2.45174C20.8855 2.42463 20.7354 2.35691 20.6086 2.28282C20.5435 2.24474 20.4864 2.20625 20.4263 2.1674C20.3683 2.1299 20.3071 2.09186 20.2429 2.06316C20.1049 2.00152 19.9567 1.98517 19.7765 2.06398C19.608 2.13767 19.4162 2.29264 19.1717 2.55179L19.3535 2.72336C19.5928 2.46979 19.7562 2.34573 19.8767 2.29302C19.9855 2.24543 20.06 2.25528 20.1409 2.29142C20.1861 2.3116 20.2333 2.34033 20.2906 2.37736C20.3458 2.41303 20.4109 2.45683 20.4825 2.49866C20.6292 2.58439 20.811 2.66697 21.0583 2.69959L21.091 2.45174ZM19.1717 2.55181C18.7493 2.99971 18.198 3.4451 17.6994 3.76728L17.8351 3.97725C18.3486 3.64546 18.9158 3.1875 19.3536 2.72334L19.1717 2.55181ZM17.6425 3.86456C17.6127 4.34783 17.5536 4.86173 17.4799 5.29266C17.4431 5.50817 17.4028 5.70145 17.3612 5.859C17.3188 6.01937 17.2773 6.13334 17.241 6.19658L17.4578 6.32106C17.5113 6.22778 17.5595 6.08703 17.6029 5.9229C17.647 5.75594 17.6887 5.55493 17.7264 5.33479C17.8017 4.89441 17.8617 4.37156 17.892 3.87997L17.6425 3.86456ZM17.2408 6.19689C17.2213 6.23105 17.1767 6.28093 17.1004 6.34601C17.0262 6.40915 16.9309 6.47941 16.8199 6.55547C16.5973 6.70803 16.3232 6.87618 16.0488 7.05003C15.777 7.2222 15.5053 7.39969 15.2972 7.56618C15.1932 7.64938 15.1012 7.73282 15.0322 7.81433C14.9654 7.89321 14.9081 7.98396 14.896 8.08142L15.144 8.11239C15.1471 8.08757 15.1665 8.04259 15.223 7.9759C15.2772 7.91184 15.3553 7.83987 15.4533 7.7614C15.6494 7.60456 15.9103 7.4337 16.1826 7.26123C16.4522 7.09044 16.7337 6.91765 16.9612 6.7617C17.0753 6.68351 17.1788 6.60762 17.2625 6.5363C17.3439 6.46693 17.4162 6.39406 17.458 6.32074L17.2408 6.19689ZM14.896 8.08123C14.8786 8.21846 14.8875 8.36412 14.9021 8.50335C14.9176 8.65102 14.9372 8.77624 14.9488 8.91187C14.9718 9.18069 14.9476 9.36355 14.8168 9.47288L14.9772 9.66468C15.2146 9.4662 15.2208 9.15815 15.1979 8.8905C15.1865 8.75789 15.1639 8.60348 15.1507 8.47733C15.1367 8.34274 15.1304 8.22038 15.144 8.11258L14.896 8.08123ZM14.8172 9.47254C14.7344 9.54117 14.7058 9.63825 14.7019 9.73071C14.6981 9.82164 14.717 9.92252 14.7446 10.0231C14.7993 10.2228 14.9013 10.4653 14.9866 10.6912C15.075 10.9254 15.147 11.1452 15.16 11.325C15.1727 11.5003 15.1288 11.6045 15.021 11.6635L15.1411 11.8827C15.3701 11.7573 15.4256 11.5318 15.4094 11.307C15.3934 11.0865 15.3083 10.8355 15.2205 10.6029C15.1295 10.362 15.0363 10.1417 14.9857 9.95707C14.9606 9.8655 14.9495 9.79387 14.9517 9.74126C14.9539 9.69018 14.9675 9.67268 14.9768 9.66501L14.8172 9.47254ZM15.021 11.6634C14.9243 11.7164 14.8501 11.7794 14.8019 11.8551C14.7526 11.9327 14.736 12.0153 14.7414 12.0964C14.7514 12.2477 14.8391 12.3961 14.9134 12.5148C14.996 12.6469 15.0679 12.7515 15.1002 12.848C15.1152 12.8928 15.1173 12.9251 15.1125 12.9493C15.1082 12.9709 15.0961 12.9969 15.0609 13.027L15.2234 13.217C15.2955 13.1554 15.3409 13.0819 15.3576 12.9984C15.3738 12.9173 15.3607 12.8387 15.3373 12.7687C15.2928 12.6357 15.196 12.4953 15.1253 12.3822C15.0463 12.2558 14.996 12.159 14.9908 12.08C14.9886 12.046 14.9951 12.0173 15.0129 11.9892C15.032 11.9593 15.0691 11.9222 15.1411 11.8827L15.021 11.6634ZM15.061 13.0269C14.9632 13.1103 14.8416 13.1858 14.7085 13.2602C14.5836 13.3301 14.4293 13.409 14.306 13.4799C14.1775 13.5538 14.0521 13.6354 13.9582 13.7313C13.8627 13.8289 13.7914 13.9502 13.7914 14.1003H14.0414C14.0414 14.0368 14.0697 13.9748 14.1369 13.9062C14.2057 13.8358 14.3063 13.7682 14.4306 13.6966C14.56 13.6222 14.6854 13.5595 14.8305 13.4784C14.9675 13.4018 15.1064 13.3168 15.2233 13.2171L15.061 13.0269ZM13.7914 14.1003C13.7914 14.3121 13.7762 14.6686 13.6954 14.9993C13.6124 15.3388 13.471 15.607 13.2521 15.7049L13.3541 15.9331C13.6874 15.7841 13.8526 15.4089 13.9382 15.0587C14.026 14.6996 14.0414 14.3202 14.0414 14.1003H13.7914ZM13.2524 15.7047C12.9361 15.845 12.689 16.1678 12.5225 16.5239C12.3545 16.8833 12.2576 17.2995 12.2576 17.6571H12.5076C12.5076 17.3397 12.5949 16.9594 12.749 16.6298C12.9046 16.2968 13.1177 16.038 13.3538 15.9332L13.2524 15.7047ZM12.2576 17.6571C12.2576 17.7939 12.2162 17.8578 12.17 17.8992C12.1119 17.9512 12.0408 17.9764 11.9381 18.0253C11.847 18.0687 11.7289 18.1337 11.6725 18.2717C11.6176 18.4063 11.6343 18.5775 11.7145 18.8014L11.9498 18.7171C11.876 18.5111 11.8846 18.4138 11.904 18.3662C11.922 18.3222 11.9607 18.2915 12.0457 18.251C12.1191 18.216 12.2434 18.169 12.3367 18.0855C12.4418 17.9915 12.5076 17.8568 12.5076 17.6571H12.2576ZM11.7144 18.8011C11.8685 19.2343 12.031 19.6954 12.0751 20.0697C12.0971 20.2567 12.0873 20.4066 12.0434 20.5152C12.0026 20.6159 11.9301 20.6881 11.7995 20.7234L11.8648 20.9647C12.0709 20.909 12.205 20.7822 12.2751 20.609C12.342 20.4436 12.3474 20.2446 12.3234 20.0405C12.2753 19.6323 12.1011 19.1422 11.9499 18.7173L11.7144 18.8011ZM11.7994 20.7234C11.5852 20.7815 11.447 20.9363 11.3542 21.112C11.2624 21.2859 11.2078 21.4935 11.1654 21.6823C11.1211 21.8792 11.0913 22.048 11.0489 22.1752C11.0279 22.2379 11.008 22.2769 10.9906 22.2984C10.9826 22.3082 10.9775 22.3115 10.9759 22.3124C10.9751 22.3128 10.9748 22.313 10.9728 22.313V22.563C11.0659 22.563 11.1362 22.5158 11.1849 22.4557C11.2305 22.3993 11.2619 22.3266 11.286 22.2543C11.3337 22.1112 11.3691 21.9158 11.4093 21.7371C11.4513 21.5503 11.5002 21.3709 11.5753 21.2288C11.6494 21.0884 11.7414 20.9982 11.8649 20.9647L11.7994 20.7234ZM10.9728 22.313C10.8815 22.313 10.8077 22.3593 10.7535 22.4169C10.6998 22.4738 10.6574 22.5495 10.624 22.6322C10.5567 22.7982 10.5148 23.0196 10.5028 23.2582C10.4791 23.732 10.5721 24.3167 10.8729 24.7166L11.0727 24.5663C10.8213 24.2321 10.7302 23.7151 10.7525 23.2707C10.7635 23.0501 10.8021 22.8583 10.8557 22.726C10.8826 22.6594 10.9107 22.6146 10.9354 22.5883C10.9596 22.5626 10.972 22.563 10.9728 22.563V22.313ZM10.8728 24.7164C11.406 25.4279 11.5231 26.0124 11.5231 26.6644H11.7731C11.7731 25.9684 11.6441 25.3286 11.0728 24.5665L10.8728 24.7164ZM11.5231 26.6644C11.5231 27.0423 11.732 27.3384 11.8761 27.5909C12.0249 27.8516 12.1239 28.0863 12.0189 28.401L12.2561 28.4801C12.3963 28.0598 12.2505 27.7426 12.0933 27.467C11.9314 27.1833 11.7731 26.9588 11.7731 26.6644H11.5231ZM12.0189 28.4011C11.8925 28.7804 11.8589 29.1529 11.8078 29.4379C11.7547 29.7344 11.6843 29.9336 11.5134 30.0558L11.6588 30.2592C11.9172 30.0744 11.9999 29.7831 12.0539 29.482C12.1099 29.1692 12.1373 28.8367 12.2561 28.4801L12.0189 28.4011ZM11.5135 30.0557C11.3728 30.156 11.3041 30.3028 11.2657 30.4503C11.2281 30.595 11.2156 30.7589 11.2008 30.9022C11.1853 31.0524 11.1671 31.1836 11.1244 31.291C11.0837 31.3931 11.0231 31.468 10.9211 31.5134L11.0228 31.7418C11.1969 31.6643 11.2975 31.5321 11.3566 31.3834C11.4138 31.2399 11.4341 31.0764 11.4495 30.928C11.4655 30.7728 11.4762 30.6344 11.5077 30.5132C11.5385 30.3948 11.5848 30.312 11.6587 30.2593L11.5135 30.0557ZM10.9209 31.5135C10.8128 31.5619 10.748 31.6515 10.713 31.7533C10.6791 31.852 10.6707 31.9676 10.6747 32.0864C10.6829 32.3238 10.7432 32.6147 10.8039 32.8956C10.866 33.1825 10.929 33.4607 10.951 33.6908C10.9621 33.8056 10.962 33.9007 10.9494 33.9743C10.9366 34.0484 10.9135 34.087 10.8906 34.1067L11.0533 34.2965C11.1376 34.2242 11.1778 34.1211 11.1957 34.0167C11.2138 33.9117 11.2119 33.7915 11.1999 33.667C11.1761 33.4185 11.1088 33.1224 11.0483 32.8427C10.9865 32.557 10.9318 32.2887 10.9246 32.0779C10.921 31.9725 10.9298 31.8918 10.9494 31.8346C10.968 31.7806 10.9932 31.755 11.023 31.7417L10.9209 31.5135ZM10.8903 34.1069C10.7925 34.1912 10.6547 34.2728 10.4856 34.3778C10.3211 34.4798 10.1353 34.5993 9.96222 34.7522C9.61072 35.0627 9.31494 35.5084 9.31494 36.2246H9.56494C9.56494 35.5918 9.82053 35.2109 10.1277 34.9396C10.284 34.8016 10.4544 34.6914 10.6174 34.5902C10.7757 34.492 10.9367 34.3969 11.0535 34.2963L10.8903 34.1069ZM9.31494 36.2246C9.31494 36.9051 9.36739 37.4382 9.40081 37.8681C9.4346 38.3028 9.44735 38.6196 9.37973 38.8904L9.62228 38.951C9.70123 38.6349 9.68345 38.2782 9.65006 37.8487C9.6163 37.4145 9.56494 36.893 9.56494 36.2246H9.31494ZM9.37971 38.8905C9.34074 39.0471 9.36962 39.1692 9.44171 39.27C9.50351 39.3565 9.60079 39.4277 9.66579 39.4828C9.73824 39.5441 9.79797 39.6044 9.83624 39.6876C9.87382 39.7692 9.89628 39.8856 9.86862 40.0667L10.1158 40.1045C10.1492 39.8858 10.1255 39.7181 10.0633 39.583C10.0019 39.4495 9.90829 39.3605 9.82741 39.292C9.73908 39.2172 9.68303 39.1777 9.64509 39.1247C9.61745 39.086 9.60021 39.0397 9.62231 38.9509L9.37971 38.8905ZM9.86866 40.0665C9.84266 40.2344 9.77538 40.3201 9.69745 40.372C9.61234 40.4288 9.50081 40.4547 9.36879 40.4735C9.24909 40.4905 9.0945 40.5025 8.97712 40.543C8.91436 40.5647 8.85038 40.5978 8.79911 40.6525C8.74624 40.709 8.71452 40.7804 8.70428 40.8649L8.95246 40.895C8.95704 40.8572 8.96897 40.8369 8.98162 40.8234C8.99586 40.8082 9.01924 40.793 9.05877 40.7793C9.14594 40.7492 9.25554 40.7421 9.404 40.721C9.54014 40.7016 9.70076 40.6703 9.83612 40.5801C9.97868 40.485 10.0802 40.334 10.1157 40.1047L9.86866 40.0665ZM8.70433 40.8645C8.68726 41.0014 8.69624 41.1663 8.71064 41.3286C8.72572 41.4984 8.74585 41.6582 8.75735 41.8161C8.76875 41.9724 8.76899 42.1001 8.74927 42.1891C8.72977 42.277 8.70227 42.2866 8.68462 42.2896L8.72608 42.5361C8.89252 42.5082 8.9648 42.3719 8.99334 42.2432C9.02166 42.1155 9.01819 41.9557 9.00669 41.7979C8.99529 41.6415 8.97332 41.4603 8.95966 41.3065C8.94533 41.145 8.93894 41.0035 8.95241 40.8954L8.70433 40.8645ZM8.68491 42.2896C8.45446 42.3278 8.28396 42.466 8.17697 42.7063C8.07409 42.9375 8.0281 43.2653 8.0281 43.6999H8.2781C8.2781 43.2756 8.32417 42.9904 8.40536 42.808C8.48245 42.6348 8.58808 42.559 8.7258 42.5362L8.68491 42.2896ZM8.0281 43.6999C8.0281 44.0983 7.91572 44.3193 7.79669 44.4945C7.76568 44.5402 7.73424 44.5827 7.70197 44.6268C7.67032 44.67 7.63781 44.715 7.6082 44.7615C7.54817 44.8558 7.49691 44.9613 7.47877 45.0927L7.72643 45.1269C7.73795 45.0434 7.77034 44.9723 7.81909 44.8957C7.84388 44.8568 7.87203 44.8177 7.90374 44.7744C7.93482 44.7319 7.96942 44.6852 8.00351 44.635C8.1449 44.4268 8.2781 44.1577 8.2781 43.6999H8.0281ZM7.47889 45.0919C7.45959 45.2253 7.48418 45.3571 7.52459 45.4807C7.56486 45.6038 7.62405 45.7279 7.68103 45.8457C7.80003 46.0917 7.90596 46.3082 7.90596 46.5172H8.15596C8.15596 46.2388 8.01675 45.9656 7.90608 45.7368C7.84822 45.6172 7.79646 45.5077 7.76221 45.403C7.72812 45.2987 7.71464 45.2084 7.72631 45.1277L7.47889 45.0919ZM7.90596 46.5172C7.90596 46.6478 7.92595 46.851 7.94757 47.0729C7.96956 47.2986 7.99401 47.5501 8.00523 47.7877C8.01655 48.0272 8.01384 48.2431 7.98496 48.3996C7.97045 48.4783 7.95097 48.5323 7.93031 48.5653C7.91138 48.5955 7.89773 48.5993 7.89007 48.6004L7.92583 48.8478C8.02527 48.8335 8.09578 48.772 8.14214 48.6981C8.18677 48.6268 8.21371 48.5377 8.23081 48.445C8.26516 48.2588 8.26643 48.019 8.25496 47.7759C8.24339 47.531 8.21827 47.2732 8.19639 47.0487C8.17415 46.8203 8.15596 46.6325 8.15596 46.5172H7.90596ZM7.89035 48.6004C7.79339 48.6141 7.71723 48.6754 7.66036 48.7439C7.60249 48.8135 7.55348 48.9036 7.51211 49.0022C7.42911 49.2001 7.36772 49.4547 7.33242 49.7105C7.29709 49.9666 7.28682 50.2319 7.31034 50.4524C7.32207 50.5625 7.34269 50.6659 7.37538 50.753C7.40725 50.838 7.45595 50.9217 7.53335 50.9732L7.67186 50.7651C7.65721 50.7553 7.63301 50.728 7.60944 50.6652C7.5867 50.6046 7.56935 50.5237 7.55893 50.4259C7.53811 50.2308 7.5467 49.9866 7.58008 49.7447C7.61349 49.5025 7.67064 49.2706 7.74266 49.0989C7.77879 49.0127 7.81641 48.9472 7.85263 48.9036C7.88984 48.8589 7.9152 48.8493 7.92555 48.8479L7.89035 48.6004ZM7.53329 50.9732C7.82257 51.1659 7.84467 51.5743 7.67315 51.9171L7.89673 52.029C8.09338 51.6359 8.11548 51.0607 7.67191 50.7651L7.53329 50.9732ZM7.67304 51.9173C7.59644 52.0712 7.6591 52.2149 7.72951 52.3202C7.76567 52.3742 7.80969 52.4271 7.85243 52.4766C7.89684 52.5281 7.93891 52.575 7.97951 52.6248C8.06181 52.7259 8.1147 52.8124 8.12658 52.8944C8.13678 52.9648 8.11953 53.0542 8.00252 53.1719L8.17981 53.3482C8.33848 53.1886 8.39801 53.0242 8.37399 52.8586C8.35166 52.7045 8.25934 52.5726 8.17337 52.467C8.12983 52.4135 8.082 52.36 8.04174 52.3133C7.9998 52.2647 7.96436 52.2216 7.93728 52.1811C7.88122 52.0973 7.88227 52.058 7.89684 52.0287L7.67304 51.9173ZM8.0028 53.1716C7.69502 53.4792 7.6446 53.8558 7.81155 54.133C7.97794 54.4094 8.33351 54.5422 8.74123 54.42L8.66948 54.1805C8.34959 54.2764 8.12237 54.1646 8.02573 54.0041C7.92964 53.8445 7.93593 53.5919 8.17953 53.3485L8.0028 53.1716ZM8.74096 54.4201C8.85361 54.3866 8.95236 54.411 9.03483 54.4691C9.12029 54.5292 9.18796 54.6262 9.22278 54.7306C9.25819 54.8367 9.25394 54.9318 9.22298 54.9929C9.19704 55.0441 9.14158 55.0935 9.01158 55.0935V55.3435C9.21877 55.3435 9.37029 55.2553 9.44599 55.1059C9.51667 54.9663 9.50871 54.7977 9.45993 54.6515C9.41056 54.5035 9.31356 54.3596 9.17873 54.2647C9.04091 54.1676 8.86375 54.1228 8.66975 54.1805L8.74096 54.4201ZM9.01158 55.0935C8.8437 55.0935 8.67206 55.0934 8.51919 55.1003C8.3686 55.1071 8.2253 55.1209 8.11779 55.1523C8.06455 55.1679 8.0085 55.191 7.96447 55.2289C7.91584 55.2707 7.8814 55.3319 7.8862 55.408C7.89045 55.4754 7.92458 55.5352 7.96472 55.5852C8.00621 55.637 8.06431 55.6908 8.1373 55.7478L8.29105 55.5506C8.22598 55.4999 8.18438 55.4595 8.15972 55.4288C8.13372 55.3964 8.13528 55.3855 8.13571 55.3923C8.13669 55.4079 8.1272 55.4186 8.12748 55.4184C8.13236 55.4142 8.14918 55.4036 8.18798 55.3923C8.26456 55.3699 8.38201 55.3567 8.53044 55.3501C8.67659 55.3435 8.84226 55.3435 9.01158 55.3435V55.0935ZM8.13769 55.7481C8.41353 55.9615 8.66563 56.2049 8.75901 56.4182C8.80369 56.5202 8.80501 56.5989 8.77434 56.6627C8.74208 56.7297 8.66064 56.8094 8.47621 56.8807L8.56633 57.1139C8.78017 57.0312 8.9285 56.9189 8.99962 56.7711C9.07234 56.6199 9.05065 56.461 8.98802 56.3179C8.86678 56.0409 8.56707 55.7642 8.29066 55.5503L8.13769 55.7481ZM8.47648 56.8806C8.26141 56.9631 8.12145 57.0713 8.05043 57.2168C7.98078 57.3596 7.99048 57.513 8.01453 57.6533C8.02668 57.7242 8.04386 57.7983 8.06002 57.8703C8.07649 57.9437 8.09243 58.017 8.10417 58.0925C8.12753 58.2426 8.1335 58.3969 8.09291 58.5591L8.33544 58.6198C8.38689 58.4141 8.37759 58.2236 8.3512 58.054C8.33806 57.9696 8.3205 57.8893 8.30395 57.8156C8.28709 57.7405 8.27173 57.674 8.26093 57.611C8.23907 57.4835 8.24118 57.396 8.27511 57.3265C8.30766 57.2598 8.38243 57.1844 8.56606 57.114L8.47648 56.8806ZM8.09291 58.5591C7.9905 58.9686 8.1452 59.3617 8.2248 59.6291C8.2681 59.7745 8.28607 59.87 8.27293 59.9357C8.26741 59.9633 8.2565 59.984 8.23757 60.0022C8.21709 60.0219 8.18117 60.0445 8.11719 60.0637L8.18902 60.3031C8.27837 60.2763 8.3536 60.2375 8.41097 60.1823C8.46988 60.1256 8.5035 60.0577 8.51808 59.9847C8.54513 59.8493 8.50552 59.6958 8.46441 59.5577C8.37519 59.2581 8.25377 58.9463 8.33544 58.6198L8.09291 58.5591ZM8.1175 60.0636C8.0192 60.0928 7.94192 60.1435 7.88686 60.215C7.8329 60.285 7.80715 60.366 7.79557 60.4452C7.77353 60.5959 7.79977 60.7771 7.81397 60.9227C7.82959 61.083 7.83243 61.2086 7.79559 61.3001C7.7788 61.3418 7.75379 61.3757 7.7153 61.4029C7.6756 61.4309 7.61529 61.4563 7.52207 61.4696L7.55751 61.7171C7.6789 61.6997 7.77955 61.6636 7.85961 61.607C7.94089 61.5496 7.99445 61.4755 8.02749 61.3935C8.09029 61.2376 8.07781 61.0526 8.06279 60.8985C8.04635 60.7298 8.02662 60.593 8.04294 60.4814C8.05053 60.4295 8.06504 60.3933 8.08489 60.3676C8.10363 60.3432 8.13368 60.3196 8.18871 60.3032L8.1175 60.0636ZM7.52229 61.4696C7.2867 61.5029 7.12655 61.5862 7.0233 61.7174C6.92386 61.8437 6.89195 61.9972 6.87241 62.1341C6.83061 62.427 6.83156 62.667 6.60523 62.8438L6.75914 63.0408C7.08419 62.7868 7.08514 62.413 7.1199 62.1694C7.13864 62.0381 7.16414 61.9426 7.21975 61.872C7.27154 61.8062 7.36407 61.7444 7.55728 61.7171L7.52229 61.4696ZM6.60577 62.8434C6.51967 62.9099 6.46199 62.9886 6.43419 63.079C6.40676 63.1682 6.41188 63.2574 6.43163 63.34C6.46941 63.498 6.56995 63.6622 6.64995 63.8002C6.73707 63.9505 6.80261 64.0736 6.81606 64.1798C6.82221 64.2283 6.81648 64.2682 6.79886 64.304C6.7809 64.3404 6.74554 64.3828 6.67555 64.4271L6.80922 64.6384C6.90805 64.5758 6.98013 64.5017 7.02312 64.4145C7.06643 64.3266 7.07513 64.2356 7.06408 64.1483C7.04312 63.983 6.94771 63.8153 6.86623 63.6748C6.77763 63.522 6.70194 63.3954 6.67477 63.2819C6.66206 63.2287 6.66253 63.187 6.67314 63.1525C6.68338 63.1192 6.70643 63.0815 6.7586 63.0412L6.60577 62.8434ZM6.67543 64.4272C6.28367 64.6757 6.23473 65.0895 6.19036 65.3781C6.16644 65.5337 6.14574 65.643 6.10149 65.7165C6.08175 65.7493 6.05874 65.7719 6.02933 65.7874C5.99901 65.8034 5.95406 65.8159 5.88479 65.8159V66.0659C5.98411 66.0659 6.07135 66.0479 6.14594 66.0085C6.22143 65.9687 6.27602 65.9113 6.31567 65.8455C6.39021 65.7217 6.41547 65.5591 6.43746 65.4161C6.48492 65.1073 6.52759 64.817 6.80934 64.6383L6.67543 64.4272ZM5.88479 65.8159C5.48426 65.8159 5.19067 66.0894 4.99774 66.3872C4.80332 66.6873 4.69032 67.042 4.65742 67.2722L4.9049 67.3075C4.93307 67.1105 5.03425 66.7907 5.20756 66.5231C5.38237 66.2533 5.61005 66.0659 5.88479 66.0659V65.8159ZM4.65742 67.2722C4.64352 67.3694 4.60822 67.4932 4.56664 67.6487C4.52628 67.7997 4.48228 67.9732 4.45813 68.1544C4.40977 68.5171 4.43878 68.9292 4.74942 69.2736L4.93505 69.1061C4.69431 68.8393 4.66225 68.5151 4.70593 68.1874C4.7278 68.0234 4.7681 67.8631 4.80816 67.7133C4.84701 67.568 4.88827 67.4239 4.9049 67.3075L4.65742 67.2722ZM4.74936 69.2735C4.87183 69.4095 4.92191 69.5332 4.93987 69.6445C4.95834 69.7589 4.94438 69.8681 4.92538 69.9817C4.908 70.0856 4.88076 70.2151 4.89899 70.3306C4.9089 70.3934 4.93205 70.4554 4.9762 70.5124C5.01977 70.5686 5.07911 70.6139 5.15285 70.6506L5.26445 70.4269C5.21584 70.4027 5.18919 70.3791 5.1738 70.3593C5.159 70.3402 5.15024 70.3189 5.14593 70.2916C5.13572 70.2269 5.15084 70.1492 5.17196 70.0229C5.19146 69.9063 5.21213 69.7623 5.18667 69.6046C5.16071 69.4438 5.08833 69.2763 4.93511 69.1062L4.74936 69.2735ZM5.15293 70.6507C5.30263 70.7252 5.52409 70.7479 5.74143 70.7591C5.85354 70.7649 5.97191 70.7678 6.08773 70.771C6.20441 70.7743 6.31905 70.778 6.42741 70.7855C6.6507 70.8007 6.82322 70.8308 6.92396 70.888C6.97053 70.9144 6.99209 70.9413 7.00168 70.967C7.01146 70.9933 7.01586 71.0373 6.99113 71.1113L7.22823 71.1905C7.265 71.0806 7.2715 70.9751 7.23594 70.8797C7.2002 70.7838 7.12897 70.7168 7.0473 70.6705C6.89154 70.5822 6.6657 70.5512 6.44448 70.536C6.33058 70.5283 6.21144 70.5244 6.09477 70.5211C5.97725 70.5178 5.86271 70.5151 5.75431 70.5095C5.53063 70.4979 5.3607 70.4749 5.26437 70.4269L5.15293 70.6507ZM6.99107 71.1114C6.8616 71.5005 6.81609 72.1004 6.83967 72.5981C6.85149 72.8477 6.88105 73.0804 6.92983 73.2541C6.95397 73.3401 6.98506 73.42 7.02665 73.4812C7.06708 73.5406 7.13455 73.6058 7.23356 73.6058V73.3558C7.2558 73.3558 7.25416 73.3711 7.23338 73.3406C7.21376 73.3117 7.19154 73.2614 7.17052 73.1866C7.12898 73.0386 7.10079 72.827 7.08939 72.5862C7.0665 72.1031 7.1126 71.5381 7.22829 71.1904L6.99107 71.1114ZM7.23356 73.6058C7.2467 73.6058 7.28254 73.6176 7.34938 73.7012C7.41252 73.7802 7.47271 73.8822 7.55035 74.0004C7.62364 74.112 7.71044 74.2343 7.81617 74.3242C7.9249 74.4167 8.06211 74.4819 8.22962 74.4611L8.19873 74.213C8.12108 74.2227 8.05142 74.1961 7.97817 74.1338C7.90191 74.0689 7.83162 73.9733 7.75932 73.8632C7.69138 73.7597 7.61749 73.6362 7.54466 73.5451C7.47555 73.4586 7.37354 73.3558 7.23356 73.3558V73.6058ZM8.22959 74.4611C8.4735 74.4308 9.14471 74.3548 9.86874 74.3169C10.5989 74.2786 11.3616 74.2805 11.8001 74.3968L11.8642 74.1552C11.3823 74.0274 10.5816 74.0292 9.85565 74.0672C9.12359 74.1056 8.44603 74.1823 8.19876 74.213L8.22959 74.4611ZM11.8002 74.3968C12.2277 74.51 12.589 74.767 12.8493 75.0026L13.017 74.8172C12.7417 74.568 12.3456 74.2826 11.8641 74.1552L11.8002 74.3968ZM12.9835 75.0243C13.0796 74.9821 13.219 74.9798 13.3982 75.0123C13.5743 75.0442 13.7676 75.1054 13.9614 75.1687C14.1507 75.2305 14.3442 75.2958 14.5061 75.3278C14.5875 75.3439 14.6688 75.3533 14.7428 75.3472C14.8171 75.3411 14.8962 75.3181 14.9571 75.2576L14.781 75.0802C14.7767 75.0844 14.7629 75.0947 14.7222 75.0981C14.6814 75.1014 14.626 75.0967 14.5546 75.0826C14.4112 75.0542 14.2356 74.9952 14.0391 74.931C13.8471 74.8684 13.6382 74.8018 13.4428 74.7663C13.2506 74.7315 13.0493 74.7222 12.8828 74.7955L12.9835 75.0243ZM14.9574 75.2573C15.0331 75.1817 15.0484 75.0845 15.0354 74.9949C15.0231 74.9092 14.9841 74.8199 14.936 74.7341C14.8392 74.5616 14.6821 74.3639 14.5245 74.1727C14.3635 73.9774 14.2009 73.7875 14.0795 73.6194C14.019 73.5356 13.9721 73.4619 13.9421 73.3997C13.9104 73.3343 13.9054 73.2978 13.9071 73.2828L13.6587 73.255C13.649 73.3416 13.6794 73.4308 13.717 73.5086C13.7563 73.5898 13.8128 73.6771 13.8768 73.7657C14.0044 73.9424 14.1757 74.1426 14.3316 74.3317C14.491 74.5251 14.6337 74.7064 14.7179 74.8564C14.7603 74.9319 14.7821 74.9897 14.788 75.0307C14.7934 75.0678 14.7845 75.0767 14.7807 75.0805L14.9574 75.2573ZM13.9071 73.2827C13.9326 73.0532 13.8695 72.7587 13.8085 72.4871C13.7445 72.2027 13.6811 71.9366 13.6811 71.7281H13.4311C13.4311 71.9714 13.5037 72.2712 13.5645 72.5419C13.6283 72.8256 13.6786 73.0756 13.6587 73.2551L13.9071 73.2827ZM13.6811 71.7281C13.6811 71.6093 13.6662 71.4535 13.6552 71.2953C13.644 71.1328 13.636 70.9583 13.6468 70.7856C13.6686 70.4376 13.7651 70.1221 14.0372 69.9271L13.8915 69.7239C13.5285 69.9841 13.4209 70.3936 13.3973 70.77C13.3854 70.9595 13.3944 71.1471 13.4058 71.3126C13.4176 71.4825 13.4311 71.6208 13.4311 71.7281H13.6811ZM14.037 69.9273C14.3685 69.6907 14.5501 69.4501 14.6858 69.2985C14.7556 69.2205 14.8062 69.174 14.8554 69.1489C14.898 69.1271 14.9471 69.1176 15.0241 69.1348L15.0788 68.8909C14.9515 68.8624 14.842 68.875 14.7416 68.9263C14.6478 68.9742 14.5711 69.0518 14.4995 69.1318C14.3523 69.2963 14.1945 69.5078 13.8918 69.7238L14.037 69.9273ZM15.0245 69.1349C15.2805 69.1914 15.6259 69.0766 15.9053 68.8212C16.1909 68.5602 16.4199 68.1436 16.4439 67.568L16.1942 67.5576C16.1728 68.0685 15.9717 68.4218 15.7367 68.6367C15.4955 68.8571 15.2298 68.9242 15.0783 68.8908L15.0245 69.1349ZM16.4439 67.5679C16.4653 67.0466 16.5943 66.6979 16.8218 66.3862C17.0547 66.067 17.3925 65.783 17.8501 65.3935L17.688 65.2031C17.2391 65.5853 16.8741 65.8903 16.6198 66.2388C16.36 66.5948 16.2173 66.9926 16.1942 67.5577L16.4439 67.5679ZM17.8499 65.3936C18.3365 64.9809 18.9813 64.5818 19.494 64.2286C19.7461 64.0549 19.9696 63.8898 20.1161 63.7421C20.1888 63.6688 20.2509 63.5916 20.2852 63.5123C20.3212 63.4289 20.3305 63.3313 20.2745 63.2409L20.062 63.3726C20.0624 63.3734 20.0699 63.3802 20.0557 63.4131C20.0397 63.45 20.0031 63.5009 19.9385 63.5661C19.8104 63.6953 19.6048 63.8486 19.3521 64.0227C18.8552 64.3651 18.1875 64.7795 17.6882 65.203L17.8499 65.3936ZM20.274 63.2401C20.243 63.191 20.2299 63.0903 20.2529 62.9246C20.2748 62.7666 20.3247 62.5793 20.3839 62.3821C20.4413 62.1909 20.5106 61.9808 20.5619 61.8023C20.6133 61.6239 20.6553 61.4498 20.6553 61.3169H20.4053C20.4053 61.41 20.3737 61.5524 20.3217 61.7332C20.2697 61.9139 20.2059 62.1055 20.1445 62.3102C20.0848 62.509 20.03 62.712 20.0053 62.8903C19.9816 63.0609 19.98 63.2425 20.0624 63.3734L20.274 63.2401ZM20.6553 61.3169C20.6553 61.1168 20.4833 61.0089 20.3265 60.949C20.1592 60.8851 19.9382 60.8469 19.7138 60.8185C19.4906 60.7903 19.2426 60.7695 19.0348 60.7463C18.8185 60.722 18.6434 60.6949 18.535 60.6554L18.4495 60.8903C18.5902 60.9415 18.7944 60.9709 19.007 60.9947C19.228 61.0195 19.4584 61.0382 19.6824 61.0666C19.9052 61.0947 20.1003 61.1302 20.2373 61.1825C20.3848 61.2389 20.4053 61.29 20.4053 61.3169H20.6553ZM18.535 60.6554C18.3097 60.5733 17.7524 60.2267 17.3648 59.6976C16.9827 59.176 16.775 58.4932 17.1985 57.7107L16.9786 57.5917C16.4965 58.4826 16.7416 59.2699 17.1632 59.8454C17.5793 60.4135 18.1767 60.791 18.4495 60.8903L18.535 60.6554ZM17.1985 57.7106C18.0694 56.0982 19.9036 55.9179 20.4508 55.8723L20.43 55.6232C19.8884 55.6683 17.9189 55.8507 16.9785 57.5918L17.1985 57.7106ZM20.4506 55.8723C20.5337 55.8655 20.607 55.844 20.668 55.8039C20.73 55.763 20.7714 55.7082 20.798 55.6482C20.8474 55.537 20.8482 55.4003 20.8481 55.2898C20.848 55.1677 20.8458 55.0617 20.8673 54.9678C20.8872 54.8807 20.9252 54.8153 21.0019 54.7694L20.8735 54.5549C20.7238 54.6446 20.6544 54.7771 20.6236 54.9121C20.5942 55.0402 20.598 55.1803 20.5981 55.2901C20.5982 55.4115 20.5936 55.4926 20.5695 55.5467C20.5594 55.5695 20.547 55.5842 20.5305 55.595C20.513 55.6065 20.483 55.6188 20.4302 55.6232L20.4506 55.8723ZM21.0019 54.7694C21.5178 54.4604 21.6062 53.942 21.6062 53.2592H21.3562C21.3562 53.9366 21.2632 54.3215 20.8735 54.5549L21.0019 54.7694ZM21.6062 53.2592C21.6062 52.8711 21.6069 52.3892 21.7044 51.9935C21.8026 51.5954 21.9835 51.337 22.31 51.3003L22.2821 51.0518C21.7938 51.1067 21.5673 51.5053 21.4617 51.9336C21.3555 52.3643 21.3562 52.8781 21.3562 53.2592H21.6062ZM22.3099 51.3003C22.524 51.2765 22.7041 51.2285 22.8462 51.165C22.9865 51.1023 23.0981 51.0207 23.1639 50.9242C23.2325 50.8236 23.2535 50.6997 23.1883 50.5864C23.1286 50.4825 23.0121 50.416 22.8729 50.3787L22.8081 50.6201C22.9175 50.6495 22.9593 50.6896 22.9715 50.711C22.9784 50.7228 22.9851 50.7428 22.9574 50.7833C22.9269 50.828 22.8602 50.8849 22.7442 50.9367C22.6301 50.9877 22.476 51.0303 22.2823 51.0518L22.3099 51.3003ZM22.8738 50.3789C22.7683 50.3498 22.6793 50.2973 22.6164 50.2367C22.5525 50.175 22.5221 50.1119 22.5172 50.0619C22.5129 50.0181 22.5264 49.9719 22.5816 49.9268C22.6415 49.8778 22.7538 49.8289 22.9451 49.8075L22.9173 49.559C22.7003 49.5834 22.5348 49.6422 22.4234 49.7332C22.3071 49.8282 22.2555 49.9545 22.2684 50.0862C22.2806 50.2115 22.3495 50.3266 22.4429 50.4166C22.5373 50.5076 22.6636 50.5802 22.8071 50.6199L22.8738 50.3789ZM22.945 49.8075C23.1299 49.7869 23.2361 49.8167 23.3046 49.8579C23.3752 49.9005 23.423 49.9652 23.4746 50.0519C23.5215 50.1307 23.5795 50.2453 23.6637 50.3302C23.7576 50.4249 23.883 50.4858 24.0627 50.4858V50.2358C23.9485 50.2358 23.8873 50.2007 23.8412 50.1542C23.7854 50.0979 23.7501 50.026 23.6895 49.9241C23.6335 49.8301 23.5597 49.7198 23.4336 49.6438C23.3053 49.5665 23.1399 49.5343 22.9174 49.559L22.945 49.8075ZM24.0627 50.4858C24.2418 50.4858 24.4376 50.4116 24.6131 50.302C24.7903 50.1913 24.9587 50.0371 25.0823 49.8612C25.2053 49.686 25.2901 49.4801 25.2834 49.2683C25.2765 49.0508 25.1734 48.8446 24.9544 48.6771L24.8025 48.8757C24.9683 49.0025 25.0292 49.1415 25.0335 49.2763C25.038 49.4167 24.9812 49.5701 24.8777 49.7175C24.7748 49.864 24.6317 49.9956 24.4806 50.09C24.3277 50.1855 24.1781 50.2358 24.0627 50.2358V50.4858ZM24.9544 48.6771C24.7485 48.5198 24.564 48.4479 24.3919 48.4471C24.2188 48.4462 24.0793 48.5175 23.9651 48.6032C23.8563 48.6849 23.753 48.7949 23.672 48.8704C23.5823 48.9541 23.5132 49.0032 23.4473 49.0181L23.5022 49.262C23.6395 49.2311 23.7513 49.1383 23.8425 49.0532C23.9424 48.9601 24.0202 48.8745 24.1152 48.8031C24.2048 48.7359 24.2919 48.6966 24.3907 48.6971C24.4905 48.6975 24.6232 48.7387 24.8026 48.8758L24.9544 48.6771ZM23.4479 49.018C23.3823 49.0324 23.3157 49.0198 23.2385 48.9813C23.1588 48.9416 23.0779 48.8794 22.9865 48.8054C22.8993 48.7347 22.801 48.6519 22.6992 48.5888C22.5963 48.525 22.4768 48.4727 22.3423 48.4727V48.7227C22.4111 48.7227 22.4838 48.7494 22.5675 48.8013C22.6523 48.8539 22.7352 48.9236 22.8292 48.9997C22.9191 49.0725 23.0195 49.1515 23.1269 49.205C23.2368 49.2598 23.363 49.2926 23.5016 49.2621L23.4479 49.018ZM22.3423 48.4727C22.324 48.4727 22.3154 48.4678 22.3071 48.4595C22.2953 48.4478 22.2797 48.4235 22.2656 48.3774C22.2367 48.2838 22.2266 48.1458 22.2239 47.9781C22.2213 47.82 22.2254 47.6284 22.2191 47.465C22.2128 47.3014 22.1959 47.1325 22.1398 47.0068L21.9115 47.1088C21.9461 47.1862 21.963 47.3114 21.9693 47.4746C21.9756 47.6381 21.971 47.806 21.9739 47.9821C21.9766 48.1486 21.9861 48.3194 22.0266 48.451C22.0471 48.5176 22.0787 48.585 22.1308 48.6368C22.1864 48.6921 22.2586 48.7227 22.3423 48.7227V48.4727ZM22.1399 47.0071C22.0536 46.8126 21.9441 46.4737 21.9005 46.1251C21.8561 45.7703 21.8843 45.4386 22.036 45.2295L21.8337 45.0826C21.6234 45.3723 21.6062 45.787 21.6524 46.1561C21.6993 46.5314 21.8162 46.894 21.9114 47.1085L22.1399 47.0071ZM22.0359 45.2297C22.0775 45.1726 22.1668 45.1404 22.3783 45.1894C22.5813 45.2364 22.839 45.3455 23.1417 45.4795C23.7339 45.7418 24.4818 46.0934 25.1886 46.1405L25.2052 45.8911C24.5527 45.8475 23.8511 45.5203 23.2429 45.2509C22.9453 45.1191 22.6651 44.9992 22.4347 44.9458C22.213 44.8944 21.9737 44.8906 21.8339 45.0824L22.0359 45.2297ZM25.1885 46.1405C25.8929 46.188 26.5063 46.0129 26.9464 45.7574C27.1662 45.6297 27.3457 45.4804 27.4717 45.3255C27.596 45.1726 27.6766 45.0035 27.6766 44.8387H27.4266C27.4266 44.9241 27.3826 45.0387 27.2777 45.1678C27.1744 45.2948 27.0199 45.4256 26.8209 45.5411C26.4233 45.772 25.8593 45.9352 25.2053 45.8911L25.1885 46.1405ZM27.6766 44.8387C27.6766 44.6933 27.6311 44.526 27.5853 44.3659C27.5375 44.199 27.4864 44.0309 27.4594 43.862C27.4327 43.6942 27.432 43.5367 27.4786 43.3941C27.5243 43.2543 27.6187 43.1185 27.8012 42.9975L27.6631 42.7891C27.4378 42.9385 27.3057 43.1186 27.241 43.3164C27.1773 43.5112 27.1825 43.7128 27.2125 43.9014C27.2424 44.0889 27.2991 44.2746 27.3449 44.4347C27.3927 44.6016 27.4266 44.7346 27.4266 44.8387H27.6766ZM27.8015 42.9973C28.0106 42.8579 28.1456 42.7283 28.208 42.5906C28.2757 42.4413 28.249 42.3049 28.1913 42.1825C28.1384 42.0702 28.0472 41.9472 27.9715 41.8308C27.8914 41.7077 27.8134 41.5717 27.7616 41.4067L27.5231 41.4815C27.5847 41.678 27.6766 41.8358 27.762 41.9672C27.8519 42.1053 27.9219 42.1973 27.9651 42.289C28.0035 42.3705 28.0078 42.4268 27.9803 42.4874C27.9477 42.5594 27.8617 42.6567 27.6628 42.7893L27.8015 42.9973ZM27.7616 41.4067C27.6597 41.0816 27.7462 40.8388 27.8705 40.7186C27.9333 40.6579 28.0051 40.6279 28.0725 40.626C28.1382 40.6242 28.2105 40.6487 28.2788 40.7171L28.4558 40.5405C28.3426 40.4272 28.2052 40.3722 28.0656 40.3761C27.9276 40.3799 27.7982 40.4408 27.6968 40.5389C27.4926 40.7362 27.3981 41.0829 27.523 41.4815L27.7616 41.4067ZM28.2788 40.7171C28.3493 40.7877 28.4589 40.8304 28.576 40.8593C28.6978 40.8894 28.8485 40.9093 29.0203 40.9209C29.3643 40.9442 29.8078 40.9355 30.3057 40.9016C31.3024 40.8336 32.5306 40.6634 33.6451 40.4366L33.5953 40.1916C32.4903 40.4164 31.2731 40.585 30.2887 40.6521C29.7961 40.6857 29.3652 40.6937 29.0372 40.6715C28.8729 40.6604 28.7381 40.6419 28.6359 40.6166C28.5289 40.5902 28.4759 40.5607 28.4558 40.5405L28.2788 40.7171ZM33.6453 40.4365C34.7624 40.2078 35.7134 39.8876 36.4049 39.542C36.7505 39.3694 37.035 39.1886 37.2436 39.0069C37.4495 38.8276 37.5951 38.6358 37.637 38.4383L37.3925 38.3864C37.3672 38.5054 37.2697 38.6527 37.0794 38.8184C36.8919 38.9817 36.6272 39.1515 36.2932 39.3184C35.6257 39.6519 34.6966 39.9661 33.5951 40.1916L33.6453 40.4365ZM37.637 38.4385C37.6657 38.3044 37.7669 38.109 37.9224 37.8716C38.0752 37.6383 38.2708 37.3785 38.4741 37.119C38.6795 36.8568 38.8839 36.6061 39.0656 36.3756C39.243 36.1507 39.3958 35.9489 39.4801 35.8045L39.2642 35.6785C39.1902 35.8053 39.0486 35.9935 38.8693 36.2208C38.6943 36.4427 38.4797 36.7066 38.2773 36.9648C38.0729 37.2258 37.872 37.4923 37.7133 37.7346C37.5572 37.9728 37.4319 38.2024 37.3925 38.3862L37.637 38.4385ZM39.4801 35.8045C39.6587 35.4985 39.6752 35.1453 39.51 34.8479C39.345 34.5509 39.0112 34.3307 38.5303 34.2593L38.4936 34.5066C38.9182 34.5696 39.1733 34.7566 39.2914 34.9693C39.4093 35.1815 39.4031 35.4404 39.2642 35.6785L39.4801 35.8045ZM38.5304 34.2594C38.3282 34.2292 38.1885 34.1504 38.0951 34.0483C38.0009 33.9454 37.9458 33.8104 37.9284 33.6559C37.8932 33.3431 38.0156 32.969 38.2452 32.6981L38.0545 32.5364C37.786 32.8533 37.6362 33.2944 37.68 33.6838C37.7021 33.8804 37.7742 34.0681 37.9107 34.2171C38.0479 34.367 38.2425 34.4692 38.4935 34.5066L38.5304 34.2594ZM38.2452 32.6981C38.3869 32.531 38.4487 32.3534 38.4282 32.1767C38.4082 32.003 38.3111 31.8515 38.1781 31.728C37.9143 31.4831 37.4778 31.3176 37.0306 31.2705L37.0044 31.5191C37.4173 31.5626 37.7961 31.7145 38.008 31.9113C38.1128 32.0086 38.1687 32.109 38.1799 32.2054C38.1907 32.2989 38.1619 32.4097 38.0545 32.5364L38.2452 32.6981ZM37.0306 31.2705C36.6148 31.2267 36.0823 31.0622 35.7535 30.8296C35.5879 30.7125 35.494 30.5923 35.4709 30.4801C35.4499 30.3786 35.4804 30.2477 35.6531 30.0855L35.4819 29.9033C35.2698 30.1025 35.1817 30.3161 35.226 30.5307C35.2682 30.7347 35.4236 30.9024 35.6091 31.0337C35.9827 31.2979 36.5599 31.4722 37.0044 31.5191L37.0306 31.2705ZM35.6535 30.0851C35.8329 29.9151 35.9437 29.8707 36.0128 29.8669C36.0761 29.8635 36.1344 29.8926 36.2189 29.9665L36.3834 29.7782C36.2874 29.6943 36.1646 29.6083 35.9992 29.6173C35.8395 29.626 35.6737 29.7215 35.4815 29.9037L35.6535 30.0851ZM36.4183 29.916C36.4834 29.7415 36.5494 29.546 36.5858 29.3789C36.6039 29.2959 36.6161 29.2139 36.6151 29.1422C36.6143 29.0769 36.6025 28.9886 36.5397 28.9269L36.3645 29.1052C36.3532 29.0942 36.3645 29.0949 36.3651 29.1455C36.3657 29.1898 36.3579 29.2506 36.3415 29.3257C36.309 29.4749 36.2481 29.657 36.1841 29.8287L36.4183 29.916ZM36.5409 28.9281C36.4709 28.8574 36.3755 28.8286 36.3179 28.8079C36.252 28.7843 36.2008 28.7628 36.1553 28.7192C36.0655 28.6333 35.9591 28.4197 35.982 27.7815L35.7322 27.7725C35.7089 28.4196 35.8088 28.7336 35.9825 28.8998C36.0687 28.9824 36.1636 29.0182 36.2335 29.0433C36.3118 29.0714 36.3422 29.0827 36.3633 29.1041L36.5409 28.9281ZM35.982 27.7814C35.9931 27.4685 36.0291 27.255 36.0761 27.0856C36.1235 26.9149 36.1824 26.7863 36.2469 26.6339C36.3789 26.3222 36.509 25.9627 36.5334 25.1203L36.2836 25.1131C36.26 25.923 36.1371 26.252 36.0167 26.5364C35.9551 26.6821 35.888 26.8286 35.8352 27.0188C35.7821 27.2104 35.7438 27.4438 35.7322 27.7726L35.982 27.7814ZM36.5335 25.12C36.5548 24.311 36.7229 23.6703 36.8879 23.1182C37.0507 22.5736 37.2201 22.0913 37.2201 21.6315H36.9701C36.9701 22.0444 36.818 22.4794 36.6484 23.0466C36.4811 23.6063 36.3058 24.2717 36.2835 25.1134L36.5335 25.12ZM37.2201 21.6315C37.2201 21.4505 37.3019 21.2494 37.4566 21.0183C37.6106 20.7883 37.8268 20.5427 38.0764 20.2735C38.5707 19.7402 39.1905 19.1209 39.6341 18.3954L39.4208 18.265C38.9937 18.9635 38.3973 19.5596 37.8931 20.1035C37.6434 20.3728 37.4149 20.6311 37.2488 20.8792C37.0835 21.1262 36.9701 21.3774 36.9701 21.6315H37.2201ZM39.634 18.3956C40.0631 17.6961 40.744 16.9012 41.4179 16.2162C42.0926 15.5303 42.7503 14.9647 43.1287 14.7197L42.9929 14.5099C42.5913 14.7698 41.9185 15.3508 41.2397 16.0409C40.56 16.7318 39.8642 17.5422 39.4209 18.2649L39.634 18.3956ZM43.1287 14.7197C43.508 14.4742 44.0665 14.2511 44.5746 14.0238C44.8245 13.912 45.062 13.799 45.2496 13.6835C45.4306 13.5722 45.5927 13.4426 45.6553 13.2873L45.4234 13.1939C45.3939 13.267 45.2977 13.3604 45.1186 13.4706C44.9461 13.5768 44.7216 13.6841 44.4725 13.7956C43.9823 14.015 43.3935 14.2505 42.9929 14.5099L43.1287 14.7197ZM45.6555 13.2867C45.6849 13.2127 45.7033 13.1097 45.7153 12.9953C45.7275 12.8781 45.734 12.7388 45.7354 12.5866C45.7382 12.2821 45.7206 11.9195 45.6858 11.5662C45.651 11.2134 45.5986 10.8658 45.5306 10.5925C45.4967 10.4562 45.4579 10.3341 45.4135 10.2377C45.3723 10.1484 45.3143 10.0539 45.2276 10.01L45.1148 10.2331C45.1147 10.2331 45.1232 10.2378 45.1381 10.2575C45.1525 10.2766 45.1689 10.3044 45.1864 10.3424C45.2216 10.4187 45.2559 10.5239 45.288 10.6529C45.352 10.91 45.4028 11.2444 45.437 11.5907C45.4711 11.9365 45.4881 12.29 45.4854 12.5844C45.4841 12.7316 45.4778 12.8625 45.4666 12.9692C45.4552 13.0788 45.4394 13.1536 45.4232 13.1945L45.6555 13.2867Z" fill="#868686"/>
</g>
<defs>
<filter id="filter0_d_877_3322" x="0.439453" y="0.0107422" width="49.2969" height="89.1836" filterUnits="userSpaceOnUse" color-interpolation-filters="sRGB">
<feFlood flood-opacity="0" result="BackgroundImageFix"/>
<feColorMatrix in="SourceAlpha" type="matrix" values="0 0 0 0 0 0 0 0 0 0 0 0 0 0 0 0 0 0 127 0" result="hardAlpha"/>
<feOffset dy="2"/>
<feGaussianBlur stdDeviation="2"/>
<feColorMatrix type="matrix" values="0 0 0 0 0 0 0 0 0 0 0 0 0 0 0 0 0 0 0.01 0"/>
<feBlend mode="normal" in2="BackgroundImageFix" result="effect1_dropShadow_877_3322"/>
<feBlend mode="normal" in="SourceGraphic" in2="effect1_dropShadow_877_3322" result="shape"/>
</filter>
</defs>
</svg>
