<svg width="21" height="21" viewBox="0 0 21 21" fill="none" xmlns="http://www.w3.org/2000/svg">
<g filter="url(#filter0_d_877_3427)">
<path fill-rule="evenodd" clip-rule="evenodd" d="M15.4409 4.70641L15.2324 3.24326L14.3023 2.39746C14.0284 2.62853 13.641 2.84478 13.6114 3.06102C13.5651 3.3758 12.7067 3.3322 12.3437 3.15083C11.9817 2.96947 11.0307 3.37667 10.8484 3.64785C10.6678 3.9199 10.0327 3.15083 9.58075 3.1953C9.12796 3.24152 8.04091 3.64785 8.04091 3.64785C8.04091 3.64785 7.86032 4.91481 7.86032 5.41444C7.86032 5.91058 8.53907 6.00301 8.53907 6.41022C8.53907 6.81655 7.99554 7.17841 7.9493 7.45047C7.90481 7.72252 7.54275 7.90301 7.08909 8.03991C6.63717 8.17506 6.68166 8.90053 6.32048 9.16997C5.95667 9.44289 6.04741 10.1221 5.82057 10.6192C5.59374 11.1171 5.45939 11.7972 5.45939 12.3831C5.45939 12.8566 5.39832 13.5245 5.11914 13.8663C5.69756 13.9265 5.84762 13.8358 6.13814 13.6885C6.55603 13.4827 8.22848 13.0633 8.22848 13.0633L9.93234 12.9255C10.3101 11.8582 10.8685 10.8903 11.4818 10.7098C12.2766 10.477 13.3575 10.5695 14.2064 10.7796C14.4393 10.1631 14.6583 9.66699 14.8118 9.51178C15.3362 8.9886 16.0673 7.94399 16.1728 7.10866C16.2758 6.27245 16.2758 5.43711 16.2758 5.43711L15.4409 4.70641Z" fill="white"/>
<path fill-rule="evenodd" clip-rule="evenodd" d="M15.4409 4.70641L15.2324 3.24326L14.3023 2.39746C14.0284 2.62853 13.641 2.84478 13.6114 3.06102C13.5651 3.3758 12.7067 3.3322 12.3437 3.15083C11.9817 2.96947 11.0307 3.37667 10.8484 3.64785C10.6678 3.9199 10.0327 3.15083 9.58075 3.1953C9.12796 3.24152 8.04091 3.64785 8.04091 3.64785C8.04091 3.64785 7.86032 4.91481 7.86032 5.41444C7.86032 5.91058 8.53907 6.00301 8.53907 6.41022C8.53907 6.81655 7.99554 7.17841 7.9493 7.45047C7.90481 7.72252 7.54275 7.90301 7.08909 8.03991C6.63717 8.17506 6.68166 8.90053 6.32048 9.16997C5.95667 9.44289 6.04741 10.1221 5.82057 10.6192C5.59374 11.1171 5.45939 11.7972 5.45939 12.3831C5.45939 12.8566 5.39832 13.5245 5.11914 13.8663C5.69756 13.9265 5.84762 13.8358 6.13814 13.6885C6.55603 13.4827 8.22848 13.0633 8.22848 13.0633L9.93234 12.9255C10.3101 11.8582 10.8685 10.8903 11.4818 10.7098C12.2766 10.477 13.3575 10.5695 14.2064 10.7796C14.4393 10.1631 14.6583 9.66699 14.8118 9.51178C15.3362 8.9886 16.0673 7.94399 16.1728 7.10866C16.2758 6.27245 16.2758 5.43711 16.2758 5.43711L15.4409 4.70641Z" stroke="#868686" stroke-width="0.25"/>
</g>
<defs>
<filter id="filter0_d_877_3427" x="0.875" y="0.231445" width="19.5254" height="19.7783" filterUnits="userSpaceOnUse" color-interpolation-filters="sRGB">
<feFlood flood-opacity="0" result="BackgroundImageFix"/>
<feColorMatrix in="SourceAlpha" type="matrix" values="0 0 0 0 0 0 0 0 0 0 0 0 0 0 0 0 0 0 127 0" result="hardAlpha"/>
<feOffset dy="2"/>
<feGaussianBlur stdDeviation="2"/>
<feColorMatrix type="matrix" values="0 0 0 0 0 0 0 0 0 0 0 0 0 0 0 0 0 0 0.01 0"/>
<feBlend mode="normal" in2="BackgroundImageFix" result="effect1_dropShadow_877_3427"/>
<feBlend mode="normal" in="SourceGraphic" in2="effect1_dropShadow_877_3427" result="shape"/>
</filter>
</defs>
</svg>
