<svg width="20" height="22" viewBox="0 0 20 22" fill="none" xmlns="http://www.w3.org/2000/svg">
<g filter="url(#filter0_d_877_3246)">
<path fill-rule="evenodd" clip-rule="evenodd" d="M10.109 14.5577C11.1193 14.5577 10.7415 13.9264 10.3611 12.9166C9.98335 11.9087 10.9945 12.0351 11.6244 12.0351C12.2569 12.0351 12.003 10.8989 12.5082 10.8989C13.0142 10.8989 13.1381 12.2862 13.6441 12.1598C14.1492 12.0342 14.5278 12.5382 15.1586 12.4135C15.7902 12.2862 15.7902 11.0236 15.7902 10.0156C15.7902 9.00416 15.9176 8.24991 15.286 7.87061C14.6535 7.48956 14.1492 6.60714 14.9074 6.22784C15.6655 5.85115 15.7902 5.09168 15.1586 4.58856C14.527 4.08282 13.1381 5.09168 13.1381 4.58856C13.1381 4.31215 13.2515 3.32683 13.3544 2.48452C11.8922 2.43656 10.3192 2.35547 10.3192 2.35547L9.94235 2.46534C10.0305 3.94418 9.85772 5.09429 9.85772 5.09429C9.85772 5.09429 7.58592 5.2216 7.07991 5.2216C6.96998 5.2216 6.6245 5.26868 6.13506 5.34455C6.03212 5.5076 5.8934 5.66891 5.78784 5.77442C5.51651 6.04647 6.42209 6.40921 6.5739 6.80072C6.72483 7.19223 5.42578 7.07277 5.45544 7.64652C5.48685 8.2194 5.00352 8.67281 4.64059 8.94312C4.27853 9.21517 5.60724 10.3635 5.63691 10.7533C5.66744 11.1466 5.9693 11.5076 7.11829 12.6254C8.21232 13.6901 7.68886 13.9612 9.1371 15.1401C9.32816 14.8411 9.63176 14.5577 10.109 14.5577Z" fill="white"/>
<path fill-rule="evenodd" clip-rule="evenodd" d="M10.109 14.5577C11.1193 14.5577 10.7415 13.9264 10.3611 12.9166C9.98335 11.9087 10.9945 12.0351 11.6244 12.0351C12.2569 12.0351 12.003 10.8989 12.5082 10.8989C13.0142 10.8989 13.1381 12.2862 13.6441 12.1598C14.1492 12.0342 14.5278 12.5382 15.1586 12.4135C15.7902 12.2862 15.7902 11.0236 15.7902 10.0156C15.7902 9.00416 15.9176 8.24991 15.286 7.87061C14.6535 7.48956 14.1492 6.60714 14.9074 6.22784C15.6655 5.85115 15.7902 5.09168 15.1586 4.58856C14.527 4.08282 13.1381 5.09168 13.1381 4.58856C13.1381 4.31215 13.2515 3.32683 13.3544 2.48452C11.8922 2.43656 10.3192 2.35547 10.3192 2.35547L9.94235 2.46534C10.0305 3.94418 9.85772 5.09429 9.85772 5.09429C9.85772 5.09429 7.58592 5.2216 7.07991 5.2216C6.96998 5.2216 6.6245 5.26868 6.13506 5.34455C6.03212 5.5076 5.8934 5.66891 5.78784 5.77442C5.51651 6.04647 6.42209 6.40921 6.5739 6.80072C6.72483 7.19223 5.42578 7.07277 5.45544 7.64652C5.48685 8.2194 5.00352 8.67281 4.64059 8.94312C4.27853 9.21517 5.60724 10.3635 5.63691 10.7533C5.66744 11.1466 5.9693 11.5076 7.11829 12.6254C8.21232 13.6901 7.68886 13.9612 9.1371 15.1401C9.32816 14.8411 9.63176 14.5577 10.109 14.5577Z" stroke="#868686" stroke-width="0.25"/>
</g>
<defs>
<filter id="filter0_d_877_3246" x="0.453125" y="0.229492" width="19.4727" height="21.0957" filterUnits="userSpaceOnUse" color-interpolation-filters="sRGB">
<feFlood flood-opacity="0" result="BackgroundImageFix"/>
<feColorMatrix in="SourceAlpha" type="matrix" values="0 0 0 0 0 0 0 0 0 0 0 0 0 0 0 0 0 0 127 0" result="hardAlpha"/>
<feOffset dy="2"/>
<feGaussianBlur stdDeviation="2"/>
<feColorMatrix type="matrix" values="0 0 0 0 0 0 0 0 0 0 0 0 0 0 0 0 0 0 0.01 0"/>
<feBlend mode="normal" in2="BackgroundImageFix" result="effect1_dropShadow_877_3246"/>
<feBlend mode="normal" in="SourceGraphic" in2="effect1_dropShadow_877_3246" result="shape"/>
</filter>
</defs>
</svg>
