<svg width="24" height="17" viewBox="0 0 24 17" fill="none" xmlns="http://www.w3.org/2000/svg">
<g filter="url(#filter0_d_877_3280)">
<path fill-rule="evenodd" clip-rule="evenodd" d="M16.8666 3.69076C16.3275 3.08301 14.9787 3.08301 14.9787 3.08301C14.9787 3.08301 14.8435 3.69076 14.6402 4.02734C14.4709 4.30985 13.4912 4.30549 12.863 4.13633C12.6851 4.36915 11.8685 4.55139 11.7559 4.88796C11.6198 5.29604 10.6235 5.06933 10.9402 6.15492C11.2569 7.24138 10.4438 6.88039 10.1254 6.74436C9.80779 6.60921 8.40318 6.78971 8.042 7.15157C7.67906 7.51431 7.18091 7.42275 6.86334 7.24225C6.54665 7.06263 5.91414 6.9702 5.64107 7.42275C5.36974 7.87617 4.87158 7.06263 4.46241 7.1071C4.05673 7.15244 4.23733 8.01219 4.23733 8.19356C4.23733 8.37406 4.87246 8.91642 5.27814 8.73679C5.68643 8.55542 6.18546 8.78213 6.54665 9.00884C6.90871 9.23555 7.5892 8.82748 7.81516 8.60164C8.042 8.37406 9.30964 8.37406 9.44573 8.37406C9.58096 8.37406 9.62633 9.09953 9.85403 9.23468C10.08 9.36983 10.9402 9.46139 11.7114 9.50673C12.4809 9.5512 13.6133 9.91394 13.9754 9.91394C14.3375 9.91394 14.9263 9.27915 15.7403 9.27915C16.556 9.27915 17.008 8.78213 17.1441 8.8266C17.1475 8.82748 17.1502 8.83096 17.1519 8.83358C17.2104 8.58158 17.3055 8.37842 17.4826 8.35226C17.8141 8.30692 17.5768 7.73927 17.8141 7.45588C18.0505 7.17424 17.6239 6.6066 18.0505 6.65281C18.4745 6.70164 18.9465 6.74785 18.9465 6.13487C18.9465 5.92734 19.0582 5.7451 19.2196 5.59163C18.7528 4.93767 18.4169 3.89306 18.4169 3.89306C18.4169 3.89306 17.4075 4.29678 16.8666 3.69076Z" fill="white"/>
<path fill-rule="evenodd" clip-rule="evenodd" d="M16.8666 3.69076C16.3275 3.08301 14.9787 3.08301 14.9787 3.08301C14.9787 3.08301 14.8435 3.69076 14.6402 4.02734C14.4709 4.30985 13.4912 4.30549 12.863 4.13633C12.6851 4.36915 11.8685 4.55139 11.7559 4.88796C11.6198 5.29604 10.6235 5.06933 10.9402 6.15492C11.2569 7.24138 10.4438 6.88039 10.1254 6.74436C9.80779 6.60921 8.40318 6.78971 8.042 7.15157C7.67906 7.51431 7.18091 7.42275 6.86334 7.24225C6.54665 7.06263 5.91414 6.9702 5.64107 7.42275C5.36974 7.87617 4.87158 7.06263 4.46241 7.1071C4.05673 7.15244 4.23733 8.01219 4.23733 8.19356C4.23733 8.37406 4.87246 8.91642 5.27814 8.73679C5.68643 8.55542 6.18546 8.78213 6.54665 9.00884C6.90871 9.23555 7.5892 8.82748 7.81516 8.60164C8.042 8.37406 9.30964 8.37406 9.44573 8.37406C9.58096 8.37406 9.62633 9.09953 9.85403 9.23468C10.08 9.36983 10.9402 9.46139 11.7114 9.50673C12.4809 9.5512 13.6133 9.91394 13.9754 9.91394C14.3375 9.91394 14.9263 9.27915 15.7403 9.27915C16.556 9.27915 17.008 8.78213 17.1441 8.8266C17.1475 8.82748 17.1502 8.83096 17.1519 8.83358C17.2104 8.58158 17.3055 8.37842 17.4826 8.35226C17.8141 8.30692 17.5768 7.73927 17.8141 7.45588C18.0505 7.17424 17.6239 6.6066 18.0505 6.65281C18.4745 6.70164 18.9465 6.74785 18.9465 6.13487C18.9465 5.92734 19.0582 5.7451 19.2196 5.59163C18.7528 4.93767 18.4169 3.89306 18.4169 3.89306C18.4169 3.89306 17.4075 4.29678 16.8666 3.69076Z" stroke="#868686" stroke-width="0.25"/>
</g>
<defs>
<filter id="filter0_d_877_3280" x="0.0722656" y="0.958008" width="23.3125" height="15.0811" filterUnits="userSpaceOnUse" color-interpolation-filters="sRGB">
<feFlood flood-opacity="0" result="BackgroundImageFix"/>
<feColorMatrix in="SourceAlpha" type="matrix" values="0 0 0 0 0 0 0 0 0 0 0 0 0 0 0 0 0 0 127 0" result="hardAlpha"/>
<feOffset dy="2"/>
<feGaussianBlur stdDeviation="2"/>
<feColorMatrix type="matrix" values="0 0 0 0 0 0 0 0 0 0 0 0 0 0 0 0 0 0 0.01 0"/>
<feBlend mode="normal" in2="BackgroundImageFix" result="effect1_dropShadow_877_3280"/>
<feBlend mode="normal" in="SourceGraphic" in2="effect1_dropShadow_877_3280" result="shape"/>
</filter>
</defs>
</svg>
