<svg width="12" height="13" viewBox="0 0 12 13" fill="none" xmlns="http://www.w3.org/2000/svg">
<g filter="url(#filter0_d_877_3253)">
<path fill-rule="evenodd" clip-rule="evenodd" d="M7.51484 4.06615C7.89871 3.72957 8.12554 2.40768 6.5255 2.47831C6.51154 2.56464 6.50457 2.65358 6.50457 2.74688C6.50457 3.35725 5.5257 4.64077 4.98828 5.80571L5.95144 6.21553C6.45309 5.32177 7.20862 4.33384 7.51484 4.06615Z" fill="white"/>
<path fill-rule="evenodd" clip-rule="evenodd" d="M7.51484 4.06615C7.89871 3.72957 8.12554 2.40768 6.5255 2.47831C6.51154 2.56464 6.50457 2.65358 6.50457 2.74688C6.50457 3.35725 5.5257 4.64077 4.98828 5.80571L5.95144 6.21553C6.45309 5.32177 7.20862 4.33384 7.51484 4.06615Z" stroke="#868686" stroke-width="0.25"/>
</g>
<defs>
<filter id="filter0_d_877_3253" x="0.820312" y="0.350586" width="11.0977" height="12.0234" filterUnits="userSpaceOnUse" color-interpolation-filters="sRGB">
<feFlood flood-opacity="0" result="BackgroundImageFix"/>
<feColorMatrix in="SourceAlpha" type="matrix" values="0 0 0 0 0 0 0 0 0 0 0 0 0 0 0 0 0 0 127 0" result="hardAlpha"/>
<feOffset dy="2"/>
<feGaussianBlur stdDeviation="2"/>
<feColorMatrix type="matrix" values="0 0 0 0 0 0 0 0 0 0 0 0 0 0 0 0 0 0 0.01 0"/>
<feBlend mode="normal" in2="BackgroundImageFix" result="effect1_dropShadow_877_3253"/>
<feBlend mode="normal" in="SourceGraphic" in2="effect1_dropShadow_877_3253" result="shape"/>
</filter>
</defs>
</svg>
