<svg width="12" height="12" viewBox="0 0 12 12" fill="none" xmlns="http://www.w3.org/2000/svg">
<g filter="url(#filter0_d_877_3301)">
<path fill-rule="evenodd" clip-rule="evenodd" d="M6.55891 5.67507C6.50744 5.46144 6.51092 5.26001 6.59991 5.10916C6.99163 4.44473 7.23417 2.72523 6.35825 2.48369C5.48233 2.24216 4.99988 3.99218 4.99988 4.47351C4.99988 4.56419 4.94317 4.56245 4.85156 4.50141C5.28429 5.62449 6.06075 5.73959 6.55891 5.67507Z" fill="white"/>
<path fill-rule="evenodd" clip-rule="evenodd" d="M6.55891 5.67507C6.50744 5.46144 6.51092 5.26001 6.59991 5.10916C6.99163 4.44473 7.23417 2.72523 6.35825 2.48369C5.48233 2.24216 4.99988 3.99218 4.99988 4.47351C4.99988 4.56419 4.94317 4.56245 4.85156 4.50141C5.28429 5.62449 6.06075 5.73959 6.55891 5.67507Z" stroke="#868686" stroke-width="0.25"/>
</g>
<defs>
<filter id="filter0_d_877_3301" x="0.59375" y="0.335938" width="10.4863" height="11.4785" filterUnits="userSpaceOnUse" color-interpolation-filters="sRGB">
<feFlood flood-opacity="0" result="BackgroundImageFix"/>
<feColorMatrix in="SourceAlpha" type="matrix" values="0 0 0 0 0 0 0 0 0 0 0 0 0 0 0 0 0 0 127 0" result="hardAlpha"/>
<feOffset dy="2"/>
<feGaussianBlur stdDeviation="2"/>
<feColorMatrix type="matrix" values="0 0 0 0 0 0 0 0 0 0 0 0 0 0 0 0 0 0 0.01 0"/>
<feBlend mode="normal" in2="BackgroundImageFix" result="effect1_dropShadow_877_3301"/>
<feBlend mode="normal" in="SourceGraphic" in2="effect1_dropShadow_877_3301" result="shape"/>
</filter>
</defs>
</svg>
