<svg width="14" height="12" viewBox="0 0 14 12" fill="none" xmlns="http://www.w3.org/2000/svg">
<g filter="url(#filter0_d_877_3403)">
<path fill-rule="evenodd" clip-rule="evenodd" d="M7.54768 4.81322C7.48835 4.47926 7.94114 3.78606 8.63473 3.514C9.32831 3.24457 9.05698 2.73099 8.60506 3.1225C8.1514 3.514 7.06348 3.93691 5.70685 3.99707C4.3476 4.05811 3.9236 4.95274 4.77073 5.44627C5.85604 6.08018 7.60788 5.14457 7.54768 4.81322Z" fill="white"/>
<path fill-rule="evenodd" clip-rule="evenodd" d="M7.54768 4.81322C7.48835 4.47926 7.94114 3.78606 8.63473 3.514C9.32831 3.24457 9.05698 2.73099 8.60506 3.1225C8.1514 3.514 7.06348 3.93691 5.70685 3.99707C4.3476 4.05811 3.9236 4.95274 4.77073 5.44627C5.85604 6.08018 7.60788 5.14457 7.54768 4.81322Z" stroke="#868686" stroke-width="0.25"/>
</g>
<defs>
<filter id="filter0_d_877_3403" x="0.208984" y="0.855469" width="12.9727" height="10.9307" filterUnits="userSpaceOnUse" color-interpolation-filters="sRGB">
<feFlood flood-opacity="0" result="BackgroundImageFix"/>
<feColorMatrix in="SourceAlpha" type="matrix" values="0 0 0 0 0 0 0 0 0 0 0 0 0 0 0 0 0 0 127 0" result="hardAlpha"/>
<feOffset dy="2"/>
<feGaussianBlur stdDeviation="2"/>
<feColorMatrix type="matrix" values="0 0 0 0 0 0 0 0 0 0 0 0 0 0 0 0 0 0 0.01 0"/>
<feBlend mode="normal" in2="BackgroundImageFix" result="effect1_dropShadow_877_3403"/>
<feBlend mode="normal" in="SourceGraphic" in2="effect1_dropShadow_877_3403" result="shape"/>
</filter>
</defs>
</svg>
