<svg width="39" height="33" viewBox="0 0 39 33" fill="none" xmlns="http://www.w3.org/2000/svg">
<g filter="url(#filter0_d_877_3252)">
<path fill-rule="evenodd" clip-rule="evenodd" d="M6.29921 17.8447C6.5496 18.4778 7.68725 19.1065 8.06588 20.1162C8.44365 21.1268 9.45479 21.6308 9.95906 21.6308C10.3359 21.6308 10.0803 22.2647 9.92591 23.4235C10.165 23.5203 10.4241 23.6066 10.5933 23.7034C10.9109 23.8839 12.2248 23.7034 12.6776 24.1098C13.1303 24.5187 14.5794 25.4692 15.0322 25.4692C15.4868 25.4692 17.1156 25.6932 17.3869 25.8755C17.66 26.0577 18.0212 25.1971 18.7462 24.7882C19.4712 24.3818 20.3776 24.1106 20.5137 24.4272C20.6472 24.7446 21.148 25.0166 21.5092 24.837C21.6575 24.7611 22.0684 24.6513 22.5273 24.5484C23.1947 24.3975 23.9659 24.2658 24.1823 24.2929C24.5435 24.3365 25.5389 22.8899 26.8528 22.8899C28.1658 22.8899 28.5279 23.1157 29.1176 22.4801C29.7074 21.847 34.1446 17.3669 34.552 17.0486C34.9612 16.7321 34.2807 16.597 33.827 16.597C33.3751 16.597 32.4678 16.5508 31.0195 15.9622C29.5704 15.3727 27.3065 14.6037 26.8982 14.5139C26.4899 14.424 25.9001 13.4736 25.538 13.2914C25.1769 13.1117 24.4519 11.8448 24.2704 11.435C24.2093 11.2955 24.3533 11.0051 24.5819 10.6755C24.1369 10.2596 23.9136 10.1453 23.6178 10.3424C23.2366 10.5961 22.5997 10.6624 22.4723 10.4052C22.3449 10.1523 22.0902 9.19577 22.5369 8.68829C22.9827 8.17907 23.555 7.22515 23.555 7.22515C23.555 7.22515 19.671 3.08857 19.2243 3.02492C18.7793 2.96301 17.5073 3.15397 17.1889 3.02492C16.8705 2.89848 16.9341 2.7084 16.2981 3.02492C15.6604 3.34406 15.4065 2.83483 15.0253 2.51831C14.6423 2.19917 14.261 2.13552 14.0699 2.77205C13.878 3.40684 13.7515 3.72336 13.4339 3.40684C13.276 3.25163 12.4856 3.26296 11.7249 3.31702C11.7249 3.32313 11.7266 3.32836 11.7283 3.33359C11.8531 4.21689 10.9685 5.22661 10.9685 5.73061C10.9685 6.23634 10.4668 6.74208 10.0864 6.74208C9.70605 6.74208 9.32829 7.75094 8.82403 8.25493C8.31802 8.75979 8.6984 9.89334 8.19239 10.2744C7.68725 10.6537 6.92998 10.7784 7.30774 11.1568C7.68725 11.5361 6.6761 12.2938 6.6761 13.049C6.6761 13.8093 6.54873 15.194 6.4231 15.3204C6.29834 15.4477 4.7838 15.0684 4.7838 15.6997C4.7838 16.3301 4.15042 16.3301 4.40342 16.8368C4.65643 17.3434 6.04446 17.2143 6.29921 17.8447Z" fill="white"/>
<path fill-rule="evenodd" clip-rule="evenodd" d="M6.29921 17.8447C6.5496 18.4778 7.68725 19.1065 8.06588 20.1162C8.44365 21.1268 9.45479 21.6308 9.95906 21.6308C10.3359 21.6308 10.0803 22.2647 9.92591 23.4235C10.165 23.5203 10.4241 23.6066 10.5933 23.7034C10.9109 23.8839 12.2248 23.7034 12.6776 24.1098C13.1303 24.5187 14.5794 25.4692 15.0322 25.4692C15.4868 25.4692 17.1156 25.6932 17.3869 25.8755C17.66 26.0577 18.0212 25.1971 18.7462 24.7882C19.4712 24.3818 20.3776 24.1106 20.5137 24.4272C20.6472 24.7446 21.148 25.0166 21.5092 24.837C21.6575 24.7611 22.0684 24.6513 22.5273 24.5484C23.1947 24.3975 23.9659 24.2658 24.1823 24.2929C24.5435 24.3365 25.5389 22.8899 26.8528 22.8899C28.1658 22.8899 28.5279 23.1157 29.1176 22.4801C29.7074 21.847 34.1446 17.3669 34.552 17.0486C34.9612 16.7321 34.2807 16.597 33.827 16.597C33.3751 16.597 32.4678 16.5508 31.0195 15.9622C29.5704 15.3727 27.3065 14.6037 26.8982 14.5139C26.4899 14.424 25.9001 13.4736 25.538 13.2914C25.1769 13.1117 24.4519 11.8448 24.2704 11.435C24.2093 11.2955 24.3533 11.0051 24.5819 10.6755C24.1369 10.2596 23.9136 10.1453 23.6178 10.3424C23.2366 10.5961 22.5997 10.6624 22.4723 10.4052C22.3449 10.1523 22.0902 9.19577 22.5369 8.68829C22.9827 8.17907 23.555 7.22515 23.555 7.22515C23.555 7.22515 19.671 3.08857 19.2243 3.02492C18.7793 2.96301 17.5073 3.15397 17.1889 3.02492C16.8705 2.89848 16.9341 2.7084 16.2981 3.02492C15.6604 3.34406 15.4065 2.83483 15.0253 2.51831C14.6423 2.19917 14.261 2.13552 14.0699 2.77205C13.878 3.40684 13.7515 3.72336 13.4339 3.40684C13.276 3.25163 12.4856 3.26296 11.7249 3.31702C11.7249 3.32313 11.7266 3.32836 11.7283 3.33359C11.8531 4.21689 10.9685 5.22661 10.9685 5.73061C10.9685 6.23634 10.4668 6.74208 10.0864 6.74208C9.70605 6.74208 9.32829 7.75094 8.82403 8.25493C8.31802 8.75979 8.6984 9.89334 8.19239 10.2744C7.68725 10.6537 6.92998 10.7784 7.30774 11.1568C7.68725 11.5361 6.6761 12.2938 6.6761 13.049C6.6761 13.8093 6.54873 15.194 6.4231 15.3204C6.29834 15.4477 4.7838 15.0684 4.7838 15.6997C4.7838 16.3301 4.15042 16.3301 4.40342 16.8368C4.65643 17.3434 6.04446 17.2143 6.29921 17.8447Z" stroke="#868686" stroke-width="0.25"/>
</g>
<defs>
<filter id="filter0_d_877_3252" x="0.21875" y="0.158203" width="38.584" height="31.8672" filterUnits="userSpaceOnUse" color-interpolation-filters="sRGB">
<feFlood flood-opacity="0" result="BackgroundImageFix"/>
<feColorMatrix in="SourceAlpha" type="matrix" values="0 0 0 0 0 0 0 0 0 0 0 0 0 0 0 0 0 0 127 0" result="hardAlpha"/>
<feOffset dy="2"/>
<feGaussianBlur stdDeviation="2"/>
<feColorMatrix type="matrix" values="0 0 0 0 0 0 0 0 0 0 0 0 0 0 0 0 0 0 0.01 0"/>
<feBlend mode="normal" in2="BackgroundImageFix" result="effect1_dropShadow_877_3252"/>
<feBlend mode="normal" in="SourceGraphic" in2="effect1_dropShadow_877_3252" result="shape"/>
</filter>
</defs>
</svg>
