<svg width="16" height="18" viewBox="0 0 16 18" fill="none" xmlns="http://www.w3.org/2000/svg">
<g filter="url(#filter0_d_877_3255)">
<path fill-rule="evenodd" clip-rule="evenodd" d="M5.67302 3.05886C5.48806 3.24198 4.94017 3.58378 4.47081 3.96221C4.70113 4.34588 4.65576 5.00159 5.10594 5.04344C5.74019 5.10448 5.68 6.07061 4.9838 5.91889C4.29021 5.76804 4.28847 6.8545 4.89306 7.79012C5.49766 8.72486 3.74669 9.78167 4.23002 10.2647C4.71247 10.7461 4.32075 11.3207 4.531 11.6232C4.74213 11.9241 7.30969 11.502 8.42641 10.3563C9.54399 9.20792 9.84498 9.35964 10.419 9.51136C10.9931 9.66134 11.5663 9.08759 11.2635 8.63504C10.9617 8.18075 10.6293 7.06552 10.72 5.67649C10.7741 4.8708 9.67398 3.41201 8.60613 2.24707C8.27548 2.51302 7.97536 2.65428 7.5278 2.65428C6.80107 2.65515 5.99582 2.73537 5.67302 3.05886Z" fill="white"/>
<path fill-rule="evenodd" clip-rule="evenodd" d="M5.67302 3.05886C5.48806 3.24198 4.94017 3.58378 4.47081 3.96221C4.70113 4.34588 4.65576 5.00159 5.10594 5.04344C5.74019 5.10448 5.68 6.07061 4.9838 5.91889C4.29021 5.76804 4.28847 6.8545 4.89306 7.79012C5.49766 8.72486 3.74669 9.78167 4.23002 10.2647C4.71247 10.7461 4.32075 11.3207 4.531 11.6232C4.74213 11.9241 7.30969 11.502 8.42641 10.3563C9.54399 9.20792 9.84498 9.35964 10.419 9.51136C10.9931 9.66134 11.5663 9.08759 11.2635 8.63504C10.9617 8.18075 10.6293 7.06552 10.72 5.67649C10.7741 4.8708 9.67398 3.41201 8.60613 2.24707C8.27548 2.51302 7.97536 2.65428 7.5278 2.65428C6.80107 2.65515 5.99582 2.73537 5.67302 3.05886Z" stroke="#868686" stroke-width="0.25"/>
</g>
<defs>
<filter id="filter0_d_877_3255" x="0.0195312" y="0.0761719" width="15.4531" height="17.7656" filterUnits="userSpaceOnUse" color-interpolation-filters="sRGB">
<feFlood flood-opacity="0" result="BackgroundImageFix"/>
<feColorMatrix in="SourceAlpha" type="matrix" values="0 0 0 0 0 0 0 0 0 0 0 0 0 0 0 0 0 0 127 0" result="hardAlpha"/>
<feOffset dy="2"/>
<feGaussianBlur stdDeviation="2"/>
<feColorMatrix type="matrix" values="0 0 0 0 0 0 0 0 0 0 0 0 0 0 0 0 0 0 0.01 0"/>
<feBlend mode="normal" in2="BackgroundImageFix" result="effect1_dropShadow_877_3255"/>
<feBlend mode="normal" in="SourceGraphic" in2="effect1_dropShadow_877_3255" result="shape"/>
</filter>
</defs>
</svg>
