<svg width="20" height="24" viewBox="0 0 20 24" fill="none" xmlns="http://www.w3.org/2000/svg">
<g filter="url(#filter0_d_877_3334)">
<path fill-rule="evenodd" clip-rule="evenodd" d="M7.4362 3.83489C6.92233 4.12787 6.18862 4.93443 6.70248 5.22828C7.21634 5.52213 7.36291 6.25632 6.40935 6.32956C5.45491 6.40281 5.38162 6.7699 5.45491 7.28349C5.52906 7.7962 4.79535 8.01506 5.23505 8.38128C5.52645 8.6263 6.1703 9.47821 6.57336 10.0275C6.71557 9.75985 6.89965 9.53837 7.31057 9.5968C8.16729 9.718 7.4929 11.0068 8.16729 11.3111C8.84168 11.6189 8.84168 12.6617 8.35225 13.0288C7.86107 13.3959 7.67786 15.4197 8.78061 16.6431C9.88598 17.8682 10.7427 17.6851 10.9887 17.379C11.2339 17.0738 12.0924 17.379 12.3384 16.8899C12.5835 16.3998 12.8898 16.9509 13.3801 16.3998C13.6636 16.0807 14.2525 16.2507 14.8074 16.3955C14.3572 15.6238 13.7727 14.5809 13.5982 14.1031C13.3068 13.2974 11.5445 12.3435 11.9118 11.9772C12.2782 11.611 12.1316 10.2891 12.7188 10.2159C13.3068 10.1426 13.9663 9.84966 13.6723 9.26196C13.5249 8.96724 13.7116 8.48505 13.8983 7.95577C13.3347 7.89996 12.4989 6.26765 12.0173 6.26765C11.4729 6.26765 10.8395 5.81598 10.9756 5.04691C11.1117 4.27784 9.708 4.18629 8.93765 3.32741C8.75618 3.12075 8.49009 2.97078 8.18649 2.85742C7.92825 3.35357 7.64645 3.71456 7.4362 3.83489Z" fill="white"/>
<path fill-rule="evenodd" clip-rule="evenodd" d="M7.4362 3.83489C6.92233 4.12787 6.18862 4.93443 6.70248 5.22828C7.21634 5.52213 7.36291 6.25632 6.40935 6.32956C5.45491 6.40281 5.38162 6.7699 5.45491 7.28349C5.52906 7.7962 4.79535 8.01506 5.23505 8.38128C5.52645 8.6263 6.1703 9.47821 6.57336 10.0275C6.71557 9.75985 6.89965 9.53837 7.31057 9.5968C8.16729 9.718 7.4929 11.0068 8.16729 11.3111C8.84168 11.6189 8.84168 12.6617 8.35225 13.0288C7.86107 13.3959 7.67786 15.4197 8.78061 16.6431C9.88598 17.8682 10.7427 17.6851 10.9887 17.379C11.2339 17.0738 12.0924 17.379 12.3384 16.8899C12.5835 16.3998 12.8898 16.9509 13.3801 16.3998C13.6636 16.0807 14.2525 16.2507 14.8074 16.3955C14.3572 15.6238 13.7727 14.5809 13.5982 14.1031C13.3068 13.2974 11.5445 12.3435 11.9118 11.9772C12.2782 11.611 12.1316 10.2891 12.7188 10.2159C13.3068 10.1426 13.9663 9.84966 13.6723 9.26196C13.5249 8.96724 13.7116 8.48505 13.8983 7.95577C13.3347 7.89996 12.4989 6.26765 12.0173 6.26765C11.4729 6.26765 10.8395 5.81598 10.9756 5.04691C11.1117 4.27784 9.708 4.18629 8.93765 3.32741C8.75618 3.12075 8.49009 2.97078 8.18649 2.85742C7.92825 3.35357 7.64645 3.71456 7.4362 3.83489Z" stroke="#868686" stroke-width="0.25"/>
</g>
<defs>
<filter id="filter0_d_877_3334" x="0.96875" y="0.701172" width="18.0977" height="23.0283" filterUnits="userSpaceOnUse" color-interpolation-filters="sRGB">
<feFlood flood-opacity="0" result="BackgroundImageFix"/>
<feColorMatrix in="SourceAlpha" type="matrix" values="0 0 0 0 0 0 0 0 0 0 0 0 0 0 0 0 0 0 127 0" result="hardAlpha"/>
<feOffset dy="2"/>
<feGaussianBlur stdDeviation="2"/>
<feColorMatrix type="matrix" values="0 0 0 0 0 0 0 0 0 0 0 0 0 0 0 0 0 0 0.01 0"/>
<feBlend mode="normal" in2="BackgroundImageFix" result="effect1_dropShadow_877_3334"/>
<feBlend mode="normal" in="SourceGraphic" in2="effect1_dropShadow_877_3334" result="shape"/>
</filter>
</defs>
</svg>
