<svg width="27" height="27" viewBox="0 0 27 27" fill="none" xmlns="http://www.w3.org/2000/svg">
<g filter="url(#filter0_d_877_3326)">
<path fill-rule="evenodd" clip-rule="evenodd" d="M22.0211 12.3821C21.2856 12.0124 20.5502 12.7483 20.3042 12.7483C20.059 12.7483 19.5076 11.157 19.3235 10.4847C19.1395 9.80806 18.4049 8.45914 17.9137 8.7652C17.4234 9.07212 17.5464 8.64399 16.1374 8.58208C14.7267 8.52105 14.7878 8.2769 15.094 6.92711C15.4002 5.57993 14.1745 4.72279 14.725 4.41673C15.1429 4.18654 15.1045 3.91972 14.6386 3.32591C14.5243 3.40003 14.4057 3.44799 14.2949 3.44799C13.8115 3.44799 13.2069 2.60044 12.3624 2.60044C11.5162 2.60044 10.6106 2.54115 10.0069 2.84198C9.40227 3.14629 8.25502 2.78181 7.53004 3.26575C6.80505 3.74794 5.90034 4.77337 5.96053 5.19627C6.02073 5.62004 5.71887 8.21324 5.35681 8.33445C5.24776 8.3702 4.9773 8.35101 4.65625 8.31614C5.13958 9.15496 6.57036 10.6547 7.49165 11.2171C8.59614 11.8912 8.53333 12.5042 9.76084 12.6271C10.9875 12.7474 11.5999 13.2392 12.03 13.7912C12.4584 14.3422 15.5861 15.2604 15.8303 15.6912C16.0746 16.1184 14.2364 17.3444 14.2364 18.4466C14.2364 19.5505 13.5611 19.4284 13.5611 19.7964C13.5611 20.1634 14.9719 19.9184 15.463 20.2227C15.9533 20.5314 16.8109 20.0414 17.4234 20.4076C18.0367 20.7764 18.712 19.9176 19.2023 20.0414C19.6935 20.1634 20.1829 19.1842 20.7962 19.2444C21.4095 19.3046 21.9609 17.1003 21.8379 16.2422C21.7149 15.3834 22.7574 12.7474 22.0211 12.3821Z" fill="white"/>
<path fill-rule="evenodd" clip-rule="evenodd" d="M22.0211 12.3821C21.2856 12.0124 20.5502 12.7483 20.3042 12.7483C20.059 12.7483 19.5076 11.157 19.3235 10.4847C19.1395 9.80806 18.4049 8.45914 17.9137 8.7652C17.4234 9.07212 17.5464 8.64399 16.1374 8.58208C14.7267 8.52105 14.7878 8.2769 15.094 6.92711C15.4002 5.57993 14.1745 4.72279 14.725 4.41673C15.1429 4.18654 15.1045 3.91972 14.6386 3.32591C14.5243 3.40003 14.4057 3.44799 14.2949 3.44799C13.8115 3.44799 13.2069 2.60044 12.3624 2.60044C11.5162 2.60044 10.6106 2.54115 10.0069 2.84198C9.40227 3.14629 8.25502 2.78181 7.53004 3.26575C6.80505 3.74794 5.90034 4.77337 5.96053 5.19627C6.02073 5.62004 5.71887 8.21324 5.35681 8.33445C5.24776 8.3702 4.9773 8.35101 4.65625 8.31614C5.13958 9.15496 6.57036 10.6547 7.49165 11.2171C8.59614 11.8912 8.53333 12.5042 9.76084 12.6271C10.9875 12.7474 11.5999 13.2392 12.03 13.7912C12.4584 14.3422 15.5861 15.2604 15.8303 15.6912C16.0746 16.1184 14.2364 17.3444 14.2364 18.4466C14.2364 19.5505 13.5611 19.4284 13.5611 19.7964C13.5611 20.1634 14.9719 19.9184 15.463 20.2227C15.9533 20.5314 16.8109 20.0414 17.4234 20.4076C18.0367 20.7764 18.712 19.9176 19.2023 20.0414C19.6935 20.1634 20.1829 19.1842 20.7962 19.2444C21.4095 19.3046 21.9609 17.1003 21.8379 16.2422C21.7149 15.3834 22.7574 12.7474 22.0211 12.3821Z" stroke="#868686" stroke-width="0.25"/>
</g>
<defs>
<filter id="filter0_d_877_3326" x="0.425781" y="0.470703" width="25.9863" height="26.1543" filterUnits="userSpaceOnUse" color-interpolation-filters="sRGB">
<feFlood flood-opacity="0" result="BackgroundImageFix"/>
<feColorMatrix in="SourceAlpha" type="matrix" values="0 0 0 0 0 0 0 0 0 0 0 0 0 0 0 0 0 0 127 0" result="hardAlpha"/>
<feOffset dy="2"/>
<feGaussianBlur stdDeviation="2"/>
<feColorMatrix type="matrix" values="0 0 0 0 0 0 0 0 0 0 0 0 0 0 0 0 0 0 0.01 0"/>
<feBlend mode="normal" in2="BackgroundImageFix" result="effect1_dropShadow_877_3326"/>
<feBlend mode="normal" in="SourceGraphic" in2="effect1_dropShadow_877_3326" result="shape"/>
</filter>
</defs>
</svg>
