<svg width="43" height="23" viewBox="0 0 43 23" fill="none" xmlns="http://www.w3.org/2000/svg">
<g filter="url(#filter0_d_877_3342)">
<path fill-rule="evenodd" clip-rule="evenodd" d="M37.3126 6.6594C36.5562 5.80749 36.038 5.28955 35.8495 5.52498C35.6602 5.76215 34.8567 5.85632 34.2913 5.52498C33.7243 5.19538 33.4407 4.58065 33.0159 4.58065C32.6206 4.58065 31.2553 3.80722 30.4945 3.16895C30.4867 3.26835 30.4841 3.36601 30.4928 3.44884C30.5382 3.85518 29.8585 4.12723 29.089 4.1717C28.3196 4.21791 28.4103 5.07854 28.4103 5.66449C28.4103 6.25394 27.7752 6.25394 27.5038 6.88785C27.2325 7.52089 27.5946 7.65779 26.9603 7.97518C26.3261 8.28996 26.1455 8.83581 26.5067 9.37817C26.8687 9.91965 26.4613 10.4184 26.3714 10.7349C26.2816 11.0523 26.9158 11.1892 27.5492 11.7761C28.1843 12.3655 28.2742 11.5493 28.5464 12.0019C28.8177 12.4562 28.3649 13.2715 27.6399 13.2715C27.585 13.2715 27.5291 13.2863 27.4733 13.2985C27.8493 13.6883 28.0474 14.0946 27.8685 14.3483C27.5387 14.8218 27.2552 14.8218 27.8685 15.386C28.4827 15.951 28.9085 15.1017 29.4275 15.8097C29.9466 16.5178 30.3715 16.9424 30.8906 15.7164C31.4097 14.487 31.7883 12.7439 32.7314 12.4614C33.6763 12.1763 35.6122 11.8013 36.7455 10.2885C37.8779 8.78 37.2785 8.69455 37.8779 8.2141C38.3516 7.83916 38.069 7.50869 37.3126 6.6594ZM5.08587 6.07431C4.18029 7.43283 5.97924 8.75733 6.35351 8.15568C6.80718 7.43283 5.99233 4.71667 5.08587 6.07431Z" fill="white"/>
<path d="M37.3126 6.6594L37.2191 6.74239L37.2192 6.74253L37.3126 6.6594ZM35.8495 5.52498L35.7519 5.44687L35.7518 5.447L35.8495 5.52498ZM34.2913 5.52498L34.3546 5.41714L34.3542 5.41691L34.2913 5.52498ZM30.4945 3.16895L30.5749 3.07318L30.389 2.91726L30.3699 3.1591L30.4945 3.16895ZM30.4928 3.44884L30.3685 3.46194L30.3686 3.46271L30.4928 3.44884ZM29.089 4.1717L29.0818 4.04691L29.0816 4.04692L29.089 4.1717ZM27.5038 6.88785L27.6187 6.93709L27.6188 6.93704L27.5038 6.88785ZM26.9603 7.97518L27.0159 8.08715L27.0163 8.08697L26.9603 7.97518ZM26.5067 9.37817L26.4026 9.44745L26.4027 9.44765L26.5067 9.37817ZM26.3714 10.7349L26.2512 10.7008L26.2512 10.7009L26.3714 10.7349ZM27.5492 11.7761L27.6342 11.6844L27.6342 11.6844L27.5492 11.7761ZM28.5464 12.0019L28.6537 11.9378L28.6535 11.9375L28.5464 12.0019ZM27.4733 13.2985L27.4466 13.1764L27.2279 13.2242L27.3833 13.3853L27.4733 13.2985ZM27.8685 14.3483L27.7663 14.2763L27.7659 14.2769L27.8685 14.3483ZM27.8685 15.386L27.9531 15.294L27.9531 15.294L27.8685 15.386ZM30.8906 15.7164L31.0057 15.7652L31.0058 15.7651L30.8906 15.7164ZM32.7314 12.4614L32.7673 12.5812L32.7676 12.5811L32.7314 12.4614ZM36.7455 10.2885L36.6455 10.2134L36.6455 10.2135L36.7455 10.2885ZM37.8779 8.2141L37.8003 8.11608L37.7997 8.11657L37.8779 8.2141ZM5.08587 6.07431L4.98191 6.0049L4.98186 6.00498L5.08587 6.07431ZM6.35351 8.15568L6.24764 8.08923L6.24737 8.08965L6.35351 8.15568ZM37.406 6.57641C37.0287 6.15146 36.7041 5.80194 36.4481 5.58844C36.3216 5.48293 36.2007 5.40089 36.0905 5.36444C36.0341 5.34577 35.9726 5.33635 35.911 5.34859C35.8466 5.36143 35.7926 5.39602 35.7519 5.44687L35.9471 5.60309C35.9535 5.59508 35.957 5.59436 35.9599 5.59378C35.9657 5.59262 35.9815 5.59169 36.012 5.60178C36.0756 5.62285 36.1668 5.6794 36.288 5.78044C36.5273 5.98003 36.84 6.31543 37.2191 6.74239L37.406 6.57641ZM35.7518 5.447C35.7263 5.47897 35.6671 5.51934 35.5661 5.55307C35.4684 5.5857 35.3445 5.60777 35.2065 5.61327C34.9292 5.62433 34.612 5.56802 34.3546 5.41714L34.2281 5.63282C34.536 5.81328 34.9033 5.87556 35.2164 5.86307C35.3736 5.85681 35.5214 5.83157 35.6453 5.79019C35.7658 5.74992 35.8781 5.68957 35.9472 5.60296L35.7518 5.447ZM34.3542 5.41691C34.0884 5.26245 33.8899 5.04206 33.6887 4.84083C33.5908 4.74299 33.4901 4.64786 33.3835 4.5775C33.2753 4.50614 33.1541 4.45565 33.0159 4.45565V4.70565C33.09 4.70565 33.1636 4.732 33.2458 4.7862C33.3295 4.84141 33.4148 4.92056 33.5119 5.0176C33.7004 5.20613 33.9272 5.45791 34.2285 5.63305L34.3542 5.41691ZM33.0159 4.45565C32.9451 4.45565 32.8068 4.41741 32.6107 4.33466C32.4209 4.25456 32.1938 4.14028 31.9535 4.00519C31.4725 3.73472 30.9478 3.38605 30.5749 3.07318L30.4142 3.26471C30.802 3.59011 31.3404 3.9473 31.831 4.22311C32.0766 4.36116 32.3124 4.48013 32.5136 4.56499C32.7084 4.64721 32.889 4.70565 33.0159 4.70565V4.45565ZM30.3699 3.1591C30.3618 3.26149 30.3586 3.36793 30.3685 3.46194L30.6171 3.43575C30.6096 3.36408 30.6115 3.27521 30.6191 3.17879L30.3699 3.1591ZM30.3686 3.46271C30.3817 3.58017 30.2939 3.71319 30.0426 3.83317C29.8014 3.94836 29.4564 4.02526 29.0818 4.04691L29.0963 4.29649C29.4912 4.27367 29.8707 4.19231 30.1504 4.05877C30.42 3.93002 30.6493 3.72385 30.617 3.43497L30.3686 3.46271ZM29.0816 4.04692C28.8642 4.05998 28.6959 4.132 28.5715 4.25215C28.4493 4.37028 28.38 4.52483 28.3398 4.68539C28.2614 4.99916 28.2853 5.38517 28.2853 5.66449H28.5353C28.5353 5.35786 28.5138 5.02058 28.5824 4.74599C28.6158 4.61238 28.6681 4.50649 28.7452 4.43194C28.8203 4.35941 28.9292 4.30653 29.0965 4.29647L29.0816 4.04692ZM28.2853 5.66449C28.2853 5.78659 28.2533 5.87242 28.2038 5.94436C28.1516 6.0203 28.0771 6.08539 27.9811 6.16158C27.7941 6.31001 27.5393 6.48742 27.3889 6.83867L27.6188 6.93704C27.7397 6.65437 27.9382 6.51482 28.1365 6.35741C28.2332 6.28068 28.3345 6.19563 28.4098 6.08598C28.4879 5.97233 28.5353 5.83712 28.5353 5.66449H28.2853ZM27.3889 6.83861C27.2448 7.17483 27.2633 7.40523 27.2445 7.53156C27.2357 7.59117 27.2203 7.6331 27.181 7.67767C27.1372 7.72724 27.0577 7.78669 26.9044 7.8634L27.0163 8.08697C27.1801 8.00498 27.2932 7.9283 27.3684 7.84316C27.448 7.753 27.478 7.66163 27.4918 7.56821C27.5185 7.38849 27.4915 7.23391 27.6187 6.93709L27.3889 6.83861ZM26.9047 7.86322C26.5672 8.03072 26.3339 8.26809 26.2413 8.55265C26.1479 8.83978 26.2054 9.1513 26.4026 9.44745L26.6107 9.30888C26.4467 9.06268 26.4139 8.83009 26.4791 8.63002C26.545 8.42737 26.7191 8.23443 27.0159 8.08715L26.9047 7.86322ZM26.4027 9.44765C26.5571 9.6785 26.5495 9.8973 26.4885 10.1058C26.4573 10.2125 26.4127 10.3143 26.3675 10.414C26.3243 10.5094 26.2768 10.6104 26.2512 10.7008L26.4917 10.7691C26.5109 10.7012 26.5481 10.6212 26.5952 10.5171C26.6404 10.4174 26.6918 10.3013 26.7285 10.176C26.8032 9.92064 26.8183 9.61932 26.6106 9.30869L26.4027 9.44765ZM26.2512 10.7009C26.2144 10.8308 26.2574 10.9409 26.3333 11.03C26.4033 11.1123 26.5087 11.1863 26.621 11.2593C26.8537 11.4105 27.1577 11.5837 27.4643 11.8677L27.6342 11.6844C27.3073 11.3816 26.9775 11.1929 26.7572 11.0497C26.643 10.9754 26.5671 10.919 26.5237 10.868C26.4861 10.8238 26.4836 10.7977 26.4917 10.769L26.2512 10.7009ZM27.4642 11.8677C27.6332 12.0246 27.7809 12.1022 27.9183 12.1203C28.0588 12.1388 28.1663 12.0921 28.2436 12.0502C28.2624 12.0399 28.2803 12.0295 28.2955 12.0207C28.3114 12.0115 28.3242 12.0042 28.3361 11.998C28.3613 11.985 28.371 11.9835 28.3731 11.9833C28.3733 11.9833 28.373 11.9833 28.3724 11.9833C28.3718 11.9832 28.3712 11.9831 28.3709 11.983C28.3699 11.9827 28.3719 11.983 28.3768 11.9867C28.3881 11.9951 28.4093 12.0165 28.4393 12.0663L28.6535 11.9375C28.5792 11.8139 28.4869 11.7254 28.357 11.7338C28.3025 11.7374 28.2556 11.7582 28.2213 11.7759C28.2035 11.7851 28.1859 11.7952 28.1703 11.8043C28.154 11.8137 28.1394 11.8222 28.1242 11.8305C28.0656 11.8623 28.0146 11.8808 27.951 11.8724C27.8844 11.8637 27.7828 11.8223 27.6342 11.6844L27.4642 11.8677ZM28.4391 12.066C28.5417 12.2379 28.5164 12.5021 28.3621 12.7388C28.2108 12.9707 27.9527 13.1465 27.6399 13.1465V13.3965C28.0521 13.3965 28.3829 13.1646 28.5715 12.8753C28.757 12.5908 28.8224 12.2202 28.6537 11.9378L28.4391 12.066ZM27.6399 13.1465C27.5676 13.1465 27.4937 13.1661 27.4466 13.1764L27.5 13.4206C27.5645 13.4065 27.6023 13.3965 27.6399 13.3965V13.1465ZM27.3833 13.3853C27.5654 13.574 27.6973 13.7598 27.7632 13.9216C27.8295 14.0843 27.8209 14.1989 27.7663 14.2763L27.9707 14.4204C28.095 14.244 28.0768 14.0286 27.9947 13.8273C27.9123 13.625 27.7572 13.4127 27.5633 13.2117L27.3833 13.3853ZM27.7659 14.2769C27.6877 14.3893 27.6134 14.472 27.5475 14.5504C27.4864 14.623 27.4203 14.7049 27.3943 14.8002C27.3647 14.9086 27.3906 15.0124 27.4576 15.1189C27.5215 15.2206 27.6293 15.3358 27.7839 15.478L27.9531 15.294C27.8011 15.1541 27.7143 15.0577 27.6692 14.9859C27.6271 14.9189 27.6296 14.8874 27.6354 14.8661C27.6448 14.8317 27.6731 14.7895 27.7388 14.7113C27.7996 14.639 27.8845 14.5441 27.9711 14.4198L27.7659 14.2769ZM27.7839 15.478C27.9564 15.6367 28.1239 15.7023 28.2881 15.7156C28.4448 15.7283 28.5921 15.6917 28.7099 15.6665C28.8352 15.6396 28.9307 15.6244 29.0227 15.646C29.1088 15.6662 29.2094 15.7236 29.3267 15.8836L29.5284 15.7358C29.3861 15.5418 29.2389 15.4399 29.0799 15.4026C28.9269 15.3667 28.7803 15.3957 28.6575 15.422C28.5272 15.4499 28.4204 15.4755 28.3083 15.4664C28.2037 15.4579 28.0877 15.4178 27.9531 15.294L27.7839 15.478ZM29.3267 15.8836C29.4568 16.0611 29.5856 16.2273 29.714 16.3549C29.8403 16.4805 29.981 16.584 30.1375 16.6115C30.3055 16.6409 30.4626 16.5786 30.6046 16.436C30.7423 16.2976 30.8737 16.0769 31.0057 15.7652L30.7755 15.6677C30.6479 15.969 30.5316 16.155 30.4274 16.2596C30.3275 16.36 30.2487 16.3772 30.1807 16.3652C30.1011 16.3513 30.0058 16.2925 29.8903 16.1776C29.7768 16.0648 29.6578 15.9124 29.5284 15.7358L29.3267 15.8836ZM31.0058 15.7651C31.1371 15.454 31.2594 15.1108 31.3822 14.7714C31.5055 14.4303 31.6296 14.0923 31.7663 13.7846C31.9031 13.4763 32.0501 13.2044 32.2169 12.9939C32.3835 12.7838 32.5642 12.642 32.7673 12.5812L32.6956 12.3417C32.4271 12.4221 32.2068 12.6042 32.021 12.8387C31.8353 13.0729 31.6783 13.3666 31.5378 13.6831C31.397 14.0001 31.2702 14.346 31.1471 14.6864C31.0234 15.0284 30.9037 15.3642 30.7755 15.6678L31.0058 15.7651ZM32.7676 12.5811C33.6928 12.3019 35.6815 11.9173 36.8455 10.3634L36.6455 10.2135C35.5429 11.6854 33.6598 12.0507 32.6953 12.3417L32.7676 12.5811ZM36.8455 10.3635C37.4201 9.59808 37.5617 9.18453 37.633 8.89573C37.6694 8.74788 37.6817 8.66592 37.7208 8.58119C37.7561 8.50481 37.8161 8.42381 37.9561 8.31163L37.7997 8.11657C37.64 8.24461 37.5502 8.35447 37.4939 8.47637C37.4414 8.58993 37.4204 8.7137 37.3902 8.83583C37.3282 9.087 37.2033 9.47042 36.6455 10.2134L36.8455 10.3635ZM37.9555 8.31212C38.0841 8.21034 38.1773 8.0994 38.2158 7.96745C38.2551 7.83283 38.2312 7.69821 38.1705 7.56335C38.1108 7.43064 38.0112 7.28798 37.8841 7.12963C37.7562 6.97039 37.5945 6.78799 37.4059 6.57626L37.2192 6.74253C37.4089 6.95545 37.5661 7.13285 37.6892 7.28615C37.813 7.44033 37.8962 7.56298 37.9425 7.66591C37.9879 7.76669 37.9931 7.83808 37.9758 7.89742C37.9577 7.95942 37.9086 8.03039 37.8003 8.11609L37.9555 8.31212ZM4.98186 6.00498C4.48846 6.74516 4.73724 7.47876 5.14685 7.9337C5.35059 8.15998 5.6012 8.32665 5.835 8.39527C6.06461 8.46266 6.32212 8.44279 6.45965 8.22171L6.24737 8.08965C6.19777 8.1694 6.09006 8.20958 5.9054 8.15539C5.72493 8.10242 5.51222 7.96587 5.33264 7.76642C4.97561 7.36989 4.7777 6.76198 5.18988 6.14365L4.98186 6.00498ZM6.45939 8.22213C6.59526 8.00564 6.62613 7.66558 6.59891 7.32464C6.57113 6.97683 6.48043 6.5984 6.3444 6.28504C6.27634 6.12824 6.19545 5.9843 6.10272 5.86781C6.01067 5.75217 5.90138 5.65662 5.77468 5.60832C5.64325 5.55822 5.50236 5.56275 5.36315 5.63258C5.22848 5.70013 5.10185 5.82528 4.98191 6.0049L5.18983 6.14372C5.29651 5.98394 5.39363 5.89698 5.47525 5.85604C5.55233 5.81737 5.62027 5.81701 5.68562 5.84192C5.75569 5.86863 5.83111 5.92801 5.90713 6.0235C5.98246 6.11814 6.05298 6.24154 6.11507 6.38458C6.23936 6.67091 6.32396 7.0222 6.3497 7.34455C6.37599 7.67376 6.3386 7.94429 6.24764 8.08923L6.45939 8.22213Z" fill="#868686"/>
</g>
<defs>
<filter id="filter0_d_877_3342" x="0.708984" y="0.916992" width="41.5254" height="21.7012" filterUnits="userSpaceOnUse" color-interpolation-filters="sRGB">
<feFlood flood-opacity="0" result="BackgroundImageFix"/>
<feColorMatrix in="SourceAlpha" type="matrix" values="0 0 0 0 0 0 0 0 0 0 0 0 0 0 0 0 0 0 127 0" result="hardAlpha"/>
<feOffset dy="2"/>
<feGaussianBlur stdDeviation="2"/>
<feColorMatrix type="matrix" values="0 0 0 0 0 0 0 0 0 0 0 0 0 0 0 0 0 0 0.01 0"/>
<feBlend mode="normal" in2="BackgroundImageFix" result="effect1_dropShadow_877_3342"/>
<feBlend mode="normal" in="SourceGraphic" in2="effect1_dropShadow_877_3342" result="shape"/>
</filter>
</defs>
</svg>
