<svg width="34" height="36" viewBox="0 0 34 36" fill="none" xmlns="http://www.w3.org/2000/svg">
<g filter="url(#filter0_d_877_3240)">
<path fill-rule="evenodd" clip-rule="evenodd" d="M6.31116 25.992C7.02829 26.1376 8.17816 25.992 8.17816 25.992C8.17816 25.992 9.18145 25.5621 9.75725 25.849C10.3304 26.1376 10.9036 26.8526 10.9036 26.8526H11.6216C11.6216 26.8526 12.1966 28.4335 13.0577 28.7186C13.5532 28.8852 13.8551 29.3316 14.0243 29.6821C14.6385 29.6682 15.1148 29.4659 15.1148 29.0238C15.1148 28.4745 15.3905 27.7429 16.3048 28.5678C17.2218 29.39 17.2218 28.6567 17.4041 28.3829C17.5882 28.1091 18.2294 28.4745 18.7782 28.4745C19.3278 28.4745 20.0607 28.1083 20.0607 28.1083C20.0607 28.1083 27.6639 28.1998 28.0303 28.0167C28.3959 27.8336 28.3051 26.278 28.3051 26.278L27.6648 25.6389L25.741 7.60239H29.181C25.509 5.1766 22.3595 3.11616 21.9599 2.88771C21.7418 2.76302 21.6293 2.64094 21.5595 2.52148C21.5953 3.94452 21.6162 5.39197 21.5133 5.46173C21.3135 5.59427 14.656 5.46173 14.656 5.46173C14.656 5.46173 14.656 10.4511 14.656 10.9167C14.656 11.3823 12.5237 11.9805 12.5237 12.447C12.5237 12.9126 12.5237 15.6419 12.5237 15.6419H4.47033C4.35429 16.9568 5.15606 17.4215 5.61496 17.9464C6.24921 18.6693 5.1325 19.9363 6.06862 21.2355C7.00299 22.5312 5.85662 24.5245 5.40383 25.25C5.1578 25.645 5.1325 26.326 5.05747 27.0244C5.09499 27.0157 5.13861 27.0044 5.16129 26.9983C5.73622 26.8535 5.59315 25.849 6.31116 25.992Z" fill="white"/>
<path fill-rule="evenodd" clip-rule="evenodd" d="M6.31116 25.992C7.02829 26.1376 8.17816 25.992 8.17816 25.992C8.17816 25.992 9.18145 25.5621 9.75725 25.849C10.3304 26.1376 10.9036 26.8526 10.9036 26.8526H11.6216C11.6216 26.8526 12.1966 28.4335 13.0577 28.7186C13.5532 28.8852 13.8551 29.3316 14.0243 29.6821C14.6385 29.6682 15.1148 29.4659 15.1148 29.0238C15.1148 28.4745 15.3905 27.7429 16.3048 28.5678C17.2218 29.39 17.2218 28.6567 17.4041 28.3829C17.5882 28.1091 18.2294 28.4745 18.7782 28.4745C19.3278 28.4745 20.0607 28.1083 20.0607 28.1083C20.0607 28.1083 27.6639 28.1998 28.0303 28.0167C28.3959 27.8336 28.3051 26.278 28.3051 26.278L27.6648 25.6389L25.741 7.60239H29.181C25.509 5.1766 22.3595 3.11616 21.9599 2.88771C21.7418 2.76302 21.6293 2.64094 21.5595 2.52148C21.5953 3.94452 21.6162 5.39197 21.5133 5.46173C21.3135 5.59427 14.656 5.46173 14.656 5.46173C14.656 5.46173 14.656 10.4511 14.656 10.9167C14.656 11.3823 12.5237 11.9805 12.5237 12.447C12.5237 12.9126 12.5237 15.6419 12.5237 15.6419H4.47033C4.35429 16.9568 5.15606 17.4215 5.61496 17.9464C6.24921 18.6693 5.1325 19.9363 6.06862 21.2355C7.00299 22.5312 5.85662 24.5245 5.40383 25.25C5.1578 25.645 5.1325 26.326 5.05747 27.0244C5.09499 27.0157 5.13861 27.0044 5.16129 26.9983C5.73622 26.8535 5.59315 25.849 6.31116 25.992Z" stroke="#868686" stroke-width="0.25"/>
</g>
<defs>
<filter id="filter0_d_877_3240" x="0.333984" y="0.458008" width="33.2637" height="35.3506" filterUnits="userSpaceOnUse" color-interpolation-filters="sRGB">
<feFlood flood-opacity="0" result="BackgroundImageFix"/>
<feColorMatrix in="SourceAlpha" type="matrix" values="0 0 0 0 0 0 0 0 0 0 0 0 0 0 0 0 0 0 127 0" result="hardAlpha"/>
<feOffset dy="2"/>
<feGaussianBlur stdDeviation="2"/>
<feColorMatrix type="matrix" values="0 0 0 0 0 0 0 0 0 0 0 0 0 0 0 0 0 0 0.01 0"/>
<feBlend mode="normal" in2="BackgroundImageFix" result="effect1_dropShadow_877_3240"/>
<feBlend mode="normal" in="SourceGraphic" in2="effect1_dropShadow_877_3240" result="shape"/>
</filter>
</defs>
</svg>
