<svg width="26" height="21" viewBox="0 0 26 21" fill="none" xmlns="http://www.w3.org/2000/svg">
<g filter="url(#filter0_d_877_3242)">
<path fill-rule="evenodd" clip-rule="evenodd" d="M21.7139 9.45628C21.4068 9.17376 20.9933 9.08657 20.886 9.08657C20.7045 9.08657 20.8406 8.09079 20.7507 7.95389C20.6591 7.81961 20.0711 8.22594 19.7091 8.09079C19.3453 7.95389 19.2109 7.36619 18.8933 7.36619C18.5758 7.36619 18.5304 7.00346 18.5304 6.59538C18.5304 6.1873 17.9433 5.78097 17.5803 5.51066C17.2174 5.23861 17.1284 4.46954 16.9007 4.33265C16.7707 4.25504 16.8213 3.6996 16.8859 3.23747C16.3232 3.22875 15.7648 3.16858 15.6156 3.01948C15.3146 2.71778 14.8915 3.14068 14.1072 3.68391C13.3229 4.22801 12.3571 4.04752 12.3571 4.40763C12.3571 4.77037 11.9933 4.95261 11.5728 4.82966C11.1479 4.71108 10.7867 4.64917 10.6052 5.31447C10.4238 5.97891 9.76161 5.55339 9.70054 6.27973C9.63859 7.00259 8.97642 6.52039 8.43115 6.22044C7.88763 5.91874 7.76723 7.72718 7.76723 7.72718C7.76723 7.72718 7.40517 8.15096 7.10244 8.99414C6.80145 9.84081 5.7746 9.59841 5.47187 9.72048C5.17001 9.84081 5.7746 10.6849 5.59313 11.0485C5.48408 11.2682 5.23806 11.9169 5.02344 12.6189C5.47012 12.6921 5.88976 13.0714 6.01714 13.2807C6.1986 13.5833 7.28565 14.729 7.82917 14.1256C8.3727 13.5214 9.88026 13.4621 10.2441 13.8248C10.6052 14.1875 10.8487 14.0062 10.908 13.6434C10.9682 13.2807 10.3051 11.9527 10.5459 11.59C10.7858 11.2298 15.4961 11.4103 15.6776 11.712C15.8581 12.0146 15.8581 11.1086 16.4627 11.1679C17.0673 11.2298 17.9729 11.5307 18.335 11.4103C18.6979 11.2883 19.1193 10.6247 19.4822 10.6247C19.8443 10.6247 20.9305 10.5654 21.1721 10.2646C21.4138 9.96114 21.8369 9.96114 21.7156 9.48157C21.7156 9.47285 21.7156 9.46587 21.7139 9.45628Z" fill="white"/>
<path fill-rule="evenodd" clip-rule="evenodd" d="M21.7139 9.45628C21.4068 9.17376 20.9933 9.08657 20.886 9.08657C20.7045 9.08657 20.8406 8.09079 20.7507 7.95389C20.6591 7.81961 20.0711 8.22594 19.7091 8.09079C19.3453 7.95389 19.2109 7.36619 18.8933 7.36619C18.5758 7.36619 18.5304 7.00346 18.5304 6.59538C18.5304 6.1873 17.9433 5.78097 17.5803 5.51066C17.2174 5.23861 17.1284 4.46954 16.9007 4.33265C16.7707 4.25504 16.8213 3.6996 16.8859 3.23747C16.3232 3.22875 15.7648 3.16858 15.6156 3.01948C15.3146 2.71778 14.8915 3.14068 14.1072 3.68391C13.3229 4.22801 12.3571 4.04752 12.3571 4.40763C12.3571 4.77037 11.9933 4.95261 11.5728 4.82966C11.1479 4.71108 10.7867 4.64917 10.6052 5.31447C10.4238 5.97891 9.76161 5.55339 9.70054 6.27973C9.63859 7.00259 8.97642 6.52039 8.43115 6.22044C7.88763 5.91874 7.76723 7.72718 7.76723 7.72718C7.76723 7.72718 7.40517 8.15096 7.10244 8.99414C6.80145 9.84081 5.7746 9.59841 5.47187 9.72048C5.17001 9.84081 5.7746 10.6849 5.59313 11.0485C5.48408 11.2682 5.23806 11.9169 5.02344 12.6189C5.47012 12.6921 5.88976 13.0714 6.01714 13.2807C6.1986 13.5833 7.28565 14.729 7.82917 14.1256C8.3727 13.5214 9.88026 13.4621 10.2441 13.8248C10.6052 14.1875 10.8487 14.0062 10.908 13.6434C10.9682 13.2807 10.3051 11.9527 10.5459 11.59C10.7858 11.2298 15.4961 11.4103 15.6776 11.712C15.8581 12.0146 15.8581 11.1086 16.4627 11.1679C17.0673 11.2298 17.9729 11.5307 18.335 11.4103C18.6979 11.2883 19.1193 10.6247 19.4822 10.6247C19.8443 10.6247 20.9305 10.5654 21.1721 10.2646C21.4138 9.96114 21.8369 9.96114 21.7156 9.48157C21.7156 9.47285 21.7156 9.46587 21.7139 9.45628Z" stroke="#868686" stroke-width="0.25"/>
</g>
<defs>
<filter id="filter0_d_877_3242" x="0.861328" y="0.793945" width="25" height="19.6299" filterUnits="userSpaceOnUse" color-interpolation-filters="sRGB">
<feFlood flood-opacity="0" result="BackgroundImageFix"/>
<feColorMatrix in="SourceAlpha" type="matrix" values="0 0 0 0 0 0 0 0 0 0 0 0 0 0 0 0 0 0 127 0" result="hardAlpha"/>
<feOffset dy="2"/>
<feGaussianBlur stdDeviation="2"/>
<feColorMatrix type="matrix" values="0 0 0 0 0 0 0 0 0 0 0 0 0 0 0 0 0 0 0.01 0"/>
<feBlend mode="normal" in2="BackgroundImageFix" result="effect1_dropShadow_877_3242"/>
<feBlend mode="normal" in="SourceGraphic" in2="effect1_dropShadow_877_3242" result="shape"/>
</filter>
</defs>
</svg>
