<svg width="43" height="40" viewBox="0 0 43 40" fill="none" xmlns="http://www.w3.org/2000/svg">
<g filter="url(#filter0_d_877_3534)">
<path fill-rule="evenodd" clip-rule="evenodd" d="M36.7415 5.53024C35.7905 5.07595 35.7007 4.26328 35.7007 3.99036C35.7007 3.75318 34.6249 3.0966 33.8398 2.481C33.7368 2.49756 33.4943 2.53593 33.2186 2.60307C33.12 2.50715 32.9874 2.42955 32.8478 2.36328C32.2327 3.01638 31.2294 3.15415 30.7758 2.99022C30.2183 2.78793 28.7736 3.24919 28.018 3.80986C27.7423 4.01303 27.382 4.09499 26.9624 4.1787C26.8568 4.24759 26.7521 4.29903 26.6579 4.30775C26.1135 4.36792 25.9321 4.91115 26.3543 5.33405C26.7774 5.75607 26.6579 6.05865 26.719 6.54171C26.7774 7.0239 26.0533 7.5061 25.7515 7.98916C25.4496 8.47136 25.8134 9.07562 25.57 9.61885C25.3301 10.163 23.5172 9.31716 23.2772 9.55782C23.0347 9.80022 23.8775 10.5257 23.9403 10.8858C24.0014 11.2485 23.2772 11.6714 22.5514 11.7316C21.8273 11.7926 21.9477 12.6969 21.8857 13.9045C21.8273 15.1131 21.104 15.2936 20.9208 14.8088C20.7402 14.3266 18.7467 14.9901 18.7467 15.5334C18.7467 16.0757 18.0828 15.9571 17.3587 15.8943C16.6337 15.8368 15.7883 16.5605 15.7272 16.8631C15.6688 17.1613 16.0308 18.6715 15.9078 18.9131C15.7883 19.1555 9.02436 20.1809 7.69739 19.9394C6.64088 19.7475 5.47618 19.6333 4.55664 19.5949C4.90649 19.9385 5.37498 20.3134 5.51544 20.691C5.78502 21.4043 6.64437 22.0574 7.61189 22.4611C8.57854 22.8648 8.09434 24.5573 8.57854 24.7186C9.06274 24.8808 9.70834 26.1686 9.06274 26.2497C8.41627 26.3317 7.85268 26.4913 7.20796 26.8148C6.56236 27.1356 5.8365 27.9413 5.91676 28.9101C5.92897 29.0374 5.94729 29.2127 5.97085 29.4176C7.61713 29.4551 9.56962 29.3748 9.77988 29.1438C10.1123 28.7819 10.8975 28.6014 11.3494 28.9031C11.8039 29.2039 13.8253 29.3243 14.6411 28.8726C15.633 28.3206 16.242 28.8726 16.2699 29.3557C16.2987 29.8378 16.7532 30.0497 17.2051 30.47C17.6588 30.8929 17.3281 31.3769 17.6283 31.8608C17.931 32.343 18.5338 32.2523 19.4098 32.6429C19.5345 32.6979 19.6383 32.7685 19.7361 32.8452C19.791 32.7816 19.8373 32.7319 19.866 32.6961C20.3502 32.1328 20.4305 31.1641 21.7208 31.4065C23.0103 31.6472 22.93 31.1641 23.6576 31.3254C24.3835 31.4858 24.8659 31.4065 25.1879 30.9243C25.5107 30.4395 24.8659 29.4734 24.4646 29.0705C24.0607 28.6668 23.4962 27.7809 23.5756 26.9752C23.6576 26.1678 22.2853 26.1678 22.2853 25.5225C22.2853 24.8799 23.5756 23.8318 23.819 23.5903C24.0607 23.3487 25.1076 24.2346 25.3501 23.7524C25.5909 23.2668 26.3177 23.5903 26.7216 23.6705C27.1255 23.7524 27.7676 22.8639 27.8488 22.1402C27.9299 21.4147 29.3014 21.3336 29.5422 21.0921C29.7847 20.8514 30.1878 19.2383 30.35 18.9148C30.5114 18.5948 31.5592 18.8363 31.5592 17.9487C31.5592 17.0619 32.0443 16.9006 32.5276 16.8204C33.0101 16.7384 32.8487 15.9336 32.9298 15.2901C33.0101 14.6448 33.3329 13.9194 33.9776 13.758C34.6232 13.5959 33.7359 12.7117 33.0101 12.8713C32.2851 13.0326 31.8009 10.9355 31.8009 10.9355C31.8009 10.9355 31.882 9.24478 31.4772 9.00325C31.0733 8.76085 31.6395 7.87406 32.5276 7.87406C33.4149 7.87406 35.0263 8.83932 35.5899 8.43735C36.1534 8.03538 37.2832 7.79384 37.606 7.63253C37.8494 7.50871 38.1888 6.7379 38.3354 6.37517C37.9629 6.1223 37.3452 5.81624 36.7415 5.53024Z" fill="white"/>
<path fill-rule="evenodd" clip-rule="evenodd" d="M36.7415 5.53024C35.7905 5.07595 35.7007 4.26328 35.7007 3.99036C35.7007 3.75318 34.6249 3.0966 33.8398 2.481C33.7368 2.49756 33.4943 2.53593 33.2186 2.60307C33.12 2.50715 32.9874 2.42955 32.8478 2.36328C32.2327 3.01638 31.2294 3.15415 30.7758 2.99022C30.2183 2.78793 28.7736 3.24919 28.018 3.80986C27.7423 4.01303 27.382 4.09499 26.9624 4.1787C26.8568 4.24759 26.7521 4.29903 26.6579 4.30775C26.1135 4.36792 25.9321 4.91115 26.3543 5.33405C26.7774 5.75607 26.6579 6.05865 26.719 6.54171C26.7774 7.0239 26.0533 7.5061 25.7515 7.98916C25.4496 8.47136 25.8134 9.07562 25.57 9.61885C25.3301 10.163 23.5172 9.31716 23.2772 9.55782C23.0347 9.80022 23.8775 10.5257 23.9403 10.8858C24.0014 11.2485 23.2772 11.6714 22.5514 11.7316C21.8273 11.7926 21.9477 12.6969 21.8857 13.9045C21.8273 15.1131 21.104 15.2936 20.9208 14.8088C20.7402 14.3266 18.7467 14.9901 18.7467 15.5334C18.7467 16.0757 18.0828 15.9571 17.3587 15.8943C16.6337 15.8368 15.7883 16.5605 15.7272 16.8631C15.6688 17.1613 16.0308 18.6715 15.9078 18.9131C15.7883 19.1555 9.02436 20.1809 7.69739 19.9394C6.64088 19.7475 5.47618 19.6333 4.55664 19.5949C4.90649 19.9385 5.37498 20.3134 5.51544 20.691C5.78502 21.4043 6.64437 22.0574 7.61189 22.4611C8.57854 22.8648 8.09434 24.5573 8.57854 24.7186C9.06274 24.8808 9.70834 26.1686 9.06274 26.2497C8.41627 26.3317 7.85268 26.4913 7.20796 26.8148C6.56236 27.1356 5.8365 27.9413 5.91676 28.9101C5.92897 29.0374 5.94729 29.2127 5.97085 29.4176C7.61713 29.4551 9.56962 29.3748 9.77988 29.1438C10.1123 28.7819 10.8975 28.6014 11.3494 28.9031C11.8039 29.2039 13.8253 29.3243 14.6411 28.8726C15.633 28.3206 16.242 28.8726 16.2699 29.3557C16.2987 29.8378 16.7532 30.0497 17.2051 30.47C17.6588 30.8929 17.3281 31.3769 17.6283 31.8608C17.931 32.343 18.5338 32.2523 19.4098 32.6429C19.5345 32.6979 19.6383 32.7685 19.7361 32.8452C19.791 32.7816 19.8373 32.7319 19.866 32.6961C20.3502 32.1328 20.4305 31.1641 21.7208 31.4065C23.0103 31.6472 22.93 31.1641 23.6576 31.3254C24.3835 31.4858 24.8659 31.4065 25.1879 30.9243C25.5107 30.4395 24.8659 29.4734 24.4646 29.0705C24.0607 28.6668 23.4962 27.7809 23.5756 26.9752C23.6576 26.1678 22.2853 26.1678 22.2853 25.5225C22.2853 24.8799 23.5756 23.8318 23.819 23.5903C24.0607 23.3487 25.1076 24.2346 25.3501 23.7524C25.5909 23.2668 26.3177 23.5903 26.7216 23.6705C27.1255 23.7524 27.7676 22.8639 27.8488 22.1402C27.9299 21.4147 29.3014 21.3336 29.5422 21.0921C29.7847 20.8514 30.1878 19.2383 30.35 18.9148C30.5114 18.5948 31.5592 18.8363 31.5592 17.9487C31.5592 17.0619 32.0443 16.9006 32.5276 16.8204C33.0101 16.7384 32.8487 15.9336 32.9298 15.2901C33.0101 14.6448 33.3329 13.9194 33.9776 13.758C34.6232 13.5959 33.7359 12.7117 33.0101 12.8713C32.2851 13.0326 31.8009 10.9355 31.8009 10.9355C31.8009 10.9355 31.882 9.24478 31.4772 9.00325C31.0733 8.76085 31.6395 7.87406 32.5276 7.87406C33.4149 7.87406 35.0263 8.83932 35.5899 8.43735C36.1534 8.03538 37.2832 7.79384 37.606 7.63253C37.8494 7.50871 38.1888 6.7379 38.3354 6.37517C37.9629 6.1223 37.3452 5.81624 36.7415 5.53024Z" stroke="#868686" stroke-width="0.25"/>
</g>
<defs>
<filter id="filter0_d_877_3534" x="0.236328" y="0.210938" width="42.252" height="38.8066" filterUnits="userSpaceOnUse" color-interpolation-filters="sRGB">
<feFlood flood-opacity="0" result="BackgroundImageFix"/>
<feColorMatrix in="SourceAlpha" type="matrix" values="0 0 0 0 0 0 0 0 0 0 0 0 0 0 0 0 0 0 127 0" result="hardAlpha"/>
<feOffset dy="2"/>
<feGaussianBlur stdDeviation="2"/>
<feColorMatrix type="matrix" values="0 0 0 0 0 0 0 0 0 0 0 0 0 0 0 0 0 0 0.01 0"/>
<feBlend mode="normal" in2="BackgroundImageFix" result="effect1_dropShadow_877_3534"/>
<feBlend mode="normal" in="SourceGraphic" in2="effect1_dropShadow_877_3534" result="shape"/>
</filter>
</defs>
</svg>
