<svg width="52" height="44" viewBox="0 0 52 44" fill="none" xmlns="http://www.w3.org/2000/svg">
<g filter="url(#filter0_d_877_3299)">
<path fill-rule="evenodd" clip-rule="evenodd" d="M29.8429 9.84804C29.8429 9.84804 26.6978 9.44694 26.2136 9.44694C25.7294 9.44694 24.5219 9.28563 23.7961 8.6395C23.0685 7.99338 19.522 5.33478 18.8773 5.01302C18.2308 4.69127 15.5708 2.75727 14.8441 2.6753C14.1182 2.59508 14.0388 2.6753 13.1507 2.6753C12.2634 2.6753 12.6673 3.23946 11.0551 3.32055C9.44109 3.40164 8.55558 4.44974 9.0389 4.61018C9.5231 4.77149 11.0551 6.1396 10.5709 6.382C10.0876 6.62353 10.0073 7.349 9.3617 7.349C8.7161 7.349 8.07138 7.43097 8.07138 7.91316C8.07138 8.39535 7.18499 9.20105 6.45826 9.12344C6.04385 9.07635 5.13478 8.61247 4.42811 8.22184L4.21698 8.80692L4.13672 9.35974C4.2798 9.787 4.0678 11.5466 4.48133 11.6844C4.93325 11.8344 5.17491 12.6496 6.13982 13.7065C7.10647 14.7607 9.06769 17.5998 9.0991 18.2912C9.12876 18.987 9.46116 19.7413 10.6677 20.5557C11.8769 21.371 11.8769 22.3641 12.5103 22.8507C13.1446 23.3329 12.9945 23.9049 13.025 25.1134C13.0538 26.3211 13.5982 27.8897 14.6861 28.5551C15.7714 29.2177 16.527 29.9406 17.04 31.2407C17.553 32.5364 18.2186 33.6534 18.9122 34.3492C19.6058 35.0407 19.2141 35.4034 19.6058 35.917C19.8073 36.1795 20.0865 36.6303 20.2784 37.1003C20.815 36.8448 21.1892 36.6468 21.2224 36.5875C21.3367 36.353 20.9877 35.7104 21.1639 35.4767C21.3367 35.2439 21.6874 34.8349 22.039 34.7189C22.3871 34.6021 22.7954 35.0703 23.5553 34.9544C24.3134 34.8366 25.889 35.011 26.0644 35.1854C26.2371 35.3624 28.399 35.2447 28.9225 35.6545C29.4485 36.0626 29.9737 35.9458 30.3245 35.1288C30.6734 34.3126 33.1232 32.5626 33.4739 32.3856C33.8229 32.2112 36.4507 32.3856 37.5011 32.1528C38.5506 31.9191 45.4367 29.7034 45.729 29.4706C46.0204 29.2387 47.1283 25.6218 47.1283 25.2128C47.1283 24.8048 46.604 23.6956 46.0779 23.754C45.551 23.8116 41.2342 23.346 40.9419 23.1724C40.7064 23.0303 39.5609 22.1671 39.4012 20.9795C39.0618 20.7196 38.671 20.1598 38.5558 19.6733C38.0577 19.7378 37.2812 19.6227 36.8485 18.4996C36.448 18.2258 35.3872 16.7199 35.758 16.2988C36.2107 15.7878 35.5172 14.7005 34.8515 14.0971C34.1884 13.4937 32.8292 12.3767 32.7673 11.6835C32.7524 11.4908 32.6495 11.1769 32.5116 10.8168L30.8872 10.7331L29.8429 9.84804Z" fill="white"/>
<path fill-rule="evenodd" clip-rule="evenodd" d="M29.8429 9.84804C29.8429 9.84804 26.6978 9.44694 26.2136 9.44694C25.7294 9.44694 24.5219 9.28563 23.7961 8.6395C23.0685 7.99338 19.522 5.33478 18.8773 5.01302C18.2308 4.69127 15.5708 2.75727 14.8441 2.6753C14.1182 2.59508 14.0388 2.6753 13.1507 2.6753C12.2634 2.6753 12.6673 3.23946 11.0551 3.32055C9.44109 3.40164 8.55558 4.44974 9.0389 4.61018C9.5231 4.77149 11.0551 6.1396 10.5709 6.382C10.0876 6.62353 10.0073 7.349 9.3617 7.349C8.7161 7.349 8.07138 7.43097 8.07138 7.91316C8.07138 8.39535 7.18499 9.20105 6.45826 9.12344C6.04385 9.07635 5.13478 8.61247 4.42811 8.22184L4.21698 8.80692L4.13672 9.35974C4.2798 9.787 4.0678 11.5466 4.48133 11.6844C4.93325 11.8344 5.17491 12.6496 6.13982 13.7065C7.10647 14.7607 9.06769 17.5998 9.0991 18.2912C9.12876 18.987 9.46116 19.7413 10.6677 20.5557C11.8769 21.371 11.8769 22.3641 12.5103 22.8507C13.1446 23.3329 12.9945 23.9049 13.025 25.1134C13.0538 26.3211 13.5982 27.8897 14.6861 28.5551C15.7714 29.2177 16.527 29.9406 17.04 31.2407C17.553 32.5364 18.2186 33.6534 18.9122 34.3492C19.6058 35.0407 19.2141 35.4034 19.6058 35.917C19.8073 36.1795 20.0865 36.6303 20.2784 37.1003C20.815 36.8448 21.1892 36.6468 21.2224 36.5875C21.3367 36.353 20.9877 35.7104 21.1639 35.4767C21.3367 35.2439 21.6874 34.8349 22.039 34.7189C22.3871 34.6021 22.7954 35.0703 23.5553 34.9544C24.3134 34.8366 25.889 35.011 26.0644 35.1854C26.2371 35.3624 28.399 35.2447 28.9225 35.6545C29.4485 36.0626 29.9737 35.9458 30.3245 35.1288C30.6734 34.3126 33.1232 32.5626 33.4739 32.3856C33.8229 32.2112 36.4507 32.3856 37.5011 32.1528C38.5506 31.9191 45.4367 29.7034 45.729 29.4706C46.0204 29.2387 47.1283 25.6218 47.1283 25.2128C47.1283 24.8048 46.604 23.6956 46.0779 23.754C45.551 23.8116 41.2342 23.346 40.9419 23.1724C40.7064 23.0303 39.5609 22.1671 39.4012 20.9795C39.0618 20.7196 38.671 20.1598 38.5558 19.6733C38.0577 19.7378 37.2812 19.6227 36.8485 18.4996C36.448 18.2258 35.3872 16.7199 35.758 16.2988C36.2107 15.7878 35.5172 14.7005 34.8515 14.0971C34.1884 13.4937 32.8292 12.3767 32.7673 11.6835C32.7524 11.4908 32.6495 11.1769 32.5116 10.8168L30.8872 10.7331L29.8429 9.84804Z" stroke="#868686" stroke-width="0.25"/>
</g>
<defs>
<filter id="filter0_d_877_3299" x="0.0078125" y="0.514648" width="51.2461" height="42.7549" filterUnits="userSpaceOnUse" color-interpolation-filters="sRGB">
<feFlood flood-opacity="0" result="BackgroundImageFix"/>
<feColorMatrix in="SourceAlpha" type="matrix" values="0 0 0 0 0 0 0 0 0 0 0 0 0 0 0 0 0 0 127 0" result="hardAlpha"/>
<feOffset dy="2"/>
<feGaussianBlur stdDeviation="2"/>
<feColorMatrix type="matrix" values="0 0 0 0 0 0 0 0 0 0 0 0 0 0 0 0 0 0 0.01 0"/>
<feBlend mode="normal" in2="BackgroundImageFix" result="effect1_dropShadow_877_3299"/>
<feBlend mode="normal" in="SourceGraphic" in2="effect1_dropShadow_877_3299" result="shape"/>
</filter>
</defs>
</svg>
