<svg width="15" height="14" viewBox="0 0 15 14" fill="none" xmlns="http://www.w3.org/2000/svg">
<g filter="url(#filter0_d_877_3291)">
<path fill-rule="evenodd" clip-rule="evenodd" d="M5.74571 6.97903C5.76491 6.96421 5.79195 6.95461 5.82336 6.94502C5.82947 6.94415 5.83296 6.94153 5.84168 6.93979C5.87309 6.93194 5.91322 6.92671 5.9551 6.92322C5.9612 6.92061 5.96731 6.92061 5.97254 6.92061C6.1479 6.90491 6.38433 6.91537 6.62687 6.90753C6.6417 6.90666 6.65915 6.90666 6.6766 6.90666C6.73156 6.90404 6.78303 6.89968 6.83887 6.89619C6.85893 6.8927 6.88162 6.8927 6.90255 6.89009C6.97235 6.8805 7.04214 6.87003 7.1067 6.85259C7.64936 6.71831 7.78633 6.12974 8.05678 6.26402C8.32985 6.39918 9.77896 5.6615 9.95955 5.39032C9.98311 5.35806 9.99445 5.32841 9.99794 5.29789C10.0276 5.08949 9.63762 4.9648 9.59749 4.72589C9.55213 4.45558 8.60205 3.54874 8.46508 3.41359C8.43716 3.38481 8.42582 3.33424 8.42058 3.27407C8.42058 3.26797 8.41709 3.26187 8.41709 3.25663C8.4136 3.19211 8.41709 3.11712 8.42582 3.03516C7.00899 3.24007 4.90818 3.67779 4.90818 3.67779C4.90818 3.67779 4.85671 3.63942 4.78691 3.59234C4.57055 4.28119 4.42834 5.22639 4.56619 5.71033C4.69967 6.18642 5.13152 6.51776 5.74571 6.97903Z" fill="white"/>
<path fill-rule="evenodd" clip-rule="evenodd" d="M5.74571 6.97903C5.76491 6.96421 5.79195 6.95461 5.82336 6.94502C5.82947 6.94415 5.83296 6.94153 5.84168 6.93979C5.87309 6.93194 5.91322 6.92671 5.9551 6.92322C5.9612 6.92061 5.96731 6.92061 5.97254 6.92061C6.1479 6.90491 6.38433 6.91537 6.62687 6.90753C6.6417 6.90666 6.65915 6.90666 6.6766 6.90666C6.73156 6.90404 6.78303 6.89968 6.83887 6.89619C6.85893 6.8927 6.88162 6.8927 6.90255 6.89009C6.97235 6.8805 7.04214 6.87003 7.1067 6.85259C7.64936 6.71831 7.78633 6.12974 8.05678 6.26402C8.32985 6.39918 9.77896 5.6615 9.95955 5.39032C9.98311 5.35806 9.99445 5.32841 9.99794 5.29789C10.0276 5.08949 9.63762 4.9648 9.59749 4.72589C9.55213 4.45558 8.60205 3.54874 8.46508 3.41359C8.43716 3.38481 8.42582 3.33424 8.42058 3.27407C8.42058 3.26797 8.41709 3.26187 8.41709 3.25663C8.4136 3.19211 8.41709 3.11712 8.42582 3.03516C7.00899 3.24007 4.90818 3.67779 4.90818 3.67779C4.90818 3.67779 4.85671 3.63942 4.78691 3.59234C4.57055 4.28119 4.42834 5.22639 4.56619 5.71033C4.69967 6.18642 5.13152 6.51776 5.74571 6.97903Z" stroke="#868686" stroke-width="0.25"/>
</g>
<defs>
<filter id="filter0_d_877_3291" x="0.386719" y="0.888672" width="13.7383" height="12.1904" filterUnits="userSpaceOnUse" color-interpolation-filters="sRGB">
<feFlood flood-opacity="0" result="BackgroundImageFix"/>
<feColorMatrix in="SourceAlpha" type="matrix" values="0 0 0 0 0 0 0 0 0 0 0 0 0 0 0 0 0 0 127 0" result="hardAlpha"/>
<feOffset dy="2"/>
<feGaussianBlur stdDeviation="2"/>
<feColorMatrix type="matrix" values="0 0 0 0 0 0 0 0 0 0 0 0 0 0 0 0 0 0 0.01 0"/>
<feBlend mode="normal" in2="BackgroundImageFix" result="effect1_dropShadow_877_3291"/>
<feBlend mode="normal" in="SourceGraphic" in2="effect1_dropShadow_877_3291" result="shape"/>
</filter>
</defs>
</svg>
