<svg width="33" height="34" viewBox="0 0 33 34" fill="none" xmlns="http://www.w3.org/2000/svg">
<g filter="url(#filter0_d_877_3218)">
<path fill-rule="evenodd" clip-rule="evenodd" d="M5.69581 25.504C6.20618 25.504 5.89908 26.2173 6.61361 25.9112C7.329 25.606 7.94057 25.606 8.55476 26.0167C9.16634 26.4231 9.67845 26.5242 10.393 26.5242C11.1066 26.5242 17.4387 26.5242 17.4387 26.5242L18.1541 27.2392C18.1541 27.2392 22.0338 26.9332 22.6463 27.2392C23.2596 27.5453 25.1981 27.2392 25.8114 27.0352C25.917 26.9994 26.1177 26.9515 26.3715 26.9018L24.0421 23.7191L24.2507 16.9292L27.2823 17.0338L27.8049 16.5106L28.2368 12.456C28.0771 12.3784 27.893 12.3462 27.6837 12.4342C27.0494 12.7063 26.5068 12.6165 25.8725 12.6165C25.2382 12.6165 25.1493 13.2521 24.7863 13.1597C24.4225 13.069 24.6956 11.9817 24.7863 11.53C24.8771 11.0757 24.2428 10.263 23.7883 9.90031C23.3363 9.5367 24.3318 7.27484 24.0613 7.00279C23.7883 6.73161 23.6993 6.00788 23.6993 5.37397C23.6993 4.74006 23.2465 5.10105 22.34 5.10105C21.4345 5.10105 21.3437 4.64937 21.3437 4.64937C21.3437 4.64937 20.2558 4.37645 19.7131 4.64937C19.1705 4.92142 19.2595 6.55199 18.8983 6.45956C18.5354 6.368 17.4474 6.55112 16.5436 6.82229C15.6372 7.09435 15.276 6.64006 14.8206 5.55534C14.3686 4.468 13.8242 4.829 14.0048 4.01633C14.1863 3.1993 13.6428 2.29421 13.6428 2.29421C13.6428 2.29421 7.66488 2.20353 7.03063 2.29421C6.77326 2.33083 6.32221 2.60724 5.87815 2.92376C6.24718 4.31541 7.40577 6.64006 7.66576 7.18503C7.93795 7.75791 7.33423 8.26888 7.33423 9.32569C7.33423 10.3834 8.48148 12.3156 8.60187 13.6114C8.72314 14.9097 7.87688 15.7224 7.15189 16.5699C6.42691 17.4149 5.67487 19.314 5.67487 20.492C5.67487 21.6691 4.58695 22.8158 4.61574 23.3599C4.64802 23.9031 4.46655 25.5023 4.34441 26.1039C4.34005 26.1292 4.34267 26.1589 4.3418 26.1842L4.97867 26.0176C4.97954 26.0167 5.18456 25.504 5.69581 25.504Z" fill="white"/>
<path fill-rule="evenodd" clip-rule="evenodd" d="M5.69581 25.504C6.20618 25.504 5.89908 26.2173 6.61361 25.9112C7.329 25.606 7.94057 25.606 8.55476 26.0167C9.16634 26.4231 9.67845 26.5242 10.393 26.5242C11.1066 26.5242 17.4387 26.5242 17.4387 26.5242L18.1541 27.2392C18.1541 27.2392 22.0338 26.9332 22.6463 27.2392C23.2596 27.5453 25.1981 27.2392 25.8114 27.0352C25.917 26.9994 26.1177 26.9515 26.3715 26.9018L24.0421 23.7191L24.2507 16.9292L27.2823 17.0338L27.8049 16.5106L28.2368 12.456C28.0771 12.3784 27.893 12.3462 27.6837 12.4342C27.0494 12.7063 26.5068 12.6165 25.8725 12.6165C25.2382 12.6165 25.1493 13.2521 24.7863 13.1597C24.4225 13.069 24.6956 11.9817 24.7863 11.53C24.8771 11.0757 24.2428 10.263 23.7883 9.90031C23.3363 9.5367 24.3318 7.27484 24.0613 7.00279C23.7883 6.73161 23.6993 6.00788 23.6993 5.37397C23.6993 4.74006 23.2465 5.10105 22.34 5.10105C21.4345 5.10105 21.3437 4.64937 21.3437 4.64937C21.3437 4.64937 20.2558 4.37645 19.7131 4.64937C19.1705 4.92142 19.2595 6.55199 18.8983 6.45956C18.5354 6.368 17.4474 6.55112 16.5436 6.82229C15.6372 7.09435 15.276 6.64006 14.8206 5.55534C14.3686 4.468 13.8242 4.829 14.0048 4.01633C14.1863 3.1993 13.6428 2.29421 13.6428 2.29421C13.6428 2.29421 7.66488 2.20353 7.03063 2.29421C6.77326 2.33083 6.32221 2.60724 5.87815 2.92376C6.24718 4.31541 7.40577 6.64006 7.66576 7.18503C7.93795 7.75791 7.33423 8.26888 7.33423 9.32569C7.33423 10.3834 8.48148 12.3156 8.60187 13.6114C8.72314 14.9097 7.87688 15.7224 7.15189 16.5699C6.42691 17.4149 5.67487 19.314 5.67487 20.492C5.67487 21.6691 4.58695 22.8158 4.61574 23.3599C4.64802 23.9031 4.46655 25.5023 4.34441 26.1039C4.34005 26.1292 4.34267 26.1589 4.3418 26.1842L4.97867 26.0176C4.97954 26.0167 5.18456 25.504 5.69581 25.504Z" stroke="#868686" stroke-width="0.25"/>
</g>
<defs>
<filter id="filter0_d_877_3218" x="0.210938" y="0.128906" width="32.1602" height="33.3652" filterUnits="userSpaceOnUse" color-interpolation-filters="sRGB">
<feFlood flood-opacity="0" result="BackgroundImageFix"/>
<feColorMatrix in="SourceAlpha" type="matrix" values="0 0 0 0 0 0 0 0 0 0 0 0 0 0 0 0 0 0 127 0" result="hardAlpha"/>
<feOffset dy="2"/>
<feGaussianBlur stdDeviation="2"/>
<feColorMatrix type="matrix" values="0 0 0 0 0 0 0 0 0 0 0 0 0 0 0 0 0 0 0.01 0"/>
<feBlend mode="normal" in2="BackgroundImageFix" result="effect1_dropShadow_877_3218"/>
<feBlend mode="normal" in="SourceGraphic" in2="effect1_dropShadow_877_3218" result="shape"/>
</filter>
</defs>
</svg>
