<svg width="66" height="69" viewBox="0 0 66 69" fill="none" xmlns="http://www.w3.org/2000/svg">
<g filter="url(#filter0_d_877_3257)">
<path fill-rule="evenodd" clip-rule="evenodd" d="M45.3521 30.1446C44.9866 29.2892 44.7397 27.6979 44.8618 27.0875C44.9848 26.478 45.7177 26.9646 45.9628 26.2339C46.208 25.4979 43.8829 25.4979 44.6166 24.5196C45.3521 23.543 45.3521 24.5196 46.3292 24.5196C47.3098 24.5196 47.6745 25.0096 47.6745 25.6209C47.6745 26.2339 48.656 26.5992 48.656 26.5992C48.656 26.5992 50.2447 26.478 50.981 26.478C51.7156 26.478 52.4476 26.478 52.4476 26.9654C52.4476 27.4555 51.5926 29.0459 50.858 29.0459C50.1234 29.0459 50.1234 31.1238 50.7367 31.2442C51.3475 31.368 51.836 29.6563 52.2024 29.6563C52.4668 29.6563 52.6683 31.5973 53.0286 33.5976C53.1237 33.4851 53.2232 33.404 53.327 33.404C53.8112 33.404 53.5687 31.7115 53.8923 31.2267C54.2143 30.7428 54.0537 29.2134 54.2963 29.2134C54.5371 29.2134 55.9888 29.6964 55.9085 29.2945C55.8274 28.8907 56.7958 27.52 56.6344 26.7954C56.4712 26.0717 57.1988 25.1832 57.1988 24.2981C57.1988 23.4113 58.005 23.1689 58.5694 22.685C59.1321 22.2011 60.1005 21.5576 60.2619 21.9604C60.4242 22.3624 61.6317 22.685 61.1492 21.9604C60.6641 21.2341 60.6641 20.7527 60.9869 20.5914C61.3106 20.4284 61.472 19.6236 61.472 19.6236C61.472 19.6236 60.4242 19.4614 60.2619 18.9792C60.0997 18.497 59.4541 18.0139 59.4541 17.6102C59.4541 17.2065 58.8905 17.3678 58.4072 17.7715C57.9221 18.1752 57.0366 17.2884 55.9879 17.8535C54.9401 18.4168 54.6976 19.0594 54.2143 18.98C53.7301 18.8981 53.8103 19.3838 53.4073 19.7857C53.0051 20.1895 52.6814 20.6734 52.4406 20.6734C52.1998 20.6734 51.3919 21.0771 51.3919 21.0771C51.3919 21.0771 51.9573 22.2848 51.6345 22.8481C51.3117 23.4131 50.5038 22.8481 49.6192 23.0913C48.731 23.3329 48.328 22.7678 47.6815 22.9283C47.0376 23.0913 46.6346 22.5246 46.3127 22.6065C45.9899 22.6867 45.5057 21.8802 45.6671 21.2358C45.8293 20.5932 45.3443 19.7055 45.0223 20.1895C44.6987 20.6734 44.2171 20.4301 44.2171 21.1565C44.2171 21.8802 44.6201 22.7678 44.1359 23.2509C43.6517 23.734 41.0711 23.9772 40.5886 23.5735C40.1027 23.1698 38.008 22.9283 37.9269 22.5246C37.8466 22.1217 37.201 21.398 36.7979 21.398C36.394 21.398 35.1839 21.9613 34.8629 21.7197C34.5401 21.4782 33.7322 20.833 33.1695 20.7545C32.6042 20.6725 31.7169 20.2688 31.6366 19.947C31.5555 19.6244 30.266 19.4622 30.0235 19.1405C29.7818 18.8179 28.9757 18.7394 28.9757 18.3357C28.9757 17.9328 29.2985 17.2884 29.2985 16.8036C29.2985 16.3171 30.2652 15.8384 30.2652 15.514C30.2652 15.1923 29.3797 14.6255 29.3797 14.6255C29.3797 14.6255 28.8143 13.5783 28.1687 13.5783C27.5231 13.5783 27.0389 12.4517 26.4762 12.3715C25.9117 12.2904 26.0723 11.1621 25.7503 10.7583C25.4293 10.3546 25.6701 9.38937 26.2345 9.87156C26.7981 10.3546 27.8477 9.87156 27.4437 9.14609C27.0398 8.42062 26.3148 7.77886 26.3148 7.37514C26.3148 6.97055 26.7999 5.76114 26.2345 5.43765C25.671 5.11764 25.1859 4.63283 25.0245 4.07041C24.8631 3.50538 24.2166 3.10254 24.2166 3.10254L23.4114 3.18363C23.4114 3.18363 22.9272 4.47326 22.6044 4.6337C22.2824 4.79501 21.1526 5.03654 20.5882 5.43852C20.0246 5.84136 18.4132 4.87523 17.5259 4.87523C16.6369 4.87523 16.0716 5.76201 16.4755 6.00442C16.8803 6.24508 16.7992 7.93668 16.7992 7.93668C16.7992 7.93668 17.2834 10.0329 18.0084 9.87243C18.7343 9.71199 19.6224 10.597 18.9759 10.7592C18.3312 10.9205 18.0084 11.646 17.9281 12.2912C17.847 12.9348 18.0084 13.7396 17.5259 13.8215C17.0417 13.9018 16.5575 14.0631 16.5575 14.9499C16.5575 15.8384 15.5098 15.596 15.3484 15.916C15.1861 16.2395 14.7839 17.8526 14.5405 18.0933C14.2997 18.3348 12.9274 18.4159 12.8471 19.1414C12.766 19.8651 12.1239 20.7536 11.7199 20.6716C11.316 20.5914 10.5893 20.2679 10.3485 20.7536C10.1059 21.2367 9.05901 20.3499 8.81735 20.5914C8.57481 20.8321 7.28362 21.8811 7.28362 22.5237C7.28362 23.1689 8.65595 23.1689 8.57394 23.9764C8.49368 24.7821 9.05901 25.668 9.46295 26.0717C9.86426 26.4745 10.509 27.4407 10.1862 27.9255C9.86426 28.4077 9.38181 28.487 8.65595 28.3266C7.92834 28.1644 8.00861 28.6483 6.71915 28.4077C5.42883 28.1653 5.34857 29.1331 4.86437 29.6973C4.83558 29.733 4.78934 29.7827 4.73438 29.8464C5.34333 30.3277 5.59983 31.1857 6.61272 31.5764C7.7905 32.0289 8.84788 30.8204 8.84788 31.6958C8.84788 32.5721 6.06832 32.3917 6.00987 32.662C5.95054 32.9349 8.8758 36.4654 10.3572 36.1943C11.8351 35.9213 12.923 34.323 12.4999 34.0798C12.0776 33.8408 12.7415 32.8433 13.1359 33.0256C13.5267 33.2061 13.1952 34.7747 13.648 35.1366C14.1025 35.4976 13.9507 36.1629 13.648 37.0087C13.347 37.8536 13.9507 39.5103 14.0388 40.4486C14.1304 41.3824 14.7647 42.7409 14.9767 44.1291C15.1878 45.519 16.0629 48.0529 16.8803 49.5919C17.6952 51.1318 18.3268 54.1505 18.8695 54.8734C19.4139 55.5971 20.8045 57.7988 20.8045 59.1582C20.8045 60.5158 22.2842 62.415 22.7972 62.7786C23.3102 63.1404 24.4269 62.3557 24.6991 61.5116C24.9721 60.6658 26.5111 60.3327 26.601 59.609C26.6926 58.8861 26.84 58.3133 27.3853 58.2208C27.9297 58.1301 27.9297 57.5581 27.9297 56.7734C27.9297 55.9895 27.9899 54.8725 28.5343 54.1784C29.0752 53.4835 29.1668 51.6123 28.8361 50.858C28.5029 50.1055 28.6843 49.0487 28.9862 48.2927C29.2872 47.5402 29.1668 46.663 29.7417 46.6028C30.3149 46.5436 31.1594 46.0282 31.7631 45.2156C32.3686 44.3994 34.2103 43.2824 34.8733 42.7401C35.5373 42.1968 37.5613 40.4163 38.165 39.4205C38.767 38.423 40.4874 38.0934 41.2735 37.2772C42.0596 36.4637 41.7559 36.0417 41.9069 35.1654C42.0604 34.2908 44.5948 33.9272 45.5606 33.9272C45.7587 33.9272 45.9201 33.908 46.0684 33.8783C46.057 32.4736 45.633 30.8047 45.3521 30.1446Z" fill="white"/>
<path fill-rule="evenodd" clip-rule="evenodd" d="M45.3521 30.1446C44.9866 29.2892 44.7397 27.6979 44.8618 27.0875C44.9848 26.478 45.7177 26.9646 45.9628 26.2339C46.208 25.4979 43.8829 25.4979 44.6166 24.5196C45.3521 23.543 45.3521 24.5196 46.3292 24.5196C47.3098 24.5196 47.6745 25.0096 47.6745 25.6209C47.6745 26.2339 48.656 26.5992 48.656 26.5992C48.656 26.5992 50.2447 26.478 50.981 26.478C51.7156 26.478 52.4476 26.478 52.4476 26.9654C52.4476 27.4555 51.5926 29.0459 50.858 29.0459C50.1234 29.0459 50.1234 31.1238 50.7367 31.2442C51.3475 31.368 51.836 29.6563 52.2024 29.6563C52.4668 29.6563 52.6683 31.5973 53.0286 33.5976C53.1237 33.4851 53.2232 33.404 53.327 33.404C53.8112 33.404 53.5687 31.7115 53.8923 31.2267C54.2143 30.7428 54.0537 29.2134 54.2963 29.2134C54.5371 29.2134 55.9888 29.6964 55.9085 29.2945C55.8274 28.8907 56.7958 27.52 56.6344 26.7954C56.4712 26.0717 57.1988 25.1832 57.1988 24.2981C57.1988 23.4113 58.005 23.1689 58.5694 22.685C59.1321 22.2011 60.1005 21.5576 60.2619 21.9604C60.4242 22.3624 61.6317 22.685 61.1492 21.9604C60.6641 21.2341 60.6641 20.7527 60.9869 20.5914C61.3106 20.4284 61.472 19.6236 61.472 19.6236C61.472 19.6236 60.4242 19.4614 60.2619 18.9792C60.0997 18.497 59.4541 18.0139 59.4541 17.6102C59.4541 17.2065 58.8905 17.3678 58.4072 17.7715C57.9221 18.1752 57.0366 17.2884 55.9879 17.8535C54.9401 18.4168 54.6976 19.0594 54.2143 18.98C53.7301 18.8981 53.8103 19.3838 53.4073 19.7857C53.0051 20.1895 52.6814 20.6734 52.4406 20.6734C52.1998 20.6734 51.3919 21.0771 51.3919 21.0771C51.3919 21.0771 51.9573 22.2848 51.6345 22.8481C51.3117 23.4131 50.5038 22.8481 49.6192 23.0913C48.731 23.3329 48.328 22.7678 47.6815 22.9283C47.0376 23.0913 46.6346 22.5246 46.3127 22.6065C45.9899 22.6867 45.5057 21.8802 45.6671 21.2358C45.8293 20.5932 45.3443 19.7055 45.0223 20.1895C44.6987 20.6734 44.2171 20.4301 44.2171 21.1565C44.2171 21.8802 44.6201 22.7678 44.1359 23.2509C43.6517 23.734 41.0711 23.9772 40.5886 23.5735C40.1027 23.1698 38.008 22.9283 37.9269 22.5246C37.8466 22.1217 37.201 21.398 36.7979 21.398C36.394 21.398 35.1839 21.9613 34.8629 21.7197C34.5401 21.4782 33.7322 20.833 33.1695 20.7545C32.6042 20.6725 31.7169 20.2688 31.6366 19.947C31.5555 19.6244 30.266 19.4622 30.0235 19.1405C29.7818 18.8179 28.9757 18.7394 28.9757 18.3357C28.9757 17.9328 29.2985 17.2884 29.2985 16.8036C29.2985 16.3171 30.2652 15.8384 30.2652 15.514C30.2652 15.1923 29.3797 14.6255 29.3797 14.6255C29.3797 14.6255 28.8143 13.5783 28.1687 13.5783C27.5231 13.5783 27.0389 12.4517 26.4762 12.3715C25.9117 12.2904 26.0723 11.1621 25.7503 10.7583C25.4293 10.3546 25.6701 9.38937 26.2345 9.87156C26.7981 10.3546 27.8477 9.87156 27.4437 9.14609C27.0398 8.42062 26.3148 7.77886 26.3148 7.37514C26.3148 6.97055 26.7999 5.76114 26.2345 5.43765C25.671 5.11764 25.1859 4.63283 25.0245 4.07041C24.8631 3.50538 24.2166 3.10254 24.2166 3.10254L23.4114 3.18363C23.4114 3.18363 22.9272 4.47326 22.6044 4.6337C22.2824 4.79501 21.1526 5.03654 20.5882 5.43852C20.0246 5.84136 18.4132 4.87523 17.5259 4.87523C16.6369 4.87523 16.0716 5.76201 16.4755 6.00442C16.8803 6.24508 16.7992 7.93668 16.7992 7.93668C16.7992 7.93668 17.2834 10.0329 18.0084 9.87243C18.7343 9.71199 19.6224 10.597 18.9759 10.7592C18.3312 10.9205 18.0084 11.646 17.9281 12.2912C17.847 12.9348 18.0084 13.7396 17.5259 13.8215C17.0417 13.9018 16.5575 14.0631 16.5575 14.9499C16.5575 15.8384 15.5098 15.596 15.3484 15.916C15.1861 16.2395 14.7839 17.8526 14.5405 18.0933C14.2997 18.3348 12.9274 18.4159 12.8471 19.1414C12.766 19.8651 12.1239 20.7536 11.7199 20.6716C11.316 20.5914 10.5893 20.2679 10.3485 20.7536C10.1059 21.2367 9.05901 20.3499 8.81735 20.5914C8.57481 20.8321 7.28362 21.8811 7.28362 22.5237C7.28362 23.1689 8.65595 23.1689 8.57394 23.9764C8.49368 24.7821 9.05901 25.668 9.46295 26.0717C9.86426 26.4745 10.509 27.4407 10.1862 27.9255C9.86426 28.4077 9.38181 28.487 8.65595 28.3266C7.92834 28.1644 8.00861 28.6483 6.71915 28.4077C5.42883 28.1653 5.34857 29.1331 4.86437 29.6973C4.83558 29.733 4.78934 29.7827 4.73438 29.8464C5.34333 30.3277 5.59983 31.1857 6.61272 31.5764C7.7905 32.0289 8.84788 30.8204 8.84788 31.6958C8.84788 32.5721 6.06832 32.3917 6.00987 32.662C5.95054 32.9349 8.8758 36.4654 10.3572 36.1943C11.8351 35.9213 12.923 34.323 12.4999 34.0798C12.0776 33.8408 12.7415 32.8433 13.1359 33.0256C13.5267 33.2061 13.1952 34.7747 13.648 35.1366C14.1025 35.4976 13.9507 36.1629 13.648 37.0087C13.347 37.8536 13.9507 39.5103 14.0388 40.4486C14.1304 41.3824 14.7647 42.7409 14.9767 44.1291C15.1878 45.519 16.0629 48.0529 16.8803 49.5919C17.6952 51.1318 18.3268 54.1505 18.8695 54.8734C19.4139 55.5971 20.8045 57.7988 20.8045 59.1582C20.8045 60.5158 22.2842 62.415 22.7972 62.7786C23.3102 63.1404 24.4269 62.3557 24.6991 61.5116C24.9721 60.6658 26.5111 60.3327 26.601 59.609C26.6926 58.8861 26.84 58.3133 27.3853 58.2208C27.9297 58.1301 27.9297 57.5581 27.9297 56.7734C27.9297 55.9895 27.9899 54.8725 28.5343 54.1784C29.0752 53.4835 29.1668 51.6123 28.8361 50.858C28.5029 50.1055 28.6843 49.0487 28.9862 48.2927C29.2872 47.5402 29.1668 46.663 29.7417 46.6028C30.3149 46.5436 31.1594 46.0282 31.7631 45.2156C32.3686 44.3994 34.2103 43.2824 34.8733 42.7401C35.5373 42.1968 37.5613 40.4163 38.165 39.4205C38.767 38.423 40.4874 38.0934 41.2735 37.2772C42.0596 36.4637 41.7559 36.0417 41.9069 35.1654C42.0604 34.2908 44.5948 33.9272 45.5606 33.9272C45.7587 33.9272 45.9201 33.908 46.0684 33.8783C46.057 32.4736 45.633 30.8047 45.3521 30.1446Z" stroke="#868686" stroke-width="0.25"/>
</g>
<defs>
<filter id="filter0_d_877_3257" x="0.554688" y="0.973633" width="65.0664" height="68.0205" filterUnits="userSpaceOnUse" color-interpolation-filters="sRGB">
<feFlood flood-opacity="0" result="BackgroundImageFix"/>
<feColorMatrix in="SourceAlpha" type="matrix" values="0 0 0 0 0 0 0 0 0 0 0 0 0 0 0 0 0 0 127 0" result="hardAlpha"/>
<feOffset dy="2"/>
<feGaussianBlur stdDeviation="2"/>
<feColorMatrix type="matrix" values="0 0 0 0 0 0 0 0 0 0 0 0 0 0 0 0 0 0 0.01 0"/>
<feBlend mode="normal" in2="BackgroundImageFix" result="effect1_dropShadow_877_3257"/>
<feBlend mode="normal" in="SourceGraphic" in2="effect1_dropShadow_877_3257" result="shape"/>
</filter>
</defs>
</svg>
