<svg width="18" height="19" viewBox="0 0 18 19" fill="none" xmlns="http://www.w3.org/2000/svg">
<g filter="url(#filter0_d_877_3405)">
<path fill-rule="evenodd" clip-rule="evenodd" d="M13.1713 5.48682C12.9175 5.2976 12.6802 5.09095 12.4961 4.87296C11.7205 3.96089 11.4003 4.69159 11.3113 5.23918C11.218 5.7859 10.4895 5.05607 10.0332 4.96626C9.5778 4.87383 10.1702 4.0071 10.4895 3.77952C10.7032 3.6278 10.9144 3.2049 11.0452 2.61633C10.9597 2.61633 10.8751 2.60499 10.7922 2.57186C9.94771 2.24051 8.76818 2.24051 8.73852 2.99476C8.70798 3.749 9.67376 3.47782 9.7043 3.95914C9.73396 4.44308 8.73852 4.32014 8.04319 4.80494C7.34961 5.28888 6.59408 4.4736 5.86997 4.83546C5.14411 5.19645 6.65428 5.6211 6.11076 6.37534C5.56636 7.13046 6.14042 7.09907 7.04688 7.8228C7.95333 8.54739 6.50335 8.72876 6.50335 9.54404C6.50335 10.3576 5.38664 10.3279 5.14411 10.8712C4.90419 11.4144 6.11076 12.5 7.16814 12.5C7.9228 12.5 9.67376 12.0169 10.7015 11.0525C11.7266 10.0873 12.271 11.0211 13.2062 10.5398C14.1441 10.0568 13.5692 6.52619 13.2062 5.80072C13.1434 5.67167 13.1443 5.57314 13.1713 5.48682Z" fill="white"/>
<path fill-rule="evenodd" clip-rule="evenodd" d="M13.1713 5.48682C12.9175 5.2976 12.6802 5.09095 12.4961 4.87296C11.7205 3.96089 11.4003 4.69159 11.3113 5.23918C11.218 5.7859 10.4895 5.05607 10.0332 4.96626C9.5778 4.87383 10.1702 4.0071 10.4895 3.77952C10.7032 3.6278 10.9144 3.2049 11.0452 2.61633C10.9597 2.61633 10.8751 2.60499 10.7922 2.57186C9.94771 2.24051 8.76818 2.24051 8.73852 2.99476C8.70798 3.749 9.67376 3.47782 9.7043 3.95914C9.73396 4.44308 8.73852 4.32014 8.04319 4.80494C7.34961 5.28888 6.59408 4.4736 5.86997 4.83546C5.14411 5.19645 6.65428 5.6211 6.11076 6.37534C5.56636 7.13046 6.14042 7.09907 7.04688 7.8228C7.95333 8.54739 6.50335 8.72876 6.50335 9.54404C6.50335 10.3576 5.38664 10.3279 5.14411 10.8712C4.90419 11.4144 6.11076 12.5 7.16814 12.5C7.9228 12.5 9.67376 12.0169 10.7015 11.0525C11.7266 10.0873 12.271 11.0211 13.2062 10.5398C14.1441 10.0568 13.5692 6.52619 13.2062 5.80072C13.1434 5.67167 13.1443 5.57314 13.1713 5.48682Z" stroke="#868686" stroke-width="0.25"/>
</g>
<defs>
<filter id="filter0_d_877_3405" x="0.988281" y="0.235352" width="16.8535" height="18.3896" filterUnits="userSpaceOnUse" color-interpolation-filters="sRGB">
<feFlood flood-opacity="0" result="BackgroundImageFix"/>
<feColorMatrix in="SourceAlpha" type="matrix" values="0 0 0 0 0 0 0 0 0 0 0 0 0 0 0 0 0 0 127 0" result="hardAlpha"/>
<feOffset dy="2"/>
<feGaussianBlur stdDeviation="2"/>
<feColorMatrix type="matrix" values="0 0 0 0 0 0 0 0 0 0 0 0 0 0 0 0 0 0 0.01 0"/>
<feBlend mode="normal" in2="BackgroundImageFix" result="effect1_dropShadow_877_3405"/>
<feBlend mode="normal" in="SourceGraphic" in2="effect1_dropShadow_877_3405" result="shape"/>
</filter>
</defs>
</svg>
