<svg width="41" height="34" viewBox="0 0 41 34" fill="none" xmlns="http://www.w3.org/2000/svg">
<g filter="url(#filter0_d_877_3243)">
<path fill-rule="evenodd" clip-rule="evenodd" d="M35.0795 6.53656C35.0795 6.24184 35.0106 4.906 34.9591 3.91284L33.339 4.79003C33.339 4.79003 32.908 4.07328 32.0461 3.49866C31.1867 2.92578 29.0327 2.92578 29.0327 2.92578L20.2726 8.38076L16.5404 11.3925C16.5404 11.3925 14.0993 12.2531 13.3813 12.3979C13.2984 12.4144 13.2051 12.4319 13.1091 12.4528C13.1327 13.9473 13.1719 17.7378 12.9782 17.8842C12.7366 18.0647 12.5551 19.1512 12.3117 19.391C12.0709 19.6334 11.7691 20.2978 11.0441 20.2978C10.3191 20.2978 8.56898 20.7199 7.84487 20.5995C7.11988 20.4809 6.51615 21.0216 6.21429 21.1428C6.06075 21.2038 5.47011 21.25 4.88646 21.2395C4.8219 21.7017 4.77129 22.2571 4.90129 22.3347C5.12899 22.4707 5.21798 23.2407 5.58091 23.5127C5.94471 23.7839 6.53099 24.1894 6.53099 24.5975C6.53099 25.0055 6.57635 25.3683 6.89392 25.3683C7.21148 25.3683 7.34671 25.956 7.70964 26.0929C8.0717 26.2271 8.65884 25.8208 8.75132 25.956C8.84118 26.0929 8.70595 27.0886 8.88655 27.0886C8.99473 27.0886 9.40739 27.1758 9.71448 27.4584C9.6063 26.9779 9.84535 26.3361 10.4421 26.5149C11.0458 26.6954 10.5616 27.2412 11.1051 27.4828C11.6487 27.7226 11.9523 27.5412 11.9523 27.1192C11.9523 26.6954 12.6773 25.8522 12.8587 25.6708C13.0384 25.4903 12.9791 24.3446 13.3412 24.0403C13.7041 23.7386 14.7894 23.9819 15.2125 24.0403C15.6348 24.1013 15.9375 23.1953 16.4217 23.6182C16.9024 24.0403 17.6894 23.6793 18.0523 24.1022C18.4135 24.5242 18.595 25.5505 19.1995 25.1878C19.8024 24.8233 20.5265 24.7056 20.8903 24.7056C21.2524 24.7056 22.0969 25.4284 22.4607 25.5505C22.8219 25.6717 24.0302 25.792 24.4524 25.5505C24.8747 25.3081 25.4182 24.5242 25.9609 24.5844C26.5053 24.6437 28.196 24.4632 28.5581 24.6437C28.921 24.8233 29.7062 25.2488 30.2489 25.0657C30.7933 24.8852 31.2757 23.8598 31.6989 23.7394C31.8315 23.7011 31.917 23.7098 31.9894 23.7342C31.9964 23.4979 32.0007 23.2738 32.0007 23.075C32.0007 21.9886 32.2424 22.4106 32.423 21.3267C32.6044 20.2394 35.4425 17.402 35.685 17.2189C35.9258 17.0393 35.924 12.7545 35.924 12.1511C35.924 11.5477 36.0462 10.8249 36.2852 9.97732C36.5269 9.13239 35.8647 9.19517 35.924 8.40953C35.9842 7.62477 35.0795 7.01876 35.0795 6.53656Z" fill="white"/>
<path fill-rule="evenodd" clip-rule="evenodd" d="M35.0795 6.53656C35.0795 6.24184 35.0106 4.906 34.9591 3.91284L33.339 4.79003C33.339 4.79003 32.908 4.07328 32.0461 3.49866C31.1867 2.92578 29.0327 2.92578 29.0327 2.92578L20.2726 8.38076L16.5404 11.3925C16.5404 11.3925 14.0993 12.2531 13.3813 12.3979C13.2984 12.4144 13.2051 12.4319 13.1091 12.4528C13.1327 13.9473 13.1719 17.7378 12.9782 17.8842C12.7366 18.0647 12.5551 19.1512 12.3117 19.391C12.0709 19.6334 11.7691 20.2978 11.0441 20.2978C10.3191 20.2978 8.56898 20.7199 7.84487 20.5995C7.11988 20.4809 6.51615 21.0216 6.21429 21.1428C6.06075 21.2038 5.47011 21.25 4.88646 21.2395C4.8219 21.7017 4.77129 22.2571 4.90129 22.3347C5.12899 22.4707 5.21798 23.2407 5.58091 23.5127C5.94471 23.7839 6.53099 24.1894 6.53099 24.5975C6.53099 25.0055 6.57635 25.3683 6.89392 25.3683C7.21148 25.3683 7.34671 25.956 7.70964 26.0929C8.0717 26.2271 8.65884 25.8208 8.75132 25.956C8.84118 26.0929 8.70595 27.0886 8.88655 27.0886C8.99473 27.0886 9.40739 27.1758 9.71448 27.4584C9.6063 26.9779 9.84535 26.3361 10.4421 26.5149C11.0458 26.6954 10.5616 27.2412 11.1051 27.4828C11.6487 27.7226 11.9523 27.5412 11.9523 27.1192C11.9523 26.6954 12.6773 25.8522 12.8587 25.6708C13.0384 25.4903 12.9791 24.3446 13.3412 24.0403C13.7041 23.7386 14.7894 23.9819 15.2125 24.0403C15.6348 24.1013 15.9375 23.1953 16.4217 23.6182C16.9024 24.0403 17.6894 23.6793 18.0523 24.1022C18.4135 24.5242 18.595 25.5505 19.1995 25.1878C19.8024 24.8233 20.5265 24.7056 20.8903 24.7056C21.2524 24.7056 22.0969 25.4284 22.4607 25.5505C22.8219 25.6717 24.0302 25.792 24.4524 25.5505C24.8747 25.3081 25.4182 24.5242 25.9609 24.5844C26.5053 24.6437 28.196 24.4632 28.5581 24.6437C28.921 24.8233 29.7062 25.2488 30.2489 25.0657C30.7933 24.8852 31.2757 23.8598 31.6989 23.7394C31.8315 23.7011 31.917 23.7098 31.9894 23.7342C31.9964 23.4979 32.0007 23.2738 32.0007 23.075C32.0007 21.9886 32.2424 22.4106 32.423 21.3267C32.6044 20.2394 35.4425 17.402 35.685 17.2189C35.9258 17.0393 35.924 12.7545 35.924 12.1511C35.924 11.5477 36.0462 10.8249 36.2852 9.97732C36.5269 9.13239 35.8647 9.19517 35.924 8.40953C35.9842 7.62477 35.0795 7.01876 35.0795 6.53656Z" stroke="#868686" stroke-width="0.25"/>
</g>
<defs>
<filter id="filter0_d_877_3243" x="0.695312" y="0.800781" width="39.7676" height="33.0205" filterUnits="userSpaceOnUse" color-interpolation-filters="sRGB">
<feFlood flood-opacity="0" result="BackgroundImageFix"/>
<feColorMatrix in="SourceAlpha" type="matrix" values="0 0 0 0 0 0 0 0 0 0 0 0 0 0 0 0 0 0 127 0" result="hardAlpha"/>
<feOffset dy="2"/>
<feGaussianBlur stdDeviation="2"/>
<feColorMatrix type="matrix" values="0 0 0 0 0 0 0 0 0 0 0 0 0 0 0 0 0 0 0.01 0"/>
<feBlend mode="normal" in2="BackgroundImageFix" result="effect1_dropShadow_877_3243"/>
<feBlend mode="normal" in="SourceGraphic" in2="effect1_dropShadow_877_3243" result="shape"/>
</filter>
</defs>
</svg>
