<svg width="29" height="28" viewBox="0 0 29 28" fill="none" xmlns="http://www.w3.org/2000/svg">
<g filter="url(#filter0_d_877_3307)">
<path fill-rule="evenodd" clip-rule="evenodd" d="M21.4311 19.8931C21.6928 19.6202 21.7373 19.2365 22.3646 19.145C22.8592 19.0726 23.1698 19.3961 23.7151 19.9036C23.9227 19.7013 24.2735 19.5217 24.6076 19.4257C24.0615 18.8607 23.4071 18.2085 23.4551 17.8196C23.5363 17.1752 22.8104 16.8526 22.7293 16.4489C22.649 16.0469 23.2143 15.4025 22.8907 15.0799C22.5679 14.7581 22.4876 13.9516 21.9257 13.8714C21.3595 13.7894 19.5841 12.9035 19.6653 12.3393C19.7464 11.7752 19.0214 11.3723 18.6995 11.2119C18.3776 11.0497 18.0539 9.59875 18.4578 9.35722C18.86 9.11743 18.7798 7.74584 19.264 7.74584C19.7473 7.74584 19.3442 7.02037 19.5048 6.53643C19.6662 6.05424 19.1034 5.81183 18.6995 5.81183C18.2956 5.81183 17.5706 5.16571 17.5706 4.60068C17.5706 4.0374 16.7627 3.23258 16.8447 2.99105C16.706 4.05484 15.1705 2.40858 14.6881 2.65011C14.2056 2.89164 13.8418 2.16879 12.876 2.2865C12.2583 2.36585 12.2802 2.69022 11.967 2.97797L12.0053 2.99105L10.7962 3.87783C10.7962 3.87783 9.74837 4.19697 9.5067 4.84309C9.26504 5.48747 9.9909 6.13272 9.6681 6.53556C9.34443 6.93666 9.42557 7.82432 9.5067 8.14607C9.58697 8.47044 9.02076 9.35635 9.02076 9.35635C9.02076 9.35635 6.62158 10.646 4.62109 11.6688C4.65686 12.0429 4.70834 12.4038 4.78511 12.6689C4.91249 13.1162 5.10704 13.969 5.2632 14.6744C6.03967 14.6675 6.15308 14.5986 6.84492 14.6744C7.57165 14.7564 10.2317 16.6904 10.8782 17.0122C11.522 17.3339 15.0693 19.9925 15.7969 20.6386C16.5228 21.2848 17.7311 21.4461 18.2144 21.4461C18.4919 21.4461 19.6487 21.5777 20.5822 21.692C20.8657 21.0057 21.2706 20.0658 21.4311 19.8931Z" fill="white"/>
<path fill-rule="evenodd" clip-rule="evenodd" d="M21.4311 19.8931C21.6928 19.6202 21.7373 19.2365 22.3646 19.145C22.8592 19.0726 23.1698 19.3961 23.7151 19.9036C23.9227 19.7013 24.2735 19.5217 24.6076 19.4257C24.0615 18.8607 23.4071 18.2085 23.4551 17.8196C23.5363 17.1752 22.8104 16.8526 22.7293 16.4489C22.649 16.0469 23.2143 15.4025 22.8907 15.0799C22.5679 14.7581 22.4876 13.9516 21.9257 13.8714C21.3595 13.7894 19.5841 12.9035 19.6653 12.3393C19.7464 11.7752 19.0214 11.3723 18.6995 11.2119C18.3776 11.0497 18.0539 9.59875 18.4578 9.35722C18.86 9.11743 18.7798 7.74584 19.264 7.74584C19.7473 7.74584 19.3442 7.02037 19.5048 6.53643C19.6662 6.05424 19.1034 5.81183 18.6995 5.81183C18.2956 5.81183 17.5706 5.16571 17.5706 4.60068C17.5706 4.0374 16.7627 3.23258 16.8447 2.99105C16.706 4.05484 15.1705 2.40858 14.6881 2.65011C14.2056 2.89164 13.8418 2.16879 12.876 2.2865C12.2583 2.36585 12.2802 2.69022 11.967 2.97797L12.0053 2.99105L10.7962 3.87783C10.7962 3.87783 9.74837 4.19697 9.5067 4.84309C9.26504 5.48747 9.9909 6.13272 9.6681 6.53556C9.34443 6.93666 9.42557 7.82432 9.5067 8.14607C9.58697 8.47044 9.02076 9.35635 9.02076 9.35635C9.02076 9.35635 6.62158 10.646 4.62109 11.6688C4.65686 12.0429 4.70834 12.4038 4.78511 12.6689C4.91249 13.1162 5.10704 13.969 5.2632 14.6744C6.03967 14.6675 6.15308 14.5986 6.84492 14.6744C7.57165 14.7564 10.2317 16.6904 10.8782 17.0122C11.522 17.3339 15.0693 19.9925 15.7969 20.6386C16.5228 21.2848 17.7311 21.4461 18.2144 21.4461C18.4919 21.4461 19.6487 21.5777 20.5822 21.692C20.8657 21.0057 21.2706 20.0658 21.4311 19.8931Z" stroke="#868686" stroke-width="0.25"/>
</g>
<defs>
<filter id="filter0_d_877_3307" x="0.488281" y="0.148438" width="28.3535" height="27.6787" filterUnits="userSpaceOnUse" color-interpolation-filters="sRGB">
<feFlood flood-opacity="0" result="BackgroundImageFix"/>
<feColorMatrix in="SourceAlpha" type="matrix" values="0 0 0 0 0 0 0 0 0 0 0 0 0 0 0 0 0 0 127 0" result="hardAlpha"/>
<feOffset dy="2"/>
<feGaussianBlur stdDeviation="2"/>
<feColorMatrix type="matrix" values="0 0 0 0 0 0 0 0 0 0 0 0 0 0 0 0 0 0 0.01 0"/>
<feBlend mode="normal" in2="BackgroundImageFix" result="effect1_dropShadow_877_3307"/>
<feBlend mode="normal" in="SourceGraphic" in2="effect1_dropShadow_877_3307" result="shape"/>
</filter>
</defs>
</svg>
