<svg width="25" height="24" viewBox="0 0 25 24" fill="none" xmlns="http://www.w3.org/2000/svg">
<g filter="url(#filter0_d_877_3211)">
<path fill-rule="evenodd" clip-rule="evenodd" d="M15.0899 3.29679L14.7889 2.63672L13.0379 2.6934C11.8907 2.99597 11.8907 3.3587 11.8907 3.72144C11.8907 4.08156 10.8027 4.92736 10.0184 5.16889C9.23499 5.41042 8.38699 7.22148 7.90453 7.46127C7.42208 7.7028 5.79238 7.10028 5.30731 7.04011C5.08745 7.01308 4.68875 7.09766 4.26562 7.19968C4.56749 7.7307 5.19825 8.362 5.42945 8.362C5.73567 8.362 5.836 10.5053 6.55139 10.8131C7.26678 11.1183 8.59462 11.8315 8.59462 12.2405C8.59462 12.6503 9.41296 13.1595 9.41296 13.7725C9.41296 14.3846 10.2208 15.2217 10.8411 15.1999C12.1463 15.1572 12.2815 15.7013 12.2815 16.0631C12.2815 16.4241 14.0037 16.0631 14.2279 16.4241C14.4373 16.7598 16.1368 16.6325 16.5494 16.8566C17.2587 16.1687 18.2742 15.2601 18.6215 14.7953C19.1641 14.0733 18.7131 13.0758 19.1641 12.8046C19.6187 12.5317 20.615 11.3563 20.2538 11.2648C19.8891 11.1758 20.1622 10.2699 19.6178 9.72662C19.0751 9.18339 20.2538 8.91134 20.1613 7.91643C20.0706 6.92065 20.3428 4.92823 20.0706 4.7486C19.7984 4.56462 18.529 4.47568 17.7159 3.93158C16.9019 3.38835 15.0899 3.29679 15.0899 3.29679Z" fill="white"/>
<path fill-rule="evenodd" clip-rule="evenodd" d="M15.0899 3.29679L14.7889 2.63672L13.0379 2.6934C11.8907 2.99597 11.8907 3.3587 11.8907 3.72144C11.8907 4.08156 10.8027 4.92736 10.0184 5.16889C9.23499 5.41042 8.38699 7.22148 7.90453 7.46127C7.42208 7.7028 5.79238 7.10028 5.30731 7.04011C5.08745 7.01308 4.68875 7.09766 4.26562 7.19968C4.56749 7.7307 5.19825 8.362 5.42945 8.362C5.73567 8.362 5.836 10.5053 6.55139 10.8131C7.26678 11.1183 8.59462 11.8315 8.59462 12.2405C8.59462 12.6503 9.41296 13.1595 9.41296 13.7725C9.41296 14.3846 10.2208 15.2217 10.8411 15.1999C12.1463 15.1572 12.2815 15.7013 12.2815 16.0631C12.2815 16.4241 14.0037 16.0631 14.2279 16.4241C14.4373 16.7598 16.1368 16.6325 16.5494 16.8566C17.2587 16.1687 18.2742 15.2601 18.6215 14.7953C19.1641 14.0733 18.7131 13.0758 19.1641 12.8046C19.6187 12.5317 20.615 11.3563 20.2538 11.2648C19.8891 11.1758 20.1622 10.2699 19.6178 9.72662C19.0751 9.18339 20.2538 8.91134 20.1613 7.91643C20.0706 6.92065 20.3428 4.92823 20.0706 4.7486C19.7984 4.56462 18.529 4.47568 17.7159 3.93158C16.9019 3.38835 15.0899 3.29679 15.0899 3.29679Z" stroke="#868686" stroke-width="0.25"/>
</g>
<defs>
<filter id="filter0_d_877_3211" x="0.0742188" y="0.508789" width="24.3828" height="22.502" filterUnits="userSpaceOnUse" color-interpolation-filters="sRGB">
<feFlood flood-opacity="0" result="BackgroundImageFix"/>
<feColorMatrix in="SourceAlpha" type="matrix" values="0 0 0 0 0 0 0 0 0 0 0 0 0 0 0 0 0 0 127 0" result="hardAlpha"/>
<feOffset dy="2"/>
<feGaussianBlur stdDeviation="2"/>
<feColorMatrix type="matrix" values="0 0 0 0 0 0 0 0 0 0 0 0 0 0 0 0 0 0 0.01 0"/>
<feBlend mode="normal" in2="BackgroundImageFix" result="effect1_dropShadow_877_3211"/>
<feBlend mode="normal" in="SourceGraphic" in2="effect1_dropShadow_877_3211" result="shape"/>
</filter>
</defs>
</svg>
