<svg width="25" height="21" viewBox="0 0 25 21" fill="none" xmlns="http://www.w3.org/2000/svg">
<g filter="url(#filter0_d_877_3461)">
<path fill-rule="evenodd" clip-rule="evenodd" d="M4.47225 3.11336C4.35098 3.65921 6.2869 6.53057 7.0084 6.07192C8.33537 5.22873 4.59177 2.571 4.47225 3.11336ZM8.33537 5.64902C8.28913 5.87573 9.73911 7.27871 10.0567 7.052C10.3734 6.82703 8.41825 5.24094 8.33537 5.64902ZM15.129 9.26852C15.628 8.95374 12.325 7.1453 12.2753 7.73038C12.2308 8.27449 14.6308 9.58678 15.129 9.26852ZM14.766 11.2182C14.9484 12.1224 16.3068 12.6648 16.8503 12.3492C17.3929 12.0318 14.5811 10.2817 14.766 11.2182ZM18.48 13.2072C18.5707 13.4339 19.7502 14.5203 20.3374 14.114C20.9254 13.705 18.3264 12.8218 18.48 13.2072ZM16.8965 9.17871C16.442 10.1754 18.2549 11.8949 18.5262 11.9411C18.7975 11.9864 17.2455 8.41313 16.8965 9.17871Z" fill="white"/>
<path d="M4.47225 3.11336L4.59427 3.14047L4.59432 3.14026L4.47225 3.11336ZM7.0084 6.07192L6.94136 5.96641L6.94134 5.96643L7.0084 6.07192ZM8.33537 5.64902L8.45784 5.674L8.45787 5.6739L8.33537 5.64902ZM10.0567 7.052L9.98428 6.95009L9.98404 6.95026L10.0567 7.052ZM15.129 9.26852L15.0623 9.16279L15.0617 9.16318L15.129 9.26852ZM12.2753 7.73038L12.1507 7.7198L12.1507 7.7202L12.2753 7.73038ZM14.766 11.2182L14.6434 11.2424L14.6435 11.2429L14.766 11.2182ZM16.8503 12.3492L16.9131 12.4572L16.9134 12.4571L16.8503 12.3492ZM18.48 13.2072L18.3639 13.2534L18.3639 13.2536L18.48 13.2072ZM20.3374 14.114L20.4085 14.2168L20.4088 14.2166L20.3374 14.114ZM16.8965 9.17871L17.0103 9.23058L17.0103 9.23055L16.8965 9.17871ZM18.5262 11.9411L18.5052 12.0643L18.5056 12.0644L18.5262 11.9411ZM4.35022 3.08625C4.32711 3.19025 4.35471 3.32332 4.39808 3.45509C4.44364 3.59352 4.5153 3.75514 4.60494 3.92796C4.78442 4.27401 5.04169 4.67594 5.3251 5.0454C5.60771 5.41382 5.9214 5.75664 6.21514 5.97948C6.36163 6.09062 6.50988 6.17712 6.65214 6.21882C6.79608 6.26101 6.94546 6.26004 7.07546 6.17741L6.94134 5.96643C6.89096 5.99845 6.82202 6.00809 6.72246 5.97891C6.62122 5.94924 6.50081 5.8824 6.36624 5.78031C6.09787 5.57671 5.79986 5.25357 5.52347 4.89324C5.24787 4.53397 4.9988 4.14437 4.82686 3.81286C4.74078 3.64689 4.67546 3.49822 4.63555 3.37694C4.59344 3.24899 4.58706 3.17293 4.59427 3.14047L4.35022 3.08625ZM7.07544 6.17742C7.26776 6.05522 7.37801 5.89203 7.40874 5.70023C7.43855 5.51412 7.39095 5.317 7.30219 5.12516C7.12519 4.74261 6.76271 4.3346 6.36609 3.97989C5.96737 3.6233 5.52165 3.30952 5.16461 3.11809C4.9878 3.02329 4.82405 2.95373 4.69466 2.92765C4.63134 2.91489 4.56171 2.90939 4.49901 2.92824C4.42637 2.95008 4.36835 3.00398 4.35017 3.08646L4.59432 3.14026C4.59361 3.14349 4.5908 3.15128 4.58344 3.15886C4.57647 3.16603 4.57047 3.16781 4.571 3.16765C4.57562 3.16626 4.59737 3.16307 4.64527 3.17272C4.7383 3.19147 4.87626 3.24715 5.04648 3.33842C5.38351 3.51912 5.81317 3.82078 6.19943 4.16623C6.58778 4.51355 6.91986 4.89418 7.0753 5.23014C7.15277 5.39757 7.18087 5.54218 7.16188 5.66069C7.14381 5.7735 7.08078 5.87782 6.94136 5.96641L7.07544 6.17742ZM8.21289 5.62404C8.20312 5.67192 8.21519 5.71697 8.22597 5.74694C8.23792 5.78015 8.25568 5.81447 8.2759 5.8481C8.31652 5.91567 8.37524 5.99384 8.44447 6.07619C8.58354 6.24162 8.77487 6.43552 8.97676 6.61416C9.17806 6.79226 9.3948 6.95959 9.58504 7.06873C9.67959 7.12298 9.77371 7.16643 9.85994 7.18752C9.94233 7.20768 10.0451 7.21387 10.1293 7.15373L9.98404 6.95026C9.98889 6.94681 9.97684 6.95875 9.91933 6.94468C9.86566 6.93156 9.79476 6.90083 9.70944 6.85188C9.53994 6.75464 9.33754 6.59956 9.14242 6.42692C8.9479 6.25481 8.76556 6.06963 8.63584 5.91532C8.57067 5.83781 8.52122 5.77094 8.49016 5.71928C8.47453 5.69329 8.46557 5.67445 8.46121 5.66231C8.45567 5.64693 8.46183 5.65445 8.45784 5.674L8.21289 5.62404ZM10.1291 7.1539C10.1792 7.11832 10.2072 7.06675 10.2144 7.01056C10.221 6.95935 10.2098 6.90966 10.1945 6.86766C10.1641 6.78396 10.103 6.6923 10.0303 6.6021C9.88275 6.41877 9.65819 6.20595 9.42471 6.01613C9.19145 5.82647 8.94116 5.65317 8.73964 5.5526C8.64145 5.50359 8.54166 5.465 8.45586 5.45829C8.41229 5.45488 8.35878 5.45853 8.3098 5.48653C8.25563 5.5175 8.22422 5.56826 8.21287 5.62414L8.45787 5.6739C8.45688 5.67876 8.45045 5.6941 8.43387 5.70357C8.42248 5.71008 8.41916 5.70618 8.43636 5.70753C8.47212 5.71033 8.53619 5.73046 8.628 5.77628C8.80647 5.86536 9.04072 6.02613 9.267 6.21011C9.49308 6.39392 9.7031 6.59429 9.83561 6.75888C9.90305 6.84264 9.94338 6.90861 9.95956 6.95311C9.9676 6.97522 9.96601 6.98227 9.96645 6.97881C9.96753 6.97038 9.97377 6.95756 9.98428 6.95009L10.1291 7.1539ZM15.1957 9.37424C15.2545 9.33713 15.2962 9.27974 15.304 9.20607C15.311 9.13998 15.2886 9.07824 15.2615 9.02833C15.2073 8.92877 15.1042 8.82233 14.9817 8.71796C14.7322 8.50543 14.3562 8.26341 13.9676 8.05218C13.579 7.84093 13.1685 7.65548 12.8481 7.55984C12.6902 7.51272 12.5417 7.48346 12.4248 7.49083C12.3661 7.49452 12.3024 7.50812 12.2492 7.54548C12.1904 7.5867 12.1568 7.64839 12.1507 7.7198L12.3998 7.74097C12.4 7.73924 12.3979 7.7465 12.3928 7.75008C12.3925 7.75028 12.3953 7.74828 12.4035 7.74594C12.4117 7.7436 12.4238 7.74139 12.4405 7.74033C12.5118 7.73584 12.6256 7.75433 12.7766 7.7994C13.0738 7.88812 13.4673 8.06476 13.8482 8.27183C14.2292 8.47892 14.5885 8.71146 14.8195 8.90827C14.9373 9.00856 15.0107 9.09048 15.0419 9.14778C15.0574 9.1763 15.0548 9.18512 15.0554 9.17982C15.0568 9.16694 15.0658 9.16057 15.0623 9.1628L15.1957 9.37424ZM12.1507 7.7202C12.1415 7.8329 12.1951 7.9434 12.2629 8.03837C12.3333 8.13701 12.4336 8.23908 12.5509 8.33984C12.7861 8.54186 13.1055 8.75177 13.439 8.93271C13.7726 9.11368 14.1262 9.26892 14.4313 9.35887C14.5836 9.40377 14.7281 9.43368 14.8544 9.44092C14.977 9.44794 15.101 9.43475 15.1963 9.37386L15.0617 9.16318C15.0325 9.18185 14.9724 9.19727 14.8687 9.19133C14.7684 9.18558 14.6441 9.16094 14.502 9.11907C14.2184 9.03547 13.8814 8.8883 13.5582 8.71297C13.235 8.53761 12.9316 8.33731 12.7138 8.15019C12.6046 8.05639 12.5207 7.96915 12.4664 7.89312C12.4095 7.81342 12.3979 7.7639 12.3998 7.74057L12.1507 7.7202ZM14.6435 11.2429C14.7455 11.7485 15.1695 12.1355 15.6181 12.3536C15.8448 12.4637 16.0855 12.5349 16.3086 12.5571C16.5294 12.5792 16.7459 12.5543 16.9131 12.4572L16.7875 12.2411C16.6829 12.3018 16.5258 12.3276 16.3334 12.3084C16.1432 12.2894 15.931 12.2277 15.7274 12.1287C15.3153 11.9284 14.969 11.5922 14.8886 11.1935L14.6435 11.2429ZM16.9134 12.4571C16.9696 12.4242 17.0137 12.3755 17.0337 12.3107C17.0529 12.2486 17.0452 12.1865 17.0279 12.1327C16.9945 12.0288 16.9137 11.9213 16.8182 11.8207C16.623 11.6153 16.3176 11.3893 16.0057 11.2057C15.6959 11.0235 15.3625 10.873 15.1101 10.8318C14.9886 10.812 14.8529 10.8118 14.7525 10.8829C14.6368 10.9649 14.6157 11.1022 14.6434 11.2424L14.8887 11.194C14.8701 11.1001 14.8965 11.0873 14.897 11.0869C14.9129 11.0757 14.9623 11.0611 15.0699 11.0786C15.2757 11.1121 15.5767 11.2434 15.8789 11.4212C16.1791 11.5978 16.4633 11.8102 16.6369 11.993C16.7258 12.0865 16.7742 12.1605 16.79 12.2093C16.7972 12.2319 16.7942 12.2391 16.7948 12.237C16.7963 12.2323 16.7988 12.2345 16.7872 12.2413L16.9134 12.4571ZM18.3639 13.2536C18.3831 13.3015 18.4227 13.3561 18.4656 13.4078C18.5114 13.4628 18.5705 13.5257 18.6393 13.5918C18.7767 13.7239 18.957 13.8732 19.1539 14.0025C19.3498 14.1311 19.5685 14.244 19.7821 14.2969C19.9955 14.3499 20.2209 14.3466 20.4085 14.2168L20.2663 14.0112C20.1603 14.0845 20.0181 14.0979 19.8423 14.0543C19.6668 14.0107 19.4748 13.914 19.2911 13.7935C19.1084 13.6736 18.9401 13.5342 18.8125 13.4115C18.7488 13.3502 18.6963 13.2942 18.6579 13.248C18.6167 13.1984 18.5995 13.1695 18.596 13.1607L18.3639 13.2536ZM20.4088 14.2166C20.4582 14.1822 20.5001 14.139 20.5253 14.0845C20.5512 14.0283 20.5548 13.9694 20.5419 13.9136C20.5179 13.8103 20.4387 13.7216 20.3544 13.6502C20.1803 13.5027 19.9003 13.36 19.6182 13.2467C19.3342 13.1326 19.033 13.0423 18.8084 13.0054C18.6999 12.9876 18.5933 12.9793 18.5134 12.9965C18.4747 13.0049 18.4178 13.0243 18.3804 13.0766C18.3369 13.1372 18.3445 13.2049 18.3639 13.2534L18.5961 13.1609C18.5962 13.1612 18.6062 13.1907 18.5836 13.2221C18.5671 13.2451 18.5497 13.2444 18.5662 13.2409C18.5968 13.2343 18.6634 13.2349 18.7678 13.2521C18.969 13.2852 19.252 13.369 19.525 13.4787C19.8 13.5892 20.0499 13.7199 20.1929 13.841C20.2671 13.9039 20.2933 13.9483 20.2983 13.97C20.2999 13.9767 20.2989 13.9784 20.2982 13.9798C20.2967 13.9831 20.2901 13.9946 20.266 14.0114L20.4088 14.2166ZM16.7828 9.12684C16.6498 9.41837 16.6881 9.75014 16.8038 10.0672C16.9201 10.3857 17.1207 10.7069 17.34 10.9924C17.56 11.2788 17.8029 11.5346 18.009 11.7225C18.1119 11.8163 18.2071 11.8946 18.2869 11.9517C18.3268 11.9801 18.3643 12.0045 18.3982 12.023C18.4294 12.0401 18.4672 12.0578 18.5052 12.0643L18.5472 11.8179C18.5513 11.8185 18.5431 11.8174 18.5183 11.8038C18.496 11.7916 18.4672 11.7732 18.4324 11.7483C18.3629 11.6986 18.2755 11.6272 18.1774 11.5377C17.9814 11.3591 17.7487 11.114 17.5383 10.8402C17.3274 10.5655 17.143 10.2671 17.0387 9.98142C16.9338 9.69428 16.9159 9.43737 17.0103 9.23058L16.7828 9.12684ZM18.5056 12.0644C18.5494 12.0717 18.6005 12.0605 18.6381 12.0199C18.6683 11.9874 18.6769 11.9491 18.6801 11.9273C18.6868 11.8821 18.6803 11.8291 18.6713 11.7811C18.6523 11.6793 18.6099 11.539 18.5529 11.379C18.4381 11.0568 18.2565 10.6336 18.0557 10.2337C17.8559 9.83594 17.6324 9.45162 17.4323 9.21333C17.3359 9.09858 17.2281 8.99667 17.1163 8.96052C17.0547 8.94061 16.9844 8.93837 16.9175 8.97324C16.8537 9.00653 16.8113 9.0643 16.7828 9.12686L17.0103 9.23055C17.0254 9.19742 17.036 9.19339 17.0331 9.19489C17.0272 9.19797 17.0257 9.19396 17.0394 9.19839C17.0782 9.21095 17.1469 9.26225 17.2408 9.37412C17.4214 9.58908 17.6343 9.9517 17.8323 10.3459C18.0292 10.738 18.2065 11.1517 18.3174 11.4629C18.3732 11.6196 18.4102 11.745 18.4255 11.8269C18.4293 11.847 18.4314 11.8628 18.4323 11.8747C18.4333 11.8874 18.4326 11.8919 18.4328 11.8909C18.4329 11.8902 18.4336 11.8858 18.4361 11.8793C18.4386 11.8728 18.444 11.8616 18.4547 11.85C18.4823 11.8202 18.52 11.8133 18.5468 11.8178L18.5056 12.0644Z" fill="#868686"/>
</g>
<defs>
<filter id="filter0_d_877_3461" x="0.341797" y="0.916016" width="24.207" height="19.4131" filterUnits="userSpaceOnUse" color-interpolation-filters="sRGB">
<feFlood flood-opacity="0" result="BackgroundImageFix"/>
<feColorMatrix in="SourceAlpha" type="matrix" values="0 0 0 0 0 0 0 0 0 0 0 0 0 0 0 0 0 0 127 0" result="hardAlpha"/>
<feOffset dy="2"/>
<feGaussianBlur stdDeviation="2"/>
<feColorMatrix type="matrix" values="0 0 0 0 0 0 0 0 0 0 0 0 0 0 0 0 0 0 0.01 0"/>
<feBlend mode="normal" in2="BackgroundImageFix" result="effect1_dropShadow_877_3461"/>
<feBlend mode="normal" in="SourceGraphic" in2="effect1_dropShadow_877_3461" result="shape"/>
</filter>
</defs>
</svg>
