<svg width="14" height="14" viewBox="0 0 14 14" fill="none" xmlns="http://www.w3.org/2000/svg">
<g filter="url(#filter0_d_877_3484)">
<path fill-rule="evenodd" clip-rule="evenodd" d="M4.22664 6.54817C4.997 7.27364 6.53509 7.2283 6.57959 5.91513C6.6267 4.60109 3.54004 5.90379 4.22664 6.54817ZM7.03325 4.14854C7.53315 4.33078 9.16198 3.78842 9.16198 3.01761C9.16285 2.24941 6.28209 3.87736 7.03325 4.14854Z" fill="white"/>
<path d="M4.22664 6.54817L4.31234 6.45717L4.31218 6.45702L4.22664 6.54817ZM6.57959 5.91513L6.45467 5.91065L6.45466 5.9109L6.57959 5.91513ZM7.03325 4.14854L7.07606 4.0311L7.0757 4.03097L7.03325 4.14854ZM9.16198 3.01761L9.03698 3.01747V3.01761H9.16198ZM4.14095 6.63917C4.55415 7.0283 5.17075 7.21099 5.69678 7.11928C5.96191 7.07306 6.20926 6.95603 6.39372 6.75444C6.57903 6.55192 6.69253 6.27313 6.70452 5.91936L6.45466 5.9109C6.4444 6.21372 6.34895 6.43303 6.20928 6.58567C6.06877 6.73924 5.8751 6.83442 5.65384 6.873C5.20712 6.95088 4.66949 6.79352 4.31234 6.45717L4.14095 6.63917ZM6.70451 5.91961C6.7113 5.73015 6.6614 5.5734 6.55751 5.45585C6.45524 5.34013 6.31269 5.27605 6.15899 5.24634C5.85537 5.18764 5.47064 5.2552 5.1214 5.37948C4.77087 5.50422 4.43241 5.69455 4.22284 5.90427C4.11879 6.00838 4.03534 6.12839 4.00989 6.25798C3.98245 6.39773 4.02602 6.53131 4.1411 6.63932L4.31218 6.45702C4.25562 6.40394 4.24545 6.35585 4.25521 6.30615C4.26696 6.2463 4.31163 6.16908 4.39967 6.08098C4.57427 5.90627 4.87579 5.73224 5.20521 5.61501C5.53593 5.49732 5.87111 5.44531 6.11153 5.49179C6.22985 5.51467 6.31536 5.55937 6.37019 5.62141C6.4234 5.68161 6.45965 5.7716 6.45467 5.91065L6.70451 5.91961ZM6.99044 4.26598C7.14667 4.32293 7.36873 4.3186 7.59736 4.2804C7.83126 4.24132 8.09186 4.16334 8.33593 4.05466C8.57929 3.94629 8.81251 3.80458 8.9869 3.63466C9.16068 3.46533 9.28698 3.25667 9.28698 3.01761H9.03698C9.03698 3.16395 8.95967 3.31214 8.81243 3.4556C8.6658 3.59847 8.46057 3.72549 8.23423 3.82628C8.0086 3.92675 7.76827 3.99838 7.55616 4.03382C7.33879 4.07014 7.16978 4.06526 7.07606 4.0311L6.99044 4.26598ZM9.28698 3.01775C9.28706 2.94992 9.27103 2.88501 9.23281 2.82969C9.19453 2.77428 9.14093 2.73853 9.0832 2.71724C8.97349 2.67679 8.8364 2.68365 8.70088 2.70928C8.42417 2.7616 8.07439 2.90844 7.75596 3.08381C7.43788 3.25899 7.13478 3.4716 6.95709 3.66478C6.8719 3.75739 6.79589 3.86613 6.78471 3.97817C6.77853 4.04014 6.79231 4.10347 6.83372 4.15816C6.87314 4.21023 6.92967 4.24404 6.99081 4.26611L7.0757 4.03097C7.04294 4.01914 7.03394 4.00845 7.03304 4.00726C7.03278 4.00692 7.03319 4.00747 7.0334 4.00828C7.03355 4.00887 7.03303 4.00745 7.03347 4.00299C7.03606 3.97709 7.06186 3.92016 7.14109 3.83402C7.29225 3.66969 7.56845 3.47249 7.87656 3.3028C8.18431 3.13331 8.50762 3.00025 8.74733 2.95492C8.87002 2.93172 8.95198 2.93531 8.99671 2.9518C9.01619 2.95899 9.02366 2.96678 9.02712 2.97178C9.03064 2.97688 9.03701 2.98927 9.03698 3.01747L9.28698 3.01775Z" fill="#868686"/>
</g>
<defs>
<filter id="filter0_d_877_3484" x="0.00195312" y="0.688477" width="13.2852" height="12.4541" filterUnits="userSpaceOnUse" color-interpolation-filters="sRGB">
<feFlood flood-opacity="0" result="BackgroundImageFix"/>
<feColorMatrix in="SourceAlpha" type="matrix" values="0 0 0 0 0 0 0 0 0 0 0 0 0 0 0 0 0 0 127 0" result="hardAlpha"/>
<feOffset dy="2"/>
<feGaussianBlur stdDeviation="2"/>
<feColorMatrix type="matrix" values="0 0 0 0 0 0 0 0 0 0 0 0 0 0 0 0 0 0 0.01 0"/>
<feBlend mode="normal" in2="BackgroundImageFix" result="effect1_dropShadow_877_3484"/>
<feBlend mode="normal" in="SourceGraphic" in2="effect1_dropShadow_877_3484" result="shape"/>
</filter>
</defs>
</svg>
