<svg width="22" height="16" viewBox="0 0 22 16" fill="none" xmlns="http://www.w3.org/2000/svg">
<g filter="url(#filter0_d_877_3282)">
<path fill-rule="evenodd" clip-rule="evenodd" d="M16.5908 5.72373C16.2523 5.52318 15.3083 5.65659 15.2394 5.38628C15.1748 5.11685 15.1068 4.64512 14.702 4.64512C14.2963 4.64512 13.7571 4.37655 13.5556 4.84654C13.3532 5.32001 12.5436 4.71139 12.4747 4.37481C12.4092 4.03736 12.0707 3.76793 11.1259 3.42961C10.7525 3.2962 10.3259 3.02589 9.94548 2.74512C9.91407 2.82708 9.87743 2.90294 9.8373 2.96136C9.6567 3.23429 9.02245 2.73553 8.75112 3.00845C8.47805 3.2805 7.57247 3.3241 7.07606 3.77752C6.57703 4.23094 5.53447 4.4559 4.94645 4.5928C4.35844 4.7297 4.85659 5.27118 5.08255 5.68013C5.30939 6.08472 5.30939 7.08224 5.76218 7.40051C6.21584 7.71616 7.70944 8.66746 7.89003 8.98399C7.92057 9.03805 7.90225 9.08862 7.86473 9.13658C8.49288 9.30574 9.47262 9.3101 9.64187 9.02758C9.84428 8.69101 9.98038 8.08325 9.98038 8.08325C9.98038 8.08325 11.3292 8.08325 11.8683 8.69101C12.4083 9.29702 13.4204 8.89243 13.4204 8.89243C13.4204 8.89243 13.4762 9.06421 13.5678 9.304C13.7135 8.97003 13.9037 8.67793 14.1349 8.64305C14.7037 8.56283 15.5142 8.48087 16.0822 7.66994C16.377 7.25227 16.8621 6.92093 17.2652 6.69684C16.993 6.36375 16.8516 5.88155 16.5908 5.72373Z" fill="white"/>
<path fill-rule="evenodd" clip-rule="evenodd" d="M16.5908 5.72373C16.2523 5.52318 15.3083 5.65659 15.2394 5.38628C15.1748 5.11685 15.1068 4.64512 14.702 4.64512C14.2963 4.64512 13.7571 4.37655 13.5556 4.84654C13.3532 5.32001 12.5436 4.71139 12.4747 4.37481C12.4092 4.03736 12.0707 3.76793 11.1259 3.42961C10.7525 3.2962 10.3259 3.02589 9.94548 2.74512C9.91407 2.82708 9.87743 2.90294 9.8373 2.96136C9.6567 3.23429 9.02245 2.73553 8.75112 3.00845C8.47805 3.2805 7.57247 3.3241 7.07606 3.77752C6.57703 4.23094 5.53447 4.4559 4.94645 4.5928C4.35844 4.7297 4.85659 5.27118 5.08255 5.68013C5.30939 6.08472 5.30939 7.08224 5.76218 7.40051C6.21584 7.71616 7.70944 8.66746 7.89003 8.98399C7.92057 9.03805 7.90225 9.08862 7.86473 9.13658C8.49288 9.30574 9.47262 9.3101 9.64187 9.02758C9.84428 8.69101 9.98038 8.08325 9.98038 8.08325C9.98038 8.08325 11.3292 8.08325 11.8683 8.69101C12.4083 9.29702 13.4204 8.89243 13.4204 8.89243C13.4204 8.89243 13.4762 9.06421 13.5678 9.304C13.7135 8.97003 13.9037 8.67793 14.1349 8.64305C14.7037 8.56283 15.5142 8.48087 16.0822 7.66994C16.377 7.25227 16.8621 6.92093 17.2652 6.69684C16.993 6.36375 16.8516 5.88155 16.5908 5.72373Z" stroke="#868686" stroke-width="0.25"/>
</g>
<defs>
<filter id="filter0_d_877_3282" x="0.544922" y="0.546875" width="20.9121" height="15.0869" filterUnits="userSpaceOnUse" color-interpolation-filters="sRGB">
<feFlood flood-opacity="0" result="BackgroundImageFix"/>
<feColorMatrix in="SourceAlpha" type="matrix" values="0 0 0 0 0 0 0 0 0 0 0 0 0 0 0 0 0 0 127 0" result="hardAlpha"/>
<feOffset dy="2"/>
<feGaussianBlur stdDeviation="2"/>
<feColorMatrix type="matrix" values="0 0 0 0 0 0 0 0 0 0 0 0 0 0 0 0 0 0 0.01 0"/>
<feBlend mode="normal" in2="BackgroundImageFix" result="effect1_dropShadow_877_3282"/>
<feBlend mode="normal" in="SourceGraphic" in2="effect1_dropShadow_877_3282" result="shape"/>
</filter>
</defs>
</svg>
