<svg width="34" height="29" viewBox="0 0 34 29" fill="none" xmlns="http://www.w3.org/2000/svg">
<g filter="url(#filter0_d_877_3222)">
<path fill-rule="evenodd" clip-rule="evenodd" d="M13.5611 22.5216C13.5279 21.1858 13.4825 19.8665 13.5148 19.7392C13.5811 19.4706 16.311 17.8741 16.7777 17.6081C17.2427 17.343 18.1082 17.7415 18.1082 17.2105C18.1082 16.6786 19.2397 16.9446 19.9062 16.8112C20.5719 16.6786 20.9715 16.2121 20.9715 15.6131C20.9715 15.014 21.9032 15.1475 22.5026 15.0794C23.102 15.0149 23.0339 14.4813 23.4344 14.4813C23.8331 14.4813 23.6333 13.8831 23.6996 13.2187C23.7667 12.5534 23.7667 12.6859 24.3652 12.6859C24.9646 12.6859 25.5657 12.3528 25.5657 11.9543C25.5657 11.5541 28.1612 11.8218 28.5608 11.8218C28.9603 11.8218 29.0929 11.3553 29.0266 11.0213C28.9603 10.69 28.6279 9.69247 28.2266 9.62533C27.827 9.55906 28.094 8.56067 28.094 7.76196C28.094 6.96499 27.9614 6.23167 27.4946 5.6335C27.3961 5.5062 27.2809 5.27687 27.1588 5.00395C26.4294 5.01964 25.5483 4.47205 24.7884 4.44851C23.7319 4.41974 22.1022 4.96471 21.317 4.08752C20.5318 3.21207 19.9883 2.94089 19.4151 3.21207C18.8419 3.48325 17.7845 6.50198 17.179 7.37568C16.5753 8.252 14.8854 8.85539 14.0706 8.85539C13.2557 8.85539 13.165 10.0927 12.5307 10.6054C11.8956 11.1181 12.1381 11.9343 11.3826 12.5359C10.6279 13.1393 10.9909 14.9809 11.3826 15.6453C11.7752 16.3089 9.99369 18.3911 8.96772 18.9945C7.94087 19.5979 7.60934 20.7437 5.97877 21.0166C5.34451 21.1221 4.86904 21.395 4.5 21.7403C7.03877 21.7403 10.8042 21.7403 12.0936 21.7403C13.6692 21.7412 13.3089 22.0935 13.5611 22.5216Z" fill="white"/>
<path fill-rule="evenodd" clip-rule="evenodd" d="M13.5611 22.5216C13.5279 21.1858 13.4825 19.8665 13.5148 19.7392C13.5811 19.4706 16.311 17.8741 16.7777 17.6081C17.2427 17.343 18.1082 17.7415 18.1082 17.2105C18.1082 16.6786 19.2397 16.9446 19.9062 16.8112C20.5719 16.6786 20.9715 16.2121 20.9715 15.6131C20.9715 15.014 21.9032 15.1475 22.5026 15.0794C23.102 15.0149 23.0339 14.4813 23.4344 14.4813C23.8331 14.4813 23.6333 13.8831 23.6996 13.2187C23.7667 12.5534 23.7667 12.6859 24.3652 12.6859C24.9646 12.6859 25.5657 12.3528 25.5657 11.9543C25.5657 11.5541 28.1612 11.8218 28.5608 11.8218C28.9603 11.8218 29.0929 11.3553 29.0266 11.0213C28.9603 10.69 28.6279 9.69247 28.2266 9.62533C27.827 9.55906 28.094 8.56067 28.094 7.76196C28.094 6.96499 27.9614 6.23167 27.4946 5.6335C27.3961 5.5062 27.2809 5.27687 27.1588 5.00395C26.4294 5.01964 25.5483 4.47205 24.7884 4.44851C23.7319 4.41974 22.1022 4.96471 21.317 4.08752C20.5318 3.21207 19.9883 2.94089 19.4151 3.21207C18.8419 3.48325 17.7845 6.50198 17.179 7.37568C16.5753 8.252 14.8854 8.85539 14.0706 8.85539C13.2557 8.85539 13.165 10.0927 12.5307 10.6054C11.8956 11.1181 12.1381 11.9343 11.3826 12.5359C10.6279 13.1393 10.9909 14.9809 11.3826 15.6453C11.7752 16.3089 9.99369 18.3911 8.96772 18.9945C7.94087 19.5979 7.60934 20.7437 5.97877 21.0166C5.34451 21.1221 4.86904 21.395 4.5 21.7403C7.03877 21.7403 10.8042 21.7403 12.0936 21.7403C13.6692 21.7412 13.3089 22.0935 13.5611 22.5216Z" stroke="#868686" stroke-width="0.25"/>
</g>
<defs>
<filter id="filter0_d_877_3222" x="0.183594" y="0.986328" width="32.9844" height="28.0137" filterUnits="userSpaceOnUse" color-interpolation-filters="sRGB">
<feFlood flood-opacity="0" result="BackgroundImageFix"/>
<feColorMatrix in="SourceAlpha" type="matrix" values="0 0 0 0 0 0 0 0 0 0 0 0 0 0 0 0 0 0 127 0" result="hardAlpha"/>
<feOffset dy="2"/>
<feGaussianBlur stdDeviation="2"/>
<feColorMatrix type="matrix" values="0 0 0 0 0 0 0 0 0 0 0 0 0 0 0 0 0 0 0.01 0"/>
<feBlend mode="normal" in2="BackgroundImageFix" result="effect1_dropShadow_877_3222"/>
<feBlend mode="normal" in="SourceGraphic" in2="effect1_dropShadow_877_3222" result="shape"/>
</filter>
</defs>
</svg>
