<svg width="93" height="84" viewBox="0 0 93 84" fill="none" xmlns="http://www.w3.org/2000/svg">
<g filter="url(#filter0_d_877_3475)">
<path fill-rule="evenodd" clip-rule="evenodd" d="M87.7682 39.9133C88.132 39.6413 87.5876 38.1938 87.2709 38.4197C86.9542 38.6464 86.9542 36.1552 87.1811 35.026C87.4062 33.8933 87.2709 34.0276 86.682 34.6171C86.0932 35.2056 85.4598 33.4861 85.3237 33.0327C85.1867 32.5802 84.5071 31.3132 83.7385 31.4937C82.9681 31.6759 83.4663 30.4072 82.743 30.545C82.0163 30.6784 81.8828 29.5013 82.0163 28.4166C82.1524 27.3292 81.519 28.1898 81.2014 27.739C80.8848 27.2848 80.5236 27.6475 80.0228 27.8289C79.5246 28.0111 79.3885 26.8793 79.5246 26.4241C79.6616 25.9725 79.4348 25.4284 78.756 24.9313C78.0764 24.4343 78.031 24.0254 78.0764 23.4359C78.1226 22.8491 74.2272 20.8567 73.367 20.6762C72.5059 20.4965 73.2318 19.5897 72.868 19.2749C72.5059 18.9575 72.3707 17.7795 72.3707 16.7846C72.3707 15.7897 71.1031 15.4723 71.1484 14.657C71.1938 13.8426 70.7872 13.0736 70.8762 12.1667C70.967 11.2625 69.5615 11.0375 69.5179 10.5396C69.4725 10.0409 68.7013 10.4934 67.9326 10.585C67.1614 10.6757 67.2085 9.58747 67.2984 8.54722C67.3882 7.50697 66.9808 5.7866 66.3466 5.28958C65.7123 4.79256 65.6678 3.07044 65.3511 2.80014C65.0336 2.52721 63.991 3.7061 64.0355 4.29293C64.0826 4.8815 63.9456 5.56076 63.5391 5.92262C63.1308 6.28536 63.8113 7.68834 63.266 8.1871C62.7225 8.68499 63.2215 10.6757 63.0854 11.8075C62.9502 12.9384 62.9947 14.1609 62.4503 14.9308C61.9085 15.6999 61.8169 16.9233 60.729 17.3305C59.6428 17.7368 58.1937 16.877 58.2391 16.2885C58.2836 15.6999 57.0604 15.3372 56.427 15.4287C55.7937 15.5203 55.4307 14.6134 54.4344 13.8452C53.4372 13.0753 52.6695 14.0249 52.351 13.1206C52.0344 12.2173 51.7177 12.0804 50.9918 11.5825C50.2694 11.0855 50.4945 11.0855 51.1733 10.5859C51.8529 10.0888 51.7177 9.45406 51.3539 8.86549C50.9918 8.27517 51.7621 8.41294 52.6686 7.91331C53.5733 7.41716 52.6686 6.82772 53.3474 6.55654C54.0261 6.28449 53.6204 5.69591 52.8937 5.55989C52.1696 5.42386 52.3964 6.28449 52.1242 6.3743C51.852 6.46498 51.5798 5.2425 51.353 5.28958C51.127 5.33405 50.2686 6.50945 49.814 5.92262C49.3604 5.33405 46.8242 4.83529 45.8279 4.70188C44.8324 4.56411 44.5157 3.29715 43.926 3.52299C43.3371 3.75145 44.0158 4.15778 44.6955 4.8815C45.3742 5.6061 42.4315 6.10225 41.5713 5.83368C40.7119 5.56076 41.7074 6.46673 40.9824 6.42051C40.2574 6.37517 40.1222 7.64126 39.5333 8.27604C38.9444 8.91083 39.3518 9.3625 38.7167 9.76971C38.0824 10.1778 38.0388 10.6295 38.8074 11.4918C39.5778 12.3525 38.4454 12.3969 37.7649 11.7177C37.087 11.0402 36.4065 11.0402 36.4527 11.8083C36.4972 12.5774 35.637 12.2173 35.7731 11.3558C35.9101 10.4952 34.8222 10.9015 34.6425 10.4045C34.4592 9.90661 33.5092 9.0922 32.9194 9.13667C32.3314 9.18288 32.3314 9.81679 31.7425 9.81679C31.1527 9.81679 31.0175 10.1324 31.1074 10.7672C31.199 11.4003 30.2027 10.721 29.5222 10.8126C28.8434 10.9015 29.5222 11.6715 29.1601 11.7168C28.7989 11.7621 28.7989 12.396 28.2083 12.396C27.6194 12.396 27.7119 13.7075 27.8017 14.3867C27.8916 15.0651 26.8953 14.0693 26.3073 14.2525C25.7175 14.4338 26.4425 15.0215 26.6239 15.7923C26.8054 16.5605 26.3073 16.5152 25.9897 16.8326C25.673 17.1491 25.1722 15.972 25.1722 15.2927C25.1722 14.6134 24.4036 15.2474 23.5896 16.1071C22.773 16.9669 23.861 18.28 23.498 18.5059C23.1368 18.7317 21.5054 20.2725 20.5553 21.4034C19.6044 22.5343 17.5646 21.8577 16.9312 22.4C16.297 22.9441 15.6182 22.5343 14.984 23.0331C14.3497 23.531 13.1737 24.4831 13.0376 23.8928C12.9032 23.3051 11.2709 23.7594 10.5922 24.4831C9.91255 25.2069 8.82637 25.8399 8.05514 25.8861C7.28566 25.9306 7.28566 27.1069 6.96897 27.3798C6.65228 27.651 6.74126 26.4267 6.74126 26.1128C6.74126 25.7963 6.01715 26.6552 5.70045 27.6056C5.38376 28.5561 6.47081 28.9179 5.79206 29.9137C5.11156 30.9112 4.47731 31.9044 5.42913 33.1731C6.38008 34.4401 6.92273 35.2553 6.60691 35.8875C6.28934 36.5214 5.61059 34.6206 5.38376 34.849C5.1578 35.0748 6.24485 35.8875 5.97352 36.2965C5.70045 36.7028 4.72595 34.7548 4.52442 35.2091C4.34121 35.6181 6.56067 38.6952 6.60778 39.8253C6.65315 40.9571 8.41895 42.0444 8.32909 43.6741C8.23835 45.3038 9.8698 47.9293 10.1411 48.3365C10.4116 48.7445 9.50599 49.8293 9.68659 51.0526C9.8698 52.2734 9.28004 52.7268 8.51055 52.7268C7.7402 52.7268 8.19473 53.9946 9.05233 54.0853C9.91342 54.176 9.59673 54.7646 10.5477 55.3993C11.4986 56.0324 13.7626 55.8065 14.5329 55.8065C15.3033 55.8065 15.531 54.6277 16.5718 54.5858C17.6135 54.5396 17.5219 54.2222 18.02 53.5865C18.5182 52.9544 20.8738 53.1349 23.2747 53.2726C25.6747 53.4069 26.7156 52.6832 27.0767 51.6865C27.3865 50.8372 29.1156 50.7823 29.7944 50.1475C30.474 49.5145 31.0629 49.47 32.8295 49.559C34.5953 49.6496 36.2268 48.7001 37.3583 48.2475C38.4907 47.7932 40.5741 47.9755 41.6612 47.7043C42.7482 47.4305 42.9288 49.0611 44.1511 48.9259C45.3733 48.7881 45.9177 49.2878 46.552 49.2424C47.1863 49.1962 47.0955 49.695 47.7298 49.8293C48.364 49.9662 48.2742 50.5094 47.8667 51.0988C47.4576 51.6857 48.8168 51.6412 49.677 52.8183C50.5373 53.9955 49.7224 54.176 50.1761 55.0819C50.628 55.9862 50.9447 55.7603 51.8511 54.4934C52.7567 53.2264 53.7522 54.0408 53.8883 52.9544C54.0244 51.8679 54.9771 50.6009 55.6113 51.1442C56.2456 51.6857 55.1568 51.9568 54.7502 54.0408C54.3428 56.1239 53.6187 55.0366 53.4826 55.6234C53.3465 56.212 55.3845 56.5294 55.3845 55.4421C55.3845 54.3556 55.7465 53.8586 56.5178 54.8526C57.2873 55.8519 56.0632 56.6654 56.2456 57.1188C56.4253 57.5705 57.2864 56.9811 57.74 57.0264C58.5453 57.1084 59.6419 58.8837 59.4605 59.835C59.2799 60.7854 59.0077 61.6897 60.5466 62.4613C62.0874 63.2304 61.4985 63.3647 62.6309 63.3647C63.7633 63.3647 66.118 64.2706 66.7522 64.8139C67.3865 65.3562 69.018 64.4058 69.3338 63.3185C69.6513 62.2346 70.8291 63.2749 70.1949 63.6359C69.5589 63.9995 70.5116 64.8592 70.5569 64.2707C70.6014 63.6812 70.8736 63.1851 71.1004 63.8643C71.3264 64.5418 72.143 64.5418 72.4597 65.0851C72.7773 65.6292 73.1384 66.0355 73.1384 65.583C73.1384 65.1304 73.3199 64.7232 74.0449 64.4511C74.7681 64.1782 75.2218 63.6803 75.9913 63.0464C76.7616 62.4134 79.9321 62.2774 80.2487 62.2774C80.5654 62.2774 80.7469 59.5638 80.9275 58.1591C81.109 56.7552 82.2867 56.5294 82.4673 55.0357C82.6488 53.5421 84.2331 50.7806 84.6414 50.6463C85.0497 50.5094 85.821 50.1031 85.8637 49.2424C85.9099 48.3818 86.9508 47.4296 86.9508 46.3903C86.9508 45.3491 87.5414 44.1266 87.4498 43.811C87.3582 43.4945 86.9952 42.4952 87.6757 41.7724C88.3589 41.046 87.4062 40.1854 87.7682 39.9133ZM42.3888 4.47256C42.298 3.92845 39.0735 4.55626 39.761 5.1056C40.2147 5.46659 42.4786 5.01579 42.3888 4.47256ZM52.5796 58.0658C53.0778 58.5175 54.7528 58.3823 55.025 57.7493C55.2964 57.1162 52.1321 57.6621 52.5796 58.0658ZM73.0494 70.6473C71.828 70.7851 69.9925 69.5355 69.5615 69.655C69.0642 69.7884 71.1476 72.9126 70.5142 73.7271C69.8799 74.5423 72.3707 76.7606 73.2318 76.8966C74.0903 77.0309 73.7736 76.036 74.3633 76.0805C74.9531 76.1267 74.7263 75.4919 74.817 75.0393C74.9077 74.5877 75.4966 75.5381 75.9948 75.2661C76.4921 74.994 75.8587 73.0469 76.5837 73.0469C77.3078 73.0469 76.7198 70.6961 76.4929 69.9262C76.2652 69.1554 74.2735 70.5139 73.0494 70.6473Z" fill="white"/>
<path d="M87.7682 39.9133L87.6934 39.8132L87.6931 39.8134L87.7682 39.9133ZM87.2709 38.4197L87.1984 38.3179L87.1982 38.318L87.2709 38.4197ZM87.1811 35.026L87.3036 35.0506L87.3037 35.0504L87.1811 35.026ZM86.682 34.6171L86.7704 34.7055L86.7705 34.7054L86.682 34.6171ZM85.3237 33.0327L85.4434 32.9968L85.4433 32.9965L85.3237 33.0327ZM83.7385 31.4937L83.7099 31.372L83.7097 31.3721L83.7385 31.4937ZM82.743 30.545L82.7656 30.668L82.7664 30.6678L82.743 30.545ZM82.0163 28.4166L81.8923 28.401L81.8922 28.4013L82.0163 28.4166ZM81.2014 27.739L81.0989 27.8105L81.0993 27.811L81.2014 27.739ZM80.0228 27.8289L79.9802 27.7113L79.9798 27.7115L80.0228 27.8289ZM79.5246 26.4241L79.405 26.3879L79.4049 26.3883L79.5246 26.4241ZM78.756 24.9313L78.8299 24.8305L78.8298 24.8304L78.756 24.9313ZM78.0764 23.4359L77.9518 23.4261L77.9518 23.4263L78.0764 23.4359ZM73.367 20.6762L73.3927 20.5538L73.3925 20.5538L73.367 20.6762ZM72.868 19.2749L72.7856 19.3689L72.7862 19.3695L72.868 19.2749ZM71.1484 14.657L71.0236 14.6501V14.6501L71.1484 14.657ZM70.8762 12.1667L70.7519 12.1542L70.7518 12.1545L70.8762 12.1667ZM69.5179 10.5396L69.6424 10.5287L69.6423 10.5283L69.5179 10.5396ZM67.9326 10.585L67.9472 10.7091L67.9474 10.7091L67.9326 10.585ZM65.3511 2.80014L65.2696 2.89494L65.27 2.89521L65.3511 2.80014ZM64.0355 4.29293L63.9109 4.30238L63.9109 4.30291L64.0355 4.29293ZM63.5391 5.92262L63.6221 6.01607L63.6222 6.01599L63.5391 5.92262ZM63.266 8.1871L63.1817 8.09487L63.1816 8.09493L63.266 8.1871ZM63.0854 11.8075L62.9613 11.7926L62.9613 11.7926L63.0854 11.8075ZM62.4503 14.9308L62.3482 14.8587L62.3481 14.8588L62.4503 14.9308ZM60.729 17.3305L60.7728 17.4475L60.7728 17.4475L60.729 17.3305ZM58.2391 16.2885L58.3637 16.2981L58.3637 16.2979L58.2391 16.2885ZM54.4344 13.8452L54.358 13.9442L54.3581 13.9442L54.4344 13.8452ZM52.351 13.1206L52.2331 13.162L52.2331 13.1622L52.351 13.1206ZM50.9918 11.5825L50.9209 11.6855L50.9211 11.6856L50.9918 11.5825ZM51.1733 10.5859L51.0995 10.485L51.0992 10.4852L51.1733 10.5859ZM51.3539 8.86549L51.2473 8.93084L51.2475 8.93121L51.3539 8.86549ZM52.6686 7.91331L52.6085 7.80371L52.6083 7.80383L52.6686 7.91331ZM53.3474 6.55654L53.3937 6.67262L53.3939 6.67257L53.3474 6.55654ZM52.8937 5.55989L52.8706 5.68274L52.8707 5.68275L52.8937 5.55989ZM52.1242 6.3743L52.085 6.25559L52.0847 6.25571L52.1242 6.3743ZM51.353 5.28958L51.3771 5.41224L51.3784 5.41197L51.353 5.28958ZM49.814 5.92262L49.715 5.99893L49.7152 5.99917L49.814 5.92262ZM45.8279 4.70188L45.8107 4.8257L45.8113 4.82577L45.8279 4.70188ZM43.926 3.52299L43.8813 3.40626L43.8808 3.40645L43.926 3.52299ZM44.6955 4.8815L44.7867 4.79605L44.7866 4.79594L44.6955 4.8815ZM41.5713 5.83368L41.5335 5.95282L41.534 5.953L41.5713 5.83368ZM40.9824 6.42051L40.9904 6.29577L40.9902 6.29576L40.9824 6.42051ZM38.7167 9.76971L38.6492 9.66448L38.6491 9.66459L38.7167 9.76971ZM38.8074 11.4918L38.7141 11.575L38.7143 11.5752L38.8074 11.4918ZM37.7649 11.7177L37.6765 11.8061L37.6766 11.8061L37.7649 11.7177ZM36.4527 11.8083L36.5775 11.8011L36.5775 11.8008L36.4527 11.8083ZM35.7731 11.3558L35.6497 11.3362L35.6497 11.3363L35.7731 11.3558ZM34.6425 10.4045L34.76 10.362L34.7598 10.3613L34.6425 10.4045ZM32.9194 9.13667L32.91 9.01202L32.9096 9.01205L32.9194 9.13667ZM31.1074 10.7672L30.9836 10.7847L30.9837 10.7851L31.1074 10.7672ZM29.5222 10.8126L29.5384 10.9365L29.5388 10.9365L29.5222 10.8126ZM29.1601 11.7168L29.1446 11.5928L29.1445 11.5928L29.1601 11.7168ZM27.8017 14.3867L27.6778 14.4031L27.6778 14.4031L27.8017 14.3867ZM26.3073 14.2525L26.344 14.3719L26.3444 14.3718L26.3073 14.2525ZM26.6239 15.7923L26.5023 15.821L26.5023 15.8211L26.6239 15.7923ZM25.9897 16.8326L25.9013 16.7442L25.9897 16.8326ZM23.5896 16.1071L23.6803 16.1932L23.6804 16.193L23.5896 16.1071ZM23.498 18.5059L23.432 18.3997L23.4318 18.3999L23.498 18.5059ZM20.5553 21.4034L20.651 21.4838L20.651 21.4838L20.5553 21.4034ZM16.9312 22.4L16.8499 22.3051L16.8499 22.3052L16.9312 22.4ZM14.984 23.0331L15.0612 23.1314L15.0613 23.1313L14.984 23.0331ZM13.0376 23.8928L12.9157 23.9207L12.9158 23.9209L13.0376 23.8928ZM10.5922 24.4831L10.6833 24.5687L10.6833 24.5687L10.5922 24.4831ZM8.05514 25.8861L8.06236 26.0109L8.06262 26.0109L8.05514 25.8861ZM6.96897 27.3798L7.05027 27.4747L7.05057 27.4745L6.96897 27.3798ZM5.79206 29.9137L5.89532 29.9842L5.89535 29.9841L5.79206 29.9137ZM5.42913 33.1731L5.32914 33.2481L5.32916 33.2481L5.42913 33.1731ZM6.60691 35.8875L6.71867 35.9435L6.71873 35.9434L6.60691 35.8875ZM5.38376 34.849L5.47213 34.9374L5.47246 34.9371L5.38376 34.849ZM5.97352 36.2965L6.07727 36.3662L6.07768 36.3656L5.97352 36.2965ZM4.52442 35.2091L4.63849 35.2602L4.63868 35.2598L4.52442 35.2091ZM6.60778 39.8253L6.73268 39.8203L6.73267 39.8201L6.60778 39.8253ZM8.32909 43.6741L8.45389 43.6811L8.4539 43.681L8.32909 43.6741ZM10.1411 48.3365L10.2453 48.2674L10.2451 48.2672L10.1411 48.3365ZM9.68659 51.0526L9.56293 51.0709L9.56297 51.0712L9.68659 51.0526ZM9.05233 54.0853L9.03919 54.2096L9.03924 54.2096L9.05233 54.0853ZM10.5477 55.3993L10.4783 55.5033L10.4784 55.5034L10.5477 55.3993ZM16.5718 54.5858L16.5768 54.7107L16.5773 54.7107L16.5718 54.5858ZM18.02 53.5865L17.9219 53.5092L17.9217 53.5094L18.02 53.5865ZM23.2747 53.2726L23.2675 53.3974L23.2677 53.3974L23.2747 53.2726ZM27.0767 51.6865L26.9593 51.6437L26.9592 51.6439L27.0767 51.6865ZM29.7944 50.1475L29.7092 50.0561L29.709 50.0562L29.7944 50.1475ZM32.8295 49.559L32.836 49.4341L32.8358 49.4341L32.8295 49.559ZM37.3583 48.2475L37.4047 48.3636L37.4049 48.3635L37.3583 48.2475ZM41.6612 47.7043L41.6914 47.8256L41.6917 47.8255L41.6612 47.7043ZM44.1511 48.9259L44.1648 49.0502L44.1651 49.0501L44.1511 48.9259ZM46.552 49.2424L46.5609 49.3671L46.5611 49.3671L46.552 49.2424ZM47.7298 49.8293L47.7561 49.7071L47.7557 49.707L47.7298 49.8293ZM47.8667 51.0988L47.9693 51.1703L47.9696 51.1699L47.8667 51.0988ZM50.1761 55.0819L50.2879 55.0261L50.2878 55.026L50.1761 55.0819ZM51.8511 54.4934L51.9528 54.5661L51.9528 54.5661L51.8511 54.4934ZM55.6113 51.1442L55.53 51.2391L55.5302 51.2392L55.6113 51.1442ZM54.7502 54.0408L54.8729 54.0648L54.8729 54.0648L54.7502 54.0408ZM53.4826 55.6234L53.3608 55.5952L53.3608 55.5953L53.4826 55.6234ZM56.5178 54.8526L56.6168 54.7764L56.6165 54.776L56.5178 54.8526ZM56.2456 57.1188L56.3617 57.0726L56.3615 57.0722L56.2456 57.1188ZM57.74 57.0264L57.7527 56.9021L57.7525 56.902L57.74 57.0264ZM59.4605 59.835L59.3377 59.8116L59.3377 59.8117L59.4605 59.835ZM60.5466 62.4613L60.4906 62.5731L60.4908 62.5732L60.5466 62.4613ZM66.7522 64.8139L66.6709 64.9088L66.671 64.9089L66.7522 64.8139ZM69.3338 63.3185L69.2138 63.2833L69.2137 63.2836L69.3338 63.3185ZM70.1949 63.6359L70.133 63.5272L70.1328 63.5273L70.1949 63.6359ZM70.5569 64.2707L70.6815 64.2803L70.6816 64.2801L70.5569 64.2707ZM71.1004 63.8643L71.219 63.8248L71.219 63.8247L71.1004 63.8643ZM72.4597 65.0851L72.3517 65.148L72.3517 65.1481L72.4597 65.0851ZM74.0449 64.4511L74.0888 64.5682L74.089 64.5681L74.0449 64.4511ZM75.9913 63.0464L75.9119 62.9498L75.9118 62.9499L75.9913 63.0464ZM80.9275 58.1591L80.8035 58.1431L80.8035 58.1432L80.9275 58.1591ZM82.4673 55.0357L82.3432 55.0207L82.3432 55.0207L82.4673 55.0357ZM84.6414 50.6463L84.6805 50.765L84.6812 50.7648L84.6414 50.6463ZM85.8637 49.2424L85.7389 49.2357L85.7389 49.2362L85.8637 49.2424ZM87.4498 43.811L87.3297 43.8457L87.3297 43.8458L87.4498 43.811ZM87.6757 41.7724L87.7668 41.858L87.7668 41.858L87.6757 41.7724ZM42.3888 4.47256L42.5121 4.45216L42.5121 4.45199L42.3888 4.47256ZM39.761 5.1056L39.683 5.20325L39.6832 5.20341L39.761 5.1056ZM52.5796 58.0658L52.6636 57.9732L52.6633 57.973L52.5796 58.0658ZM55.025 57.7493L55.1399 57.7986L55.1399 57.7985L55.025 57.7493ZM73.0494 70.6473L73.0359 70.523L73.0354 70.5231L73.0494 70.6473ZM69.5615 69.655L69.5939 69.7757L69.5949 69.7755L69.5615 69.655ZM70.5142 73.7271L70.6128 73.8038L70.6128 73.8038L70.5142 73.7271ZM73.2318 76.8966L73.2123 77.0201L73.2125 77.0201L73.2318 76.8966ZM74.3633 76.0805L74.3731 75.9558L74.3727 75.9558L74.3633 76.0805ZM74.817 75.0393L74.6944 75.0147L74.6944 75.0148L74.817 75.0393ZM75.9948 75.2661L76.0547 75.3758L76.0548 75.3757L75.9948 75.2661ZM76.4929 69.9262L76.6128 69.8909L76.6128 69.8908L76.4929 69.9262ZM87.8431 40.0134C87.9166 39.9584 87.9599 39.8792 87.9841 39.7973C88.0084 39.7154 88.0161 39.6233 88.0135 39.5299C88.0082 39.343 87.9607 39.1304 87.8926 38.9381C87.8248 38.7467 87.7324 38.5634 87.6295 38.4396C87.5788 38.3786 87.5175 38.3221 87.4461 38.2924C87.3675 38.2597 87.2778 38.2612 87.1984 38.3179L87.3435 38.5214C87.3463 38.5195 87.3456 38.5206 87.3429 38.5208C87.3408 38.521 87.3427 38.5202 87.3502 38.5233C87.3678 38.5306 87.3981 38.5523 87.4373 38.5994C87.5142 38.692 87.5945 38.8452 87.6569 39.0215C87.719 39.1968 87.7592 39.383 87.7636 39.537C87.7658 39.6139 87.7588 39.6778 87.7444 39.7263C87.7301 39.7747 87.7108 39.8002 87.6934 39.8132L87.8431 40.0134ZM87.1982 38.318C87.2018 38.3154 87.2255 38.3025 87.2565 38.3133C87.2788 38.3211 87.2821 38.334 87.2734 38.3198C87.2564 38.2922 87.2344 38.2288 87.2143 38.1209C87.1752 37.9121 87.1528 37.5951 87.1472 37.2294C87.136 36.4986 87.1926 35.6032 87.3036 35.0506L87.0585 35.0014C86.9427 35.578 86.8859 36.4928 86.8972 37.2332C86.9028 37.6031 86.9256 37.9369 86.9685 38.1668C86.9893 38.2783 87.0176 38.3811 87.0603 38.4507C87.0815 38.4851 87.117 38.5294 87.174 38.5493C87.2397 38.5723 87.3004 38.5523 87.3437 38.5213L87.1982 38.318ZM87.3037 35.0504C87.3599 34.7673 87.3952 34.5564 87.4056 34.4102C87.4107 34.3381 87.4105 34.2728 87.4 34.2193C87.3904 34.1702 87.3645 34.0948 87.2865 34.061C87.2127 34.0291 87.1415 34.0569 87.1012 34.0775C87.0555 34.1008 87.0075 34.1369 86.9594 34.1776C86.8624 34.2596 86.7392 34.383 86.5936 34.5287L86.7705 34.7054C86.9194 34.5564 87.0338 34.442 87.1208 34.3684C87.1647 34.3314 87.1952 34.3102 87.215 34.3C87.2401 34.2872 87.2213 34.3052 87.1871 34.2904C87.1488 34.2738 87.1498 34.2425 87.1547 34.2675C87.1588 34.2882 87.1608 34.3272 87.1562 34.3925C87.147 34.5213 87.1148 34.7184 87.0585 35.0016L87.3037 35.0504ZM86.5937 34.5286C86.535 34.5873 86.4856 34.6079 86.446 34.6124C86.406 34.6169 86.3596 34.6069 86.3042 34.574C86.1879 34.5051 86.0625 34.354 85.9401 34.1511C85.6989 33.751 85.5101 33.219 85.4434 32.9968L85.2039 33.0686C85.2733 33.2998 85.4693 33.8543 85.726 34.2802C85.8526 34.4902 86.0045 34.687 86.1768 34.7891C86.2657 34.8418 86.3665 34.8731 86.4743 34.8608C86.5827 34.8484 86.6818 34.794 86.7704 34.7055L86.5937 34.5286ZM85.4433 32.9965C85.3702 32.7548 85.1584 32.3106 84.8652 31.9473C84.7182 31.7652 84.5457 31.5971 84.3537 31.4861C84.1602 31.3744 83.9409 31.3178 83.7099 31.372L83.767 31.6154C83.9203 31.5794 84.0743 31.6135 84.2286 31.7026C84.3845 31.7926 84.5346 31.9357 84.6707 32.1043C84.9437 32.4425 85.1402 32.8581 85.204 33.0689L85.4433 32.9965ZM83.7097 31.3721C83.627 31.3916 83.5729 31.3889 83.5374 31.3791C83.5041 31.3699 83.4792 31.3523 83.4572 31.3249C83.4059 31.2607 83.3778 31.1549 83.345 31.0087C83.3161 30.8795 83.2822 30.7109 83.1981 30.5895C83.1528 30.5242 83.0906 30.4681 83.0053 30.4365C82.9212 30.4053 82.8257 30.402 82.7196 30.4222L82.7664 30.6678C82.8411 30.6536 82.8883 30.6597 82.9184 30.6709C82.9473 30.6816 82.9709 30.7006 82.9926 30.732C83.0426 30.804 83.0679 30.9154 83.1011 31.0634C83.1305 31.1943 83.1676 31.363 83.262 31.4811C83.313 31.5448 83.3812 31.5953 83.4709 31.6201C83.5585 31.6443 83.6573 31.6413 83.7672 31.6153L83.7097 31.3721ZM82.7205 30.4221C82.5774 30.4483 82.4737 30.4111 82.3908 30.3313C82.3018 30.2455 82.2291 30.1023 82.178 29.9061C82.0762 29.5149 82.0745 28.9673 82.1404 28.4318L81.8922 28.4013C81.8246 28.9505 81.8229 29.5339 81.9361 29.9691C81.9926 30.1861 82.0811 30.38 82.2174 30.5113C82.3597 30.6485 82.5453 30.7084 82.7656 30.668L82.7205 30.4221ZM82.1403 28.4321C82.1578 28.2921 82.1637 28.1782 82.1581 28.0862C82.1527 27.9954 82.1356 27.9165 82.0996 27.8534C82.0608 27.7854 82.004 27.7429 81.9372 27.7233C81.8764 27.7054 81.8142 27.7087 81.7633 27.7151C81.7133 27.7214 81.6564 27.7337 81.6119 27.7419C81.5634 27.7509 81.5208 27.7571 81.4815 27.7572C81.411 27.7574 81.3546 27.7395 81.3036 27.6671L81.0993 27.811C81.207 27.964 81.3489 28.0076 81.4822 28.0072C81.5449 28.007 81.6056 27.9973 81.6575 27.9877C81.7135 27.9774 81.7541 27.9682 81.7947 27.9631C81.8343 27.9581 81.8556 27.9599 81.8668 27.9632C81.8721 27.9647 81.876 27.9661 81.8825 27.9773C81.8917 27.9935 81.9043 28.0293 81.9086 28.1013C81.9129 28.1721 81.9088 28.2692 81.8923 28.401L82.1403 28.4321ZM81.304 27.6676C81.2139 27.5383 81.1113 27.4542 80.9915 27.4166C80.8728 27.3794 80.7551 27.3935 80.6459 27.4257C80.5383 27.4573 80.4271 27.5102 80.3196 27.5617C80.209 27.6148 80.0984 27.6685 79.9802 27.7113L80.0653 27.9464C80.1975 27.8985 80.3199 27.8389 80.4277 27.7871C80.5387 27.7339 80.6315 27.6904 80.7164 27.6655C80.7996 27.641 80.8629 27.6383 80.9167 27.6552C80.9693 27.6717 81.0306 27.7126 81.0989 27.8105L81.304 27.6676ZM79.9798 27.7115C79.9391 27.7264 79.9094 27.7256 79.8866 27.7192C79.8628 27.7124 79.8362 27.6966 79.8076 27.6656C79.7477 27.6006 79.6948 27.4859 79.6571 27.3352C79.5819 27.0344 79.5842 26.6611 79.6444 26.4599L79.4049 26.3883C79.3289 26.6423 79.3312 27.0625 79.4146 27.3958C79.4562 27.5623 79.5222 27.7247 79.6237 27.8349C79.6758 27.8915 79.7405 27.9377 79.8189 27.9598C79.8984 27.9822 79.9819 27.9769 80.0657 27.9462L79.9798 27.7115ZM79.6442 26.4604C79.8037 25.9345 79.5276 25.3414 78.8299 24.8305L78.6822 25.0322C79.3419 25.5153 79.5195 26.0104 79.405 26.3879L79.6442 26.4604ZM78.8298 24.8304C78.502 24.5907 78.3404 24.3819 78.2612 24.1738C78.181 23.9632 78.1786 23.7374 78.201 23.4455L77.9518 23.4263C77.9289 23.7239 77.9264 23.9973 78.0275 24.2628C78.1295 24.5307 78.3304 24.775 78.6822 25.0322L78.8298 24.8304ZM78.201 23.4457C78.2066 23.3744 78.1819 23.3068 78.1497 23.2492C78.1168 23.1903 78.0696 23.1305 78.0139 23.0709C77.9024 22.9516 77.7434 22.8196 77.5548 22.6816C77.1766 22.405 76.6619 22.0924 76.1221 21.7943C75.5816 21.4958 75.0126 21.21 74.5241 20.9873C74.0399 20.7665 73.6232 20.6022 73.3927 20.5538L73.3413 20.7985C73.5409 20.8404 73.9337 20.9928 74.4204 21.2147C74.9028 21.4347 75.4661 21.7176 76.0012 22.0131C76.537 22.309 77.0412 22.6158 77.4072 22.8834C77.5907 23.0176 77.7353 23.139 77.8313 23.2416C77.8793 23.293 77.912 23.3363 77.9315 23.3712C77.9517 23.4074 77.9519 23.4241 77.9518 23.4261L78.201 23.4457ZM73.3925 20.5538C73.2028 20.5142 73.1251 20.4412 73.0883 20.3689C73.0469 20.2878 73.0416 20.179 73.0554 20.0385C73.0622 19.9693 73.0726 19.9002 73.0826 19.8259C73.0923 19.7538 73.1014 19.6779 73.1033 19.6047C73.107 19.4608 73.0839 19.2965 72.9498 19.1804L72.7862 19.3695C72.8339 19.4108 72.8565 19.4779 72.8534 19.5982C72.8519 19.657 72.8444 19.7214 72.8348 19.7926C72.8255 19.8617 72.814 19.9389 72.8066 20.014C72.7921 20.162 72.7895 20.3333 72.8656 20.4825C72.9462 20.6407 73.1007 20.7483 73.3415 20.7985L73.3925 20.5538ZM72.9504 19.1809C72.883 19.1219 72.8156 19.0118 72.7547 18.8482C72.6947 18.6874 72.6455 18.4875 72.6068 18.2626C72.5293 17.8132 72.4957 17.2774 72.4957 16.7846H72.2457C72.2457 17.2867 72.2798 17.8375 72.3604 18.3051C72.4007 18.5388 72.4532 18.7551 72.5204 18.9355C72.5866 19.1131 72.6719 19.2693 72.7856 19.3689L72.9504 19.1809ZM72.4957 16.7846C72.4957 16.2285 72.1377 15.8663 71.8301 15.5643C71.6712 15.4082 71.5269 15.2701 71.4225 15.1216C71.3207 14.9768 71.2639 14.8314 71.2732 14.664L71.0236 14.6501C71.0102 14.8903 71.0949 15.0904 71.218 15.2654C71.3386 15.4369 71.5026 15.5931 71.655 15.7427C71.9699 16.0519 72.2457 16.3459 72.2457 16.7846H72.4957ZM71.2732 14.664C71.297 14.2369 71.2021 13.8232 71.1183 13.4211C71.0335 13.0135 70.9582 12.6114 71.0006 12.1789L70.7518 12.1545C70.7053 12.6289 70.7888 13.0647 70.8736 13.472C70.9595 13.8847 71.0452 14.2627 71.0236 14.6501L71.2732 14.664ZM71.0006 12.1792C71.054 11.6474 70.6604 11.3271 70.317 11.097C70.1339 10.9743 69.9703 10.8801 69.8376 10.7778C69.7033 10.6742 69.6482 10.5958 69.6424 10.5287L69.3933 10.5506C69.4093 10.7325 69.5463 10.8689 69.6849 10.9758C69.8251 11.0839 70.0154 11.1958 70.1778 11.3047C70.5254 11.5376 70.7892 11.7818 70.7519 12.1542L71.0006 12.1792ZM69.6423 10.5283C69.6352 10.4496 69.6126 10.3776 69.5675 10.3187C69.5215 10.2586 69.4601 10.2226 69.3939 10.2034C69.2704 10.1676 69.1181 10.1875 68.9706 10.2187C68.8195 10.2506 68.6425 10.3021 68.4665 10.3482C68.2868 10.3954 68.1012 10.439 67.9179 10.4609L67.9474 10.7091C68.1484 10.6852 68.3474 10.6379 68.5299 10.5901C68.7161 10.5412 68.8789 10.4935 69.0223 10.4633C69.1693 10.4322 69.2664 10.4267 69.3243 10.4435C69.3488 10.4506 69.3611 10.4603 69.369 10.4706C69.3778 10.4821 69.3892 10.505 69.3934 10.551L69.6423 10.5283ZM67.918 10.4608C67.7578 10.4797 67.6567 10.4375 67.5851 10.364C67.5075 10.2841 67.4503 10.1524 67.4155 9.96713C67.3458 9.59614 67.3777 9.08153 67.4229 8.55798L67.1739 8.53646C67.1292 9.05316 67.0927 9.60278 67.1698 10.0133C67.2084 10.2188 67.2784 10.4071 67.4059 10.5383C67.5397 10.6758 67.7219 10.7356 67.9472 10.7091L67.918 10.4608ZM67.4229 8.55798C67.4694 8.01972 67.3874 7.31445 67.2146 6.68176C67.128 6.36465 67.0177 6.06211 66.8869 5.80526C66.757 5.55016 66.6026 5.33138 66.4237 5.19119L66.2695 5.38797C66.4077 5.49629 66.542 5.67894 66.6641 5.9187C66.7853 6.15671 66.8901 6.44247 66.9734 6.74762C67.1405 7.35943 67.2172 8.03447 67.1739 8.53646L67.4229 8.55798ZM66.4237 5.19119C66.2901 5.08653 66.1786 4.90912 66.0833 4.6808C65.9889 4.45447 65.9158 4.19185 65.8511 3.92988C65.7876 3.67249 65.7306 3.4088 65.6714 3.19923C65.6414 3.09337 65.6093 2.99549 65.5731 2.91368C65.5379 2.83438 65.4934 2.75722 65.4323 2.70506L65.27 2.89521C65.288 2.91063 65.3141 2.94641 65.3445 3.01497C65.3738 3.08102 65.4021 3.16592 65.4308 3.26728C65.4887 3.47216 65.542 3.72075 65.6084 3.98981C65.6737 4.25428 65.7505 4.53228 65.8526 4.77708C65.954 5.01989 66.0859 5.24413 66.2695 5.38797L66.4237 5.19119ZM65.4326 2.70534C65.3596 2.64261 65.2704 2.62741 65.1863 2.6378C65.1047 2.64786 65.0217 2.68219 64.9431 2.72731C64.7853 2.81787 64.6162 2.96872 64.4638 3.14141C64.3105 3.31507 64.1682 3.51747 64.0663 3.71687C63.9664 3.91252 63.8971 4.12124 63.9109 4.30238L64.1601 4.28348C64.1516 4.17121 64.196 4.01251 64.289 3.8306C64.38 3.65244 64.5098 3.46715 64.6513 3.30685C64.7936 3.14557 64.942 3.0162 65.0675 2.94414C65.1306 2.90795 65.1808 2.89037 65.2169 2.88591C65.2504 2.88177 65.2632 2.88943 65.2696 2.89494L65.4326 2.70534ZM63.9109 4.30291C63.9568 4.87598 63.8193 5.5059 63.456 5.82925L63.6222 6.01599C64.072 5.61562 64.2085 4.88703 64.1601 4.28296L63.9109 4.30291ZM63.4561 5.82918C63.3112 5.95786 63.278 6.163 63.2759 6.35793C63.2736 6.5581 63.3048 6.79368 63.3297 7.01765C63.3552 7.24752 63.3748 7.46924 63.3568 7.66231C63.3389 7.8553 63.2852 8.00019 63.1817 8.09487L63.3504 8.27934C63.5195 8.12464 63.5852 7.90711 63.6058 7.68543C63.6264 7.46384 63.6035 7.21862 63.5782 6.99005C63.5521 6.75559 63.5238 6.54124 63.5258 6.36074C63.5279 6.17502 63.5628 6.06875 63.6221 6.01607L63.4561 5.82918ZM63.1816 8.09493C63.0106 8.25157 62.9359 8.50907 62.9035 8.78929C62.8704 9.07499 62.8782 9.41496 62.8981 9.76665C62.9082 9.94315 62.9214 10.1245 62.9344 10.3049C62.9474 10.4857 62.9603 10.6656 62.9698 10.8411C62.9889 11.1933 62.994 11.5209 62.9613 11.7926L63.2095 11.8224C63.2449 11.5281 63.2387 11.1825 63.2194 10.8276C63.2098 10.6495 63.1968 10.4674 63.1837 10.2869C63.1707 10.106 63.1576 9.92668 63.1477 9.75249C63.1279 9.4028 63.1213 9.08101 63.1518 8.81806C63.1829 8.54962 63.2497 8.37158 63.3505 8.27927L63.1816 8.09493ZM62.9613 11.7926C62.9272 12.0782 62.9044 12.3693 62.8811 12.6542C62.8577 12.94 62.8338 13.2198 62.7974 13.4877C62.7243 14.0257 62.6025 14.499 62.3482 14.8587L62.5524 15.003C62.8424 14.5927 62.9706 14.0698 63.0452 13.5214C63.0826 13.246 63.1069 12.96 63.1303 12.6745C63.1537 12.388 63.1761 12.1022 63.2095 11.8223L62.9613 11.7926ZM62.3481 14.8588C62.2053 15.0616 62.094 15.2915 61.9915 15.5222C61.8874 15.7567 61.7943 15.9873 61.6827 16.2104C61.4619 16.6515 61.1859 17.026 60.6852 17.2134L60.7728 17.4475C61.36 17.2278 61.6737 16.7869 61.9062 16.3223C62.0212 16.0925 62.1206 15.8477 62.22 15.6237C62.3211 15.396 62.4244 15.1846 62.5525 15.0028L62.3481 14.8588ZM60.6852 17.2134C60.1845 17.4007 59.5875 17.2986 59.1141 17.07C58.8787 16.9563 58.6814 16.8149 58.5477 16.6715C58.4105 16.5244 58.3563 16.3936 58.3637 16.2981L58.1144 16.2789C58.0991 16.4777 58.2091 16.675 58.3648 16.842C58.524 17.0126 58.7484 17.1711 59.0054 17.2951C59.5167 17.542 60.1873 17.6666 60.7728 17.4475L60.6852 17.2134ZM58.3637 16.2979C58.3785 16.102 58.2859 15.9349 58.151 15.8035C58.017 15.6727 57.8323 15.5675 57.634 15.4876C57.2389 15.3285 56.7523 15.2554 56.4092 15.305L56.4449 15.5524C56.7351 15.5105 57.1768 15.573 57.5406 15.7195C57.7216 15.7924 57.874 15.8825 57.9765 15.9825C58.0783 16.0817 58.1219 16.1807 58.1144 16.2791L58.3637 16.2979ZM56.4092 15.305C56.1636 15.3405 55.9566 15.1896 55.6576 14.8735C55.3705 14.5699 55.0192 14.1383 54.5107 13.7463L54.3581 13.9442C54.8459 14.3204 55.1743 14.7263 55.476 15.0453C55.7659 15.3518 56.0571 15.6085 56.4449 15.5524L56.4092 15.305ZM54.5108 13.7463C53.9718 13.3301 53.4871 13.3804 53.1284 13.4087C52.9439 13.4232 52.8164 13.4286 52.715 13.3902C52.6272 13.3569 52.5404 13.2821 52.4689 13.0791L52.2331 13.1622C52.3209 13.4113 52.4495 13.5569 52.6264 13.6239C52.7896 13.6858 52.9761 13.6715 53.148 13.6579C53.5021 13.63 53.8998 13.5904 54.358 13.9442L54.5108 13.7463ZM52.469 13.0793C52.3067 12.6162 52.14 12.3378 51.9132 12.1111C51.693 11.891 51.4169 11.7225 51.0625 11.4794L50.9211 11.6856C51.2926 11.9404 51.5377 12.0893 51.7365 12.2879C51.9287 12.48 52.0787 12.7217 52.2331 13.162L52.469 13.0793ZM51.0626 11.4795C50.8811 11.3546 50.7715 11.269 50.7129 11.2038C50.6843 11.172 50.675 11.1527 50.6723 11.1438C50.6708 11.1389 50.6708 11.1374 50.6728 11.1324C50.6765 11.1235 50.687 11.1062 50.7148 11.0788C50.7422 11.0518 50.7803 11.0208 50.8314 10.9829C50.8823 10.9452 50.9422 10.9034 51.0126 10.8542C51.0825 10.8053 51.1612 10.7499 51.2474 10.6865L51.0992 10.4852C51.0156 10.5467 50.9389 10.6006 50.8693 10.6493C50.8003 10.6977 50.7369 10.7418 50.6825 10.7821C50.6284 10.8222 50.5793 10.8614 50.5394 10.9007C50.5 10.9395 50.4631 10.9846 50.4414 11.038C50.418 11.0953 50.4145 11.156 50.4333 11.2172C50.4509 11.2744 50.4857 11.3251 50.527 11.371C50.6081 11.4611 50.7413 11.5619 50.9209 11.6855L51.0626 11.4795ZM51.247 10.6868C51.6139 10.4185 51.7733 10.1011 51.7798 9.76241C51.7862 9.43281 51.6472 9.10226 51.4602 8.79976L51.2475 8.93121C51.4244 9.21729 51.5349 9.49842 51.5299 9.7576C51.525 10.0077 51.4123 10.2562 51.0995 10.485L51.247 10.6868ZM51.4604 8.80013C51.3741 8.65949 51.3849 8.60715 51.3928 8.58973C51.4053 8.5624 51.449 8.5234 51.581 8.47182C51.8164 8.37989 52.2681 8.27681 52.7289 8.02278L52.6083 7.80383C52.1627 8.04943 51.776 8.12729 51.4901 8.23896C51.3615 8.28918 51.2238 8.35765 51.1653 8.48613C51.1023 8.62452 51.1525 8.77633 51.2473 8.93084L51.4604 8.80013ZM52.7287 8.02291C52.9719 7.88954 53.1096 7.74071 53.1765 7.57757C53.2423 7.41712 53.2314 7.26117 53.2169 7.13614C53.2092 7.06958 53.2013 7.01826 53.1976 6.96543C53.194 6.91477 53.1956 6.87548 53.2036 6.8429C53.2163 6.79086 53.251 6.72966 53.3937 6.67262L53.301 6.44046C53.1044 6.519 52.9976 6.63318 52.9608 6.78343C52.944 6.852 52.9438 6.92059 52.9482 6.98293C52.9524 7.0431 52.9622 7.1099 52.9686 7.16498C52.9823 7.28323 52.9855 7.38462 52.9452 7.48271C52.9061 7.57809 52.8177 7.689 52.6085 7.80371L52.7287 8.02291ZM53.3939 6.67257C53.5796 6.59814 53.713 6.49358 53.7776 6.35944C53.8445 6.22061 53.8262 6.07448 53.7575 5.94763C53.6253 5.70386 53.3004 5.50884 52.9167 5.43702L52.8707 5.68275C53.2138 5.74697 53.455 5.91424 53.5377 6.06678C53.5763 6.13808 53.5776 6.1986 53.5524 6.25089C53.5249 6.30788 53.4545 6.37891 53.3009 6.44051L53.3939 6.67257ZM52.9168 5.43704C52.713 5.39875 52.5527 5.42698 52.4317 5.51675C52.3154 5.60314 52.2571 5.73117 52.2206 5.84388C52.202 5.90122 52.1876 5.95953 52.1749 6.01179C52.1618 6.06583 52.1508 6.11201 52.1381 6.15295C52.1094 6.2452 52.0875 6.25477 52.085 6.25559L52.1634 6.493C52.297 6.44892 52.3488 6.31723 52.3768 6.22711C52.3924 6.17686 52.4055 6.12158 52.4178 6.07077C52.4306 6.01819 52.4431 5.96827 52.4584 5.92093C52.4897 5.82426 52.5275 5.75703 52.5808 5.71749C52.6294 5.68135 52.7124 5.65301 52.8706 5.68274L52.9168 5.43704ZM52.0847 6.25571C52.1014 6.25015 52.1093 6.26053 52.0957 6.25067C52.0795 6.23893 52.0555 6.2132 52.0248 6.16716C51.9641 6.07603 51.9015 5.94284 51.8355 5.79678C51.7719 5.65613 51.7048 5.50283 51.6391 5.38935C51.6065 5.333 51.5693 5.27751 51.527 5.23659C51.4873 5.19809 51.4174 5.14854 51.3276 5.16719L51.3784 5.41197C51.3453 5.41885 51.3335 5.39721 51.3531 5.41619C51.3702 5.43276 51.3937 5.46434 51.4227 5.51456C51.4804 5.61422 51.5409 5.75204 51.6077 5.8998C51.6721 6.04214 51.7427 6.19463 51.8167 6.30573C51.8534 6.36081 51.897 6.41535 51.9487 6.45292C52.003 6.49237 52.079 6.52112 52.1637 6.49289L52.0847 6.25571ZM51.3288 5.16693C51.2951 5.17357 51.2647 5.18846 51.2407 5.20233C51.2156 5.21694 51.1898 5.23504 51.1646 5.25441C51.1142 5.29299 51.0571 5.34331 50.9976 5.39681C50.8758 5.50624 50.7383 5.63414 50.5939 5.74305C50.4476 5.85343 50.3096 5.93201 50.1909 5.95477C50.1339 5.96569 50.0854 5.96293 50.0432 5.94793C50.0015 5.93312 49.9572 5.90331 49.9128 5.84608L49.7152 5.99917C49.7845 6.08864 49.8665 6.15047 49.9596 6.18353C50.0521 6.2164 50.147 6.21774 50.238 6.2003C50.4152 6.16632 50.5912 6.0583 50.7445 5.94263C50.8998 5.82548 51.0477 5.68787 51.1647 5.58275C51.2245 5.52897 51.275 5.48474 51.3167 5.45283C51.3374 5.43695 51.3537 5.42581 51.3662 5.4186C51.3799 5.41065 51.3826 5.41115 51.3771 5.41223L51.3288 5.16693ZM49.913 5.84631C49.8431 5.75559 49.7394 5.674 49.6186 5.60005C49.4966 5.52533 49.3501 5.45422 49.1878 5.38689C48.8633 5.25223 48.4666 5.12887 48.0563 5.0207C47.2354 4.80428 46.3471 4.6453 45.8445 4.57799L45.8113 4.82577C46.3049 4.89188 47.1829 5.04898 47.9926 5.26244C48.3976 5.3692 48.7822 5.48923 49.092 5.61779C49.2469 5.68207 49.3807 5.74753 49.4881 5.81327C49.5967 5.87977 49.6715 5.94252 49.715 5.99893L49.913 5.84631ZM45.845 4.57806C45.3981 4.5162 45.0981 4.20153 44.8174 3.8921C44.6828 3.7437 44.546 3.58914 44.4034 3.48993C44.2536 3.38574 44.0796 3.33032 43.8813 3.40626L43.9707 3.63973C44.0673 3.60275 44.154 3.62101 44.2606 3.69516C44.3743 3.77429 44.4895 3.90274 44.6322 4.06007C44.9062 4.3621 45.2622 4.74979 45.8107 4.8257L45.845 4.57806ZM43.8808 3.40645C43.7232 3.4676 43.5942 3.56151 43.5779 3.71681C43.5704 3.78847 43.5899 3.85649 43.6188 3.91663C43.6478 3.97686 43.69 4.03682 43.7384 4.09582C43.8347 4.21313 43.9708 4.34441 44.1193 4.48638C44.2699 4.6304 44.4372 4.78906 44.6043 4.96707L44.7866 4.79594C44.6139 4.61208 44.4415 4.44856 44.2921 4.3057C44.1406 4.1608 44.0164 4.04052 43.9317 3.93723C43.8896 3.88592 43.861 3.84331 43.8441 3.80817C43.8271 3.77295 43.8255 3.75278 43.8265 3.74292C43.8273 3.73516 43.8344 3.69262 43.9712 3.63953L43.8808 3.40645ZM44.6042 4.96696C44.6709 5.03807 44.6754 5.08543 44.669 5.11595C44.6609 5.15471 44.6266 5.20901 44.54 5.27344C44.3675 5.4018 44.0572 5.51874 43.6815 5.60845C43.3101 5.69711 42.8904 5.75558 42.5113 5.77527C42.1282 5.79518 41.8015 5.7746 41.6085 5.71436L41.534 5.953C41.7712 6.02705 42.1349 6.04517 42.5243 6.02493C42.9177 6.00449 43.3526 5.94399 43.7395 5.85161C44.1221 5.76028 44.474 5.63411 44.6892 5.47403C44.7965 5.39426 44.8875 5.29301 44.9137 5.167C44.9418 5.03274 44.8898 4.90608 44.7867 4.79605L44.6042 4.96696ZM41.6091 5.71455C41.4977 5.67915 41.4061 5.65936 41.3322 5.65748C41.2597 5.65563 41.1785 5.67082 41.1233 5.73591C41.0706 5.79812 41.0695 5.87426 41.074 5.92319C41.0788 5.9747 41.0936 6.02997 41.1059 6.07493C41.1193 6.12426 41.131 6.16559 41.1375 6.20412C41.1442 6.24349 41.1425 6.26458 41.1396 6.27431C41.1389 6.27681 41.1397 6.27867 41.1291 6.28347C41.1119 6.29124 41.0717 6.30095 40.9904 6.29577L40.9744 6.54526C41.0744 6.55163 41.1616 6.54313 41.2321 6.51128C41.3092 6.47644 41.3579 6.41724 41.3792 6.34557C41.3984 6.28112 41.3929 6.21493 41.384 6.16224C41.3749 6.10872 41.359 6.0532 41.3471 6.00924C41.3339 5.9609 41.3254 5.9264 41.3229 5.90003C41.3203 5.87107 41.3279 5.88119 41.314 5.89756C41.2977 5.91682 41.2854 5.90637 41.3258 5.9074C41.3648 5.90839 41.4301 5.91999 41.5335 5.95282L41.6091 5.71455ZM40.9902 6.29576C40.7659 6.28173 40.5884 6.37167 40.4451 6.51308C40.306 6.65038 40.1953 6.83973 40.0953 7.03666C40.0449 7.13608 39.9956 7.2407 39.9465 7.34454C39.897 7.44902 39.8474 7.55315 39.7951 7.65467C39.6901 7.85848 39.5773 8.04477 39.4417 8.19103L39.6249 8.36106C39.7837 8.18992 39.9087 7.9799 40.0173 7.76921C40.0718 7.66347 40.123 7.5558 40.1724 7.45152C40.2221 7.34659 40.2697 7.24548 40.3183 7.1498C40.4164 6.95653 40.5122 6.79818 40.6208 6.691C40.7252 6.58794 40.8364 6.53662 40.9746 6.54527L40.9902 6.29576ZM39.4417 8.19103C39.1221 8.5355 39.0716 8.83736 39.02 9.08249C38.9945 9.20388 38.9704 9.30188 38.9199 9.3935C38.871 9.48241 38.7929 9.57236 38.6492 9.66448L38.7842 9.87494C38.9581 9.76345 39.0672 9.64424 39.1389 9.5141C39.2091 9.38667 39.239 9.25573 39.2647 9.13395C39.3154 8.89274 39.3556 8.65137 39.6249 8.36106L39.4417 8.19103ZM38.6491 9.66459C38.3194 9.87669 38.1037 10.1255 38.111 10.4631C38.118 10.7836 38.3282 11.142 38.7141 11.575L38.9007 11.4087C38.5181 10.9793 38.3658 10.6807 38.361 10.4577C38.3565 10.2519 38.4798 10.0708 38.7843 9.87483L38.6491 9.66459ZM38.7143 11.5752C38.8059 11.6775 38.8651 11.7633 38.9001 11.8327C38.9355 11.9029 38.9426 11.9495 38.9406 11.9765C38.9389 11.9992 38.9309 12.0122 38.9173 12.0231C38.9003 12.0367 38.8683 12.0515 38.8148 12.0582C38.7072 12.0715 38.5483 12.0472 38.3707 11.9743C38.1952 11.9023 38.0109 11.7866 37.8532 11.6292L37.6766 11.8061C37.8591 11.9883 38.0716 12.1218 38.2757 12.2056C38.4777 12.2885 38.6814 12.3267 38.8456 12.3062C38.9281 12.296 39.0093 12.2698 39.0738 12.218C39.1416 12.1636 39.1831 12.0868 39.1899 11.9949C39.1964 11.9074 39.1709 11.8145 39.1234 11.7203C39.0755 11.6252 39.0016 11.5213 38.9006 11.4085L38.7143 11.5752ZM37.8532 11.6293C37.5061 11.2822 37.1338 11.0822 36.8316 11.096C36.6733 11.1032 36.5333 11.17 36.4404 11.3034C36.3507 11.4321 36.3154 11.6078 36.328 11.8159L36.5775 11.8008C36.5669 11.6248 36.5994 11.5124 36.6455 11.4463C36.6884 11.3847 36.7521 11.3499 36.843 11.3457C37.0389 11.3368 37.3458 11.4756 37.6765 11.8061L37.8532 11.6293ZM36.328 11.8156C36.3381 11.991 36.2939 12.0638 36.2656 12.0877C36.2437 12.1062 36.203 12.1178 36.1369 12.083C36.0025 12.012 35.8348 11.7663 35.8966 11.3753L35.6497 11.3363C35.5753 11.8068 35.7697 12.1719 36.0202 12.3041C36.1467 12.3708 36.3042 12.3822 36.4268 12.2788C36.543 12.1808 36.5896 12.0102 36.5775 11.8011L36.328 11.8156ZM35.8966 11.3754C35.9348 11.1354 35.8907 10.9557 35.7705 10.8282C35.658 10.709 35.4971 10.657 35.3564 10.6224C35.2012 10.5843 35.0742 10.5667 34.9567 10.5242C34.8473 10.4847 34.7867 10.4358 34.76 10.362L34.5249 10.447C34.5881 10.6217 34.7309 10.7084 34.8717 10.7593C35.0044 10.8073 35.1746 10.8352 35.2967 10.8652C35.4333 10.8987 35.53 10.9376 35.5886 10.9997C35.6395 11.0537 35.68 11.1459 35.6497 11.3362L35.8966 11.3754ZM34.7598 10.3613C34.6562 10.0799 34.3512 9.73423 34.0102 9.46858C33.8371 9.33376 33.6487 9.2147 33.4625 9.1318C33.2781 9.04965 33.0863 8.99873 32.91 9.01202L32.9288 9.26131C33.0474 9.25237 33.1956 9.28658 33.3608 9.36018C33.5244 9.43303 33.6955 9.54036 33.8566 9.66581C34.1838 9.92072 34.4455 10.2312 34.5251 10.4477L34.7598 10.3613ZM32.9096 9.01205C32.5604 9.03949 32.3833 9.24859 32.2382 9.41066C32.0921 9.57379 31.9777 9.69179 31.7425 9.69179V9.94179C32.0962 9.94179 32.2763 9.74284 32.4244 9.57746C32.5735 9.41102 32.6903 9.28005 32.9292 9.26128L32.9096 9.01205ZM31.7425 9.69179C31.4282 9.69179 31.1925 9.77664 31.0633 9.98899C30.9425 10.1875 30.9383 10.4645 30.9836 10.7847L31.2311 10.7497C31.1866 10.4352 31.2051 10.2369 31.2769 10.1189C31.3402 10.0148 31.4671 9.94179 31.7425 9.94179V9.69179ZM30.9837 10.7851C30.9934 10.8527 30.9854 10.8833 30.9803 10.8941C30.9782 10.8986 30.976 10.9035 30.9588 10.9086C30.9364 10.9151 30.8985 10.9179 30.8392 10.9114C30.7815 10.905 30.713 10.8909 30.6341 10.8716C30.4849 10.8349 30.2832 10.7745 30.0964 10.7338C29.9045 10.6919 29.6975 10.6629 29.5055 10.6887L29.5388 10.9365C29.6871 10.9165 29.8598 10.938 30.0432 10.978C30.2317 11.0191 30.401 11.0717 30.5745 11.1144C30.6569 11.1346 30.7378 11.1517 30.8117 11.1599C30.8842 11.1679 30.9604 11.1686 31.0292 11.1484C31.1032 11.1267 31.1691 11.0801 31.2066 11.0003C31.2412 10.9267 31.2442 10.84 31.2311 10.7493L30.9837 10.7851ZM29.5059 10.6886C29.3095 10.7144 29.1766 10.796 29.1157 10.9348C29.0614 11.0585 29.0796 11.199 29.0996 11.3043C29.1096 11.3571 29.1234 11.4164 29.1324 11.4597C29.1424 11.5078 29.1483 11.5442 29.149 11.5722C29.1498 11.6015 29.1443 11.6044 29.1485 11.5982C29.1564 11.5865 29.1644 11.5903 29.1446 11.5928L29.1756 11.8408C29.2463 11.832 29.3123 11.8017 29.3551 11.7389C29.3941 11.6816 29.4003 11.6162 29.3989 11.5656C29.3976 11.5136 29.3875 11.4584 29.3772 11.4088C29.3658 11.3542 29.355 11.3096 29.3452 11.2578C29.3255 11.1538 29.324 11.0823 29.3446 11.0352C29.3587 11.0032 29.3954 10.9552 29.5384 10.9365L29.5059 10.6886ZM29.1445 11.5928C29.014 11.6092 28.921 11.6797 28.8497 11.7578C28.7835 11.8305 28.7213 11.928 28.669 12.0001C28.612 12.0788 28.5556 12.1451 28.4852 12.1928C28.4176 12.2387 28.3313 12.271 28.2083 12.271V12.521C28.3805 12.521 28.5158 12.4742 28.6255 12.3998C28.7326 12.3272 28.8095 12.2322 28.8714 12.1468C28.9382 12.0547 28.9806 11.9853 29.0344 11.9263C29.0832 11.8728 29.1257 11.8471 29.1757 11.8408L29.1445 11.5928ZM28.2083 12.271C28.0025 12.271 27.8617 12.3906 27.7739 12.5518C27.6891 12.7074 27.6462 12.9125 27.626 13.1248C27.5854 13.5522 27.6326 14.0613 27.6778 14.4031L27.9256 14.3703C27.881 14.0329 27.837 13.5467 27.8749 13.1485C27.894 12.9481 27.9328 12.7828 27.9935 12.6714C28.0512 12.5654 28.1196 12.521 28.2083 12.521V12.271ZM27.6778 14.4031C27.6881 14.4804 27.6782 14.5073 27.6765 14.5105C27.6765 14.5106 27.6767 14.5102 27.6772 14.5095C27.6777 14.5088 27.6783 14.508 27.6793 14.507C27.6812 14.5049 27.6835 14.5032 27.6857 14.5019C27.6901 14.4995 27.6904 14.5009 27.682 14.5014C27.6618 14.5025 27.6244 14.4965 27.5639 14.4758C27.5057 14.4559 27.4379 14.4267 27.3603 14.3915C27.2094 14.323 27.0235 14.2325 26.8403 14.1727C26.6587 14.1135 26.4551 14.0755 26.2701 14.1331L26.3444 14.3718C26.4534 14.3379 26.5949 14.3556 26.7627 14.4104C26.9289 14.4646 27.0967 14.5464 27.2571 14.6192C27.3352 14.6546 27.4125 14.6882 27.4829 14.7124C27.551 14.7356 27.6259 14.7548 27.6956 14.751C27.7737 14.7468 27.8535 14.7121 27.8983 14.6259C27.9362 14.553 27.9379 14.4626 27.9256 14.3703L27.6778 14.4031ZM26.2705 14.133C26.1855 14.1591 26.1124 14.196 26.0574 14.2491C26 14.3043 25.9681 14.3715 25.9585 14.4449C25.9409 14.5791 25.9998 14.725 26.0641 14.8563C26.0981 14.9256 26.138 14.9991 26.1787 15.074C26.2199 15.1496 26.2623 15.2273 26.3035 15.3085C26.3858 15.4711 26.4602 15.6422 26.5023 15.821L26.7456 15.7637C26.697 15.557 26.6127 15.3657 26.5265 15.1955C26.4834 15.1104 26.4391 15.0293 26.3983 14.9544C26.3571 14.8787 26.3198 14.81 26.2887 14.7464C26.2227 14.6117 26.1997 14.5285 26.2064 14.4774C26.2089 14.4582 26.2157 14.4437 26.2308 14.4291C26.2483 14.4123 26.2816 14.3911 26.344 14.3719L26.2705 14.133ZM26.5023 15.8211C26.5451 16.0022 26.5445 16.1222 26.5245 16.2051C26.5055 16.2844 26.4665 16.3392 26.4115 16.3876C26.3517 16.4401 26.2784 16.4811 26.1846 16.5366C26.0953 16.5894 25.9927 16.6528 25.9013 16.7442L26.0781 16.921C26.1454 16.8536 26.2242 16.8037 26.3119 16.7517C26.3953 16.7024 26.4946 16.6473 26.5765 16.5754C26.6629 16.4995 26.7344 16.4017 26.7676 16.2635C26.7999 16.129 26.7935 15.9665 26.7456 15.7636L26.5023 15.8211ZM25.9013 16.7442C25.8832 16.7623 25.875 16.7606 25.8728 16.7605C25.8648 16.7599 25.8434 16.7543 25.8085 16.7251C25.7376 16.6659 25.6547 16.5464 25.5747 16.3815C25.416 16.0545 25.2972 15.6091 25.2972 15.2927H25.0472C25.0472 15.6556 25.1788 16.1384 25.3497 16.4906C25.4345 16.6653 25.5361 16.8233 25.6482 16.9169C25.7048 16.9642 25.7745 17.004 25.8545 17.0098C25.9403 17.0161 26.017 16.982 26.0781 16.921L25.9013 16.7442ZM25.2972 15.2927C25.2972 15.1983 25.2842 15.1124 25.2498 15.0423C25.213 14.9674 25.1525 14.9133 25.0717 14.8917C24.9969 14.8717 24.9189 14.8833 24.8478 14.9062C24.7755 14.9295 24.6989 14.9681 24.6206 15.0163C24.3112 15.207 23.9055 15.5917 23.4989 16.0212L23.6804 16.193C24.0877 15.7628 24.4734 15.4007 24.7517 15.2292C24.8204 15.1869 24.878 15.1591 24.9244 15.1442C24.972 15.1289 24.9971 15.1306 25.0071 15.1332C25.0111 15.1343 25.017 15.1355 25.0254 15.1525C25.0362 15.1744 25.0472 15.2173 25.0472 15.2927H25.2972ZM23.499 16.021C23.0415 16.5027 23.1271 17.1075 23.253 17.5766C23.2848 17.6953 23.3203 17.8088 23.3517 17.911C23.3836 18.0148 23.4108 18.1055 23.4287 18.1844C23.447 18.2649 23.4527 18.3215 23.4484 18.3594C23.4447 18.3926 23.4358 18.3974 23.432 18.3997L23.5641 18.612C23.651 18.5579 23.6874 18.4722 23.6969 18.387C23.7059 18.3065 23.6924 18.2168 23.6725 18.129C23.6522 18.0396 23.6222 17.9401 23.5907 17.8376C23.5588 17.7337 23.5249 17.6251 23.4944 17.5118C23.3713 17.0529 23.3212 16.5712 23.6803 16.1932L23.499 16.021ZM23.4318 18.3999C23.3312 18.4628 23.1539 18.6085 22.9365 18.8013C22.7162 18.9967 22.4474 19.2471 22.1605 19.5255C21.5871 20.0818 20.9384 20.753 20.4596 21.323L20.651 21.4838C21.1223 20.9228 21.7644 20.2582 22.3346 19.7049C22.6194 19.4285 22.8855 19.1807 23.1024 18.9884C23.3222 18.7934 23.4843 18.6619 23.5643 18.6119L23.4318 18.3999ZM20.4597 21.3229C20.0217 21.8438 19.3256 21.9576 18.6171 21.9976C18.2734 22.017 17.9162 22.0194 17.6181 22.0502C17.3209 22.0809 17.0398 22.1425 16.8499 22.3051L17.0125 22.495C17.1393 22.3864 17.3508 22.3292 17.6438 22.2989C17.9361 22.2687 18.267 22.2678 18.6312 22.2472C19.3387 22.2073 20.138 22.0939 20.651 21.4838L20.4597 21.3229ZM16.8499 22.3052C16.5658 22.5489 16.2744 22.5812 15.947 22.609C15.6226 22.6366 15.2571 22.6593 14.9067 22.9348L15.0613 23.1313C15.3451 22.9081 15.6361 22.8863 15.9682 22.8581C16.2973 22.8301 16.6625 22.7953 17.0126 22.4949L16.8499 22.3052ZM14.9068 22.9348C14.5866 23.1861 14.1421 23.5419 13.7612 23.7629C13.568 23.8751 13.4082 23.942 13.2974 23.9532C13.2442 23.9585 13.2159 23.9496 13.2013 23.9403C13.1891 23.9326 13.171 23.915 13.1594 23.8647L12.9158 23.9209C12.9382 24.0183 12.9866 24.1001 13.0673 24.1513C13.1455 24.201 13.2364 24.2106 13.3225 24.2019C13.4903 24.185 13.6897 24.0935 13.8867 23.9791C14.2864 23.7472 14.7471 23.3779 15.0612 23.1314L14.9068 22.9348ZM13.1594 23.865C13.1093 23.6458 12.9193 23.5443 12.7137 23.5119C12.5075 23.4794 12.251 23.5077 11.988 23.5751C11.4623 23.7098 10.861 24.0138 10.501 24.3976L10.6833 24.5687C11.0021 24.2288 11.5563 23.9438 12.05 23.8173C12.2968 23.7541 12.5159 23.7338 12.6748 23.7588C12.8343 23.784 12.8987 23.846 12.9157 23.9207L13.1594 23.865ZM10.501 24.3976C10.1707 24.7494 9.73956 25.0809 9.29677 25.3297C8.85208 25.5796 8.40678 25.7398 8.04767 25.7614L8.06262 26.0109C8.47474 25.9862 8.95813 25.8068 9.41924 25.5477C9.88226 25.2875 10.334 24.9406 10.6833 24.5687L10.501 24.3976ZM8.04793 25.7613C7.58256 25.7882 7.36361 26.1631 7.22647 26.5002C7.15958 26.6646 7.09829 26.8583 7.04718 26.9933C6.98971 27.145 6.93943 27.2402 6.88736 27.2851L7.05057 27.4745C7.15686 27.3829 7.22533 27.2287 7.28098 27.0818C7.34298 26.9181 7.38917 26.7637 7.45804 26.5944C7.59245 26.264 7.75825 26.0285 8.06236 26.0109L8.04793 25.7613ZM6.88767 27.2848C6.86026 27.3083 6.87069 27.2866 6.90328 27.2961C6.92993 27.3039 6.92789 27.3209 6.91404 27.2897C6.88819 27.2314 6.86988 27.1153 6.86116 26.9588C6.844 26.6506 6.86626 26.2832 6.86626 26.1128H6.61626C6.61626 26.2564 6.59403 26.6581 6.61155 26.9727C6.62017 27.1275 6.63899 27.2862 6.68553 27.3911C6.70787 27.4414 6.75083 27.512 6.83324 27.5361C6.92157 27.5619 6.9985 27.5191 7.05027 27.4747L6.88767 27.2848ZM6.86626 26.1128C6.86626 26.0835 6.86244 26.0466 6.84507 26.0115C6.8253 25.9716 6.78931 25.9378 6.73898 25.9256C6.69501 25.915 6.65533 25.9246 6.6288 25.9345C6.60095 25.9448 6.57485 25.9602 6.55161 25.9764C6.46178 26.0391 6.35164 26.1599 6.23964 26.3091C6.01203 26.6124 5.745 27.0765 5.58186 27.5661L5.81904 27.6451C5.9726 27.1843 6.22597 26.7438 6.43959 26.4592C6.54821 26.3144 6.63889 26.2204 6.69474 26.1814C6.70791 26.1722 6.71478 26.1692 6.7159 26.1688C6.71834 26.1679 6.70363 26.1743 6.68008 26.1686C6.65016 26.1614 6.63005 26.1407 6.62104 26.1225C6.61443 26.1091 6.61626 26.1026 6.61626 26.1128H6.86626ZM5.58186 27.5661C5.40531 28.096 5.62618 28.4726 5.76768 28.7932C5.84001 28.957 5.89327 29.1057 5.89456 29.2676C5.89583 29.4263 5.847 29.6112 5.68877 29.8433L5.89535 29.9841C6.07649 29.7184 6.14631 29.4846 6.14455 29.2656C6.14283 29.05 6.07138 28.8621 5.99638 28.6922C5.84322 28.3452 5.67891 28.0657 5.81904 27.6451L5.58186 27.5661ZM5.6888 29.8433C5.35074 30.3388 5.0076 30.8553 4.87678 31.4132C4.74319 31.9829 4.83235 32.5859 5.32914 33.2481L5.52912 33.0981C5.07409 32.4916 5.00447 31.9637 5.12017 31.4702C5.23864 30.965 5.55288 30.4861 5.89532 29.9842L5.6888 29.8433ZM5.32916 33.2481C5.8059 33.8833 6.17175 34.3944 6.38069 34.8231C6.5896 35.2517 6.62691 35.5678 6.49509 35.8316L6.71873 35.9434C6.90272 35.5751 6.82662 35.1674 6.60542 34.7136C6.38425 34.2598 6.0033 33.7298 5.5291 33.0981L5.32916 33.2481ZM6.49515 35.8315C6.46325 35.8952 6.44333 35.8938 6.44974 35.8926C6.45239 35.8921 6.43543 35.8962 6.38963 35.8612C6.29793 35.7911 6.18724 35.6394 6.06626 35.4524C5.95205 35.2759 5.82988 35.0699 5.72649 34.9298C5.67543 34.8606 5.61906 34.7933 5.56053 34.7519C5.53094 34.731 5.48975 34.7087 5.44007 34.7053C5.38368 34.7014 5.3329 34.7228 5.29506 34.7609L5.47246 34.9371C5.46297 34.9466 5.44409 34.9562 5.42271 34.9547C5.40805 34.9537 5.40501 34.9482 5.41631 34.9561C5.43955 34.9726 5.47591 35.0113 5.52534 35.0783C5.62294 35.2105 5.73283 35.3973 5.85636 35.5882C5.97311 35.7686 6.10584 35.959 6.2378 36.0599C6.30384 36.1103 6.39378 36.1572 6.49522 36.1384C6.60042 36.119 6.67118 36.0383 6.71867 35.9435L6.49515 35.8315ZM5.2954 34.7606C5.22998 34.826 5.22008 34.9092 5.23212 34.9802C5.24342 35.0468 5.27511 35.1141 5.31044 35.1754C5.38108 35.2979 5.49442 35.4426 5.59527 35.5785C5.7006 35.7205 5.79577 35.8571 5.8496 35.9798C5.90473 36.1054 5.90094 36.1798 5.86936 36.2273L6.07768 36.3656C6.18177 36.2087 6.14385 36.0281 6.07853 35.8793C6.01191 35.7275 5.90032 35.5701 5.79604 35.4296C5.68729 35.283 5.58819 35.1566 5.52704 35.0505C5.49647 34.9975 5.48243 34.961 5.4786 34.9384C5.4755 34.9201 5.48105 34.9285 5.47213 34.9374L5.2954 34.7606ZM5.86978 36.2267C5.86425 36.235 5.86398 36.2316 5.8713 36.2289C5.87819 36.2264 5.88023 36.2287 5.87186 36.2266C5.84928 36.2209 5.80683 36.1973 5.74338 36.1408C5.62014 36.031 5.47363 35.8494 5.31983 35.6568C5.17135 35.4709 5.0147 35.2727 4.88142 35.1519C4.81799 35.0944 4.74018 35.0354 4.6571 35.0194C4.61029 35.0103 4.55703 35.014 4.50736 35.0433C4.4597 35.0714 4.42948 35.1149 4.41016 35.1584L4.63868 35.2598C4.64455 35.2466 4.64556 35.252 4.63444 35.2586C4.62888 35.2619 4.62278 35.2639 4.61723 35.2646C4.61202 35.2653 4.60916 35.2647 4.60959 35.2648C4.61944 35.2667 4.65297 35.2822 4.7135 35.3371C4.82816 35.4411 4.96999 35.6193 5.12446 35.8128C5.27361 35.9996 5.43452 36.2004 5.5771 36.3274C5.64656 36.3893 5.72661 36.4477 5.81039 36.4689C5.85519 36.4803 5.90636 36.4824 5.95763 36.4635C6.00932 36.4445 6.04866 36.4087 6.07727 36.3662L5.86978 36.2267ZM4.41034 35.158C4.38462 35.2154 4.38594 35.2794 4.39326 35.3329C4.40101 35.3895 4.41826 35.4526 4.44123 35.5193C4.48726 35.6528 4.56214 35.817 4.65437 36.0002C4.83903 36.367 5.10284 36.829 5.37063 37.3078C5.63962 37.7887 5.91367 38.2885 6.12335 38.7376C6.33558 39.1923 6.47227 39.5758 6.48289 39.8305L6.73267 39.8201C6.71973 39.5097 6.56133 39.0848 6.34988 38.6319C6.13589 38.1735 5.85769 37.6665 5.58883 37.1858C5.31876 36.7029 5.05912 36.2483 4.87768 35.8878C4.78687 35.7074 4.71804 35.5552 4.67758 35.4378C4.65731 35.379 4.64561 35.333 4.64095 35.299C4.63587 35.2619 4.64131 35.2539 4.63849 35.2602L4.41034 35.158ZM6.48288 39.8303C6.49546 40.144 6.62662 40.4457 6.80109 40.7389C6.97495 41.031 7.20271 41.3317 7.41705 41.6351C7.85302 42.2522 8.2466 42.8996 8.20428 43.6672L8.4539 43.681C8.50143 42.8189 8.05704 42.1078 7.62124 41.4909C7.39969 41.1772 7.18311 40.892 7.01593 40.611C6.84937 40.3311 6.74279 40.0724 6.73268 39.8203L6.48288 39.8303ZM8.20428 43.6672C8.157 44.5164 8.5556 45.6056 8.98631 46.5171C9.41993 47.4348 9.8989 48.1984 10.0371 48.4058L10.2451 48.2672C10.112 48.0674 9.6396 47.3146 9.21235 46.4103C8.78219 45.4999 8.41044 44.4615 8.45389 43.6811L8.20428 43.6672ZM10.0369 48.4055C10.0727 48.4595 10.0808 48.5557 10.0375 48.731C9.99542 48.9011 9.9169 49.1035 9.82986 49.3467C9.65957 49.8226 9.46769 50.4257 9.56293 51.0709L9.81025 51.0344C9.7249 50.4562 9.89551 49.9053 10.0652 49.4309C10.1482 49.1991 10.2341 48.9773 10.2802 48.791C10.3249 48.6099 10.3448 48.4175 10.2453 48.2674L10.0369 48.4055ZM9.56297 51.0712C9.65166 51.6621 9.54912 52.0393 9.35964 52.2677C9.17057 52.4955 8.87257 52.6018 8.51055 52.6018V52.8518C8.91802 52.8518 9.29964 52.7314 9.55202 52.4273C9.80399 52.1237 9.90472 51.6639 9.8102 51.0341L9.56297 51.0712ZM8.51055 52.6018C8.27884 52.6018 8.11107 52.7015 8.03499 52.8764C7.96462 53.0382 7.98568 53.236 8.05409 53.4164C8.19102 53.7773 8.55248 54.1581 9.03919 54.2096L9.06548 53.961C8.69459 53.9218 8.39998 53.6233 8.28783 53.3277C8.2317 53.1797 8.22997 53.0549 8.26424 52.9762C8.29279 52.9105 8.35709 52.8518 8.51055 52.8518V52.6018ZM9.03924 54.2096C9.23937 54.2307 9.35805 54.2792 9.44165 54.3404C9.52711 54.4031 9.58744 54.4869 9.66004 54.6041C9.807 54.8413 9.9778 55.1692 10.4783 55.5033L10.6171 55.2954C10.1666 54.9947 10.0203 54.7109 9.87257 54.4725C9.79784 54.3518 9.71646 54.2319 9.5894 54.1388C9.46048 54.0443 9.29584 53.9852 9.06542 53.961L9.03924 54.2096ZM10.4784 55.5034C10.7361 55.6749 11.0746 55.7836 11.4399 55.8528C11.8069 55.9224 12.2103 55.9538 12.6044 55.9653C12.9989 55.9767 13.3868 55.9682 13.7232 55.9569C14.0622 55.9455 14.3431 55.9315 14.5329 55.9315V55.6815C14.3376 55.6815 14.0466 55.6958 13.7148 55.707C13.3802 55.7183 12.9983 55.7266 12.6117 55.7154C12.2246 55.7042 11.8356 55.6734 11.4865 55.6072C11.1358 55.5408 10.8347 55.4403 10.6169 55.2953L10.4784 55.5034ZM14.5329 55.9315C14.761 55.9315 14.9457 55.8432 15.1059 55.7211C15.2622 55.6021 15.4043 55.4433 15.5418 55.2977C15.8242 54.9987 16.1107 54.7294 16.5768 54.7107L16.5668 54.4609C15.9921 54.484 15.6443 54.8251 15.3601 55.126C15.2143 55.2804 15.09 55.4189 14.9544 55.5223C14.8227 55.6226 14.69 55.6815 14.5329 55.6815V55.9315ZM16.5773 54.7107C17.1085 54.6871 17.3841 54.5936 17.5868 54.3969C17.6831 54.3034 17.7579 54.1912 17.835 54.0724C17.9134 53.9513 17.998 53.8173 18.1184 53.6636L17.9217 53.5094C17.793 53.6736 17.7022 53.8176 17.6252 53.9363C17.5468 54.0572 17.486 54.1464 17.4127 54.2175C17.2762 54.35 17.0768 54.4383 16.5663 54.4609L16.5773 54.7107ZM18.1182 53.6639C18.2142 53.5422 18.4169 53.4423 18.7396 53.3737C19.0564 53.3063 19.4634 53.2741 19.936 53.2658C20.8813 53.2493 22.0641 53.3284 23.2675 53.3974L23.2818 53.1478C22.0843 53.0791 20.8889 52.9991 19.9316 53.0159C19.453 53.0243 19.0276 53.0569 18.6876 53.1291C18.3535 53.2002 18.075 53.3148 17.9219 53.5092L18.1182 53.6639ZM23.2677 53.3974C24.4794 53.4652 25.3629 53.3176 25.9941 53.0165C26.6295 52.7135 27.0026 52.2579 27.1943 51.7291L26.9592 51.6439C26.7897 52.1118 26.4618 52.5165 25.8865 52.7909C25.307 53.0673 24.47 53.2143 23.2817 53.1478L23.2677 53.3974ZM27.1942 51.7294C27.2583 51.5534 27.3989 51.4098 27.6026 51.2832C27.8067 51.1562 28.0623 51.0536 28.3393 50.9543C28.6116 50.8567 28.9086 50.7611 29.1744 50.652C29.4408 50.5427 29.6932 50.4133 29.8797 50.2388L29.709 50.0562C29.5562 50.1991 29.3378 50.3147 29.0795 50.4207C28.8204 50.527 28.5386 50.6173 28.255 50.7189C27.9762 50.8188 27.699 50.9288 27.4706 51.0709C27.2417 51.2132 27.05 51.395 26.9593 51.6437L27.1942 51.7294ZM29.8796 50.239C30.2035 49.9373 30.499 49.7802 30.9258 49.7056C31.3627 49.6293 31.9374 49.6392 32.8233 49.6838L32.8358 49.4341C31.955 49.3898 31.3519 49.3774 30.8828 49.4594C30.4036 49.5431 30.0649 49.7247 29.7092 50.0561L29.8796 50.239ZM32.8231 49.6838C33.7298 49.7304 34.5972 49.5097 35.3749 49.2243C35.7639 49.0815 36.1323 48.9218 36.4725 48.7703C36.8143 48.6181 37.1248 48.4755 37.4047 48.3636L37.3119 48.1315C37.0261 48.2458 36.7084 48.3916 36.3708 48.5419C36.0317 48.6929 35.6696 48.8498 35.2887 48.9896C34.5263 49.2694 33.6951 49.4782 32.836 49.4341L32.8231 49.6838ZM37.4049 48.3635C37.9488 48.1453 38.7317 48.0774 39.5338 48.032C40.3228 47.9874 41.133 47.9649 41.6914 47.8256L41.6309 47.583C41.1023 47.7149 40.3273 47.7368 39.5197 47.7824C38.7253 47.8274 37.9003 47.8954 37.3118 48.1315L37.4049 48.3635ZM41.6917 47.8255C41.9286 47.7658 42.11 47.8092 42.2731 47.9061C42.4438 48.0076 42.5943 48.1671 42.7642 48.3485C43.0931 48.6999 43.4842 49.1254 44.1648 49.0502L44.1373 48.8017C43.5956 48.8616 43.2853 48.5394 42.9466 48.1777C42.7827 48.0026 42.6078 47.8143 42.4008 47.6912C42.1861 47.5636 41.9373 47.5058 41.6306 47.5831L41.6917 47.8255ZM44.1651 49.0501C44.7549 48.9836 45.1796 49.0705 45.5387 49.17C45.8896 49.2672 46.2157 49.3918 46.5609 49.3671L46.5431 49.1177C46.2541 49.1384 45.9908 49.0358 45.6054 48.9291C45.2282 48.8245 44.7695 48.7304 44.1371 48.8017L44.1651 49.0501ZM46.5611 49.3671C46.7027 49.3568 46.7938 49.3774 46.8615 49.409C46.9311 49.4415 46.9862 49.4903 47.0526 49.5566C47.187 49.6908 47.3464 49.8759 47.7039 49.9515L47.7557 49.707C47.4789 49.6484 47.3666 49.5169 47.2292 49.3797C47.1597 49.3103 47.0789 49.2347 46.9674 49.1825C46.8538 49.1294 46.7184 49.105 46.5429 49.1178L46.5611 49.3671ZM47.7034 49.9514C47.8456 49.9821 47.9329 50.0326 47.9848 50.088C48.0351 50.1416 48.0617 50.2099 48.0639 50.2976C48.0688 50.4829 47.9641 50.7382 47.7639 51.0278L47.9696 51.1699C48.1769 50.87 48.3208 50.559 48.3139 50.2911C48.3102 50.1521 48.2658 50.0221 48.1673 49.917C48.0704 49.8136 47.9311 49.7448 47.7561 49.7071L47.7034 49.9514ZM47.7642 51.0273C47.7049 51.1124 47.6673 51.2005 47.6668 51.2922C47.6663 51.3871 47.7054 51.4662 47.7613 51.5311C47.8152 51.5937 47.8882 51.6474 47.9667 51.6964C48.0459 51.7459 48.139 51.7957 48.2375 51.8477C48.6351 52.0578 49.165 52.3296 49.5761 52.8921L49.778 52.7446C49.3288 52.13 48.7491 51.8353 48.3543 51.6267C48.2547 51.5741 48.1695 51.5284 48.0992 51.4844C48.028 51.44 47.9801 51.4021 47.9507 51.368C47.9233 51.3361 47.9167 51.3132 47.9168 51.2936C47.9169 51.2709 47.9263 51.232 47.9693 51.1703L47.7642 51.0273ZM49.5761 52.8921C49.785 53.1779 49.8867 53.3958 49.9332 53.573C49.9793 53.7484 49.9736 53.8921 49.955 54.0358C49.9371 54.1743 49.9018 54.3385 49.9027 54.5122C49.9036 54.6948 49.9426 54.8948 50.0643 55.1379L50.2878 55.026C50.1828 54.8161 50.1534 54.6538 50.1527 54.5109C50.1519 54.3593 50.1814 54.2349 50.203 54.0679C50.2239 53.9061 50.2322 53.7272 50.175 53.5095C50.1183 53.2935 49.9992 53.0474 49.778 52.7446L49.5761 52.8921ZM50.0643 55.1378C50.1786 55.3665 50.293 55.543 50.4228 55.6471C50.4898 55.7009 50.5642 55.7381 50.6468 55.7507C50.7296 55.7634 50.8113 55.7499 50.8905 55.7176C51.0431 55.6551 51.1978 55.5175 51.3641 55.3299C51.5329 55.1395 51.7259 54.8833 51.9528 54.5661L51.7495 54.4206C51.5232 54.737 51.3366 54.9841 51.177 55.1641C51.0149 55.3469 50.8921 55.4468 50.7958 55.4861C50.7506 55.5047 50.7148 55.5082 50.6846 55.5036C50.654 55.4989 50.6195 55.4845 50.5792 55.4521C50.4942 55.3839 50.3996 55.2495 50.2879 55.0261L50.0643 55.1378ZM51.9528 54.5661C52.1685 54.2643 52.3861 54.0908 52.5912 53.9815C52.7981 53.8711 52.9971 53.8232 53.1873 53.7778C53.3699 53.7341 53.5639 53.6898 53.7155 53.5745C53.8769 53.4519 53.9755 53.2634 54.0123 52.9699L53.7642 52.9388C53.7329 53.1886 53.6561 53.3057 53.5643 53.3755C53.4627 53.4527 53.3256 53.4877 53.1292 53.5346C52.9403 53.5797 52.7122 53.6337 52.4735 53.7609C52.233 53.8891 51.9866 54.089 51.7494 54.4207L51.9528 54.5661ZM54.0123 52.9699C54.0772 52.4517 54.3388 51.8864 54.6573 51.5202C54.8168 51.3367 54.9818 51.2134 55.1327 51.1638C55.2759 51.1167 55.4078 51.1344 55.53 51.2391L55.6926 51.0492C55.4977 50.8823 55.2727 50.8547 55.0546 50.9263C54.8442 50.9954 54.6436 51.1549 54.4687 51.3561C54.1182 51.7591 53.8354 52.3705 53.7642 52.9388L54.0123 52.9699ZM55.5302 51.2392C55.6016 51.3002 55.6402 51.3503 55.6602 51.3924C55.679 51.4318 55.6842 51.4699 55.6778 51.5144C55.671 51.562 55.6506 51.619 55.6133 51.6927C55.576 51.7663 55.526 51.8489 55.4646 51.9485C55.2188 52.3479 54.8352 52.9523 54.6275 54.0169L54.8729 54.0648C55.0718 53.0454 55.4359 52.4722 55.6775 52.0796C55.738 51.9813 55.7936 51.89 55.8363 51.8056C55.8789 51.7214 55.9128 51.6364 55.9253 51.5499C55.9381 51.4603 55.9274 51.372 55.886 51.2849C55.8457 51.2003 55.7796 51.1235 55.6925 51.0491L55.5302 51.2392ZM54.6275 54.0168C54.527 54.5311 54.4091 54.8362 54.2939 55.0173C54.1821 55.1931 54.0749 55.2495 53.9845 55.2719C53.9355 55.2841 53.8862 55.2876 53.8326 55.2891C53.7841 55.2905 53.7193 55.2899 53.6634 55.2977C53.6031 55.3062 53.5345 55.3262 53.4754 55.3798C53.4168 55.433 53.3814 55.5066 53.3608 55.5952L53.6044 55.6517C53.6178 55.5936 53.6348 55.5728 53.6434 55.565C53.6515 55.5576 53.6651 55.55 53.6982 55.5453C53.7357 55.54 53.7756 55.5408 53.8395 55.539C53.8984 55.5374 53.9693 55.5333 54.0448 55.5145C54.2034 55.4751 54.3621 55.376 54.5049 55.1515C54.6443 54.9323 54.7698 54.5921 54.8729 54.0648L54.6275 54.0168ZM53.3608 55.5953C53.3069 55.8285 53.4772 56.0031 53.6616 56.1056C53.8545 56.2127 54.1168 56.2771 54.3782 56.2861C54.6391 56.2951 54.9162 56.2495 55.1327 56.1189C55.3562 55.9841 55.5095 55.7611 55.5095 55.4421H55.2595C55.2595 55.6667 55.158 55.8117 55.0036 55.9049C54.8423 56.0021 54.6184 56.0443 54.3868 56.0363C54.1557 56.0283 53.934 55.9709 53.7831 55.887C53.6236 55.7985 53.5902 55.7127 53.6044 55.6516L53.3608 55.5953ZM55.5095 55.4421C55.5095 55.1762 55.5317 54.9525 55.5744 54.7822C55.6182 54.6071 55.6781 54.5099 55.7354 54.4683C55.779 54.4366 55.8426 54.4219 55.9563 54.4828C56.0758 54.5467 56.2301 54.6857 56.419 54.9292L56.6165 54.776C56.4198 54.5225 56.2397 54.3509 56.0743 54.2624C55.9032 54.1708 55.7317 54.1619 55.5884 54.266C55.4588 54.3602 55.38 54.5289 55.3318 54.7215C55.2825 54.9188 55.2595 55.1647 55.2595 55.4421H55.5095ZM56.4187 54.9289C56.5948 55.1576 56.6524 55.3684 56.6492 55.5625C56.646 55.7601 56.5795 55.9505 56.4894 56.1358C56.4445 56.2282 56.3949 56.3172 56.3456 56.4046C56.297 56.4907 56.2478 56.5769 56.2074 56.6585C56.1311 56.8125 56.0613 56.9956 56.1296 57.1655L56.3615 57.0722C56.3387 57.0154 56.3535 56.9268 56.4314 56.7695C56.4681 56.6954 56.5133 56.6161 56.5633 56.5274C56.6126 56.4401 56.6657 56.3451 56.7143 56.245C56.8113 56.0454 56.8951 55.8167 56.8992 55.5666C56.9034 55.3128 56.8255 55.0473 56.6168 54.7764L56.4187 54.9289ZM56.1294 57.1651C56.1605 57.2431 56.2092 57.3047 56.2744 57.3473C56.3382 57.389 56.4102 57.4076 56.4812 57.4132C56.619 57.4241 56.7769 57.3879 56.9248 57.3451C57.0006 57.3231 57.0782 57.298 57.1535 57.2738C57.2295 57.2493 57.3033 57.2257 57.3746 57.2055C57.5207 57.164 57.6397 57.142 57.7276 57.1508L57.7525 56.902C57.6136 56.8881 57.4548 56.9228 57.3063 56.965C57.2302 56.9866 57.1524 57.0115 57.0769 57.0358C57.0007 57.0604 56.9268 57.0842 56.8553 57.1049C56.7088 57.1473 56.5894 57.171 56.501 57.164C56.4589 57.1606 56.4306 57.1507 56.4111 57.138C56.3931 57.1263 56.3756 57.1075 56.3617 57.0726L56.1294 57.1651ZM57.7274 57.1508C57.8898 57.1673 58.0849 57.2731 58.2903 57.4588C58.4928 57.6419 58.6925 57.8914 58.8638 58.1701C59.035 58.4487 59.1753 58.7524 59.2617 59.0421C59.3486 59.3335 59.3778 59.6011 59.3377 59.8116L59.5833 59.8584C59.6338 59.5933 59.5941 59.2821 59.5012 58.9706C59.4078 58.6573 59.2577 58.3337 59.0768 58.0393C58.896 57.745 58.6818 57.4758 58.4579 57.2733C58.2369 57.0734 57.9929 56.9265 57.7527 56.9021L57.7274 57.1508ZM59.3377 59.8117C59.2498 60.274 59.1278 60.7699 59.2369 61.2433C59.3497 61.7323 59.6999 62.1766 60.4906 62.5731L60.6027 62.3496C59.8544 61.9744 59.5713 61.5807 59.4805 61.1871C59.3862 60.7779 59.4905 60.3464 59.5833 59.8583L59.3377 59.8117ZM60.4908 62.5732C61.2506 62.9524 61.4774 63.17 61.6706 63.3041C61.7752 63.3767 61.8719 63.4259 62.0206 63.4544C62.1617 63.4815 62.3481 63.4897 62.6309 63.4897V63.2397C62.3474 63.2397 62.1828 63.231 62.0677 63.2089C61.9602 63.1883 61.8955 63.1559 61.8131 63.0987C61.6325 62.9734 61.3834 62.7393 60.6025 62.3495L60.4908 62.5732ZM62.6309 63.4897C63.174 63.4897 64.0285 63.7095 64.8357 64.003C65.2368 64.1489 65.6218 64.3114 65.9447 64.4704C66.27 64.6306 66.5246 64.7835 66.6709 64.9088L66.8336 64.7189C66.6627 64.5726 66.3852 64.4086 66.0552 64.2461C65.7229 64.0825 65.3294 63.9166 64.9211 63.7681C64.1092 63.4728 63.2202 63.2397 62.6309 63.2397V63.4897ZM66.671 64.9089C66.8654 65.0751 67.1262 65.1183 67.3938 65.086C67.662 65.0537 67.9515 64.9443 68.2252 64.7854C68.7692 64.4696 69.2841 63.9378 69.4538 63.3533L69.2137 63.2836C69.0677 63.7865 68.6089 64.2736 68.0997 64.5692C67.8467 64.7161 67.5897 64.8106 67.3638 64.8378C67.1372 64.8652 66.9562 64.8238 66.8335 64.7189L66.671 64.9089ZM69.4537 63.3536C69.526 63.1071 69.6376 63.0103 69.7316 62.9784C69.8297 62.9452 69.9464 62.9691 70.052 63.0394C70.1584 63.1103 70.2317 63.2143 70.25 63.306C70.2587 63.3499 70.2547 63.3886 70.2393 63.4221C70.2241 63.4554 70.1934 63.4929 70.133 63.5272L70.2567 63.7445C70.3549 63.6886 70.4261 63.6146 70.4666 63.5262C70.507 63.4379 70.5126 63.3446 70.4951 63.2571C70.461 63.0861 70.3389 62.9301 70.1905 62.8313C70.0412 62.7319 69.8436 62.6764 69.6513 62.7417C69.4551 62.8083 69.3004 62.9879 69.2138 63.2833L69.4537 63.3536ZM70.1328 63.5273C69.9386 63.6384 69.8509 63.7999 69.8517 63.9718C69.8525 64.1334 69.9311 64.2845 70.0265 64.3929C70.1188 64.4978 70.2516 64.5903 70.3867 64.5958C70.4606 64.5988 70.537 64.575 70.5948 64.5113C70.6493 64.4512 70.6747 64.3696 70.6815 64.2803L70.4323 64.261C70.4278 64.3189 70.4135 64.3391 70.4097 64.3433C70.4092 64.3438 70.4087 64.3465 70.3969 64.346C70.3604 64.3445 70.2863 64.3097 70.2142 64.2278C70.1453 64.1494 70.1021 64.0541 70.1017 63.9706C70.1014 63.8974 70.1331 63.8151 70.2569 63.7444L70.1328 63.5273ZM70.6816 64.2801C70.6921 64.1404 70.7161 64.0077 70.7485 63.8986C70.782 63.7859 70.8208 63.7112 70.853 63.6755C70.8685 63.6584 70.8742 63.6595 70.868 63.6609C70.8572 63.6633 70.8508 63.6583 70.8554 63.6615C70.8634 63.6669 70.8815 63.6837 70.9057 63.7254C70.9294 63.766 70.9552 63.8241 70.9819 63.9039L71.219 63.8247C71.1889 63.7347 71.1567 63.6597 71.1218 63.5998C71.0876 63.5408 71.0469 63.4896 70.9967 63.4552C70.9432 63.4186 70.8794 63.4021 70.813 63.417C70.7512 63.4309 70.7031 63.4686 70.6676 63.5079C70.5978 63.585 70.546 63.7025 70.5089 63.8273C70.4707 63.9558 70.444 64.1062 70.4323 64.2612L70.6816 64.2801ZM70.9819 63.9039C71.1111 64.2913 71.4112 64.4805 71.6849 64.6341C71.9704 64.7942 72.2146 64.9129 72.3517 65.148L72.5677 65.0221C72.3881 64.714 72.0657 64.5611 71.8072 64.416C71.537 64.2644 71.3158 64.1148 71.219 63.8248L70.9819 63.9039ZM72.3517 65.1481C72.5112 65.4214 72.6895 65.6746 72.8361 65.8021C72.8735 65.8346 72.9149 65.8644 72.9588 65.8829C73.0023 65.9013 73.0642 65.9147 73.1273 65.887C73.191 65.8591 73.2241 65.8032 73.2407 65.7537C73.2574 65.7044 73.2634 65.6459 73.2634 65.583H73.0134C73.0134 65.6331 73.0082 65.661 73.0038 65.6739C72.9995 65.6867 73.0019 65.6691 73.0268 65.6581C73.0511 65.6475 73.066 65.6568 73.056 65.6526C73.0464 65.6485 73.0278 65.6375 73.0002 65.6134C72.8868 65.5149 72.7257 65.2929 72.5676 65.0221L72.3517 65.1481ZM73.2634 65.583C73.2634 65.3738 73.3051 65.1866 73.4219 65.0215C73.5392 64.8555 73.7418 64.6984 74.0888 64.5682L74.001 64.3341C73.623 64.476 73.3724 64.6584 73.2177 64.8772C73.0625 65.0968 73.0134 65.3396 73.0134 65.583H73.2634ZM74.089 64.5681C74.4671 64.4254 74.7727 64.2245 75.0784 63.9821C75.2308 63.8613 75.3841 63.7295 75.546 63.5895C75.7084 63.4492 75.8798 63.3002 76.0708 63.1429L75.9118 62.9499C75.718 63.1096 75.5442 63.2606 75.3825 63.4004C75.2203 63.5406 75.0707 63.6692 74.9231 63.7862C74.6288 64.0195 74.3459 64.2039 74.0008 64.3342L74.089 64.5681ZM76.0706 63.143C76.2397 63.0041 76.5578 62.882 76.967 62.7805C77.3706 62.6805 77.8435 62.6048 78.3053 62.5486C79.2293 62.436 80.096 62.4024 80.2487 62.4024V62.1524C80.0848 62.1524 79.208 62.1867 78.275 62.3004C77.8083 62.3573 77.3243 62.4344 76.9069 62.5379C76.4952 62.6399 76.128 62.7723 75.9119 62.9498L76.0706 63.143ZM80.2487 62.4024C80.3167 62.4024 80.3668 62.3654 80.3982 62.3316C80.4297 62.2976 80.4545 62.2545 80.4749 62.2105C80.5159 62.1218 80.552 62.0003 80.5847 61.8598C80.6507 61.5767 80.7093 61.1881 80.7632 60.7606C80.8171 60.3321 80.8668 59.8599 80.9141 59.4082C80.9615 58.9557 81.0066 58.5244 81.0515 58.175L80.8035 58.1432C80.7581 58.4961 80.7128 58.9308 80.6655 59.3822C80.6181 59.8343 80.5687 60.3039 80.5151 60.7294C80.4614 61.1558 80.4041 61.5334 80.3413 61.8031C80.3096 61.9389 80.2781 62.0404 80.248 62.1055C80.2327 62.1385 80.221 62.155 80.215 62.1615C80.2088 62.1681 80.2203 62.1524 80.2487 62.1524V62.4024ZM81.0515 58.1751C81.1372 57.512 81.4546 57.1292 81.7948 56.7099C82.1365 56.2887 82.4966 55.8352 82.5914 55.0507L82.3432 55.0207C82.2575 55.73 81.9384 56.1362 81.6007 56.5523C81.2615 56.9703 80.8993 57.4024 80.8035 58.1431L81.0515 58.1751ZM82.5914 55.0508C82.6793 54.3278 83.1114 53.281 83.58 52.3894C83.8131 51.9458 84.0525 51.5459 84.2577 51.25C84.3605 51.1018 84.4531 50.9819 84.5308 50.8961C84.5697 50.8532 84.6032 50.8207 84.631 50.7979C84.6604 50.7738 84.6765 50.7664 84.6805 50.765L84.6024 50.5275C84.5554 50.543 84.5112 50.5728 84.4724 50.6047C84.432 50.6378 84.3895 50.6798 84.3456 50.7282C84.2578 50.8251 84.1583 50.9546 84.0523 51.1075C83.8399 51.4138 83.5953 51.8229 83.3587 52.2731C82.8877 53.1692 82.4369 54.25 82.3432 55.0207L82.5914 55.0508ZM84.6812 50.7648C85.0982 50.625 85.9417 50.1927 85.9885 49.2486L85.7389 49.2362C85.7002 50.0134 85.0012 50.3938 84.6017 50.5278L84.6812 50.7648ZM85.9885 49.2491C85.9989 49.0567 86.0654 48.8525 86.1666 48.6321C86.2681 48.4113 86.3991 48.1849 86.5337 47.9444C86.7975 47.4726 87.0758 46.9473 87.0758 46.3903H86.8258C86.8258 46.8726 86.5836 47.3431 86.3155 47.8224C86.184 48.0574 86.0462 48.2954 85.9395 48.5277C85.8326 48.7603 85.7517 48.9978 85.7389 49.2357L85.9885 49.2491ZM87.0758 46.3903C87.0758 45.8893 87.2184 45.3389 87.3548 44.863C87.422 44.6285 87.4886 44.4088 87.5319 44.2302C87.5537 44.1405 87.5706 44.0569 87.5789 43.9837C87.5868 43.913 87.5882 43.8396 87.5698 43.7762L87.3297 43.8458C87.3342 43.8613 87.3372 43.8951 87.3304 43.9558C87.3239 44.0139 87.3097 44.0858 87.289 44.1713C87.2473 44.3432 87.1835 44.5534 87.1145 44.7941C86.9784 45.2687 86.8258 45.8501 86.8258 46.3903H87.0758ZM87.5699 43.7762C87.5222 43.6117 87.4144 43.2997 87.3981 42.9384C87.382 42.5802 87.4569 42.1872 87.7668 41.858L87.5847 41.6867C87.2141 42.0804 87.1303 42.5484 87.1484 42.9497C87.1663 43.3479 87.2857 43.6938 87.3297 43.8457L87.5699 43.7762ZM87.7668 41.858C88.1574 41.4427 88.0723 40.985 87.9616 40.6348C87.9341 40.548 87.9035 40.463 87.8783 40.3892C87.8522 40.313 87.8315 40.2476 87.8194 40.1904C87.7941 40.0716 87.8144 40.035 87.8433 40.0133L87.6931 39.8134C87.541 39.9277 87.5447 40.1007 87.5748 40.2425C87.5904 40.3155 87.6154 40.3932 87.6417 40.47C87.6687 40.5492 87.6969 40.627 87.7232 40.7102C87.8275 41.0399 87.8772 41.3757 87.5847 41.6867L87.7668 41.858ZM42.5121 4.45199C42.4891 4.31445 42.3713 4.24142 42.2633 4.20318C42.15 4.16305 42.0044 4.14443 41.8469 4.13973C41.5297 4.13027 41.1292 4.1766 40.7567 4.25684C40.3867 4.33657 40.0286 4.45312 39.8032 4.59201C39.6946 4.65897 39.5912 4.74637 39.5541 4.85936C39.5339 4.92083 39.5347 4.98607 39.5605 5.04918C39.5851 5.10961 39.6293 5.16035 39.683 5.20325L39.839 5.00794C39.8068 4.98218 39.7956 4.96364 39.792 4.95479C39.7895 4.94862 39.7892 4.94457 39.7916 4.93736C39.7996 4.913 39.836 4.86548 39.9344 4.80483C40.1231 4.68851 40.4479 4.57912 40.8094 4.50123C41.1684 4.42387 41.5481 4.38093 41.8395 4.38962C41.9863 4.394 42.1021 4.41131 42.1799 4.43883C42.2184 4.4525 42.2415 4.46656 42.2539 4.47758C42.2649 4.48729 42.2653 4.49224 42.2655 4.49312L42.5121 4.45199ZM39.6832 5.20341C39.7623 5.2664 39.8697 5.30403 39.9832 5.32686C40.0989 5.35016 40.233 5.36036 40.3756 5.36037C40.661 5.36038 40.9929 5.31952 41.3057 5.2502C41.6176 5.1811 41.9189 5.0819 42.1398 4.96108C42.2498 4.90095 42.3473 4.83149 42.4154 4.75159C42.4844 4.67062 42.5313 4.56824 42.5121 4.45216L42.2654 4.49296C42.2687 4.51268 42.2645 4.54322 42.2251 4.58947C42.1848 4.63679 42.1166 4.68885 42.0199 4.74173C41.8275 4.84695 41.5513 4.93973 41.2517 5.00612C40.9531 5.07228 40.6395 5.11038 40.3756 5.11037C40.2436 5.11036 40.1271 5.10081 40.0325 5.08178C39.9357 5.06229 39.8731 5.03505 39.8388 5.00779L39.6832 5.20341ZM52.4957 58.1584C52.6454 58.2942 52.8705 58.3763 53.1118 58.419C53.3563 58.4623 53.633 58.4679 53.9007 58.4386C54.168 58.4092 54.4325 58.3444 54.651 58.2426C54.8668 58.142 55.0544 57.9974 55.1399 57.7986L54.9102 57.6999C54.8595 57.8177 54.7357 57.9273 54.5454 58.016C54.3577 58.1035 54.1212 58.1629 53.8734 58.19C53.6261 58.2172 53.3735 58.2114 53.1554 58.1728C52.934 58.1336 52.7629 58.0632 52.6636 57.9732L52.4957 58.1584ZM55.1399 57.7985C55.1649 57.7402 55.1752 57.6761 55.1582 57.6119C55.1411 57.5477 55.1009 57.4994 55.0546 57.4646C54.9677 57.3993 54.8405 57.3672 54.71 57.3509C54.4418 57.3172 54.0726 57.3406 53.7173 57.3952C53.3615 57.4499 53.0049 57.5382 52.7619 57.642C52.6446 57.6922 52.5344 57.7537 52.4709 57.8308C52.4372 57.8716 52.4077 57.9278 52.4115 57.9958C52.4154 58.0648 52.4522 58.1192 52.4959 58.1586L52.6633 57.973C52.6511 57.9619 52.6601 57.9647 52.6611 57.9817C52.662 57.9976 52.6543 58.0014 52.6638 57.9899C52.6865 57.9622 52.748 57.9199 52.8602 57.8719C53.0762 57.7796 53.4098 57.6954 53.7552 57.6423C54.1011 57.5891 54.4441 57.5695 54.6789 57.5989C54.8 57.6141 54.872 57.6401 54.9044 57.6645C54.9178 57.6746 54.9173 57.679 54.9166 57.6762C54.9158 57.6734 54.9191 57.6793 54.9101 57.7L55.1399 57.7985ZM73.0354 70.5231C72.7526 70.555 72.4264 70.507 72.0828 70.413C71.7402 70.3193 71.3888 70.1823 71.0576 70.0428C70.7305 69.9051 70.4152 69.7613 70.1619 69.6626C70.0343 69.6128 69.9162 69.5719 69.8141 69.5474C69.7164 69.524 69.6142 69.5107 69.5281 69.5345L69.5949 69.7755C69.6165 69.7695 69.6659 69.769 69.7559 69.7906C69.8414 69.811 69.947 69.8471 70.0711 69.8955C70.3214 69.9931 70.6221 70.1307 70.9605 70.2732C71.2947 70.4139 71.6582 70.556 72.0168 70.6541C72.3743 70.7519 72.7356 70.8085 73.0635 70.7715L73.0354 70.5231ZM69.5291 69.5343C69.4564 69.5538 69.4066 69.6039 69.3812 69.6672C69.3585 69.7237 69.3563 69.7869 69.361 69.845C69.3706 69.9622 69.4137 70.1115 69.4718 70.2749C69.5889 70.6038 69.7861 71.0397 69.9737 71.4842C70.1634 71.9339 70.3452 72.3966 70.441 72.7952C70.489 72.9944 70.5139 73.1719 70.5097 73.3202C70.5055 73.4691 70.4723 73.5772 70.4155 73.6503L70.6128 73.8038C70.7144 73.6732 70.7546 73.5056 70.7596 73.3273C70.7647 73.1483 70.7347 72.947 70.6841 72.7367C70.583 72.3163 70.3938 71.8369 70.204 71.3871C70.0121 70.9321 69.8213 70.511 69.7074 70.1911C69.65 70.0301 69.6169 69.9071 69.6102 69.8247C69.6068 69.7831 69.6114 69.7647 69.6132 69.7604C69.6135 69.7595 69.6121 69.7633 69.6071 69.7679C69.6017 69.7729 69.5964 69.7751 69.5939 69.7757L69.5291 69.5343ZM70.4155 73.6503C70.2101 73.9143 70.2756 74.2681 70.4377 74.6017C70.6036 74.9433 70.8925 75.3122 71.2224 75.6534C71.5533 75.9958 71.9318 76.3166 72.2833 76.5612C72.6294 76.8021 72.9667 76.9813 73.2123 77.0201L73.2513 76.7731C73.0663 76.7439 72.7693 76.5949 72.4261 76.356C72.0882 76.121 71.7222 75.8108 71.4021 75.4797C71.0809 75.1475 70.8122 74.8004 70.6626 74.4925C70.5091 74.1767 70.5011 73.9474 70.6128 73.8038L70.4155 73.6503ZM73.2125 77.0201C73.4504 77.0573 73.6279 77.0187 73.7619 76.9202C73.8903 76.8258 73.9605 76.6887 74.0123 76.5735C74.0693 76.4469 74.1025 76.3544 74.1568 76.2853C74.1808 76.2547 74.2053 76.2345 74.2327 76.2219C74.2599 76.2094 74.2978 76.2009 74.3539 76.2051L74.3727 75.9558C74.2814 75.9489 74.2002 75.9618 74.1285 75.9947C74.057 76.0275 74.0027 76.0766 73.9601 76.1309C73.881 76.2317 73.8292 76.3711 73.7843 76.4709C73.7343 76.5821 73.6859 76.6658 73.6138 76.7188C73.5473 76.7677 73.4424 76.803 73.2511 76.7731L73.2125 77.0201ZM74.3536 76.2051C74.5218 76.2183 74.6587 76.1845 74.7565 76.0914C74.8504 76.002 74.8857 75.8782 74.9012 75.7637C74.9167 75.6488 74.9151 75.518 74.9158 75.4002C74.9165 75.2772 74.9195 75.1638 74.9396 75.0639L74.6944 75.0148C74.6691 75.1412 74.6665 75.2768 74.6658 75.3987C74.665 75.5257 74.6662 75.6356 74.6534 75.7302C74.6406 75.8251 74.6163 75.8797 74.5841 75.9104C74.5556 75.9375 74.4997 75.9658 74.3731 75.9558L74.3536 76.2051ZM74.9395 75.064C74.9484 75.0198 74.9579 75.024 74.9442 75.0335C74.9265 75.0457 74.915 75.037 74.9354 75.0428C74.9563 75.0487 74.9878 75.0637 75.0335 75.0913C75.0781 75.1183 75.1269 75.1514 75.1838 75.1894C75.2931 75.2622 75.4286 75.3503 75.5725 75.4C75.7197 75.4509 75.8891 75.4662 76.0547 75.3758L75.9349 75.1563C75.8514 75.2019 75.7604 75.2005 75.6542 75.1637C75.5447 75.1259 75.4339 75.0556 75.3224 74.9813C75.2689 74.9457 75.2136 74.9081 75.1629 74.8774C75.1131 74.8473 75.0579 74.8176 75.0031 74.8022C74.9478 74.7866 74.8714 74.7799 74.8022 74.8277C74.737 74.8727 74.7083 74.9459 74.6944 75.0147L74.9395 75.064ZM76.0548 75.3757C76.1511 75.323 76.2111 75.2343 76.2492 75.139C76.2871 75.0441 76.3076 74.9325 76.319 74.8169C76.3418 74.5871 76.3315 74.3076 76.3288 74.0531C76.326 73.7901 76.3313 73.5554 76.3764 73.3879C76.3987 73.3053 76.4277 73.2513 76.4596 73.2189C76.4878 73.1903 76.5245 73.1719 76.5837 73.1719V72.9219C76.4615 72.9219 76.3595 72.9644 76.2816 73.0433C76.2075 73.1185 76.1631 73.2187 76.135 73.3229C76.0795 73.529 76.0761 73.798 76.0788 74.0558C76.0817 74.3221 76.0912 74.5804 76.0702 74.7922C76.0598 74.8974 76.0425 74.9826 76.017 75.0462C75.9918 75.1094 75.9628 75.1411 75.9348 75.1564L76.0548 75.3757ZM76.5837 73.1719C76.7138 73.1719 76.8191 73.1166 76.8945 73.0226C76.9656 72.934 77.0064 72.8162 77.0298 72.6904C77.0766 72.4384 77.0617 72.1048 77.019 71.7599C76.9329 71.0661 76.727 70.2785 76.6128 69.8909L76.373 69.9615C76.4857 70.3438 76.6872 71.1166 76.7709 71.7907C76.8129 72.1297 76.8235 72.4319 76.784 72.6448C76.7642 72.7514 76.7339 72.8232 76.6995 72.8662C76.6693 72.9038 76.6345 72.9219 76.5837 72.9219V73.1719ZM76.6128 69.8908C76.5747 69.7617 76.4952 69.6691 76.3823 69.6169C76.2754 69.5675 76.1491 69.559 76.0199 69.5704C75.7625 69.5932 75.4388 69.7013 75.1001 69.8309C74.7503 69.9647 74.394 70.1175 74.0285 70.2527C73.6678 70.3861 73.3258 70.4914 73.0359 70.523L73.063 70.7716C73.3851 70.7364 73.7511 70.6219 74.1152 70.4872C74.4745 70.3543 74.8599 70.1905 75.1895 70.0644C75.5302 69.934 75.8237 69.8387 76.042 69.8194C76.1506 69.8098 76.2269 69.8205 76.2773 69.8438C76.3217 69.8643 76.3543 69.898 76.373 69.9616L76.6128 69.8908Z" fill="#868686"/>
</g>
<defs>
<filter id="filter0_d_877_3475" x="0.388672" y="0.634766" width="91.666" height="82.3994" filterUnits="userSpaceOnUse" color-interpolation-filters="sRGB">
<feFlood flood-opacity="0" result="BackgroundImageFix"/>
<feColorMatrix in="SourceAlpha" type="matrix" values="0 0 0 0 0 0 0 0 0 0 0 0 0 0 0 0 0 0 127 0" result="hardAlpha"/>
<feOffset dy="2"/>
<feGaussianBlur stdDeviation="2"/>
<feColorMatrix type="matrix" values="0 0 0 0 0 0 0 0 0 0 0 0 0 0 0 0 0 0 0.01 0"/>
<feBlend mode="normal" in2="BackgroundImageFix" result="effect1_dropShadow_877_3475"/>
<feBlend mode="normal" in="SourceGraphic" in2="effect1_dropShadow_877_3475" result="shape"/>
</filter>
</defs>
</svg>
