<svg width="16" height="17" viewBox="0 0 16 17" fill="none" xmlns="http://www.w3.org/2000/svg">
<g filter="url(#filter0_d_877_3277)">
<path fill-rule="evenodd" clip-rule="evenodd" d="M9.56921 9.29953C9.48895 8.89319 10.7871 7.02807 11.1117 7.02807C11.3821 7.02807 11.4833 5.23445 11.3682 4.3032C10.3622 3.60738 9.52646 3.37108 9.52646 3.37108C9.52646 3.37108 6.82105 3.23854 6.37175 3.05717C5.91983 2.87667 5.46879 3.644 5.06311 3.32835C4.6583 3.01444 4.07028 3.41816 4.16189 3.86896C4.25262 4.31889 5.10847 4.59095 5.10847 5.26584C5.10847 5.94161 6.82193 6.9339 6.77743 7.29402C6.74515 7.54689 7.80428 8.23399 8.43592 9.16088C8.77355 9.37277 9.13125 9.64918 9.48458 9.93431C9.55438 9.63523 9.59015 9.40242 9.56921 9.29953Z" fill="white"/>
<path fill-rule="evenodd" clip-rule="evenodd" d="M9.56921 9.29953C9.48895 8.89319 10.7871 7.02807 11.1117 7.02807C11.3821 7.02807 11.4833 5.23445 11.3682 4.3032C10.3622 3.60738 9.52646 3.37108 9.52646 3.37108C9.52646 3.37108 6.82105 3.23854 6.37175 3.05717C5.91983 2.87667 5.46879 3.644 5.06311 3.32835C4.6583 3.01444 4.07028 3.41816 4.16189 3.86896C4.25262 4.31889 5.10847 4.59095 5.10847 5.26584C5.10847 5.94161 6.82193 6.9339 6.77743 7.29402C6.74515 7.54689 7.80428 8.23399 8.43592 9.16088C8.77355 9.37277 9.13125 9.64918 9.48458 9.93431C9.55438 9.63523 9.59015 9.40242 9.56921 9.29953Z" stroke="#868686" stroke-width="0.25"/>
</g>
<defs>
<filter id="filter0_d_877_3277" x="0.0273438" y="0.904297" width="15.5137" height="15.252" filterUnits="userSpaceOnUse" color-interpolation-filters="sRGB">
<feFlood flood-opacity="0" result="BackgroundImageFix"/>
<feColorMatrix in="SourceAlpha" type="matrix" values="0 0 0 0 0 0 0 0 0 0 0 0 0 0 0 0 0 0 127 0" result="hardAlpha"/>
<feOffset dy="2"/>
<feGaussianBlur stdDeviation="2"/>
<feColorMatrix type="matrix" values="0 0 0 0 0 0 0 0 0 0 0 0 0 0 0 0 0 0 0.01 0"/>
<feBlend mode="normal" in2="BackgroundImageFix" result="effect1_dropShadow_877_3277"/>
<feBlend mode="normal" in="SourceGraphic" in2="effect1_dropShadow_877_3277" result="shape"/>
</filter>
</defs>
</svg>
