<svg width="21" height="14" viewBox="0 0 21 14" fill="none" xmlns="http://www.w3.org/2000/svg">
<g filter="url(#filter0_d_877_3328)">
<path fill-rule="evenodd" clip-rule="evenodd" d="M15.03 3.78729C14.3058 2.69996 12.992 2.79151 12.1762 2.42878C11.3614 2.06691 10.3206 2.56567 9.27802 3.51611C8.23634 4.46655 6.92333 3.92332 6.01687 3.42543C5.74817 3.27632 5.37128 2.92231 4.96734 2.4872C4.62797 2.94672 4.58871 3.54924 4.65588 3.78467C4.72742 4.03405 4.52153 4.42644 4.38281 4.91037C5.27967 5.02111 6.44611 5.41349 7.01319 6.09624C7.69281 6.91152 8.10024 6.36567 8.50766 7.09114C8.91596 7.81574 9.86691 7.13474 10.0929 6.68307C10.3197 6.23052 9.59471 6.05002 9.50398 5.55301C9.41412 5.05512 10.4104 5.23474 10.591 4.55461C10.7716 3.8771 12.2216 3.55884 12.855 3.83089C13.4892 4.10381 14.0328 4.55461 13.4439 5.23387C13.0059 5.73961 13.8993 6.64819 14.6461 7.35883C15.1704 6.81996 15.7733 6.2061 16.0228 6.02474C16.1589 5.92185 16.2452 5.68206 16.3046 5.38472C15.9477 5.21643 15.5325 4.54241 15.03 3.78729Z" fill="white"/>
<path fill-rule="evenodd" clip-rule="evenodd" d="M15.03 3.78729C14.3058 2.69996 12.992 2.79151 12.1762 2.42878C11.3614 2.06691 10.3206 2.56567 9.27802 3.51611C8.23634 4.46655 6.92333 3.92332 6.01687 3.42543C5.74817 3.27632 5.37128 2.92231 4.96734 2.4872C4.62797 2.94672 4.58871 3.54924 4.65588 3.78467C4.72742 4.03405 4.52153 4.42644 4.38281 4.91037C5.27967 5.02111 6.44611 5.41349 7.01319 6.09624C7.69281 6.91152 8.10024 6.36567 8.50766 7.09114C8.91596 7.81574 9.86691 7.13474 10.0929 6.68307C10.3197 6.23052 9.59471 6.05002 9.50398 5.55301C9.41412 5.05512 10.4104 5.23474 10.591 4.55461C10.7716 3.8771 12.2216 3.55884 12.855 3.83089C13.4892 4.10381 14.0328 4.55461 13.4439 5.23387C13.0059 5.73961 13.8993 6.64819 14.6461 7.35883C15.1704 6.81996 15.7733 6.2061 16.0228 6.02474C16.1589 5.92185 16.2452 5.68206 16.3046 5.38472C15.9477 5.21643 15.5325 4.54241 15.03 3.78729Z" stroke="#868686" stroke-width="0.25"/>
</g>
<defs>
<filter id="filter0_d_877_3328" x="0.222656" y="0.185547" width="20.2227" height="13.3486" filterUnits="userSpaceOnUse" color-interpolation-filters="sRGB">
<feFlood flood-opacity="0" result="BackgroundImageFix"/>
<feColorMatrix in="SourceAlpha" type="matrix" values="0 0 0 0 0 0 0 0 0 0 0 0 0 0 0 0 0 0 127 0" result="hardAlpha"/>
<feOffset dy="2"/>
<feGaussianBlur stdDeviation="2"/>
<feColorMatrix type="matrix" values="0 0 0 0 0 0 0 0 0 0 0 0 0 0 0 0 0 0 0.01 0"/>
<feBlend mode="normal" in2="BackgroundImageFix" result="effect1_dropShadow_877_3328"/>
<feBlend mode="normal" in="SourceGraphic" in2="effect1_dropShadow_877_3328" result="shape"/>
</filter>
</defs>
</svg>
