<svg width="44" height="41" viewBox="0 0 44 41" fill="none" xmlns="http://www.w3.org/2000/svg">
<g filter="url(#filter0_d_877_3241)">
<path fill-rule="evenodd" clip-rule="evenodd" d="M37.3699 15.8267C37.3699 15.8267 37.3707 14.2484 36.3657 13.6738C35.3607 13.1001 34.0668 12.9562 34.0668 12.9562C34.0668 12.9562 33.3506 11.6648 32.7765 11.0919C32.431 10.7466 25.7098 6.25518 20.1821 2.60254H16.7421L18.6658 20.639L19.3062 21.2782C19.3062 21.2782 19.3969 22.8337 19.0314 23.0168C18.6658 23.2008 11.0617 23.1084 11.0617 23.1084C11.0617 23.1084 10.3289 23.4746 9.77926 23.4746C9.2305 23.4746 8.59014 23.1084 8.40519 23.3831C8.22285 23.656 8.22285 24.3902 7.30592 23.5679C6.39162 22.7439 6.11593 23.4755 6.11593 24.024C6.11593 24.466 5.63958 24.6683 5.02539 24.6823C5.15189 24.9439 5.2086 25.154 5.2086 25.154L5.58287 25.7121C5.58287 25.7121 5.52355 26.6154 5.88561 26.979C6.24854 27.3418 6.91158 28.0036 6.97265 28.3053C7.03111 28.6096 6.97265 29.935 6.97265 29.935C6.97265 29.935 7.21257 30.9613 7.5755 30.4808C7.93844 29.9943 8.48109 30.9002 8.72275 30.2977C8.96529 29.6934 9.74873 30.4189 10.1108 30.4189C10.4737 30.4189 11.3191 29.3325 11.5608 29.3926C11.8024 29.4519 12.346 30.4808 12.346 30.9002C12.346 31.3223 13.433 31.7478 13.0701 31.8655C12.7071 31.9876 12.6478 32.5892 13.0701 32.5892C13.4923 32.5892 13.31 33.3757 13.5525 33.7385C13.7942 34.0986 14.2775 34.402 14.5192 33.8579C14.7608 33.3156 15.3035 33.7969 15.546 34.1605C15.7877 34.5206 16.5737 34.0995 16.6924 33.6173C16.8128 33.1324 17.7803 32.952 17.7192 33.4961C17.6599 34.0384 17.8388 34.1605 18.4442 33.7385C18.6274 33.6085 18.8255 33.5894 19.0218 33.6181C19.2364 32.9162 19.4824 32.2675 19.5915 32.0477C19.773 31.6841 19.1692 30.8392 19.4702 30.7197C19.773 30.5977 20.7998 30.8401 21.1008 29.9934C21.4035 29.1502 21.7656 28.7264 21.7656 28.7264C21.7656 28.7264 21.886 26.9189 22.4295 27.2197C22.9748 27.5205 23.6369 28.0018 23.6989 27.279C23.76 26.5526 24.423 26.9773 24.6036 26.3137C24.7851 25.6484 25.1462 25.7112 25.5711 25.8289C25.9916 25.9519 26.3554 25.7696 26.3554 25.4069C26.3554 25.0468 27.3212 25.2273 28.1055 24.6832C28.8898 24.1399 29.313 23.7179 29.614 24.0187C29.9176 24.323 31.9111 24.2611 32.2121 24.1399C32.5139 24.0187 33.1185 23.4781 33.8426 23.5967C34.5676 23.7179 36.3177 23.295 37.0418 23.295C37.7668 23.295 38.0687 22.6306 38.3095 22.3882C38.552 22.1493 38.7343 21.0619 38.976 20.8814C39.1697 20.7349 39.1304 16.9445 39.1069 15.45C38.3784 15.6035 37.3699 15.8267 37.3699 15.8267Z" fill="white"/>
<path fill-rule="evenodd" clip-rule="evenodd" d="M37.3699 15.8267C37.3699 15.8267 37.3707 14.2484 36.3657 13.6738C35.3607 13.1001 34.0668 12.9562 34.0668 12.9562C34.0668 12.9562 33.3506 11.6648 32.7765 11.0919C32.431 10.7466 25.7098 6.25518 20.1821 2.60254H16.7421L18.6658 20.639L19.3062 21.2782C19.3062 21.2782 19.3969 22.8337 19.0314 23.0168C18.6658 23.2008 11.0617 23.1084 11.0617 23.1084C11.0617 23.1084 10.3289 23.4746 9.77926 23.4746C9.2305 23.4746 8.59014 23.1084 8.40519 23.3831C8.22285 23.656 8.22285 24.3902 7.30592 23.5679C6.39162 22.7439 6.11593 23.4755 6.11593 24.024C6.11593 24.466 5.63958 24.6683 5.02539 24.6823C5.15189 24.9439 5.2086 25.154 5.2086 25.154L5.58287 25.7121C5.58287 25.7121 5.52355 26.6154 5.88561 26.979C6.24854 27.3418 6.91158 28.0036 6.97265 28.3053C7.03111 28.6096 6.97265 29.935 6.97265 29.935C6.97265 29.935 7.21257 30.9613 7.5755 30.4808C7.93844 29.9943 8.48109 30.9002 8.72275 30.2977C8.96529 29.6934 9.74873 30.4189 10.1108 30.4189C10.4737 30.4189 11.3191 29.3325 11.5608 29.3926C11.8024 29.4519 12.346 30.4808 12.346 30.9002C12.346 31.3223 13.433 31.7478 13.0701 31.8655C12.7071 31.9876 12.6478 32.5892 13.0701 32.5892C13.4923 32.5892 13.31 33.3757 13.5525 33.7385C13.7942 34.0986 14.2775 34.402 14.5192 33.8579C14.7608 33.3156 15.3035 33.7969 15.546 34.1605C15.7877 34.5206 16.5737 34.0995 16.6924 33.6173C16.8128 33.1324 17.7803 32.952 17.7192 33.4961C17.6599 34.0384 17.8388 34.1605 18.4442 33.7385C18.6274 33.6085 18.8255 33.5894 19.0218 33.6181C19.2364 32.9162 19.4824 32.2675 19.5915 32.0477C19.773 31.6841 19.1692 30.8392 19.4702 30.7197C19.773 30.5977 20.7998 30.8401 21.1008 29.9934C21.4035 29.1502 21.7656 28.7264 21.7656 28.7264C21.7656 28.7264 21.886 26.9189 22.4295 27.2197C22.9748 27.5205 23.6369 28.0018 23.6989 27.279C23.76 26.5526 24.423 26.9773 24.6036 26.3137C24.7851 25.6484 25.1462 25.7112 25.5711 25.8289C25.9916 25.9519 26.3554 25.7696 26.3554 25.4069C26.3554 25.0468 27.3212 25.2273 28.1055 24.6832C28.8898 24.1399 29.313 23.7179 29.614 24.0187C29.9176 24.323 31.9111 24.2611 32.2121 24.1399C32.5139 24.0187 33.1185 23.4781 33.8426 23.5967C34.5676 23.7179 36.3177 23.295 37.0418 23.295C37.7668 23.295 38.0687 22.6306 38.3095 22.3882C38.552 22.1493 38.7343 21.0619 38.976 20.8814C39.1697 20.7349 39.1304 16.9445 39.1069 15.45C38.3784 15.6035 37.3699 15.8267 37.3699 15.8267Z" stroke="#868686" stroke-width="0.25"/>
</g>
<defs>
<filter id="filter0_d_877_3241" x="0.828125" y="0.477539" width="42.4238" height="39.9434" filterUnits="userSpaceOnUse" color-interpolation-filters="sRGB">
<feFlood flood-opacity="0" result="BackgroundImageFix"/>
<feColorMatrix in="SourceAlpha" type="matrix" values="0 0 0 0 0 0 0 0 0 0 0 0 0 0 0 0 0 0 127 0" result="hardAlpha"/>
<feOffset dy="2"/>
<feGaussianBlur stdDeviation="2"/>
<feColorMatrix type="matrix" values="0 0 0 0 0 0 0 0 0 0 0 0 0 0 0 0 0 0 0.01 0"/>
<feBlend mode="normal" in2="BackgroundImageFix" result="effect1_dropShadow_877_3241"/>
<feBlend mode="normal" in="SourceGraphic" in2="effect1_dropShadow_877_3241" result="shape"/>
</filter>
</defs>
</svg>
