<svg width="28" height="29" viewBox="0 0 28 29" fill="none" xmlns="http://www.w3.org/2000/svg">
<g filter="url(#filter0_d_877_3297)">
<path fill-rule="evenodd" clip-rule="evenodd" d="M7.19833 7.51713C6.71326 8.23911 6.05108 8.30015 6.16973 8.47977C6.29275 8.66114 7.01773 9.2654 6.8354 9.5671C6.65393 9.86967 6.41227 9.68918 6.41227 10.2315C6.41227 10.7748 5.56601 10.7748 5.26589 10.7748C4.96229 10.7748 5.32522 11.3189 5.14463 11.74C4.96229 12.1612 4.96229 13.007 4.90209 13.3688C4.84364 13.7316 5.50669 14.335 5.44649 14.6358C5.38804 14.9392 4.90209 15.1799 5.02598 15.4197C5.13765 15.6508 5.57299 15.9952 5.6707 17.1104C5.87921 17.1715 6.05021 17.2499 6.12524 17.3511C6.39831 17.7129 6.8511 17.9841 7.43825 17.9841C8.02714 17.9841 8.25571 18.3931 8.52617 18.3469C8.79836 18.3015 9.52335 18.53 8.93534 19.0261C8.34645 19.524 8.25571 20.1126 8.11961 20.7003C8.03063 21.0822 8.03586 21.6115 7.94164 21.9385C8.51657 21.989 9.36632 22.0309 9.67428 21.8783C10.1576 21.6376 10.4586 21.6376 11.0623 21.819C11.4226 21.9263 11.9051 22.1617 12.2418 22.3335C12.2785 22.2114 12.343 22.119 12.4652 22.1041C12.8744 22.0597 13.3734 22.8732 13.6438 22.4198C13.9169 21.9672 14.5494 22.0597 14.8661 22.2393C15.1837 22.4198 15.6818 22.5122 16.0448 22.1486C16.4068 21.7867 17.8106 21.6062 18.1281 21.7414C18.4457 21.8774 19.2597 22.2384 18.943 21.152C18.6263 20.0664 19.6217 20.2931 19.7587 19.885C19.8939 19.4778 21.0717 19.2982 20.8911 18.9808C20.7105 18.6643 19.2161 17.7129 18.7633 17.3973C18.3096 17.0799 18.3096 16.0815 18.0836 15.6769C17.8577 15.268 17.3587 14.7256 17.9475 14.5896C18.5364 14.4536 19.5781 14.2277 20.0771 13.7743C20.5736 13.3209 21.4791 13.2773 21.7522 13.0052C22.0244 12.7323 22.6578 13.2319 22.8384 12.9582C23.0198 12.687 23.1542 12.1437 22.8855 11.8272C22.6124 11.5107 22.431 10.9675 22.3873 10.1993C22.3411 9.42933 22.1143 9.4738 22.1143 9.11194C22.1143 8.7492 21.979 8.29753 21.6606 8.11442C21.3448 7.93479 21.2087 7.79964 21.5254 7.30088C21.8429 6.80212 21.706 5.53516 21.5699 5.17417C21.5437 5.1018 21.5463 5.01635 21.5611 4.92653C21.4791 4.88817 21.4146 4.80795 21.3902 4.67541C21.2994 4.19235 20.9688 4.01185 20.1827 4.01185C19.3966 4.01185 20.6652 3.22709 20.3624 2.83383C20.0614 2.44319 19.2763 3.55756 18.553 3.31603C17.8271 3.07711 16.8928 4.16357 16.2585 4.64489C15.6234 5.12883 14.7178 4.55508 15.2011 3.86013C15.6836 3.16692 15.2011 3.22621 14.4753 3.50001C13.7512 3.77119 12.8761 3.43897 12.966 2.77454C12.9895 2.60712 12.9354 2.45191 12.8473 2.30455C12.4931 2.35426 12.2209 2.36472 12.0909 2.32199C11.7672 2.21561 11.03 2.15719 10.2265 2.14062C10.4665 2.49115 10.7264 2.8347 10.5807 3.10676C10.3103 3.62121 10.7325 4.10428 11.1243 4.85765C11.5177 5.61277 10.2806 5.18987 10.2501 5.67293C10.2187 6.156 9.10372 5.64241 8.73991 5.46017C8.37873 5.28055 7.17041 5.40088 7.20095 5.70258C7.21229 5.82378 7.19309 5.98858 7.13988 6.13071C7.29953 6.7158 7.37194 7.25379 7.19833 7.51713Z" fill="white"/>
<path fill-rule="evenodd" clip-rule="evenodd" d="M7.19833 7.51713C6.71326 8.23911 6.05108 8.30015 6.16973 8.47977C6.29275 8.66114 7.01773 9.2654 6.8354 9.5671C6.65393 9.86967 6.41227 9.68918 6.41227 10.2315C6.41227 10.7748 5.56601 10.7748 5.26589 10.7748C4.96229 10.7748 5.32522 11.3189 5.14463 11.74C4.96229 12.1612 4.96229 13.007 4.90209 13.3688C4.84364 13.7316 5.50669 14.335 5.44649 14.6358C5.38804 14.9392 4.90209 15.1799 5.02598 15.4197C5.13765 15.6508 5.57299 15.9952 5.6707 17.1104C5.87921 17.1715 6.05021 17.2499 6.12524 17.3511C6.39831 17.7129 6.8511 17.9841 7.43825 17.9841C8.02714 17.9841 8.25571 18.3931 8.52617 18.3469C8.79836 18.3015 9.52335 18.53 8.93534 19.0261C8.34645 19.524 8.25571 20.1126 8.11961 20.7003C8.03063 21.0822 8.03586 21.6115 7.94164 21.9385C8.51657 21.989 9.36632 22.0309 9.67428 21.8783C10.1576 21.6376 10.4586 21.6376 11.0623 21.819C11.4226 21.9263 11.9051 22.1617 12.2418 22.3335C12.2785 22.2114 12.343 22.119 12.4652 22.1041C12.8744 22.0597 13.3734 22.8732 13.6438 22.4198C13.9169 21.9672 14.5494 22.0597 14.8661 22.2393C15.1837 22.4198 15.6818 22.5122 16.0448 22.1486C16.4068 21.7867 17.8106 21.6062 18.1281 21.7414C18.4457 21.8774 19.2597 22.2384 18.943 21.152C18.6263 20.0664 19.6217 20.2931 19.7587 19.885C19.8939 19.4778 21.0717 19.2982 20.8911 18.9808C20.7105 18.6643 19.2161 17.7129 18.7633 17.3973C18.3096 17.0799 18.3096 16.0815 18.0836 15.6769C17.8577 15.268 17.3587 14.7256 17.9475 14.5896C18.5364 14.4536 19.5781 14.2277 20.0771 13.7743C20.5736 13.3209 21.4791 13.2773 21.7522 13.0052C22.0244 12.7323 22.6578 13.2319 22.8384 12.9582C23.0198 12.687 23.1542 12.1437 22.8855 11.8272C22.6124 11.5107 22.431 10.9675 22.3873 10.1993C22.3411 9.42933 22.1143 9.4738 22.1143 9.11194C22.1143 8.7492 21.979 8.29753 21.6606 8.11442C21.3448 7.93479 21.2087 7.79964 21.5254 7.30088C21.8429 6.80212 21.706 5.53516 21.5699 5.17417C21.5437 5.1018 21.5463 5.01635 21.5611 4.92653C21.4791 4.88817 21.4146 4.80795 21.3902 4.67541C21.2994 4.19235 20.9688 4.01185 20.1827 4.01185C19.3966 4.01185 20.6652 3.22709 20.3624 2.83383C20.0614 2.44319 19.2763 3.55756 18.553 3.31603C17.8271 3.07711 16.8928 4.16357 16.2585 4.64489C15.6234 5.12883 14.7178 4.55508 15.2011 3.86013C15.6836 3.16692 15.2011 3.22621 14.4753 3.50001C13.7512 3.77119 12.8761 3.43897 12.966 2.77454C12.9895 2.60712 12.9354 2.45191 12.8473 2.30455C12.4931 2.35426 12.2209 2.36472 12.0909 2.32199C11.7672 2.21561 11.03 2.15719 10.2265 2.14062C10.4665 2.49115 10.7264 2.8347 10.5807 3.10676C10.3103 3.62121 10.7325 4.10428 11.1243 4.85765C11.5177 5.61277 10.2806 5.18987 10.2501 5.67293C10.2187 6.156 9.10372 5.64241 8.73991 5.46017C8.37873 5.28055 7.17041 5.40088 7.20095 5.70258C7.21229 5.82378 7.19309 5.98858 7.13988 6.13071C7.29953 6.7158 7.37194 7.25379 7.19833 7.51713Z" stroke="#868686" stroke-width="0.25"/>
</g>
<defs>
<filter id="filter0_d_877_3297" x="0.773438" y="0.0107422" width="26.3887" height="28.6719" filterUnits="userSpaceOnUse" color-interpolation-filters="sRGB">
<feFlood flood-opacity="0" result="BackgroundImageFix"/>
<feColorMatrix in="SourceAlpha" type="matrix" values="0 0 0 0 0 0 0 0 0 0 0 0 0 0 0 0 0 0 127 0" result="hardAlpha"/>
<feOffset dy="2"/>
<feGaussianBlur stdDeviation="2"/>
<feColorMatrix type="matrix" values="0 0 0 0 0 0 0 0 0 0 0 0 0 0 0 0 0 0 0.01 0"/>
<feBlend mode="normal" in2="BackgroundImageFix" result="effect1_dropShadow_877_3297"/>
<feBlend mode="normal" in="SourceGraphic" in2="effect1_dropShadow_877_3297" result="shape"/>
</filter>
</defs>
</svg>
