<svg width="30" height="37" viewBox="0 0 30 37" fill="none" xmlns="http://www.w3.org/2000/svg">
<g filter="url(#filter0_d_877_3221)">
<path fill-rule="evenodd" clip-rule="evenodd" d="M9.53902 7.29122C9.90108 7.47346 10.4908 8.4239 10.8991 8.51371C11.3074 8.60352 13.5714 9.37259 15.0205 9.96204C16.4687 10.5506 17.3761 10.5968 17.828 10.5968C18.2825 10.5968 18.9621 10.7311 18.553 11.0485C18.1447 11.3659 13.7075 15.8469 13.1186 16.4799C12.5288 17.1156 12.1668 16.8898 10.8538 16.8898C9.53989 16.8898 8.54532 18.3363 8.18327 18.2927C7.9669 18.2657 7.1948 18.3974 6.52827 18.5482L5.55289 19.9765L4.61328 21.4396L4.71797 28.7528L5.73086 30.3572C6.52914 29.2908 8.67793 27.2364 10.2649 25.5666C11.9871 23.7564 12.863 23.3344 13.8279 22.8505C14.7937 22.3683 17.2391 19.9835 18.9011 17.8725C19.9471 16.5418 21.104 15.063 21.2558 14.0995C21.4049 13.1334 22.3716 11.8655 23.0966 10.9299C23.8216 9.99604 25.0299 7.60949 25.0002 6.88664C24.9706 6.16291 25.604 4.62216 25.6947 3.32468C25.7854 2.02895 24.6975 1.90775 24.3668 2.6306C24.0327 3.3552 21.439 3.83914 19.7761 3.86791C18.1159 3.89669 17.1204 4.05102 16.5158 4.62216C15.9104 5.19678 14.4019 4.47305 13.8584 5.10609C13.3166 5.74175 11.1705 6.28324 10.476 4.83404C10.1837 4.22367 9.79639 3.88361 9.42997 3.66998C8.84457 4.26727 8.14488 5.15056 8.27225 5.4357C8.45285 5.84464 9.17784 7.1116 9.53902 7.29122Z" fill="white"/>
<path fill-rule="evenodd" clip-rule="evenodd" d="M9.53902 7.29122C9.90108 7.47346 10.4908 8.4239 10.8991 8.51371C11.3074 8.60352 13.5714 9.37259 15.0205 9.96204C16.4687 10.5506 17.3761 10.5968 17.828 10.5968C18.2825 10.5968 18.9621 10.7311 18.553 11.0485C18.1447 11.3659 13.7075 15.8469 13.1186 16.4799C12.5288 17.1156 12.1668 16.8898 10.8538 16.8898C9.53989 16.8898 8.54532 18.3363 8.18327 18.2927C7.9669 18.2657 7.1948 18.3974 6.52827 18.5482L5.55289 19.9765L4.61328 21.4396L4.71797 28.7528L5.73086 30.3572C6.52914 29.2908 8.67793 27.2364 10.2649 25.5666C11.9871 23.7564 12.863 23.3344 13.8279 22.8505C14.7937 22.3683 17.2391 19.9835 18.9011 17.8725C19.9471 16.5418 21.104 15.063 21.2558 14.0995C21.4049 13.1334 22.3716 11.8655 23.0966 10.9299C23.8216 9.99604 25.0299 7.60949 25.0002 6.88664C24.9706 6.16291 25.604 4.62216 25.6947 3.32468C25.7854 2.02895 24.6975 1.90775 24.3668 2.6306C24.0327 3.3552 21.439 3.83914 19.7761 3.86791C18.1159 3.89669 17.1204 4.05102 16.5158 4.62216C15.9104 5.19678 14.4019 4.47305 13.8584 5.10609C13.3166 5.74175 11.1705 6.28324 10.476 4.83404C10.1837 4.22367 9.79639 3.88361 9.42997 3.66998C8.84457 4.26727 8.14488 5.15056 8.27225 5.4357C8.45285 5.84464 9.17784 7.1116 9.53902 7.29122Z" stroke="#868686" stroke-width="0.25"/>
</g>
<defs>
<filter id="filter0_d_877_3221" x="0.488281" y="0.0644531" width="29.3359" height="36.5127" filterUnits="userSpaceOnUse" color-interpolation-filters="sRGB">
<feFlood flood-opacity="0" result="BackgroundImageFix"/>
<feColorMatrix in="SourceAlpha" type="matrix" values="0 0 0 0 0 0 0 0 0 0 0 0 0 0 0 0 0 0 127 0" result="hardAlpha"/>
<feOffset dy="2"/>
<feGaussianBlur stdDeviation="2"/>
<feColorMatrix type="matrix" values="0 0 0 0 0 0 0 0 0 0 0 0 0 0 0 0 0 0 0.01 0"/>
<feBlend mode="normal" in2="BackgroundImageFix" result="effect1_dropShadow_877_3221"/>
<feBlend mode="normal" in="SourceGraphic" in2="effect1_dropShadow_877_3221" result="shape"/>
</filter>
</defs>
</svg>
