<svg width="33" height="44" viewBox="0 0 33 44" fill="none" xmlns="http://www.w3.org/2000/svg">
<g filter="url(#filter0_d_877_3329)">
<path fill-rule="evenodd" clip-rule="evenodd" d="M8.29378 27.5254C8.85912 27.8567 9.66263 27.7625 9.85194 27.5254C10.0404 27.2891 10.5586 27.8079 11.315 28.6598C11.3482 28.6973 11.3752 28.7269 11.4066 28.7618C12.0409 28.624 12.8418 28.5037 13.1654 28.7069C13.7325 29.0609 13.5912 30.3401 14.3729 30.4107C15.1546 30.4804 15.7234 31.2643 15.6527 31.6881C15.5803 32.1171 16.5051 32.3281 16.4344 32.9681C16.3638 33.6082 18.4969 33.4652 18.7804 33.2533C19.0639 33.0388 19.6328 32.8984 19.9878 33.1103C20.3438 33.3222 20.9833 32.8984 21.3392 33.0388C21.6952 33.1818 23.1172 33.7512 22.832 34.2464C22.5475 34.7452 21.553 35.5256 21.7659 35.9546C21.9351 36.2894 22.6775 36.4996 22.9811 36.9216C23.0143 36.9199 23.0475 36.9216 23.0806 36.9129C23.6241 36.7943 23.864 34.7435 23.864 34.1392C23.864 33.5367 24.1066 31.9663 24.2837 31.355C24.6265 30.1674 22.9759 29.3329 22.9759 28.0459C22.9759 26.7615 23.6302 27.4739 24.3657 26.9447C25.1003 26.4136 24.3247 26.1895 23.9565 26.1058C23.5892 26.0265 23.3031 25.3725 23.4252 24.9862C23.5482 24.5973 25.7947 24.7604 26.5101 24.7604C27.2238 24.7604 28.7767 24.1073 28.7968 24.0044C28.8177 23.9033 28.9808 23.3914 28.4286 22.9642C27.8772 22.5369 28.0822 21.9239 28.5106 21.433C28.9398 20.943 28.2454 20.4538 27.7141 19.8626C27.1836 19.2697 27.5919 17.1255 28.2035 16.1263C28.816 15.127 26.9577 15.3511 25.8139 15.4932C24.671 15.6362 23.6904 15.1872 22.955 14.2489C22.2204 13.309 21.2188 13.9019 19.4626 13.9411C17.7064 13.9821 18.0537 12.0019 18.1348 11.2459C18.2159 10.4908 17.2362 10.3888 17.2362 9.89872C17.2362 9.40868 16.7267 9.40868 16.2756 9.44966C15.8263 9.49064 16.2756 8.89945 16.5827 8.51143C16.889 8.12254 16.868 7.81735 16.889 7.00033C16.9099 6.1833 18.0938 5.49271 18.6862 4.69312C18.8319 4.50129 19.0535 4.3766 19.3065 4.29812C19.3789 4.10804 19.5237 3.95719 19.8029 3.90138C20.7085 3.72002 21.1621 3.13231 20.3002 2.63268C19.4408 2.13566 18.9418 3.58486 17.9917 3.72002C17.0408 3.85691 16.8584 4.44374 16.2242 4.76026C15.5899 5.07766 14.413 4.8056 14.3685 5.34971C14.3188 5.94264 13.9602 5.34971 13.4176 5.21455C12.8732 5.07853 11.4694 6.29927 11.5148 6.9794C11.5593 7.65691 11.7861 8.2917 10.7898 8.92561C9.79349 9.55865 9.2046 10.7367 8.75181 11.2799C8.61309 11.4438 8.46478 11.4578 8.30687 11.3828C8.24754 11.681 8.16117 11.9199 8.02507 12.0228C7.77556 12.2042 7.17184 12.818 6.64838 13.3569C6.90313 13.6011 7.1413 13.8199 7.3027 13.9934C7.93609 14.6718 7.52779 15.2159 7.71013 15.5787C7.89072 15.9397 8.07219 16.4829 7.71013 16.7096C7.3472 16.9354 7.66389 19.4257 8.07219 19.8774C8.47961 20.33 8.07219 20.7389 7.61939 21.6414C7.16573 22.5482 6.75831 22.9554 5.94346 23.0008C5.12773 23.047 5.1731 24.3139 4.90265 24.3139C4.68541 24.3139 4.52837 24.7717 4.49609 25.1667C5.25685 25.805 6.62308 26.5784 7.01742 26.5784C7.44316 26.581 7.7267 27.1958 8.29378 27.5254Z" fill="white"/>
<path fill-rule="evenodd" clip-rule="evenodd" d="M8.29378 27.5254C8.85912 27.8567 9.66263 27.7625 9.85194 27.5254C10.0404 27.2891 10.5586 27.8079 11.315 28.6598C11.3482 28.6973 11.3752 28.7269 11.4066 28.7618C12.0409 28.624 12.8418 28.5037 13.1654 28.7069C13.7325 29.0609 13.5912 30.3401 14.3729 30.4107C15.1546 30.4804 15.7234 31.2643 15.6527 31.6881C15.5803 32.1171 16.5051 32.3281 16.4344 32.9681C16.3638 33.6082 18.4969 33.4652 18.7804 33.2533C19.0639 33.0388 19.6328 32.8984 19.9878 33.1103C20.3438 33.3222 20.9833 32.8984 21.3392 33.0388C21.6952 33.1818 23.1172 33.7512 22.832 34.2464C22.5475 34.7452 21.553 35.5256 21.7659 35.9546C21.9351 36.2894 22.6775 36.4996 22.9811 36.9216C23.0143 36.9199 23.0475 36.9216 23.0806 36.9129C23.6241 36.7943 23.864 34.7435 23.864 34.1392C23.864 33.5367 24.1066 31.9663 24.2837 31.355C24.6265 30.1674 22.9759 29.3329 22.9759 28.0459C22.9759 26.7615 23.6302 27.4739 24.3657 26.9447C25.1003 26.4136 24.3247 26.1895 23.9565 26.1058C23.5892 26.0265 23.3031 25.3725 23.4252 24.9862C23.5482 24.5973 25.7947 24.7604 26.5101 24.7604C27.2238 24.7604 28.7767 24.1073 28.7968 24.0044C28.8177 23.9033 28.9808 23.3914 28.4286 22.9642C27.8772 22.5369 28.0822 21.9239 28.5106 21.433C28.9398 20.943 28.2454 20.4538 27.7141 19.8626C27.1836 19.2697 27.5919 17.1255 28.2035 16.1263C28.816 15.127 26.9577 15.3511 25.8139 15.4932C24.671 15.6362 23.6904 15.1872 22.955 14.2489C22.2204 13.309 21.2188 13.9019 19.4626 13.9411C17.7064 13.9821 18.0537 12.0019 18.1348 11.2459C18.2159 10.4908 17.2362 10.3888 17.2362 9.89872C17.2362 9.40868 16.7267 9.40868 16.2756 9.44966C15.8263 9.49064 16.2756 8.89945 16.5827 8.51143C16.889 8.12254 16.868 7.81735 16.889 7.00033C16.9099 6.1833 18.0938 5.49271 18.6862 4.69312C18.8319 4.50129 19.0535 4.3766 19.3065 4.29812C19.3789 4.10804 19.5237 3.95719 19.8029 3.90138C20.7085 3.72002 21.1621 3.13231 20.3002 2.63268C19.4408 2.13566 18.9418 3.58486 17.9917 3.72002C17.0408 3.85691 16.8584 4.44374 16.2242 4.76026C15.5899 5.07766 14.413 4.8056 14.3685 5.34971C14.3188 5.94264 13.9602 5.34971 13.4176 5.21455C12.8732 5.07853 11.4694 6.29927 11.5148 6.9794C11.5593 7.65691 11.7861 8.2917 10.7898 8.92561C9.79349 9.55865 9.2046 10.7367 8.75181 11.2799C8.61309 11.4438 8.46478 11.4578 8.30687 11.3828C8.24754 11.681 8.16117 11.9199 8.02507 12.0228C7.77556 12.2042 7.17184 12.818 6.64838 13.3569C6.90313 13.6011 7.1413 13.8199 7.3027 13.9934C7.93609 14.6718 7.52779 15.2159 7.71013 15.5787C7.89072 15.9397 8.07219 16.4829 7.71013 16.7096C7.3472 16.9354 7.66389 19.4257 8.07219 19.8774C8.47961 20.33 8.07219 20.7389 7.61939 21.6414C7.16573 22.5482 6.75831 22.9554 5.94346 23.0008C5.12773 23.047 5.1731 24.3139 4.90265 24.3139C4.68541 24.3139 4.52837 24.7717 4.49609 25.1667C5.25685 25.805 6.62308 26.5784 7.01742 26.5784C7.44316 26.581 7.7267 27.1958 8.29378 27.5254Z" stroke="#868686" stroke-width="0.25"/>
</g>
<defs>
<filter id="filter0_d_877_3329" x="0.367188" y="0.404297" width="32.5938" height="42.6455" filterUnits="userSpaceOnUse" color-interpolation-filters="sRGB">
<feFlood flood-opacity="0" result="BackgroundImageFix"/>
<feColorMatrix in="SourceAlpha" type="matrix" values="0 0 0 0 0 0 0 0 0 0 0 0 0 0 0 0 0 0 127 0" result="hardAlpha"/>
<feOffset dy="2"/>
<feGaussianBlur stdDeviation="2"/>
<feColorMatrix type="matrix" values="0 0 0 0 0 0 0 0 0 0 0 0 0 0 0 0 0 0 0.01 0"/>
<feBlend mode="normal" in2="BackgroundImageFix" result="effect1_dropShadow_877_3329"/>
<feBlend mode="normal" in="SourceGraphic" in2="effect1_dropShadow_877_3329" result="shape"/>
</filter>
</defs>
</svg>
