<svg width="90" height="92" viewBox="0 0 90 92" fill="none" xmlns="http://www.w3.org/2000/svg">
<g filter="url(#filter0_d_877_3320)">
<path fill-rule="evenodd" clip-rule="evenodd" d="M47.982 84.6846C49.2505 83.7778 48.9338 83.2363 49.521 82.1507C50.1108 81.0634 49.6126 80.6117 50.6098 79.6604C51.6061 78.7108 50.4283 78.0769 51.696 77.4883C52.9654 76.8998 52.7839 78.0325 51.7422 79.3439C50.7005 80.6579 50.5191 81.0189 51.8774 80.0231C53.2358 79.0274 53.734 77.6235 54.5043 76.0392C55.2738 74.4548 55.8636 73.9578 56.5423 73.8662C57.2202 73.7764 57.2202 72.1023 57.1303 70.926C57.0396 69.7471 56.6775 68.6615 57.1748 67.8916C57.673 67.1225 57.1748 66.3996 57.81 66.3996C58.4442 66.3996 59.3952 65.4475 60.3906 64.4517C61.3878 63.4568 62.022 63.3661 63.0629 63.2745C64.1045 63.1839 63.5165 62.8211 64.1953 62.6415C64.874 62.461 65.3277 61.8262 65.7805 61.4181C66.2333 61.0118 68.0898 61.4644 69.1768 61.4644C70.2648 61.4644 70.988 61.555 70.988 60.8767C70.988 60.1974 71.4862 59.6533 72.1213 59.6533C72.7538 59.6533 73.0269 59.4745 73.0269 58.5677C73.0269 57.6635 73.2982 57.1194 73.8409 56.7113C74.3853 56.305 74.476 55.3999 74.6575 54.8113C74.8389 54.2227 75.4261 54.5829 75.4261 53.7257C75.4261 52.8651 75.7436 51.9155 75.7436 51.2354C75.7436 50.5579 76.4678 50.646 76.7853 50.1481C77.1029 49.6511 76.5131 49.0189 77.0113 47.6142C77.5094 46.2112 77.0113 44.8989 77.0113 43.6319C77.0113 42.3641 77.0113 41.0509 77.4649 40.642C77.9186 40.2356 77.6918 40.0098 77.3297 39.8267C76.9668 39.6471 77.3751 39.1492 77.6918 39.2407C78.0085 39.3297 78.3705 40.0098 78.9603 39.6471C79.5492 39.2843 80.0918 37.7453 80.59 36.4784C81.089 35.2105 81.9039 35.2567 82.5372 34.9856C83.1724 34.7126 84.5316 33.1745 85.391 30.9554C86.2512 28.738 85.3447 26.5659 84.9827 25.0278C84.6197 23.4862 84.1216 23.8036 83.2177 23.8489C82.3113 23.8951 80.59 23.6684 78.326 21.2234C76.0621 18.7785 73.8417 18.9598 72.3481 19.3679C70.8528 19.776 69.3138 18.6433 68.3166 18.4175C67.3203 18.1908 66.3694 19.4577 65.6453 19.7298C64.9194 20.0009 66.0073 18.6433 66.0527 17.7836C66.098 16.9229 63.3351 15.7013 61.2517 14.8869C59.1692 14.0716 58.2627 14.4797 58.2627 15.792C58.2627 17.1052 57.4479 15.3839 56.8136 16.7895C56.1785 18.1916 55.0007 17.2857 55.772 16.834C56.5414 16.3814 57.2656 15.3386 57.5378 14.4806C57.81 13.6208 54.5488 12.939 53.4173 13.3941C52.284 13.8467 53.0081 15.4764 52.1034 14.9785C51.1969 14.4806 51.9219 13.2563 52.6469 13.3034C53.3719 13.3488 54.1876 11.8551 54.6849 10.7686C55.1831 9.68131 53.8247 9.49907 53.009 8.59572C52.2037 7.70022 52.3704 5.0887 51.5442 4.67539C50.6569 5.55258 49.466 6.9233 49.1301 7.92954C48.7 9.21656 48.1487 8.47975 46.984 8.84946C45.8193 9.21656 45.267 8.7239 44.9608 8.23647C44.6546 7.74295 43.4881 8.23647 42.6925 8.17457C41.8951 8.11266 42.3845 9.15465 41.8331 9.46332C41.2818 9.76851 39.871 8.85033 39.3807 9.40228C38.8904 9.95336 38.5842 9.40228 38.3391 9.89233C38.093 10.3815 37.2346 10.0763 36.9894 10.3815C36.7434 10.6884 35.8867 10.8715 34.7813 9.64556C33.6785 8.42307 33.8617 6.39838 34.3529 6.03129C34.8424 5.6642 34.8424 4.62133 34.168 4.31353C33.4936 4.00922 34.168 2.72046 33.3112 2.59926C32.4519 2.47718 32.5749 3.57934 32.0235 3.76245C31.4722 3.94644 30.1225 4.86722 29.5092 4.74428C28.8959 4.62046 28.0985 4.86722 28.0985 5.5395C28.0985 6.2144 27.425 6.03042 27.3019 5.48021C27.1798 4.92826 25.8921 5.23345 25.5248 4.86722C25.1566 4.49926 23.4397 4.68237 24.1752 5.11137C24.9106 5.5395 24.9726 5.96851 24.9726 6.6434C24.9726 7.3183 25.5248 7.13257 25.5248 7.93129C25.5248 8.72564 26.1373 8.17544 26.5665 8.17544C26.9957 8.17544 26.9957 8.91312 26.3222 9.03257C25.6478 9.15552 25.3407 9.52174 25.1566 10.1382C24.9726 10.7503 24.3601 10.3196 23.8087 10.8105C23.2565 11.3023 22.7662 11.7915 22.3971 11.5456C22.0299 11.3032 21.7236 11.4863 21.2944 11.7304C20.8652 11.9746 20.6811 11.7304 20.0678 11.2404C19.6089 10.8724 19.321 9.9865 18.507 9.17993C18.0219 9.41013 17.0369 9.76589 16.5074 9.76589C15.792 9.76589 13.5446 9.60196 13.4225 9.99173C13.3003 10.378 13.5865 11.032 13.9538 11.1113C14.3219 11.195 15.0975 11.4191 14.3629 11.9501C13.6275 12.4786 12.9732 11.767 12.9732 13.0514C12.9732 14.3384 14.6238 15.1729 14.2809 16.3605C14.1038 16.9718 13.8613 18.5422 13.8613 19.1447C13.8613 19.7481 13.6214 21.7998 13.0778 21.9184C12.5343 22.0413 12.051 21.4388 11.326 22.0413C10.601 22.6447 9.6963 22.282 8.85092 22.9482C8.00553 23.61 7.09995 23.3685 7.03975 24.1541C6.97868 24.9389 6.19524 25.3618 6.37583 26.0855C6.5573 26.8092 6.0129 26.6287 5.46938 27.1719C4.92673 27.7152 5.52958 28.0762 5.16665 28.4999C4.80371 28.9228 5.28791 29.5847 5.71017 30.2491C6.13243 30.9135 6.61662 31.3948 6.55643 32C6.49536 32.6025 6.97781 32.8458 7.58241 32.783C8.18613 32.7237 7.70193 33.9305 8.66945 33.9305C9.63523 33.9305 10.601 34.172 10.8435 33.6297C11.0852 33.0856 11.7491 32.6635 11.7491 33.4483C11.7491 34.2313 11.5677 36.3458 12.2316 36.1043C12.8964 35.8628 14.2251 35.9203 14.8899 36.1627C15.5529 36.4042 16.2168 36.1627 16.64 35.7407C17.0631 35.3195 17.5456 35.3213 18.3901 34.8373C19.2363 34.3525 20.0206 33.7509 20.8076 33.7509C21.5919 33.7509 22.9206 33.2661 22.7383 33.8695C22.5568 34.4737 22.4373 36.7077 23.4031 37.8534C24.3688 39.0001 24.9115 39.423 25.8179 39.3026C26.7244 39.1806 26.6031 39.6628 27.2679 39.6052C27.9318 39.545 27.5096 40.3281 28.1142 40.3281C28.717 40.3281 29.8032 40.4493 29.8032 41.112C29.8032 41.7773 31.6161 41.234 32.0392 41.5959C32.4615 41.9569 32.944 42.2595 32.8236 42.9832C32.7014 43.7087 33.7291 44.2519 33.1263 44.5527C32.5208 44.8544 33.3069 45.4578 33.3671 46.2426C33.4264 47.0265 34.2727 47.329 35.6014 47.268C36.9292 47.2104 37.293 47.329 37.293 48.296C37.293 49.2595 38.1977 49.3816 38.4996 50.2876C38.8023 51.1918 38.1375 52.2172 38.2588 52.9427C38.3504 53.499 38.0145 54.0876 37.6368 54.3309C38.1026 54.9247 38.141 55.1915 37.7231 55.4217C37.1726 55.7277 38.3984 56.5849 38.0922 57.932C37.7859 59.2827 37.7249 59.526 39.1356 59.587C40.5437 59.6489 40.4216 60.0771 40.9119 59.7701C41.403 59.4632 42.1376 60.8121 42.3217 61.4896C42.5058 62.1619 43.0572 63.7533 43.3023 63.7533C43.5492 63.7533 44.2838 63.0173 45.0193 63.387C45.7032 63.728 44.8509 66.0299 44.8265 67.0388C45.3377 67.0205 45.9632 67.0222 46.17 67.126C46.5373 67.3117 46.7205 69.7863 46.5382 70.2459C46.3541 70.7028 44.8387 71.1152 44.0596 71.6201C43.2805 72.1249 41.3987 73.9133 40.5262 75.3355C40.0106 76.1787 39.256 76.8745 38.7255 77.4822C38.9777 77.5189 39.1906 77.5093 39.3336 77.4456C39.7463 77.2608 40.3893 77.2608 41.0776 78.0856C41.7668 78.9123 41.7206 79.5549 41.9954 79.5096C42.2711 79.4616 42.593 78.4083 43.1427 79.1887C43.6932 79.9673 45.1152 80.5638 45.4363 80.9308C45.7573 81.2979 46.813 81.5735 46.813 82.5361C46.813 83.225 46.4876 84.5286 47.0276 85.6325C47.2876 85.2941 47.5833 84.9689 47.982 84.6846Z" fill="white"/>
<path fill-rule="evenodd" clip-rule="evenodd" d="M47.982 84.6846C49.2505 83.7778 48.9338 83.2363 49.521 82.1507C50.1108 81.0634 49.6126 80.6117 50.6098 79.6604C51.6061 78.7108 50.4283 78.0769 51.696 77.4883C52.9654 76.8998 52.7839 78.0325 51.7422 79.3439C50.7005 80.6579 50.5191 81.0189 51.8774 80.0231C53.2358 79.0274 53.734 77.6235 54.5043 76.0392C55.2738 74.4548 55.8636 73.9578 56.5423 73.8662C57.2202 73.7764 57.2202 72.1023 57.1303 70.926C57.0396 69.7471 56.6775 68.6615 57.1748 67.8916C57.673 67.1225 57.1748 66.3996 57.81 66.3996C58.4442 66.3996 59.3952 65.4475 60.3906 64.4517C61.3878 63.4568 62.022 63.3661 63.0629 63.2745C64.1045 63.1839 63.5165 62.8211 64.1953 62.6415C64.874 62.461 65.3277 61.8262 65.7805 61.4181C66.2333 61.0118 68.0898 61.4644 69.1768 61.4644C70.2648 61.4644 70.988 61.555 70.988 60.8767C70.988 60.1974 71.4862 59.6533 72.1213 59.6533C72.7538 59.6533 73.0269 59.4745 73.0269 58.5677C73.0269 57.6635 73.2982 57.1194 73.8409 56.7113C74.3853 56.305 74.476 55.3999 74.6575 54.8113C74.8389 54.2227 75.4261 54.5829 75.4261 53.7257C75.4261 52.8651 75.7436 51.9155 75.7436 51.2354C75.7436 50.5579 76.4678 50.646 76.7853 50.1481C77.1029 49.6511 76.5131 49.0189 77.0113 47.6142C77.5094 46.2112 77.0113 44.8989 77.0113 43.6319C77.0113 42.3641 77.0113 41.0509 77.4649 40.642C77.9186 40.2356 77.6918 40.0098 77.3297 39.8267C76.9668 39.6471 77.3751 39.1492 77.6918 39.2407C78.0085 39.3297 78.3705 40.0098 78.9603 39.6471C79.5492 39.2843 80.0918 37.7453 80.59 36.4784C81.089 35.2105 81.9039 35.2567 82.5372 34.9856C83.1724 34.7126 84.5316 33.1745 85.391 30.9554C86.2512 28.738 85.3447 26.5659 84.9827 25.0278C84.6197 23.4862 84.1216 23.8036 83.2177 23.8489C82.3113 23.8951 80.59 23.6684 78.326 21.2234C76.0621 18.7785 73.8417 18.9598 72.3481 19.3679C70.8528 19.776 69.3138 18.6433 68.3166 18.4175C67.3203 18.1908 66.3694 19.4577 65.6453 19.7298C64.9194 20.0009 66.0073 18.6433 66.0527 17.7836C66.098 16.9229 63.3351 15.7013 61.2517 14.8869C59.1692 14.0716 58.2627 14.4797 58.2627 15.792C58.2627 17.1052 57.4479 15.3839 56.8136 16.7895C56.1785 18.1916 55.0007 17.2857 55.772 16.834C56.5414 16.3814 57.2656 15.3386 57.5378 14.4806C57.81 13.6208 54.5488 12.939 53.4173 13.3941C52.284 13.8467 53.0081 15.4764 52.1034 14.9785C51.1969 14.4806 51.9219 13.2563 52.6469 13.3034C53.3719 13.3488 54.1876 11.8551 54.6849 10.7686C55.1831 9.68131 53.8247 9.49907 53.009 8.59572C52.2037 7.70022 52.3704 5.0887 51.5442 4.67539C50.6569 5.55258 49.466 6.9233 49.1301 7.92954C48.7 9.21656 48.1487 8.47975 46.984 8.84946C45.8193 9.21656 45.267 8.7239 44.9608 8.23647C44.6546 7.74295 43.4881 8.23647 42.6925 8.17457C41.8951 8.11266 42.3845 9.15465 41.8331 9.46332C41.2818 9.76851 39.871 8.85033 39.3807 9.40228C38.8904 9.95336 38.5842 9.40228 38.3391 9.89233C38.093 10.3815 37.2346 10.0763 36.9894 10.3815C36.7434 10.6884 35.8867 10.8715 34.7813 9.64556C33.6785 8.42307 33.8617 6.39838 34.3529 6.03129C34.8424 5.6642 34.8424 4.62133 34.168 4.31353C33.4936 4.00922 34.168 2.72046 33.3112 2.59926C32.4519 2.47718 32.5749 3.57934 32.0235 3.76245C31.4722 3.94644 30.1225 4.86722 29.5092 4.74428C28.8959 4.62046 28.0985 4.86722 28.0985 5.5395C28.0985 6.2144 27.425 6.03042 27.3019 5.48021C27.1798 4.92826 25.8921 5.23345 25.5248 4.86722C25.1566 4.49926 23.4397 4.68237 24.1752 5.11137C24.9106 5.5395 24.9726 5.96851 24.9726 6.6434C24.9726 7.3183 25.5248 7.13257 25.5248 7.93129C25.5248 8.72564 26.1373 8.17544 26.5665 8.17544C26.9957 8.17544 26.9957 8.91312 26.3222 9.03257C25.6478 9.15552 25.3407 9.52174 25.1566 10.1382C24.9726 10.7503 24.3601 10.3196 23.8087 10.8105C23.2565 11.3023 22.7662 11.7915 22.3971 11.5456C22.0299 11.3032 21.7236 11.4863 21.2944 11.7304C20.8652 11.9746 20.6811 11.7304 20.0678 11.2404C19.6089 10.8724 19.321 9.9865 18.507 9.17993C18.0219 9.41013 17.0369 9.76589 16.5074 9.76589C15.792 9.76589 13.5446 9.60196 13.4225 9.99173C13.3003 10.378 13.5865 11.032 13.9538 11.1113C14.3219 11.195 15.0975 11.4191 14.3629 11.9501C13.6275 12.4786 12.9732 11.767 12.9732 13.0514C12.9732 14.3384 14.6238 15.1729 14.2809 16.3605C14.1038 16.9718 13.8613 18.5422 13.8613 19.1447C13.8613 19.7481 13.6214 21.7998 13.0778 21.9184C12.5343 22.0413 12.051 21.4388 11.326 22.0413C10.601 22.6447 9.6963 22.282 8.85092 22.9482C8.00553 23.61 7.09995 23.3685 7.03975 24.1541C6.97868 24.9389 6.19524 25.3618 6.37583 26.0855C6.5573 26.8092 6.0129 26.6287 5.46938 27.1719C4.92673 27.7152 5.52958 28.0762 5.16665 28.4999C4.80371 28.9228 5.28791 29.5847 5.71017 30.2491C6.13243 30.9135 6.61662 31.3948 6.55643 32C6.49536 32.6025 6.97781 32.8458 7.58241 32.783C8.18613 32.7237 7.70193 33.9305 8.66945 33.9305C9.63523 33.9305 10.601 34.172 10.8435 33.6297C11.0852 33.0856 11.7491 32.6635 11.7491 33.4483C11.7491 34.2313 11.5677 36.3458 12.2316 36.1043C12.8964 35.8628 14.2251 35.9203 14.8899 36.1627C15.5529 36.4042 16.2168 36.1627 16.64 35.7407C17.0631 35.3195 17.5456 35.3213 18.3901 34.8373C19.2363 34.3525 20.0206 33.7509 20.8076 33.7509C21.5919 33.7509 22.9206 33.2661 22.7383 33.8695C22.5568 34.4737 22.4373 36.7077 23.4031 37.8534C24.3688 39.0001 24.9115 39.423 25.8179 39.3026C26.7244 39.1806 26.6031 39.6628 27.2679 39.6052C27.9318 39.545 27.5096 40.3281 28.1142 40.3281C28.717 40.3281 29.8032 40.4493 29.8032 41.112C29.8032 41.7773 31.6161 41.234 32.0392 41.5959C32.4615 41.9569 32.944 42.2595 32.8236 42.9832C32.7014 43.7087 33.7291 44.2519 33.1263 44.5527C32.5208 44.8544 33.3069 45.4578 33.3671 46.2426C33.4264 47.0265 34.2727 47.329 35.6014 47.268C36.9292 47.2104 37.293 47.329 37.293 48.296C37.293 49.2595 38.1977 49.3816 38.4996 50.2876C38.8023 51.1918 38.1375 52.2172 38.2588 52.9427C38.3504 53.499 38.0145 54.0876 37.6368 54.3309C38.1026 54.9247 38.141 55.1915 37.7231 55.4217C37.1726 55.7277 38.3984 56.5849 38.0922 57.932C37.7859 59.2827 37.7249 59.526 39.1356 59.587C40.5437 59.6489 40.4216 60.0771 40.9119 59.7701C41.403 59.4632 42.1376 60.8121 42.3217 61.4896C42.5058 62.1619 43.0572 63.7533 43.3023 63.7533C43.5492 63.7533 44.2838 63.0173 45.0193 63.387C45.7032 63.728 44.8509 66.0299 44.8265 67.0388C45.3377 67.0205 45.9632 67.0222 46.17 67.126C46.5373 67.3117 46.7205 69.7863 46.5382 70.2459C46.3541 70.7028 44.8387 71.1152 44.0596 71.6201C43.2805 72.1249 41.3987 73.9133 40.5262 75.3355C40.0106 76.1787 39.256 76.8745 38.7255 77.4822C38.9777 77.5189 39.1906 77.5093 39.3336 77.4456C39.7463 77.2608 40.3893 77.2608 41.0776 78.0856C41.7668 78.9123 41.7206 79.5549 41.9954 79.5096C42.2711 79.4616 42.593 78.4083 43.1427 79.1887C43.6932 79.9673 45.1152 80.5638 45.4363 80.9308C45.7573 81.2979 46.813 81.5735 46.813 82.5361C46.813 83.225 46.4876 84.5286 47.0276 85.6325C47.2876 85.2941 47.5833 84.9689 47.982 84.6846Z" stroke="#868686" stroke-width="0.25"/>
</g>
<defs>
<filter id="filter0_d_877_3320" x="0.914062" y="0.464844" width="88.9609" height="91.4033" filterUnits="userSpaceOnUse" color-interpolation-filters="sRGB">
<feFlood flood-opacity="0" result="BackgroundImageFix"/>
<feColorMatrix in="SourceAlpha" type="matrix" values="0 0 0 0 0 0 0 0 0 0 0 0 0 0 0 0 0 0 127 0" result="hardAlpha"/>
<feOffset dy="2"/>
<feGaussianBlur stdDeviation="2"/>
<feColorMatrix type="matrix" values="0 0 0 0 0 0 0 0 0 0 0 0 0 0 0 0 0 0 0.01 0"/>
<feBlend mode="normal" in2="BackgroundImageFix" result="effect1_dropShadow_877_3320"/>
<feBlend mode="normal" in="SourceGraphic" in2="effect1_dropShadow_877_3320" result="shape"/>
</filter>
</defs>
</svg>
