<svg width="35" height="26" viewBox="0 0 35 26" fill="none" xmlns="http://www.w3.org/2000/svg">
<g filter="url(#filter0_d_877_3229)">
<path fill-rule="evenodd" clip-rule="evenodd" d="M28.0327 12.0498C28.0327 11.6722 28.0336 11.2938 27.279 10.666C26.5226 10.0347 26.02 9.91087 26.02 9.5307C26.02 9.15401 25.7679 9.02758 25.138 8.27333C24.5072 7.51909 23.4996 7.51909 23.4996 7.51909L23.2475 6.8904L22.3654 6.7631C22.3654 6.7631 21.862 6.38641 22.6184 6.00798C23.3731 5.63042 22.6184 4.62331 22.4928 4.24575C22.3829 3.91789 21.3185 2.63524 21.0454 2.31C20.912 2.30477 20.7846 2.28384 20.6904 2.23065C20.2699 1.98912 19.4227 2.47219 19.0013 2.89247C18.5791 3.31712 18.8801 3.55865 18.5791 3.85947C18.2763 4.16204 17.2504 5.06539 16.5865 5.91207C15.9225 6.75612 14.2309 6.21376 13.6882 6.51372C13.1447 6.81542 13.929 7.29848 13.567 7.60018C13.204 7.90275 12.1179 8.38407 11.7558 8.56544C11.3937 8.74681 9.94377 8.68577 9.52064 9.23074C9.09926 9.77136 8.61506 8.62648 8.19193 9.23074C7.76967 9.83327 7.28547 9.89518 7.04643 9.71206C6.98885 9.67021 6.92865 9.59522 6.86671 9.49843C6.47499 9.86204 5.99689 10.2684 5.83724 10.7698C5.56591 11.6278 4.8418 12.3977 4.8418 12.8058C4.8418 13.2121 5.11312 13.7562 5.11312 14.4791C5.11312 15.2054 5.29372 15.5664 5.70201 16.1096C6.11031 16.652 6.01871 17.3321 6.01871 17.3321C6.01871 17.3321 6.15306 17.6042 6.47237 18.0105C6.78732 18.4177 7.6929 19.0063 7.78538 19.3237C7.82725 19.4693 7.98255 19.5835 8.13697 19.6664C8.17623 19.6018 8.21723 19.5321 8.26172 19.4745C8.76599 18.8458 8.63949 17.9634 8.63949 17.9634L9.77364 17.714L10.6531 17.462L12.418 17.714V16.3294C12.418 16.3294 13.676 14.6918 14.5589 14.6918C15.441 14.6918 16.1973 15.8262 16.1973 15.8262L20.1006 16.5822C20.1006 16.5822 20.3527 15.4487 20.7305 15.1949C21.1091 14.9456 21.8638 15.4487 22.3672 15.1949C22.8723 14.9456 23.627 14.5663 24.509 14.5663C25.391 14.5663 25.7688 15.0703 26.1474 14.3143C26.5243 13.56 28.4131 14.5663 28.4131 14.5663L29.9242 14.3143L29.4208 13.056C29.419 13.0569 28.0327 12.4256 28.0327 12.0498Z" fill="white"/>
<path fill-rule="evenodd" clip-rule="evenodd" d="M28.0327 12.0498C28.0327 11.6722 28.0336 11.2938 27.279 10.666C26.5226 10.0347 26.02 9.91087 26.02 9.5307C26.02 9.15401 25.7679 9.02758 25.138 8.27333C24.5072 7.51909 23.4996 7.51909 23.4996 7.51909L23.2475 6.8904L22.3654 6.7631C22.3654 6.7631 21.862 6.38641 22.6184 6.00798C23.3731 5.63042 22.6184 4.62331 22.4928 4.24575C22.3829 3.91789 21.3185 2.63524 21.0454 2.31C20.912 2.30477 20.7846 2.28384 20.6904 2.23065C20.2699 1.98912 19.4227 2.47219 19.0013 2.89247C18.5791 3.31712 18.8801 3.55865 18.5791 3.85947C18.2763 4.16204 17.2504 5.06539 16.5865 5.91207C15.9225 6.75612 14.2309 6.21376 13.6882 6.51372C13.1447 6.81542 13.929 7.29848 13.567 7.60018C13.204 7.90275 12.1179 8.38407 11.7558 8.56544C11.3937 8.74681 9.94377 8.68577 9.52064 9.23074C9.09926 9.77136 8.61506 8.62648 8.19193 9.23074C7.76967 9.83327 7.28547 9.89518 7.04643 9.71206C6.98885 9.67021 6.92865 9.59522 6.86671 9.49843C6.47499 9.86204 5.99689 10.2684 5.83724 10.7698C5.56591 11.6278 4.8418 12.3977 4.8418 12.8058C4.8418 13.2121 5.11312 13.7562 5.11312 14.4791C5.11312 15.2054 5.29372 15.5664 5.70201 16.1096C6.11031 16.652 6.01871 17.3321 6.01871 17.3321C6.01871 17.3321 6.15306 17.6042 6.47237 18.0105C6.78732 18.4177 7.6929 19.0063 7.78538 19.3237C7.82725 19.4693 7.98255 19.5835 8.13697 19.6664C8.17623 19.6018 8.21723 19.5321 8.26172 19.4745C8.76599 18.8458 8.63949 17.9634 8.63949 17.9634L9.77364 17.714L10.6531 17.462L12.418 17.714V16.3294C12.418 16.3294 13.676 14.6918 14.5589 14.6918C15.441 14.6918 16.1973 15.8262 16.1973 15.8262L20.1006 16.5822C20.1006 16.5822 20.3527 15.4487 20.7305 15.1949C21.1091 14.9456 21.8638 15.4487 22.3672 15.1949C22.8723 14.9456 23.627 14.5663 24.509 14.5663C25.391 14.5663 25.7688 15.0703 26.1474 14.3143C26.5243 13.56 28.4131 14.5663 28.4131 14.5663L29.9242 14.3143L29.4208 13.056C29.419 13.0569 28.0327 12.4256 28.0327 12.0498Z" stroke="#868686" stroke-width="0.25"/>
</g>
<defs>
<filter id="filter0_d_877_3229" x="0.716797" y="0.0410156" width="33.3809" height="25.791" filterUnits="userSpaceOnUse" color-interpolation-filters="sRGB">
<feFlood flood-opacity="0" result="BackgroundImageFix"/>
<feColorMatrix in="SourceAlpha" type="matrix" values="0 0 0 0 0 0 0 0 0 0 0 0 0 0 0 0 0 0 127 0" result="hardAlpha"/>
<feOffset dy="2"/>
<feGaussianBlur stdDeviation="2"/>
<feColorMatrix type="matrix" values="0 0 0 0 0 0 0 0 0 0 0 0 0 0 0 0 0 0 0.01 0"/>
<feBlend mode="normal" in2="BackgroundImageFix" result="effect1_dropShadow_877_3229"/>
<feBlend mode="normal" in="SourceGraphic" in2="effect1_dropShadow_877_3229" result="shape"/>
</filter>
</defs>
</svg>
