<svg width="21" height="18" viewBox="0 0 21 18" fill="none" xmlns="http://www.w3.org/2000/svg">
<g filter="url(#filter0_d_877_3273)">
<path fill-rule="evenodd" clip-rule="evenodd" d="M10.4404 10.1544C10.4404 9.63825 12.5098 10.6733 12.768 10.1544C13.0289 9.63825 11.2159 7.95711 12.768 8.346C14.3209 8.73228 14.0627 7.82806 14.58 7.18194C15.0965 6.53669 16.7794 6.01962 16.0021 4.85468C15.4525 4.02893 15.2946 3.0785 15.2946 2.31641C14.7955 2.71053 14.1866 2.74018 13.8454 2.60328C13.4084 2.42889 12.4504 2.34169 12.4504 3.04013C12.4504 3.73596 11.7542 3.91035 11.8406 3.56244C11.9278 3.21452 11.1435 3.2991 10.7064 2.77942C10.2711 2.25537 8.70247 2.95294 7.91816 2.69135C7.13384 2.42889 5.91331 3.12558 5.13161 4.08474C4.34468 5.04302 5.21711 5.04302 5.21711 5.91411C5.21711 6.78607 5.74057 6.78607 5.47971 7.48277C5.47186 7.5002 5.46575 7.52375 5.46052 7.54293C6.22826 7.88299 5.9264 8.84041 6.0119 9.38189C6.10263 9.9539 6.85815 9.62168 7.27954 9.59116C7.70267 9.56239 7.00734 10.2565 7.37027 10.6785C7.7332 11.1005 8.78971 10.3175 9.00171 10.8311C9.05231 10.9523 9.11426 11.0526 9.18318 11.1424C9.74066 10.8695 10.4404 10.4657 10.4404 10.1544Z" fill="white"/>
<path fill-rule="evenodd" clip-rule="evenodd" d="M10.4404 10.1544C10.4404 9.63825 12.5098 10.6733 12.768 10.1544C13.0289 9.63825 11.2159 7.95711 12.768 8.346C14.3209 8.73228 14.0627 7.82806 14.58 7.18194C15.0965 6.53669 16.7794 6.01962 16.0021 4.85468C15.4525 4.02893 15.2946 3.0785 15.2946 2.31641C14.7955 2.71053 14.1866 2.74018 13.8454 2.60328C13.4084 2.42889 12.4504 2.34169 12.4504 3.04013C12.4504 3.73596 11.7542 3.91035 11.8406 3.56244C11.9278 3.21452 11.1435 3.2991 10.7064 2.77942C10.2711 2.25537 8.70247 2.95294 7.91816 2.69135C7.13384 2.42889 5.91331 3.12558 5.13161 4.08474C4.34468 5.04302 5.21711 5.04302 5.21711 5.91411C5.21711 6.78607 5.74057 6.78607 5.47971 7.48277C5.47186 7.5002 5.46575 7.52375 5.46052 7.54293C6.22826 7.88299 5.9264 8.84041 6.0119 9.38189C6.10263 9.9539 6.85815 9.62168 7.27954 9.59116C7.70267 9.56239 7.00734 10.2565 7.37027 10.6785C7.7332 11.1005 8.78971 10.3175 9.00171 10.8311C9.05231 10.9523 9.11426 11.0526 9.18318 11.1424C9.74066 10.8695 10.4404 10.4657 10.4404 10.1544Z" stroke="#868686" stroke-width="0.25"/>
</g>
<defs>
<filter id="filter0_d_877_3273" x="0.677734" y="0.0585938" width="19.6504" height="17.2412" filterUnits="userSpaceOnUse" color-interpolation-filters="sRGB">
<feFlood flood-opacity="0" result="BackgroundImageFix"/>
<feColorMatrix in="SourceAlpha" type="matrix" values="0 0 0 0 0 0 0 0 0 0 0 0 0 0 0 0 0 0 127 0" result="hardAlpha"/>
<feOffset dy="2"/>
<feGaussianBlur stdDeviation="2"/>
<feColorMatrix type="matrix" values="0 0 0 0 0 0 0 0 0 0 0 0 0 0 0 0 0 0 0.01 0"/>
<feBlend mode="normal" in2="BackgroundImageFix" result="effect1_dropShadow_877_3273"/>
<feBlend mode="normal" in="SourceGraphic" in2="effect1_dropShadow_877_3273" result="shape"/>
</filter>
</defs>
</svg>
