<svg width="35" height="28" viewBox="0 0 35 28" fill="none" xmlns="http://www.w3.org/2000/svg">
<g filter="url(#filter0_d_877_3396)">
<path fill-rule="evenodd" clip-rule="evenodd" d="M30.0784 6.201C29.3508 6.18531 28.5377 6.26291 27.9811 6.13996C27.3198 5.99435 25.9231 5.92023 25.5566 5.55314C25.1885 5.18691 24.6013 4.89306 24.6013 5.33166C24.6013 5.77549 23.5727 5.84786 22.9856 5.47902C22.3967 5.11105 21.4431 4.82069 21.0017 4.52422C20.7687 4.37076 20.2924 4.17457 19.8396 3.94873C19.2272 4.06819 17.4666 3.4212 16.3071 3.5642C15.0692 3.71417 11.1127 3.38196 9.57284 3.50403C8.03388 3.62436 7.94227 2.87012 7.09689 2.87012C6.25237 2.87012 6.61443 3.89467 5.40699 3.92519C4.19867 3.95658 4.08002 4.70995 4.95332 5.40577C5.45148 5.80164 5.39128 6.63437 5.32149 7.39995C5.57188 7.36856 5.75683 7.29967 5.86501 7.168C6.23143 6.72941 6.59873 6.79917 6.59873 7.24212C6.59873 7.6842 7.4066 7.53684 7.84805 7.53684C8.28862 7.53684 8.14118 7.90481 8.65679 7.53684C9.16978 7.168 9.90611 7.31624 9.90611 7.75658C9.90611 8.19692 11.0071 7.97631 10.42 8.56488C9.83195 9.15171 9.09562 9.29994 9.09562 9.73854C9.09562 10.1806 9.7578 11.1337 9.24219 11.6473C8.73007 12.1626 9.3905 13.0441 8.87752 13.0441C8.36191 13.0441 7.77389 13.263 8.36191 13.8507C8.9508 14.4401 9.3905 14.9537 8.9508 14.9537C8.50935 14.9537 8.21534 15.8353 8.43607 16.0559C8.65679 16.2756 9.68539 16.9374 8.87839 17.0831C8.06877 17.2304 8.06877 17.8905 8.06877 18.3326C8.06877 18.4965 8.19964 18.7441 8.3654 18.9961C8.74054 18.9299 9.11045 18.9185 9.45157 19.0772C10.297 19.4687 10.7864 21.5719 11.9267 21.4306C12.4109 21.3696 12.1692 21.0086 12.4109 20.7645C12.6534 20.5247 13.1044 20.7069 13.5886 20.7069C14.0702 20.7069 14.3136 20.0111 15.4591 19.9823C16.6072 19.9527 17.3322 19.8594 18.0564 19.8916C18.7813 19.9213 19.3554 19.6797 19.5351 19.167C19.7157 18.6543 20.3212 18.2026 21.136 18.0814C21.9509 17.9602 21.8305 17.1153 21.8898 16.634C21.9509 16.1501 23.3101 15.4246 23.3991 15.0636C23.4907 14.7 22.6131 13.3127 23.4288 12.0754C24.2445 10.8381 25.1204 10.7788 25.1204 10.0838C25.1204 9.44818 25.9658 9.21013 26.9927 9.08632C28.0195 8.96773 28.351 8.27278 29.2278 7.91004C29.965 7.60398 30.2268 7.06337 30.0784 6.201ZM30.2564 12.7982C30.1046 11.7711 28.03 13.1043 28.474 13.4016C29.3814 14.0059 30.4065 13.8254 30.2564 12.7982Z" fill="white"/>
<path d="M30.0784 6.201L30.2016 6.17981L30.1842 6.07825L30.0811 6.07603L30.0784 6.201ZM27.9811 6.13996L28.0081 6.01791L28.008 6.01789L27.9811 6.13996ZM25.5566 5.55314L25.6451 5.46483L25.6448 5.46451L25.5566 5.55314ZM22.9856 5.47902L23.0521 5.37317L23.0518 5.37301L22.9856 5.47902ZM21.0017 4.52422L21.0714 4.42045L21.0704 4.41984L21.0017 4.52422ZM19.8396 3.94873L19.8954 3.83687L19.8574 3.81791L19.8157 3.82604L19.8396 3.94873ZM16.3071 3.5642L16.3222 3.68829L16.3224 3.68826L16.3071 3.5642ZM9.57284 3.50403L9.58259 3.62865L9.58272 3.62864L9.57284 3.50403ZM5.40699 3.92519L5.40383 3.80023L5.40374 3.80023L5.40699 3.92519ZM4.95332 5.40577L4.87543 5.50354L4.87556 5.50364L4.95332 5.40577ZM5.32149 7.39995L5.19701 7.3886L5.1829 7.5433L5.33704 7.52397L5.32149 7.39995ZM5.86501 7.168L5.76908 7.08786L5.76843 7.08865L5.86501 7.168ZM8.65679 7.53684L8.7294 7.63859L8.72976 7.63833L8.65679 7.53684ZM10.42 8.56488L10.5083 8.65336L10.5085 8.65316L10.42 8.56488ZM9.24219 11.6473L9.15398 11.5587L9.15353 11.5591L9.24219 11.6473ZM8.36191 13.8507L8.45034 13.7624L8.45027 13.7623L8.36191 13.8507ZM8.43607 16.0559L8.3477 16.1443L8.34788 16.1445L8.43607 16.0559ZM8.87839 17.0831L8.85619 16.96L8.856 16.9601L8.87839 17.0831ZM8.3654 18.9961L8.26097 19.0648L8.30616 19.1335L8.38714 19.1192L8.3654 18.9961ZM9.45157 19.0772L9.39885 19.1906L9.39904 19.1907L9.45157 19.0772ZM11.9267 21.4306L11.942 21.5547L11.9423 21.5547L11.9267 21.4306ZM12.4109 20.7645L12.323 20.6756L12.322 20.6765L12.4109 20.7645ZM15.4591 19.9823L15.4623 20.1073L15.4624 20.1073L15.4591 19.9823ZM18.0564 19.8916L18.0508 20.0165L18.0512 20.0165L18.0564 19.8916ZM19.5351 19.167L19.4172 19.1255L19.4172 19.1257L19.5351 19.167ZM21.8898 16.634L21.7658 16.6183L21.7658 16.6187L21.8898 16.634ZM23.3991 15.0636L23.2779 15.0331L23.2778 15.0337L23.3991 15.0636ZM26.9927 9.08632L26.9783 8.96214L26.9777 8.96221L26.9927 9.08632ZM29.2278 7.91004L29.2756 8.02555L29.2757 8.02549L29.2278 7.91004ZM30.2564 12.7982L30.3801 12.7802L30.3801 12.78L30.2564 12.7982ZM28.474 13.4016L28.4045 13.5055L28.4048 13.5057L28.474 13.4016ZM30.0811 6.07603C29.7158 6.06815 29.322 6.08367 28.9649 6.0857C28.6016 6.08777 28.2715 6.07609 28.0081 6.01791L27.9542 6.26202C28.2473 6.32678 28.6021 6.33777 28.9664 6.3357C29.3369 6.33359 29.7135 6.31816 30.0757 6.32597L30.0811 6.07603ZM28.008 6.01789C27.8375 5.98034 27.6216 5.9478 27.3927 5.91475C27.162 5.88143 26.9162 5.84736 26.6796 5.80643C26.4427 5.76546 26.2195 5.71835 26.0347 5.66001C25.8457 5.60038 25.7143 5.53419 25.6451 5.46483L25.4682 5.64144C25.5821 5.75563 25.7628 5.83636 25.9594 5.89842C26.1602 5.96178 26.3962 6.01113 26.637 6.05278C26.878 6.09446 27.1284 6.12917 27.357 6.16218C27.5874 6.19545 27.7941 6.22679 27.9542 6.26204L28.008 6.01789ZM25.6448 5.46451C25.4526 5.2733 25.1978 5.09461 24.9805 5.02203C24.8755 4.98693 24.7514 4.96722 24.6459 5.01648C24.5248 5.07308 24.4763 5.19459 24.4763 5.33166H24.7263C24.7263 5.24943 24.7513 5.24319 24.7517 5.24298C24.7679 5.23543 24.8136 5.22984 24.9013 5.25915C25.0697 5.3154 25.2925 5.46674 25.4685 5.64176L25.6448 5.46451ZM24.4763 5.33166C24.4763 5.38535 24.4481 5.43793 24.3671 5.48664C24.2837 5.53674 24.1575 5.5727 24.0033 5.58552C23.6944 5.61118 23.3186 5.5406 23.0521 5.37317L22.9191 5.58487C23.2397 5.78627 23.6718 5.86393 24.024 5.83466C24.2003 5.82001 24.368 5.77771 24.4958 5.70095C24.6259 5.62278 24.7263 5.49988 24.7263 5.33166H24.4763ZM23.0518 5.37301C22.7474 5.18278 22.3519 5.01436 21.9871 4.85972C21.6148 4.7019 21.2797 4.56038 21.0714 4.42045L20.932 4.62799C21.1651 4.78453 21.5275 4.93643 21.8896 5.0899C22.2591 5.24655 22.6349 5.40729 22.9193 5.58503L23.0518 5.37301ZM21.0704 4.41984C20.9453 4.33738 20.7597 4.24633 20.5563 4.15053C20.3494 4.05307 20.1201 3.94896 19.8954 3.83687L19.7838 4.06059C20.0119 4.17434 20.2471 4.28124 20.4498 4.3767C20.656 4.47383 20.8251 4.55761 20.9329 4.62861L21.0704 4.41984ZM19.8157 3.82604C19.6865 3.85125 19.4815 3.83715 19.2114 3.7954C18.9453 3.75427 18.6357 3.6899 18.3024 3.62494C17.6442 3.49667 16.8946 3.3658 16.2918 3.44014L16.3224 3.68826C16.8792 3.61959 17.5895 3.74071 18.2546 3.87033C18.5829 3.93431 18.9007 4.00035 19.1732 4.04247C19.4417 4.08397 19.6865 4.10595 19.8635 4.07142L19.8157 3.82604ZM16.2921 3.4401C15.6856 3.51358 14.4003 3.46894 13.0578 3.41966C11.7257 3.37077 10.3421 3.31766 9.56296 3.37942L9.58272 3.62864C10.3435 3.56833 11.708 3.62029 13.0486 3.66949C14.3787 3.71831 15.6907 3.76479 16.3222 3.68829L16.2921 3.4401ZM9.5631 3.37941C8.81986 3.43753 8.43607 3.28543 8.13422 3.12224C7.83138 2.95851 7.56007 2.74512 7.09689 2.74512V2.99512C7.47909 2.99512 7.67627 3.15885 8.01532 3.34216C8.35536 3.526 8.78686 3.69087 9.58259 3.62865L9.5631 3.37941ZM7.09689 2.74512C6.85578 2.74512 6.68916 2.82004 6.56118 2.93919C6.44242 3.04976 6.35927 3.19898 6.28268 3.31894C6.20192 3.44543 6.11885 3.55827 5.99186 3.64377C5.86641 3.72822 5.68704 3.79307 5.40383 3.80023L5.41015 4.05015C5.73066 4.04205 5.95882 3.96738 6.13147 3.85115C6.30258 3.73596 6.40818 3.58694 6.49339 3.45348C6.58278 3.31348 6.64293 3.20466 6.73153 3.12217C6.81092 3.04826 6.91574 2.99512 7.09689 2.99512V2.74512ZM5.40374 3.80023C4.79041 3.81616 4.37275 4.01723 4.27846 4.3853C4.2325 4.5647 4.27337 4.75807 4.3763 4.94547C4.47928 5.13297 4.64832 5.32258 4.87543 5.50354L5.03122 5.30801C4.82168 5.14105 4.67806 4.97556 4.59543 4.82512C4.51275 4.67458 4.49506 4.54719 4.52064 4.44734C4.56942 4.25692 4.81525 4.0656 5.41023 4.05015L5.40374 3.80023ZM4.87556 5.50364C5.08673 5.67145 5.1892 5.93884 5.22612 6.27776C5.26305 6.61671 5.23207 7.00397 5.19701 7.3886L5.44597 7.41129C5.4807 7.03034 5.51472 6.61845 5.47465 6.25068C5.43458 5.88287 5.31808 5.53597 5.03109 5.30791L4.87556 5.50364ZM5.33704 7.52397C5.59641 7.49146 5.82215 7.41707 5.96159 7.24736L5.76843 7.08865C5.69151 7.18227 5.54735 7.24565 5.30594 7.27592L5.33704 7.52397ZM5.96094 7.24815C6.13573 7.03894 6.28064 6.98896 6.35308 6.99843C6.38389 7.00245 6.40955 7.01731 6.43071 7.04996C6.45385 7.08567 6.47373 7.14715 6.47373 7.24212H6.72373C6.72373 7.11561 6.6977 7.00226 6.64052 6.91402C6.58135 6.82271 6.49229 6.76449 6.38547 6.75054C6.18266 6.72403 5.96072 6.85848 5.76909 7.08786L5.96094 7.24815ZM6.47373 7.24212C6.47373 7.40071 6.55105 7.51371 6.66873 7.58256C6.77664 7.64571 6.91486 7.67034 7.04891 7.67994C7.18567 7.68974 7.3346 7.68473 7.47286 7.6778C7.61455 7.6707 7.74186 7.66184 7.84805 7.66184V7.41184C7.73351 7.41184 7.5943 7.4214 7.46035 7.42812C7.32298 7.435 7.18716 7.43921 7.06678 7.43058C6.94367 7.42176 6.85234 7.40035 6.79498 7.36679C6.74739 7.33894 6.72373 7.30457 6.72373 7.24212H6.47373ZM7.84805 7.66184C7.93876 7.66184 7.9926 7.68031 8.03084 7.69987C8.05147 7.71042 8.06984 7.72246 8.09075 7.73685C8.10955 7.74978 8.1362 7.76886 8.1635 7.78406C8.22954 7.82081 8.30622 7.83939 8.40666 7.81297C8.49513 7.78969 8.59785 7.73248 8.7294 7.63859L8.58418 7.4351C8.45793 7.52519 8.38573 7.55997 8.34306 7.57119C8.31236 7.57927 8.30169 7.57485 8.28506 7.5656C8.27104 7.5578 8.25752 7.54813 8.23245 7.53088C8.20949 7.51509 8.18027 7.4955 8.14471 7.47731C8.07057 7.43938 7.97762 7.41184 7.84805 7.41184V7.66184ZM8.72976 7.63833C8.95811 7.47415 9.23575 7.42628 9.45105 7.46618C9.67204 7.50713 9.78111 7.6242 9.78111 7.75658H10.0311C10.0311 7.44862 9.77202 7.2714 9.4966 7.22036C9.21548 7.16827 8.86846 7.2307 8.58382 7.43535L8.72976 7.63833ZM9.78111 7.75658C9.78111 7.93386 9.8981 8.03608 10.0099 8.09603C10.1143 8.15203 10.2551 8.19153 10.3405 8.22261C10.3889 8.24023 10.4235 8.25578 10.4468 8.27105C10.4698 8.28619 10.4691 8.2928 10.4676 8.28806C10.4657 8.28171 10.4722 8.28902 10.4551 8.32244C10.4375 8.35701 10.4007 8.40726 10.3315 8.4766L10.5085 8.65316C10.5861 8.57536 10.6433 8.50376 10.6778 8.43601C10.713 8.36712 10.7297 8.29166 10.7071 8.21635C10.6851 8.14264 10.6327 8.09409 10.5841 8.06212C10.5356 8.03029 10.4785 8.00679 10.426 7.98768C10.3095 7.9453 10.2117 7.9206 10.128 7.87572C10.0518 7.8348 10.0311 7.79946 10.0311 7.75658H9.78111ZM10.3317 8.47641C10.0499 8.75759 9.73528 8.93178 9.4698 9.10209C9.34064 9.18494 9.21808 9.27028 9.12801 9.36787C9.03508 9.46854 8.97062 9.58892 8.97062 9.73854H9.22062C9.22062 9.66886 9.2482 9.60624 9.31172 9.53743C9.37808 9.46553 9.47636 9.3949 9.60478 9.31251C9.85447 9.15234 10.202 8.95901 10.5083 8.65336L10.3317 8.47641ZM8.97062 9.73854C8.97062 9.87278 9.01949 10.0342 9.07263 10.1911C9.12856 10.3563 9.19256 10.5252 9.24197 10.7001C9.34255 11.056 9.3576 11.3559 9.15398 11.5587L9.33041 11.7358C9.64239 11.4251 9.58415 10.9916 9.48255 10.6321C9.43086 10.4492 9.36155 10.2649 9.30943 10.111C9.25452 9.94882 9.22062 9.82535 9.22062 9.73854H8.97062ZM9.15353 11.5591C8.8488 11.8658 8.90034 12.2786 8.93622 12.555C8.94571 12.6281 8.95434 12.691 8.95867 12.7476C8.96304 12.8047 8.96205 12.8453 8.95635 12.8737C8.95102 12.9002 8.94378 12.9058 8.94235 12.9069C8.93979 12.9089 8.92495 12.9191 8.87752 12.9191V13.1691C8.95832 13.1691 9.03506 13.1519 9.09658 13.1036C9.15923 13.0545 9.18855 12.9872 9.20145 12.923C9.21397 12.8607 9.21286 12.7928 9.20794 12.7285C9.20297 12.6636 9.19314 12.5922 9.18414 12.5229C9.14608 12.2297 9.12347 11.9441 9.33085 11.7354L9.15353 11.5591ZM8.87752 12.9191C8.74054 12.9191 8.59663 12.9336 8.46634 12.9663C8.33823 12.9984 8.21167 13.051 8.12077 13.1355C8.02388 13.2255 7.97072 13.35 7.99907 13.5C8.0254 13.6392 8.11924 13.7849 8.27354 13.9391L8.45027 13.7623C8.31057 13.6227 8.2574 13.5206 8.24472 13.4535C8.23405 13.3971 8.24988 13.3568 8.29094 13.3186C8.33799 13.2749 8.41836 13.236 8.52714 13.2088C8.63374 13.182 8.75669 13.1691 8.87752 13.1691V12.9191ZM8.27348 13.939C8.56942 14.2353 8.81658 14.5017 8.93661 14.6904C8.96606 14.7366 8.98505 14.774 8.99544 14.8027C9.00641 14.833 9.00389 14.843 9.0045 14.8399C9.00506 14.837 9.00685 14.8318 9.01093 14.8265C9.01488 14.8213 9.01832 14.8196 9.01773 14.8199C9.01433 14.8217 8.99626 14.8287 8.9508 14.8287V15.0787C9.01527 15.0787 9.07964 15.0698 9.13405 15.0412C9.19444 15.0094 9.23622 14.9564 9.2497 14.8887C9.26172 14.8282 9.24883 14.7682 9.23051 14.7176C9.21161 14.6654 9.18238 14.6109 9.14754 14.5562C9.01043 14.3407 8.74329 14.0556 8.45034 13.7624L8.27348 13.939ZM8.9508 14.8287C8.79653 14.8287 8.66546 14.9059 8.56476 15.0065C8.4639 15.1072 8.38447 15.2397 8.32937 15.3749C8.2742 15.5102 8.2403 15.6558 8.23635 15.7868C8.2326 15.9116 8.25548 16.0521 8.3477 16.1443L8.52443 15.9675C8.50629 15.9493 8.48315 15.8969 8.48624 15.7944C8.48914 15.6981 8.51494 15.5819 8.56087 15.4693C8.60685 15.3565 8.6699 15.2548 8.74143 15.1834C8.81312 15.1118 8.88435 15.0787 8.9508 15.0787V14.8287ZM8.34788 16.1445C8.40843 16.2048 8.52334 16.2948 8.632 16.3848C8.74656 16.4798 8.86368 16.5821 8.94836 16.6794C8.99067 16.7279 9.02117 16.7711 9.03935 16.8077C9.05795 16.8451 9.05848 16.865 9.0573 16.8725C9.05694 16.8748 9.05608 16.8853 9.03078 16.9021C9.00211 16.9212 8.9487 16.9433 8.85619 16.96L8.90058 17.2061C9.10701 17.1688 9.27668 17.0856 9.30423 16.9116C9.31665 16.8331 9.29408 16.7584 9.26319 16.6963C9.23188 16.6334 9.18651 16.5721 9.13689 16.5152C9.03771 16.4013 8.90672 16.2878 8.79156 16.1924C8.6705 16.092 8.57406 16.0169 8.52425 15.9673L8.34788 16.1445ZM8.856 16.9601C8.4114 17.041 8.17316 17.2695 8.05489 17.5485C7.94213 17.8145 7.94377 18.1161 7.94377 18.3326H8.19377C8.19377 18.107 8.19542 17.8575 8.28506 17.6461C8.36919 17.4476 8.53576 17.2725 8.90077 17.206L8.856 16.9601ZM7.94377 18.3326C7.94377 18.4428 7.98625 18.5661 8.04176 18.6844C8.09875 18.8059 8.17647 18.9364 8.26097 19.0648L8.46983 18.9274C8.38857 18.8039 8.31797 18.6846 8.26809 18.5782C8.21673 18.4688 8.19377 18.3863 8.19377 18.3326H7.94377ZM8.38714 19.1192C8.75307 19.0546 9.0923 19.0479 9.39885 19.1906L9.5043 18.9639C9.12861 18.7891 8.72801 18.8051 8.34365 18.873L8.38714 19.1192ZM9.39904 19.1907C9.57965 19.2743 9.753 19.4563 9.93366 19.7037C10.1146 19.9515 10.2839 20.2364 10.4745 20.523C10.6606 20.8027 10.8634 21.0777 11.0976 21.2735C11.3348 21.4717 11.6126 21.5955 11.942 21.5547L11.9113 21.3066C11.6706 21.3364 11.4597 21.2503 11.2579 21.0817C11.0533 20.9106 10.8671 20.6618 10.6826 20.3845C10.5026 20.1139 10.3198 19.8085 10.1356 19.5563C9.95104 19.3036 9.7462 19.0759 9.5041 18.9638L9.39904 19.1907ZM11.9423 21.5547C12.0788 21.5375 12.1831 21.4968 12.2582 21.4262C12.3335 21.3554 12.3639 21.2689 12.3814 21.1949C12.3899 21.1587 12.3964 21.1207 12.4021 21.0886C12.4082 21.0548 12.414 21.0247 12.4219 20.9959C12.4372 20.9402 12.459 20.8935 12.4997 20.8524L12.322 20.6765C12.2419 20.7575 12.2033 20.8475 12.1808 20.93C12.1697 20.9703 12.1623 21.0098 12.1561 21.0443C12.1496 21.0804 12.1446 21.1096 12.1381 21.1375C12.1252 21.1919 12.1101 21.2223 12.087 21.244C12.0637 21.2659 12.0166 21.2933 11.911 21.3066L11.9423 21.5547ZM12.4987 20.8534C12.5775 20.7755 12.6988 20.755 12.8996 20.7704C12.9981 20.7779 13.1018 20.7925 13.2199 20.8063C13.3355 20.8198 13.4602 20.8319 13.5886 20.8319V20.5819C13.475 20.5819 13.3618 20.5712 13.249 20.558C13.1388 20.5452 13.0238 20.5292 12.9187 20.5211C12.7122 20.5053 12.4868 20.5136 12.323 20.6756L12.4987 20.8534ZM13.5886 20.8319C13.7414 20.8319 13.8699 20.776 13.9877 20.7047C14.0463 20.6692 14.1046 20.6284 14.1626 20.587C14.2216 20.545 14.2804 20.5023 14.3446 20.4592C14.5951 20.2908 14.9196 20.1209 15.4623 20.1073L15.456 19.8574C14.8532 19.8725 14.4832 20.0649 14.2052 20.2517C14.1373 20.2973 14.0744 20.3429 14.0175 20.3834C13.9597 20.4247 13.9081 20.4606 13.8582 20.4908C13.7592 20.5508 13.6767 20.5819 13.5886 20.5819V20.8319ZM15.4624 20.1073C16.0388 20.0924 16.5096 20.0615 16.9237 20.0386C17.3387 20.0156 17.6955 20.0007 18.0508 20.0165L18.0619 19.7668C17.6931 19.7503 17.3254 19.7659 16.9098 19.789C16.4933 19.812 16.0276 19.8426 15.4559 19.8574L15.4624 20.1073ZM18.0512 20.0165C18.7955 20.047 19.4456 19.8003 19.6531 19.2084L19.4172 19.1257C19.2652 19.5592 18.7672 19.7956 18.0615 19.7667L18.0512 20.0165ZM19.653 19.2086C19.8133 18.7535 20.3687 18.322 21.1544 18.2051L21.1176 17.9578C20.2737 18.0833 19.6181 18.5552 19.4172 19.1255L19.653 19.2086ZM21.1544 18.2051C21.3808 18.1714 21.5518 18.0855 21.6774 17.9604C21.8018 17.8366 21.8735 17.6827 21.9167 17.5261C21.9598 17.3701 21.9764 17.2052 21.9863 17.0544C21.9966 16.8978 21.9996 16.7651 22.0139 16.6493L21.7658 16.6187C21.7504 16.7435 21.7461 16.8969 21.7369 17.038C21.7272 17.1847 21.7118 17.3289 21.6758 17.4595C21.6399 17.5894 21.5851 17.6995 21.501 17.7833C21.4182 17.8657 21.2987 17.9309 21.1176 17.9578L21.1544 18.2051ZM22.0138 16.6496C22.0182 16.6147 22.0359 16.5685 22.0735 16.5102C22.1107 16.4527 22.1632 16.3898 22.2286 16.3222C22.3599 16.1868 22.5326 16.0439 22.7121 15.9003C22.8887 15.7589 23.0734 15.6157 23.2178 15.4863C23.2903 15.4213 23.356 15.3567 23.4075 15.2946C23.4572 15.2345 23.5026 15.1662 23.5205 15.0935L23.2778 15.0337C23.2734 15.0513 23.2568 15.0845 23.2149 15.1352C23.1748 15.1837 23.1193 15.2388 23.0509 15.3001C22.9134 15.4234 22.7378 15.5595 22.5559 15.7051C22.3768 15.8484 22.1927 16.0002 22.0492 16.1482C21.9772 16.2224 21.9128 16.2984 21.8636 16.3746C21.8148 16.45 21.7767 16.5323 21.7658 16.6183L22.0138 16.6496ZM23.5203 15.0941C23.5387 15.0214 23.5305 14.9376 23.5162 14.8592C23.5014 14.7776 23.4763 14.6836 23.448 14.5833C23.3904 14.3795 23.3168 14.1402 23.2651 13.8733C23.1621 13.3415 23.1509 12.7239 23.5331 12.1442L23.3244 12.0066C22.8909 12.6642 22.9108 13.3589 23.0197 13.9209C23.074 14.201 23.1517 14.454 23.2074 14.6513C23.2357 14.7515 23.2578 14.8352 23.2702 14.9039C23.2833 14.9758 23.2825 15.0149 23.2779 15.0331L23.5203 15.0941ZM23.5331 12.1442C23.9292 11.5435 24.338 11.2299 24.6585 10.9739C24.9724 10.7232 25.2454 10.4994 25.2454 10.0838H24.9954C24.9954 10.3632 24.8305 10.5166 24.5025 10.7786C24.1811 11.0353 23.7441 11.37 23.3244 12.0066L23.5331 12.1442ZM25.2454 10.0838C25.2454 9.83746 25.4033 9.65239 25.7232 9.50693C26.0443 9.36093 26.4961 9.2721 27.0076 9.21042L26.9777 8.96221C26.4624 9.02435 25.978 9.11645 25.6197 9.27934C25.2603 9.44278 24.9954 9.69456 24.9954 10.0838H25.2454ZM27.007 9.21049C27.5511 9.14766 27.9113 8.93048 28.2401 8.69074C28.5709 8.44965 28.8552 8.19947 29.2756 8.02555L29.18 7.79454C28.7236 7.98335 28.4038 8.26202 28.0929 8.48873C27.78 8.71679 27.4611 8.90638 26.9783 8.96214L27.007 9.21049ZM29.2757 8.02549C29.664 7.86428 29.9413 7.63491 30.0973 7.31954C30.2522 7.00625 30.2784 6.62603 30.2016 6.17981L29.9552 6.22219C30.0268 6.63834 29.9963 6.95962 29.8731 7.20873C29.751 7.45578 29.5288 7.64974 29.1799 7.7946L29.2757 8.02549ZM30.3801 12.78C30.3577 12.6285 30.2974 12.5075 30.2001 12.4228C30.1038 12.339 29.9836 12.3014 29.8603 12.2927C29.6184 12.2755 29.3346 12.3665 29.0857 12.4915C28.8346 12.6176 28.5981 12.7888 28.4506 12.9543C28.3783 13.0353 28.3167 13.1268 28.2951 13.2201C28.2839 13.2688 28.2825 13.3229 28.3014 13.3763C28.3207 13.4309 28.3575 13.474 28.4045 13.5055L28.5436 13.2978C28.5351 13.2921 28.536 13.29 28.537 13.2928C28.5376 13.2946 28.5354 13.2906 28.5387 13.2763C28.5462 13.2438 28.575 13.1904 28.6371 13.1207C28.7584 12.9847 28.9668 12.831 29.1979 12.715C29.431 12.5979 29.6666 12.5296 29.8426 12.5421C29.9282 12.5481 29.9915 12.5726 30.036 12.6114C30.0794 12.6492 30.1172 12.7112 30.1328 12.8165L30.3801 12.78ZM28.4048 13.5057C28.8767 13.82 29.3975 13.9432 29.7954 13.8321C29.9974 13.7757 30.1688 13.6579 30.2766 13.4741C30.3838 13.2916 30.4206 13.0572 30.3801 12.7802L30.1327 12.8163C30.1673 13.0529 30.1322 13.2263 30.061 13.3476C29.9905 13.4677 29.877 13.5498 29.7281 13.5913C29.4241 13.6762 28.9787 13.5876 28.5433 13.2976L28.4048 13.5057Z" fill="#868686"/>
</g>
<defs>
<filter id="filter0_d_877_3396" x="0.259766" y="0.745117" width="34.1367" height="26.8174" filterUnits="userSpaceOnUse" color-interpolation-filters="sRGB">
<feFlood flood-opacity="0" result="BackgroundImageFix"/>
<feColorMatrix in="SourceAlpha" type="matrix" values="0 0 0 0 0 0 0 0 0 0 0 0 0 0 0 0 0 0 127 0" result="hardAlpha"/>
<feOffset dy="2"/>
<feGaussianBlur stdDeviation="2"/>
<feColorMatrix type="matrix" values="0 0 0 0 0 0 0 0 0 0 0 0 0 0 0 0 0 0 0.01 0"/>
<feBlend mode="normal" in2="BackgroundImageFix" result="effect1_dropShadow_877_3396"/>
<feBlend mode="normal" in="SourceGraphic" in2="effect1_dropShadow_877_3396" result="shape"/>
</filter>
</defs>
</svg>
