<svg width="18" height="19" viewBox="0 0 18 19" fill="none" xmlns="http://www.w3.org/2000/svg">
<g filter="url(#filter0_d_877_3559)">
<path fill-rule="evenodd" clip-rule="evenodd" d="M12.5101 9.2918C12.0555 8.88197 12.1026 8.16086 12.5101 7.88881C12.9175 7.61589 12.5554 7.25403 12.5554 6.80235C12.5554 6.34893 10.609 6.21378 10.2897 6.12397C9.97392 6.03328 10.5174 4.85614 10.0193 4.85614C9.52025 4.85614 9.33966 4.49515 9.33966 4.13241C9.33966 3.76968 8.5693 3.1811 8.61467 2.9544C8.62165 2.92388 8.64346 2.89249 8.67051 2.86284C8.39133 2.82099 8.17671 2.78611 8.09645 2.76954C7.76056 2.70327 7.22053 2.50098 7.22053 2.50098C7.22053 2.50098 5.96423 2.90644 5.0918 3.17239C5.15112 3.70341 5.29071 4.28152 5.62485 4.40708C6.27307 4.64948 6.0314 5.29735 6.27307 5.86761C6.51648 6.43526 6.43621 9.03021 6.1108 9.03021C5.97382 9.03021 5.65888 9.36766 5.35004 9.78794C5.79498 10.2326 6.48507 11.0436 6.95269 11.6199C6.9745 11.6138 6.99631 11.6016 7.01551 11.6016C7.42031 11.6016 8.90606 12.682 8.90606 12.682C8.90606 12.682 11.0069 12.2442 12.4237 12.0393C12.4438 11.8231 12.4891 11.5737 12.463 11.4211C12.4185 11.1491 12.736 10.6067 13.1426 10.6067C13.5509 10.6041 12.962 9.699 12.5101 9.2918Z" fill="white"/>
<path fill-rule="evenodd" clip-rule="evenodd" d="M12.5101 9.2918C12.0555 8.88197 12.1026 8.16086 12.5101 7.88881C12.9175 7.61589 12.5554 7.25403 12.5554 6.80235C12.5554 6.34893 10.609 6.21378 10.2897 6.12397C9.97392 6.03328 10.5174 4.85614 10.0193 4.85614C9.52025 4.85614 9.33966 4.49515 9.33966 4.13241C9.33966 3.76968 8.5693 3.1811 8.61467 2.9544C8.62165 2.92388 8.64346 2.89249 8.67051 2.86284C8.39133 2.82099 8.17671 2.78611 8.09645 2.76954C7.76056 2.70327 7.22053 2.50098 7.22053 2.50098C7.22053 2.50098 5.96423 2.90644 5.0918 3.17239C5.15112 3.70341 5.29071 4.28152 5.62485 4.40708C6.27307 4.64948 6.0314 5.29735 6.27307 5.86761C6.51648 6.43526 6.43621 9.03021 6.1108 9.03021C5.97382 9.03021 5.65888 9.36766 5.35004 9.78794C5.79498 10.2326 6.48507 11.0436 6.95269 11.6199C6.9745 11.6138 6.99631 11.6016 7.01551 11.6016C7.42031 11.6016 8.90606 12.682 8.90606 12.682C8.90606 12.682 11.0069 12.2442 12.4237 12.0393C12.4438 11.8231 12.4891 11.5737 12.463 11.4211C12.4185 11.1491 12.736 10.6067 13.1426 10.6067C13.5509 10.6041 12.962 9.699 12.5101 9.2918Z" stroke="#868686" stroke-width="0.25"/>
</g>
<defs>
<filter id="filter0_d_877_3559" x="0.955078" y="0.368164" width="16.4492" height="18.4473" filterUnits="userSpaceOnUse" color-interpolation-filters="sRGB">
<feFlood flood-opacity="0" result="BackgroundImageFix"/>
<feColorMatrix in="SourceAlpha" type="matrix" values="0 0 0 0 0 0 0 0 0 0 0 0 0 0 0 0 0 0 127 0" result="hardAlpha"/>
<feOffset dy="2"/>
<feGaussianBlur stdDeviation="2"/>
<feColorMatrix type="matrix" values="0 0 0 0 0 0 0 0 0 0 0 0 0 0 0 0 0 0 0.01 0"/>
<feBlend mode="normal" in2="BackgroundImageFix" result="effect1_dropShadow_877_3559"/>
<feBlend mode="normal" in="SourceGraphic" in2="effect1_dropShadow_877_3559" result="shape"/>
</filter>
</defs>
</svg>
