<svg width="16" height="14" viewBox="0 0 16 14" fill="none" xmlns="http://www.w3.org/2000/svg">
<g filter="url(#filter0_d_877_3318)">
<path fill-rule="evenodd" clip-rule="evenodd" d="M6.93168 6.14233C8.56225 5.59823 11.1883 6.59401 11.1883 5.32618C11.1883 4.06009 6.84008 2.70071 5.7539 3.06344C5.45815 3.16023 5.06904 3.10966 4.64155 2.99805C4.4976 4.04876 4.34144 5.59561 4.24023 6.96633C4.29258 6.99336 4.34493 7.02127 4.39553 7.04655C5.11964 7.40842 5.30024 6.68382 6.93168 6.14233Z" fill="white"/>
<path fill-rule="evenodd" clip-rule="evenodd" d="M6.93168 6.14233C8.56225 5.59823 11.1883 6.59401 11.1883 5.32618C11.1883 4.06009 6.84008 2.70071 5.7539 3.06344C5.45815 3.16023 5.06904 3.10966 4.64155 2.99805C4.4976 4.04876 4.34144 5.59561 4.24023 6.96633C4.29258 6.99336 4.34493 7.02127 4.39553 7.04655C5.11964 7.40842 5.30024 6.68382 6.93168 6.14233Z" stroke="#868686" stroke-width="0.25"/>
</g>
<defs>
<filter id="filter0_d_877_3318" x="0.109375" y="0.841797" width="15.2031" height="12.4268" filterUnits="userSpaceOnUse" color-interpolation-filters="sRGB">
<feFlood flood-opacity="0" result="BackgroundImageFix"/>
<feColorMatrix in="SourceAlpha" type="matrix" values="0 0 0 0 0 0 0 0 0 0 0 0 0 0 0 0 0 0 127 0" result="hardAlpha"/>
<feOffset dy="2"/>
<feGaussianBlur stdDeviation="2"/>
<feColorMatrix type="matrix" values="0 0 0 0 0 0 0 0 0 0 0 0 0 0 0 0 0 0 0.01 0"/>
<feBlend mode="normal" in2="BackgroundImageFix" result="effect1_dropShadow_877_3318"/>
<feBlend mode="normal" in="SourceGraphic" in2="effect1_dropShadow_877_3318" result="shape"/>
</filter>
</defs>
</svg>
