<svg width="18" height="14" viewBox="0 0 18 14" fill="none" xmlns="http://www.w3.org/2000/svg">
<g filter="url(#filter0_d_877_3296)">
<path fill-rule="evenodd" clip-rule="evenodd" d="M12.2812 4.73563C11.8747 4.91525 11.2404 4.37289 11.2404 4.1924C11.2404 4.06596 11.1566 3.61603 11.2421 3.33526C10.9054 3.16348 10.4229 2.92805 10.0626 2.8208C9.4589 2.63944 9.15791 2.63944 8.67458 2.8801C8.36661 3.03356 7.51687 2.99084 6.94194 2.94026C6.89134 3.11989 6.80933 3.24109 6.66538 3.24109C6.25795 3.24109 5.71443 3.64917 5.62457 4.10171C5.53471 4.55426 4.58289 4.91525 4.31069 5.7314C4.03936 6.54669 4.17633 6.90768 4.58376 6.40979C4.99118 5.9119 5.49021 6.09327 5.49021 6.50047C5.49021 6.90768 6.03374 6.95302 5.85227 7.49799C5.84965 7.5102 5.84965 7.5163 5.84616 7.52938C6.46559 7.47445 7.32668 7.40644 7.58841 7.40644C8.01066 7.40644 8.43379 6.07844 8.61439 5.95811C8.79498 5.83691 9.28005 6.92337 9.7625 7.34802C10.245 7.77004 10.306 6.98354 10.306 6.62255C10.306 6.25981 10.7292 6.13948 11.0301 6.20052C11.3311 6.25981 11.9968 6.38189 11.9968 5.95899C11.9968 5.53783 12.3597 5.71832 12.5988 5.71832C12.8413 5.71832 12.9024 5.23439 12.9024 5.23439L13.2985 4.86729C12.9757 4.70424 12.6005 4.5935 12.2812 4.73563Z" fill="white"/>
<path fill-rule="evenodd" clip-rule="evenodd" d="M12.2812 4.73563C11.8747 4.91525 11.2404 4.37289 11.2404 4.1924C11.2404 4.06596 11.1566 3.61603 11.2421 3.33526C10.9054 3.16348 10.4229 2.92805 10.0626 2.8208C9.4589 2.63944 9.15791 2.63944 8.67458 2.8801C8.36661 3.03356 7.51687 2.99084 6.94194 2.94026C6.89134 3.11989 6.80933 3.24109 6.66538 3.24109C6.25795 3.24109 5.71443 3.64917 5.62457 4.10171C5.53471 4.55426 4.58289 4.91525 4.31069 5.7314C4.03936 6.54669 4.17633 6.90768 4.58376 6.40979C4.99118 5.9119 5.49021 6.09327 5.49021 6.50047C5.49021 6.90768 6.03374 6.95302 5.85227 7.49799C5.84965 7.5102 5.84965 7.5163 5.84616 7.52938C6.46559 7.47445 7.32668 7.40644 7.58841 7.40644C8.01066 7.40644 8.43379 6.07844 8.61439 5.95811C8.79498 5.83691 9.28005 6.92337 9.7625 7.34802C10.245 7.77004 10.306 6.98354 10.306 6.62255C10.306 6.25981 10.7292 6.13948 11.0301 6.20052C11.3311 6.25981 11.9968 6.38189 11.9968 5.95899C11.9968 5.53783 12.3597 5.71832 12.5988 5.71832C12.8413 5.71832 12.9024 5.23439 12.9024 5.23439L13.2985 4.86729C12.9757 4.70424 12.6005 4.5935 12.2812 4.73563Z" stroke="#868686" stroke-width="0.25"/>
</g>
<defs>
<filter id="filter0_d_877_3296" x="0.0449219" y="0.566406" width="17.4707" height="13.1035" filterUnits="userSpaceOnUse" color-interpolation-filters="sRGB">
<feFlood flood-opacity="0" result="BackgroundImageFix"/>
<feColorMatrix in="SourceAlpha" type="matrix" values="0 0 0 0 0 0 0 0 0 0 0 0 0 0 0 0 0 0 127 0" result="hardAlpha"/>
<feOffset dy="2"/>
<feGaussianBlur stdDeviation="2"/>
<feColorMatrix type="matrix" values="0 0 0 0 0 0 0 0 0 0 0 0 0 0 0 0 0 0 0.01 0"/>
<feBlend mode="normal" in2="BackgroundImageFix" result="effect1_dropShadow_877_3296"/>
<feBlend mode="normal" in="SourceGraphic" in2="effect1_dropShadow_877_3296" result="shape"/>
</filter>
</defs>
</svg>
