<svg width="47" height="25" viewBox="0 0 47 25" fill="none" xmlns="http://www.w3.org/2000/svg">
<g filter="url(#filter0_d_877_3264)">
<path fill-rule="evenodd" clip-rule="evenodd" d="M41.8755 13.3777C41.5518 13.2975 42.0378 11.5257 41.8755 11.2022C41.7132 10.8804 41.311 9.51231 41.7952 9.51231C42.2332 9.51231 41.7507 8.5209 42.3274 8.46073C42.2044 8.11631 42.0709 7.80502 41.954 7.71085C41.6521 7.47106 40.7457 7.95238 40.3845 7.04816C40.0216 6.14219 40.3845 6.02099 39.8392 5.29813C39.2983 4.57441 39.0549 3.84981 38.3919 4.14976C38.083 4.28841 37.1993 4.28579 36.2579 4.21429C35.2782 5.10805 33.1285 5.72016 32.4733 5.47863C31.6576 5.1778 30.089 5.56931 28.9103 5.56931C27.7316 5.56931 27.3993 4.72439 26.4937 4.78455C25.589 4.84559 25.589 3.97014 24.6825 3.97014C23.7769 3.97014 24.4714 3.51585 21.6334 3.15486C18.7945 2.79125 16.349 4.27097 15.4435 5.05573C14.5379 5.84137 11.2767 5.0845 10.9758 5.29813C10.673 5.50741 11.0342 6.44302 9.94803 6.86592C8.86011 7.28795 6.47576 6.86592 5.66091 7.22953C4.84431 7.59052 4.5442 8.79818 5.23865 8.73801C5.93311 8.67611 6.29516 9.00919 6.08404 9.31002C5.87378 9.61172 6.65722 10.4558 6.26463 10.8194C5.87378 11.1812 5.84237 11.8745 6.32657 12.2363C6.80903 12.5982 6.89889 13.2652 6.32657 13.3533C5.75077 13.444 7.32201 14.1067 7.35168 14.4092C7.38221 14.7118 8.68126 14.8635 8.68126 15.2245C8.68126 15.5873 9.07211 15.7076 9.70811 15.528C10.3424 15.3466 10.584 16.222 10.9758 16.8246C11.3675 17.428 13.6009 17.0059 13.6009 16.3424C13.6009 15.6779 14.2657 15.4957 15.2611 15.5873C16.2592 15.6771 17.5582 17.0347 18.0407 17.2152C18.5223 17.3957 19.5203 16.8542 20.1546 16.8542C20.7888 16.8542 21.6927 15.8567 22.0565 15.6465C22.4185 15.4373 23.0528 16.3424 23.6277 16.0372C24.2 15.7381 24.8343 15.4033 25.1972 15.6169C25.5584 15.8279 24.3204 16.7618 24.6546 17.2457C24.7881 17.4428 24.7575 17.6861 24.7017 17.9389C25.9528 17.7672 25.8341 16.9004 25.91 16.522C25.9911 16.1192 26.3131 15.7163 26.717 16.0372C27.1192 16.3607 27.6837 16.44 28.5709 16.0372C29.4582 15.6352 29.5385 15.3928 29.8612 15.7965C30.184 16.1976 30.9082 15.8785 32.2011 15.8785C33.4914 15.8785 33.7331 14.9917 34.9423 15.0711C36.1532 15.1521 37.2001 14.7493 37.2001 14.7493L37.967 14.9795C38.2802 14.6918 38.2584 14.3674 38.8761 14.288C39.8419 14.1703 40.2057 14.8932 40.6881 14.6516C41.1706 14.4101 42.706 16.0555 42.8448 14.9926C42.9215 14.7493 42.1983 13.4588 41.8755 13.3777ZM7.86641 5.59722C8.58966 5.32691 10.2194 5.68877 10.6146 5.32691C11.0063 4.96505 9.5851 4.51076 9.07298 4.0896C8.77461 3.84283 8.67079 3.38418 8.56959 3.0293C8.33142 3.19061 8.01996 3.32228 7.74427 3.18276C7.20249 2.91158 5.88687 3.09208 5.66178 3.18276C5.43495 3.27345 5.84237 4.04251 5.84237 4.54127C5.84237 5.03829 5.25261 5.17606 5.25261 5.49171C5.25261 5.73673 5.03799 5.90415 4.77539 6.19277C5.17322 6.4901 5.55796 6.77611 5.9619 6.77611C6.8099 6.77611 7.14142 5.87014 7.86641 5.59722Z" fill="white"/>
<path d="M41.8755 13.3777L41.9059 13.2565L41.9056 13.2564L41.8755 13.3777ZM41.8755 11.2022L41.9872 11.1461L41.9871 11.1459L41.8755 11.2022ZM42.3274 8.46073L42.3404 8.58506L42.4986 8.56854L42.4451 8.41869L42.3274 8.46073ZM41.954 7.71085L42.0324 7.6135L42.0318 7.61297L41.954 7.71085ZM40.3845 7.04816L40.5006 7.00179L40.5005 7.00167L40.3845 7.04816ZM39.8392 5.29813L39.7391 5.37297L39.7394 5.37341L39.8392 5.29813ZM38.3919 4.14976L38.4431 4.2638L38.4434 4.26365L38.3919 4.14976ZM36.2579 4.21429L36.2674 4.08965L36.2135 4.08556L36.1737 4.12194L36.2579 4.21429ZM32.4733 5.47863L32.4301 5.59591L32.4301 5.59592L32.4733 5.47863ZM26.4937 4.78455L26.4854 4.65983L26.4853 4.65983L26.4937 4.78455ZM21.6334 3.15486L21.6175 3.27885L21.6176 3.27886L21.6334 3.15486ZM15.4435 5.05573L15.3616 4.96127L15.3616 4.96131L15.4435 5.05573ZM10.9758 5.29813L11.0468 5.40097L11.0481 5.40007L10.9758 5.29813ZM9.94803 6.86592L9.99324 6.98246L9.99338 6.9824L9.94803 6.86592ZM5.66091 7.22953L5.71145 7.34385L5.71184 7.34368L5.66091 7.22953ZM5.23865 8.73801L5.24944 8.86255L5.24975 8.86252L5.23865 8.73801ZM6.08404 9.31002L5.98172 9.23821L5.98148 9.23855L6.08404 9.31002ZM6.26463 10.8194L6.34955 10.9111L6.34957 10.9111L6.26463 10.8194ZM6.32657 12.2363L6.40157 12.1363L6.4014 12.1362L6.32657 12.2363ZM6.32657 13.3533L6.30756 13.2297L6.30712 13.2298L6.32657 13.3533ZM7.35168 14.4092L7.22727 14.4214L7.22731 14.4218L7.35168 14.4092ZM9.70811 15.528L9.74209 15.6483L9.74248 15.6481L9.70811 15.528ZM10.9758 16.8246L11.0806 16.7565L11.0806 16.7564L10.9758 16.8246ZM15.2611 15.5873L15.2497 15.7117L15.2499 15.7118L15.2611 15.5873ZM18.0407 17.2152L18.0846 17.0982L18.0845 17.0981L18.0407 17.2152ZM22.0565 15.6465L22.119 15.7548L22.119 15.7548L22.0565 15.6465ZM23.6277 16.0372L23.5698 15.9264L23.5691 15.9268L23.6277 16.0372ZM25.1972 15.6169L25.1338 15.7246L25.1342 15.7248L25.1972 15.6169ZM24.6546 17.2457L24.7581 17.1756L24.7574 17.1747L24.6546 17.2457ZM24.7017 17.9389L24.5796 17.912L24.541 18.0872L24.7187 18.0628L24.7017 17.9389ZM25.91 16.522L25.7875 16.4973L25.7875 16.4974L25.91 16.522ZM26.717 16.0372L26.7954 15.9398L26.7948 15.9393L26.717 16.0372ZM28.5709 16.0372L28.5193 15.9233L28.5192 15.9234L28.5709 16.0372ZM29.8612 15.7965L29.7636 15.8746L29.7639 15.8749L29.8612 15.7965ZM34.9423 15.0711L34.9506 14.9463L34.9505 14.9463L34.9423 15.0711ZM37.2001 14.7493L37.2361 14.6296L37.1951 14.6173L37.1552 14.6326L37.2001 14.7493ZM37.967 14.9795L37.9311 15.0992L37.9992 15.1197L38.0516 15.0715L37.967 14.9795ZM38.8761 14.288L38.8609 14.164L38.8601 14.1641L38.8761 14.288ZM42.8448 14.9926L42.7256 14.955L42.7222 14.9655L42.7208 14.9764L42.8448 14.9926ZM7.86641 5.59722L7.82265 5.48013L7.82237 5.48023L7.86641 5.59722ZM10.6146 5.32691L10.699 5.4191L10.6994 5.41873L10.6146 5.32691ZM9.07298 4.0896L8.99332 4.18592L8.99358 4.18614L9.07298 4.0896ZM8.56959 3.0293L8.6898 2.99502L8.64245 2.82898L8.49949 2.9258L8.56959 3.0293ZM7.74427 3.18276L7.80071 3.07123L7.80022 3.07098L7.74427 3.18276ZM5.66178 3.18276L5.70818 3.29883L5.70849 3.29871L5.66178 3.18276ZM4.77539 6.19277L4.68293 6.10864L4.59028 6.21047L4.70056 6.29289L4.77539 6.19277ZM41.9056 13.2564C41.9289 13.2622 41.9218 13.2789 41.9084 13.2367C41.8959 13.1975 41.8879 13.135 41.8867 13.0477C41.8844 12.875 41.9085 12.6441 41.939 12.3964C41.969 12.1529 42.005 11.8938 42.023 11.6776C42.032 11.5692 42.0369 11.4675 42.0337 11.3807C42.0307 11.2984 42.0203 11.2121 41.9872 11.1461L41.7638 11.2582C41.7712 11.2731 41.7811 11.313 41.7839 11.3898C41.7865 11.4621 41.7825 11.5525 41.7739 11.6569C41.7565 11.8665 41.7217 12.116 41.6909 12.3659C41.6606 12.6117 41.6341 12.8589 41.6368 13.0511C41.6381 13.1463 41.6465 13.2379 41.6701 13.3123C41.6927 13.3835 41.7411 13.4732 41.8454 13.499L41.9056 13.2564ZM41.9871 11.1459C41.9129 10.9988 41.7751 10.5893 41.7164 10.2171C41.6869 10.0299 41.6799 9.86715 41.703 9.75667C41.7145 9.70194 41.731 9.67158 41.7449 9.6564C41.7552 9.64528 41.768 9.63731 41.7952 9.63731V9.38731C41.7014 9.38731 41.6208 9.4221 41.561 9.48706C41.505 9.54796 41.4747 9.62698 41.4583 9.70554C41.4257 9.86164 41.4387 10.061 41.4695 10.2561C41.5314 10.6484 41.6758 11.0838 41.7639 11.2585L41.9871 11.1459ZM41.7952 9.63731C41.8753 9.63731 41.9476 9.61379 42.0044 9.56195C42.0585 9.51265 42.0867 9.44847 42.1027 9.38907C42.1331 9.27646 42.1314 9.12932 42.1343 9.01213C42.1374 8.88176 42.1455 8.77541 42.1778 8.69894C42.1926 8.66359 42.211 8.63928 42.233 8.62238C42.2547 8.6057 42.2875 8.59058 42.3404 8.58506L42.3144 8.33641C42.2232 8.34593 42.1448 8.37494 42.0809 8.424C42.0172 8.47284 41.9752 8.53585 41.9474 8.60191C41.8941 8.72825 41.8874 8.88103 41.8843 9.00604C41.881 9.14423 41.8817 9.2487 41.8614 9.32386C41.8521 9.35835 41.8416 9.37209 41.8359 9.37725C41.8331 9.37986 41.8246 9.38731 41.7952 9.38731V9.63731ZM42.4451 8.41869C42.3831 8.24491 42.3173 8.07637 42.2512 7.93807C42.2182 7.86891 42.1841 7.8053 42.1494 7.75149C42.1155 7.69906 42.0767 7.6492 42.0324 7.6135L41.8756 7.80819C41.8897 7.81957 41.9115 7.84394 41.9394 7.88713C41.9664 7.92893 41.9953 7.98233 42.0256 8.04582C42.0863 8.17281 42.1487 8.33213 42.2097 8.50277L42.4451 8.41869ZM42.0318 7.61297C41.9199 7.52413 41.7664 7.51102 41.6348 7.50832C41.4852 7.50526 41.3536 7.5152 41.2006 7.504C41.056 7.4934 40.9216 7.46407 40.8048 7.39277C40.6902 7.32279 40.5822 7.20603 40.5006 7.00179L40.2684 7.09453C40.3674 7.34239 40.5081 7.50455 40.6745 7.60614C40.8387 7.70639 41.0175 7.74125 41.1824 7.75333C41.3389 7.7648 41.5131 7.75588 41.6297 7.75827C41.7642 7.76102 41.8372 7.77767 41.8763 7.80872L42.0318 7.61297ZM40.5005 7.00167C40.3268 6.56799 40.3277 6.3292 40.3047 6.09236C40.2928 5.97025 40.2742 5.84664 40.2203 5.70473C40.1667 5.56361 40.0803 5.41015 39.939 5.22286L39.7394 5.37341C39.8708 5.54754 39.9436 5.68031 39.9866 5.79353C40.0293 5.90595 40.0449 6.0048 40.0558 6.1166C40.0783 6.34757 40.0793 6.62236 40.2685 7.09464L40.5005 7.00167ZM39.9394 5.2233C39.8068 5.046 39.6927 4.86891 39.5824 4.7022C39.4736 4.5379 39.367 4.38129 39.2541 4.25631C39.1411 4.13112 39.013 4.02741 38.8573 3.98107C38.698 3.93366 38.5272 3.95133 38.3403 4.03588L38.4434 4.26365C38.588 4.19822 38.6963 4.19399 38.786 4.22069C38.8793 4.24846 38.9702 4.3149 39.0686 4.42383C39.1671 4.53297 39.2642 4.67447 39.3739 4.8402C39.482 5.00353 39.6012 5.18841 39.7391 5.37297L39.9394 5.2233ZM38.3407 4.03573C38.2804 4.06277 38.1819 4.08675 38.0446 4.10441C37.9095 4.12178 37.7455 4.13204 37.5595 4.13586C37.1877 4.14348 36.7357 4.12522 36.2674 4.08965L36.2484 4.33893C36.7214 4.37486 37.182 4.39365 37.5646 4.3858C37.7559 4.38188 37.9295 4.37127 38.0765 4.35237C38.2212 4.33376 38.3489 4.30608 38.4431 4.2638L38.3407 4.03573ZM36.1737 4.12194C35.7027 4.5516 34.9396 4.92112 34.2062 5.15301C33.841 5.26848 33.488 5.3483 33.1883 5.38456C32.8834 5.42146 32.6511 5.41096 32.5165 5.36135L32.4301 5.59592C32.6231 5.66706 32.9052 5.67063 33.2183 5.63275C33.5365 5.59425 33.905 5.51046 34.2816 5.39138C35.0318 5.15415 35.8334 4.77073 36.3422 4.30664L36.1737 4.12194ZM32.5166 5.36135C32.2939 5.27922 32.027 5.24664 31.7407 5.24091C31.4533 5.23517 31.1384 5.25644 30.8162 5.28671C30.1655 5.34785 29.4918 5.44431 28.9103 5.44431V5.69431C29.5074 5.69431 30.2074 5.59502 30.8396 5.53561C31.1589 5.50561 31.4627 5.48541 31.7357 5.49086C32.0097 5.49634 32.2449 5.52762 32.4301 5.59591L32.5166 5.36135ZM28.9103 5.44431C28.3561 5.44431 28.0027 5.24806 27.6633 5.04685C27.325 4.84626 26.9827 4.62678 26.4854 4.65983L26.502 4.90928C26.9102 4.88215 27.1869 5.05506 27.5358 5.2619C27.8837 5.46811 28.2858 5.69431 28.9103 5.69431V5.44431ZM26.4853 4.65983C26.2813 4.6736 26.1346 4.63474 26.0141 4.57214C25.8899 4.50759 25.7883 4.41545 25.674 4.30884C25.4469 4.0969 25.1885 3.84514 24.6825 3.84514V4.09514C25.083 4.09514 25.2778 4.28111 25.5035 4.49163C25.6156 4.59625 25.7402 4.71153 25.8988 4.79396C26.0612 4.87834 26.2537 4.92602 26.5021 4.90927L26.4853 4.65983ZM24.6825 3.84514C24.4674 3.84514 24.3601 3.81827 24.2747 3.77963C24.2294 3.75917 24.1871 3.73396 24.1337 3.70099C24.0813 3.66861 24.0194 3.62962 23.9419 3.58785C23.6278 3.41846 23.0742 3.21212 21.6491 3.03086L21.6176 3.27886C23.0306 3.45859 23.5488 3.65989 23.8233 3.8079C23.893 3.84548 23.9481 3.88019 24.0024 3.91374C24.0558 3.9467 24.1102 3.97964 24.1716 4.0074C24.2994 4.06522 24.4448 4.09514 24.6825 4.09514V3.84514ZM21.6492 3.03087C18.7619 2.66106 16.2821 4.16358 15.3616 4.96127L15.5253 5.1502C16.416 4.37835 18.827 2.92144 21.6175 3.27885L21.6492 3.03087ZM15.3616 4.96131C15.1662 5.13075 14.8266 5.2282 14.3935 5.2706C13.966 5.31245 13.4722 5.29873 12.9912 5.26671C12.5074 5.23451 12.0522 5.18517 11.6833 5.156C11.5017 5.14165 11.3414 5.13227 11.2157 5.13361C11.1529 5.13429 11.0953 5.13764 11.0462 5.14535C11.0009 5.15246 10.9466 5.16551 10.9034 5.1962L11.0481 5.40007C11.0425 5.40406 11.049 5.39798 11.085 5.39232C11.1172 5.38727 11.1614 5.38421 11.2183 5.3836C11.3321 5.38238 11.483 5.39094 11.6636 5.40523C12.0192 5.43334 12.4923 5.48405 12.9746 5.51616C13.4597 5.54845 13.9698 5.56328 14.4179 5.51941C14.8603 5.47609 15.2679 5.37353 15.5254 5.15015L15.3616 4.96131ZM10.9047 5.19531C10.7841 5.27869 10.7432 5.42414 10.7178 5.54652C10.6885 5.68774 10.6761 5.81498 10.6349 5.96975C10.5962 6.11511 10.5365 6.26019 10.4277 6.39262C10.3193 6.52456 10.1567 6.65052 9.90268 6.74944L9.99338 6.9824C10.2824 6.86986 10.482 6.72028 10.6209 6.55132C10.7593 6.38284 10.8319 6.20165 10.8765 6.03408C10.9186 5.87592 10.9405 5.7036 10.9626 5.59732C10.9886 5.47219 11.0161 5.42221 11.0468 5.40096L10.9047 5.19531ZM9.90282 6.74938C9.64889 6.84788 9.31118 6.89969 8.92563 6.92491C8.54166 6.95003 8.12061 6.94829 7.70316 6.94463C7.28785 6.941 6.87493 6.93543 6.51516 6.95383C6.159 6.97204 5.83665 7.01422 5.60997 7.11537L5.71184 7.34368C5.89259 7.26302 6.17386 7.22161 6.52793 7.2035C6.8784 7.18558 7.28234 7.19096 7.70097 7.19462C8.11746 7.19827 8.5474 7.20019 8.94195 7.17438C9.33491 7.14867 9.7032 7.09497 9.99324 6.98246L9.90282 6.74938ZM5.61037 7.1152C5.16308 7.31293 4.86109 7.73823 4.76233 8.10958C4.71333 8.29384 4.70882 8.48619 4.78566 8.63562C4.8253 8.71272 4.88605 8.77662 4.96859 8.81736C5.05013 8.85761 5.1453 8.87157 5.24944 8.86255L5.22786 8.61348C5.15839 8.6195 5.11103 8.60888 5.07925 8.59319C5.04847 8.578 5.02511 8.5546 5.00799 8.5213C4.97129 8.44993 4.96265 8.32908 5.00394 8.17383C5.08577 7.86613 5.34214 7.50711 5.71145 7.34385L5.61037 7.1152ZM5.24975 8.86252C5.57942 8.83313 5.80857 8.90002 5.92596 8.98801C5.98355 9.03117 6.00886 9.07479 6.01629 9.1105C6.02332 9.14423 6.01782 9.18678 5.98172 9.23821L6.18635 9.38183C6.25582 9.28285 6.28424 9.17095 6.26105 9.05955C6.23827 8.95014 6.16926 8.85794 6.07591 8.78797C5.89144 8.64969 5.59234 8.58099 5.22755 8.61351L5.24975 8.86252ZM5.98148 9.23855C5.89244 9.36632 5.92086 9.52924 5.95892 9.65756C5.99905 9.79281 6.06969 9.94888 6.12704 10.0889C6.18736 10.2361 6.23541 10.3706 6.24823 10.4863C6.26061 10.5981 6.2386 10.6731 6.17969 10.7277L6.34957 10.9111C6.48695 10.7838 6.51424 10.617 6.49671 10.4588C6.47962 10.3046 6.41857 10.141 6.35838 9.9941C6.29522 9.83991 6.23397 9.70567 6.1986 9.58645C6.16117 9.46029 6.1705 9.40457 6.18659 9.38149L5.98148 9.23855ZM6.17971 10.7277C5.73894 11.1357 5.69716 11.922 6.25174 12.3364L6.4014 12.1362C5.98758 11.8269 6.00862 11.2268 6.34955 10.9111L6.17971 10.7277ZM6.25157 12.3363C6.46949 12.4998 6.58827 12.7252 6.59727 12.9038C6.60167 12.9911 6.58004 13.0622 6.53829 13.1144C6.49703 13.1659 6.42607 13.2115 6.30756 13.2297L6.34558 13.4768C6.51324 13.451 6.64565 13.3803 6.73344 13.2706C6.82072 13.1616 6.85378 13.0268 6.84695 12.8912C6.83348 12.6238 6.66611 12.3347 6.40157 12.1363L6.25157 12.3363ZM6.30712 13.2298C6.26463 13.2365 6.22338 13.247 6.18763 13.2646C6.15175 13.2823 6.11163 13.3122 6.08972 13.3618C6.06704 13.4132 6.07358 13.4636 6.08742 13.5014C6.10063 13.5375 6.12253 13.5689 6.1439 13.5943C6.18676 13.6454 6.24867 13.6975 6.31484 13.7473C6.38247 13.7983 6.46147 13.852 6.54308 13.906C6.7092 14.016 6.88458 14.1263 7.02336 14.2296C7.09249 14.2811 7.14734 14.3271 7.18467 14.3666C7.22671 14.4111 7.22793 14.4281 7.22727 14.4214L7.47608 14.397C7.46801 14.3147 7.41364 14.2449 7.36633 14.1948C7.3143 14.1398 7.24603 14.0837 7.17267 14.0291C7.02649 13.9202 6.83949 13.8024 6.68107 13.6976C6.60041 13.6442 6.5266 13.5938 6.46528 13.5476C6.40251 13.5003 6.35934 13.4622 6.33541 13.4336C6.32339 13.4193 6.32145 13.4135 6.3222 13.4155C6.32359 13.4193 6.32905 13.4387 6.31845 13.4628C6.30862 13.485 6.29376 13.491 6.29811 13.4889C6.30258 13.4867 6.31654 13.4814 6.34602 13.4768L6.30712 13.2298ZM7.22731 14.4218C7.23567 14.5046 7.28565 14.5668 7.33502 14.6102C7.38542 14.6545 7.44984 14.6924 7.51685 14.7255C7.65056 14.7917 7.82411 14.8532 7.98476 14.9123C8.15076 14.9734 8.30417 15.0323 8.41589 15.096C8.4716 15.1277 8.50974 15.1568 8.53273 15.1822C8.55489 15.2066 8.55626 15.2199 8.55626 15.2245H8.80626C8.80626 15.1389 8.76703 15.0684 8.71803 15.0143C8.66987 14.9612 8.60628 14.9167 8.53973 14.8788C8.40692 14.8031 8.23366 14.7375 8.07108 14.6777C7.90315 14.6159 7.74621 14.5601 7.62776 14.5015C7.56869 14.4722 7.52661 14.4458 7.50013 14.4225C7.47261 14.3983 7.47532 14.3895 7.47605 14.3967L7.22731 14.4218ZM8.55626 15.2245C8.55626 15.3385 8.58739 15.4424 8.65385 15.5273C8.7198 15.6115 8.81289 15.6673 8.92039 15.6994C9.13099 15.7623 9.41505 15.7406 9.74208 15.6483L9.67414 15.4077C9.36517 15.4949 9.1358 15.5029 8.99198 15.4599C8.92226 15.439 8.87789 15.4079 8.85068 15.3732C8.82398 15.3391 8.80626 15.2919 8.80626 15.2245H8.55626ZM9.74248 15.6481C9.86943 15.6118 9.96909 15.6289 10.0577 15.6784C10.1515 15.7309 10.2403 15.8242 10.3302 15.9536C10.4197 16.0824 10.5032 16.2363 10.5914 16.4012C10.6782 16.5636 10.7695 16.7366 10.871 16.8927L11.0806 16.7564C10.9862 16.6112 10.9003 16.4489 10.8119 16.2833C10.7247 16.1204 10.6347 15.9537 10.5355 15.811C10.4368 15.6689 10.3218 15.5397 10.1797 15.4602C10.0323 15.3778 9.86392 15.3534 9.67374 15.4078L9.74248 15.6481ZM10.8709 16.8926C11.0003 17.0919 11.2623 17.185 11.5348 17.221C11.8155 17.2581 12.145 17.2397 12.4581 17.1815C12.7708 17.1233 13.0767 17.0234 13.3079 16.891C13.5295 16.764 13.7259 16.5811 13.7259 16.3424H13.4759C13.4759 16.4354 13.3931 16.5541 13.1837 16.674C12.9839 16.7885 12.7069 16.8809 12.4123 16.9357C12.1181 16.9904 11.8159 17.006 11.5676 16.9732C11.3111 16.9393 11.1471 16.8589 11.0806 16.7565L10.8709 16.8926ZM13.7259 16.3424C13.7259 16.198 13.7616 16.0885 13.8221 16.0038C13.883 15.9185 13.9756 15.8492 14.1045 15.7972C14.3667 15.6915 14.7573 15.6664 15.2497 15.7117L15.2726 15.4628C14.7696 15.4165 14.33 15.4368 14.011 15.5654C13.8492 15.6306 13.7134 15.7257 13.6186 15.8586C13.5232 15.9921 13.4759 16.1546 13.4759 16.3424H13.7259ZM15.2499 15.7118C15.4758 15.7321 15.7272 15.8254 15.9902 15.9646C16.252 16.1032 16.5174 16.2829 16.7704 16.4681C17.0258 16.655 17.2581 16.8396 17.4682 16.9973C17.6698 17.1486 17.8562 17.2796 17.9969 17.3323L18.0845 17.0981C17.984 17.0605 17.8271 16.9541 17.6182 16.7974C17.4179 16.6469 17.1726 16.4526 16.9181 16.2664C16.6613 16.0784 16.3846 15.8905 16.1071 15.7436C15.8308 15.5974 15.5455 15.4873 15.2723 15.4628L15.2499 15.7118ZM17.9968 17.3323C18.1471 17.3886 18.3252 17.385 18.5033 17.3586C18.6836 17.3319 18.8804 17.2789 19.0752 17.2224C19.273 17.1651 19.4675 17.1044 19.655 17.0572C19.8424 17.01 20.0117 16.9792 20.1546 16.9792V16.7292C19.9804 16.7292 19.7871 16.7661 19.5939 16.8148C19.4008 16.8635 19.1967 16.9269 19.0056 16.9823C18.8114 17.0386 18.6287 17.0873 18.4666 17.1113C18.3023 17.1357 18.1751 17.1321 18.0846 17.0982L17.9968 17.3323ZM20.1546 16.9792C20.3434 16.9792 20.5405 16.9059 20.7275 16.8051C20.9163 16.7034 21.1065 16.5671 21.2842 16.4275C21.4618 16.2879 21.6314 16.1412 21.7757 16.0194C21.924 15.8942 22.0397 15.8006 22.119 15.7548L21.994 15.5383C21.8914 15.5975 21.7577 15.7074 21.6144 15.8284C21.4671 15.9527 21.3028 16.0949 21.1297 16.2309C20.9567 16.3669 20.7793 16.4932 20.6089 16.585C20.4366 16.6779 20.2829 16.7292 20.1546 16.7292V16.9792ZM22.119 15.7548C22.1564 15.7332 22.2148 15.7305 22.3251 15.7773C22.4345 15.8237 22.554 15.9005 22.699 15.9856C22.8374 16.0669 22.9946 16.1529 23.1586 16.1963C23.3262 16.2407 23.5077 16.2424 23.6863 16.1476L23.5691 15.9268C23.4603 15.9845 23.3469 15.9876 23.2226 15.9546C23.0946 15.9207 22.9629 15.8507 22.8256 15.7701C22.6948 15.6932 22.552 15.602 22.4227 15.5471C22.2943 15.4926 22.1377 15.4553 21.9939 15.5383L22.119 15.7548ZM23.6856 16.148C23.9743 15.9971 24.2669 15.8437 24.5315 15.753C24.8029 15.66 25.0037 15.648 25.1338 15.7246L25.2606 15.5092C25.0278 15.3721 24.73 15.4207 24.4505 15.5165C24.1642 15.6146 23.8534 15.7782 23.5698 15.9264L23.6856 16.148ZM25.1342 15.7248C25.1411 15.7289 25.1388 15.7265 25.139 15.7313C25.1394 15.7476 25.1326 15.7813 25.1052 15.8382C25.0507 15.9514 24.9488 16.0915 24.8334 16.2576C24.7229 16.4167 24.6026 16.5964 24.5331 16.7704C24.4642 16.943 24.4323 17.1438 24.5517 17.3167L24.7574 17.1747C24.7098 17.1057 24.7073 17.0083 24.7653 16.8631C24.8227 16.7193 24.9266 16.5616 25.0387 16.4003C25.1459 16.2461 25.2648 16.083 25.3305 15.9466C25.3631 15.8787 25.3911 15.801 25.3889 15.724C25.3863 15.6354 25.3437 15.5577 25.2603 15.509L25.1342 15.7248ZM24.5511 17.3158C24.6514 17.464 24.6361 17.6564 24.5796 17.912L24.8238 17.9659C24.879 17.7157 24.9247 17.4216 24.7581 17.1756L24.5511 17.3158ZM24.7187 18.0628C25.3781 17.9722 25.7019 17.6918 25.8594 17.3618C25.9354 17.2024 25.9691 17.0388 25.9889 16.8961C25.9988 16.825 26.0056 16.7567 26.0119 16.6978C26.0184 16.6372 26.0244 16.5876 26.0326 16.5466L25.7875 16.4974C25.7767 16.551 25.7697 16.6113 25.7633 16.6712C25.7567 16.7327 25.7505 16.7956 25.7413 16.8616C25.723 16.9932 25.6939 17.128 25.6337 17.2541C25.5188 17.495 25.2764 17.7339 24.6847 17.8151L24.7187 18.0628ZM26.0326 16.5467C26.0695 16.3631 26.1596 16.193 26.2697 16.1065C26.3225 16.065 26.3761 16.0453 26.4304 16.0459C26.4849 16.0466 26.5547 16.0679 26.6393 16.1351L26.7948 15.9393C26.6773 15.846 26.5554 15.7974 26.4334 15.7959C26.3112 15.7945 26.2036 15.8405 26.1152 15.9099C25.9431 16.0453 25.8316 16.278 25.7875 16.4973L26.0326 16.5467ZM26.6387 16.1346C26.86 16.3126 27.1275 16.4237 27.458 16.4345C27.7856 16.4452 28.168 16.3574 28.6226 16.151L28.5192 15.9234C28.0865 16.1198 27.7432 16.1937 27.4662 16.1846C27.1921 16.1756 26.9762 16.0853 26.7954 15.9398L26.6387 16.1346ZM28.6225 16.151C28.8481 16.0489 29.0223 15.9568 29.1601 15.8836C29.3014 15.8086 29.3947 15.7589 29.4693 15.7326C29.5388 15.7081 29.5725 15.7112 29.6002 15.7227C29.6363 15.7377 29.6853 15.7766 29.7636 15.8746L29.9589 15.7185C29.8758 15.6145 29.7938 15.5324 29.6962 15.4919C29.5903 15.4478 29.488 15.461 29.3862 15.4968C29.2895 15.5309 29.1762 15.592 29.0428 15.6628C28.9059 15.7355 28.7374 15.8245 28.5193 15.9233L28.6225 16.151ZM29.7639 15.8749C29.971 16.1322 30.3004 16.1417 30.677 16.1125C31.072 16.082 31.5606 16.0035 32.2011 16.0035V15.7535C31.5487 15.7535 31.0287 15.8346 30.6577 15.8633C30.2683 15.8934 30.0743 15.8619 29.9586 15.7182L29.7639 15.8749ZM32.2011 16.0035C32.8812 16.0035 33.2887 15.7668 33.6639 15.5537C34.0332 15.3439 34.3684 15.1587 34.9341 15.1958L34.9505 14.9463C34.307 14.9041 33.9167 15.1226 33.5404 15.3363C33.1698 15.5468 32.8114 15.7535 32.2011 15.7535V16.0035ZM34.9339 15.1958C35.5548 15.2374 36.1316 15.1549 36.5521 15.0627C36.7626 15.0165 36.9349 14.9677 37.0548 14.9303C37.1148 14.9116 37.1618 14.8957 37.1941 14.8844C37.2102 14.8788 37.2227 14.8743 37.2313 14.8711C37.2355 14.8695 37.2388 14.8683 37.2411 14.8674C37.2423 14.867 37.2432 14.8667 37.2438 14.8664C37.2442 14.8663 37.2444 14.8662 37.2446 14.8661C37.2447 14.8661 37.2448 14.866 37.2449 14.866C37.2449 14.866 37.2449 14.866 37.245 14.866C37.245 14.866 37.245 14.866 37.2001 14.7493C37.1552 14.6326 37.1553 14.6326 37.1553 14.6326L37.1553 14.6326C37.1553 14.6326 37.1553 14.6326 37.1553 14.6326C37.1552 14.6327 37.1551 14.6327 37.1549 14.6328C37.1545 14.6329 37.1539 14.6331 37.153 14.6335C37.1513 14.6341 37.1486 14.6351 37.1449 14.6365C37.1375 14.6392 37.1263 14.6433 37.1115 14.6485C37.0817 14.6589 37.0375 14.6739 36.9804 14.6916C36.8663 14.7272 36.7011 14.7741 36.4985 14.8185C36.0928 14.9074 35.5407 14.9858 34.9506 14.9463L34.9339 15.1958ZM37.1642 14.869L37.9311 15.0992L38.0029 14.8598L37.2361 14.6296L37.1642 14.869ZM38.0516 15.0715C38.1392 14.991 38.2024 14.9088 38.2559 14.834C38.3115 14.7564 38.3513 14.6953 38.4015 14.6378C38.4905 14.536 38.6106 14.4482 38.892 14.412L38.8601 14.1641C38.5239 14.2073 38.346 14.3213 38.2132 14.4734C38.1525 14.5429 38.1004 14.6219 38.0527 14.6884C38.0029 14.7579 37.9514 14.8241 37.8824 14.8874L38.0516 15.0715ZM38.8912 14.4121C39.3365 14.3578 39.6413 14.4952 39.9075 14.6281C40.0374 14.693 40.1722 14.7647 40.3043 14.8008C40.4444 14.839 40.5903 14.8404 40.7441 14.7634L40.6321 14.5399C40.5447 14.5836 40.4642 14.5853 40.3702 14.5596C40.2682 14.5317 40.1612 14.4754 40.0192 14.4044C39.7414 14.2657 39.3814 14.1005 38.8609 14.164L38.8912 14.4121ZM40.7441 14.7634C40.767 14.7519 40.81 14.7454 40.8863 14.7625C40.9608 14.7792 41.0509 14.8147 41.1546 14.865C41.3673 14.9681 41.5935 15.1097 41.8361 15.2402C41.9533 15.3033 42.0714 15.3618 42.184 15.4049C42.2953 15.4475 42.4092 15.4781 42.5164 15.4788C42.6268 15.4794 42.7358 15.4478 42.8212 15.3608C42.9037 15.2769 42.9495 15.1562 42.9687 15.0088L42.7208 14.9764C42.7054 15.0947 42.6728 15.1551 42.6429 15.1856C42.6159 15.213 42.5784 15.2291 42.5178 15.2288C42.454 15.2284 42.3724 15.2093 42.2733 15.1714C42.1754 15.1339 42.0681 15.0811 41.9546 15.02C41.7357 14.9023 41.4788 14.7443 41.2636 14.64C41.1534 14.5866 41.0432 14.5415 40.9409 14.5186C40.8403 14.496 40.7298 14.491 40.6321 14.5399L40.7441 14.7634ZM42.964 15.0302C42.9842 14.9661 42.9741 14.8911 42.9604 14.8295C42.9454 14.762 42.9196 14.6845 42.8873 14.6029C42.8224 14.4393 42.726 14.2469 42.618 14.0614C42.51 13.876 42.3879 13.6935 42.2705 13.5506C42.2118 13.4793 42.1523 13.4155 42.0946 13.3657C42.0392 13.318 41.9747 13.2738 41.9059 13.2565L41.845 13.4989C41.857 13.5019 41.8857 13.5158 41.9314 13.5551C41.9746 13.5924 42.024 13.6446 42.0774 13.7094C42.1839 13.8389 42.2984 14.0095 42.402 14.1872C42.5055 14.3649 42.5957 14.5459 42.6549 14.6951C42.6846 14.77 42.7053 14.8339 42.7164 14.8838C42.7288 14.9397 42.7245 14.9583 42.7256 14.955L42.964 15.0302ZM7.91017 5.71431C8.07146 5.65403 8.29234 5.62638 8.55002 5.61675C8.80606 5.60718 9.08518 5.6156 9.36089 5.62137C9.63357 5.62707 9.90408 5.63021 10.1321 5.60822C10.3527 5.58695 10.567 5.53998 10.699 5.4191L10.5302 5.23472C10.4646 5.29477 10.3269 5.33827 10.1081 5.35937C9.89688 5.37975 9.64066 5.37717 9.36611 5.37142C9.09459 5.36575 8.80597 5.35701 8.54068 5.36692C8.27703 5.37677 8.02298 5.40525 7.82265 5.48013L7.91017 5.71431ZM10.6994 5.41873C10.768 5.35531 10.8113 5.27492 10.8066 5.18094C10.8023 5.0934 10.7572 5.01842 10.7057 4.95858C10.6038 4.84028 10.429 4.72717 10.2447 4.62194C10.0583 4.51551 9.83859 4.40454 9.64436 4.29971C9.44493 4.19209 9.26998 4.08976 9.15238 3.99305L8.99358 4.18614C9.13205 4.30001 9.32678 4.41241 9.52562 4.51972C9.72966 4.62983 9.9368 4.73402 10.1207 4.83904C10.3068 4.94526 10.4458 5.0399 10.5162 5.12171C10.5509 5.16193 10.5565 5.1851 10.557 5.19331C10.557 5.19508 10.559 5.20805 10.5297 5.23509L10.6994 5.41873ZM9.15265 3.99327C9.02667 3.88909 8.93589 3.73489 8.86342 3.55359C8.79063 3.37152 8.74189 3.17768 8.6898 2.99502L8.44938 3.06358C8.4985 3.23581 8.55226 3.44873 8.63128 3.64639C8.71061 3.84484 8.82092 4.04335 8.99332 4.18592L9.15265 3.99327ZM8.49949 2.9258C8.26537 3.08437 8.00946 3.17687 7.80071 3.07123L7.68783 3.29429C8.03045 3.46768 8.39747 3.29685 8.63969 3.13279L8.49949 2.9258ZM7.80022 3.07098C7.64465 2.99311 7.4431 2.95157 7.2341 2.9312C7.02297 2.91061 6.79409 2.91074 6.57764 2.92224C6.36091 2.93375 6.15422 2.95679 5.98672 2.98286C5.82367 3.00823 5.68617 3.03817 5.61507 3.06682L5.70849 3.29871C5.74993 3.28201 5.86129 3.25538 6.02516 3.22988C6.18458 3.20508 6.38286 3.18294 6.5909 3.17189C6.7992 3.16082 7.01488 3.16101 7.20984 3.18002C7.40693 3.19923 7.573 3.23682 7.68832 3.29454L7.80022 3.07098ZM5.61538 3.06669C5.54709 3.09399 5.50627 3.14781 5.48623 3.20601C5.4678 3.25952 5.46596 3.31815 5.46959 3.37163C5.47687 3.47874 5.51015 3.61066 5.54653 3.74229C5.58433 3.87906 5.62672 4.01961 5.66074 4.16066C5.69469 4.30139 5.71737 4.43154 5.71737 4.54127H5.96737C5.96737 4.40163 5.93913 4.24861 5.90377 4.10203C5.86849 3.95576 5.8232 3.80487 5.7875 3.67569C5.75037 3.54137 5.72433 3.43285 5.71901 3.35467C5.71635 3.3155 5.7199 3.29527 5.7226 3.28742C5.72369 3.28425 5.71976 3.2942 5.70818 3.29883L5.61538 3.06669ZM5.71737 4.54127C5.71737 4.73242 5.60784 4.85876 5.46273 4.99263C5.39518 5.05495 5.31132 5.12624 5.2495 5.19899C5.18523 5.27464 5.12761 5.37047 5.12761 5.49171H5.37761C5.37761 5.45512 5.39371 5.41537 5.44002 5.36087C5.48878 5.30349 5.55236 5.25008 5.63225 5.17638C5.78202 5.0382 5.96737 4.84715 5.96737 4.54127H5.71737ZM5.12761 5.49171C5.12761 5.57332 5.09346 5.64914 5.01471 5.748C4.93093 5.85317 4.82339 5.95427 4.68293 6.10864L4.86785 6.27689C4.99 6.14264 5.12106 6.01573 5.21025 5.90377C5.30445 5.78552 5.37761 5.65512 5.37761 5.49171H5.12761ZM4.70056 6.29289C4.89799 6.44046 5.1006 6.59176 5.30584 6.70531C5.51165 6.81919 5.73034 6.90111 5.9619 6.90111V6.65111C5.78952 6.65111 5.61386 6.59002 5.42687 6.48656C5.2393 6.38278 5.05061 6.24241 4.85022 6.09264L4.70056 6.29289ZM5.9619 6.90111C6.4368 6.90111 6.7625 6.64433 7.04553 6.38043C7.33768 6.10803 7.57777 5.83944 7.91045 5.7142L7.82237 5.48023C7.43006 5.62792 7.14189 5.94877 6.87504 6.19758C6.59906 6.4549 6.33499 6.65111 5.9619 6.65111V6.90111Z" fill="#868686"/>
</g>
<defs>
<filter id="filter0_d_877_3264" x="0.589844" y="0.829102" width="46.3848" height="23.2578" filterUnits="userSpaceOnUse" color-interpolation-filters="sRGB">
<feFlood flood-opacity="0" result="BackgroundImageFix"/>
<feColorMatrix in="SourceAlpha" type="matrix" values="0 0 0 0 0 0 0 0 0 0 0 0 0 0 0 0 0 0 127 0" result="hardAlpha"/>
<feOffset dy="2"/>
<feGaussianBlur stdDeviation="2"/>
<feColorMatrix type="matrix" values="0 0 0 0 0 0 0 0 0 0 0 0 0 0 0 0 0 0 0.01 0"/>
<feBlend mode="normal" in2="BackgroundImageFix" result="effect1_dropShadow_877_3264"/>
<feBlend mode="normal" in="SourceGraphic" in2="effect1_dropShadow_877_3264" result="shape"/>
</filter>
</defs>
</svg>
