<svg width="34" height="25" viewBox="0 0 34 25" fill="none" xmlns="http://www.w3.org/2000/svg">
<g filter="url(#filter0_d_877_3451)">
<path fill-rule="evenodd" clip-rule="evenodd" d="M22.7497 17.4078C22.3275 17.2273 21.2413 16.5035 21.3006 16.0196C21.3608 15.5374 20.0932 15.5976 19.2478 15.0552C18.4024 14.5111 18.7043 12.762 17.7978 12.3382C16.8922 11.9162 16.2274 10.589 17.3136 10.6483C18.4007 10.7094 18.5821 10.1051 17.7376 9.32208C16.8914 8.53732 13.8134 8.23562 13.6904 7.08812C13.57 5.94149 8.07545 3.2236 5.65969 2.68124C5.23046 2.58619 4.71398 2.4275 4.15039 2.23828V15.1197C4.71224 15.4947 5.40669 15.7964 6.32361 15.8391C8.98016 15.9594 8.31712 14.4501 8.7987 14.4501C9.28377 14.4501 9.46524 13.6051 10.0079 12.9416C10.5523 12.2789 12.907 12.8204 14.2959 13.9051C15.6839 14.9933 17.3136 18.1916 18.7636 17.89C20.2136 17.5891 21.7238 18.7349 23.0516 18.673C24.382 18.6154 23.172 17.5909 22.7497 17.4078ZM26.1915 6.66522C26.1915 7.20845 25.2274 7.51102 23.7155 8.11267C22.208 8.71694 19.4642 7.42208 19.3673 8.29404C19.3097 8.83814 21.059 9.8034 22.6895 9.8034C24.3201 9.8034 26.9182 8.17371 26.9182 7.69151C26.9182 7.20932 27.9442 6.36352 27.5211 5.88133C27.0988 5.39826 26.1915 6.12199 26.1915 6.66522ZM28.2452 4.37284C27.2803 3.7677 26.4349 3.3448 27.6406 4.49055C28.8498 5.63979 28.1989 6.61203 28.9091 6.42543C30.0563 6.12373 29.2109 4.97536 28.2452 4.37284Z" fill="white"/>
<path d="M22.7497 17.4078L22.7995 17.2931L22.7989 17.2928L22.7497 17.4078ZM21.3006 16.0196L21.1766 16.0041L21.1766 16.0044L21.3006 16.0196ZM19.2478 15.0552L19.1801 15.1603L19.1803 15.1604L19.2478 15.0552ZM17.7978 12.3382L17.8508 12.2249L17.8506 12.2249L17.7978 12.3382ZM17.3136 10.6483L17.3206 10.5235L17.3204 10.5235L17.3136 10.6483ZM17.7376 9.32208L17.6526 9.41373L17.6526 9.41374L17.7376 9.32208ZM13.6904 7.08812L13.5661 7.10117L13.5661 7.10144L13.6904 7.08812ZM5.65969 2.68124L5.68708 2.55927L5.68672 2.55919L5.65969 2.68124ZM4.15039 2.23828L4.19017 2.11978L4.02539 2.06446V2.23828H4.15039ZM4.15039 15.1197H4.02539V15.1866L4.081 15.2237L4.15039 15.1197ZM6.32361 15.8391L6.3178 15.964L6.31796 15.964L6.32361 15.8391ZM10.0079 12.9416L9.9113 12.8622L9.91112 12.8624L10.0079 12.9416ZM14.2959 13.9051L14.373 13.8067L14.3728 13.8066L14.2959 13.9051ZM18.7636 17.89L18.7382 17.7676L18.7381 17.7676L18.7636 17.89ZM23.0516 18.673L23.0462 18.5481L23.0458 18.5481L23.0516 18.673ZM23.7155 8.11267L23.6693 7.99653L23.669 7.99664L23.7155 8.11267ZM19.3673 8.29404L19.2431 8.28024L19.243 8.28088L19.3673 8.29404ZM27.5211 5.88133L27.4269 5.96359L27.4271 5.96377L27.5211 5.88133ZM28.2452 4.37284L28.1788 4.47874L28.179 4.47889L28.2452 4.37284ZM27.6406 4.49055L27.7267 4.39995L27.7267 4.39994L27.6406 4.49055ZM28.9091 6.42543L28.9409 6.54633L28.9409 6.54632L28.9091 6.42543ZM22.7989 17.2928C22.6007 17.2081 22.2338 16.989 21.9246 16.7314C21.7703 16.6029 21.6356 16.4691 21.544 16.3421C21.4497 16.2115 21.4157 16.1082 21.4247 16.0348L21.1766 16.0044C21.1559 16.1729 21.2354 16.3416 21.3413 16.4884C21.4499 16.6389 21.602 16.788 21.7646 16.9235C22.0892 17.1939 22.4765 17.4269 22.7006 17.5227L22.7989 17.2928ZM21.4247 16.0351C21.4359 15.9452 21.4156 15.8631 21.3682 15.7923C21.3229 15.7248 21.2572 15.6738 21.1862 15.6332C21.0466 15.5534 20.8518 15.4952 20.6466 15.4394C20.2225 15.3239 19.7178 15.2082 19.3153 14.95L19.1803 15.1604C19.6232 15.4446 20.175 15.57 20.581 15.6806C20.7908 15.7377 20.9546 15.7888 21.0621 15.8503C21.1147 15.8804 21.1447 15.908 21.1606 15.9316C21.1742 15.9519 21.1804 15.9735 21.1766 16.0041L21.4247 16.0351ZM19.3154 14.9501C19.1336 14.833 19.0069 14.6472 18.9071 14.4119C18.8069 14.1754 18.7394 13.9029 18.6668 13.6205C18.5955 13.3431 18.5191 13.0556 18.4004 12.8105C18.2807 12.5632 18.1124 12.3473 17.8508 12.2249L17.7449 12.4514C17.9365 12.541 18.0704 12.7026 18.1754 12.9195C18.2815 13.1385 18.3524 13.4018 18.4246 13.6827C18.4956 13.9585 18.5678 14.2519 18.677 14.5095C18.7867 14.7685 18.9393 15.0053 19.1801 15.1603L19.3154 14.9501ZM17.8506 12.2249C17.4261 12.027 17.0572 11.6137 16.9256 11.2683C16.8589 11.0932 16.8644 10.9671 16.9099 10.894C16.9509 10.828 17.0549 10.7594 17.3068 10.7731L17.3204 10.5235C17.0293 10.5076 16.8091 10.5826 16.6975 10.762C16.5904 10.9343 16.6151 11.1552 16.692 11.3572C16.8477 11.766 17.264 12.2273 17.745 12.4515L17.8506 12.2249ZM17.3066 10.7731C17.5881 10.7889 17.8228 10.7626 18.0021 10.6936C18.1834 10.6239 18.3169 10.5061 18.3692 10.3391C18.4204 10.1758 18.385 9.99362 18.2918 9.81133C18.1982 9.62818 18.0402 9.43221 17.8226 9.23042L17.6526 9.41374C17.8572 9.60346 17.9933 9.77665 18.0692 9.92512C18.1456 10.0745 18.1551 10.1863 18.1307 10.2643C18.1074 10.3387 18.0444 10.4095 17.9123 10.4603C17.7783 10.5119 17.5826 10.5382 17.3206 10.5235L17.3066 10.7731ZM17.8226 9.23042C17.5915 9.01612 17.2195 8.84309 16.8102 8.68656C16.4002 8.52979 15.9225 8.37917 15.4847 8.22336C15.0401 8.06512 14.6289 7.89914 14.3225 7.70529C14.0131 7.5095 13.8392 7.30342 13.8147 7.0748L13.5661 7.10144C13.6031 7.44657 13.8601 7.70851 14.1888 7.91655C14.5207 8.12652 14.9549 8.30017 15.4009 8.45889C15.8537 8.62004 16.3119 8.7637 16.7209 8.92007C17.1305 9.07669 17.4606 9.23566 17.6526 9.41373L17.8226 9.23042ZM13.8147 7.07507C13.7954 6.89071 13.6733 6.69781 13.5028 6.50821C13.3286 6.31453 13.0875 6.1066 12.7992 5.89184C12.2222 5.46193 11.4423 4.99433 10.5941 4.54748C8.89937 3.65476 6.91057 2.83396 5.68708 2.55927L5.63231 2.8032C6.82458 3.07088 8.79094 3.8802 10.4776 4.76867C11.3199 5.21242 12.0873 5.67318 12.6499 6.09232C12.9314 6.30208 13.1581 6.49884 13.3169 6.67539C13.4794 6.85601 13.5554 6.99887 13.5661 7.10117L13.8147 7.07507ZM5.68672 2.55919C5.26421 2.46564 4.75286 2.30869 4.19017 2.11978L4.11061 2.35678C4.6751 2.5463 5.19671 2.70675 5.63267 2.80328L5.68672 2.55919ZM4.02539 2.23828V15.1197H4.27539V2.23828H4.02539ZM4.081 15.2237C4.65806 15.6088 5.37412 15.92 6.3178 15.964L6.32943 15.7142C5.43926 15.6728 4.76641 15.3806 4.21978 15.0158L4.081 15.2237ZM6.31796 15.964C7.6679 16.0251 8.22208 15.6729 8.48276 15.256C8.60617 15.0586 8.65764 14.8521 8.70083 14.724C8.72429 14.6544 8.74253 14.6152 8.76028 14.5932C8.7714 14.5795 8.7789 14.5751 8.7987 14.5751V14.3251C8.6981 14.3251 8.62098 14.3678 8.5658 14.4361C8.51726 14.4962 8.48754 14.5741 8.46393 14.6441C8.41297 14.7952 8.37387 14.9585 8.27078 15.1234C8.07845 15.4311 7.63587 15.7734 6.32927 15.7142L6.31796 15.964ZM8.7987 14.5751C8.96119 14.5751 9.09286 14.5027 9.20234 14.398C9.3092 14.2959 9.40149 14.1569 9.48932 14.0083C9.67037 13.7019 9.84133 13.3427 10.1047 13.0207L9.91112 12.8624C9.63179 13.204 9.44069 13.5991 9.27408 13.8811C9.18808 14.0266 9.11014 14.1403 9.02959 14.2173C8.95166 14.2918 8.87875 14.3251 8.7987 14.3251V14.5751ZM10.1045 13.0209C10.2081 12.8948 10.4147 12.8092 10.7222 12.7846C11.0247 12.7605 11.4001 12.7977 11.8076 12.89C12.6228 13.0747 13.5411 13.4742 14.2189 14.0036L14.3728 13.8066C13.6617 13.2512 12.7083 12.8377 11.8628 12.6462C11.4399 12.5503 11.0378 12.5086 10.7023 12.5354C10.3717 12.5618 10.0799 12.657 9.9113 12.8622L10.1045 13.0209ZM14.2188 14.0035C14.5542 14.2665 14.909 14.6612 15.2793 15.1089C15.6443 15.5503 16.0313 16.052 16.4112 16.4996C16.7935 16.95 17.1845 17.3652 17.5756 17.6488C17.9653 17.9315 18.3757 18.0983 18.7891 18.0123L18.7381 17.7676C18.4265 17.8324 18.0894 17.7126 17.7224 17.4464C17.3567 17.1812 16.9817 16.7853 16.6018 16.3378C16.2196 15.8875 15.8482 15.4046 15.472 14.9496C15.101 14.501 14.7315 14.0878 14.373 13.8067L14.2188 14.0035ZM18.789 18.0123C19.4772 17.8696 20.1872 18.0687 20.9139 18.3105C21.6266 18.5476 22.3642 18.8302 23.0574 18.7978L23.0458 18.5481C22.4112 18.5777 21.7297 18.3184 20.9929 18.0733C20.27 17.8328 19.5 17.6095 18.7382 17.7676L18.789 18.0123ZM23.057 18.7979C23.2304 18.7903 23.3709 18.7669 23.4805 18.7271C23.5903 18.6873 23.6779 18.6278 23.731 18.5431C23.8408 18.3679 23.7604 18.1672 23.6622 18.0186C23.5578 17.8604 23.3977 17.7041 23.2406 17.5773C23.0839 17.4508 22.9192 17.345 22.7995 17.2931L22.7 17.5224C22.7914 17.5621 22.9363 17.653 23.0836 17.7719C23.2306 17.8905 23.369 18.0282 23.4536 18.1563C23.5445 18.2939 23.5435 18.3716 23.5192 18.4104C23.5052 18.4327 23.4723 18.4641 23.3953 18.4921C23.3181 18.5201 23.2053 18.5412 23.0462 18.5481L23.057 18.7979ZM26.0665 6.66522C26.0665 6.75899 26.0265 6.84973 25.9288 6.94762C25.8287 7.04786 25.6747 7.1483 25.4638 7.25563C25.0406 7.47091 24.4316 7.69318 23.6693 7.99653L23.7617 8.22881C24.5113 7.93051 25.1403 7.70067 25.5771 7.47845C25.7962 7.36702 25.9778 7.25236 26.1057 7.12428C26.2359 6.99385 26.3165 6.84306 26.3165 6.66522H26.0665ZM23.669 7.99664C23.3166 8.13789 22.8835 8.17092 22.4198 8.14846C21.957 8.12605 21.4766 8.04932 21.0318 7.97948C20.593 7.9106 20.1802 7.8467 19.8711 7.8579C19.7167 7.86349 19.5718 7.88798 19.4587 7.95182C19.3374 8.02028 19.2597 8.13028 19.2431 8.28024L19.4916 8.30784C19.4991 8.23981 19.5284 8.19953 19.5816 8.16955C19.6429 8.13494 19.7401 8.11281 19.8801 8.10774C20.1597 8.0976 20.5452 8.15616 20.993 8.22646C21.4347 8.2958 21.929 8.37499 22.4077 8.39817C22.8854 8.4213 23.3606 8.38959 23.762 8.2287L23.669 7.99664ZM19.243 8.28088C19.2321 8.38409 19.265 8.48553 19.3185 8.57782C19.3723 8.67059 19.4517 8.76254 19.5482 8.85137C19.7412 9.02913 20.0167 9.20707 20.3406 9.3651C20.9883 9.68118 21.852 9.9284 22.6895 9.9284V9.6784C21.8965 9.6784 21.0703 9.44299 20.4502 9.14042C20.1401 8.98912 19.8872 8.82372 19.7175 8.66747C19.6326 8.58929 19.572 8.51656 19.5348 8.4524C19.4973 8.38776 19.4882 8.34001 19.4916 8.30719L19.243 8.28088ZM22.6895 9.9284C23.537 9.9284 24.6168 9.50846 25.4754 9.0379C25.907 8.80137 26.2895 8.54828 26.566 8.32159C26.7039 8.20851 26.8187 8.0994 26.9001 7.99986C26.9409 7.95007 26.9754 7.90014 27.0002 7.8511C27.0245 7.80301 27.0432 7.74845 27.0432 7.69151H26.7932C26.7932 7.69485 26.7916 7.70954 26.7771 7.73829C26.763 7.7661 26.7401 7.80063 26.7066 7.84154C26.6396 7.92342 26.5386 8.02075 26.4075 8.12826C26.1459 8.34275 25.777 8.5875 25.3553 8.81866C24.5071 9.2835 23.4727 9.6784 22.6895 9.6784V9.9284ZM27.0432 7.69151C27.0432 7.60777 27.0904 7.49052 27.1801 7.33571C27.2704 7.17978 27.376 7.02922 27.4849 6.85177C27.5874 6.68452 27.6854 6.50405 27.727 6.32864C27.7699 6.14789 27.7554 5.95885 27.615 5.79888L27.4271 5.96377C27.4983 6.04491 27.5142 6.14241 27.4837 6.27093C27.452 6.40479 27.3728 6.55632 27.2717 6.72107C27.177 6.87562 27.0526 7.05706 26.9637 7.2104C26.8743 7.36487 26.7932 7.53416 26.7932 7.69151H27.0432ZM27.6152 5.79906C27.4811 5.64568 27.3059 5.58848 27.1279 5.59884C26.9545 5.60893 26.7801 5.68231 26.6281 5.78476C26.4752 5.8878 26.3369 6.02555 26.236 6.17601C26.136 6.32515 26.0665 6.49635 26.0665 6.66522H26.3165C26.3165 6.56247 26.3603 6.43949 26.4437 6.31525C26.5261 6.19232 26.641 6.07748 26.7678 5.99207C26.8954 5.90607 27.027 5.85513 27.1424 5.84841C27.2533 5.84196 27.3499 5.87544 27.4269 5.96359L27.6152 5.79906ZM28.3116 4.26694C28.0693 4.11497 27.8331 3.9736 27.6339 3.86505C27.4404 3.75964 27.2661 3.67626 27.1546 3.65279C27.1262 3.64681 27.0894 3.64179 27.0525 3.64829C27.0114 3.6555 26.9547 3.68131 26.9304 3.74673C26.9107 3.79976 26.9247 3.84971 26.9351 3.87743C26.947 3.90916 26.9656 3.94156 26.9869 3.97338C27.0708 4.09834 27.2538 4.29542 27.5545 4.58116L27.7267 4.39994C27.4245 4.11281 27.261 3.93309 27.1945 3.83401C27.1782 3.80983 27.1715 3.79576 27.1693 3.7899C27.1656 3.78003 27.1769 3.80126 27.1648 3.83376C27.1481 3.87865 27.1094 3.89212 27.0958 3.89451C27.0862 3.89619 27.0862 3.89387 27.1031 3.89743C27.1729 3.91211 27.3155 3.97631 27.5143 4.08458C27.7072 4.18972 27.9386 4.32813 28.1788 4.47873L28.3116 4.26694ZM27.5545 4.58116C28.1337 5.13169 28.2653 5.6346 28.3397 5.98491C28.3582 6.07195 28.3748 6.15807 28.3935 6.22987C28.4122 6.3014 28.4369 6.37475 28.4788 6.43491C28.5244 6.50034 28.5885 6.54735 28.6747 6.56536C28.7546 6.58204 28.8439 6.57181 28.9409 6.54633L28.8773 6.30453C28.7968 6.3257 28.751 6.32591 28.7258 6.32064C28.707 6.31671 28.696 6.3094 28.6839 6.29197C28.6681 6.26926 28.6523 6.2312 28.6354 6.16662C28.6186 6.10231 28.6043 6.02761 28.5842 5.93295C28.5042 5.55648 28.3566 4.99866 27.7267 4.39995L27.5545 4.58116ZM28.9409 6.54632C29.248 6.46554 29.4526 6.3196 29.5404 6.11056C29.6269 5.90462 29.5842 5.67416 29.4826 5.45863C29.2798 5.02849 28.8051 4.57483 28.3113 4.26678L28.179 4.47889C28.651 4.77337 29.0819 5.19515 29.2565 5.56525C29.3435 5.74985 29.3574 5.90071 29.3099 6.01376C29.2637 6.12372 29.1437 6.23447 28.8773 6.30454L28.9409 6.54632Z" fill="#868686"/>
</g>
<defs>
<filter id="filter0_d_877_3451" x="0.0253906" y="0.0644531" width="33.5625" height="24.7363" filterUnits="userSpaceOnUse" color-interpolation-filters="sRGB">
<feFlood flood-opacity="0" result="BackgroundImageFix"/>
<feColorMatrix in="SourceAlpha" type="matrix" values="0 0 0 0 0 0 0 0 0 0 0 0 0 0 0 0 0 0 127 0" result="hardAlpha"/>
<feOffset dy="2"/>
<feGaussianBlur stdDeviation="2"/>
<feColorMatrix type="matrix" values="0 0 0 0 0 0 0 0 0 0 0 0 0 0 0 0 0 0 0.01 0"/>
<feBlend mode="normal" in2="BackgroundImageFix" result="effect1_dropShadow_877_3451"/>
<feBlend mode="normal" in="SourceGraphic" in2="effect1_dropShadow_877_3451" result="shape"/>
</filter>
</defs>
</svg>
