<svg width="34" height="29" viewBox="0 0 34 29" fill="none" xmlns="http://www.w3.org/2000/svg">
<g filter="url(#filter0_d_877_3230)">
<path fill-rule="evenodd" clip-rule="evenodd" d="M19.9325 16.9216C20.1759 16.8597 20.7168 17.0411 21.1399 16.7403C21.563 16.4395 22.4695 17.1623 22.5899 17.7657C22.7112 18.37 23.0732 17.5233 23.4361 16.8597C23.7982 16.1944 24.9446 14.2046 24.9446 13.7216C24.9446 13.2376 25.9121 12.8156 25.9121 12.5139C25.9121 12.2131 25.851 11.5486 26.1538 11.4283C26.4548 11.3071 26.6964 10.4029 26.6362 10.1003C26.5751 9.79774 27.6622 8.10875 27.8428 7.86635C28.0251 7.62482 28.9909 7.74776 29.052 7.20192C29.1113 6.6613 29.2919 6.05616 28.9298 5.93496C28.5669 5.81376 28.0853 5.3926 28.0853 5.0909C28.0853 4.91913 28.1071 4.42386 28.2118 3.98962C27.7276 3.92248 27.7015 3.43854 27.4197 3.15864C27.1195 2.85694 27.1195 2.61541 26.6973 2.73661C26.2742 2.85782 25.7917 3.88237 25.2473 4.06286C24.7047 4.24598 23.9195 3.82046 23.5565 3.64084C23.1945 3.46034 21.5037 3.64084 20.9593 3.58154C20.4167 3.52225 19.8731 4.30527 19.4509 4.54767C19.0286 4.78921 17.8203 4.66888 17.4591 4.54767C17.0953 4.4256 16.2508 3.70274 15.8887 3.70274C15.5249 3.70274 14.8008 3.82046 14.198 4.18494C13.5934 4.54767 13.4119 3.52138 13.0507 3.09935C12.6878 2.67732 11.9017 3.03831 11.4202 2.61541C10.936 2.19338 10.6332 3.09935 10.211 3.03744C9.78784 2.97902 8.70254 2.73574 8.33961 3.03744C7.97755 3.34175 8.03688 4.48751 7.85716 4.668C7.67569 4.84937 6.9507 5.69256 6.9507 6.11633C6.9507 6.31165 6.87829 6.44767 6.75702 6.52092C6.83641 7.02142 6.93936 7.66231 6.96466 7.89425C7.01003 8.30495 7.19149 10.3401 6.7387 10.7926C6.28416 11.2443 5.96834 11.9707 5.96834 11.9707C5.96834 11.9707 5.24336 12.4686 5.10726 13.4635C4.97116 14.4592 5.15262 15.0931 5.15262 15.8631C5.15262 16.4054 5.55569 16.7987 5.77903 17.4736C5.78775 17.4814 5.79648 17.4832 5.80258 17.4928C6.16464 17.9776 7.88507 18.0657 8.85173 18.2775C9.81838 18.4894 10.8147 19.8453 10.7842 20.3607C10.7536 20.8734 11.4193 21.8691 11.8721 22.1089C12.324 22.3513 13.4416 21.6564 13.9546 21.6564C14.4684 21.6564 16.3101 21.6869 16.6722 21.3547C16.7778 21.2579 16.8859 21.2692 16.9994 21.3381C17.4347 20.1758 17.5935 19.1495 17.5935 19.1495C17.5935 19.1495 19.6908 16.9818 19.9325 16.9216Z" fill="white"/>
<path fill-rule="evenodd" clip-rule="evenodd" d="M19.9325 16.9216C20.1759 16.8597 20.7168 17.0411 21.1399 16.7403C21.563 16.4395 22.4695 17.1623 22.5899 17.7657C22.7112 18.37 23.0732 17.5233 23.4361 16.8597C23.7982 16.1944 24.9446 14.2046 24.9446 13.7216C24.9446 13.2376 25.9121 12.8156 25.9121 12.5139C25.9121 12.2131 25.851 11.5486 26.1538 11.4283C26.4548 11.3071 26.6964 10.4029 26.6362 10.1003C26.5751 9.79774 27.6622 8.10875 27.8428 7.86635C28.0251 7.62482 28.9909 7.74776 29.052 7.20192C29.1113 6.6613 29.2919 6.05616 28.9298 5.93496C28.5669 5.81376 28.0853 5.3926 28.0853 5.0909C28.0853 4.91913 28.1071 4.42386 28.2118 3.98962C27.7276 3.92248 27.7015 3.43854 27.4197 3.15864C27.1195 2.85694 27.1195 2.61541 26.6973 2.73661C26.2742 2.85782 25.7917 3.88237 25.2473 4.06286C24.7047 4.24598 23.9195 3.82046 23.5565 3.64084C23.1945 3.46034 21.5037 3.64084 20.9593 3.58154C20.4167 3.52225 19.8731 4.30527 19.4509 4.54767C19.0286 4.78921 17.8203 4.66888 17.4591 4.54767C17.0953 4.4256 16.2508 3.70274 15.8887 3.70274C15.5249 3.70274 14.8008 3.82046 14.198 4.18494C13.5934 4.54767 13.4119 3.52138 13.0507 3.09935C12.6878 2.67732 11.9017 3.03831 11.4202 2.61541C10.936 2.19338 10.6332 3.09935 10.211 3.03744C9.78784 2.97902 8.70254 2.73574 8.33961 3.03744C7.97755 3.34175 8.03688 4.48751 7.85716 4.668C7.67569 4.84937 6.9507 5.69256 6.9507 6.11633C6.9507 6.31165 6.87829 6.44767 6.75702 6.52092C6.83641 7.02142 6.93936 7.66231 6.96466 7.89425C7.01003 8.30495 7.19149 10.3401 6.7387 10.7926C6.28416 11.2443 5.96834 11.9707 5.96834 11.9707C5.96834 11.9707 5.24336 12.4686 5.10726 13.4635C4.97116 14.4592 5.15262 15.0931 5.15262 15.8631C5.15262 16.4054 5.55569 16.7987 5.77903 17.4736C5.78775 17.4814 5.79648 17.4832 5.80258 17.4928C6.16464 17.9776 7.88507 18.0657 8.85173 18.2775C9.81838 18.4894 10.8147 19.8453 10.7842 20.3607C10.7536 20.8734 11.4193 21.8691 11.8721 22.1089C12.324 22.3513 13.4416 21.6564 13.9546 21.6564C14.4684 21.6564 16.3101 21.6869 16.6722 21.3547C16.7778 21.2579 16.8859 21.2692 16.9994 21.3381C17.4347 20.1758 17.5935 19.1495 17.5935 19.1495C17.5935 19.1495 19.6908 16.9818 19.9325 16.9216Z" stroke="#868686" stroke-width="0.25"/>
</g>
<defs>
<filter id="filter0_d_877_3230" x="0.931641" y="0.37793" width="32.3438" height="27.9072" filterUnits="userSpaceOnUse" color-interpolation-filters="sRGB">
<feFlood flood-opacity="0" result="BackgroundImageFix"/>
<feColorMatrix in="SourceAlpha" type="matrix" values="0 0 0 0 0 0 0 0 0 0 0 0 0 0 0 0 0 0 127 0" result="hardAlpha"/>
<feOffset dy="2"/>
<feGaussianBlur stdDeviation="2"/>
<feColorMatrix type="matrix" values="0 0 0 0 0 0 0 0 0 0 0 0 0 0 0 0 0 0 0.01 0"/>
<feBlend mode="normal" in2="BackgroundImageFix" result="effect1_dropShadow_877_3230"/>
<feBlend mode="normal" in="SourceGraphic" in2="effect1_dropShadow_877_3230" result="shape"/>
</filter>
</defs>
</svg>
