<svg width="44" height="44" viewBox="0 0 44 44" fill="none" xmlns="http://www.w3.org/2000/svg">
<g filter="url(#filter0_d_877_3435)">
<path fill-rule="evenodd" clip-rule="evenodd" d="M37.8725 6.35648C37.4502 5.81325 36.727 6.65905 35.8205 6.83954C34.9132 7.01917 32.0761 4.66749 31.3511 3.58016C30.6252 2.49457 29.4178 3.40054 30.0241 4.18356C30.627 4.96745 29.9002 5.20811 29.9002 6.29719C29.9002 7.3819 29.177 7.3819 29.2991 8.1065C29.4186 8.8311 28.3325 8.7099 27.6066 8.8311C26.8834 8.95317 27.6668 9.6769 26.8223 10.0396C25.976 10.4006 26.038 11.004 26.4602 11.2456C26.8834 11.4871 26.5815 12.2719 26.4602 12.8151C26.339 13.3583 27.0029 12.9363 27.488 12.3931C27.9704 11.8507 28.4738 12.6546 28.5741 12.1506C28.6954 11.549 27.3065 11.2464 27.3658 10.6413C27.4269 10.0414 28.3325 10.8244 29.0566 10.4617C29.7816 10.1007 31.2298 10.4024 32.1363 11.1854C33.0418 11.971 33.2835 11.6702 33.465 10.7041C33.6447 9.73881 35.0345 9.31591 36.4234 9.31591C37.814 9.31591 37.9318 8.64973 37.5096 8.34978C37.0882 8.04895 39.8058 6.29806 39.7447 5.81499C39.6837 5.33105 38.2965 6.89971 37.8725 6.35648ZM26.7612 14.6244C26.1592 14.927 25.7344 16.7982 26.4 17.3397C27.064 17.8829 25.313 18.9101 25.3732 20.0576C25.4325 21.2025 24.2844 21.2025 24.1038 22.0474C23.9232 22.8941 23.2593 22.7127 22.2316 23.4966C21.2073 24.2796 20.6621 23.3745 20.9037 22.833C21.1454 22.288 19.3342 23.1347 19.3944 24.4627C19.4564 25.7898 17.7045 25.9102 18.1268 26.5136C18.5499 27.1187 16.7998 27.4788 16.8583 26.9356C16.9193 26.3941 15.7703 26.6975 14.3841 27.239C12.9951 27.7823 12.148 26.6356 11.3646 27.4195C10.5785 28.2052 9.2498 29.5933 8.22295 29.7747C7.19785 29.9534 7.78848 31.1977 8.22295 30.9806C8.94882 30.6179 10.0952 30.9806 10.459 30.4383C10.8202 29.8941 13.7786 29.2315 15.5906 29.1713C17.4009 29.1094 16.3147 30.0145 16.4369 30.9806C16.5582 31.9459 18.0675 31.7654 18.8526 30.8612C19.637 29.9534 20.2424 30.0136 19.5759 29.4695C18.912 28.928 19.6989 28.445 20.1814 29.1704C20.6638 29.8933 22.1731 29.9526 22.7777 28.9873C23.3823 28.0221 23.562 29.1704 24.2861 29.1085C25.012 29.0492 25.4343 27.2382 25.4953 27.9017C25.5564 28.5662 26.7036 28.3857 27.4286 27.6018C28.1527 26.8153 27.4888 25.428 27.9713 24.7042C28.4537 23.9796 28.9362 22.4694 28.4537 21.5643C27.9713 20.6592 29.5417 20.0567 30.326 19.3295C31.1112 18.6066 29.4204 14.9854 29.3602 13.8981C29.2991 12.8151 27.3649 14.3236 26.7612 14.6244ZM13.4767 30.317C13.2342 30.9815 12.5109 30.6807 11.5443 30.862C10.5776 31.0425 10.5445 33.3436 11.2424 33.5764C11.7851 33.7569 12.2082 33.7569 12.3879 33.0332C12.5685 32.3095 13.5361 32.0679 14.1398 32.3679C14.7444 32.6713 15.5287 31.4619 15.5287 30.5568C15.5296 29.6535 13.7193 29.6535 13.4767 30.317ZM9.30826 32.6713C9.30826 32.0679 7.98129 32.1883 7.92196 31.6442C7.86002 31.1009 6.95531 31.4044 6.04973 32.0671C5.14415 32.7298 4.84229 32.851 5.20347 33.5145C5.5664 34.179 6.10905 33.5756 6.34985 32.912C6.59151 32.2476 7.19785 33.8781 6.65345 34.9646C6.10905 36.0519 6.72237 37.5813 7.43689 37.4375C8.04062 37.3189 8.82755 35.146 9.73313 33.9985C10.6396 32.8518 9.30826 33.273 9.30826 32.6713Z" fill="white"/>
<path d="M37.8725 6.35648L37.7738 6.43319L37.774 6.43339L37.8725 6.35648ZM35.8205 6.83954L35.8448 6.96216L35.8449 6.96214L35.8205 6.83954ZM31.3511 3.58016L31.4551 3.51082L31.455 3.51068L31.3511 3.58016ZM30.0241 4.18356L30.1232 4.10735L30.1229 4.10702L30.0241 4.18356ZM29.2991 8.1065L29.4225 8.08616L29.4224 8.08572L29.2991 8.1065ZM27.6066 8.8311L27.586 8.70781L27.5858 8.70784L27.6066 8.8311ZM26.8223 10.0396L26.8713 10.1546L26.8716 10.1545L26.8223 10.0396ZM26.4602 11.2456L26.3982 11.3541L26.3983 11.3541L26.4602 11.2456ZM27.488 12.3931L27.5812 12.4763L27.5814 12.4761L27.488 12.3931ZM28.5741 12.1506L28.4516 12.1259L28.4515 12.1262L28.5741 12.1506ZM27.3658 10.6413L27.2415 10.6286L27.2414 10.6291L27.3658 10.6413ZM29.0566 10.4617L29.0009 10.3498L29.0006 10.3499L29.0566 10.4617ZM32.1363 11.1854L32.2182 11.091L32.218 11.0908L32.1363 11.1854ZM33.465 10.7041L33.5878 10.7271L33.5879 10.7269L33.465 10.7041ZM37.5096 8.34978L37.4369 8.45151L37.4372 8.45168L37.5096 8.34978ZM39.7447 5.81499L39.6207 5.83064L39.6207 5.83067L39.7447 5.81499ZM26.7612 14.6244L26.7055 14.5125L26.7051 14.5127L26.7612 14.6244ZM26.4 17.3397L26.4792 17.2429L26.4789 17.2427L26.4 17.3397ZM25.3732 20.0576L25.498 20.0511L25.498 20.051L25.3732 20.0576ZM24.1038 22.0474L23.9816 22.0213L23.9816 22.0213L24.1038 22.0474ZM22.2316 23.4966L22.1558 23.3972L22.1556 23.3973L22.2316 23.4966ZM20.9037 22.833L21.0179 22.884L21.018 22.8837L20.9037 22.833ZM19.3944 24.4627L19.2696 24.4684L19.2696 24.4685L19.3944 24.4627ZM18.1268 26.5136L18.2292 26.4419L18.2292 26.4419L18.1268 26.5136ZM16.8583 26.9356L16.7341 26.9216L16.734 26.9222L16.8583 26.9356ZM14.3841 27.239L14.3386 27.1226L14.3385 27.1226L14.3841 27.239ZM11.3646 27.4195L11.4529 27.5079L11.453 27.5079L11.3646 27.4195ZM8.22295 29.7747L8.24443 29.8978L8.24469 29.8978L8.22295 29.7747ZM8.22295 30.9806L8.27883 31.0924L8.22295 30.9806ZM10.459 30.4383L10.5628 30.5079L10.5631 30.5074L10.459 30.4383ZM15.5906 29.1713L15.5948 29.2962L15.5949 29.2962L15.5906 29.1713ZM16.4369 30.9806L16.5609 30.965L16.5609 30.9649L16.4369 30.9806ZM18.8526 30.8612L18.947 30.9431L18.9472 30.9429L18.8526 30.8612ZM19.5759 29.4695L19.6549 29.3727L19.6549 29.3726L19.5759 29.4695ZM20.1814 29.1704L20.0773 29.2396L20.0774 29.2398L20.1814 29.1704ZM24.2861 29.1085L24.276 28.9839L24.2755 28.984L24.2861 29.1085ZM25.4953 27.9017L25.6198 27.8903V27.8903L25.4953 27.9017ZM27.4286 27.6018L27.5204 27.6866L27.5206 27.6864L27.4286 27.6018ZM27.9713 24.7042L28.0753 24.7736L28.0753 24.7735L27.9713 24.7042ZM30.326 19.3295L30.2413 19.2375L30.241 19.2378L30.326 19.3295ZM29.3602 13.8981L29.485 13.8911L29.485 13.891L29.3602 13.8981ZM13.4767 30.317L13.3593 30.2741L13.3593 30.2742L13.4767 30.317ZM11.5443 30.862L11.5672 30.9849L11.5673 30.9849L11.5443 30.862ZM11.2424 33.5764L11.2029 33.695L11.203 33.695L11.2424 33.5764ZM12.3879 33.0332L12.2667 33.0029L12.2666 33.0031L12.3879 33.0332ZM14.1398 32.3679L14.1958 32.2562L14.1954 32.256L14.1398 32.3679ZM15.5287 30.5568L15.4037 30.5567V30.5568H15.5287ZM7.92196 31.6442L8.04623 31.6306L8.04616 31.63L7.92196 31.6442ZM5.20347 33.5145L5.09368 33.5743L5.09377 33.5744L5.20347 33.5145ZM6.34985 32.912L6.23237 32.8693L6.23234 32.8694L6.34985 32.912ZM6.65345 34.9646L6.5417 34.9086L6.54168 34.9086L6.65345 34.9646ZM7.43689 37.4375L7.4128 37.3148L7.41222 37.3149L7.43689 37.4375ZM9.73313 33.9985L9.63507 33.9209L9.63501 33.921L9.73313 33.9985ZM37.9712 6.27977C37.8404 6.11156 37.6772 6.04517 37.4962 6.0525C37.3272 6.05934 37.1488 6.1302 36.9741 6.21387C36.6089 6.38875 36.2288 6.63079 35.7961 6.71695L35.8449 6.96214C36.3187 6.8678 36.7535 6.59669 37.0821 6.43936C37.2542 6.35692 37.3925 6.3069 37.5063 6.3023C37.6079 6.29818 37.6934 6.32978 37.7738 6.43319L37.9712 6.27977ZM35.7963 6.71692C35.7117 6.73367 35.5909 6.72263 35.4333 6.67583C35.2779 6.62968 35.0976 6.55212 34.8994 6.44823C34.5031 6.24055 34.047 5.93404 33.5936 5.58582C32.6836 4.88703 31.8061 4.03725 31.4551 3.51082L31.2471 3.6495C31.6211 4.2104 32.5246 5.08013 33.4413 5.7841C33.9012 6.13727 34.3698 6.45295 34.7833 6.66967C34.99 6.77798 35.1859 6.86317 35.3621 6.91549C35.5362 6.96717 35.7026 6.99033 35.8448 6.96216L35.7963 6.71692ZM31.455 3.51068C31.2599 3.21896 31.0249 3.05041 30.7848 2.98566C30.5451 2.92104 30.3104 2.96275 30.1241 3.07373C29.9385 3.18424 29.7988 3.36484 29.7515 3.57936C29.7036 3.79654 29.7529 4.03742 29.9253 4.26009L30.1229 4.10702C29.9922 3.93819 29.965 3.77218 29.9956 3.6332C30.0269 3.49154 30.1207 3.36669 30.252 3.28853C30.3824 3.21084 30.5478 3.18067 30.7197 3.22704C30.8912 3.27327 31.0793 3.39857 31.2472 3.64964L31.455 3.51068ZM29.925 4.25976C30.0665 4.44368 30.1215 4.58462 30.1348 4.70517C30.1483 4.82661 30.1215 4.94265 30.0707 5.08345C29.9696 5.36322 29.7752 5.72441 29.7752 6.29719H30.0252C30.0252 5.78089 30.1942 5.4772 30.3058 5.1684C30.3613 5.01491 30.4031 4.85575 30.3833 4.67756C30.3634 4.49848 30.2832 4.31537 30.1232 4.10735L29.925 4.25976ZM29.7752 6.29719C29.7752 6.5537 29.7326 6.74111 29.6732 6.88897C29.6133 7.03769 29.5345 7.15167 29.453 7.26306C29.374 7.37103 29.2841 7.48638 29.2265 7.62165C29.1662 7.76331 29.1415 7.92346 29.1759 8.12728L29.4224 8.08572C29.3957 7.92725 29.4156 7.81567 29.4565 7.71963C29.5001 7.61722 29.5682 7.52891 29.6547 7.41072C29.7388 7.29594 29.8331 7.16125 29.9051 6.98225C29.9774 6.80239 30.0252 6.58303 30.0252 6.29719H29.7752ZM29.1758 8.12684C29.2 8.2736 29.1629 8.35839 29.1006 8.41815C29.0297 8.48618 28.9104 8.53665 28.7434 8.57292C28.5788 8.60866 28.3865 8.62701 28.1836 8.64409C27.9842 8.66087 27.7738 8.67645 27.586 8.70781L27.6272 8.95439C27.8023 8.92515 28 8.91043 28.2046 8.89321C28.4058 8.87627 28.6137 8.85691 28.7964 8.81723C28.9767 8.77808 29.1519 8.71541 29.2737 8.59858C29.4041 8.47349 29.458 8.3017 29.4225 8.08616L29.1758 8.12684ZM27.5858 8.70784C27.3796 8.74264 27.2483 8.82775 27.184 8.96846C27.1547 9.03254 27.1435 9.09984 27.1387 9.1618C27.1339 9.22274 27.135 9.28797 27.1349 9.34506C27.1349 9.46618 27.1298 9.56887 27.0862 9.66188C27.0452 9.74937 26.9622 9.84352 26.773 9.92478L26.8716 10.1545C27.1047 10.0544 27.2404 9.92204 27.3126 9.768C27.3822 9.61948 27.3849 9.46559 27.3849 9.34518C27.385 9.2815 27.3841 9.22973 27.3879 9.18118C27.3916 9.13366 27.3992 9.09899 27.4114 9.07239C27.43 9.03173 27.472 8.98059 27.6274 8.95436L27.5858 8.70784ZM26.7732 9.92466C26.3296 10.1139 26.0895 10.3818 26.0423 10.6669C25.9945 10.9547 26.1512 11.2128 26.3982 11.3541L26.5223 11.1371C26.347 11.0368 26.2616 10.8724 26.2889 10.7078C26.3166 10.5406 26.4687 10.3264 26.8713 10.1546L26.7732 9.92466ZM26.3983 11.3541C26.5347 11.432 26.578 11.608 26.5404 11.9013C26.5225 12.0407 26.4882 12.1913 26.4497 12.3441C26.412 12.4938 26.369 12.65 26.3382 12.7878L26.5822 12.8423C26.6121 12.7086 26.6524 12.5629 26.6921 12.4052C26.7311 12.2505 26.7685 12.088 26.7884 11.9331C26.8262 11.6378 26.8089 11.3006 26.5222 11.137L26.3983 11.3541ZM26.3382 12.7878C26.3213 12.8636 26.3149 12.9354 26.3269 12.9986C26.3396 13.0656 26.3751 13.1287 26.4423 13.1648C26.504 13.198 26.5716 13.1968 26.6272 13.1864C26.6842 13.1757 26.7439 13.1526 26.8025 13.1233C27.0341 13.0078 27.3336 12.7535 27.5812 12.4763L27.3947 12.3098C27.1572 12.5758 26.8823 12.8042 26.6909 12.8996C26.6438 12.9231 26.6072 12.9358 26.5813 12.9406C26.5538 12.9458 26.5517 12.9398 26.5606 12.9446C26.575 12.9523 26.5747 12.9636 26.5725 12.9518C26.5695 12.9362 26.5688 12.9023 26.5822 12.8423L26.3382 12.7878ZM27.5814 12.4761C27.6823 12.3627 27.7749 12.328 27.8565 12.3219C27.9449 12.3152 28.0346 12.3407 28.1327 12.3753C28.178 12.3913 28.2309 12.4114 28.2774 12.4255C28.3241 12.4396 28.3802 12.453 28.4371 12.4497C28.4998 12.446 28.5624 12.4222 28.6118 12.3666C28.6571 12.3158 28.6821 12.2486 28.6967 12.1751L28.4515 12.1262C28.4411 12.1787 28.4284 12.1966 28.4251 12.2004C28.4241 12.2015 28.4247 12.2006 28.4265 12.1998C28.428 12.1991 28.4274 12.1998 28.4227 12.2001C28.4108 12.2008 28.3888 12.198 28.3498 12.1862C28.3105 12.1743 28.2701 12.1587 28.216 12.1396C28.1154 12.1041 27.9825 12.0617 27.8377 12.0726C27.6861 12.084 27.5349 12.1523 27.3946 12.31L27.5814 12.4761ZM28.6967 12.1753C28.7383 11.969 28.6454 11.7981 28.5203 11.6616C28.397 11.5271 28.2243 11.4061 28.0647 11.2948C27.8991 11.1792 27.746 11.0731 27.6361 10.9605C27.5267 10.8484 27.4807 10.7509 27.4902 10.6535L27.2414 10.6291C27.2213 10.8343 27.3267 11.0014 27.4572 11.1351C27.5872 11.2683 27.7626 11.3888 27.9217 11.4998C28.0868 11.615 28.2349 11.7202 28.336 11.8306C28.4354 11.9389 28.4706 12.0314 28.4516 12.1259L28.6967 12.1753ZM27.4902 10.6539C27.4962 10.5947 27.5111 10.5692 27.5205 10.5584C27.5285 10.5492 27.542 10.5396 27.5735 10.5346C27.6075 10.5292 27.6545 10.5306 27.7183 10.5401C27.7814 10.5495 27.8528 10.5654 27.9343 10.5843C28.2467 10.6569 28.7026 10.7788 29.1126 10.5734L29.0006 10.3499C28.6864 10.5073 28.3275 10.419 27.9909 10.3408C27.91 10.322 27.8295 10.3039 27.7551 10.2928C27.6814 10.2819 27.6052 10.2765 27.5344 10.2877C27.461 10.2993 27.3881 10.3298 27.3321 10.394C27.2775 10.4566 27.2507 10.5379 27.2415 10.6286L27.4902 10.6539ZM29.1123 10.5736C29.4379 10.4114 29.9478 10.3912 30.5008 10.5164C31.0497 10.6408 31.619 10.9037 32.0546 11.28L32.218 11.0908C31.7471 10.684 31.139 10.4046 30.556 10.2726C29.977 10.1415 29.4003 10.1509 29.0009 10.3498L29.1123 10.5736ZM32.0544 11.2798C32.284 11.479 32.4801 11.6172 32.6501 11.6919C32.8213 11.7672 32.9838 11.7853 33.1279 11.7135C33.2666 11.6444 33.3574 11.5066 33.4238 11.3448C33.4911 11.1808 33.5421 10.9706 33.5878 10.7271L33.3421 10.681C33.2971 10.9206 33.2498 11.1103 33.1925 11.2499C33.1343 11.3916 33.074 11.4611 33.0164 11.4898C32.9642 11.5158 32.8851 11.5221 32.7507 11.4631C32.615 11.4034 32.4414 11.2846 32.2182 11.091L32.0544 11.2798ZM33.5879 10.7269C33.6666 10.3043 34.0129 9.98243 34.5388 9.76341C35.0624 9.5453 35.7395 9.44091 36.4234 9.44091V9.19091C35.7183 9.19091 35.0061 9.29797 34.4427 9.53263C33.8815 9.76637 33.4431 10.1386 33.3421 10.6812L33.5879 10.7269ZM36.4234 9.44091C37.1278 9.44091 37.5592 9.27397 37.7469 9.01952C37.844 8.88795 37.8707 8.73813 37.8347 8.59647C37.7994 8.45775 37.7068 8.33653 37.582 8.24787L37.4372 8.45168C37.5235 8.513 37.5745 8.58754 37.5924 8.65809C37.6096 8.72569 37.5992 8.79866 37.5457 8.87113C37.4324 9.02476 37.1096 9.19091 36.4234 9.19091V9.44091ZM37.5822 8.24804C37.5816 8.2476 37.584 8.24923 37.5865 8.25357C37.5892 8.25798 37.59 8.26183 37.5901 8.26331C37.5902 8.26418 37.5892 8.25288 37.6017 8.22429C37.6269 8.16644 37.6865 8.08404 37.7821 7.97883C37.9707 7.77145 38.2628 7.51437 38.5738 7.24525C38.8816 6.97896 39.2065 6.70192 39.4499 6.46145C39.5714 6.34136 39.6768 6.22629 39.7507 6.12292C39.7876 6.0712 39.8191 6.01904 39.8404 5.96788C39.8613 5.91774 39.8763 5.85945 39.8687 5.79931L39.6207 5.83067C39.6207 5.83033 39.6211 5.83325 39.6197 5.84048C39.6183 5.84774 39.6154 5.85803 39.6097 5.87164C39.5981 5.89935 39.5779 5.93463 39.5472 5.97761C39.4858 6.06363 39.3922 6.16695 39.2741 6.28363C39.0383 6.51672 38.7216 6.78678 38.4102 7.0562C38.1021 7.32279 37.7977 7.59003 37.5971 7.81065C37.4982 7.91943 37.415 8.02695 37.3726 8.12432C37.3512 8.17334 37.335 8.23098 37.3417 8.29078C37.3489 8.35659 37.3825 8.41265 37.4369 8.45151L37.5822 8.24804ZM39.8687 5.79934C39.863 5.75375 39.8476 5.70433 39.8115 5.66396C39.7733 5.62131 39.724 5.60198 39.6766 5.59722C39.594 5.58892 39.5049 5.62371 39.4315 5.65938C39.277 5.73435 39.0733 5.87584 38.8768 6.00304C38.6721 6.13553 38.4695 6.25691 38.296 6.31433C38.1195 6.37276 38.0261 6.35017 37.971 6.27957L37.774 6.43339C37.9309 6.6344 38.1699 6.61944 38.3746 6.55166C38.5824 6.48286 38.8099 6.34417 39.0126 6.2129C39.2236 6.07634 39.4046 5.95035 39.5406 5.88428C39.5733 5.86843 39.5998 5.85788 39.6206 5.85181C39.6308 5.84883 39.6386 5.84725 39.6442 5.8465C39.6498 5.84575 39.6521 5.84601 39.6516 5.84597C39.6489 5.84569 39.636 5.84282 39.6251 5.83062C39.6163 5.82071 39.6188 5.81575 39.6207 5.83064L39.8687 5.79934ZM26.7051 14.5127C26.5185 14.6065 26.3638 14.8094 26.2456 15.0439C26.1252 15.2829 26.033 15.5742 25.9821 15.8713C25.9312 16.1682 25.9204 16.4771 25.9678 16.7508C26.0149 17.0229 26.1223 17.2749 26.3212 17.4366L26.4789 17.2427C26.345 17.1338 26.2558 16.9488 26.2142 16.7082C26.1728 16.4694 26.1811 16.19 26.2285 15.9136C26.2758 15.6373 26.3611 15.3703 26.4689 15.1564C26.5788 14.9381 26.7029 14.7936 26.8174 14.7361L26.7051 14.5127ZM26.3209 17.4364C26.3846 17.4886 26.4118 17.5394 26.4213 17.5889C26.4314 17.6414 26.4242 17.7064 26.3938 17.7892C26.3315 17.9594 26.1892 18.1594 26.0126 18.3976C25.8409 18.629 25.6423 18.8898 25.4919 19.1653C25.3412 19.4413 25.2316 19.7446 25.2484 20.0641L25.498 20.051C25.4847 19.7968 25.5714 19.5414 25.7113 19.2851C25.8515 19.0283 26.0379 18.7832 26.2134 18.5465C26.384 18.3165 26.5513 18.0861 26.6286 17.8752C26.6681 17.7673 26.6883 17.654 26.6668 17.5418C26.6448 17.4267 26.5815 17.3266 26.4792 17.2429L26.3209 17.4364ZM25.2484 20.064C25.262 20.3275 25.2064 20.5176 25.1174 20.6694C25.0268 20.8241 24.8972 20.9465 24.749 21.0685C24.4646 21.3026 24.0833 21.5453 23.9816 22.0213L24.226 22.0735C24.3049 21.7045 24.5879 21.5248 24.9079 21.2615C25.0619 21.1347 25.2195 20.9897 25.3331 20.7959C25.4484 20.5993 25.514 20.3601 25.498 20.0511L25.2484 20.064ZM23.9816 22.0213C23.9401 22.2156 23.8732 22.3417 23.787 22.4368C23.699 22.5338 23.5835 22.6067 23.4295 22.6837C23.1246 22.8361 22.6821 22.9957 22.1558 23.3972L22.3074 23.596C22.8088 23.2135 23.2121 23.0719 23.5413 22.9073C23.7042 22.8259 23.8528 22.7364 23.9722 22.6048C24.0934 22.4712 24.1772 22.3025 24.2261 22.0735L23.9816 22.0213ZM22.1556 23.3973C21.9123 23.5834 21.7081 23.6607 21.5471 23.6749C21.3884 23.6888 21.2647 23.6423 21.1732 23.5657C20.9831 23.4065 20.9191 23.1052 21.0179 22.884L20.7896 22.7821C20.6466 23.1023 20.7345 23.5244 21.0127 23.7573C21.1554 23.8768 21.3448 23.9436 21.5689 23.9239C21.7906 23.9044 22.0388 23.8013 22.3075 23.5959L22.1556 23.3973ZM21.018 22.8837C21.0521 22.8067 21.0796 22.6896 20.9944 22.6039C20.9559 22.5653 20.9078 22.5493 20.8665 22.5435C20.825 22.5376 20.7816 22.5406 20.7399 22.5479C20.5776 22.5761 20.3573 22.685 20.1424 22.8453C19.7118 23.1664 19.2368 23.7449 19.2696 24.4684L19.5193 24.4571C19.4919 23.8525 19.8923 23.3437 20.2919 23.0457C20.492 22.8964 20.6754 22.8129 20.7828 22.7941C20.8086 22.7897 20.8242 22.79 20.8315 22.791C20.8391 22.7921 20.8294 22.7925 20.8172 22.7803C20.7846 22.7475 20.8157 22.7231 20.7895 22.7824L21.018 22.8837ZM19.2696 24.4685C19.2973 25.0625 18.9262 25.3893 18.5525 25.658C18.463 25.7224 18.3651 25.7892 18.2843 25.8489C18.2018 25.9099 18.1229 25.9736 18.062 26.0421C18.001 26.1108 17.9498 26.1934 17.9384 26.2922C17.9266 26.3939 17.959 26.4918 18.0244 26.5852L18.2292 26.4419C18.189 26.3844 18.1838 26.3466 18.1867 26.321C18.19 26.2926 18.206 26.2564 18.2488 26.2082C18.2918 26.1599 18.3536 26.1086 18.433 26.0499C18.5141 25.9899 18.5993 25.9323 18.6985 25.861C19.0796 25.587 19.5535 25.19 19.5193 24.4569L19.2696 24.4685ZM18.0243 26.5852C18.0634 26.6411 18.0705 26.6832 18.0671 26.7142C18.0636 26.7468 18.0466 26.7843 18.0077 26.8256C17.9271 26.9115 17.7758 26.9881 17.5979 27.0342C17.4214 27.08 17.2424 27.0895 17.1184 27.0619C17.0563 27.0481 17.0197 27.0276 17.0012 27.0093C16.9874 26.9957 16.9792 26.9798 16.9825 26.949L16.734 26.9222C16.7227 27.0272 16.7564 27.1189 16.8255 27.1871C16.8899 27.2508 16.977 27.2866 17.0642 27.3059C17.2387 27.3447 17.4598 27.3282 17.6606 27.2762C17.8601 27.2245 18.0633 27.1316 18.19 26.9968C18.2548 26.9277 18.3047 26.842 18.3156 26.7412C18.3268 26.6388 18.2959 26.5373 18.2292 26.4419L18.0243 26.5852ZM16.9825 26.9496C16.9925 26.8607 16.979 26.7746 16.9304 26.7017C16.8822 26.6293 16.8097 26.5851 16.731 26.5595C16.5798 26.5104 16.373 26.5194 16.1433 26.5579C15.6766 26.6361 15.0324 26.8516 14.3386 27.1226L14.4295 27.3555C15.122 27.085 15.7454 26.878 16.1846 26.8045C16.4078 26.7671 16.5634 26.7679 16.6538 26.7973C16.6959 26.811 16.7139 26.8277 16.7223 26.8402C16.7303 26.8522 16.7393 26.8752 16.7341 26.9216L16.9825 26.9496ZM14.3385 27.1226C13.685 27.3782 13.1621 27.2388 12.6776 27.1178C12.4391 27.0582 12.1981 26.9998 11.9649 27.0122C11.7232 27.025 11.4941 27.1131 11.2762 27.3312L11.453 27.5079C11.6268 27.334 11.7974 27.2714 11.9782 27.2618C12.1676 27.2518 12.3721 27.2991 12.617 27.3603C13.0991 27.4808 13.6942 27.6431 14.4296 27.3554L14.3385 27.1226ZM11.2762 27.3311C10.8813 27.7258 10.3573 28.2644 9.80381 28.7279C9.24571 29.1952 8.67906 29.5672 8.20121 29.6516L8.24469 29.8978C8.7937 29.8008 9.40483 29.388 9.96431 28.9195C10.5284 28.4472 11.0618 27.8989 11.4529 27.5079L11.2762 27.3311ZM8.20148 29.6515C7.91785 29.701 7.72652 29.8287 7.62185 30.0053C7.51903 30.1789 7.51175 30.3797 7.55409 30.5554C7.59627 30.7303 7.69079 30.8947 7.81266 31.0025C7.93365 31.1096 8.10664 31.1785 8.27883 31.0924L8.16708 30.8688C8.12203 30.8913 8.05827 30.886 7.97835 30.8153C7.89931 30.7454 7.82879 30.6281 7.79713 30.4968C7.76565 30.3662 7.77576 30.236 7.83693 30.1328C7.89625 30.0326 8.01551 29.9377 8.24443 29.8978L8.20148 29.6515ZM8.27883 31.0924C8.44188 31.0109 8.63345 30.9679 8.84209 30.9432C9.05197 30.9184 9.26719 30.9131 9.48337 30.9016C9.69479 30.8904 9.90739 30.8732 10.0921 30.8211C10.2788 30.7685 10.4495 30.6767 10.5628 30.5079L10.3552 30.3686C10.2865 30.4709 10.1776 30.5373 10.0243 30.5805C9.86907 30.6243 9.6815 30.6407 9.47012 30.652C9.2635 30.6629 9.03329 30.6689 8.8127 30.695C8.59088 30.7212 8.36696 30.7689 8.16708 30.8688L8.27883 31.0924ZM10.5631 30.5074C10.5924 30.4633 10.6583 30.4051 10.7725 30.3377C10.8837 30.272 11.0293 30.204 11.2039 30.1356C11.5531 29.9989 12.0073 29.8647 12.5097 29.7449C13.515 29.5051 14.6991 29.326 15.5948 29.2962L15.5865 29.0464C14.6701 29.0768 13.469 29.2591 12.4517 29.5017C11.9429 29.6231 11.4766 29.7604 11.1128 29.9028C10.931 29.974 10.7721 30.0475 10.6453 30.1224C10.5214 30.1956 10.4159 30.2772 10.3548 30.3691L10.5631 30.5074ZM15.5949 29.2962C16.0455 29.2808 16.2847 29.3282 16.4059 29.3997C16.4615 29.4325 16.49 29.4692 16.5057 29.5084C16.5226 29.5505 16.5288 29.6055 16.5223 29.6794C16.5158 29.7535 16.4973 29.8381 16.4718 29.9357C16.4592 29.9841 16.4452 30.0342 16.4306 30.0871C16.4161 30.1395 16.401 30.1944 16.3866 30.2506C16.3293 30.4741 16.2793 30.7306 16.3129 30.9963L16.5609 30.9649C16.5334 30.7476 16.5734 30.5286 16.6288 30.3127C16.6426 30.259 16.6571 30.2062 16.6716 30.1537C16.686 30.1016 16.7005 30.0494 16.7137 29.9988C16.74 29.8982 16.7629 29.7971 16.7713 29.7014C16.7798 29.6057 16.7746 29.5072 16.7377 29.4153C16.6997 29.3205 16.6319 29.2428 16.5329 29.1844C16.3448 29.0734 16.0409 29.0308 15.5864 29.0464L15.5949 29.2962ZM16.3129 30.9962C16.3477 31.2739 16.4855 31.4777 16.6898 31.6029C16.8897 31.7254 17.1428 31.7666 17.4053 31.7466C17.9295 31.7065 18.5334 31.4195 18.947 30.9431L18.7583 30.7792C18.3867 31.207 17.8433 31.4624 17.3863 31.4973C17.1582 31.5147 16.9622 31.4766 16.8204 31.3897C16.6831 31.3056 16.5867 31.17 16.5609 30.965L16.3129 30.9962ZM18.9472 30.9429C19.1375 30.7227 19.3169 30.5611 19.4703 30.4333C19.6175 30.3107 19.7586 30.2057 19.8468 30.1173C19.9383 30.0256 20.019 29.9076 19.9744 29.754C19.9549 29.6869 19.9142 29.6251 19.8624 29.5659C19.8101 29.5063 19.7407 29.4427 19.6549 29.3727L19.4968 29.5663C19.5777 29.6324 19.6352 29.6859 19.6743 29.7306C19.7139 29.7759 19.7291 29.8057 19.7343 29.8237C19.7391 29.8402 19.7445 29.8659 19.6699 29.9407C19.592 30.0187 19.4763 30.1029 19.3103 30.2412C19.1503 30.3745 18.96 30.5457 18.7581 30.7794L18.9472 30.9429ZM19.6549 29.3726C19.5028 29.2486 19.454 29.1439 19.4468 29.0787C19.4404 29.0205 19.4647 28.9793 19.5099 28.9538C19.6054 28.9002 19.8567 28.908 20.0773 29.2396L20.2854 29.1012C20.0235 28.7074 19.6401 28.594 19.3875 28.7359C19.2587 28.8082 19.1806 28.9439 19.1983 29.1059C19.2153 29.2609 19.317 29.4196 19.4969 29.5664L19.6549 29.3726ZM20.0774 29.2398C20.3502 29.6485 20.897 29.8532 21.4375 29.8369C21.9824 29.8204 22.5544 29.5794 22.8836 29.0537L22.6718 28.921C22.3965 29.3605 21.9115 29.5724 21.43 29.587C20.9441 29.6016 20.495 29.4152 20.2853 29.101L20.0774 29.2398ZM22.8836 29.0537C23.0321 28.8167 23.1344 28.7451 23.1977 28.7288C23.2515 28.715 23.3113 28.7333 23.412 28.8091C23.4613 28.8461 23.5106 28.8891 23.5698 28.9387C23.6271 28.9867 23.6911 29.0384 23.7615 29.0845C23.9041 29.1779 24.0788 29.2517 24.2968 29.2331L24.2755 28.984C24.1314 28.9963 24.0121 28.9498 23.8984 28.8754C23.8408 28.8376 23.786 28.7936 23.7303 28.747C23.6765 28.702 23.6184 28.6515 23.5622 28.6093C23.4519 28.5263 23.3081 28.4424 23.1356 28.4867C22.9725 28.5285 22.8256 28.6753 22.6718 28.921L22.8836 29.0537ZM24.2963 29.2331C24.5282 29.2142 24.7188 29.058 24.8679 28.8826C25.0196 28.7042 25.1475 28.4831 25.25 28.2935C25.2758 28.2458 25.3002 28.1995 25.3231 28.1563C25.3461 28.1128 25.3673 28.0725 25.3872 28.0358C25.4282 27.9602 25.459 27.9079 25.4818 27.8782C25.4943 27.862 25.496 27.8637 25.4872 27.869C25.4816 27.8723 25.467 27.8799 25.4452 27.8807C25.4209 27.8816 25.3984 27.8737 25.3814 27.8612C25.3555 27.8421 25.3542 27.8214 25.3595 27.8396C25.363 27.852 25.3673 27.875 25.3709 27.9132L25.6198 27.8903C25.6157 27.8455 25.6096 27.8049 25.5998 27.7709C25.5918 27.7428 25.5745 27.693 25.5298 27.66C25.5034 27.6406 25.4708 27.6296 25.4357 27.6309C25.4032 27.6321 25.3771 27.6436 25.3593 27.6542C25.3262 27.6739 25.3009 27.7033 25.2836 27.7258C25.2469 27.7735 25.2074 27.8429 25.1674 27.9168C25.1468 27.9549 25.1249 27.9963 25.1021 28.0394C25.0792 28.0828 25.0552 28.128 25.0301 28.1746C24.9286 28.3623 24.811 28.5635 24.6775 28.7207C24.5414 28.8807 24.407 28.9732 24.276 28.9839L24.2963 29.2331ZM25.3708 27.9132C25.39 28.1216 25.4985 28.2731 25.6649 28.357C25.8241 28.4373 26.0251 28.4507 26.2323 28.4184C26.6481 28.3535 27.1409 28.097 27.5204 27.6866L27.3369 27.5169C26.9914 27.8904 26.5481 28.1161 26.1937 28.1714C26.0159 28.1991 25.8733 28.1821 25.7775 28.1338C25.689 28.0892 25.6312 28.0141 25.6198 27.8903L25.3708 27.9132ZM27.5206 27.6864C27.9212 27.2513 27.9305 26.6565 27.9155 26.1259C27.9078 25.8526 27.8931 25.5965 27.9095 25.3603C27.9258 25.1255 27.9721 24.9283 28.0753 24.7736L27.8673 24.6349C27.7292 24.842 27.6776 25.0896 27.6601 25.3431C27.6426 25.5952 27.6582 25.8707 27.6656 26.133C27.6809 26.6736 27.6602 27.1658 27.3367 27.5171L27.5206 27.6864ZM28.0753 24.7735C28.3261 24.3969 28.5731 23.8231 28.6967 23.2274C28.8197 22.6348 28.8255 21.996 28.564 21.5055L28.3434 21.6231C28.5644 22.0377 28.5702 22.6066 28.452 23.1766C28.3343 23.7434 28.0989 24.287 27.8672 24.635L28.0753 24.7735ZM28.564 21.5055C28.4628 21.3155 28.47 21.1497 28.5456 20.9887C28.6252 20.8192 28.7832 20.6507 28.9943 20.4767C29.2043 20.3036 29.4535 20.1355 29.7058 19.961C29.9552 19.7885 30.2074 19.6099 30.411 19.4212L30.241 19.2378C30.0523 19.4127 29.8142 19.5821 29.5636 19.7554C29.316 19.9266 29.0556 20.1022 28.8353 20.2837C28.6161 20.4644 28.423 20.6617 28.3193 20.8824C28.2116 21.1117 28.2035 21.3606 28.3434 21.6231L28.564 21.5055ZM30.4106 19.4215C30.5367 19.3054 30.6043 19.1395 30.6356 18.954C30.6671 18.768 30.6642 18.5504 30.6391 18.3155C30.5888 17.8456 30.4464 17.2822 30.28 16.7153C30.114 16.1496 29.9196 15.5657 29.7664 15.0671C29.6106 14.5598 29.499 14.1449 29.485 13.8911L29.2354 13.905C29.2514 14.1949 29.3738 14.6404 29.5274 15.1405C29.6837 15.6492 29.8741 16.2198 30.0402 16.7856C30.2059 17.3503 30.3427 17.8957 30.3905 18.3421C30.4144 18.5653 30.4153 18.7577 30.3891 18.9123C30.3629 19.0675 30.3115 19.1729 30.2413 19.2375L30.4106 19.4215ZM29.485 13.891C29.4764 13.7377 29.4334 13.6097 29.3455 13.519C29.2564 13.4271 29.1384 13.3912 29.0171 13.3874C28.7838 13.3802 28.4927 13.4903 28.2089 13.6302C27.9194 13.7729 27.6144 13.9588 27.3472 14.1257C27.0755 14.2953 26.8494 14.4408 26.7055 14.5125L26.817 14.7363C26.975 14.6576 27.217 14.5017 27.4796 14.3377C27.7468 14.1709 28.0423 13.991 28.3195 13.8544C28.6024 13.715 28.8439 13.6322 29.0094 13.6373C29.0874 13.6397 29.1352 13.6613 29.166 13.693C29.1979 13.7259 29.2288 13.7876 29.2354 13.9051L29.485 13.891ZM13.3593 30.2742C13.3075 30.4161 13.2345 30.4972 13.1455 30.549C13.0521 30.6033 12.9304 30.6315 12.7706 30.6462C12.6091 30.6611 12.4295 30.6609 12.2153 30.6689C12.0052 30.6767 11.7717 30.6922 11.5212 30.7392L11.5673 30.9849C11.8002 30.9412 12.0196 30.9263 12.2246 30.9187C12.4254 30.9113 12.6231 30.9108 12.7935 30.8952C12.9657 30.8793 13.1307 30.8468 13.2713 30.7651C13.4163 30.6807 13.5247 30.5502 13.5941 30.3599L13.3593 30.2742ZM11.5214 30.7391C11.2282 30.7939 11.0186 31.0076 10.8804 31.2716C10.742 31.5359 10.6662 31.8659 10.6444 32.1913C10.6227 32.5169 10.6545 32.8482 10.7401 33.1174C10.8234 33.3793 10.9697 33.6172 11.2029 33.695L11.282 33.4579C11.1662 33.4192 11.0549 33.2822 10.9783 33.0416C10.9041 32.8082 10.8737 32.5093 10.8939 32.2079C10.914 31.9064 10.984 31.6127 11.1019 31.3875C11.22 31.162 11.377 31.0204 11.5672 30.9849L11.5214 30.7391ZM11.203 33.695C11.476 33.7858 11.7533 33.8447 11.9922 33.762C12.2448 33.6745 12.4143 33.4457 12.5093 33.0633L12.2666 33.0031C12.1819 33.3444 12.05 33.4774 11.9104 33.5258C11.7571 33.5789 11.5516 33.5475 11.2819 33.4578L11.203 33.695ZM12.5092 33.0635C12.5865 32.7539 12.8335 32.539 13.1447 32.4352C13.4574 32.331 13.8156 32.3464 14.0842 32.4798L14.1954 32.256C13.8602 32.0894 13.4328 32.0757 13.0656 32.1981C12.697 32.321 12.37 32.5888 12.2667 33.0029L12.5092 33.0635ZM14.0837 32.4796C14.2806 32.5784 14.4869 32.5488 14.6708 32.4504C14.852 32.3535 15.0201 32.1864 15.1624 31.9886C15.4466 31.5936 15.6537 31.04 15.6537 30.5568H15.4037C15.4037 30.9788 15.2186 31.4824 14.9595 31.8426C14.8302 32.0223 14.6888 32.1572 14.5529 32.23C14.4197 32.3013 14.3012 32.3091 14.1958 32.2562L14.0837 32.4796ZM15.6537 30.557C15.6539 30.282 15.5136 30.0767 15.3123 29.9412C15.1151 29.8085 14.8577 29.7405 14.6017 29.7246C14.3449 29.7086 14.0775 29.7444 13.8545 29.831C13.6344 29.9166 13.4375 30.0604 13.3593 30.2741L13.5941 30.36C13.6373 30.2419 13.7576 30.1369 13.9451 30.0641C14.1297 29.9923 14.3603 29.9601 14.5862 29.9741C14.8131 29.9882 15.0233 30.0481 15.1728 30.1487C15.3183 30.2466 15.4039 30.38 15.4037 30.5567L15.6537 30.557ZM9.43326 32.6713C9.43326 32.4635 9.31459 32.3239 9.16847 32.2282C9.02728 32.1358 8.84363 32.0727 8.67698 32.017C8.50239 31.9586 8.34474 31.9078 8.22488 31.8404C8.10644 31.7738 8.05462 31.7076 8.04623 31.6306L7.7977 31.6577C7.81898 31.8528 7.95527 31.9756 8.10232 32.0583C8.24796 32.1402 8.43317 32.1991 8.59773 32.2541C8.77025 32.3117 8.92204 32.3657 9.03151 32.4374C9.13605 32.5058 9.18326 32.5774 9.18326 32.6713H9.43326ZM8.04616 31.63C8.03639 31.5443 8.00893 31.467 7.96016 31.4032C7.91104 31.339 7.84569 31.2956 7.77184 31.2699C7.62925 31.2201 7.45285 31.2348 7.27058 31.2825C6.90185 31.3789 6.43461 31.6305 5.97591 31.9662L6.12355 32.1679C6.57043 31.8409 7.00834 31.6095 7.33384 31.5243C7.49869 31.4812 7.61668 31.4805 7.68944 31.5059C7.72328 31.5177 7.74584 31.5346 7.7616 31.5551C7.77769 31.5762 7.79206 31.6082 7.79777 31.6583L8.04616 31.63ZM5.97591 31.9662C5.75295 32.1294 5.55986 32.2644 5.40865 32.3803C5.25749 32.4961 5.13375 32.6032 5.05069 32.7166C4.9639 32.8352 4.92053 32.9621 4.9313 33.1107C4.94158 33.2523 5.00048 33.403 5.09368 33.5743L5.31326 33.4548C5.22587 33.2942 5.18706 33.181 5.18065 33.0926C5.17474 33.011 5.19571 32.9418 5.25243 32.8643C5.31289 32.7817 5.41184 32.6928 5.56069 32.5787C5.70948 32.4647 5.89372 32.3361 6.12355 32.1679L5.97591 31.9662ZM5.09377 33.5744C5.19333 33.7567 5.31872 33.8769 5.47144 33.9152C5.62531 33.9538 5.77227 33.9007 5.8951 33.813C6.13611 33.6409 6.34328 33.2965 6.46735 32.9546L6.23234 32.8694C6.11562 33.191 5.93107 33.4801 5.74983 33.6095C5.66152 33.6726 5.58972 33.6872 5.53225 33.6728C5.47362 33.6581 5.39508 33.6046 5.31317 33.4546L5.09377 33.5744ZM6.46732 32.9547C6.49487 32.879 6.51532 32.8748 6.50464 32.8794C6.47785 32.8911 6.46696 32.8692 6.49076 32.8912C6.51462 32.9134 6.5473 32.9595 6.58206 33.0352C6.61586 33.1088 6.64808 33.2025 6.67507 33.3117C6.7843 33.7538 6.79636 34.4003 6.5417 34.9086L6.76521 35.0206C7.05493 34.4424 7.03603 33.7304 6.91777 33.2517C6.88789 33.1308 6.85095 33.0216 6.80924 32.9308C6.76848 32.8421 6.71928 32.7623 6.66083 32.708C6.6023 32.6537 6.50864 32.6049 6.40457 32.6503C6.31659 32.6887 6.26524 32.7789 6.23237 32.8693L6.46732 32.9547ZM6.54168 34.9086C6.25146 35.4883 6.27166 36.1784 6.45506 36.7039C6.54691 36.9671 6.68278 37.1982 6.85099 37.3559C7.02016 37.5145 7.23175 37.6063 7.46157 37.56L7.41222 37.3149C7.28477 37.3406 7.15176 37.2952 7.02198 37.1735C6.89125 37.0509 6.77384 36.8586 6.6911 36.6215C6.52531 36.1465 6.51104 35.5282 6.76522 35.0206L6.54168 34.9086ZM7.46099 37.5601C7.56798 37.5391 7.66641 37.4757 7.7554 37.3956C7.84555 37.3144 7.93519 37.2076 8.02422 37.0848C8.20216 36.8395 8.38877 36.5146 8.58137 36.164C8.97061 35.4555 9.38682 34.6391 9.83125 34.0759L9.63501 33.921C9.17385 34.5054 8.74381 35.3491 8.36226 36.0436C8.16947 36.3945 7.98954 36.7068 7.82184 36.9381C7.73804 37.0536 7.66008 37.145 7.5881 37.2098C7.51496 37.2757 7.45674 37.3062 7.4128 37.3148L7.46099 37.5601ZM9.83119 34.076C10.0587 33.7882 10.1706 33.5707 10.1741 33.3945C10.1761 33.2994 10.1465 33.2196 10.0944 33.1549C10.0449 33.0935 9.97965 33.0513 9.91792 33.0194C9.85643 32.9877 9.78768 32.9611 9.72816 32.9373C9.66565 32.9122 9.61093 32.8894 9.56399 32.8627C9.51747 32.8362 9.48562 32.8096 9.46528 32.7812C9.44646 32.755 9.43326 32.7214 9.43326 32.6713H9.18326C9.18326 32.7717 9.21166 32.8566 9.2621 32.9269C9.31103 32.9951 9.37611 33.0434 9.44023 33.0799C9.50395 33.1162 9.57359 33.1447 9.63523 33.1694C9.69986 33.1952 9.75504 33.2167 9.80331 33.2416C9.85134 33.2664 9.88166 33.2893 9.8997 33.3117C9.91508 33.3308 9.92491 33.3534 9.92418 33.3894C9.92243 33.4756 9.86079 33.6354 9.63507 33.9209L9.83119 34.076Z" fill="#868686"/>
</g>
<defs>
<filter id="filter0_d_877_3435" x="0.929688" y="0.955078" width="42.9414" height="42.6172" filterUnits="userSpaceOnUse" color-interpolation-filters="sRGB">
<feFlood flood-opacity="0" result="BackgroundImageFix"/>
<feColorMatrix in="SourceAlpha" type="matrix" values="0 0 0 0 0 0 0 0 0 0 0 0 0 0 0 0 0 0 127 0" result="hardAlpha"/>
<feOffset dy="2"/>
<feGaussianBlur stdDeviation="2"/>
<feColorMatrix type="matrix" values="0 0 0 0 0 0 0 0 0 0 0 0 0 0 0 0 0 0 0.01 0"/>
<feBlend mode="normal" in2="BackgroundImageFix" result="effect1_dropShadow_877_3435"/>
<feBlend mode="normal" in="SourceGraphic" in2="effect1_dropShadow_877_3435" result="shape"/>
</filter>
</defs>
</svg>
