<svg width="23" height="21" viewBox="0 0 23 21" fill="none" xmlns="http://www.w3.org/2000/svg">
<g filter="url(#filter0_d_877_3251)">
<path fill-rule="evenodd" clip-rule="evenodd" d="M6.74797 4.40484C6.36759 4.7824 5.48382 4.90884 5.6112 5.53926C5.73683 6.17143 5.48382 6.80186 4.85218 7.55698C4.22491 8.31122 4.59569 9.43692 4.72481 10.3176C5.48557 10.2627 6.27599 10.2522 6.4339 10.4074C6.75146 10.7239 6.87884 10.4074 7.0699 9.77263C7.26096 9.1361 7.64134 9.19975 8.02521 9.51889C8.40646 9.83541 8.66034 10.3446 9.29809 10.0255C9.93409 9.70897 9.8704 9.89906 10.1888 10.0255C10.5073 10.1545 11.7793 9.96358 12.2242 10.0255C12.6709 10.0891 16.555 14.2257 16.555 14.2257C16.555 14.2257 16.5454 14.2397 16.5288 14.2693C17.0191 14.3243 17.355 14.3975 17.505 14.1987C17.567 14.1132 17.7877 13.9702 18.0582 13.8133C17.5626 13.3477 16.842 12.5838 15.8832 11.3744C14.7359 9.92522 13.3776 9.14133 12.6517 9.14133C11.9276 9.14133 11.8063 7.90489 11.3553 7.84472C10.9007 7.78543 9.87564 6.00227 9.84423 4.85652C9.82765 4.21127 9.29111 3.31315 8.69873 2.58594C7.9781 3.73692 7.01406 4.13541 6.74797 4.40484Z" fill="white"/>
<path fill-rule="evenodd" clip-rule="evenodd" d="M6.74797 4.40484C6.36759 4.7824 5.48382 4.90884 5.6112 5.53926C5.73683 6.17143 5.48382 6.80186 4.85218 7.55698C4.22491 8.31122 4.59569 9.43692 4.72481 10.3176C5.48557 10.2627 6.27599 10.2522 6.4339 10.4074C6.75146 10.7239 6.87884 10.4074 7.0699 9.77263C7.26096 9.1361 7.64134 9.19975 8.02521 9.51889C8.40646 9.83541 8.66034 10.3446 9.29809 10.0255C9.93409 9.70897 9.8704 9.89906 10.1888 10.0255C10.5073 10.1545 11.7793 9.96358 12.2242 10.0255C12.6709 10.0891 16.555 14.2257 16.555 14.2257C16.555 14.2257 16.5454 14.2397 16.5288 14.2693C17.0191 14.3243 17.355 14.3975 17.505 14.1987C17.567 14.1132 17.7877 13.9702 18.0582 13.8133C17.5626 13.3477 16.842 12.5838 15.8832 11.3744C14.7359 9.92522 13.3776 9.14133 12.6517 9.14133C11.9276 9.14133 11.8063 7.90489 11.3553 7.84472C10.9007 7.78543 9.87564 6.00227 9.84423 4.85652C9.82765 4.21127 9.29111 3.31315 8.69873 2.58594C7.9781 3.73692 7.01406 4.13541 6.74797 4.40484Z" stroke="#868686" stroke-width="0.25"/>
</g>
<defs>
<filter id="filter0_d_877_3251" x="0.373047" y="0.37207" width="21.8926" height="20.082" filterUnits="userSpaceOnUse" color-interpolation-filters="sRGB">
<feFlood flood-opacity="0" result="BackgroundImageFix"/>
<feColorMatrix in="SourceAlpha" type="matrix" values="0 0 0 0 0 0 0 0 0 0 0 0 0 0 0 0 0 0 127 0" result="hardAlpha"/>
<feOffset dy="2"/>
<feGaussianBlur stdDeviation="2"/>
<feColorMatrix type="matrix" values="0 0 0 0 0 0 0 0 0 0 0 0 0 0 0 0 0 0 0.01 0"/>
<feBlend mode="normal" in2="BackgroundImageFix" result="effect1_dropShadow_877_3251"/>
<feBlend mode="normal" in="SourceGraphic" in2="effect1_dropShadow_877_3251" result="shape"/>
</filter>
</defs>
</svg>
