<svg width="46" height="31" viewBox="0 0 46 31" fill="none" xmlns="http://www.w3.org/2000/svg">
<g filter="url(#filter0_d_877_3292)">
<path fill-rule="evenodd" clip-rule="evenodd" d="M37.44 16.1063C37.7558 16.0618 38.7076 15.0199 39.0252 15.0199C39.3419 15.0199 40.7002 15.2928 40.7002 15.0669C40.7002 14.8394 41.1548 14.0694 41.0614 13.8427C40.9716 13.6177 40.5196 13.3021 40.6095 13.0745C40.7002 12.8487 41.3336 12.8487 41.3336 12.5766C41.3336 12.3046 40.8363 12.1685 40.8363 11.9872C40.8363 11.8076 41.4706 11.4902 41.4244 11.1283C41.379 10.7673 40.8363 10.7202 40.2474 10.4037C39.6586 10.0854 39.0679 10.2223 38.5253 9.95115C37.9826 9.67997 36.8493 9.86047 36.8493 9.67997C36.8493 9.49948 36.1261 8.91003 35.9437 8.59264C35.7631 8.27699 35.1743 8.45661 34.8122 8.68332C34.4493 8.9109 34.1317 9.00072 33.7705 8.77488C33.4085 8.5473 33.0918 8.18543 32.7742 8.32059C32.4566 8.45574 31.8678 8.3668 32.0038 7.91164C32.1391 7.45909 31.4158 6.46506 31.0983 6.3299C30.7816 6.19301 29.8298 6.41972 29.6038 5.96804C29.3761 5.51375 28.9687 5.15102 29.1501 4.83624C29.3298 4.51884 29.1048 3.65735 28.8779 3.29549C28.6502 2.93449 27.5196 2.97984 27.2029 3.11499C26.8862 3.25014 26.1603 2.97984 25.8427 3.1612C25.5252 3.34257 25.3455 3.65735 24.8918 3.65735C24.6397 3.65735 24.4713 3.62421 24.3334 3.42454C23.8431 3.64514 23.0204 3.68961 23.0204 3.68961C23.0204 3.68961 21.8104 4.654 21.8104 5.01586C21.8104 5.37685 21.7528 5.98112 21.4492 5.68029C21.1473 5.3786 19.8797 5.37685 19.5778 5.55996C19.2742 5.74046 18.7926 4.83537 18.2491 5.13706C17.7065 5.43876 16.9815 4.71504 16.9195 5.01586C16.8602 5.3193 16.075 5.07603 15.5315 4.83537C14.9888 4.59383 14.0222 4.95657 13.6593 4.5328C13.2963 4.10902 10.9416 4.1099 10.1565 4.1099C9.37126 4.1099 9.19067 4.5328 8.82774 4.89466C8.50058 5.22339 8.12107 5.15625 7.73546 5.13794C7.76948 5.44312 7.82881 5.7143 7.90645 5.8294C8.08705 6.10145 8.94814 7.41375 8.7213 7.82183C8.49534 8.22903 8.08705 8.22903 7.81659 8.54555C7.54439 8.86207 5.95919 10.2668 5.91382 10.4909C5.86846 10.7176 6.18689 11.7134 5.95919 11.8947C5.7341 12.0752 5.05273 13.0266 5.05273 13.3875C5.05273 13.7503 5.55176 14.2482 5.95919 14.3842C6.13019 14.4426 6.24098 14.5237 6.29159 14.6196C6.60828 14.576 6.89792 14.5507 7.07764 14.5507C7.37951 14.5507 8.70822 14.9152 9.12873 14.9152C9.55273 14.9152 10.1573 15.0948 10.3388 15.2762C10.5211 15.4567 10.9416 15.3346 11.2444 15.0338C11.5471 14.7338 11.9092 14.9152 12.2721 14.9152C12.6324 14.9152 13.2379 14.6109 13.4185 14.3109C13.5991 14.011 15.412 13.5262 15.8936 13.4643C16.3769 13.4059 17.1019 14.3694 17.5241 14.3694C17.9481 14.3694 18.7316 14.6728 18.9741 15.4567C19.2158 16.2415 19.9399 17.2085 20.2417 17.5076C20.5427 17.811 20.7242 18.5949 20.7242 18.8364C20.7242 19.0771 20.0603 18.7763 19.3344 18.5949C18.612 18.4135 18.5501 19.139 18.5501 19.5C18.5501 19.8627 17.5241 21.1297 17.3427 21.3712C17.1612 21.6136 17.7065 21.7932 18.1278 21.8534C18.3076 21.8787 19.0343 21.3712 19.2742 21.3712C19.3728 21.3712 19.6729 21.604 19.9948 21.8778C19.9259 20.9335 20.1213 20.9867 20.9641 20.3466C21.8409 19.6831 21.9308 18.4449 22.716 18.2941C23.5011 18.1423 23.8327 17.7796 24.9808 17.9601C26.128 18.1423 24.4085 18.8652 25.191 19.2881C25.9771 19.7119 28.3929 19.1678 28.5141 19.7712C28.6345 20.3746 25.7346 20.9797 25.7965 21.2814C25.8567 21.5822 27.3381 21.8839 27.8502 22.2144C28.3641 22.5483 27.6993 23.4822 27.9409 23.7857C28.1826 24.0874 28.9669 23.8441 29.6012 23.3924C30.2354 22.939 30.7467 23.0898 31.5633 22.5483C32.3799 22.0042 34.0698 22.4864 34.2809 22.156C34.4911 21.8237 33.7967 21.4915 32.2272 21.6136C30.6577 21.7331 30.567 20.2542 30.567 19.9517C30.567 19.6508 32.1975 18.4126 33.1328 18.3246C34.0698 18.233 34.8235 17.9601 35.73 17.5407C36.0947 17.3707 36.7359 17.1971 37.3902 17.0724C37.296 16.6478 37.1695 16.1455 37.44 16.1063Z" fill="white"/>
<path fill-rule="evenodd" clip-rule="evenodd" d="M37.44 16.1063C37.7558 16.0618 38.7076 15.0199 39.0252 15.0199C39.3419 15.0199 40.7002 15.2928 40.7002 15.0669C40.7002 14.8394 41.1548 14.0694 41.0614 13.8427C40.9716 13.6177 40.5196 13.3021 40.6095 13.0745C40.7002 12.8487 41.3336 12.8487 41.3336 12.5766C41.3336 12.3046 40.8363 12.1685 40.8363 11.9872C40.8363 11.8076 41.4706 11.4902 41.4244 11.1283C41.379 10.7673 40.8363 10.7202 40.2474 10.4037C39.6586 10.0854 39.0679 10.2223 38.5253 9.95115C37.9826 9.67997 36.8493 9.86047 36.8493 9.67997C36.8493 9.49948 36.1261 8.91003 35.9437 8.59264C35.7631 8.27699 35.1743 8.45661 34.8122 8.68332C34.4493 8.9109 34.1317 9.00072 33.7705 8.77488C33.4085 8.5473 33.0918 8.18543 32.7742 8.32059C32.4566 8.45574 31.8678 8.3668 32.0038 7.91164C32.1391 7.45909 31.4158 6.46506 31.0983 6.3299C30.7816 6.19301 29.8298 6.41972 29.6038 5.96804C29.3761 5.51375 28.9687 5.15102 29.1501 4.83624C29.3298 4.51884 29.1048 3.65735 28.8779 3.29549C28.6502 2.93449 27.5196 2.97984 27.2029 3.11499C26.8862 3.25014 26.1603 2.97984 25.8427 3.1612C25.5252 3.34257 25.3455 3.65735 24.8918 3.65735C24.6397 3.65735 24.4713 3.62421 24.3334 3.42454C23.8431 3.64514 23.0204 3.68961 23.0204 3.68961C23.0204 3.68961 21.8104 4.654 21.8104 5.01586C21.8104 5.37685 21.7528 5.98112 21.4492 5.68029C21.1473 5.3786 19.8797 5.37685 19.5778 5.55996C19.2742 5.74046 18.7926 4.83537 18.2491 5.13706C17.7065 5.43876 16.9815 4.71504 16.9195 5.01586C16.8602 5.3193 16.075 5.07603 15.5315 4.83537C14.9888 4.59383 14.0222 4.95657 13.6593 4.5328C13.2963 4.10902 10.9416 4.1099 10.1565 4.1099C9.37126 4.1099 9.19067 4.5328 8.82774 4.89466C8.50058 5.22339 8.12107 5.15625 7.73546 5.13794C7.76948 5.44312 7.82881 5.7143 7.90645 5.8294C8.08705 6.10145 8.94814 7.41375 8.7213 7.82183C8.49534 8.22903 8.08705 8.22903 7.81659 8.54555C7.54439 8.86207 5.95919 10.2668 5.91382 10.4909C5.86846 10.7176 6.18689 11.7134 5.95919 11.8947C5.7341 12.0752 5.05273 13.0266 5.05273 13.3875C5.05273 13.7503 5.55176 14.2482 5.95919 14.3842C6.13019 14.4426 6.24098 14.5237 6.29159 14.6196C6.60828 14.576 6.89792 14.5507 7.07764 14.5507C7.37951 14.5507 8.70822 14.9152 9.12873 14.9152C9.55273 14.9152 10.1573 15.0948 10.3388 15.2762C10.5211 15.4567 10.9416 15.3346 11.2444 15.0338C11.5471 14.7338 11.9092 14.9152 12.2721 14.9152C12.6324 14.9152 13.2379 14.6109 13.4185 14.3109C13.5991 14.011 15.412 13.5262 15.8936 13.4643C16.3769 13.4059 17.1019 14.3694 17.5241 14.3694C17.9481 14.3694 18.7316 14.6728 18.9741 15.4567C19.2158 16.2415 19.9399 17.2085 20.2417 17.5076C20.5427 17.811 20.7242 18.5949 20.7242 18.8364C20.7242 19.0771 20.0603 18.7763 19.3344 18.5949C18.612 18.4135 18.5501 19.139 18.5501 19.5C18.5501 19.8627 17.5241 21.1297 17.3427 21.3712C17.1612 21.6136 17.7065 21.7932 18.1278 21.8534C18.3076 21.8787 19.0343 21.3712 19.2742 21.3712C19.3728 21.3712 19.6729 21.604 19.9948 21.8778C19.9259 20.9335 20.1213 20.9867 20.9641 20.3466C21.8409 19.6831 21.9308 18.4449 22.716 18.2941C23.5011 18.1423 23.8327 17.7796 24.9808 17.9601C26.128 18.1423 24.4085 18.8652 25.191 19.2881C25.9771 19.7119 28.3929 19.1678 28.5141 19.7712C28.6345 20.3746 25.7346 20.9797 25.7965 21.2814C25.8567 21.5822 27.3381 21.8839 27.8502 22.2144C28.3641 22.5483 27.6993 23.4822 27.9409 23.7857C28.1826 24.0874 28.9669 23.8441 29.6012 23.3924C30.2354 22.939 30.7467 23.0898 31.5633 22.5483C32.3799 22.0042 34.0698 22.4864 34.2809 22.156C34.4911 21.8237 33.7967 21.4915 32.2272 21.6136C30.6577 21.7331 30.567 20.2542 30.567 19.9517C30.567 19.6508 32.1975 18.4126 33.1328 18.3246C34.0698 18.233 34.8235 17.9601 35.73 17.5407C36.0947 17.3707 36.7359 17.1971 37.3902 17.0724C37.296 16.6478 37.1695 16.1455 37.44 16.1063Z" stroke="#868686" stroke-width="0.25"/>
</g>
<defs>
<filter id="filter0_d_877_3292" x="0.927734" y="0.890625" width="44.625" height="29.1533" filterUnits="userSpaceOnUse" color-interpolation-filters="sRGB">
<feFlood flood-opacity="0" result="BackgroundImageFix"/>
<feColorMatrix in="SourceAlpha" type="matrix" values="0 0 0 0 0 0 0 0 0 0 0 0 0 0 0 0 0 0 127 0" result="hardAlpha"/>
<feOffset dy="2"/>
<feGaussianBlur stdDeviation="2"/>
<feColorMatrix type="matrix" values="0 0 0 0 0 0 0 0 0 0 0 0 0 0 0 0 0 0 0.01 0"/>
<feBlend mode="normal" in2="BackgroundImageFix" result="effect1_dropShadow_877_3292"/>
<feBlend mode="normal" in="SourceGraphic" in2="effect1_dropShadow_877_3292" result="shape"/>
</filter>
</defs>
</svg>
