<svg width="31" height="20" viewBox="0 0 31 20" fill="none" xmlns="http://www.w3.org/2000/svg">
<g filter="url(#filter0_d_877_3404)">
<path fill-rule="evenodd" clip-rule="evenodd" d="M23.1835 10.3558C24.3604 10.2965 24.3307 8.99901 24.8132 9.05917C25.2991 9.12108 26.0826 8.15408 26.3844 7.55068C26.6863 6.94729 26.0529 5.86083 25.3279 5.86083C24.6021 5.86083 24.0594 5.28708 24.2112 4.86505C24.3621 4.44215 23.8169 3.89892 23.8474 3.59722C23.8779 3.29552 22.9427 3.56496 22.4576 3.6879C21.9752 3.80736 20.9492 2.50989 20.4964 2.75055C20.0445 2.99295 20.3751 3.62512 20.2547 3.98786C20.1343 4.35059 19.0482 3.65564 19.0482 4.07854C19.0482 4.50144 18.5945 4.56073 18.2324 4.10819C17.8695 3.65564 17.0224 3.92682 17.0547 4.28956C17.0843 4.65142 16.6917 4.35059 15.9973 3.92682C15.3028 3.50566 14.5778 4.41163 14.6389 4.86418C14.7 5.3176 14.3964 5.43618 13.8223 4.44128C13.2491 3.44463 12.5843 4.53109 12.8871 5.07606C13.1898 5.61842 13.0685 6.28024 12.6157 6.00993C12.1621 5.73875 11.5584 6.19043 11.287 6.6142C11.0148 7.03623 10.049 5.37602 10.7435 4.98451C11.438 4.593 8.53887 2.93104 7.63416 2.93104C6.72771 2.93104 7.33143 3.59722 7.9369 4.07854C8.53974 4.56073 7.51202 4.44128 7.18137 4.0175C6.84898 3.59722 6.21559 3.92682 5.85179 4.53109C5.4906 5.13536 4.88513 5.46757 4.82668 5.89047C4.76561 6.3125 5.85179 6.76592 6.78878 6.37354C7.7249 5.98116 8.78141 5.91925 9.26561 6.37354C9.74893 6.82521 8.38969 7.00745 8.87214 7.36932C9.35634 7.73118 8.96287 8.03375 7.8165 7.94307C6.66925 7.85325 5.28035 8.18373 5.49147 8.57698C5.70173 8.96849 8.41935 8.24651 8.45076 8.63714C8.48042 9.0304 8.45076 9.69309 9.17575 9.39226C9.89986 9.09144 9.41566 9.93636 9.77772 10.0855C10.1407 10.2372 10.0508 10.9609 9.08501 11.022C8.11836 11.0812 7.64812 11.2757 8.05729 11.6846C8.57115 12.1991 9.62854 11.8355 10.6545 11.5948C11.6796 11.3524 13.161 12.5906 14.3685 13.0728C15.5768 13.5567 17.6593 12.8914 17.9018 12.2566C18.1435 11.6219 19.774 11.8643 20.4371 11.4126C21.1001 10.96 22.0048 10.4168 23.1835 10.3558Z" fill="white"/>
<path fill-rule="evenodd" clip-rule="evenodd" d="M23.1835 10.3558C24.3604 10.2965 24.3307 8.99901 24.8132 9.05917C25.2991 9.12108 26.0826 8.15408 26.3844 7.55068C26.6863 6.94729 26.0529 5.86083 25.3279 5.86083C24.6021 5.86083 24.0594 5.28708 24.2112 4.86505C24.3621 4.44215 23.8169 3.89892 23.8474 3.59722C23.8779 3.29552 22.9427 3.56496 22.4576 3.6879C21.9752 3.80736 20.9492 2.50989 20.4964 2.75055C20.0445 2.99295 20.3751 3.62512 20.2547 3.98786C20.1343 4.35059 19.0482 3.65564 19.0482 4.07854C19.0482 4.50144 18.5945 4.56073 18.2324 4.10819C17.8695 3.65564 17.0224 3.92682 17.0547 4.28956C17.0843 4.65142 16.6917 4.35059 15.9973 3.92682C15.3028 3.50566 14.5778 4.41163 14.6389 4.86418C14.7 5.3176 14.3964 5.43618 13.8223 4.44128C13.2491 3.44463 12.5843 4.53109 12.8871 5.07606C13.1898 5.61842 13.0685 6.28024 12.6157 6.00993C12.1621 5.73875 11.5584 6.19043 11.287 6.6142C11.0148 7.03623 10.049 5.37602 10.7435 4.98451C11.438 4.593 8.53887 2.93104 7.63416 2.93104C6.72771 2.93104 7.33143 3.59722 7.9369 4.07854C8.53974 4.56073 7.51202 4.44128 7.18137 4.0175C6.84898 3.59722 6.21559 3.92682 5.85179 4.53109C5.4906 5.13536 4.88513 5.46757 4.82668 5.89047C4.76561 6.3125 5.85179 6.76592 6.78878 6.37354C7.7249 5.98116 8.78141 5.91925 9.26561 6.37354C9.74893 6.82521 8.38969 7.00745 8.87214 7.36932C9.35634 7.73118 8.96287 8.03375 7.8165 7.94307C6.66925 7.85325 5.28035 8.18373 5.49147 8.57698C5.70173 8.96849 8.41935 8.24651 8.45076 8.63714C8.48042 9.0304 8.45076 9.69309 9.17575 9.39226C9.89986 9.09144 9.41566 9.93636 9.77772 10.0855C10.1407 10.2372 10.0508 10.9609 9.08501 11.022C8.11836 11.0812 7.64812 11.2757 8.05729 11.6846C8.57115 12.1991 9.62854 11.8355 10.6545 11.5948C11.6796 11.3524 13.161 12.5906 14.3685 13.0728C15.5768 13.5567 17.6593 12.8914 17.9018 12.2566C18.1435 11.6219 19.774 11.8643 20.4371 11.4126C21.1001 10.96 22.0048 10.4168 23.1835 10.3558Z" stroke="#868686" stroke-width="0.25"/>
</g>
<defs>
<filter id="filter0_d_877_3404" x="0.699219" y="0.595703" width="29.8867" height="18.7686" filterUnits="userSpaceOnUse" color-interpolation-filters="sRGB">
<feFlood flood-opacity="0" result="BackgroundImageFix"/>
<feColorMatrix in="SourceAlpha" type="matrix" values="0 0 0 0 0 0 0 0 0 0 0 0 0 0 0 0 0 0 127 0" result="hardAlpha"/>
<feOffset dy="2"/>
<feGaussianBlur stdDeviation="2"/>
<feColorMatrix type="matrix" values="0 0 0 0 0 0 0 0 0 0 0 0 0 0 0 0 0 0 0.01 0"/>
<feBlend mode="normal" in2="BackgroundImageFix" result="effect1_dropShadow_877_3404"/>
<feBlend mode="normal" in="SourceGraphic" in2="effect1_dropShadow_877_3404" result="shape"/>
</filter>
</defs>
</svg>
