<svg width="16" height="11" viewBox="0 0 16 11" fill="none" xmlns="http://www.w3.org/2000/svg">
<g filter="url(#filter0_d_877_3339)">
<path fill-rule="evenodd" clip-rule="evenodd" d="M11.0186 3.12966C10.2945 1.77202 6.94259 4.3068 7.66758 4.66866C8.3917 5.03314 11.3693 3.78886 11.0186 3.12966ZM7.30465 2.13562C6.30833 1.95338 3.91962 3.9711 4.94996 4.48904C6.03701 5.03314 8.30009 2.31612 7.30465 2.13562Z" fill="white"/>
<path d="M11.0186 3.12966L11.1289 3.07095L11.1289 3.07083L11.0186 3.12966ZM7.66758 4.66866L7.72378 4.55701L7.7234 4.55682L7.66758 4.66866ZM7.30465 2.13562L7.28216 2.25858L7.28235 2.25862L7.30465 2.13562ZM4.94996 4.48904L4.89382 4.60072L4.89401 4.60082L4.94996 4.48904ZM11.1289 3.07083C10.9132 2.66648 10.5024 2.56676 10.0715 2.62252C9.6424 2.67804 9.161 2.88847 8.73475 3.14753C8.30779 3.40702 7.9224 3.72373 7.68761 4.00441C7.57204 4.14258 7.48245 4.28427 7.452 4.4145C7.43634 4.48146 7.43432 4.55408 7.46157 4.62287C7.48974 4.69398 7.54342 4.7464 7.61176 4.78051L7.7234 4.55682C7.70111 4.5457 7.69602 4.5359 7.694 4.53079C7.69105 4.52336 7.68741 4.50574 7.69543 4.47142C7.71235 4.39906 7.77134 4.29397 7.87937 4.16482C8.09179 3.91088 8.45369 3.6109 8.86459 3.36117C9.2762 3.111 9.72322 2.91967 10.1036 2.87045C10.4822 2.82146 10.7619 2.91402 10.9083 3.18848L11.1289 3.07083ZM7.61138 4.78032C7.72732 4.83867 7.87583 4.85967 8.03421 4.85922C8.19493 4.85876 8.37782 4.83607 8.57068 4.79719C8.95653 4.71941 9.39429 4.57434 9.79647 4.39746C10.1975 4.2211 10.5715 4.00946 10.8254 3.79498C10.9517 3.6883 11.0562 3.57443 11.1163 3.45689C11.1779 3.33628 11.1976 3.19999 11.1289 3.07095L10.9082 3.18837C10.9273 3.22412 10.9306 3.27092 10.8937 3.34311C10.8552 3.41836 10.779 3.507 10.6641 3.60398C10.4358 3.79682 10.0859 3.99707 9.69582 4.16862C9.30693 4.33965 8.88643 4.47851 8.52128 4.55212C8.33864 4.58894 8.17285 4.60882 8.0335 4.60922C7.89181 4.60962 7.78887 4.58978 7.72378 4.55701L7.61138 4.78032ZM7.32714 2.01266C7.0369 1.95958 6.66999 2.06703 6.31622 2.24152C5.95671 2.41885 5.58713 2.67721 5.2826 2.95784C4.98063 3.23612 4.7304 3.54748 4.62568 3.83431C4.57289 3.97891 4.55298 4.12863 4.59473 4.26769C4.63768 4.41071 4.74012 4.52346 4.89382 4.60072L5.0061 4.37736C4.90222 4.32514 4.85391 4.26153 4.83417 4.19579C4.81324 4.12608 4.81869 4.03461 4.86052 3.92006C4.94503 3.68859 5.16106 3.4098 5.45202 3.14169C5.74041 2.87593 6.09042 2.63165 6.42681 2.46573C6.76894 2.29698 7.07423 2.22055 7.28216 2.25858L7.32714 2.01266ZM4.89401 4.60082C5.22043 4.7642 5.61322 4.6741 5.97396 4.48724C6.33997 4.29764 6.70504 3.99282 7.00066 3.66822C7.29488 3.34515 7.53135 2.99036 7.62831 2.695C7.67626 2.54893 7.69639 2.39856 7.65201 2.27007C7.60335 2.1292 7.48724 2.04169 7.32695 2.01263L7.28235 2.25862C7.37092 2.27468 7.40184 2.31156 7.41571 2.3517C7.43385 2.40422 7.432 2.49148 7.39078 2.61702C7.30942 2.86486 7.09882 3.18915 6.81582 3.49989C6.53422 3.8091 6.19191 4.09279 5.85897 4.26525C5.52075 4.44045 5.22301 4.48593 5.00591 4.37726L4.89401 4.60082Z" fill="#868686"/>
</g>
<defs>
<filter id="filter0_d_877_3339" x="0.572266" y="-0.000976562" width="14.5996" height="10.8604" filterUnits="userSpaceOnUse" color-interpolation-filters="sRGB">
<feFlood flood-opacity="0" result="BackgroundImageFix"/>
<feColorMatrix in="SourceAlpha" type="matrix" values="0 0 0 0 0 0 0 0 0 0 0 0 0 0 0 0 0 0 127 0" result="hardAlpha"/>
<feOffset dy="2"/>
<feGaussianBlur stdDeviation="2"/>
<feColorMatrix type="matrix" values="0 0 0 0 0 0 0 0 0 0 0 0 0 0 0 0 0 0 0.01 0"/>
<feBlend mode="normal" in2="BackgroundImageFix" result="effect1_dropShadow_877_3339"/>
<feBlend mode="normal" in="SourceGraphic" in2="effect1_dropShadow_877_3339" result="shape"/>
</filter>
</defs>
</svg>
