<svg width="24" height="16" viewBox="0 0 24 16" fill="none" xmlns="http://www.w3.org/2000/svg">
<g filter="url(#filter0_d_877_3294)">
<path fill-rule="evenodd" clip-rule="evenodd" d="M9.35343 7.60636C9.90743 7.60636 11.2012 7.8819 11.9402 7.60636C12.6774 7.32908 12.6774 8.16093 13.1398 8.06501C13.5987 7.97433 14.5235 8.62045 15.0783 9.08259C15.3723 9.32761 15.723 9.52467 16.1122 9.75051C16.2003 9.59966 16.3189 9.45055 16.5091 9.30842C16.9924 8.94569 17.474 9.12706 17.8971 9.12706C18.3203 9.12706 18.3805 8.64486 18.6832 8.40333C18.8525 8.26643 19.1168 8.18883 19.3183 8.14698C19.1561 7.81476 19.1482 7.16253 18.8786 6.8931C18.5611 6.57745 18.1083 6.03247 18.2452 5.71595C18.3796 5.39856 18.3796 4.94601 18.0175 4.58415C17.8588 4.42545 17.7375 4.23973 17.6721 4.06272C16.9357 3.96767 15.9455 3.86217 15.7239 3.93541C15.361 4.05661 13.9128 2.90912 13.6702 2.72688C13.5114 2.60916 12.4375 2.67107 11.4708 2.76088C10.9133 3.37823 11.3155 3.83252 11.2859 4.78034C11.2553 5.7456 10.1979 5.5651 9.62563 5.5651C9.0507 5.5651 8.11546 3.84386 7.81447 3.45147C7.51086 3.05996 6.54421 3.93541 5.85063 4.35744C5.15617 4.78121 5.51823 5.59475 5.0349 5.98713C4.55245 6.37951 4.25059 7.04395 4.7313 7.91939C4.75049 7.95514 4.76532 7.99264 4.78452 8.02664C5.38737 7.97869 6.03209 7.86708 6.402 7.60549C7.04586 7.14422 8.80119 7.60636 9.35343 7.60636Z" fill="white"/>
<path fill-rule="evenodd" clip-rule="evenodd" d="M9.35343 7.60636C9.90743 7.60636 11.2012 7.8819 11.9402 7.60636C12.6774 7.32908 12.6774 8.16093 13.1398 8.06501C13.5987 7.97433 14.5235 8.62045 15.0783 9.08259C15.3723 9.32761 15.723 9.52467 16.1122 9.75051C16.2003 9.59966 16.3189 9.45055 16.5091 9.30842C16.9924 8.94569 17.474 9.12706 17.8971 9.12706C18.3203 9.12706 18.3805 8.64486 18.6832 8.40333C18.8525 8.26643 19.1168 8.18883 19.3183 8.14698C19.1561 7.81476 19.1482 7.16253 18.8786 6.8931C18.5611 6.57745 18.1083 6.03247 18.2452 5.71595C18.3796 5.39856 18.3796 4.94601 18.0175 4.58415C17.8588 4.42545 17.7375 4.23973 17.6721 4.06272C16.9357 3.96767 15.9455 3.86217 15.7239 3.93541C15.361 4.05661 13.9128 2.90912 13.6702 2.72688C13.5114 2.60916 12.4375 2.67107 11.4708 2.76088C10.9133 3.37823 11.3155 3.83252 11.2859 4.78034C11.2553 5.7456 10.1979 5.5651 9.62563 5.5651C9.0507 5.5651 8.11546 3.84386 7.81447 3.45147C7.51086 3.05996 6.54421 3.93541 5.85063 4.35744C5.15617 4.78121 5.51823 5.59475 5.0349 5.98713C4.55245 6.37951 4.25059 7.04395 4.7313 7.91939C4.75049 7.95514 4.76532 7.99264 4.78452 8.02664C5.38737 7.97869 6.03209 7.86708 6.402 7.60549C7.04586 7.14422 8.80119 7.60636 9.35343 7.60636Z" stroke="#868686" stroke-width="0.25"/>
</g>
<defs>
<filter id="filter0_d_877_3294" x="0.363281" y="0.537109" width="23.1387" height="15.3838" filterUnits="userSpaceOnUse" color-interpolation-filters="sRGB">
<feFlood flood-opacity="0" result="BackgroundImageFix"/>
<feColorMatrix in="SourceAlpha" type="matrix" values="0 0 0 0 0 0 0 0 0 0 0 0 0 0 0 0 0 0 127 0" result="hardAlpha"/>
<feOffset dy="2"/>
<feGaussianBlur stdDeviation="2"/>
<feColorMatrix type="matrix" values="0 0 0 0 0 0 0 0 0 0 0 0 0 0 0 0 0 0 0.01 0"/>
<feBlend mode="normal" in2="BackgroundImageFix" result="effect1_dropShadow_877_3294"/>
<feBlend mode="normal" in="SourceGraphic" in2="effect1_dropShadow_877_3294" result="shape"/>
</filter>
</defs>
</svg>
