<svg width="24" height="27" viewBox="0 0 24 27" fill="none" xmlns="http://www.w3.org/2000/svg">
<g filter="url(#filter0_d_877_3274)">
<path fill-rule="evenodd" clip-rule="evenodd" d="M14.5698 10.8646C14.5698 10.3475 12.1122 9.57236 12.3704 8.92536C12.6286 8.27837 13.9233 8.66552 13.9233 8.01852C13.9233 7.37415 13.4042 7.37415 13.2769 6.46818C13.1486 5.56309 12.2413 5.82293 11.8531 6.08016C11.4648 6.33913 10.1701 5.82293 10.1701 5.17594C10.1701 4.53069 9.13544 4.14092 9.13544 3.62385C9.13544 3.32738 8.75157 2.94198 8.39823 2.54785C8.06845 2.71178 7.73257 2.7484 7.58338 2.59755C7.34172 2.35689 7.01979 3.40499 7.26058 3.64652C7.50312 3.88805 7.82505 5.41921 7.18032 5.25877C6.53559 5.09833 6.53559 4.21155 6.13166 4.2909C6.13166 4.2909 5.08474 5.50118 5.08474 5.98424C5.08474 6.30948 4.68342 6.41848 4.37109 6.57456C4.55692 6.7411 4.71658 6.89021 4.76979 6.97392C4.94603 7.23463 4.6843 7.9322 4.94341 8.53996C5.20688 9.1512 6.07757 8.19466 6.3393 9.06488C6.60277 9.93422 6.16656 10.3711 6.16656 11.2413C6.16656 12.115 5.46861 12.0269 5.6431 12.8099C5.81671 13.593 6.77551 12.6373 7.47258 12.115C8.1714 11.5883 8.69399 11.6773 8.95397 12.0269C9.21657 12.3748 10.0881 12.115 10.2626 11.6773C10.4362 11.243 11.7431 11.0678 12.1802 11.5901C12.6164 12.115 13.0509 12.7219 13.6607 13.0715C14.2706 13.4168 13.2245 15.3351 13.8352 15.5095C14.4442 15.6839 15.3166 16.6431 15.2311 17.6903C15.1561 18.5875 15.6577 19.231 14.9676 20.001C15.396 20.28 15.9125 20.2765 15.8401 20.5634C15.7537 20.9113 16.4499 20.7369 16.4499 20.0411C16.4499 19.3427 17.4078 19.4299 17.8449 19.6042C18.1869 19.7411 18.795 19.7115 19.294 19.3174C19.294 19.0043 19.3167 18.7201 19.3542 18.4951C19.4833 17.7191 19.3542 16.8131 18.9677 16.4251C18.5795 16.0379 17.543 15.649 17.2839 14.8739C17.0274 14.0996 15.8619 13.3218 15.6028 12.6757C15.3463 12.0295 14.5698 11.3808 14.5698 10.8646Z" fill="white"/>
<path fill-rule="evenodd" clip-rule="evenodd" d="M14.5698 10.8646C14.5698 10.3475 12.1122 9.57236 12.3704 8.92536C12.6286 8.27837 13.9233 8.66552 13.9233 8.01852C13.9233 7.37415 13.4042 7.37415 13.2769 6.46818C13.1486 5.56309 12.2413 5.82293 11.8531 6.08016C11.4648 6.33913 10.1701 5.82293 10.1701 5.17594C10.1701 4.53069 9.13544 4.14092 9.13544 3.62385C9.13544 3.32738 8.75157 2.94198 8.39823 2.54785C8.06845 2.71178 7.73257 2.7484 7.58338 2.59755C7.34172 2.35689 7.01979 3.40499 7.26058 3.64652C7.50312 3.88805 7.82505 5.41921 7.18032 5.25877C6.53559 5.09833 6.53559 4.21155 6.13166 4.2909C6.13166 4.2909 5.08474 5.50118 5.08474 5.98424C5.08474 6.30948 4.68342 6.41848 4.37109 6.57456C4.55692 6.7411 4.71658 6.89021 4.76979 6.97392C4.94603 7.23463 4.6843 7.9322 4.94341 8.53996C5.20688 9.1512 6.07757 8.19466 6.3393 9.06488C6.60277 9.93422 6.16656 10.3711 6.16656 11.2413C6.16656 12.115 5.46861 12.0269 5.6431 12.8099C5.81671 13.593 6.77551 12.6373 7.47258 12.115C8.1714 11.5883 8.69399 11.6773 8.95397 12.0269C9.21657 12.3748 10.0881 12.115 10.2626 11.6773C10.4362 11.243 11.7431 11.0678 12.1802 11.5901C12.6164 12.115 13.0509 12.7219 13.6607 13.0715C14.2706 13.4168 13.2245 15.3351 13.8352 15.5095C14.4442 15.6839 15.3166 16.6431 15.2311 17.6903C15.1561 18.5875 15.6577 19.231 14.9676 20.001C15.396 20.28 15.9125 20.2765 15.8401 20.5634C15.7537 20.9113 16.4499 20.7369 16.4499 20.0411C16.4499 19.3427 17.4078 19.4299 17.8449 19.6042C18.1869 19.7411 18.795 19.7115 19.294 19.3174C19.294 19.0043 19.3167 18.7201 19.3542 18.4951C19.4833 17.7191 19.3542 16.8131 18.9677 16.4251C18.5795 16.0379 17.543 15.649 17.2839 14.8739C17.0274 14.0996 15.8619 13.3218 15.6028 12.6757C15.3463 12.0295 14.5698 11.3808 14.5698 10.8646Z" stroke="#868686" stroke-width="0.25"/>
</g>
<defs>
<filter id="filter0_d_877_3274" x="0.150391" y="0.393555" width="23.377" height="26.4688" filterUnits="userSpaceOnUse" color-interpolation-filters="sRGB">
<feFlood flood-opacity="0" result="BackgroundImageFix"/>
<feColorMatrix in="SourceAlpha" type="matrix" values="0 0 0 0 0 0 0 0 0 0 0 0 0 0 0 0 0 0 127 0" result="hardAlpha"/>
<feOffset dy="2"/>
<feGaussianBlur stdDeviation="2"/>
<feColorMatrix type="matrix" values="0 0 0 0 0 0 0 0 0 0 0 0 0 0 0 0 0 0 0.01 0"/>
<feBlend mode="normal" in2="BackgroundImageFix" result="effect1_dropShadow_877_3274"/>
<feBlend mode="normal" in="SourceGraphic" in2="effect1_dropShadow_877_3274" result="shape"/>
</filter>
</defs>
</svg>
