<svg width="17" height="15" viewBox="0 0 17 15" fill="none" xmlns="http://www.w3.org/2000/svg">
<g filter="url(#filter0_d_877_3287)">
<path fill-rule="evenodd" clip-rule="evenodd" d="M4.83857 3.96186C4.88393 4.28013 5.38296 5.04919 5.56268 4.73354C5.74415 4.41615 6.19781 5.14075 6.60436 5.36746C7.01266 5.5933 7.82664 5.86448 7.87288 6.13653C7.91824 6.40858 8.05434 6.99628 8.46177 6.81578C8.86919 6.63442 9.36735 6.0005 9.36735 6.36149C9.36735 6.72336 9.50345 7.40261 9.9545 7.31193C10.409 7.22124 10.5443 8.08274 10.9979 7.99031C11.0799 7.97549 11.1933 7.9659 11.3251 7.96154C11.2684 6.93699 11.6357 6.45392 12.0379 6.22983C12.1321 6.04933 12.4025 5.86012 12.4462 5.63777C12.5064 5.33694 11.8433 4.73354 11.9018 4.37081C11.9052 4.3525 11.9087 4.32721 11.9105 4.30628C11.7613 4.19119 11.6078 4.06214 11.4655 3.91913C10.9116 3.36631 10.3576 3.27563 9.98852 2.90592C9.61948 2.53621 8.97301 2.3531 8.6031 2.72193C8.23494 3.09165 7.2203 3.36631 6.66631 3.36631C6.53893 3.36631 6.27197 3.26342 5.93695 3.11083C5.50161 3.36108 5.03748 3.60174 4.57422 3.69417C4.6667 3.81886 4.80803 3.75259 4.83857 3.96186Z" fill="white"/>
<path fill-rule="evenodd" clip-rule="evenodd" d="M4.83857 3.96186C4.88393 4.28013 5.38296 5.04919 5.56268 4.73354C5.74415 4.41615 6.19781 5.14075 6.60436 5.36746C7.01266 5.5933 7.82664 5.86448 7.87288 6.13653C7.91824 6.40858 8.05434 6.99628 8.46177 6.81578C8.86919 6.63442 9.36735 6.0005 9.36735 6.36149C9.36735 6.72336 9.50345 7.40261 9.9545 7.31193C10.409 7.22124 10.5443 8.08274 10.9979 7.99031C11.0799 7.97549 11.1933 7.9659 11.3251 7.96154C11.2684 6.93699 11.6357 6.45392 12.0379 6.22983C12.1321 6.04933 12.4025 5.86012 12.4462 5.63777C12.5064 5.33694 11.8433 4.73354 11.9018 4.37081C11.9052 4.3525 11.9087 4.32721 11.9105 4.30628C11.7613 4.19119 11.6078 4.06214 11.4655 3.91913C10.9116 3.36631 10.3576 3.27563 9.98852 2.90592C9.61948 2.53621 8.97301 2.3531 8.6031 2.72193C8.23494 3.09165 7.2203 3.36631 6.66631 3.36631C6.53893 3.36631 6.27197 3.26342 5.93695 3.11083C5.50161 3.36108 5.03748 3.60174 4.57422 3.69417C4.6667 3.81886 4.80803 3.75259 4.83857 3.96186Z" stroke="#868686" stroke-width="0.25"/>
</g>
<defs>
<filter id="filter0_d_877_3287" x="0.355469" y="0.395508" width="16.2188" height="13.7266" filterUnits="userSpaceOnUse" color-interpolation-filters="sRGB">
<feFlood flood-opacity="0" result="BackgroundImageFix"/>
<feColorMatrix in="SourceAlpha" type="matrix" values="0 0 0 0 0 0 0 0 0 0 0 0 0 0 0 0 0 0 127 0" result="hardAlpha"/>
<feOffset dy="2"/>
<feGaussianBlur stdDeviation="2"/>
<feColorMatrix type="matrix" values="0 0 0 0 0 0 0 0 0 0 0 0 0 0 0 0 0 0 0.01 0"/>
<feBlend mode="normal" in2="BackgroundImageFix" result="effect1_dropShadow_877_3287"/>
<feBlend mode="normal" in="SourceGraphic" in2="effect1_dropShadow_877_3287" result="shape"/>
</filter>
</defs>
</svg>
