<svg width="15" height="11" viewBox="0 0 15 11" fill="none" xmlns="http://www.w3.org/2000/svg">
<g filter="url(#filter0_d_877_3226)">
<path fill-rule="evenodd" clip-rule="evenodd" d="M7.12818 3.39734C7.54781 3.01542 8.23703 3.77926 8.84686 3.85599C9.45844 3.93185 10.1075 3.51331 10.1075 3.51331C10.1075 3.51331 9.99236 3.43484 8.99954 3.35985C8.00758 3.28224 7.92994 2.099 7.0514 2.51841C6.17723 2.93695 5.56565 3.05205 4.46639 2.94044C4.45069 3.27701 4.25962 3.72346 4.20117 4.1699C4.48297 4.09927 4.69758 4.05044 4.79879 4.04434C5.41036 4.00859 6.70766 3.77926 7.12818 3.39734Z" fill="white"/>
<path fill-rule="evenodd" clip-rule="evenodd" d="M7.12818 3.39734C7.54781 3.01542 8.23703 3.77926 8.84686 3.85599C9.45844 3.93185 10.1075 3.51331 10.1075 3.51331C10.1075 3.51331 9.99236 3.43484 8.99954 3.35985C8.00758 3.28224 7.92994 2.099 7.0514 2.51841C6.17723 2.93695 5.56565 3.05205 4.46639 2.94044C4.45069 3.27701 4.25962 3.72346 4.20117 4.1699C4.48297 4.09927 4.69758 4.05044 4.79879 4.04434C5.41036 4.00859 6.70766 3.77926 7.12818 3.39734Z" stroke="#868686" stroke-width="0.25"/>
</g>
<defs>
<filter id="filter0_d_877_3226" x="0.0527344" y="0.303711" width="14.2812" height="10.0322" filterUnits="userSpaceOnUse" color-interpolation-filters="sRGB">
<feFlood flood-opacity="0" result="BackgroundImageFix"/>
<feColorMatrix in="SourceAlpha" type="matrix" values="0 0 0 0 0 0 0 0 0 0 0 0 0 0 0 0 0 0 127 0" result="hardAlpha"/>
<feOffset dy="2"/>
<feGaussianBlur stdDeviation="2"/>
<feColorMatrix type="matrix" values="0 0 0 0 0 0 0 0 0 0 0 0 0 0 0 0 0 0 0.01 0"/>
<feBlend mode="normal" in2="BackgroundImageFix" result="effect1_dropShadow_877_3226"/>
<feBlend mode="normal" in="SourceGraphic" in2="effect1_dropShadow_877_3226" result="shape"/>
</filter>
</defs>
</svg>
