<svg width="13" height="19" viewBox="0 0 13 19" fill="none" xmlns="http://www.w3.org/2000/svg">
<g filter="url(#filter0_d_877_3232)">
<path fill-rule="evenodd" clip-rule="evenodd" d="M7.52701 5.88023C7.16495 5.51837 7.98067 4.83998 7.11958 4.34122C6.35969 3.90175 6.09448 4.0247 6.01072 2.4325C5.57363 2.4046 4.92978 2.21626 4.46303 2.1683C4.36619 2.15871 4.2868 2.18051 4.21875 2.2119C4.31646 2.79001 4.45954 3.43177 4.62879 3.52768C4.94636 3.70731 5.17232 4.07091 5.12782 4.74755C5.08246 5.42855 4.90012 6.92135 5.17144 7.6006C5.44451 8.27986 5.71584 9.36545 5.71584 10.4066C5.71584 11.0553 6.08488 12.0232 6.46177 12.7574C6.61881 12.6737 6.76188 12.5856 6.87704 12.4888C7.1475 12.2595 7.57586 12.1243 8.01818 12.0389C7.97107 10.7397 7.89866 8.96348 7.84457 8.27899C7.75296 7.14719 7.88906 6.24296 7.52701 5.88023Z" fill="white"/>
<path fill-rule="evenodd" clip-rule="evenodd" d="M7.52701 5.88023C7.16495 5.51837 7.98067 4.83998 7.11958 4.34122C6.35969 3.90175 6.09448 4.0247 6.01072 2.4325C5.57363 2.4046 4.92978 2.21626 4.46303 2.1683C4.36619 2.15871 4.2868 2.18051 4.21875 2.2119C4.31646 2.79001 4.45954 3.43177 4.62879 3.52768C4.94636 3.70731 5.17232 4.07091 5.12782 4.74755C5.08246 5.42855 4.90012 6.92135 5.17144 7.6006C5.44451 8.27986 5.71584 9.36545 5.71584 10.4066C5.71584 11.0553 6.08488 12.0232 6.46177 12.7574C6.61881 12.6737 6.76188 12.5856 6.87704 12.4888C7.1475 12.2595 7.57586 12.1243 8.01818 12.0389C7.97107 10.7397 7.89866 8.96348 7.84457 8.27899C7.75296 7.14719 7.88906 6.24296 7.52701 5.88023Z" stroke="#868686" stroke-width="0.25"/>
</g>
<defs>
<filter id="filter0_d_877_3232" x="0.0800781" y="0.0410156" width="12.0664" height="18.8867" filterUnits="userSpaceOnUse" color-interpolation-filters="sRGB">
<feFlood flood-opacity="0" result="BackgroundImageFix"/>
<feColorMatrix in="SourceAlpha" type="matrix" values="0 0 0 0 0 0 0 0 0 0 0 0 0 0 0 0 0 0 127 0" result="hardAlpha"/>
<feOffset dy="2"/>
<feGaussianBlur stdDeviation="2"/>
<feColorMatrix type="matrix" values="0 0 0 0 0 0 0 0 0 0 0 0 0 0 0 0 0 0 0.01 0"/>
<feBlend mode="normal" in2="BackgroundImageFix" result="effect1_dropShadow_877_3232"/>
<feBlend mode="normal" in="SourceGraphic" in2="effect1_dropShadow_877_3232" result="shape"/>
</filter>
</defs>
</svg>
