<svg width="35" height="53" viewBox="0 0 35 53" fill="none" xmlns="http://www.w3.org/2000/svg">
<g filter="url(#filter0_d_877_3419)">
<path fill-rule="evenodd" clip-rule="evenodd" d="M29.6827 12.8156C29.3904 12.5261 28.8103 11.7509 29.2936 11.7509C29.7796 11.7509 29.9724 10.2983 29.3904 10.007C28.8103 9.71579 29.3904 8.45406 28.9045 8.16457C28.4186 7.87334 28.7108 6.90285 28.8103 6.22446C28.9045 5.54433 26.9642 4.96448 25.8964 4.47967C24.8303 3.99399 24.3461 3.21882 23.4728 2.73401C22.6003 2.2492 22.3081 3.50831 22.3081 4.2861C22.3081 5.06127 21.5325 5.15806 20.9497 4.67237C20.3669 4.18669 19.689 4.67237 18.8157 4.2861C17.9424 3.8972 18.3315 5.15806 18.3315 5.73965C18.3315 6.32038 17.3596 6.32038 16.7786 6.32038C16.1958 6.32038 15.2274 6.80606 15.2274 7.48444C15.2274 8.16196 14.3541 8.55085 14.6438 8.93974C14.9352 9.32689 14.5478 9.71579 14.1587 10.007C13.7713 10.2965 13.384 11.2653 13.0917 11.5574C12.8003 11.8477 13.2854 12.3325 12.7043 12.7206C12.1233 13.1068 11.4428 12.8156 11.1532 13.1068C10.8618 13.3981 11.1532 14.0782 11.0572 14.9519C10.9586 15.8221 10.279 16.7926 9.69708 17.5678C9.11692 18.3447 9.89163 18.5391 10.1839 18.6342C10.4735 18.7327 10.4735 19.2175 10.1839 19.7983C9.89163 20.3825 9.21288 19.9927 8.82465 19.8977C8.43729 19.7983 7.36944 20.2839 6.78753 21.2544C6.20474 22.224 6.39842 22.8056 6.59123 23.2904C6.78578 23.7753 6.10703 24.3577 6.59123 25.3273C7.07717 26.297 6.39755 26.4905 6.49613 27.2666C6.59123 28.0418 7.7568 27.945 7.85451 28.7201C7.95135 29.4953 7.46628 29.7865 7.07717 29.7865C6.68981 29.7865 6.78753 30.5617 7.17576 30.7562C7.56224 30.9515 7.4654 32.3074 7.27172 32.6971C7.0763 33.0843 5.81651 32.6971 5.91248 33.1802C6.00932 33.6659 5.62109 34.4411 5.62109 34.83C5.62109 35.2171 5.52425 36.478 5.13602 36.1859C4.98334 36.0725 4.73906 36.0638 4.49827 36.096C4.50001 36.1571 4.50001 36.2172 4.49827 36.2879C4.46861 37.0412 4.74081 37.7972 5.40385 38.3387C6.06864 38.8837 5.55478 39.6964 6.12797 40.4515C6.70203 41.2075 6.52056 41.7498 7.15482 42.2939C7.78908 42.8363 7.85015 43.1389 7.57708 43.8321C7.30575 44.527 8.12147 44.3448 8.15026 44.7668C8.18254 45.1915 7.97141 46.0652 8.18254 46.4881C8.3928 46.9101 8.8168 46.4881 9.78171 46.4584C10.7475 46.4288 10.5076 45.8236 10.5364 45.2499C10.5651 44.6779 11.0502 44.9482 11.1706 44.5872C11.291 44.2244 12.1669 44.1338 12.8614 44.4337C13.555 44.738 13.9162 44.2244 14.0392 43.4999C14.1587 42.7761 14.5504 43.6507 14.7633 43.8007C14.9735 43.9524 15.6095 42.6854 15.9088 41.871C16.2115 41.054 15.88 41.2075 15.1847 41.9896C14.4911 42.7753 14.8837 41.2075 15.1559 40.5727C15.4263 39.9388 15.3975 38.0963 15.4874 37.676C15.579 37.2531 15.7596 36.6192 16.6346 36.4387C17.5097 36.2574 18.6578 35.1709 18.4772 34.7201C18.2949 34.2658 19.6847 33.5133 19.6847 33.0599C19.6847 32.6065 18.2347 31.2183 17.7522 30.9166C17.268 30.6158 16.2124 30.8564 16.3031 30.5251C16.393 30.1929 16.181 28.8954 16.0615 28.231C15.9402 27.5657 16.8152 26.8733 16.8152 26.2385C16.8152 25.6046 16.7856 24.8809 17.3579 24.6699C17.932 24.4597 17.5708 23.9174 18.3263 23.7351C19.0783 23.5547 18.9291 22.4682 19.7449 22.136C20.5606 21.8046 20.6182 21.5308 21.6764 21.0207C22.7338 20.5063 24.5144 19.2995 24.818 18.6656C25.119 18.0325 23.7292 17.3672 24.606 16.7037C25.482 16.0401 24.757 15.285 25.3904 15.0443C26.0246 14.8019 26.2663 14.4715 26.7199 13.9893C27.1719 13.5062 27.7747 13.9596 28.8618 13.7782C29.2587 13.712 29.6234 13.7442 29.9671 13.8279C29.9218 13.344 29.8144 12.9508 29.6827 12.8156ZM19.4744 39.3633C18.3289 39.3947 17.7906 41.6504 18.0846 42.021C18.3289 42.3218 20.6208 39.3328 19.4744 39.3633Z" fill="white"/>
<path d="M29.6827 12.8156L29.7722 12.7283L29.7707 12.7268L29.6827 12.8156ZM29.3904 10.007L29.3344 10.1187L29.3345 10.1188L29.3904 10.007ZM28.9045 8.16457L28.8402 8.27179L28.8405 8.27196L28.9045 8.16457ZM28.8103 6.22446L28.934 6.2426L28.9341 6.24162L28.8103 6.22446ZM25.8964 4.47967L25.8445 4.59342L25.8447 4.59349L25.8964 4.47967ZM23.4728 2.73401L23.412 2.84327L23.4121 2.8433L23.4728 2.73401ZM18.8157 4.2861L18.7649 4.40029L18.7652 4.40041L18.8157 4.2861ZM14.6438 8.93974L14.5435 9.01441L14.5439 9.01491L14.6438 8.93974ZM14.1587 10.007L14.2335 10.1071L14.2336 10.1071L14.1587 10.007ZM13.0917 11.5574L13.1799 11.6459L13.1801 11.6458L13.0917 11.5574ZM12.7043 12.7206L12.7736 12.8247L12.7738 12.8245L12.7043 12.7206ZM11.1532 13.1068L11.2415 13.1952L11.2418 13.195L11.1532 13.1068ZM11.0572 14.9519L11.1814 14.966L11.1815 14.9656L11.0572 14.9519ZM9.69708 17.5678L9.59711 17.4927L9.59693 17.493L9.69708 17.5678ZM10.1839 18.6342L10.2242 18.5158L10.2226 18.5153L10.1839 18.6342ZM10.1839 19.7983L10.2957 19.8542L10.2958 19.854L10.1839 19.7983ZM8.82465 19.8977L8.79358 20.0187L8.79493 20.0191L8.82465 19.8977ZM6.78753 21.2544L6.89466 21.3188L6.89473 21.3187L6.78753 21.2544ZM6.59123 23.2904L6.47508 23.3366L6.47522 23.337L6.59123 23.2904ZM6.59123 25.3273L6.4794 25.3832L6.47948 25.3834L6.59123 25.3273ZM6.49613 27.2666L6.62021 27.2514L6.62014 27.2508L6.49613 27.2666ZM7.85451 28.7201L7.97854 28.7046L7.97853 28.7045L7.85451 28.7201ZM7.17576 30.7562L7.23214 30.6446L7.23174 30.6444L7.17576 30.7562ZM7.27172 32.6971L7.38332 32.7535L7.38367 32.7528L7.27172 32.6971ZM5.91248 33.1802L5.78987 33.2046L5.78989 33.2047L5.91248 33.1802ZM5.13602 36.1859L5.21117 36.086L5.21053 36.0855L5.13602 36.1859ZM4.49827 36.096L4.48167 35.9721L4.3701 35.9871L4.37332 36.0996L4.49827 36.096ZM4.49827 36.2879L4.62319 36.2928L4.62323 36.291L4.49827 36.2879ZM5.40385 38.3387L5.4831 38.2421L5.48292 38.2419L5.40385 38.3387ZM6.12797 40.4515L6.0284 40.5271L6.02842 40.5271L6.12797 40.4515ZM7.15482 42.2939L7.07343 42.3888L7.07358 42.3889L7.15482 42.2939ZM7.57708 43.8321L7.46077 43.7863L7.46064 43.7866L7.57708 43.8321ZM8.15026 44.7668L8.02555 44.7753L8.02562 44.7763L8.15026 44.7668ZM8.18254 46.4881L8.29443 46.4323L8.29438 46.4322L8.18254 46.4881ZM9.78171 46.4584L9.77787 46.3335H9.77787L9.78171 46.4584ZM10.5364 45.2499L10.4115 45.2436L10.4115 45.2436L10.5364 45.2499ZM11.1706 44.5872L11.2892 44.6267L11.2893 44.6266L11.1706 44.5872ZM12.8614 44.4337L12.9116 44.3193L12.911 44.319L12.8614 44.4337ZM14.0392 43.4999L14.1624 43.5208L14.1625 43.5202L14.0392 43.4999ZM14.7633 43.8007L14.8364 43.6993L14.8353 43.6985L14.7633 43.8007ZM15.9088 41.871L15.7916 41.8276L15.7915 41.8279L15.9088 41.871ZM15.1847 41.9896L15.0912 41.9066L15.091 41.9069L15.1847 41.9896ZM15.1559 40.5727L15.2708 40.6219L15.2709 40.6217L15.1559 40.5727ZM15.4874 37.676L15.3652 37.6496L15.3652 37.6499L15.4874 37.676ZM16.6346 36.4387L16.6599 36.5611L16.66 36.5611L16.6346 36.4387ZM18.4772 34.7201L18.5933 34.6736L18.5932 34.6735L18.4772 34.7201ZM17.7522 30.9166L17.8185 30.8106L17.8182 30.8104L17.7522 30.9166ZM16.3031 30.5251L16.4237 30.5581L16.4238 30.5577L16.3031 30.5251ZM16.0615 28.231L16.1845 28.2088L16.1844 28.2086L16.0615 28.231ZM17.3579 24.6699L17.3149 24.5525L17.3146 24.5526L17.3579 24.6699ZM18.3263 23.7351L18.2971 23.6136L18.297 23.6136L18.3263 23.7351ZM19.7449 22.136L19.6978 22.0202L19.6977 22.0202L19.7449 22.136ZM21.6764 21.0207L21.7307 21.1333L21.7311 21.1331L21.6764 21.0207ZM24.818 18.6656L24.9308 18.7196L24.9309 18.7193L24.818 18.6656ZM24.606 16.7037L24.6815 16.8033L24.6815 16.8033L24.606 16.7037ZM25.3904 15.0443L25.4348 15.1612L25.435 15.1611L25.3904 15.0443ZM26.7199 13.9893L26.811 14.0749L26.8112 14.0747L26.7199 13.9893ZM28.8618 13.7782L28.8823 13.9015L28.8823 13.9015L28.8618 13.7782ZM29.9671 13.8279L29.9375 13.9494L30.1079 13.9909L30.0916 13.8163L29.9671 13.8279ZM19.4744 39.3633L19.4711 39.2383L19.471 39.2383L19.4744 39.3633ZM18.0846 42.021L17.9867 42.0987L17.9876 42.0998L18.0846 42.021ZM29.7707 12.7268C29.6308 12.5882 29.4215 12.3321 29.3079 12.1165C29.2799 12.0633 29.2593 12.0155 29.2467 11.9747C29.2338 11.9327 29.2319 11.9057 29.2336 11.8911C29.2343 11.8846 29.2355 11.8827 29.2352 11.8834C29.235 11.8838 29.2346 11.8843 29.2341 11.885C29.2335 11.8856 29.2332 11.8858 29.2333 11.8858C29.2337 11.8854 29.2478 11.8759 29.2936 11.8759V11.6259C29.2186 11.6259 29.1451 11.6407 29.0859 11.6838C29.0228 11.7299 28.993 11.7957 28.9852 11.8621C28.9779 11.9247 28.9896 11.9892 29.0078 12.0482C29.0263 12.1085 29.0541 12.1711 29.0867 12.233C29.2154 12.4773 29.4424 12.7535 29.5947 12.9044L29.7707 12.7268ZM29.2936 11.8759C29.4842 11.8759 29.6202 11.7343 29.7051 11.5796C29.7929 11.4198 29.8478 11.2113 29.867 10.9995C29.8862 10.7871 29.8706 10.561 29.8083 10.3646C29.7464 10.1693 29.6331 9.9887 29.4464 9.89524L29.3345 10.1188C29.4387 10.171 29.5196 10.2811 29.57 10.4402C29.6201 10.5981 29.6349 10.7897 29.618 10.9769C29.601 11.1646 29.5529 11.3375 29.486 11.4592C29.4164 11.586 29.346 11.6259 29.2936 11.6259V11.8759ZM29.4465 9.89531C29.3481 9.84592 29.2908 9.75422 29.2604 9.61101C29.2292 9.4643 29.2311 9.28518 29.2371 9.08894C29.2428 8.90011 29.2525 8.69298 29.2276 8.51621C29.2028 8.33938 29.1389 8.15871 28.9685 8.05718L28.8405 8.27196C28.9131 8.31518 28.9589 8.40078 28.9801 8.55104C29.0012 8.70137 28.9932 8.88215 28.9872 9.08135C28.9814 9.27312 28.9774 9.48213 29.0158 9.66296C29.055 9.84728 29.1427 10.0225 29.3344 10.1187L29.4465 9.89531ZM28.9688 8.05735C28.8818 8.0052 28.8245 7.92104 28.7913 7.80067C28.7573 7.67777 28.7506 7.52407 28.7626 7.34818C28.7745 7.17331 28.8041 6.98479 28.8378 6.79463C28.871 6.60711 28.9087 6.41459 28.934 6.24259L28.6866 6.20633C28.6621 6.37353 28.626 6.55671 28.5916 6.75106C28.5577 6.94276 28.526 7.14226 28.5132 7.33121C28.5004 7.51915 28.5055 7.70508 28.5503 7.86725C28.5958 8.03196 28.6843 8.17832 28.8402 8.27179L28.9688 8.05735ZM28.9341 6.24162C28.9669 6.00515 28.8194 5.80239 28.6259 5.63785C28.4279 5.46954 28.149 5.31258 27.8431 5.16608C27.5357 5.01887 27.1926 4.87835 26.8621 4.74523C26.53 4.61144 26.2119 4.48563 25.948 4.36585L25.8447 4.59349C26.1148 4.71612 26.4397 4.84459 26.7687 4.97713C27.0994 5.11035 27.4357 5.2482 27.7351 5.39156C28.036 5.53565 28.2912 5.68147 28.4639 5.82832C28.6411 5.97894 28.7008 6.10371 28.6865 6.20731L28.9341 6.24162ZM25.9482 4.36592C25.4321 4.13079 25.0555 3.82537 24.6941 3.51206C24.3351 3.20084 23.9842 2.87499 23.5334 2.62472L23.4121 2.8433C23.8346 3.07784 24.1624 3.38198 24.5304 3.70096C24.8959 4.01786 25.2946 4.34287 25.8445 4.59342L25.9482 4.36592ZM23.5335 2.62475C23.2916 2.49036 23.0693 2.46679 22.875 2.54709C22.6865 2.62498 22.5501 2.79037 22.4523 2.97906C22.2571 3.35561 22.1831 3.88759 22.1831 4.2861H22.4331C22.4331 3.90682 22.5051 3.42035 22.6742 3.0941C22.7586 2.93139 22.8588 2.82429 22.9705 2.77814C23.0763 2.73441 23.2176 2.73525 23.412 2.84327L23.5335 2.62475ZM22.1831 4.2861C22.1831 4.45905 22.14 4.58276 22.0773 4.66739C22.0151 4.75144 21.927 4.80587 21.8198 4.83014C21.6012 4.87964 21.3002 4.8018 21.0297 4.57635L20.8697 4.7684C21.1819 5.02863 21.5602 5.14524 21.875 5.07397C22.0345 5.03786 22.1768 4.9531 22.2782 4.81616C22.3792 4.67981 22.4331 4.50073 22.4331 4.2861H22.1831ZM21.0297 4.57635C20.6982 4.30005 20.3374 4.30466 19.9872 4.31704C19.6321 4.32959 19.2728 4.35161 18.8663 4.17178L18.7652 4.40041C19.2319 4.60686 19.6482 4.57918 19.9961 4.56688C20.3489 4.55441 20.6184 4.55901 20.8697 4.7684L21.0297 4.57635ZM18.8666 4.17191C18.6373 4.06981 18.4353 4.05052 18.2912 4.1717C18.2235 4.22858 18.1834 4.30594 18.1592 4.38532C18.135 4.46474 18.1244 4.55387 18.1212 4.64456C18.1149 4.82522 18.1375 5.03446 18.1602 5.2271C18.1836 5.42534 18.2065 5.60359 18.2065 5.73965H18.4565C18.4565 5.58492 18.4308 5.38746 18.4085 5.19787C18.3855 5.00268 18.3655 4.81196 18.3711 4.65332C18.3738 4.57436 18.3828 4.50901 18.3983 4.4582C18.4138 4.40736 18.4334 4.37875 18.4521 4.36303C18.4807 4.339 18.5575 4.30794 18.7649 4.40029L18.8666 4.17191ZM18.2065 5.73965C18.2065 5.84382 18.1655 5.9183 18.0916 5.97849C18.0127 6.04277 17.8944 6.09159 17.7449 6.12597C17.4458 6.19478 17.0726 6.19538 16.7786 6.19538V6.44538C17.0657 6.44538 17.4689 6.44598 17.801 6.36961C17.9671 6.3314 18.128 6.27133 18.2496 6.17228C18.3761 6.06914 18.4565 5.92585 18.4565 5.73965H18.2065ZM16.7786 6.19538C16.4588 6.19538 16.0476 6.32631 15.716 6.54344C15.3871 6.75881 15.1024 7.08277 15.1024 7.48444H15.3524C15.3524 7.20773 15.552 6.94966 15.8529 6.75259C16.1512 6.55729 16.5156 6.44538 16.7786 6.44538V6.19538ZM15.1024 7.48444C15.1024 7.77194 14.9178 8.00375 14.7289 8.24284C14.6407 8.35445 14.546 8.47517 14.4969 8.5967C14.4713 8.66002 14.4553 8.72948 14.4611 8.80308C14.4669 8.87797 14.4946 8.94875 14.5435 9.01441L14.744 8.86508C14.7205 8.83352 14.7121 8.80707 14.7103 8.78361C14.7084 8.75886 14.7131 8.72884 14.7286 8.69043C14.7618 8.60849 14.8311 8.51673 14.9251 8.39781C15.1004 8.17585 15.3524 7.87446 15.3524 7.48444H15.1024ZM14.5439 9.01491C14.6017 9.09168 14.6216 9.1619 14.6206 9.22702C14.6196 9.29428 14.5961 9.36682 14.5492 9.44511C14.4534 9.6049 14.2764 9.7628 14.0838 9.90695L14.2336 10.1071C14.4301 9.96001 14.6413 9.77784 14.7636 9.57359C14.8258 9.46986 14.8688 9.35439 14.8706 9.23074C14.8725 9.10496 14.8316 8.98139 14.7436 8.86457L14.5439 9.01491ZM14.0839 9.90689C13.9709 9.99133 13.8649 10.1193 13.7673 10.2586C13.6686 10.3995 13.5724 10.5609 13.4813 10.7187C13.389 10.8785 13.303 11.0327 13.2206 11.1674C13.1374 11.3034 13.065 11.4074 13.0033 11.469L13.1801 11.6458C13.2646 11.5613 13.3502 11.4347 13.4339 11.2978C13.5184 11.1596 13.6082 10.9988 13.6978 10.8437C13.7885 10.6867 13.88 10.5334 13.972 10.402C14.0651 10.2692 14.1528 10.1675 14.2335 10.1071L14.0839 9.90689ZM13.0035 11.4688C12.9018 11.5701 12.8707 11.6886 12.8651 11.8009C12.8601 11.9016 12.8768 12.0235 12.8819 12.1097C12.8876 12.2063 12.8836 12.291 12.8526 12.3705C12.8225 12.4476 12.7623 12.5315 12.6349 12.6166L12.7738 12.8245C12.9369 12.7156 13.034 12.5934 13.0855 12.4614C13.136 12.3318 13.1379 12.2043 13.1314 12.0949C13.1243 11.9752 13.1106 11.8972 13.1148 11.8132C13.1184 11.7408 13.1359 11.6898 13.1799 11.6459L13.0035 11.4688ZM12.6351 12.6165C12.3761 12.7887 12.0924 12.8126 11.8142 12.8245C11.6796 12.8302 11.5384 12.8333 11.4147 12.8548C11.2888 12.8766 11.1628 12.9199 11.0645 13.0187L11.2418 13.195C11.2883 13.1482 11.3561 13.1187 11.4574 13.1011C11.5608 13.0832 11.6804 13.0804 11.8248 13.0742C12.1045 13.0623 12.4516 13.0387 12.7736 12.8247L12.6351 12.6165ZM11.0648 13.0184C10.9654 13.1177 10.9219 13.2451 10.9047 13.3793C10.8878 13.5116 10.895 13.6626 10.9073 13.8206C10.9322 14.143 10.9793 14.5162 10.9329 14.9383L11.1815 14.9656C11.2311 14.5139 11.1804 14.1102 11.1565 13.8013C11.1443 13.6436 11.1394 13.5154 11.1527 13.411C11.1659 13.3085 11.1952 13.2416 11.2415 13.1952L11.0648 13.0184ZM10.933 14.9378C10.8865 15.3485 10.7013 15.7914 10.4497 16.2337C10.1989 16.6747 9.88756 17.1058 9.59711 17.4927L9.79705 17.6428C10.0885 17.2546 10.4079 16.8129 10.667 16.3573C10.9254 15.903 11.1293 15.4256 11.1814 14.966L10.933 14.9378ZM9.59693 17.493C9.44378 17.6981 9.36795 17.8803 9.36236 18.0446C9.35659 18.2142 9.42627 18.3465 9.52496 18.4451C9.62055 18.5406 9.74388 18.6057 9.85475 18.6521C9.96561 18.6984 10.0768 18.7308 10.1452 18.7531L10.2226 18.5153C10.1448 18.49 10.0496 18.4625 9.95114 18.4214C9.85269 18.3802 9.7638 18.3303 9.70169 18.2683C9.6427 18.2093 9.60921 18.1413 9.61222 18.0531C9.61541 17.9594 9.6603 17.826 9.79724 17.6426L9.59693 17.493ZM10.1436 18.7525C10.2142 18.7765 10.2761 18.8527 10.2761 19.0354C10.2761 19.2155 10.2118 19.4622 10.072 19.7425L10.2958 19.854C10.4456 19.5535 10.5261 19.2676 10.5261 19.0354C10.5261 18.8058 10.4432 18.5904 10.2242 18.5158L10.1436 18.7525ZM10.0721 19.7423C10.0113 19.864 9.93589 19.9259 9.85656 19.9575C9.77365 19.9905 9.67359 19.9954 9.55789 19.9789C9.44228 19.9625 9.32084 19.9262 9.19911 19.8857C9.0823 19.847 8.95795 19.8016 8.85437 19.7762L8.79493 20.0191C8.88547 20.0412 8.99155 20.0802 9.12032 20.123C9.24419 20.1641 9.38349 20.2066 9.52263 20.2264C9.66169 20.2462 9.81038 20.245 9.94906 20.1897C10.0913 20.1331 10.2104 20.0247 10.2957 19.8542L10.0721 19.7423ZM8.85572 19.7766C8.72716 19.7436 8.56226 19.762 8.39046 19.811C8.21481 19.8612 8.01697 19.9476 7.81526 20.0673C7.41208 20.3066 6.98349 20.6845 6.68032 21.1901L6.89473 21.3187C7.17348 20.8538 7.56976 20.5037 7.94283 20.2823C8.12924 20.1717 8.30736 20.0947 8.45907 20.0514C8.61462 20.007 8.72846 20.002 8.79358 20.0187L8.85572 19.7766ZM6.68039 21.19C6.37977 21.6902 6.27389 22.1 6.27353 22.4541C6.27318 22.8066 6.37781 23.0921 6.47508 23.3366L6.70738 23.2443C6.61184 23.004 6.52323 22.7562 6.52353 22.4544C6.52383 22.1541 6.6125 21.7883 6.89466 21.3188L6.68039 21.19ZM6.47522 23.337C6.51055 23.425 6.50941 23.5238 6.48284 23.6514C6.46956 23.7152 6.45074 23.7827 6.42903 23.8574C6.40768 23.9308 6.38342 24.0116 6.36161 24.0957C6.27245 24.4398 6.21896 24.8617 6.4794 25.3832L6.70306 25.2715C6.4793 24.8234 6.52308 24.4692 6.60362 24.1584C6.62423 24.0789 6.64691 24.0035 6.66909 23.9272C6.69089 23.8522 6.71216 23.7765 6.72759 23.7024C6.75844 23.5542 6.76918 23.3983 6.70724 23.2439L6.47522 23.337ZM6.47948 25.3834C6.59491 25.6137 6.63724 25.7901 6.6426 25.9349C6.64794 26.0793 6.61695 26.2016 6.57145 26.3269C6.48195 26.5733 6.31792 26.8556 6.37213 27.2823L6.62014 27.2508C6.57576 26.9015 6.70225 26.699 6.80643 26.4122C6.85777 26.2709 6.89941 26.1145 6.89243 25.9257C6.88546 25.7372 6.83052 25.5258 6.70298 25.2713L6.47948 25.3834ZM6.37206 27.2818C6.42868 27.7433 6.81162 27.9403 7.11515 28.1035C7.44265 28.2795 7.69092 28.4219 7.73049 28.7358L7.97853 28.7045C7.92038 28.2432 7.53702 28.0464 7.23353 27.8833C6.90607 27.7072 6.65868 27.565 6.6202 27.2514L6.37206 27.2818ZM7.73047 28.7356C7.77528 29.0943 7.68425 29.3216 7.55653 29.4589C7.42606 29.5992 7.2428 29.6615 7.07717 29.6615V29.9115C7.30065 29.9115 7.55448 29.8283 7.73961 29.6292C7.92749 29.4271 8.03057 29.1211 7.97854 28.7046L7.73047 28.7356ZM7.07717 29.6615C6.92906 29.6615 6.82213 29.7403 6.76359 29.8532C6.70903 29.9584 6.6975 30.0888 6.7114 30.2124C6.73871 30.4551 6.87443 30.745 7.11978 30.8679L7.23174 30.6444C7.08885 30.5728 6.98161 30.378 6.95984 30.1845C6.9492 30.09 6.96161 30.0144 6.98554 29.9682C7.00549 29.9297 7.03161 29.9115 7.07717 29.9115V29.6615ZM7.11938 30.8677C7.16497 30.8908 7.21956 30.9645 7.26015 31.1188C7.29864 31.2652 7.31636 31.4535 7.3163 31.6537C7.31625 31.8529 7.29863 32.0583 7.26943 32.2367C7.23976 32.418 7.19978 32.561 7.15978 32.6415L7.38367 32.7528C7.44051 32.6384 7.48526 32.4658 7.51615 32.2771C7.5475 32.0855 7.56625 31.8666 7.5663 31.6538C7.56636 31.4419 7.54792 31.2302 7.50193 31.0552C7.45802 30.8883 7.37979 30.7192 7.23214 30.6446L7.11938 30.8677ZM7.16014 32.6408C7.14036 32.68 7.0813 32.72 6.94146 32.745C6.80834 32.7687 6.64714 32.7716 6.47826 32.7778C6.31928 32.7836 6.14449 32.7923 6.0156 32.8374C5.94933 32.8606 5.8798 32.8984 5.83313 32.9647C5.7836 33.035 5.77277 33.1185 5.78987 33.2046L6.03508 33.1559C6.02819 33.1212 6.03575 33.1111 6.0375 33.1086C6.04212 33.1021 6.05679 33.0879 6.09819 33.0734C6.18462 33.0431 6.319 33.0338 6.4874 33.0276C6.6459 33.0218 6.83029 33.0187 6.98535 32.9911C7.13368 32.9646 7.30538 32.9079 7.38331 32.7535L7.16014 32.6408ZM5.78989 33.2047C5.83154 33.4135 5.76899 33.6999 5.68274 34.0076C5.64153 34.1547 5.5944 34.309 5.55921 34.4451C5.52405 34.5812 5.49609 34.7157 5.49609 34.83H5.74609C5.74609 34.7498 5.76665 34.6416 5.80126 34.5077C5.83584 34.3739 5.87971 34.2312 5.92346 34.0751C6.00711 33.7767 6.09026 33.4326 6.03507 33.1558L5.78989 33.2047ZM5.49609 34.83C5.49609 35.018 5.47223 35.4202 5.40212 35.7355C5.36615 35.8972 5.32211 36.0159 5.27634 36.0757C5.25471 36.1039 5.24351 36.1048 5.24584 36.1044C5.25095 36.1034 5.24174 36.109 5.21117 36.086L5.06086 36.2857C5.12735 36.3358 5.20609 36.3658 5.2908 36.3503C5.37274 36.3353 5.43281 36.2826 5.47485 36.2277C5.55642 36.1211 5.60939 35.9551 5.64616 35.7898C5.72153 35.4508 5.74609 35.0291 5.74609 34.83H5.49609ZM5.21053 36.0855C5.11024 36.011 4.98706 35.9759 4.86406 35.9621C4.74034 35.9483 4.60819 35.9552 4.48167 35.9721L4.51487 36.2199C4.62914 36.2046 4.73953 36.1998 4.83631 36.2106C4.93382 36.2215 5.00912 36.2473 5.0615 36.2862L5.21053 36.0855ZM4.37332 36.0996C4.37499 36.1581 4.37501 36.216 4.37331 36.2848L4.62323 36.291C4.62502 36.2184 4.62504 36.156 4.62322 36.0925L4.37332 36.0996ZM4.37337 36.283C4.34235 37.0706 4.62768 37.8662 5.32479 38.4355L5.48292 38.2419C4.85393 37.7282 4.59486 37.0119 4.62317 36.2928L4.37337 36.283ZM5.32461 38.4354C5.61231 38.6712 5.64931 38.9597 5.67558 39.3253C5.70146 39.6852 5.71596 40.1154 6.0284 40.5271L6.22753 40.3759C5.96679 40.0324 5.95163 39.6787 5.92494 39.3073C5.89865 38.9415 5.86018 38.5512 5.4831 38.2421L5.32461 38.4354ZM6.02842 40.5271C6.30175 40.887 6.39424 41.1928 6.501 41.4939C6.60917 41.7991 6.73146 42.0954 7.07343 42.3888L7.23621 42.1991C6.94392 41.9483 6.83982 41.7015 6.73664 41.4104C6.63205 41.1154 6.52824 40.7719 6.22752 40.3759L6.02842 40.5271ZM7.07358 42.3889C7.38769 42.6575 7.53523 42.8475 7.58529 43.0382C7.63494 43.2272 7.5957 43.4437 7.46077 43.7863L7.69338 43.8779C7.83152 43.5272 7.89828 43.2458 7.8271 42.9747C7.75633 42.7052 7.5562 42.4727 7.23606 42.1989L7.07358 42.3889ZM7.46064 43.7866C7.38648 43.9765 7.37623 44.133 7.43389 44.2627C7.49024 44.3895 7.59939 44.4617 7.69158 44.5117C7.73741 44.5365 7.78841 44.5605 7.82895 44.5807C7.8723 44.6023 7.90865 44.6219 7.93897 44.643C7.99607 44.6828 8.02178 44.7201 8.02555 44.7753L8.27497 44.7583C8.26435 44.6025 8.1773 44.5043 8.08183 44.4379C8.03587 44.4058 7.98599 44.3796 7.94047 44.357C7.89214 44.3329 7.85165 44.3141 7.81067 44.2919C7.72925 44.2478 7.68355 44.2089 7.66235 44.1612C7.64248 44.1165 7.63201 44.0351 7.69352 43.8775L7.46064 43.7866ZM8.02562 44.7763C8.03287 44.8717 8.0266 44.9971 8.01464 45.1454C8.00307 45.2888 7.9858 45.4574 7.97463 45.6195C7.96331 45.7837 7.95727 45.9526 7.96828 46.1092C7.97919 46.2645 8.0074 46.4171 8.0707 46.5439L8.29438 46.4322C8.25212 46.3476 8.22755 46.2324 8.21766 46.0917C8.20786 45.9522 8.213 45.7968 8.22404 45.6367C8.23522 45.4744 8.25148 45.3186 8.26383 45.1655C8.27578 45.0173 8.28379 44.8743 8.2749 44.7573L8.02562 44.7763ZM8.07066 46.5438C8.13634 46.6756 8.2295 46.7582 8.35753 46.7875C8.47221 46.8137 8.60011 46.7928 8.72637 46.7646C8.99006 46.7057 9.31868 46.5977 9.78555 46.5834L9.77787 46.3335C9.27982 46.3488 8.91399 46.4666 8.67189 46.5206C8.54525 46.5489 8.46742 46.5562 8.41332 46.5438C8.37256 46.5345 8.33388 46.5115 8.29443 46.4323L8.07066 46.5438ZM9.78554 46.5834C10.038 46.5756 10.2287 46.5301 10.3684 46.4443C10.5129 46.3555 10.5913 46.2309 10.6307 46.0923C10.6684 45.9592 10.6704 45.8122 10.6671 45.6735C10.6635 45.5286 10.6543 45.3934 10.6612 45.2561L10.4115 45.2436C10.404 45.3932 10.414 45.5488 10.4171 45.6796C10.4205 45.8167 10.4167 45.9304 10.3902 46.0241C10.3652 46.1121 10.3206 46.1802 10.2376 46.2312C10.1498 46.2851 10.0083 46.3264 9.77787 46.3335L9.78554 46.5834ZM10.6612 45.2562C10.6675 45.1311 10.6977 45.0701 10.7261 45.0365C10.7556 45.0017 10.7967 44.9797 10.8605 44.9574C10.9711 44.9186 11.2049 44.8794 11.2892 44.6267L11.052 44.5476C11.0159 44.6559 10.947 44.6621 10.7778 44.7214C10.7016 44.7481 10.6086 44.7884 10.5353 44.875C10.4609 44.9629 10.4196 45.0827 10.4115 45.2436L10.6612 45.2562ZM11.2893 44.6266C11.305 44.579 11.3506 44.5263 11.4437 44.4799C11.5359 44.4339 11.6623 44.4007 11.8126 44.3864C12.113 44.3578 12.4845 44.4071 12.8118 44.5485L12.911 44.319C12.5439 44.1604 12.1301 44.105 11.7889 44.1375C11.6183 44.1537 11.4598 44.1925 11.3321 44.2561C11.2055 44.3193 11.0964 44.414 11.052 44.5478L11.2893 44.6266ZM12.8112 44.5482C12.9998 44.631 13.1753 44.6622 13.3362 44.6421C13.4984 44.6218 13.6364 44.5504 13.7499 44.4437C13.9719 44.2348 14.0993 43.8925 14.1624 43.5208L13.9159 43.4789C13.856 43.8318 13.7413 44.1086 13.5786 44.2616C13.4997 44.3358 13.4097 44.381 13.3052 44.394C13.1995 44.4073 13.0698 44.3886 12.9116 44.3193L12.8112 44.5482ZM14.1625 43.5202C14.1765 43.4353 14.1931 43.3838 14.2076 43.3548C14.2224 43.3254 14.2268 43.3346 14.2095 43.3399C14.1918 43.3454 14.1856 43.3363 14.2028 43.346C14.2197 43.3557 14.244 43.3755 14.2756 43.4087C14.3388 43.4753 14.4057 43.5679 14.477 43.6634C14.5113 43.7094 14.5466 43.7558 14.5807 43.7959C14.6137 43.8347 14.6513 43.8747 14.6913 43.9029L14.8353 43.6985C14.822 43.6891 14.8009 43.669 14.7712 43.6341C14.7427 43.6005 14.7115 43.5596 14.6773 43.5138C14.6116 43.4258 14.5331 43.3169 14.4569 43.2366C14.4187 43.1963 14.3747 43.1563 14.3266 43.1288C14.2787 43.1015 14.2107 43.0781 14.1361 43.1009C14.0619 43.1237 14.0145 43.1822 13.9841 43.2429C13.9535 43.304 13.9317 43.3834 13.9158 43.4795L14.1625 43.5202ZM14.6901 43.902C14.774 43.9626 14.8651 43.936 14.9225 43.9033C14.9795 43.8708 15.034 43.8175 15.084 43.7588C15.186 43.6391 15.2993 43.4609 15.4119 43.259C15.638 42.8532 15.8745 42.3269 16.0261 41.9141L15.7915 41.8279C15.6439 42.2296 15.4127 42.7439 15.1935 43.1373C15.0833 43.335 14.9795 43.496 14.8937 43.5966C14.8499 43.6481 14.8179 43.6752 14.7987 43.6861C14.7799 43.6969 14.8051 43.6767 14.8364 43.6993L14.6901 43.902ZM16.026 41.9145C16.1018 41.7098 16.1453 41.548 16.1461 41.4358C16.1465 41.3823 16.1378 41.3092 16.0852 41.2556C16.024 41.1935 15.9444 41.1955 15.8898 41.2096C15.836 41.2234 15.7811 41.2539 15.7287 41.2897C15.6745 41.3268 15.6146 41.3753 15.5501 41.4333C15.4211 41.5493 15.2665 41.7094 15.0912 41.9066L15.2781 42.0727C15.4505 41.8788 15.5981 41.7264 15.7173 41.6192C15.7769 41.5655 15.8278 41.5248 15.8697 41.4962C15.9133 41.4664 15.94 41.4548 15.9522 41.4517C15.9636 41.4487 15.9343 41.4588 15.9069 41.4309C15.888 41.4117 15.8964 41.3992 15.8961 41.434C15.8957 41.4983 15.8671 41.6237 15.7916 41.8276L16.026 41.9145ZM15.091 41.9069C15.007 42.002 14.9484 42.0508 14.9117 42.0715C14.8737 42.0929 14.897 42.0663 14.9287 42.0924C14.9423 42.1036 14.9291 42.1029 14.9234 42.0422C14.9186 41.9903 14.9213 41.9182 14.9322 41.8289C14.9759 41.4701 15.1382 40.9311 15.2708 40.6219L15.041 40.5234C14.9014 40.8491 14.7312 41.4113 14.684 41.7987C14.6722 41.8959 14.6673 41.9882 14.6745 42.0656C14.681 42.1343 14.6998 42.2279 14.7699 42.2855C14.8581 42.3579 14.9623 42.3299 15.0345 42.2892C15.1081 42.2477 15.1889 42.1737 15.2784 42.0723L15.091 41.9069ZM15.2709 40.6217C15.3454 40.447 15.396 40.1989 15.433 39.9287C15.4703 39.6558 15.4951 39.3494 15.5141 39.0522C15.533 38.7564 15.5465 38.4628 15.5605 38.2241C15.5749 37.9792 15.5896 37.7959 15.6096 37.7022L15.3652 37.6499C15.3403 37.7663 15.3249 37.9709 15.3109 38.2095C15.2966 38.4542 15.2836 38.7397 15.2646 39.0363C15.2458 39.3315 15.2214 39.6308 15.1853 39.8948C15.1488 40.1615 15.1016 40.3815 15.0409 40.5236L15.2709 40.6217ZM15.6096 37.7025C15.6548 37.4935 15.7188 37.2507 15.8692 37.0388C16.0164 36.8314 16.2525 36.6452 16.6599 36.5611L16.6094 36.3163C16.1417 36.4128 15.8501 36.6338 15.6653 36.8941C15.4837 37.15 15.4116 37.4357 15.3652 37.6496L15.6096 37.7025ZM16.66 36.5611C17.1284 36.4641 17.6542 36.131 18.0373 35.7716C18.23 35.5909 18.3931 35.3976 18.4971 35.2153C18.5968 35.0406 18.661 34.8427 18.5933 34.6736L18.3612 34.7666C18.3837 34.8229 18.3721 34.9299 18.28 35.0914C18.1922 35.2452 18.0475 35.4193 17.8663 35.5893C17.5018 35.9312 17.016 36.232 16.6093 36.3163L16.66 36.5611ZM18.5932 34.6735C18.5744 34.6267 18.5872 34.5455 18.6895 34.4071C18.7862 34.2764 18.9343 34.133 19.0976 33.9812C19.257 33.8332 19.431 33.6771 19.5632 33.5304C19.6298 33.4565 19.6896 33.3809 19.7334 33.3055C19.7766 33.2311 19.8097 33.1475 19.8097 33.0599H19.5597C19.5597 33.0857 19.5493 33.1247 19.5172 33.18C19.4857 33.2343 19.4384 33.2954 19.3775 33.363C19.2549 33.4991 19.0928 33.6445 18.9275 33.7981C18.7662 33.9479 18.6011 34.1062 18.4885 34.2585C18.3815 34.4032 18.2888 34.5864 18.3612 34.7667L18.5932 34.6735ZM19.8097 33.0599C19.8097 32.9742 19.7768 32.882 19.7334 32.7945C19.6887 32.7041 19.6259 32.6054 19.5519 32.5029C19.4037 32.2978 19.2031 32.0678 18.9896 31.8449C18.565 31.4016 18.0733 30.9699 17.8185 30.8106L17.686 31.0226C17.9137 31.165 18.3881 31.5783 18.8091 32.0178C19.0184 32.2364 19.2104 32.4572 19.3492 32.6493C19.4187 32.7455 19.473 32.8319 19.5094 32.9055C19.5472 32.9818 19.5597 33.0322 19.5597 33.0599H19.8097ZM17.8182 30.8104C17.6756 30.7218 17.4989 30.6773 17.3274 30.6515C17.1549 30.6256 16.9736 30.6168 16.8196 30.6075C16.6584 30.5978 16.5364 30.5877 16.4598 30.5642C16.4213 30.5525 16.4139 30.5428 16.4161 30.5454C16.4251 30.5563 16.4211 30.5676 16.4237 30.5581L16.1826 30.4921C16.1625 30.5654 16.1716 30.6416 16.2229 30.7041C16.2673 30.7581 16.3312 30.7863 16.3866 30.8033C16.4975 30.8373 16.6526 30.8479 16.8046 30.8571C16.9637 30.8666 17.1314 30.8748 17.2902 30.8987C17.4499 30.9228 17.5867 30.9609 17.6863 31.0228L17.8182 30.8104ZM16.4238 30.5577C16.4521 30.4532 16.454 30.2912 16.4449 30.1136C16.4356 29.9304 16.4134 29.7129 16.3848 29.4869C16.3277 29.0348 16.2444 28.5419 16.1845 28.2088L15.9384 28.2531C15.998 28.5845 16.0805 29.0725 16.1368 29.5183C16.165 29.7413 16.1864 29.952 16.1952 30.1263C16.2044 30.3061 16.1991 30.4309 16.1825 30.4925L16.4238 30.5577ZM16.1844 28.2086C16.1597 28.0729 16.1845 27.9293 16.2447 27.7733C16.3052 27.6163 16.3979 27.4561 16.4997 27.2882C16.5995 27.1237 16.7094 26.9501 16.7928 26.7788C16.8763 26.6073 16.9402 26.4249 16.9402 26.2385H16.6902C16.6902 26.3696 16.6448 26.5118 16.568 26.6694C16.4911 26.8273 16.3898 26.9873 16.286 27.1585C16.1843 27.3262 16.0809 27.5034 16.0115 27.6832C15.9417 27.8639 15.9026 28.0564 15.9385 28.2534L16.1844 28.2086ZM16.9402 26.2385C16.9402 25.9149 16.9336 25.5926 16.9939 25.3229C17.0529 25.0592 17.1699 24.8724 17.4011 24.7872L17.3146 24.5526C16.9736 24.6784 16.8192 24.959 16.75 25.2683C16.6821 25.5718 16.6902 25.9283 16.6902 26.2385H16.9402ZM17.4009 24.7873C17.5674 24.7263 17.6735 24.6376 17.7473 24.5328C17.8164 24.4348 17.8554 24.3229 17.8897 24.2396C17.9261 24.151 17.9619 24.0791 18.0245 24.0178C18.0861 23.9574 18.1832 23.8983 18.3556 23.8567L18.297 23.6136C18.0917 23.6632 17.9506 23.7402 17.8495 23.8393C17.7493 23.9375 17.6979 24.0485 17.6584 24.1445C17.6168 24.2458 17.5912 24.3204 17.543 24.3888C17.4995 24.4505 17.4354 24.5084 17.3149 24.5525L17.4009 24.7873ZM18.3555 23.8567C18.7985 23.7504 18.9711 23.3709 19.1247 23.0459C19.2862 22.7042 19.4354 22.397 19.792 22.2517L19.6977 22.0202C19.2386 22.2072 19.0546 22.6093 18.8987 22.939C18.735 23.2854 18.6061 23.5394 18.2971 23.6136L18.3555 23.8567ZM19.7919 22.2518C20.2128 22.0808 20.4402 21.9232 20.6913 21.7479C20.9378 21.5757 21.2104 21.3841 21.7307 21.1333L21.6221 20.9081C21.0842 21.1674 20.7989 21.3678 20.5481 21.5429C20.3019 21.7148 20.0926 21.8598 19.6978 22.0202L19.7919 22.2518ZM21.7311 21.1331C22.2675 20.8722 22.9832 20.4379 23.6032 19.9892C23.9134 19.7647 24.2018 19.5351 24.4329 19.3202C24.6609 19.1082 24.8441 18.9005 24.9308 18.7196L24.7053 18.6116C24.6402 18.7476 24.487 18.9285 24.2626 19.1371C24.0414 19.3428 23.7617 19.5659 23.4566 19.7867C22.8461 20.2285 22.1428 20.6548 21.6217 20.9083L21.7311 21.1331ZM24.9309 18.7193C25.0291 18.5128 24.9834 18.3101 24.9022 18.1331C24.824 17.9627 24.6953 17.7826 24.6028 17.631C24.5034 17.4678 24.4384 17.3282 24.4366 17.1994C24.435 17.0835 24.4851 16.952 24.6815 16.8033L24.5306 16.604C24.2886 16.7872 24.1836 16.9876 24.1866 17.2029C24.1894 17.4052 24.2887 17.5959 24.3894 17.7611C24.4972 17.938 24.6047 18.0843 24.675 18.2374C24.7423 18.384 24.7575 18.5019 24.7052 18.6119L24.9309 18.7193ZM24.6815 16.8033C24.9175 16.6246 25.0515 16.4346 25.1256 16.2435C25.1988 16.0547 25.2103 15.8726 25.2141 15.7185C25.2181 15.5551 25.215 15.442 25.2434 15.348C25.2562 15.3056 25.2747 15.2718 25.3016 15.2434C25.3288 15.2146 25.3696 15.1859 25.4348 15.1612L25.346 14.9275C25.2527 14.9629 25.1777 15.0105 25.1199 15.0717C25.0618 15.1331 25.0261 15.203 25.0041 15.2756C24.963 15.4116 24.9676 15.5739 24.9642 15.7123C24.9606 15.86 24.9495 16.0062 24.8925 16.1531C24.8364 16.2977 24.7326 16.451 24.5306 16.604L24.6815 16.8033ZM25.435 15.1611C26.1018 14.9062 26.3643 14.5497 26.811 14.0749L26.6289 13.9036C26.1683 14.3932 25.9474 14.6976 25.3457 14.9276L25.435 15.1611ZM26.8112 14.0747C26.9939 13.8794 27.2021 13.8651 27.5417 13.8951C27.8771 13.9248 28.3192 13.9955 28.8823 13.9015L28.8412 13.655C28.3173 13.7424 27.9144 13.6771 27.5637 13.6461C27.217 13.6155 26.8979 13.6161 26.6287 13.9039L26.8112 14.0747ZM28.8823 13.9015C29.2596 13.8386 29.607 13.8689 29.9375 13.9494L29.9967 13.7065C29.6398 13.6196 29.2578 13.5854 28.8412 13.655L28.8823 13.9015ZM30.0916 13.8163C30.0684 13.5689 30.0292 13.342 29.9777 13.1574C29.928 12.9789 29.8616 12.82 29.7722 12.7284L29.5932 12.9029C29.6356 12.9463 29.6887 13.0516 29.7369 13.2245C29.7834 13.3913 29.8205 13.603 29.8427 13.8396L30.0916 13.8163ZM19.471 39.2383C19.1407 39.2474 18.8628 39.4171 18.6413 39.6544C18.4202 39.8912 18.2475 40.2029 18.1233 40.5193C17.999 40.8362 17.9206 41.165 17.8923 41.4411C17.8782 41.579 17.8762 41.7072 17.8888 41.816C17.9008 41.9207 17.9281 42.0248 17.9867 42.0987L18.1825 41.9433C18.1677 41.9246 18.1474 41.8771 18.1371 41.7874C18.1273 41.7018 18.1281 41.5927 18.141 41.4665C18.1668 41.2145 18.2394 40.9079 18.3561 40.6106C18.4729 40.3128 18.6312 40.0315 18.824 39.825C19.0164 39.6189 19.2353 39.4949 19.4778 39.4882L19.471 39.2383ZM17.9876 42.0998C18.0413 42.1659 18.118 42.1737 18.1751 42.1634C18.2285 42.1539 18.2812 42.1273 18.3282 42.0976C18.4245 42.0369 18.5376 41.9367 18.6556 41.8156C18.8934 41.5715 19.1719 41.2204 19.4057 40.8618C19.6374 40.5064 19.835 40.1289 19.8975 39.8339C19.9282 39.6889 19.9324 39.5366 19.8613 39.4171C19.7832 39.286 19.6405 39.2338 19.4711 39.2383L19.4777 39.4882C19.5949 39.4851 19.6314 39.5197 19.6464 39.545C19.6685 39.582 19.6797 39.6558 19.6529 39.7821C19.6005 40.0296 19.4248 40.3748 19.1963 40.7252C18.9699 41.0725 18.7013 41.4104 18.4765 41.6411C18.3631 41.7575 18.2661 41.8412 18.1948 41.8862C18.158 41.9094 18.1375 41.9162 18.131 41.9174C18.1283 41.9179 18.1585 41.9137 18.1817 41.9422L17.9876 42.0998Z" fill="#868686"/>
</g>
<defs>
<filter id="filter0_d_877_3419" x="0.369141" y="0.500977" width="33.7383" height="52.2988" filterUnits="userSpaceOnUse" color-interpolation-filters="sRGB">
<feFlood flood-opacity="0" result="BackgroundImageFix"/>
<feColorMatrix in="SourceAlpha" type="matrix" values="0 0 0 0 0 0 0 0 0 0 0 0 0 0 0 0 0 0 127 0" result="hardAlpha"/>
<feOffset dy="2"/>
<feGaussianBlur stdDeviation="2"/>
<feColorMatrix type="matrix" values="0 0 0 0 0 0 0 0 0 0 0 0 0 0 0 0 0 0 0.01 0"/>
<feBlend mode="normal" in2="BackgroundImageFix" result="effect1_dropShadow_877_3419"/>
<feBlend mode="normal" in="SourceGraphic" in2="effect1_dropShadow_877_3419" result="shape"/>
</filter>
</defs>
</svg>
