<svg width="32" height="19" viewBox="0 0 32 19" fill="none" xmlns="http://www.w3.org/2000/svg">
<g filter="url(#filter0_d_877_3262)">
<path fill-rule="evenodd" clip-rule="evenodd" d="M25.6007 4.21993C24.8164 3.31484 24.5748 3.91562 23.6692 3.6767C22.7618 3.43604 19.1395 3.07243 18.4145 3.37326C17.6904 3.6767 16.1794 2.8309 15.6978 2.58936C15.2136 2.3487 13.6441 2.58937 13.5839 3.43604C13.5246 4.28097 12.8589 4.27922 11.7727 3.73512C10.6857 3.19363 9.0551 3.19363 8.9949 3.7979C8.93296 4.40042 8.1469 5.00469 7.72639 5.18432C7.56586 5.25407 7.33467 5.74324 7.10958 6.32135C7.44285 6.44866 7.64525 6.73466 7.86772 6.99973C8.26991 7.48193 9.31857 7.40171 9.47997 6.91864C9.64224 6.43558 11.3339 7.40171 12.3023 8.2074C13.2689 9.01396 11.8181 8.44893 11.4141 9.25637C11.0102 10.0612 9.80277 9.25637 9.4791 9.57812C9.15717 9.89987 7.06159 10.0612 6.49626 9.98184C5.93093 9.89987 4.96427 10.7867 5.04366 11.1904C5.12567 11.5941 7.22299 10.9488 7.94798 11.4319C8.67297 11.915 9.39971 10.948 9.80277 11.513C10.205 12.0763 11.0931 11.6734 11.4953 11.8356C11.8966 11.9969 14.1344 11.6769 14.1536 11.6726C14.4014 11.3839 14.4877 10.9968 14.4877 10.662C14.4877 10.1187 14.9405 10.2539 15.3942 10.1187C15.8478 9.98184 16.1654 9.39414 16.5266 9.39414C16.8886 9.39414 17.3868 8.8509 17.7489 8.98693C18.1101 9.12383 18.5637 9.75774 19.0156 9.39414C19.4693 9.03227 19.6063 9.34879 20.2379 8.57885C20.8739 7.80891 21.2805 7.94494 22.0962 8.03649C23.0454 8.142 23.4554 7.67289 23.7268 7.1314C23.9981 6.5873 24.8138 6.5873 25.3102 6.22544C25.8084 5.86444 26.8056 5.45724 27.1231 5.32034C27.2758 5.25407 27.3107 5.0945 27.3098 4.88175C26.5796 4.29579 26.2577 4.97941 25.6007 4.21993Z" fill="white"/>
<path fill-rule="evenodd" clip-rule="evenodd" d="M25.6007 4.21993C24.8164 3.31484 24.5748 3.91562 23.6692 3.6767C22.7618 3.43604 19.1395 3.07243 18.4145 3.37326C17.6904 3.6767 16.1794 2.8309 15.6978 2.58936C15.2136 2.3487 13.6441 2.58937 13.5839 3.43604C13.5246 4.28097 12.8589 4.27922 11.7727 3.73512C10.6857 3.19363 9.0551 3.19363 8.9949 3.7979C8.93296 4.40042 8.1469 5.00469 7.72639 5.18432C7.56586 5.25407 7.33467 5.74324 7.10958 6.32135C7.44285 6.44866 7.64525 6.73466 7.86772 6.99973C8.26991 7.48193 9.31857 7.40171 9.47997 6.91864C9.64224 6.43558 11.3339 7.40171 12.3023 8.2074C13.2689 9.01396 11.8181 8.44893 11.4141 9.25637C11.0102 10.0612 9.80277 9.25637 9.4791 9.57812C9.15717 9.89987 7.06159 10.0612 6.49626 9.98184C5.93093 9.89987 4.96427 10.7867 5.04366 11.1904C5.12567 11.5941 7.22299 10.9488 7.94798 11.4319C8.67297 11.915 9.39971 10.948 9.80277 11.513C10.205 12.0763 11.0931 11.6734 11.4953 11.8356C11.8966 11.9969 14.1344 11.6769 14.1536 11.6726C14.4014 11.3839 14.4877 10.9968 14.4877 10.662C14.4877 10.1187 14.9405 10.2539 15.3942 10.1187C15.8478 9.98184 16.1654 9.39414 16.5266 9.39414C16.8886 9.39414 17.3868 8.8509 17.7489 8.98693C18.1101 9.12383 18.5637 9.75774 19.0156 9.39414C19.4693 9.03227 19.6063 9.34879 20.2379 8.57885C20.8739 7.80891 21.2805 7.94494 22.0962 8.03649C23.0454 8.142 23.4554 7.67289 23.7268 7.1314C23.9981 6.5873 24.8138 6.5873 25.3102 6.22544C25.8084 5.86444 26.8056 5.45724 27.1231 5.32034C27.2758 5.25407 27.3107 5.0945 27.3098 4.88175C26.5796 4.29579 26.2577 4.97941 25.6007 4.21993Z" stroke="#868686" stroke-width="0.25"/>
</g>
<defs>
<filter id="filter0_d_877_3262" x="0.914062" y="0.375977" width="30.5215" height="17.6299" filterUnits="userSpaceOnUse" color-interpolation-filters="sRGB">
<feFlood flood-opacity="0" result="BackgroundImageFix"/>
<feColorMatrix in="SourceAlpha" type="matrix" values="0 0 0 0 0 0 0 0 0 0 0 0 0 0 0 0 0 0 127 0" result="hardAlpha"/>
<feOffset dy="2"/>
<feGaussianBlur stdDeviation="2"/>
<feColorMatrix type="matrix" values="0 0 0 0 0 0 0 0 0 0 0 0 0 0 0 0 0 0 0.01 0"/>
<feBlend mode="normal" in2="BackgroundImageFix" result="effect1_dropShadow_877_3262"/>
<feBlend mode="normal" in="SourceGraphic" in2="effect1_dropShadow_877_3262" result="shape"/>
</filter>
</defs>
</svg>
