<svg width="33" height="24" viewBox="0 0 33 24" fill="none" xmlns="http://www.w3.org/2000/svg">
<g filter="url(#filter0_d_877_3457)">
<path fill-rule="evenodd" clip-rule="evenodd" d="M21.5019 3.15414C20.4515 3.38695 17.8238 3.21169 17.4748 3.38695C17.1241 3.56309 14.6743 5.31398 14.3253 6.13014C13.9746 6.94716 13.4485 7.06313 12.9233 6.65593C12.399 6.24611 10.238 6.36382 10.0653 6.18682C9.8899 6.0133 8.31429 5.8389 7.55614 5.95575C6.79626 6.07259 6.38796 5.60435 6.03986 5.72032C5.68827 5.83629 5.33755 6.24611 5.16481 6.47805C4.98946 6.71261 5.33755 7.35524 5.22327 7.58893C5.19011 7.64822 4.81584 7.84615 4.2793 8.10164C4.46338 8.55506 4.57069 9.02243 4.45204 9.36075C4.21125 10.0574 4.42325 11.6845 5.05576 12.6201C5.69002 13.554 5.44835 15.2752 5.75021 15.6092C6.05295 15.9397 8.40764 15.8813 9.46328 15.1854C10.5207 14.4922 11.2457 14.3693 12.0919 14.3693C12.9373 14.3693 14.054 13.6464 14.3262 13.2828C14.5975 12.9218 15.8355 12.8922 16.3485 12.9532C16.8615 13.0134 17.3753 12.4405 17.9485 11.8676C18.5217 11.2921 20.3346 11.0515 22.2671 10.4472C24.1986 9.84468 23.7755 8.93959 24.2274 8.39462C24.6069 7.94033 25.14 8.07199 25.9758 7.7389C25.037 5.8171 23.9945 3.66337 23.4728 2.58301C22.5445 2.86901 21.7933 3.08962 21.5019 3.15414ZM26.4774 16.6756C27.1535 17.3758 28.4849 16.5605 28.5547 16.2815C28.6262 15.9998 25.7149 15.8891 26.4774 16.6756Z" fill="white"/>
<path d="M21.5019 3.15414L21.4749 3.0321L21.4749 3.0321L21.5019 3.15414ZM17.4748 3.38695L17.5309 3.49866L17.5309 3.49866L17.4748 3.38695ZM14.3253 6.13014L14.4402 6.17945L14.4403 6.17928L14.3253 6.13014ZM12.9233 6.65593L12.8464 6.75442L12.8467 6.75472L12.9233 6.65593ZM10.0653 6.18682L10.1547 6.0995L10.1532 6.09796L10.0653 6.18682ZM7.55614 5.95575L7.57514 6.07929L7.57518 6.07929L7.55614 5.95575ZM6.03986 5.72032L6.07902 5.83903L6.07937 5.83891L6.03986 5.72032ZM5.16481 6.47805L5.26493 6.5529L5.26506 6.55271L5.16481 6.47805ZM5.22327 7.58893L5.33254 7.65002L5.33556 7.64384L5.22327 7.58893ZM4.2793 8.10164L4.22556 7.98878L4.11914 8.03945L4.16348 8.14866L4.2793 8.10164ZM4.45204 9.36075L4.33408 9.31938L4.3339 9.31991L4.45204 9.36075ZM5.05576 12.6201L4.9522 12.6901L4.95235 12.6904L5.05576 12.6201ZM5.75021 15.6092L5.65748 15.693L5.65804 15.6936L5.75021 15.6092ZM9.46328 15.1854L9.39474 15.0809L9.39448 15.0811L9.46328 15.1854ZM14.3262 13.2828L14.2263 13.2077L14.2261 13.2079L14.3262 13.2828ZM16.3485 12.9532L16.3337 13.0773L16.3339 13.0774L16.3485 12.9532ZM17.9485 11.8676L18.0369 11.956L18.0371 11.9558L17.9485 11.8676ZM22.2671 10.4472L22.2298 10.3279L22.2298 10.3279L22.2671 10.4472ZM24.2274 8.39462L24.1315 8.31448L24.1312 8.31483L24.2274 8.39462ZM25.9758 7.7389L26.022 7.85502L26.1472 7.80513L26.0881 7.68404L25.9758 7.7389ZM23.4728 2.58301L23.5853 2.52865L23.5386 2.43192L23.436 2.46355L23.4728 2.58301ZM26.4774 16.6756L26.5673 16.5888L26.5672 16.5886L26.4774 16.6756ZM28.5547 16.2815L28.4335 16.2507L28.4334 16.2512L28.5547 16.2815ZM21.4749 3.0321C20.9656 3.14498 20.0618 3.15989 19.2243 3.16713C18.8096 3.17072 18.413 3.17252 18.0988 3.18447C17.9417 3.19044 17.8026 3.19903 17.6906 3.21201C17.5844 3.22432 17.4844 3.24223 17.4187 3.27525L17.5309 3.49866C17.5524 3.48786 17.6109 3.47291 17.7193 3.46035C17.8219 3.44846 17.9536 3.44017 18.1083 3.43429C18.4178 3.42252 18.8093 3.42073 19.2264 3.41712C20.0526 3.40998 20.9879 3.39611 21.529 3.27618L21.4749 3.0321ZM17.4187 3.27525C17.3211 3.32429 17.0944 3.47255 16.8115 3.67314C16.5252 3.87611 16.1732 4.13848 15.8212 4.42106C15.4694 4.70339 15.1158 5.00729 14.8273 5.29318C14.5429 5.57507 14.3081 5.85241 14.2104 6.08099L14.4403 6.17928C14.517 5.99979 14.7193 5.75221 15.0033 5.47076C15.2833 5.19331 15.6295 4.89545 15.9777 4.61602C16.3255 4.33684 16.6735 4.07745 16.9561 3.87708C17.2421 3.67433 17.4532 3.53769 17.5309 3.49866L17.4187 3.27525ZM14.2105 6.08083C14.0414 6.47466 13.8424 6.66958 13.6503 6.73352C13.4631 6.79583 13.2435 6.74601 12.9999 6.55714L12.8467 6.75472C13.1284 6.97306 13.4344 7.06885 13.7292 6.97072C14.0192 6.87422 14.2585 6.60264 14.4402 6.17945L14.2105 6.08083ZM13.0003 6.55744C12.8424 6.43402 12.5807 6.36092 12.3016 6.31154C12.0158 6.26097 11.6857 6.23139 11.3712 6.20937C11.0529 6.18709 10.7561 6.17282 10.5217 6.15262C10.4052 6.14258 10.3096 6.13147 10.2394 6.11817C10.2042 6.1115 10.1787 6.10488 10.1616 6.09885C10.1412 6.09166 10.1449 6.0895 10.1547 6.09951L9.97579 6.27412C10.0072 6.30626 10.0481 6.32393 10.0785 6.33465C10.1123 6.34655 10.1515 6.35595 10.1929 6.3638C10.2759 6.37954 10.3817 6.39148 10.5002 6.4017C10.736 6.42202 11.0447 6.43712 11.3537 6.45876C11.6666 6.48067 11.9859 6.50956 12.2581 6.55772C12.537 6.60706 12.7421 6.67293 12.8464 6.75442L13.0003 6.55744ZM10.1532 6.09796C10.1093 6.05451 10.0409 6.02547 9.97893 6.0041C9.91085 5.98063 9.82647 5.9588 9.73168 5.93878C9.54167 5.89863 9.29981 5.86364 9.04159 5.83801C8.52768 5.78699 7.93183 5.77137 7.5371 5.83221L7.57518 6.07929C7.9386 6.02328 8.50963 6.03643 9.0169 6.08678C9.26926 6.11183 9.50158 6.14568 9.68 6.18338C9.76943 6.20227 9.84283 6.22162 9.89745 6.24045C9.95815 6.26137 9.9774 6.27574 9.97733 6.27567L10.1532 6.09796ZM7.53715 5.8322C7.18828 5.88584 6.92009 5.80636 6.68651 5.72096C6.57312 5.6795 6.45509 5.63141 6.34823 5.60363C6.23802 5.57498 6.11993 5.56189 6.00035 5.60173L6.07937 5.83891C6.13384 5.82076 6.19733 5.82271 6.28533 5.84559C6.37667 5.86933 6.47347 5.90926 6.60066 5.95576C6.84822 6.04627 7.16412 6.14249 7.57514 6.07929L7.53715 5.8322ZM6.00071 5.60161C5.79871 5.66824 5.60701 5.81473 5.44906 5.96518C5.28911 6.11754 5.15358 6.28386 5.06456 6.40339L5.26506 6.55271C5.34879 6.4403 5.47499 6.28574 5.62148 6.14621C5.76996 6.00477 5.92943 5.88837 6.07902 5.83903L6.00071 5.60161ZM5.0647 6.4032C4.99342 6.49854 4.98458 6.62064 4.99129 6.72568C4.99822 6.83415 5.02411 6.95312 5.04937 7.06205C5.07564 7.17537 5.1011 7.27753 5.11394 7.36743C5.12751 7.46242 5.1215 7.5125 5.11098 7.53401L5.33556 7.64384C5.38218 7.54851 5.37551 7.43063 5.36143 7.33208C5.34663 7.22843 5.31745 7.11145 5.29291 7.00558C5.26734 6.89532 5.24623 6.79504 5.24078 6.70975C5.23512 6.62102 5.24853 6.57484 5.26493 6.5529L5.0647 6.4032ZM5.11416 7.52792C5.12289 7.51232 5.13073 7.50898 5.11702 7.51997C5.10737 7.5277 5.09199 7.53864 5.06973 7.55292C5.0255 7.5813 4.96203 7.61786 4.88074 7.66168C4.71864 7.74907 4.49308 7.8614 4.22556 7.98878L4.33304 8.2145C4.60206 8.0864 4.83191 7.97202 4.99937 7.88174C5.08286 7.83673 5.1527 7.79672 5.20474 7.76333C5.23062 7.74672 5.25411 7.73047 5.27337 7.71504C5.28857 7.70286 5.31536 7.68036 5.33237 7.64993L5.11416 7.52792ZM4.16348 8.14866C4.25337 8.37008 4.32279 8.59085 4.35581 8.79437C4.38899 8.99894 4.38393 9.17725 4.33408 9.31938L4.56999 9.40212C4.6388 9.20593 4.63941 8.98139 4.60258 8.75434C4.56558 8.52624 4.4893 8.28661 4.39512 8.05462L4.16348 8.14866ZM4.3339 9.31991C4.20337 9.69758 4.1999 10.3032 4.30312 10.9214C4.40688 11.543 4.6226 12.2026 4.9522 12.6901L5.15932 12.5501C4.85641 12.1021 4.64987 11.4803 4.5497 10.8803C4.44899 10.2769 4.45992 9.72061 4.57018 9.40158L4.3339 9.31991ZM4.95235 12.6904C5.24929 13.1276 5.34639 13.7605 5.40321 14.3516C5.43092 14.6399 5.44958 14.9235 5.47965 15.1491C5.49483 15.2631 5.51362 15.3685 5.5397 15.4581C5.56517 15.5457 5.60097 15.6305 5.65748 15.693L5.84295 15.5254C5.824 15.5044 5.80131 15.4624 5.77975 15.3883C5.75878 15.3162 5.74197 15.225 5.72746 15.1161C5.69811 14.8959 5.68095 14.6282 5.65206 14.3277C5.59569 13.7412 5.49648 13.0466 5.15917 12.5499L4.95235 12.6904ZM5.65804 15.6936C5.71952 15.7608 5.81675 15.8039 5.91741 15.8341C6.02272 15.8658 6.15185 15.889 6.29627 15.9045C6.58556 15.9357 6.94929 15.9374 7.33431 15.9068C8.09922 15.846 8.97752 15.6553 9.53207 15.2898L9.39448 15.0811C8.8934 15.4114 8.06653 15.5978 7.3145 15.6576C6.94105 15.6873 6.59336 15.6851 6.32303 15.656C6.18762 15.6414 6.07488 15.6204 5.98935 15.5947C5.89917 15.5676 5.85659 15.5403 5.84239 15.5248L5.65804 15.6936ZM9.53181 15.29C10.5664 14.6117 11.2669 14.4943 12.0919 14.4943V14.2443C11.2244 14.2443 10.4749 14.3728 9.39474 15.0809L9.53181 15.29ZM12.0919 14.4943C12.545 14.4943 13.0572 14.3025 13.4834 14.0724C13.9078 13.8432 14.2739 13.5612 14.4263 13.3577L14.2261 13.2079C14.1063 13.368 13.778 13.6292 13.3646 13.8524C12.953 14.0746 12.4842 14.2443 12.0919 14.2443V14.4943ZM14.4261 13.3579C14.47 13.2995 14.5672 13.2399 14.7231 13.1894C14.8742 13.1404 15.0612 13.106 15.2604 13.084C15.6591 13.0401 16.0873 13.048 16.3337 13.0773L16.3633 12.8291C16.0967 12.7974 15.6494 12.7896 15.233 12.8355C15.0247 12.8585 14.8193 12.8954 14.646 12.9515C14.4773 13.0062 14.318 13.0857 14.2263 13.2077L14.4261 13.3579ZM16.3339 13.0774C16.6419 13.1135 16.9328 12.9582 17.2031 12.7462C17.475 12.5328 17.7546 12.2382 18.0369 11.956L17.8602 11.7792C17.5693 12.0699 17.3053 12.3482 17.0488 12.5495C16.7906 12.7521 16.5681 12.8531 16.3631 12.8291L16.3339 13.0774ZM18.0371 11.9558C18.1624 11.83 18.3644 11.7147 18.64 11.6038C18.9137 11.4937 19.2487 11.3924 19.6308 11.2889C20.3898 11.0832 21.3356 10.8694 22.3044 10.5665L22.2298 10.3279C21.2661 10.6293 20.3392 10.8379 19.5654 11.0476C19.181 11.1517 18.8345 11.2561 18.5467 11.3719C18.2609 11.4869 18.0213 11.6175 17.86 11.7794L18.0371 11.9558ZM22.3043 10.5665C23.2915 10.2586 23.7011 9.86469 23.913 9.45698C24.0154 9.25992 24.0691 9.06321 24.1213 8.89822C24.1749 8.72865 24.2274 8.59047 24.3236 8.47441L24.1312 8.31483C24.0015 8.47125 23.9374 8.65058 23.8829 8.82281C23.827 8.99963 23.7809 9.16903 23.6912 9.34169C23.5188 9.6734 23.1742 10.0333 22.2298 10.3279L22.3043 10.5665ZM24.3233 8.47476C24.4863 8.27971 24.681 8.20688 24.9585 8.14314C25.2342 8.0798 25.5923 8.02627 26.022 7.85502L25.9295 7.62278C25.5234 7.78462 25.1971 7.8318 24.9025 7.89948C24.6097 7.96675 24.348 8.05524 24.1315 8.31448L24.3233 8.47476ZM26.0881 7.68404C25.1495 5.76248 24.107 3.60892 23.5853 2.52865L23.3602 2.63737C23.882 3.71781 24.9246 5.87173 25.8634 7.79377L26.0881 7.68404ZM23.436 2.46355C22.5058 2.75014 21.7602 2.96892 21.4749 3.0321L21.529 3.27618C21.8264 3.21031 22.5832 2.98788 23.5096 2.70247L23.436 2.46355ZM26.3875 16.7624C26.7779 17.1667 27.3444 17.12 27.7852 16.9636C28.0096 16.8839 28.2142 16.7722 28.3689 16.6606C28.4461 16.6049 28.5131 16.5476 28.5645 16.4925C28.6127 16.4409 28.6593 16.3784 28.6759 16.3118L28.4334 16.2512C28.4335 16.2506 28.4318 16.2572 28.4225 16.2714C28.4137 16.285 28.4003 16.302 28.3817 16.322C28.3443 16.3621 28.2906 16.4089 28.2226 16.4579C28.0868 16.5558 27.9033 16.6564 27.7016 16.728C27.2903 16.8739 26.8531 16.8847 26.5673 16.5888L26.3875 16.7624ZM28.6758 16.3123C28.6957 16.2339 28.6559 16.173 28.6201 16.1396C28.5862 16.1078 28.5421 16.0856 28.501 16.0692C28.4165 16.0355 28.3005 16.0094 28.1716 15.99C27.9114 15.951 27.5694 15.935 27.2498 15.9532C26.9368 15.971 26.6199 16.0225 26.4275 16.1346C26.3296 16.1916 26.238 16.2799 26.2262 16.41C26.2148 16.536 26.2831 16.6548 26.3877 16.7626L26.5672 16.5886C26.4811 16.4998 26.4736 16.45 26.4752 16.4326C26.4764 16.4193 26.4865 16.3895 26.5533 16.3506C26.69 16.2711 26.9535 16.2204 27.264 16.2028C27.568 16.1855 27.8927 16.2009 28.1345 16.2373C28.2566 16.2556 28.3504 16.2783 28.4083 16.3014C28.4223 16.307 28.4327 16.312 28.44 16.3161C28.4476 16.3205 28.45 16.3227 28.4494 16.3222C28.448 16.3209 28.4226 16.2939 28.4335 16.2507L28.6758 16.3123Z" fill="#868686"/>
</g>
<defs>
<filter id="filter0_d_877_3457" x="0.119141" y="0.431641" width="32.5625" height="22.6455" filterUnits="userSpaceOnUse" color-interpolation-filters="sRGB">
<feFlood flood-opacity="0" result="BackgroundImageFix"/>
<feColorMatrix in="SourceAlpha" type="matrix" values="0 0 0 0 0 0 0 0 0 0 0 0 0 0 0 0 0 0 127 0" result="hardAlpha"/>
<feOffset dy="2"/>
<feGaussianBlur stdDeviation="2"/>
<feColorMatrix type="matrix" values="0 0 0 0 0 0 0 0 0 0 0 0 0 0 0 0 0 0 0.01 0"/>
<feBlend mode="normal" in2="BackgroundImageFix" result="effect1_dropShadow_877_3457"/>
<feBlend mode="normal" in="SourceGraphic" in2="effect1_dropShadow_877_3457" result="shape"/>
</filter>
</defs>
</svg>
