<svg width="22" height="16" viewBox="0 0 22 16" fill="none" xmlns="http://www.w3.org/2000/svg">
<g filter="url(#filter0_d_877_3290)">
<path fill-rule="evenodd" clip-rule="evenodd" d="M14.0527 2.75199C13.5694 2.6927 12.0592 2.75199 11.6352 3.17576C11.213 3.59692 10.6703 3.83932 10.1879 3.77829C9.70455 3.71812 8.31564 3.65796 8.01378 3.71812C7.71192 3.77829 6.08135 3.41555 5.84056 3.47746C5.62594 3.53065 5.22462 2.786 4.67674 2.69531C4.64969 2.76333 4.60171 2.82785 4.51098 2.88889C4.10355 3.16181 4.05644 3.88292 4.51098 4.29187C4.96377 4.69995 5.55179 5.60504 5.14523 5.60504C4.73868 5.60504 4.42112 6.1474 4.46561 6.41945C4.51185 6.69237 4.33038 7.2792 4.46561 7.4161C4.60258 7.55125 5.55266 8.45809 5.59802 8.7284C5.63816 8.96732 6.02813 9.09201 5.99847 9.3004C6.75923 9.2446 8.37323 9.15043 8.73877 9.33267C9.2221 9.57507 10.9137 9.69453 10.9137 9.69453C11.3953 9.69453 11.8193 9.51316 11.6981 9.21234C11.5969 8.95772 12.225 8.78944 12.6787 8.74148C12.6001 8.46332 12.5469 8.234 12.6638 8.1843C12.8889 8.09361 14.2045 7.91312 14.7463 8.1843C15.022 8.32381 15.3335 8.19214 15.5716 8.03083C15.5001 7.77709 15.4294 7.57654 15.2899 7.55038C14.9566 7.49109 14.4453 6.10293 14.8685 6.01137C15.2899 5.92069 15.8342 4.47149 16.4982 4.26135C16.7634 4.17764 16.8759 4.01895 16.923 3.82363C16.3472 3.63005 15.7784 3.39375 15.6842 3.23593C15.501 2.93336 14.5343 2.81303 14.0527 2.75199Z" fill="white"/>
<path fill-rule="evenodd" clip-rule="evenodd" d="M14.0527 2.75199C13.5694 2.6927 12.0592 2.75199 11.6352 3.17576C11.213 3.59692 10.6703 3.83932 10.1879 3.77829C9.70455 3.71812 8.31564 3.65796 8.01378 3.71812C7.71192 3.77829 6.08135 3.41555 5.84056 3.47746C5.62594 3.53065 5.22462 2.786 4.67674 2.69531C4.64969 2.76333 4.60171 2.82785 4.51098 2.88889C4.10355 3.16181 4.05644 3.88292 4.51098 4.29187C4.96377 4.69995 5.55179 5.60504 5.14523 5.60504C4.73868 5.60504 4.42112 6.1474 4.46561 6.41945C4.51185 6.69237 4.33038 7.2792 4.46561 7.4161C4.60258 7.55125 5.55266 8.45809 5.59802 8.7284C5.63816 8.96732 6.02813 9.09201 5.99847 9.3004C6.75923 9.2446 8.37323 9.15043 8.73877 9.33267C9.2221 9.57507 10.9137 9.69453 10.9137 9.69453C11.3953 9.69453 11.8193 9.51316 11.6981 9.21234C11.5969 8.95772 12.225 8.78944 12.6787 8.74148C12.6001 8.46332 12.5469 8.234 12.6638 8.1843C12.8889 8.09361 14.2045 7.91312 14.7463 8.1843C15.022 8.32381 15.3335 8.19214 15.5716 8.03083C15.5001 7.77709 15.4294 7.57654 15.2899 7.55038C14.9566 7.49109 14.4453 6.10293 14.8685 6.01137C15.2899 5.92069 15.8342 4.47149 16.4982 4.26135C16.7634 4.17764 16.8759 4.01895 16.923 3.82363C16.3472 3.63005 15.7784 3.39375 15.6842 3.23593C15.501 2.93336 14.5343 2.81303 14.0527 2.75199Z" stroke="#868686" stroke-width="0.25"/>
</g>
<defs>
<filter id="filter0_d_877_3290" x="0.0625" y="0.555664" width="21.0098" height="15.2637" filterUnits="userSpaceOnUse" color-interpolation-filters="sRGB">
<feFlood flood-opacity="0" result="BackgroundImageFix"/>
<feColorMatrix in="SourceAlpha" type="matrix" values="0 0 0 0 0 0 0 0 0 0 0 0 0 0 0 0 0 0 127 0" result="hardAlpha"/>
<feOffset dy="2"/>
<feGaussianBlur stdDeviation="2"/>
<feColorMatrix type="matrix" values="0 0 0 0 0 0 0 0 0 0 0 0 0 0 0 0 0 0 0.01 0"/>
<feBlend mode="normal" in2="BackgroundImageFix" result="effect1_dropShadow_877_3290"/>
<feBlend mode="normal" in="SourceGraphic" in2="effect1_dropShadow_877_3290" result="shape"/>
</filter>
</defs>
</svg>
