<svg width="13" height="12" viewBox="0 0 13 12" fill="none" xmlns="http://www.w3.org/2000/svg">
<g filter="url(#filter0_d_877_3308)">
<path fill-rule="evenodd" clip-rule="evenodd" d="M5.84444 4.84793L6.89048 5.73471L8.51495 5.81842C8.15114 4.86624 7.53521 3.57313 7.53521 3.24527C7.53521 3.12756 7.605 3.01333 7.71493 2.90346C7.16966 2.39598 6.85995 2.07248 6.36441 2.14486C5.73626 2.23641 5.69176 2.62007 5.43091 2.893C5.26951 3.06565 4.86557 4.00475 4.58203 4.69272C5.273 4.77643 5.84444 4.84793 5.84444 4.84793Z" fill="white"/>
<path fill-rule="evenodd" clip-rule="evenodd" d="M5.84444 4.84793L6.89048 5.73471L8.51495 5.81842C8.15114 4.86624 7.53521 3.57313 7.53521 3.24527C7.53521 3.12756 7.605 3.01333 7.71493 2.90346C7.16966 2.39598 6.85995 2.07248 6.36441 2.14486C5.73626 2.23641 5.69176 2.62007 5.43091 2.893C5.26951 3.06565 4.86557 4.00475 4.58203 4.69272C5.273 4.77643 5.84444 4.84793 5.84444 4.84793Z" stroke="#868686" stroke-width="0.25"/>
</g>
<defs>
<filter id="filter0_d_877_3308" x="0.404297" y="0.00976562" width="12.2969" height="11.9434" filterUnits="userSpaceOnUse" color-interpolation-filters="sRGB">
<feFlood flood-opacity="0" result="BackgroundImageFix"/>
<feColorMatrix in="SourceAlpha" type="matrix" values="0 0 0 0 0 0 0 0 0 0 0 0 0 0 0 0 0 0 127 0" result="hardAlpha"/>
<feOffset dy="2"/>
<feGaussianBlur stdDeviation="2"/>
<feColorMatrix type="matrix" values="0 0 0 0 0 0 0 0 0 0 0 0 0 0 0 0 0 0 0.01 0"/>
<feBlend mode="normal" in2="BackgroundImageFix" result="effect1_dropShadow_877_3308"/>
<feBlend mode="normal" in="SourceGraphic" in2="effect1_dropShadow_877_3308" result="shape"/>
</filter>
</defs>
</svg>
