<svg width="26" height="23" viewBox="0 0 26 23" fill="none" xmlns="http://www.w3.org/2000/svg">
<g filter="url(#filter0_d_877_3239)">
<path fill-rule="evenodd" clip-rule="evenodd" d="M12.5241 13.447C12.5241 12.9805 14.6563 12.3824 14.6563 11.9167C14.6563 11.4511 14.6563 6.46176 14.6563 6.46176C14.6563 6.46176 21.3138 6.59429 21.5136 6.46176C21.6166 6.392 21.5948 4.94455 21.5599 3.52151C21.3077 3.09338 21.6689 2.74023 20.0942 2.74023C18.8047 2.74023 15.0402 2.74023 12.5006 2.74023C11.9186 3.28521 11.6046 4.02114 11.3821 4.61146C11.02 5.57585 8.75521 6.99452 8.66535 8.35304C8.57462 9.71068 6.45897 11.8226 5.07181 14.7192C4.68968 15.5188 4.5152 16.1396 4.4707 16.641H12.5241C12.5241 16.6419 12.5241 13.9126 12.5241 13.447Z" fill="white"/>
<path fill-rule="evenodd" clip-rule="evenodd" d="M12.5241 13.447C12.5241 12.9805 14.6563 12.3824 14.6563 11.9167C14.6563 11.4511 14.6563 6.46176 14.6563 6.46176C14.6563 6.46176 21.3138 6.59429 21.5136 6.46176C21.6166 6.392 21.5948 4.94455 21.5599 3.52151C21.3077 3.09338 21.6689 2.74023 20.0942 2.74023C18.8047 2.74023 15.0402 2.74023 12.5006 2.74023C11.9186 3.28521 11.6046 4.02114 11.3821 4.61146C11.02 5.57585 8.75521 6.99452 8.66535 8.35304C8.57462 9.71068 6.45897 11.8226 5.07181 14.7192C4.68968 15.5188 4.5152 16.1396 4.4707 16.641H12.5241C12.5241 16.6419 12.5241 13.9126 12.5241 13.447Z" stroke="#868686" stroke-width="0.25"/>
</g>
<defs>
<filter id="filter0_d_877_3239" x="0.333984" y="0.615234" width="25.3789" height="22.1504" filterUnits="userSpaceOnUse" color-interpolation-filters="sRGB">
<feFlood flood-opacity="0" result="BackgroundImageFix"/>
<feColorMatrix in="SourceAlpha" type="matrix" values="0 0 0 0 0 0 0 0 0 0 0 0 0 0 0 0 0 0 127 0" result="hardAlpha"/>
<feOffset dy="2"/>
<feGaussianBlur stdDeviation="2"/>
<feColorMatrix type="matrix" values="0 0 0 0 0 0 0 0 0 0 0 0 0 0 0 0 0 0 0.01 0"/>
<feBlend mode="normal" in2="BackgroundImageFix" result="effect1_dropShadow_877_3239"/>
<feBlend mode="normal" in="SourceGraphic" in2="effect1_dropShadow_877_3239" result="shape"/>
</filter>
</defs>
</svg>
