<svg width="18" height="22" viewBox="0 0 18 22" fill="none" xmlns="http://www.w3.org/2000/svg">
<g filter="url(#filter0_d_877_3235)">
<path fill-rule="evenodd" clip-rule="evenodd" d="M12.1728 7.60062C11.9015 6.92137 12.0839 5.42857 12.1292 4.74757C12.1728 4.07093 11.9478 3.70732 11.6302 3.5277C11.4609 3.43266 11.3179 2.79002 11.2201 2.21191C10.8598 2.37497 10.831 2.96616 10.6792 2.71242C10.4978 2.41072 5.78752 2.23023 5.54761 2.59034C5.30594 2.95308 5.96899 4.28107 5.90966 4.64381C5.87302 4.86093 5.77095 5.00829 5.62089 5.01962C6.11992 6.13399 6.33279 7.84303 6.33279 8.18745C6.33279 8.64174 5.5162 9.00448 5.56244 9.54684C5.60693 10.0901 4.83658 11.1774 4.79121 11.5393C4.74759 11.9003 5.3801 13.4393 5.6523 13.8029C5.78927 13.9851 5.72035 14.4185 5.61566 14.803C6.43923 15.0411 6.98101 15.3157 7.1459 15.3567C7.50883 15.4474 10.0755 14.2702 11.1024 13.7567C11.9233 13.3451 12.8359 13.0879 13.464 12.7574C13.0871 12.0223 12.7181 11.0553 12.7181 10.4066C12.7164 9.36634 12.445 8.27988 12.1728 7.60062Z" fill="white"/>
<path fill-rule="evenodd" clip-rule="evenodd" d="M12.1728 7.60062C11.9015 6.92137 12.0839 5.42857 12.1292 4.74757C12.1728 4.07093 11.9478 3.70732 11.6302 3.5277C11.4609 3.43266 11.3179 2.79002 11.2201 2.21191C10.8598 2.37497 10.831 2.96616 10.6792 2.71242C10.4978 2.41072 5.78752 2.23023 5.54761 2.59034C5.30594 2.95308 5.96899 4.28107 5.90966 4.64381C5.87302 4.86093 5.77095 5.00829 5.62089 5.01962C6.11992 6.13399 6.33279 7.84303 6.33279 8.18745C6.33279 8.64174 5.5162 9.00448 5.56244 9.54684C5.60693 10.0901 4.83658 11.1774 4.79121 11.5393C4.74759 11.9003 5.3801 13.4393 5.6523 13.8029C5.78927 13.9851 5.72035 14.4185 5.61566 14.803C6.43923 15.0411 6.98101 15.3157 7.1459 15.3567C7.50883 15.4474 10.0755 14.2702 11.1024 13.7567C11.9233 13.3451 12.8359 13.0879 13.464 12.7574C13.0871 12.0223 12.7181 11.0553 12.7181 10.4066C12.7164 9.36634 12.445 8.27988 12.1728 7.60062Z" stroke="#868686" stroke-width="0.25"/>
</g>
<defs>
<filter id="filter0_d_877_3235" x="0.664062" y="0.03125" width="16.9668" height="21.4551" filterUnits="userSpaceOnUse" color-interpolation-filters="sRGB">
<feFlood flood-opacity="0" result="BackgroundImageFix"/>
<feColorMatrix in="SourceAlpha" type="matrix" values="0 0 0 0 0 0 0 0 0 0 0 0 0 0 0 0 0 0 127 0" result="hardAlpha"/>
<feOffset dy="2"/>
<feGaussianBlur stdDeviation="2"/>
<feColorMatrix type="matrix" values="0 0 0 0 0 0 0 0 0 0 0 0 0 0 0 0 0 0 0.01 0"/>
<feBlend mode="normal" in2="BackgroundImageFix" result="effect1_dropShadow_877_3235"/>
<feBlend mode="normal" in="SourceGraphic" in2="effect1_dropShadow_877_3235" result="shape"/>
</filter>
</defs>
</svg>
