<svg width="31" height="32" viewBox="0 0 31 32" fill="none" xmlns="http://www.w3.org/2000/svg">
<g filter="url(#filter0_d_877_3523)">
<path fill-rule="evenodd" clip-rule="evenodd" d="M24.931 20.9605C24.8708 19.7232 24.1458 19.7232 24.1763 18.8765C24.2077 18.0342 24.2671 17.2782 23.9652 17.1867C23.6625 17.0951 23.8439 16.3714 24.3264 15.6477C24.8115 14.9248 23.4531 14.8315 23.2402 13.9273C23.1512 13.541 23.5831 12.2427 24.1397 10.8249C22.448 9.65818 20.7128 8.39122 20.7128 8.39122L20.8166 7.13647L13.0999 3.04437C13.0485 3.98521 12.6637 4.71243 12.1132 4.96617C11.5235 5.2356 12.9298 6.09623 12.2493 6.23312C11.5715 6.36653 10.0307 5.59834 8.94282 6.04914C8.21347 6.35607 8.3644 4.52844 8.93235 2.92578L7.22849 3.06355C7.22849 3.06355 6.76698 3.17952 6.2662 3.31991L6.60122 4.21105C6.60122 4.21105 7.01998 5.04639 6.91529 5.57043C6.86731 5.80761 6.49216 5.91399 6.09957 5.9602C6.23829 6.57493 6.18245 7.03358 6.18245 7.03358L6.70504 7.34661C6.70504 7.34661 5.55604 9.53959 5.03346 9.74799C4.89387 9.8038 4.56409 10.0035 4.16016 10.2633C4.46812 11.8067 4.84501 13.6387 5.41035 14.1531C6.45203 15.1036 6.27144 16.19 6.49565 16.8239C6.72336 17.457 7.62981 18.1825 6.99555 18.4519C6.58638 18.628 6.22171 18.1903 5.85791 17.5948C5.82039 17.702 5.77677 17.8093 5.72704 17.9087C5.70872 17.9435 5.67644 17.968 5.64939 17.9976C6.20426 18.4065 6.85073 18.8373 7.1238 18.8373C7.64639 18.8373 8.48218 19.4634 9.00476 19.5689C9.52735 19.6709 11.3917 20.4173 11.6177 20.7164C11.6578 20.7713 11.7032 20.8402 11.7494 20.9187C12.1944 20.8969 12.7798 20.8786 13.1252 20.923C13.2003 20.8559 13.291 20.8044 13.4245 20.8044C14.1146 20.8044 14.9303 23.4203 14.8945 24.941C15.3063 24.9959 15.8699 25.0613 16.0523 25.0613C16.3559 25.0613 16.7179 24.6402 17.2614 24.8207C17.805 25.0012 17.4412 25.4232 17.9245 25.4232C18.4087 25.4232 19.3745 25.1215 19.6763 25.1808C19.9799 25.241 20.8244 25.4232 20.8846 25.0613C20.944 24.7003 21.1281 24.1562 21.5503 24.2783C21.9717 24.3987 22.2727 24.7596 22.756 24.3367C23.2411 23.9138 24.0254 24.3367 24.2069 23.974C24.3002 23.7857 25.375 23.2651 26.3731 22.8126C26.3173 21.6529 24.9903 22.1708 24.931 20.9605Z" fill="white"/>
<path fill-rule="evenodd" clip-rule="evenodd" d="M24.931 20.9605C24.8708 19.7232 24.1458 19.7232 24.1763 18.8765C24.2077 18.0342 24.2671 17.2782 23.9652 17.1867C23.6625 17.0951 23.8439 16.3714 24.3264 15.6477C24.8115 14.9248 23.4531 14.8315 23.2402 13.9273C23.1512 13.541 23.5831 12.2427 24.1397 10.8249C22.448 9.65818 20.7128 8.39122 20.7128 8.39122L20.8166 7.13647L13.0999 3.04437C13.0485 3.98521 12.6637 4.71243 12.1132 4.96617C11.5235 5.2356 12.9298 6.09623 12.2493 6.23312C11.5715 6.36653 10.0307 5.59834 8.94282 6.04914C8.21347 6.35607 8.3644 4.52844 8.93235 2.92578L7.22849 3.06355C7.22849 3.06355 6.76698 3.17952 6.2662 3.31991L6.60122 4.21105C6.60122 4.21105 7.01998 5.04639 6.91529 5.57043C6.86731 5.80761 6.49216 5.91399 6.09957 5.9602C6.23829 6.57493 6.18245 7.03358 6.18245 7.03358L6.70504 7.34661C6.70504 7.34661 5.55604 9.53959 5.03346 9.74799C4.89387 9.8038 4.56409 10.0035 4.16016 10.2633C4.46812 11.8067 4.84501 13.6387 5.41035 14.1531C6.45203 15.1036 6.27144 16.19 6.49565 16.8239C6.72336 17.457 7.62981 18.1825 6.99555 18.4519C6.58638 18.628 6.22171 18.1903 5.85791 17.5948C5.82039 17.702 5.77677 17.8093 5.72704 17.9087C5.70872 17.9435 5.67644 17.968 5.64939 17.9976C6.20426 18.4065 6.85073 18.8373 7.1238 18.8373C7.64639 18.8373 8.48218 19.4634 9.00476 19.5689C9.52735 19.6709 11.3917 20.4173 11.6177 20.7164C11.6578 20.7713 11.7032 20.8402 11.7494 20.9187C12.1944 20.8969 12.7798 20.8786 13.1252 20.923C13.2003 20.8559 13.291 20.8044 13.4245 20.8044C14.1146 20.8044 14.9303 23.4203 14.8945 24.941C15.3063 24.9959 15.8699 25.0613 16.0523 25.0613C16.3559 25.0613 16.7179 24.6402 17.2614 24.8207C17.805 25.0012 17.4412 25.4232 17.9245 25.4232C18.4087 25.4232 19.3745 25.1215 19.6763 25.1808C19.9799 25.241 20.8244 25.4232 20.8846 25.0613C20.944 24.7003 21.1281 24.1562 21.5503 24.2783C21.9717 24.3987 22.2727 24.7596 22.756 24.3367C23.2411 23.9138 24.0254 24.3367 24.2069 23.974C24.3002 23.7857 25.375 23.2651 26.3731 22.8126C26.3173 21.6529 24.9903 22.1708 24.931 20.9605Z" stroke="#868686" stroke-width="0.25"/>
</g>
<defs>
<filter id="filter0_d_877_3523" x="0.0214844" y="0.785156" width="30.4805" height="30.7627" filterUnits="userSpaceOnUse" color-interpolation-filters="sRGB">
<feFlood flood-opacity="0" result="BackgroundImageFix"/>
<feColorMatrix in="SourceAlpha" type="matrix" values="0 0 0 0 0 0 0 0 0 0 0 0 0 0 0 0 0 0 127 0" result="hardAlpha"/>
<feOffset dy="2"/>
<feGaussianBlur stdDeviation="2"/>
<feColorMatrix type="matrix" values="0 0 0 0 0 0 0 0 0 0 0 0 0 0 0 0 0 0 0.01 0"/>
<feBlend mode="normal" in2="BackgroundImageFix" result="effect1_dropShadow_877_3523"/>
<feBlend mode="normal" in="SourceGraphic" in2="effect1_dropShadow_877_3523" result="shape"/>
</filter>
</defs>
</svg>
