<svg width="16" height="25" viewBox="0 0 16 25" fill="none" xmlns="http://www.w3.org/2000/svg">
<g filter="url(#filter0_d_877_3524)">
<path fill-rule="evenodd" clip-rule="evenodd" d="M10.9008 13.16C10.6269 12.8261 10.1096 12.3552 9.662 11.9689C9.67247 12.118 9.65502 12.2401 9.60006 12.3142C9.07049 13.0842 7.5638 10.6863 7.38321 9.19087C7.2 7.69895 8.24255 6.9726 7.60917 5.57136C7.08048 4.39596 6.74983 3.26852 7.12759 2.92671C6.78211 2.88224 6.19671 2.90055 5.75177 2.92235C6.08154 3.46733 6.56051 4.5503 6.56051 4.91478C6.56051 5.33158 6.03792 4.80927 5.82854 5.33158C5.62003 5.85562 5.51621 8.25787 5.93236 8.67467C6.35025 9.09321 5.09657 8.7793 5.09657 9.19872C5.09657 9.61551 4.99362 11.0787 4.78424 11.1833C4.66733 11.24 4.90987 11.5966 5.14455 12.0788C5.14892 12.0788 5.16288 12.0744 5.16288 12.0744C5.34434 12.0744 6.19147 13.1007 6.55353 13.0388C6.91559 12.9795 8.00176 12.438 8.18323 13.2821C8.36557 14.1244 7.6397 15.5736 7.7601 15.9355C7.88137 16.2973 9.51194 18.7135 9.63321 18.4118C9.75186 18.1084 9.27028 17.0211 9.81293 16.5397C10.3573 16.0584 11.0212 16.6609 10.9593 15.2135C10.9008 13.7643 11.4426 13.8245 10.9008 13.16Z" fill="white"/>
<path fill-rule="evenodd" clip-rule="evenodd" d="M10.9008 13.16C10.6269 12.8261 10.1096 12.3552 9.662 11.9689C9.67247 12.118 9.65502 12.2401 9.60006 12.3142C9.07049 13.0842 7.5638 10.6863 7.38321 9.19087C7.2 7.69895 8.24255 6.9726 7.60917 5.57136C7.08048 4.39596 6.74983 3.26852 7.12759 2.92671C6.78211 2.88224 6.19671 2.90055 5.75177 2.92235C6.08154 3.46733 6.56051 4.5503 6.56051 4.91478C6.56051 5.33158 6.03792 4.80927 5.82854 5.33158C5.62003 5.85562 5.51621 8.25787 5.93236 8.67467C6.35025 9.09321 5.09657 8.7793 5.09657 9.19872C5.09657 9.61551 4.99362 11.0787 4.78424 11.1833C4.66733 11.24 4.90987 11.5966 5.14455 12.0788C5.14892 12.0788 5.16288 12.0744 5.16288 12.0744C5.34434 12.0744 6.19147 13.1007 6.55353 13.0388C6.91559 12.9795 8.00176 12.438 8.18323 13.2821C8.36557 14.1244 7.6397 15.5736 7.7601 15.9355C7.88137 16.2973 9.51194 18.7135 9.63321 18.4118C9.75186 18.1084 9.27028 17.0211 9.81293 16.5397C10.3573 16.0584 11.0212 16.6609 10.9593 15.2135C10.9008 13.7643 11.4426 13.8245 10.9008 13.16Z" stroke="#868686" stroke-width="0.25"/>
</g>
<defs>
<filter id="filter0_d_877_3524" x="0.628906" y="0.774414" width="14.6406" height="23.7881" filterUnits="userSpaceOnUse" color-interpolation-filters="sRGB">
<feFlood flood-opacity="0" result="BackgroundImageFix"/>
<feColorMatrix in="SourceAlpha" type="matrix" values="0 0 0 0 0 0 0 0 0 0 0 0 0 0 0 0 0 0 127 0" result="hardAlpha"/>
<feOffset dy="2"/>
<feGaussianBlur stdDeviation="2"/>
<feColorMatrix type="matrix" values="0 0 0 0 0 0 0 0 0 0 0 0 0 0 0 0 0 0 0.01 0"/>
<feBlend mode="normal" in2="BackgroundImageFix" result="effect1_dropShadow_877_3524"/>
<feBlend mode="normal" in="SourceGraphic" in2="effect1_dropShadow_877_3524" result="shape"/>
</filter>
</defs>
</svg>
