<svg width="49" height="43" viewBox="0 0 49 43" fill="none" xmlns="http://www.w3.org/2000/svg">
<g filter="url(#filter0_d_877_3488)">
<path fill-rule="evenodd" clip-rule="evenodd" d="M43.5799 31.7184C43.0948 31.5571 43.5799 29.8647 42.6132 29.4609C41.6457 29.0572 40.7855 28.4041 40.5168 27.6909C40.2751 27.0447 39.0651 26.3986 39.1453 25.9156C39.2265 25.4334 41.5637 23.9005 41.2409 23.0145C40.9181 22.1295 39.387 22.2908 39.2256 21.9682C39.0642 21.6456 39.3076 20.5173 38.9037 19.6305C38.4997 18.7437 39.2256 17.9371 38.9037 17.4541C38.5817 16.971 39.0651 16.0049 39.1445 15.6814C39.2256 15.3587 40.0308 14.8757 39.9506 14.0709C39.9035 13.5817 40.1495 13.2756 40.4051 13.1431C40.1277 12.3252 40.0396 10.8969 40.0396 10.6449C40.0396 10.3441 39.0755 10.3441 38.5913 10.4034C38.108 10.4644 37.6857 9.25851 37.2024 9.25851C36.7191 9.25851 36.296 8.89578 36.296 8.53391C36.296 8.17292 35.1496 7.93052 34.5459 7.99068C33.9422 8.0491 33.82 7.50675 33.5792 7.50675C33.3367 7.50675 32.3727 7.20418 32.069 6.84231C31.7681 6.48132 30.0171 6.35925 29.7161 6.78302C29.4134 7.20418 28.8096 6.96352 28.2661 6.96352C27.7226 6.96352 26.7577 7.80844 26.455 8.23047C26.27 8.49032 25.408 8.54438 24.7668 8.54874C24.7912 9.0693 24.7912 9.48609 24.704 9.6195C24.3882 10.0947 22.0466 10.5246 20.2939 10.5848C18.5429 10.6449 18.4225 8.35167 16.5511 8.35167C15.1884 8.35167 14.1511 7.10739 14.0804 5.93984C13.2743 5.63291 12.5048 5.10537 12.6182 4.88302C12.7787 4.56214 13.1818 2.54355 12.2152 3.02836C11.2476 3.51317 9.87529 5.04346 8.10339 4.80106C6.32799 4.55952 7.61657 4.39821 6.73193 3.99624C5.84466 3.59339 6.40825 2.62465 5.52187 2.46333C4.63548 2.30028 5.2802 3.5123 4.79775 3.5123C4.31268 3.5123 4.71574 4.8804 4.87801 5.20216C5.04028 5.52565 4.55434 7.29748 4.87801 7.3777C5.20081 7.45879 5.92406 8.74929 5.84466 8.99256C5.76266 9.23323 6.57053 10.038 6.57053 10.6022C6.57053 11.1664 7.29552 11.8134 7.69945 11.8134C8.10339 11.8134 8.66523 12.0558 8.5047 12.538C8.34331 13.0219 8.74637 13.7474 8.26391 13.7474C7.77972 13.7474 7.85998 15.1181 7.45779 15.3587C7.05385 15.6003 7.37752 17.0512 7.69945 17.2134C8.02138 17.3738 8.74637 17.7767 8.66523 18.3408C8.5841 18.905 10.3586 19.7909 10.9257 19.8729C11.4884 19.9531 11.5678 20.7597 11.8906 21.0814C12.2143 21.404 11.6498 22.0484 11.7292 22.4504C11.8103 22.8541 12.5362 23.1767 12.4551 23.8211C12.4071 24.21 13.0614 24.8614 13.6075 25.4273C13.7873 25.3723 13.9618 25.3401 14.1031 25.3401C14.6475 25.3401 14.617 24.7384 15.0375 25.0994C15.4606 25.463 16.0355 25.068 16.4595 25.0384C16.8818 25.0105 18.029 27.1816 18.5411 28.2358C19.0567 29.2935 19.0245 29.6571 19.7207 30.1088C20.4142 30.5622 21.1986 30.3198 22.1949 31.3461C23.1921 32.3724 25.757 33.0682 26.8441 33.1258C27.9311 33.1859 28.7477 31.9495 30.1366 32.2198C31.5246 32.4927 31.1914 34.2724 31.7061 34.9063C32.22 35.542 37.8655 35.9631 38.8312 36.2361C39.1846 36.3346 40.0282 36.3965 40.9705 36.4183C40.9478 36.2178 40.9286 36.0364 40.9164 35.9108C40.8361 34.9421 41.562 34.1364 42.2076 33.8155C42.8523 33.492 43.4159 33.3316 44.0623 33.2505C44.7097 33.1685 44.0641 31.8798 43.5799 31.7184Z" fill="white"/>
<path fill-rule="evenodd" clip-rule="evenodd" d="M43.5799 31.7184C43.0948 31.5571 43.5799 29.8647 42.6132 29.4609C41.6457 29.0572 40.7855 28.4041 40.5168 27.6909C40.2751 27.0447 39.0651 26.3986 39.1453 25.9156C39.2265 25.4334 41.5637 23.9005 41.2409 23.0145C40.9181 22.1295 39.387 22.2908 39.2256 21.9682C39.0642 21.6456 39.3076 20.5173 38.9037 19.6305C38.4997 18.7437 39.2256 17.9371 38.9037 17.4541C38.5817 16.971 39.0651 16.0049 39.1445 15.6814C39.2256 15.3587 40.0308 14.8757 39.9506 14.0709C39.9035 13.5817 40.1495 13.2756 40.4051 13.1431C40.1277 12.3252 40.0396 10.8969 40.0396 10.6449C40.0396 10.3441 39.0755 10.3441 38.5913 10.4034C38.108 10.4644 37.6857 9.25851 37.2024 9.25851C36.7191 9.25851 36.296 8.89578 36.296 8.53391C36.296 8.17292 35.1496 7.93052 34.5459 7.99068C33.9422 8.0491 33.82 7.50675 33.5792 7.50675C33.3367 7.50675 32.3727 7.20418 32.069 6.84231C31.7681 6.48132 30.0171 6.35925 29.7161 6.78302C29.4134 7.20418 28.8096 6.96352 28.2661 6.96352C27.7226 6.96352 26.7577 7.80844 26.455 8.23047C26.27 8.49032 25.408 8.54438 24.7668 8.54874C24.7912 9.0693 24.7912 9.48609 24.704 9.6195C24.3882 10.0947 22.0466 10.5246 20.2939 10.5848C18.5429 10.6449 18.4225 8.35167 16.5511 8.35167C15.1884 8.35167 14.1511 7.10739 14.0804 5.93984C13.2743 5.63291 12.5048 5.10537 12.6182 4.88302C12.7787 4.56214 13.1818 2.54355 12.2152 3.02836C11.2476 3.51317 9.87529 5.04346 8.10339 4.80106C6.32799 4.55952 7.61657 4.39821 6.73193 3.99624C5.84466 3.59339 6.40825 2.62465 5.52187 2.46333C4.63548 2.30028 5.2802 3.5123 4.79775 3.5123C4.31268 3.5123 4.71574 4.8804 4.87801 5.20216C5.04028 5.52565 4.55434 7.29748 4.87801 7.3777C5.20081 7.45879 5.92406 8.74929 5.84466 8.99256C5.76266 9.23323 6.57053 10.038 6.57053 10.6022C6.57053 11.1664 7.29552 11.8134 7.69945 11.8134C8.10339 11.8134 8.66523 12.0558 8.5047 12.538C8.34331 13.0219 8.74637 13.7474 8.26391 13.7474C7.77972 13.7474 7.85998 15.1181 7.45779 15.3587C7.05385 15.6003 7.37752 17.0512 7.69945 17.2134C8.02138 17.3738 8.74637 17.7767 8.66523 18.3408C8.5841 18.905 10.3586 19.7909 10.9257 19.8729C11.4884 19.9531 11.5678 20.7597 11.8906 21.0814C12.2143 21.404 11.6498 22.0484 11.7292 22.4504C11.8103 22.8541 12.5362 23.1767 12.4551 23.8211C12.4071 24.21 13.0614 24.8614 13.6075 25.4273C13.7873 25.3723 13.9618 25.3401 14.1031 25.3401C14.6475 25.3401 14.617 24.7384 15.0375 25.0994C15.4606 25.463 16.0355 25.068 16.4595 25.0384C16.8818 25.0105 18.029 27.1816 18.5411 28.2358C19.0567 29.2935 19.0245 29.6571 19.7207 30.1088C20.4142 30.5622 21.1986 30.3198 22.1949 31.3461C23.1921 32.3724 25.757 33.0682 26.8441 33.1258C27.9311 33.1859 28.7477 31.9495 30.1366 32.2198C31.5246 32.4927 31.1914 34.2724 31.7061 34.9063C32.22 35.542 37.8655 35.9631 38.8312 36.2361C39.1846 36.3346 40.0282 36.3965 40.9705 36.4183C40.9478 36.2178 40.9286 36.0364 40.9164 35.9108C40.8361 34.9421 41.562 34.1364 42.2076 33.8155C42.8523 33.492 43.4159 33.3316 44.0623 33.2505C44.7097 33.1685 44.0641 31.8798 43.5799 31.7184Z" stroke="#868686" stroke-width="0.25"/>
</g>
<defs>
<filter id="filter0_d_877_3488" x="0.441406" y="0.323242" width="48.0195" height="42.2236" filterUnits="userSpaceOnUse" color-interpolation-filters="sRGB">
<feFlood flood-opacity="0" result="BackgroundImageFix"/>
<feColorMatrix in="SourceAlpha" type="matrix" values="0 0 0 0 0 0 0 0 0 0 0 0 0 0 0 0 0 0 127 0" result="hardAlpha"/>
<feOffset dy="2"/>
<feGaussianBlur stdDeviation="2"/>
<feColorMatrix type="matrix" values="0 0 0 0 0 0 0 0 0 0 0 0 0 0 0 0 0 0 0.01 0"/>
<feBlend mode="normal" in2="BackgroundImageFix" result="effect1_dropShadow_877_3488"/>
<feBlend mode="normal" in="SourceGraphic" in2="effect1_dropShadow_877_3488" result="shape"/>
</filter>
</defs>
</svg>
