<svg width="42" height="51" viewBox="0 0 42 51" fill="none" xmlns="http://www.w3.org/2000/svg">
<g filter="url(#filter0_d_877_3249)">
<path fill-rule="evenodd" clip-rule="evenodd" d="M30.6921 3.99863C30.0893 3.99863 30.3292 5.44957 29.3651 5.44957C28.3976 5.44957 28.7597 6.41657 28.1559 6.41657C27.5522 6.41657 27.068 5.81143 27.068 5.81143H24.4123C24.4123 5.81143 23.8086 5.20891 23.4457 5.44957C23.0836 5.6911 22.7207 5.93351 22.7207 5.93351H10.2641C10.2641 8.43952 10.2641 10.2235 10.2641 10.2235H8.37359V16.8958C8.37359 16.8958 8.50009 18.9083 8.12146 19.0338C7.7437 19.1611 6.35828 19.5369 6.35828 20.1682C6.35828 20.7969 6.23265 21.3009 5.60275 21.4274C4.97286 21.552 5.60275 22.9358 4.7216 22.9358C3.8387 22.9358 5.09936 23.9421 4.59422 24.4487C4.08996 24.9501 4.21646 25.5805 4.84636 25.5805C5.47625 25.5805 5.22412 26.333 5.22412 27.089C5.22412 27.8441 6.23265 28.3472 6.23265 28.3472L5.97964 29.2305C5.97964 29.2305 7.36506 30.8663 7.49244 31.2439C7.61807 31.6223 8.37272 32.6294 7.61807 33.0061C6.86167 33.3854 7.36506 33.7612 7.36506 33.7612L8.24709 33.8885L8.49922 34.5172C8.49922 34.5172 9.50688 34.5172 10.1376 35.2715C10.7675 36.0257 11.0197 36.153 11.0197 36.5288C11.0197 36.909 11.5222 37.0328 12.2786 37.6641C13.0332 38.2919 13.0324 38.6703 13.0324 39.0479C13.0324 39.4246 14.4187 40.055 14.4187 40.055L14.8906 41.2304C15.1271 41.356 15.3173 41.5094 15.4185 41.7649C15.6715 42.398 16.3031 42.7755 16.3031 42.7755C16.3031 42.7755 17.0613 43.2787 17.5646 42.7755C18.0698 42.2698 18.7014 42.9028 18.7014 42.9028C18.7014 42.9028 19.3348 42.398 19.7108 42.6491C19.9691 42.8191 21.0945 43.7452 22.0707 44.638C22.2147 44.5831 23.163 44.2369 23.58 44.1951C24.0328 44.1497 24.6671 44.9188 24.8477 44.6476C25.03 44.3756 25.981 43.9692 26.343 44.1506C26.706 44.332 27.5644 44.3765 27.6107 44.0608C27.6403 43.8446 28.0277 43.6283 28.3016 43.3972C28.429 43.2909 28.5346 43.181 28.5625 43.0642C28.6524 42.7023 29.7403 42.0675 30.1913 41.9759C30.6459 41.887 31.1894 41.8417 31.4162 42.1128C31.5218 42.2402 31.7163 42.3352 31.9248 42.4215C32.0793 41.2627 32.3349 40.6288 31.958 40.6288C31.4537 40.6288 30.4426 40.1248 30.0648 39.1142C29.6853 38.1045 28.5485 37.4749 28.2982 36.8427C28.0434 36.2114 26.6554 36.3413 26.4032 35.8356C26.1502 35.329 26.7836 35.329 26.7836 34.6986C26.7836 34.0673 28.2982 34.4466 28.4229 34.3193C28.5494 34.192 28.6759 32.8082 28.6759 32.0478C28.6759 31.2927 29.6862 30.535 29.3076 30.1557C28.9289 29.7772 29.6871 29.6525 30.1922 29.2732C30.6982 28.8913 30.3178 27.7586 30.8238 27.2538C31.3281 26.7498 31.7067 25.7409 32.0862 25.7409C32.4658 25.7409 32.9683 25.2352 32.9683 24.7295C32.9683 24.2255 33.8529 23.2157 33.7282 22.3324C33.5999 21.4492 33.2221 20.3139 33.8529 19.5553C34.4846 18.8001 34.7376 18.1688 34.6119 17.5375C34.4846 16.9071 35.3683 16.7807 35.7487 16.4031C36.0157 16.1337 36.9788 15.7352 37.6977 14.5851C37.2379 14.0218 36.745 13.5588 36.4292 13.4149C35.7042 13.0836 35.2209 11.8166 35.2209 10.2166C35.2209 8.61566 34.8283 7.3487 34.7672 6.83773C34.7079 6.32502 33.9227 5.23594 32.9875 4.72323C32.3253 4.36137 31.9554 3.81726 31.8455 3.18945C31.8263 3.21648 31.7957 3.24875 31.7783 3.27491C31.1763 4.12245 31.2958 3.99863 30.6921 3.99863Z" fill="white"/>
<path fill-rule="evenodd" clip-rule="evenodd" d="M30.6921 3.99863C30.0893 3.99863 30.3292 5.44957 29.3651 5.44957C28.3976 5.44957 28.7597 6.41657 28.1559 6.41657C27.5522 6.41657 27.068 5.81143 27.068 5.81143H24.4123C24.4123 5.81143 23.8086 5.20891 23.4457 5.44957C23.0836 5.6911 22.7207 5.93351 22.7207 5.93351H10.2641C10.2641 8.43952 10.2641 10.2235 10.2641 10.2235H8.37359V16.8958C8.37359 16.8958 8.50009 18.9083 8.12146 19.0338C7.7437 19.1611 6.35828 19.5369 6.35828 20.1682C6.35828 20.7969 6.23265 21.3009 5.60275 21.4274C4.97286 21.552 5.60275 22.9358 4.7216 22.9358C3.8387 22.9358 5.09936 23.9421 4.59422 24.4487C4.08996 24.9501 4.21646 25.5805 4.84636 25.5805C5.47625 25.5805 5.22412 26.333 5.22412 27.089C5.22412 27.8441 6.23265 28.3472 6.23265 28.3472L5.97964 29.2305C5.97964 29.2305 7.36506 30.8663 7.49244 31.2439C7.61807 31.6223 8.37272 32.6294 7.61807 33.0061C6.86167 33.3854 7.36506 33.7612 7.36506 33.7612L8.24709 33.8885L8.49922 34.5172C8.49922 34.5172 9.50688 34.5172 10.1376 35.2715C10.7675 36.0257 11.0197 36.153 11.0197 36.5288C11.0197 36.909 11.5222 37.0328 12.2786 37.6641C13.0332 38.2919 13.0324 38.6703 13.0324 39.0479C13.0324 39.4246 14.4187 40.055 14.4187 40.055L14.8906 41.2304C15.1271 41.356 15.3173 41.5094 15.4185 41.7649C15.6715 42.398 16.3031 42.7755 16.3031 42.7755C16.3031 42.7755 17.0613 43.2787 17.5646 42.7755C18.0698 42.2698 18.7014 42.9028 18.7014 42.9028C18.7014 42.9028 19.3348 42.398 19.7108 42.6491C19.9691 42.8191 21.0945 43.7452 22.0707 44.638C22.2147 44.5831 23.163 44.2369 23.58 44.1951C24.0328 44.1497 24.6671 44.9188 24.8477 44.6476C25.03 44.3756 25.981 43.9692 26.343 44.1506C26.706 44.332 27.5644 44.3765 27.6107 44.0608C27.6403 43.8446 28.0277 43.6283 28.3016 43.3972C28.429 43.2909 28.5346 43.181 28.5625 43.0642C28.6524 42.7023 29.7403 42.0675 30.1913 41.9759C30.6459 41.887 31.1894 41.8417 31.4162 42.1128C31.5218 42.2402 31.7163 42.3352 31.9248 42.4215C32.0793 41.2627 32.3349 40.6288 31.958 40.6288C31.4537 40.6288 30.4426 40.1248 30.0648 39.1142C29.6853 38.1045 28.5485 37.4749 28.2982 36.8427C28.0434 36.2114 26.6554 36.3413 26.4032 35.8356C26.1502 35.329 26.7836 35.329 26.7836 34.6986C26.7836 34.0673 28.2982 34.4466 28.4229 34.3193C28.5494 34.192 28.6759 32.8082 28.6759 32.0478C28.6759 31.2927 29.6862 30.535 29.3076 30.1557C28.9289 29.7772 29.6871 29.6525 30.1922 29.2732C30.6982 28.8913 30.3178 27.7586 30.8238 27.2538C31.3281 26.7498 31.7067 25.7409 32.0862 25.7409C32.4658 25.7409 32.9683 25.2352 32.9683 24.7295C32.9683 24.2255 33.8529 23.2157 33.7282 22.3324C33.5999 21.4492 33.2221 20.3139 33.8529 19.5553C34.4846 18.8001 34.7376 18.1688 34.6119 17.5375C34.4846 16.9071 35.3683 16.7807 35.7487 16.4031C36.0157 16.1337 36.9788 15.7352 37.6977 14.5851C37.2379 14.0218 36.745 13.5588 36.4292 13.4149C35.7042 13.0836 35.2209 11.8166 35.2209 10.2166C35.2209 8.61566 34.8283 7.3487 34.7672 6.83773C34.7079 6.32502 33.9227 5.23594 32.9875 4.72323C32.3253 4.36137 31.9554 3.81726 31.8455 3.18945C31.8263 3.21648 31.7957 3.24875 31.7783 3.27491C31.1763 4.12245 31.2958 3.99863 30.6921 3.99863Z" stroke="#868686" stroke-width="0.25"/>
</g>
<defs>
<filter id="filter0_d_877_3249" x="0.158203" y="0.873047" width="41.6934" height="49.958" filterUnits="userSpaceOnUse" color-interpolation-filters="sRGB">
<feFlood flood-opacity="0" result="BackgroundImageFix"/>
<feColorMatrix in="SourceAlpha" type="matrix" values="0 0 0 0 0 0 0 0 0 0 0 0 0 0 0 0 0 0 127 0" result="hardAlpha"/>
<feOffset dy="2"/>
<feGaussianBlur stdDeviation="2"/>
<feColorMatrix type="matrix" values="0 0 0 0 0 0 0 0 0 0 0 0 0 0 0 0 0 0 0.01 0"/>
<feBlend mode="normal" in2="BackgroundImageFix" result="effect1_dropShadow_877_3249"/>
<feBlend mode="normal" in="SourceGraphic" in2="effect1_dropShadow_877_3249" result="shape"/>
</filter>
</defs>
</svg>
