<svg width="16" height="13" viewBox="0 0 16 13" fill="none" xmlns="http://www.w3.org/2000/svg">
<g filter="url(#filter0_d_877_3399)">
<path fill-rule="evenodd" clip-rule="evenodd" d="M4.78702 6.14756C5.2747 5.95224 5.82259 5.87376 6.09043 5.98189C6.32686 6.07606 6.40276 6.32457 6.44551 6.58964C6.86253 6.52948 7.62678 6.41002 7.88414 6.31236C8.24882 6.17633 9.0628 6.62888 9.15178 6.35944C9.24252 6.08652 9.51559 5.45348 9.87677 5.45348C10.2406 5.45348 10.012 4.50217 10.3749 4.45596C10.737 4.41149 11.6426 3.59708 11.6426 3.59708C11.6426 3.59708 11.2814 2.87422 11.1453 2.82714C11.0092 2.7818 10.5564 3.27968 9.74155 3.27968C8.9267 3.27968 8.33868 3.91447 7.97662 3.91447C7.61456 3.91447 6.48215 3.55174 5.71266 3.50727C5.44047 3.49157 5.15693 3.4689 4.89433 3.44187C4.8193 4.12549 4.73642 5.18056 4.78702 6.14756Z" fill="white"/>
<path fill-rule="evenodd" clip-rule="evenodd" d="M4.78702 6.14756C5.2747 5.95224 5.82259 5.87376 6.09043 5.98189C6.32686 6.07606 6.40276 6.32457 6.44551 6.58964C6.86253 6.52948 7.62678 6.41002 7.88414 6.31236C8.24882 6.17633 9.0628 6.62888 9.15178 6.35944C9.24252 6.08652 9.51559 5.45348 9.87677 5.45348C10.2406 5.45348 10.012 4.50217 10.3749 4.45596C10.737 4.41149 11.6426 3.59708 11.6426 3.59708C11.6426 3.59708 11.2814 2.87422 11.1453 2.82714C11.0092 2.7818 10.5564 3.27968 9.74155 3.27968C8.9267 3.27968 8.33868 3.91447 7.97662 3.91447C7.61456 3.91447 6.48215 3.55174 5.71266 3.50727C5.44047 3.49157 5.15693 3.4689 4.89433 3.44187C4.8193 4.12549 4.73642 5.18056 4.78702 6.14756Z" stroke="#868686" stroke-width="0.25"/>
</g>
<defs>
<filter id="filter0_d_877_3399" x="0.646484" y="0.699219" width="15.1504" height="12.0312" filterUnits="userSpaceOnUse" color-interpolation-filters="sRGB">
<feFlood flood-opacity="0" result="BackgroundImageFix"/>
<feColorMatrix in="SourceAlpha" type="matrix" values="0 0 0 0 0 0 0 0 0 0 0 0 0 0 0 0 0 0 127 0" result="hardAlpha"/>
<feOffset dy="2"/>
<feGaussianBlur stdDeviation="2"/>
<feColorMatrix type="matrix" values="0 0 0 0 0 0 0 0 0 0 0 0 0 0 0 0 0 0 0.01 0"/>
<feBlend mode="normal" in2="BackgroundImageFix" result="effect1_dropShadow_877_3399"/>
<feBlend mode="normal" in="SourceGraphic" in2="effect1_dropShadow_877_3399" result="shape"/>
</filter>
</defs>
</svg>
