<svg width="12" height="12" viewBox="0 0 12 12" fill="none" xmlns="http://www.w3.org/2000/svg">
<g filter="url(#filter0_d_877_3213)">
<path fill-rule="evenodd" clip-rule="evenodd" d="M5.92407 2.22168C5.4198 2.22168 4.53516 3.43981 4.53516 3.6918C4.53516 3.9438 5.1668 5.54384 5.79756 5.58657C6.43095 5.62755 6.89159 5.58657 6.93521 5.12269C6.95441 4.89423 7.11929 4.70764 7.27982 4.57684C7.23009 4.1801 7.1254 3.33168 7.08963 2.81984C6.71798 2.57134 6.25035 2.22168 5.92407 2.22168Z" fill="white"/>
<path fill-rule="evenodd" clip-rule="evenodd" d="M5.92407 2.22168C5.4198 2.22168 4.53516 3.43981 4.53516 3.6918C4.53516 3.9438 5.1668 5.54384 5.79756 5.58657C6.43095 5.62755 6.89159 5.58657 6.93521 5.12269C6.95441 4.89423 7.11929 4.70764 7.27982 4.57684C7.23009 4.1801 7.1254 3.33168 7.08963 2.81984C6.71798 2.57134 6.25035 2.22168 5.92407 2.22168Z" stroke="#868686" stroke-width="0.25"/>
</g>
<defs>
<filter id="filter0_d_877_3213" x="0.410156" y="0.0966797" width="11.002" height="11.627" filterUnits="userSpaceOnUse" color-interpolation-filters="sRGB">
<feFlood flood-opacity="0" result="BackgroundImageFix"/>
<feColorMatrix in="SourceAlpha" type="matrix" values="0 0 0 0 0 0 0 0 0 0 0 0 0 0 0 0 0 0 127 0" result="hardAlpha"/>
<feOffset dy="2"/>
<feGaussianBlur stdDeviation="2"/>
<feColorMatrix type="matrix" values="0 0 0 0 0 0 0 0 0 0 0 0 0 0 0 0 0 0 0.01 0"/>
<feBlend mode="normal" in2="BackgroundImageFix" result="effect1_dropShadow_877_3213"/>
<feBlend mode="normal" in="SourceGraphic" in2="effect1_dropShadow_877_3213" result="shape"/>
</filter>
</defs>
</svg>
