<svg width="39" height="30" viewBox="0 0 39 30" fill="none" xmlns="http://www.w3.org/2000/svg">
<g filter="url(#filter0_d_877_3533)">
<path fill-rule="evenodd" clip-rule="evenodd" d="M32.7913 5.15292C32.369 5.21396 32.4597 4.85035 32.0078 4.58004C31.6492 4.3638 30.5718 5.34388 29.7761 6.04232C29.4036 6.16701 29.0363 6.30652 28.7144 6.40244C28.2703 6.53497 27.9083 6.5777 27.7224 6.36233C27.2382 5.79817 28.5286 4.34723 27.6413 3.94526C26.7549 3.54241 27.5602 2.33213 26.8343 2.25365C26.1084 2.17256 24.9813 3.46219 24.9813 4.02548C24.9813 4.58876 23.0436 4.42745 23.0436 4.99335C23.0436 5.55664 21.2717 4.91139 20.9471 5.55664C20.6261 6.20189 19.7388 5.0727 19.1752 5.0727C18.6099 5.0727 18.206 4.26788 17.4827 4.50854C16.7577 4.75095 16.3538 4.26875 15.7876 4.18679C15.224 4.10744 14.8201 5.39532 14.1771 5.15379C13.5315 4.91226 13.2087 6.3632 12.9653 7.17063C12.7236 7.97545 9.98157 7.97545 10.0636 8.86136C10.1438 9.74814 8.45045 10.0716 8.28905 9.50574C8.12765 8.94245 7.07899 9.26508 6.83733 9.10289C6.59654 8.94245 5.87067 9.26508 5.95007 10.0708C6.03033 10.8756 5.22508 11.3587 5.14394 11.6813C5.06368 12.0048 4.58035 12.9709 4.90315 13.454C5.22595 13.937 4.49921 14.7436 4.90315 15.6304C5.30708 16.5172 5.06455 17.6455 5.22508 17.9681C5.3856 18.2907 6.91672 18.1303 7.24039 19.0145C7.56319 19.9012 5.22508 21.4333 5.14481 21.9155C5.11166 22.1169 5.30534 22.3488 5.55834 22.5947C6.47789 22.6331 7.64258 22.7473 8.69909 22.9391C10.0261 23.1807 16.79 22.1561 16.9095 21.9128C17.0325 21.6722 16.6705 20.1611 16.7289 19.8629C16.79 19.5594 17.6354 18.8357 18.3604 18.8941C19.0845 18.9569 19.7484 19.0755 19.7484 18.5331C19.7484 17.9899 21.7419 17.3263 21.9225 17.8085C22.1057 18.2933 22.829 18.1128 22.8874 16.9043C22.9485 15.6967 22.829 14.7924 23.5531 14.7314C24.279 14.6721 25.0031 14.2483 24.942 13.8856C24.8801 13.5255 24.0364 12.8 24.279 12.5576C24.5189 12.3178 26.3318 13.1627 26.5717 12.6186C26.8151 12.0754 26.4513 11.4711 26.7532 10.9889C27.0559 10.5059 27.78 10.0237 27.7207 9.54149C27.6596 9.05842 27.7791 8.75673 27.356 8.33383C26.9338 7.9118 27.1152 7.36857 27.6596 7.30753C27.753 7.29794 27.8585 7.24736 27.9641 7.17848C28.3829 7.09477 28.744 7.01368 29.0197 6.80964C29.7753 6.2481 31.22 5.78683 31.7775 5.99C32.2312 6.15393 33.2344 6.01616 33.8495 5.36306C33.4857 5.19303 33.0425 5.11804 32.7913 5.15292Z" fill="white"/>
<path fill-rule="evenodd" clip-rule="evenodd" d="M32.7913 5.15292C32.369 5.21396 32.4597 4.85035 32.0078 4.58004C31.6492 4.3638 30.5718 5.34388 29.7761 6.04232C29.4036 6.16701 29.0363 6.30652 28.7144 6.40244C28.2703 6.53497 27.9083 6.5777 27.7224 6.36233C27.2382 5.79817 28.5286 4.34723 27.6413 3.94526C26.7549 3.54241 27.5602 2.33213 26.8343 2.25365C26.1084 2.17256 24.9813 3.46219 24.9813 4.02548C24.9813 4.58876 23.0436 4.42745 23.0436 4.99335C23.0436 5.55664 21.2717 4.91139 20.9471 5.55664C20.6261 6.20189 19.7388 5.0727 19.1752 5.0727C18.6099 5.0727 18.206 4.26788 17.4827 4.50854C16.7577 4.75095 16.3538 4.26875 15.7876 4.18679C15.224 4.10744 14.8201 5.39532 14.1771 5.15379C13.5315 4.91226 13.2087 6.3632 12.9653 7.17063C12.7236 7.97545 9.98157 7.97545 10.0636 8.86136C10.1438 9.74814 8.45045 10.0716 8.28905 9.50574C8.12765 8.94245 7.07899 9.26508 6.83733 9.10289C6.59654 8.94245 5.87067 9.26508 5.95007 10.0708C6.03033 10.8756 5.22508 11.3587 5.14394 11.6813C5.06368 12.0048 4.58035 12.9709 4.90315 13.454C5.22595 13.937 4.49921 14.7436 4.90315 15.6304C5.30708 16.5172 5.06455 17.6455 5.22508 17.9681C5.3856 18.2907 6.91672 18.1303 7.24039 19.0145C7.56319 19.9012 5.22508 21.4333 5.14481 21.9155C5.11166 22.1169 5.30534 22.3488 5.55834 22.5947C6.47789 22.6331 7.64258 22.7473 8.69909 22.9391C10.0261 23.1807 16.79 22.1561 16.9095 21.9128C17.0325 21.6722 16.6705 20.1611 16.7289 19.8629C16.79 19.5594 17.6354 18.8357 18.3604 18.8941C19.0845 18.9569 19.7484 19.0755 19.7484 18.5331C19.7484 17.9899 21.7419 17.3263 21.9225 17.8085C22.1057 18.2933 22.829 18.1128 22.8874 16.9043C22.9485 15.6967 22.829 14.7924 23.5531 14.7314C24.279 14.6721 25.0031 14.2483 24.942 13.8856C24.8801 13.5255 24.0364 12.8 24.279 12.5576C24.5189 12.3178 26.3318 13.1627 26.5717 12.6186C26.8151 12.0754 26.4513 11.4711 26.7532 10.9889C27.0559 10.5059 27.78 10.0237 27.7207 9.54149C27.6596 9.05842 27.7791 8.75673 27.356 8.33383C26.9338 7.9118 27.1152 7.36857 27.6596 7.30753C27.753 7.29794 27.8585 7.24736 27.9641 7.17848C28.3829 7.09477 28.744 7.01368 29.0197 6.80964C29.7753 6.2481 31.22 5.78683 31.7775 5.99C32.2312 6.15393 33.2344 6.01616 33.8495 5.36306C33.4857 5.19303 33.0425 5.11804 32.7913 5.15292Z" stroke="#868686" stroke-width="0.25"/>
</g>
<defs>
<filter id="filter0_d_877_3533" x="0.652344" y="0.125" width="37.4062" height="28.9756" filterUnits="userSpaceOnUse" color-interpolation-filters="sRGB">
<feFlood flood-opacity="0" result="BackgroundImageFix"/>
<feColorMatrix in="SourceAlpha" type="matrix" values="0 0 0 0 0 0 0 0 0 0 0 0 0 0 0 0 0 0 127 0" result="hardAlpha"/>
<feOffset dy="2"/>
<feGaussianBlur stdDeviation="2"/>
<feColorMatrix type="matrix" values="0 0 0 0 0 0 0 0 0 0 0 0 0 0 0 0 0 0 0.01 0"/>
<feBlend mode="normal" in2="BackgroundImageFix" result="effect1_dropShadow_877_3533"/>
<feBlend mode="normal" in="SourceGraphic" in2="effect1_dropShadow_877_3533" result="shape"/>
</filter>
</defs>
</svg>
