<svg width="32" height="35" viewBox="0 0 32 35" fill="none" xmlns="http://www.w3.org/2000/svg">
<g filter="url(#filter0_d_877_3554)">
<path fill-rule="evenodd" clip-rule="evenodd" d="M20.2919 24.5697C19.0531 24.8409 18.5419 24.9316 17.8177 24.5697C17.0919 24.2079 15.9193 24.8993 16.0956 25.3833C16.2168 25.7172 16.7002 26.1384 18.2086 26.5317C19.7188 26.9223 19.9002 27.9486 20.5336 27.98C21.1679 28.0088 21.2289 27.4045 21.078 26.5901C20.9262 25.7757 21.8318 24.8401 21.9225 24.6883C22.0124 24.5392 21.5291 24.2994 20.2919 24.5697ZM8.60749 17.7196C7.94531 18.2934 7.39743 17.6202 7.12959 18.0815C6.79632 18.6552 8.15557 19.5298 7.8825 20.7061C7.61117 21.8832 8.0343 23.3621 8.72788 22.6689C9.42321 21.9757 9.75648 22.3079 10.1465 21.7926C10.539 21.2816 10.2075 19.3798 10.4806 18.4748C10.7519 17.5688 9.27141 17.1459 8.60749 17.7196ZM23.403 16.7535C22.6178 16.2722 23.1308 15.4865 21.8937 15.545C20.6557 15.6077 19.1761 14.0679 18.7233 12.2865C18.2705 10.5085 16.3398 10.4152 15.8556 9.35929C15.3723 8.30335 16.3084 8.18302 15.887 7.30844C15.6506 6.82102 16.1715 6.39027 16.7865 6.14699C16.7359 5.17999 16.8188 4.12492 16.8938 3.44043C16.414 3.39073 16.0022 3.32184 15.8556 3.23465C15.6279 3.09949 15.5826 2.37402 15.4473 2.37402C15.3112 2.37402 14.0436 2.37402 13.8168 2.6016C13.5908 2.82744 12.9103 3.23552 12.5483 3.00881C12.4706 2.96085 12.3842 2.91202 12.2961 2.86842L11.9 3.23552C11.9 3.23552 11.839 3.71946 11.5964 3.71946C11.3565 3.71946 10.9945 3.53896 10.9945 3.96012C10.9945 4.38302 10.3288 4.26182 10.0278 4.20165C9.72682 4.14148 9.30369 4.26094 9.30369 4.62368C9.30369 4.98467 9.24262 5.77118 8.76016 5.34915C8.27684 4.92538 7.79177 3.83892 7.61204 3.95925C7.43058 4.07958 7.00832 5.40757 6.58607 5.40757C6.32434 5.40757 5.46325 5.47558 4.84382 5.53052C4.68155 6.05108 4.85517 6.36062 5.07502 6.49403C5.30272 6.62831 4.93979 7.17242 4.66759 7.30931C4.39627 7.44447 3.94348 7.30931 4.26104 7.80633C4.5786 8.30335 5.1675 8.34869 4.84993 8.84658C4.53324 9.34447 4.84993 9.79788 5.30272 9.84235C5.75639 9.88857 6.39064 9.79788 6.25454 10.1606C6.17515 10.3734 6.05214 10.6149 6.02509 10.8512C6.38192 10.7483 6.69599 10.73 7.0092 10.5661C7.64432 10.2365 7.37213 9.66186 8.42777 9.35929C9.48515 9.05846 10.8741 9.93304 11.2972 10.5661C11.7194 11.2009 11.8407 11.2619 11.9314 11.7764C12.0231 12.2873 12.4148 13.3154 13.863 14.2501C15.3121 15.1857 15.8879 16.2408 16.6417 16.6323C17.3963 17.0264 18.1519 16.9357 18.6047 17.479C19.0583 18.0213 19.6603 18.3239 20.3862 18.6561C21.1103 18.9892 21.1399 19.7714 21.8344 19.8638C22.528 19.9536 22.0761 20.5579 22.4992 21.0706C22.9197 21.5824 23.0427 22.6697 22.5899 23.274C22.1363 23.8774 22.3779 24.902 22.6807 24.902C22.9825 24.902 23.6159 23.8155 23.7066 23.213C23.7965 22.6087 24.402 22.641 24.8844 22.0053C25.3677 21.3714 24.1603 21.2206 23.95 20.4053C23.738 19.59 24.8556 18.8654 25.9121 19.5298C26.9669 20.1934 27.3909 20.6468 27.4502 19.6214C27.5096 18.596 24.1865 17.2366 23.403 16.7535Z" fill="white"/>
<path d="M20.2919 24.5697L20.2653 24.4476L20.2652 24.4476L20.2919 24.5697ZM17.8177 24.5697L17.8736 24.4579L17.8735 24.4579L17.8177 24.5697ZM16.0956 25.3833L16.213 25.3406L16.213 25.3405L16.0956 25.3833ZM18.2086 26.5317L18.177 26.6526L18.1773 26.6527L18.2086 26.5317ZM20.5336 27.98L20.5274 28.1048L20.5279 28.1049L20.5336 27.98ZM21.078 26.5901L21.2009 26.5673L21.2009 26.5672L21.078 26.5901ZM21.9225 24.6883L21.8155 24.6238L21.8152 24.6242L21.9225 24.6883ZM8.60749 17.7196L8.52576 17.6251L8.52563 17.6252L8.60749 17.7196ZM7.12959 18.0815L7.23768 18.1443L7.23769 18.1443L7.12959 18.0815ZM7.8825 20.7061L7.76074 20.6778L7.76069 20.678L7.8825 20.7061ZM8.72788 22.6689L8.63963 22.5804L8.63952 22.5805L8.72788 22.6689ZM10.1465 21.7926L10.0473 21.7164L10.0468 21.7171L10.1465 21.7926ZM10.4806 18.4748L10.6003 18.5109L10.6003 18.5106L10.4806 18.4748ZM23.403 16.7535L23.4686 16.6471L23.4684 16.6469L23.403 16.7535ZM21.8937 15.545L21.8878 15.4201L21.8874 15.4201L21.8937 15.545ZM18.7233 12.2865L18.8445 12.2557L18.8444 12.2556L18.7233 12.2865ZM15.8556 9.35929L15.742 9.41131L15.742 9.41139L15.8556 9.35929ZM15.887 7.30844L15.9997 7.25418L15.9995 7.25389L15.887 7.30844ZM16.7865 6.14699L16.8325 6.26323L16.916 6.23018L16.9114 6.14046L16.7865 6.14699ZM16.8938 3.44043L17.0181 3.45405L17.0318 3.32905L16.9067 3.31609L16.8938 3.44043ZM15.8556 3.23465L15.9195 3.12722L15.9194 3.12716L15.8556 3.23465ZM13.8168 2.6016L13.9051 2.69002L13.9053 2.68985L13.8168 2.6016ZM12.5483 3.00881L12.6146 2.90286L12.6139 2.90246L12.5483 3.00881ZM12.2961 2.86842L12.3516 2.75639L12.2743 2.71818L12.2112 2.77674L12.2961 2.86842ZM11.9 3.23552L11.8151 3.14384L11.7817 3.17475L11.776 3.21987L11.9 3.23552ZM8.76016 5.34915L8.67775 5.44314L8.67786 5.44323L8.76016 5.34915ZM7.61204 3.95925L7.68113 4.06342L7.68159 4.06311L7.61204 3.95925ZM4.84382 5.53052L4.83278 5.406L4.7494 5.4134L4.72449 5.49332L4.84382 5.53052ZM5.07502 6.49403L5.01017 6.6009L5.01152 6.6017L5.07502 6.49403ZM4.66759 7.30931L4.72333 7.4212L4.72376 7.42098L4.66759 7.30931ZM4.84993 8.84658L4.74454 8.77936L4.74446 8.77949L4.84993 8.84658ZM5.30272 9.84235L5.31539 9.718L5.31494 9.71795L5.30272 9.84235ZM6.25454 10.1606L6.13751 10.1167L6.13743 10.1169L6.25454 10.1606ZM6.02509 10.8512L5.9009 10.837L5.87959 11.0233L6.05973 10.9713L6.02509 10.8512ZM7.0092 10.5661L6.95162 10.4551L6.95123 10.4553L7.0092 10.5661ZM8.42777 9.35929L8.39356 9.23906L8.39333 9.23913L8.42777 9.35929ZM11.2972 10.5661L11.4013 10.4968L11.4011 10.4966L11.2972 10.5661ZM11.9314 11.7764L11.8083 11.7981L11.8084 11.7984L11.9314 11.7764ZM13.863 14.2501L13.9308 14.1451L13.9308 14.1451L13.863 14.2501ZM16.6417 16.6323L16.6996 16.5215L16.6993 16.5214L16.6417 16.6323ZM18.6047 17.479L18.5086 17.559L18.5088 17.5592L18.6047 17.479ZM20.3862 18.6561L20.4384 18.5426L20.4382 18.5425L20.3862 18.6561ZM21.8344 19.8638L21.8179 19.9877L21.8183 19.9877L21.8344 19.8638ZM22.4992 21.0706L22.5958 20.9912L22.5956 20.991L22.4992 21.0706ZM22.5899 23.274L22.6898 23.3491L22.69 23.349L22.5899 23.274ZM23.7066 23.213L23.8302 23.2316L23.8303 23.2314L23.7066 23.213ZM24.8844 22.0053L24.785 21.9295L24.7848 21.9297L24.8844 22.0053ZM23.95 20.4053L24.0711 20.3741L24.071 20.3738L23.95 20.4053ZM25.9121 19.5298L25.9787 19.424L25.9787 19.424L25.9121 19.5298ZM20.2652 24.4476C19.6427 24.5839 19.2173 24.6713 18.858 24.6822C18.5064 24.6929 18.218 24.63 17.8736 24.4579L17.7619 24.6816C18.1416 24.8713 18.4709 24.9441 18.8656 24.9321C19.2527 24.9203 19.7023 24.8268 20.3187 24.6919L20.2652 24.4476ZM17.8735 24.4579C17.4605 24.252 16.941 24.3507 16.5607 24.5484C16.3682 24.6485 16.1992 24.7798 16.0886 24.9256C15.9793 25.0698 15.9135 25.2487 15.9781 25.4261L16.213 25.3405C16.1895 25.2759 16.2042 25.1869 16.2878 25.0767C16.3702 24.968 16.5066 24.8583 16.676 24.7702C17.0194 24.5917 17.4491 24.5256 17.762 24.6816L17.8735 24.4579ZM15.9781 25.4259C16.0518 25.6289 16.2282 25.8372 16.5672 26.0422C16.9061 26.2471 17.4168 26.4544 18.177 26.6526L18.2401 26.4107C17.4919 26.2156 17.0068 26.0158 16.6965 25.8283C16.3865 25.6408 16.2606 25.4716 16.213 25.3406L15.9781 25.4259ZM18.1773 26.6527C18.9036 26.8406 19.3079 27.1792 19.6121 27.4795C19.761 27.6265 19.9007 27.7805 20.036 27.8919C20.1767 28.0076 20.3319 28.0951 20.5274 28.1048L20.5398 27.8551C20.4187 27.8491 20.3137 27.7966 20.1949 27.6989C20.0709 27.5968 19.9521 27.4639 19.7877 27.3016C19.4653 26.9832 19.0237 26.6134 18.2399 26.4106L18.1773 26.6527ZM20.5279 28.1049C20.7064 28.1129 20.8586 28.0769 20.9796 27.9916C21.1005 27.9062 21.1762 27.7813 21.2199 27.6375C21.305 27.3572 21.2768 26.9766 21.2009 26.5673L20.9551 26.6129C21.0302 27.018 21.0469 27.3467 20.9806 27.5649C20.9486 27.6704 20.8996 27.7421 20.8354 27.7873C20.7712 27.8327 20.678 27.8614 20.5393 27.8551L20.5279 28.1049ZM21.2009 26.5672C21.1341 26.2086 21.2999 25.8062 21.5157 25.4563C21.6216 25.2846 21.7354 25.1321 21.8294 25.012C21.8767 24.9515 21.9177 24.9008 21.9518 24.858C21.983 24.8187 22.0132 24.7802 22.0298 24.7525L21.8152 24.6242C21.8091 24.6344 21.7912 24.6583 21.7561 24.7024C21.7239 24.743 21.6805 24.7966 21.6325 24.8579C21.5359 24.9814 21.4158 25.1421 21.3029 25.3251C21.0812 25.6845 20.8701 26.1571 20.9551 26.613L21.2009 26.5672ZM22.0296 24.7529C22.0594 24.7034 22.0666 24.6448 22.0471 24.5884C22.0292 24.5368 21.9928 24.4977 21.9549 24.4691C21.8798 24.4125 21.7664 24.3724 21.6257 24.3485C21.3401 24.3001 20.8927 24.3105 20.2653 24.4476L20.3186 24.6919C20.9282 24.5587 21.3411 24.5538 21.584 24.595C21.7075 24.6159 21.7754 24.6469 21.8043 24.6687C21.8185 24.6793 21.8147 24.6813 21.8109 24.6703C21.8054 24.6545 21.8081 24.636 21.8155 24.6238L22.0296 24.7529ZM8.52563 17.6252C8.37706 17.7539 8.23974 17.8092 8.11432 17.8301C7.98624 17.8514 7.86374 17.8383 7.73965 17.8192C7.62444 17.8015 7.48732 17.7738 7.36698 17.7868C7.30229 17.7937 7.23684 17.8124 7.17538 17.8518C7.11396 17.8912 7.06315 17.947 7.02149 18.0187L7.23769 18.1443C7.263 18.1007 7.2879 18.0766 7.31028 18.0623C7.33264 18.048 7.3591 18.0391 7.3938 18.0353C7.4722 18.0269 7.56366 18.0451 7.70168 18.0663C7.8308 18.0861 7.98617 18.1049 8.15543 18.0767C8.32734 18.048 8.50683 17.9722 8.68934 17.8141L8.52563 17.6252ZM7.0215 18.0187C6.90848 18.2133 6.94819 18.423 7.02985 18.6168C7.11074 18.8087 7.24854 19.0205 7.37645 19.2324C7.6412 19.6711 7.88475 20.1436 7.76074 20.6778L8.00426 20.7344C8.15332 20.0923 7.85377 19.5394 7.59049 19.1033C7.45439 18.8778 7.33192 18.6898 7.26023 18.5197C7.18929 18.3513 7.18407 18.2366 7.23768 18.1443L7.0215 18.0187ZM7.76069 20.678C7.62042 21.2866 7.65786 21.9757 7.82606 22.4321C7.90852 22.6558 8.03349 22.8534 8.21394 22.9343C8.41347 23.0236 8.62381 22.9496 8.81625 22.7573L8.63952 22.5805C8.48517 22.7347 8.38252 22.7358 8.31613 22.7061C8.23065 22.6678 8.13674 22.5521 8.06064 22.3456C7.91172 21.9416 7.87325 21.3028 8.0043 20.7342L7.76069 20.678ZM8.81614 22.7574C9.1451 22.4294 9.38213 22.3476 9.58875 22.2834C9.69363 22.2508 9.80724 22.2187 9.91728 22.1595C10.0312 22.0982 10.1386 22.0101 10.2461 21.868L10.0468 21.7171C9.9593 21.8327 9.87882 21.8963 9.79884 21.9393C9.71499 21.9844 9.6287 22.0092 9.5146 22.0446C9.28326 22.1165 9.006 22.2151 8.63963 22.5804L8.81614 22.7574ZM10.2456 21.8687C10.3667 21.711 10.4216 21.4648 10.4502 21.1992C10.4794 20.9274 10.4832 20.6073 10.4833 20.2815C10.4835 19.9532 10.48 19.6186 10.4933 19.3085C10.5066 18.9974 10.5367 18.7216 10.6003 18.5109L10.3609 18.4386C10.288 18.6804 10.2571 18.9818 10.2435 19.2978C10.2299 19.6148 10.2335 19.9573 10.2333 20.2814C10.2332 20.6081 10.2292 20.9157 10.2016 21.1725C10.1734 21.4355 10.1225 21.6186 10.0473 21.7164L10.2456 21.8687ZM10.6003 18.5106C10.6792 18.2473 10.631 18.0113 10.498 17.822C10.368 17.6369 10.1628 17.504 9.93619 17.4244C9.4882 17.267 8.9012 17.3006 8.52576 17.6251L8.68922 17.8142C8.9777 17.5649 9.46291 17.5231 9.85333 17.6602C10.0459 17.7279 10.2015 17.8347 10.2935 17.9657C10.3825 18.0926 10.4177 18.2492 10.3608 18.4389L10.6003 18.5106ZM23.4684 16.6469C23.1154 16.4305 23.0666 16.165 22.9297 15.891C22.8615 15.7545 22.7699 15.621 22.5994 15.5309C22.4332 15.4431 22.2076 15.405 21.8878 15.4201L21.8996 15.6698C22.1984 15.6557 22.3726 15.6939 22.4827 15.752C22.5885 15.8079 22.6497 15.8899 22.706 16.0027C22.8182 16.2272 22.9055 16.5951 23.3377 16.8601L23.4684 16.6469ZM21.8874 15.4201C21.3202 15.4489 20.6737 15.1083 20.1038 14.5203C19.5374 13.9357 19.0653 13.1247 18.8445 12.2557L18.6022 12.3173C18.8341 13.2297 19.3283 14.0792 19.9243 14.6943C20.517 15.3059 21.2293 15.7038 21.9001 15.6698L21.8874 15.4201ZM18.8444 12.2556C18.6059 11.3188 17.9753 10.8287 17.3678 10.4463C17.059 10.252 16.7698 10.093 16.5175 9.91078C16.2689 9.73121 16.0773 9.54278 15.9693 9.30719L15.742 9.41139C15.8761 9.70377 16.1074 9.92298 16.3711 10.1134C16.6312 10.3013 16.9437 10.4747 17.2347 10.6579C17.8268 11.0307 18.388 11.4762 18.6022 12.3173L18.8444 12.2556ZM15.9693 9.30726C15.8555 9.05873 15.8292 8.87437 15.8405 8.72585C15.852 8.57551 15.9024 8.45108 15.9623 8.31673C16.0203 8.18661 16.0918 8.03866 16.1158 7.86656C16.1405 7.68825 16.1142 7.49199 15.9997 7.25418L15.7744 7.3627C15.8705 7.56218 15.8853 7.70892 15.8681 7.83215C15.8501 7.96159 15.7969 8.0737 15.7339 8.21497C15.6729 8.35202 15.6062 8.51032 15.5913 8.70686C15.5762 8.90521 15.6141 9.13188 15.742 9.41131L15.9693 9.30726ZM15.9995 7.25389C15.9523 7.15657 15.9445 7.06703 15.9633 6.9828C15.9827 6.8964 16.0318 6.80783 16.1108 6.71937C16.2701 6.54073 16.5341 6.38127 16.8325 6.26323L16.7405 6.03075C16.4239 6.15599 16.1199 6.33354 15.9242 6.55295C15.8256 6.66351 15.7504 6.78923 15.7194 6.92828C15.6878 7.06951 15.7036 7.2166 15.7746 7.36299L15.9995 7.25389ZM16.9114 6.14046C16.8613 5.18336 16.9433 4.13601 17.0181 3.45405L16.7696 3.42681C16.6943 4.11382 16.6106 5.17662 16.6617 6.15352L16.9114 6.14046ZM16.9067 3.31609C16.6685 3.29143 16.4495 3.26221 16.273 3.22878C16.0904 3.19419 15.9715 3.15812 15.9195 3.12722L15.7917 3.34207C15.8864 3.39837 16.0466 3.44034 16.2265 3.47441C16.4125 3.50966 16.6393 3.53973 16.881 3.56476L16.9067 3.31609ZM15.9194 3.12716C15.8983 3.11461 15.8659 3.07594 15.8292 2.99271C15.7946 2.91442 15.7654 2.81862 15.737 2.71928C15.7099 2.62444 15.6823 2.52157 15.6529 2.44483C15.6383 2.40671 15.6199 2.36552 15.5954 2.33191C15.5733 2.30142 15.5252 2.24902 15.4473 2.24902V2.49902C15.4032 2.49902 15.3862 2.4693 15.3933 2.47901C15.3981 2.4856 15.4072 2.50215 15.4194 2.53415C15.4437 2.59766 15.467 2.6846 15.4966 2.78803C15.5249 2.88695 15.5582 2.99786 15.6004 3.09361C15.6405 3.18442 15.6991 3.2871 15.7918 3.34214L15.9194 3.12716ZM15.4473 2.24902C15.3788 2.24902 15.0237 2.249 14.6563 2.27785C14.4729 2.29225 14.2829 2.3141 14.1225 2.34769C14.0423 2.36447 13.9666 2.38478 13.9015 2.40981C13.8385 2.43403 13.7748 2.46661 13.7282 2.51336L13.9053 2.68985C13.9154 2.6797 13.9409 2.6625 13.9912 2.64316C14.0394 2.62463 14.101 2.6076 14.1737 2.59238C14.319 2.56196 14.497 2.54114 14.6759 2.52709C15.033 2.49905 15.3798 2.49902 15.4473 2.49902V2.24902ZM13.7284 2.51319C13.628 2.61349 13.4155 2.76331 13.1853 2.8596C13.071 2.90741 12.9581 2.93955 12.857 2.94802C12.7559 2.95649 12.6751 2.94073 12.6146 2.90287L12.4819 3.11475C12.6025 3.19025 12.7425 3.20849 12.8779 3.19715C13.0132 3.18581 13.1525 3.14432 13.2818 3.09023C13.5389 2.98269 13.7795 2.81555 13.9051 2.69002L13.7284 2.51319ZM12.6139 2.90246C12.5335 2.85275 12.4437 2.80196 12.3516 2.75639L12.2407 2.98046C12.3248 3.02209 12.4078 3.06895 12.4826 3.11516L12.6139 2.90246ZM12.2112 2.77674L11.8151 3.14384L11.985 3.3272L12.3811 2.9601L12.2112 2.77674ZM11.9 3.23552C11.776 3.21987 11.776 3.21984 11.776 3.21981C11.776 3.21981 11.776 3.21978 11.776 3.21977C11.776 3.21975 11.776 3.21973 11.776 3.21972C11.776 3.21969 11.776 3.2197 11.776 3.21973C11.776 3.2198 11.776 3.21998 11.776 3.22027C11.7759 3.22085 11.7758 3.22186 11.7756 3.22327C11.7751 3.2261 11.7745 3.23053 11.7736 3.23633C11.7717 3.24795 11.7687 3.26494 11.7644 3.28548C11.7557 3.32703 11.742 3.38087 11.7222 3.43342C11.7019 3.48731 11.678 3.53207 11.6523 3.56137C11.6279 3.58907 11.6103 3.59446 11.5964 3.59446V3.84446C11.7039 3.84446 11.7848 3.78935 11.8401 3.72631C11.8941 3.66487 11.9309 3.58865 11.9562 3.52156C11.9819 3.45312 11.9987 3.38598 12.009 3.33679C12.0143 3.31196 12.0179 3.29115 12.0203 3.2763C12.0215 3.26887 12.0224 3.2629 12.023 3.25864C12.0233 3.2565 12.0236 3.2548 12.0237 3.25354C12.0238 3.25292 12.0239 3.2524 12.0239 3.25201C12.024 3.25181 12.024 3.25164 12.024 3.2515C12.024 3.25143 12.024 3.25137 12.024 3.25131C12.024 3.25128 12.024 3.25125 12.024 3.25123C12.0241 3.2512 12.0241 3.25117 11.9 3.23552ZM11.5964 3.59446C11.5483 3.59446 11.4921 3.58528 11.42 3.57427C11.3541 3.56419 11.2734 3.55237 11.1977 3.5571C11.12 3.56195 11.0296 3.58525 10.9614 3.66168C10.895 3.73628 10.8695 3.83965 10.8695 3.96012H11.1195C11.1195 3.87001 11.1392 3.83801 11.1481 3.82799C11.1554 3.81982 11.1705 3.80928 11.2133 3.80661C11.2581 3.80381 11.3129 3.8108 11.3823 3.8214C11.4456 3.83107 11.5246 3.84446 11.5964 3.84446V3.59446ZM10.8695 3.96012C10.8695 4.02696 10.8462 4.05973 10.8139 4.08246C10.7737 4.11069 10.7075 4.13054 10.6148 4.13737C10.4302 4.15098 10.2047 4.10953 10.0523 4.07907L10.0033 4.32423C10.1519 4.35394 10.4097 4.40317 10.6332 4.38669C10.7445 4.37849 10.8636 4.3531 10.9576 4.287C11.0595 4.21539 11.1195 4.10472 11.1195 3.96012H10.8695ZM10.0523 4.07907C9.879 4.04443 9.67021 4.06047 9.49952 4.14104C9.32395 4.2239 9.17869 4.38233 9.17869 4.62368H9.42869C9.42869 4.50229 9.49499 4.41962 9.60623 4.36712C9.72235 4.31231 9.87562 4.2987 10.0033 4.32423L10.0523 4.07907ZM9.17869 4.62368C9.17869 4.80422 9.16253 5.06921 9.09678 5.23363C9.06285 5.3185 9.0304 5.34001 9.01579 5.34399C9.00431 5.34712 8.95343 5.35213 8.84246 5.25506L8.67786 5.44323C8.80812 5.55718 8.9458 5.62214 9.08146 5.58521C9.21399 5.54913 9.28727 5.43059 9.32891 5.32646C9.41431 5.11289 9.42869 4.80412 9.42869 4.62368H9.17869ZM8.84257 5.25516C8.61677 5.05718 8.38529 4.69778 8.1766 4.38134C8.07568 4.22832 7.97865 4.08347 7.89429 3.98482C7.85292 3.93645 7.80686 3.88976 7.7579 3.86012C7.70899 3.83049 7.62438 3.80056 7.5425 3.85538L7.68159 4.06311C7.64464 4.08785 7.61451 4.06554 7.6284 4.07396C7.64226 4.08235 7.66735 4.10411 7.70429 4.1473C7.77653 4.23177 7.86467 4.36245 7.9679 4.51898C8.16751 4.82163 8.42023 5.21734 8.67775 5.44314L8.84257 5.25516ZM7.54296 3.85507C7.49499 3.88688 7.45615 3.94318 7.42702 3.99002C7.3943 4.04265 7.35928 4.10837 7.32307 4.17978C7.24772 4.32839 7.1698 4.49574 7.07852 4.67072C6.98877 4.84278 6.89536 5.00344 6.80165 5.11978C6.75489 5.17782 6.71149 5.22046 6.67235 5.2478C6.63332 5.27507 6.60522 5.28257 6.58607 5.28257V5.53257C6.67248 5.53257 6.74994 5.49857 6.81553 5.45274C6.88102 5.40699 6.9413 5.34494 6.99634 5.2766C7.10624 5.14018 7.2089 4.96132 7.30018 4.78634C7.38993 4.61428 7.47799 4.42707 7.54605 4.29284C7.58154 4.22283 7.61258 4.16506 7.63933 4.12203C7.66968 4.07322 7.68374 4.06169 7.68112 4.06342L7.54296 3.85507ZM6.58607 5.28257C6.3174 5.28257 5.44948 5.35131 4.83278 5.406L4.85487 5.65503C5.47702 5.59985 6.33128 5.53257 6.58607 5.53257V5.28257ZM4.72449 5.49332C4.63751 5.77233 4.637 6.00664 4.697 6.19533C4.75715 6.38449 4.87553 6.51919 5.01017 6.60089L5.13986 6.38717C5.05465 6.33546 4.9763 6.24868 4.93525 6.11958C4.89405 5.99001 4.88786 5.80926 4.96316 5.56772L4.72449 5.49332ZM5.01152 6.6017C5.01269 6.60239 5.02492 6.60482 5.02117 6.648C5.01711 6.69472 4.99394 6.76155 4.95002 6.83906C4.86123 6.99574 4.71825 7.14392 4.61143 7.19764L4.72376 7.42098C4.88914 7.33781 5.06372 7.14549 5.16752 6.96232C5.21989 6.8699 5.26177 6.76698 5.27023 6.66963C5.27899 6.56875 5.2512 6.45281 5.13851 6.38636L5.01152 6.6017ZM4.61186 7.19743C4.56141 7.22256 4.49808 7.23704 4.42204 7.25121C4.35507 7.2637 4.26458 7.27761 4.19497 7.30692C4.15765 7.32264 4.11603 7.34657 4.08303 7.3857C4.04803 7.42719 4.02942 7.47785 4.02751 7.53372C4.02407 7.6341 4.07483 7.74705 4.15571 7.87363L4.36637 7.73903C4.28847 7.6171 4.27674 7.56056 4.27736 7.54227C4.27748 7.53881 4.27754 7.54284 4.27413 7.54688C4.27271 7.54856 4.27561 7.54423 4.29199 7.53733C4.3298 7.5214 4.38354 7.5127 4.46785 7.49698C4.5431 7.48295 4.63811 7.46365 4.72333 7.4212L4.61186 7.19743ZM4.15571 7.87363C4.24413 8.01202 4.3503 8.11709 4.45 8.20315C4.49953 8.24591 4.54867 8.28496 4.59239 8.32007C4.63707 8.35595 4.67569 8.38739 4.70894 8.41804C4.77704 8.48081 4.80589 8.52566 4.81372 8.56711C4.82101 8.60562 4.81497 8.66893 4.74454 8.77936L4.95532 8.9138C5.04367 8.77528 5.08311 8.64621 5.05937 8.52066C5.03618 8.39804 4.9575 8.30714 4.87838 8.23421C4.83802 8.19702 4.7931 8.16062 4.74892 8.12514C4.70379 8.0889 4.65874 8.05308 4.61336 8.01391C4.52326 7.93613 4.43673 7.84915 4.36637 7.73903L4.15571 7.87363ZM4.74446 8.77949C4.56508 9.06151 4.5575 9.34736 4.67737 9.57312C4.79505 9.79475 5.02652 9.94083 5.2905 9.96676L5.31494 9.71795C5.12613 9.69941 4.97286 9.59654 4.89817 9.45588C4.82567 9.31933 4.81809 9.12954 4.9554 8.91366L4.74446 8.77949ZM5.29005 9.96671C5.40895 9.97882 5.53891 9.9819 5.65819 9.98551C5.78052 9.98921 5.89103 9.99347 5.98204 10.0065C6.07878 10.0204 6.12555 10.041 6.14281 10.0567C6.14754 10.061 6.1476 10.0626 6.14792 10.0646C6.14864 10.0691 6.14953 10.0847 6.13751 10.1167L6.37158 10.2045C6.39358 10.1459 6.40442 10.085 6.39474 10.0248C6.38465 9.96216 6.35394 9.91092 6.31126 9.87199C6.23369 9.80127 6.11906 9.77363 6.01755 9.75906C5.9103 9.74367 5.78569 9.73926 5.66575 9.73563C5.54277 9.73191 5.42332 9.72899 5.31539 9.718L5.29005 9.96671ZM6.13743 10.1169C6.11842 10.1679 6.09665 10.2209 6.07339 10.2775C6.05039 10.3335 6.02603 10.3927 6.00327 10.4529C5.95795 10.5727 5.91618 10.7035 5.9009 10.837L6.14928 10.8654C6.16105 10.7626 6.19431 10.6545 6.23711 10.5413C6.2584 10.485 6.28137 10.4291 6.30462 10.3726C6.3276 10.3167 6.35097 10.2598 6.37166 10.2043L6.13743 10.1169ZM6.05973 10.9713C6.23445 10.9209 6.39144 10.8931 6.56195 10.8533C6.7282 10.8144 6.89685 10.766 7.06716 10.6768L6.95123 10.4553C6.80834 10.5301 6.66335 10.5728 6.50505 10.6098C6.35102 10.6458 6.17256 10.6786 5.99046 10.7311L6.05973 10.9713ZM7.06677 10.677C7.42175 10.4928 7.53301 10.2267 7.6659 10.0202C7.73308 9.91581 7.8087 9.81813 7.926 9.72845C8.04388 9.63833 8.20984 9.55178 8.46221 9.47945L8.39333 9.23913C8.11787 9.31808 7.92199 9.41683 7.77416 9.52984C7.62575 9.6433 7.5318 9.76661 7.45567 9.8849C7.30197 10.1237 7.23177 10.3097 6.95162 10.4551L7.06677 10.677ZM8.46197 9.47952C8.94829 9.34116 9.52607 9.47094 10.0454 9.72479C10.5644 9.97847 10.9975 10.3426 11.1933 10.6355L11.4011 10.4966C11.1738 10.1565 10.7008 9.76684 10.1552 9.50018C9.60999 9.23369 8.96463 9.07659 8.39356 9.23906L8.46197 9.47952ZM11.1931 10.6353C11.2997 10.7955 11.3873 10.9196 11.4593 11.0224C11.5318 11.1259 11.5867 11.2054 11.6312 11.2802C11.7163 11.4235 11.765 11.5523 11.8083 11.7981L12.0545 11.7547C12.0072 11.486 11.9498 11.3271 11.8461 11.1525C11.7961 11.0684 11.7358 10.9814 11.6641 10.8789C11.5917 10.7756 11.5058 10.6541 11.4013 10.4969L11.1931 10.6353ZM11.8084 11.7984C11.9061 12.3432 12.3176 13.4014 13.7952 14.3551L13.9308 14.1451C12.5119 13.2293 12.14 12.2315 12.0545 11.7543L11.8084 11.7984ZM13.7952 14.3551C14.5077 14.8152 15.0061 15.3047 15.4236 15.7325C15.8354 16.1545 16.1847 16.5358 16.5841 16.7432L16.6993 16.5214C16.3449 16.3373 16.0294 15.9953 15.6026 15.5579C15.1814 15.1264 14.6674 14.6207 13.9308 14.1451L13.7952 14.3551ZM16.5838 16.7431C16.9764 16.9481 17.3735 17.0286 17.7029 17.1202C18.0388 17.2136 18.3083 17.3186 18.5086 17.559L18.7007 17.3989C18.4483 17.0961 18.1135 16.9749 17.7699 16.8793C17.4196 16.7819 17.0616 16.7106 16.6996 16.5215L16.5838 16.7431ZM18.5088 17.5592C18.9827 18.1257 19.6094 18.4381 20.3341 18.7698L20.4382 18.5425C19.7112 18.2097 19.134 17.9169 18.7005 17.3988L18.5088 17.5592ZM20.3339 18.7697C20.6618 18.9205 20.8322 19.1704 21.0211 19.4247C21.2063 19.6742 21.4147 19.934 21.8179 19.9877L21.8509 19.7399C21.5596 19.7011 21.4059 19.5237 21.2218 19.2757C21.0412 19.0325 20.8346 18.7248 20.4384 18.5426L20.3339 18.7697ZM21.8183 19.9877C21.9728 20.0077 22.0392 20.0529 22.0737 20.0962C22.112 20.144 22.1311 20.2128 22.1441 20.3232C22.1684 20.5298 22.1617 20.858 22.4028 21.1501L22.5956 20.991C22.4135 20.7704 22.4213 20.5401 22.3924 20.294C22.3787 20.178 22.3544 20.0469 22.269 19.9401C22.18 19.8287 22.0428 19.7647 21.8505 19.7398L21.8183 19.9877ZM22.4026 21.1499C22.5918 21.3803 22.7218 21.7526 22.7473 22.1457C22.7728 22.5387 22.6926 22.9285 22.4899 23.1991L22.69 23.349C22.94 23.0152 23.0247 22.5592 22.9968 22.1295C22.9689 21.7 22.8271 21.2727 22.5958 20.9912L22.4026 21.1499ZM22.49 23.1989C22.2376 23.5347 22.1835 23.9778 22.2276 24.3298C22.2498 24.5067 22.2977 24.6699 22.3655 24.7928C22.428 24.9062 22.532 25.027 22.6807 25.027V24.777C22.678 24.777 22.6382 24.7697 22.5844 24.6721C22.5359 24.5841 22.4951 24.4534 22.4757 24.2987C22.4367 23.9876 22.4886 23.6167 22.6898 23.3491L22.49 23.1989ZM22.6807 25.027C22.7539 25.027 22.8215 24.9951 22.877 24.9582C22.9344 24.9199 22.9917 24.8676 23.0472 24.8078C23.1584 24.688 23.2738 24.5254 23.3801 24.3476C23.5913 23.9942 23.7814 23.5558 23.8302 23.2316L23.583 23.1944C23.5411 23.4726 23.3691 23.8787 23.1655 24.2193C23.0645 24.3883 22.9592 24.5351 22.8639 24.6378C22.8162 24.6892 22.7738 24.7265 22.7384 24.7501C22.7011 24.7749 22.6829 24.777 22.6807 24.777V25.027ZM23.8303 23.2314C23.867 22.9843 24.0014 22.8675 24.2171 22.7253C24.4331 22.5829 24.7269 22.4196 24.984 22.0809L24.7848 21.9297C24.5595 22.2267 24.3093 22.3651 24.0795 22.5166C23.8494 22.6682 23.6361 22.8374 23.583 23.1946L23.8303 23.2314ZM24.9838 22.0811C25.0522 21.9914 25.0969 21.9022 25.1144 21.8117C25.1322 21.7193 25.1202 21.6333 25.0872 21.5543C25.025 21.4055 24.8877 21.2838 24.7564 21.1765C24.6163 21.062 24.4709 20.9548 24.3422 20.8228C24.2161 20.6935 24.1164 20.5496 24.0711 20.3741L23.829 20.4365C23.8888 20.6685 24.0189 20.8493 24.1632 20.9973C24.305 21.1428 24.4706 21.2657 24.5982 21.3701C24.7347 21.4816 24.8218 21.5675 24.8566 21.6507C24.8721 21.6878 24.8767 21.7239 24.8689 21.7643C24.8608 21.8065 24.8375 21.8607 24.785 21.9295L24.9838 22.0811ZM24.071 20.3738C23.9833 20.0363 24.1661 19.7038 24.513 19.5236C24.857 19.3449 25.3533 19.326 25.8456 19.6356L25.9787 19.424C25.4145 19.0692 24.8238 19.0804 24.3978 19.3017C23.9748 19.5215 23.7048 19.9589 23.8291 20.4367L24.071 20.3738ZM25.8456 19.6356C25.9764 19.7179 26.0975 19.797 26.2101 19.8708C26.3222 19.9444 26.4266 20.0133 26.5222 20.0738C26.7095 20.1926 26.878 20.2897 27.021 20.3294C27.0944 20.3498 27.1716 20.3583 27.2466 20.3391C27.325 20.319 27.388 20.2721 27.4353 20.2052C27.5223 20.082 27.5602 19.8853 27.575 19.6286L27.3254 19.6142C27.3106 19.8702 27.2732 20.0013 27.2311 20.0608C27.2139 20.0852 27.1988 20.0933 27.1846 20.0969C27.167 20.1014 27.1372 20.1022 27.0879 20.0885C26.9857 20.0601 26.8467 19.9835 26.656 19.8627C26.5626 19.8035 26.4603 19.736 26.3472 19.6618C26.2344 19.5878 26.1116 19.5076 25.9787 19.424L25.8456 19.6356ZM27.575 19.6286C27.5845 19.4654 27.5261 19.3059 27.431 19.1564C27.3357 19.0068 27.1985 18.8589 27.0359 18.715C26.7108 18.4273 26.2677 18.1411 25.8049 17.8756C25.3409 17.6095 24.8512 17.3609 24.4304 17.1495C24.006 16.9363 23.6585 16.7642 23.4686 16.6471L23.3374 16.8599C23.5393 16.9844 23.901 17.1633 24.3181 17.3729C24.7389 17.5843 25.2231 17.8302 25.6805 18.0925C26.1389 18.3554 26.5644 18.6315 26.8702 18.9022C27.0231 19.0375 27.1419 19.1678 27.22 19.2907C27.2983 19.4137 27.3308 19.521 27.3254 19.6142L27.575 19.6286Z" fill="#868686"/>
</g>
<defs>
<filter id="filter0_d_877_3554" x="0.0273438" y="0.249023" width="31.5488" height="33.8574" filterUnits="userSpaceOnUse" color-interpolation-filters="sRGB">
<feFlood flood-opacity="0" result="BackgroundImageFix"/>
<feColorMatrix in="SourceAlpha" type="matrix" values="0 0 0 0 0 0 0 0 0 0 0 0 0 0 0 0 0 0 127 0" result="hardAlpha"/>
<feOffset dy="2"/>
<feGaussianBlur stdDeviation="2"/>
<feColorMatrix type="matrix" values="0 0 0 0 0 0 0 0 0 0 0 0 0 0 0 0 0 0 0.01 0"/>
<feBlend mode="normal" in2="BackgroundImageFix" result="effect1_dropShadow_877_3554"/>
<feBlend mode="normal" in="SourceGraphic" in2="effect1_dropShadow_877_3554" result="shape"/>
</filter>
</defs>
</svg>
