<svg width="49" height="21" viewBox="0 0 49 21" fill="none" xmlns="http://www.w3.org/2000/svg">
<g filter="url(#filter0_d_877_3303)">
<path fill-rule="evenodd" clip-rule="evenodd" d="M12.0684 7.01817C12.0989 5.66228 10.7999 5.81225 10.498 4.87926C10.1962 3.94277 9.68231 4.48426 9.50172 3.87999C9.47467 3.79105 9.41709 3.69252 9.34381 3.58963C8.66069 3.80936 8.90759 4.37439 8.71566 4.41276C8.4644 4.46333 7.10515 4.61331 7.10515 4.21134C7.10515 3.81111 6.90536 3.15888 6.10273 3.00803C5.69181 2.9313 5.28352 2.90863 4.91797 2.92781C5.40217 4.00294 5.46237 5.1391 5.48418 6.05292C5.51558 7.25971 7.29621 9.19371 7.56841 9.97586C7.84061 10.7598 8.35185 11.003 9.53138 11.8471C10.7092 12.6929 13.0028 14.0505 13.4556 13.8395C13.9092 13.6276 12.7629 11.6352 12.0972 10.9437C11.4342 10.2488 12.0387 8.37669 12.0684 7.01817ZM42.9568 4.69527C42.4133 4.81735 41.1448 4.75544 41.1448 4.21134C41.1448 3.66898 39.9984 2.64355 39.2734 2.64355C38.5475 2.64355 37.7013 4.09014 37.642 4.69527C37.5835 5.30129 36.4336 5.23938 36.5549 6.08431C36.602 6.41827 36.3891 6.5604 36.1108 6.64759C36.2967 7.37568 36.4005 7.90321 36.1318 7.83607C35.6485 7.714 35.5281 8.31827 34.8039 8.31827C34.5562 8.31827 34.1383 7.69307 33.6968 6.87779C33.6837 6.87605 33.6689 6.87081 33.6558 6.87081C33.1734 6.87081 32.0872 8.5598 31.8447 9.70555C31.6047 10.8539 30.5177 10.4903 28.8862 10.6115C27.2548 10.7327 27.9196 12.4217 27.5575 13.2073C27.2269 13.925 25.4349 12.6292 24.5293 12.4435C24.6811 13.0905 24.8949 13.7514 25.1409 13.7514C25.6251 13.7514 26.3501 14.9565 26.8317 14.5938C27.315 14.2336 28.7624 14.5938 29.4882 14.354C30.2132 14.1142 30.3354 13.509 31.5419 13.509C32.7485 13.509 32.266 14.4743 33.4735 13.8726C34.6835 13.2684 35.4077 13.7514 35.2846 12.6641C35.1634 11.5785 36.0096 11.5785 35.8884 10.7327C35.768 9.88605 37.218 10.4912 37.0958 8.92079C36.9763 7.35301 39.2717 7.59454 40.2366 7.59454C40.4608 7.59454 40.8063 7.72708 41.2032 7.92414C41.9186 7.57012 42.9428 7.10624 42.4709 6.68945C41.9291 6.20638 44.1014 6.63015 44.3431 5.90555C44.5865 5.17747 43.5003 4.57582 42.9568 4.69527Z" fill="white"/>
<path d="M12.0684 7.01817L11.9434 7.01536L11.9434 7.01545L12.0684 7.01817ZM10.498 4.87926L10.3791 4.91761L10.3791 4.91774L10.498 4.87926ZM9.50172 3.87999L9.62148 3.8442L9.62131 3.84363L9.50172 3.87999ZM9.34381 3.58963L9.44562 3.51711L9.39258 3.44264L9.30553 3.47064L9.34381 3.58963ZM8.71566 4.41276L8.69116 4.29018L8.69099 4.29022L8.71566 4.41276ZM6.10273 3.00803L6.12582 2.88518L6.12567 2.88516L6.10273 3.00803ZM4.91797 2.92781L4.91142 2.80299L4.72897 2.81256L4.80399 2.97914L4.91797 2.92781ZM5.48418 6.05292L5.35921 6.0559L5.35922 6.05617L5.48418 6.05292ZM7.56841 9.97586L7.6865 9.93486L7.68647 9.93478L7.56841 9.97586ZM9.53138 11.8471L9.60429 11.7456L9.60412 11.7454L9.53138 11.8471ZM13.4556 13.8395L13.5084 13.9528L13.5085 13.9528L13.4556 13.8395ZM12.0972 10.9437L12.0068 11.03L12.0071 11.0304L12.0972 10.9437ZM42.9568 4.69527L42.93 4.57319L42.9294 4.57331L42.9568 4.69527ZM37.642 4.69527L37.5176 4.68308L37.5175 4.68327L37.642 4.69527ZM36.5549 6.08431L36.6787 6.06685L36.6786 6.06655L36.5549 6.08431ZM36.1108 6.64759L36.0735 6.52831L35.9604 6.56373L35.9897 6.6785L36.1108 6.64759ZM36.1318 7.83607L36.1012 7.95727L36.1015 7.95734L36.1318 7.83607ZM33.6968 6.87779L33.8067 6.81827L33.7764 6.76229L33.7133 6.75388L33.6968 6.87779ZM31.8447 9.70555L31.7224 9.67967L31.7223 9.67999L31.8447 9.70555ZM27.5575 13.2073L27.444 13.155L27.444 13.155L27.5575 13.2073ZM24.5293 12.4435L24.5544 12.3211L24.363 12.2818L24.4076 12.4721L24.5293 12.4435ZM26.8317 14.5938L26.757 14.4935L26.7565 14.4939L26.8317 14.5938ZM29.4882 14.354L29.5274 14.4727L29.5275 14.4726L29.4882 14.354ZM33.4735 13.8726L33.5292 13.9845L33.5293 13.9845L33.4735 13.8726ZM35.2846 12.6641L35.1604 12.678L35.1604 12.6782L35.2846 12.6641ZM35.8884 10.7327L35.7646 10.7503L35.7646 10.7505L35.8884 10.7327ZM37.0958 8.92079L36.9712 8.93029L36.9712 8.93048L37.0958 8.92079ZM41.2032 7.92414L41.1476 8.0361L41.2031 8.06365L41.2587 8.03617L41.2032 7.92414ZM42.4709 6.68945L42.3877 6.78275L42.3881 6.78314L42.4709 6.68945ZM44.3431 5.90555L44.2245 5.86592L44.2245 5.86601L44.3431 5.90555ZM12.1934 7.02099C12.2015 6.66051 12.1209 6.39056 11.9837 6.17583C11.848 5.96355 11.6627 5.81466 11.4791 5.6874C11.2887 5.55546 11.1137 5.45437 10.9557 5.32091C10.8039 5.19271 10.6832 5.04553 10.617 4.84078L10.3791 4.91774C10.4638 5.17948 10.6186 5.36343 10.7944 5.51189C10.9639 5.65509 11.1683 5.77618 11.3367 5.89286C11.5117 6.01422 11.6643 6.14037 11.773 6.31047C11.8802 6.47813 11.9506 6.69789 11.9434 7.01536L12.1934 7.02099ZM10.617 4.84091C10.5375 4.59415 10.44 4.43212 10.3273 4.32316C10.2133 4.21293 10.0934 4.16658 9.99066 4.13542C9.88042 4.102 9.817 4.09056 9.7573 4.05331C9.70962 4.02356 9.65968 3.97201 9.62148 3.8442L9.38195 3.91579C9.43405 4.09011 9.51606 4.19747 9.62496 4.26541C9.72183 4.32585 9.8396 4.35086 9.91814 4.37467C10.0041 4.40073 10.0806 4.43237 10.1535 4.50287C10.2277 4.57466 10.3077 4.69612 10.3791 4.91761L10.617 4.84091ZM9.62131 3.84363C9.58829 3.73503 9.52124 3.62328 9.44562 3.51711L9.24199 3.66215C9.31295 3.76177 9.36105 3.84707 9.38212 3.91636L9.62131 3.84363ZM9.30553 3.47064C9.11716 3.53123 8.98443 3.61858 8.89149 3.722C8.79876 3.82518 8.7522 3.93707 8.725 4.0361C8.71153 4.08515 8.70266 4.13165 8.69557 4.17149C8.68807 4.21364 8.68326 4.24376 8.67703 4.27027C8.6623 4.33299 8.65639 4.29714 8.69116 4.29018L8.74016 4.53534C8.8709 4.5092 8.9061 4.38833 8.9204 4.32745C8.92869 4.29216 8.93538 4.25084 8.9417 4.2153C8.94844 4.17745 8.95572 4.14003 8.96608 4.10231C8.98653 4.02783 9.01834 3.95486 9.07743 3.8891C9.13632 3.82358 9.22889 3.7579 9.38208 3.70863L9.30553 3.47064ZM8.69099 4.29022C8.5741 4.31375 8.18046 4.36305 7.81835 4.35677C7.63621 4.35362 7.47304 4.33646 7.35926 4.30036C7.23519 4.26099 7.23015 4.22185 7.23015 4.21134H6.98015C6.98015 4.40181 7.14502 4.49466 7.28366 4.53865C7.43259 4.58591 7.62493 4.60346 7.81402 4.60674C8.19434 4.61332 8.60596 4.56235 8.74032 4.5353L8.69099 4.29022ZM7.23015 4.21134C7.23015 3.99298 7.17609 3.70481 7.00983 3.4482C6.84112 3.18781 6.56109 2.96699 6.12582 2.88518L6.07964 3.13088C6.44701 3.19993 6.66818 3.38065 6.80002 3.58414C6.93432 3.79141 6.98015 4.02946 6.98015 4.21134H7.23015ZM6.12567 2.88516C5.70478 2.80656 5.28657 2.7833 4.91142 2.80299L4.92452 3.05264C5.28046 3.03396 5.67885 3.05604 6.07978 3.13091L6.12567 2.88516ZM4.80399 2.97914C5.27697 4.02934 5.33742 5.14308 5.35921 6.0559L5.60914 6.04993C5.58731 5.13513 5.52737 3.97654 5.03194 2.87648L4.80399 2.97914ZM5.35922 6.05617C5.36776 6.38441 5.49402 6.75069 5.67227 7.11941C5.85152 7.49018 6.08916 7.87497 6.33167 8.24248C6.45308 8.42648 6.57628 8.60697 6.69445 8.77968C6.81283 8.95271 6.92593 9.11758 7.02816 9.27173C7.23519 9.58388 7.38831 9.83866 7.45036 10.0169L7.68647 9.93478C7.61241 9.72198 7.44088 9.44171 7.2365 9.13355C7.13304 8.97754 7.01874 8.81093 6.90077 8.63851C6.78259 8.46577 6.66047 8.28684 6.54033 8.10478C6.29973 7.74017 6.06931 7.3663 5.89735 7.0106C5.72439 6.65284 5.61629 6.32482 5.60913 6.04966L5.35922 6.05617ZM7.45033 10.0169C7.59491 10.4332 7.80532 10.7078 8.12844 10.9839C8.4431 11.2528 8.87667 11.5323 9.45864 11.9487L9.60412 11.7454C9.00656 11.3178 8.59475 11.0536 8.29086 10.7939C7.99542 10.5414 7.81411 10.3024 7.6865 9.93486L7.45033 10.0169ZM9.45847 11.9486C10.0515 12.3745 10.9239 12.9283 11.7061 13.3496C12.0968 13.5602 12.4685 13.7396 12.7733 13.8533C12.9255 13.91 13.065 13.9519 13.1841 13.9724C13.2979 13.9919 13.4156 13.9961 13.5084 13.9528L13.4028 13.7262C13.3824 13.7357 13.3293 13.7436 13.2264 13.726C13.1288 13.7092 13.0057 13.6731 12.8607 13.619C12.5714 13.5111 12.2111 13.3378 11.8246 13.1296C11.0523 12.7134 10.189 12.1654 9.60429 11.7456L9.45847 11.9486ZM13.5085 13.9528C13.6165 13.9023 13.6642 13.8014 13.6785 13.7001C13.6925 13.6015 13.6785 13.4859 13.6499 13.366C13.5924 13.1242 13.4656 12.8232 13.3074 12.5145C12.9909 11.8968 12.5313 11.2145 12.1872 10.857L12.0071 11.0304C12.3287 11.3645 12.7752 12.0241 13.0849 12.6285C13.2398 12.9307 13.3561 13.2109 13.4067 13.4238C13.4323 13.5313 13.4386 13.6115 13.431 13.6651C13.4238 13.716 13.408 13.7238 13.4027 13.7263L13.5085 13.9528ZM12.1876 10.8574C12.0481 10.7112 11.9674 10.4944 11.9329 10.213C11.8985 9.93235 11.9117 9.60161 11.9474 9.24214C11.9831 8.88261 12.0402 8.50379 12.091 8.12351C12.1416 7.74571 12.1858 7.36803 12.1934 7.0209L11.9434 7.01545C11.9362 7.34757 11.8937 7.71335 11.8433 8.09036C11.7931 8.4649 11.7349 8.85226 11.6986 9.21744C11.6624 9.58268 11.6469 9.93517 11.6847 10.2434C11.7224 10.551 11.8148 10.8288 12.0068 11.03L12.1876 10.8574ZM42.9294 4.57331C42.6751 4.63042 42.2389 4.64563 41.8688 4.58004C41.6835 4.54721 41.526 4.49601 41.4182 4.42795C41.3123 4.36116 41.2698 4.28956 41.2698 4.21134H41.0198C41.0198 4.40516 41.1357 4.54534 41.2847 4.63937C41.4317 4.73214 41.6254 4.7908 41.8251 4.82621C42.2251 4.89708 42.6949 4.8822 42.9842 4.81724L42.9294 4.57331ZM41.2698 4.21134C41.2698 4.03734 41.1806 3.84562 41.0572 3.66664C40.9311 3.48364 40.7574 3.2968 40.5624 3.12926C40.3673 2.96158 40.1475 2.81033 39.9275 2.70043C39.7091 2.59135 39.4816 2.51855 39.2734 2.51855V2.76855C39.4277 2.76855 39.6153 2.82394 39.8158 2.92408C40.0146 3.02338 40.2174 3.16239 40.3995 3.31887C40.5817 3.47547 40.7399 3.64669 40.8514 3.80849C40.9656 3.97432 41.0198 4.11416 41.0198 4.21134H41.2698ZM39.2734 2.51855C39.0515 2.51855 38.8353 2.62806 38.6428 2.78122C38.4484 2.93589 38.2649 3.14546 38.1057 3.37024C37.9461 3.59555 37.8081 3.84017 37.7058 4.06823C37.6044 4.29417 37.5343 4.5123 37.5176 4.68308L37.7664 4.70747C37.7793 4.57568 37.8372 4.38606 37.9339 4.17057C38.0296 3.9572 38.1596 3.72671 38.3097 3.51473C38.4602 3.30223 38.6282 3.11233 38.7984 2.97686C38.9706 2.83987 39.1324 2.76855 39.2734 2.76855V2.51855ZM37.5175 4.68327C37.5073 4.78946 37.4509 4.87153 37.3516 4.95209C37.247 5.03703 37.1163 5.10427 36.9673 5.19269C36.8261 5.27641 36.6729 5.37732 36.5653 5.52114C36.4531 5.6711 36.3963 5.85922 36.4312 6.10206L36.6786 6.06655C36.6529 5.88693 36.6944 5.76594 36.7655 5.67093C36.8411 5.56979 36.9563 5.48987 37.0948 5.4077C37.2254 5.33023 37.3856 5.24651 37.5092 5.14621C37.6381 5.04154 37.7474 4.90409 37.7664 4.70728L37.5175 4.68327ZM36.4311 6.10177C36.4501 6.23621 36.4167 6.31607 36.3634 6.3733C36.3038 6.43735 36.2063 6.48668 36.0735 6.52831L36.1482 6.76687C36.2936 6.72131 36.4418 6.65597 36.5464 6.54367C36.6573 6.42454 36.7068 6.26637 36.6787 6.06685L36.4311 6.10177ZM35.9897 6.6785C36.0832 7.04471 36.1524 7.34765 36.1671 7.54911C36.1747 7.65427 36.1651 7.70706 36.1557 7.72614C36.1532 7.73123 36.1558 7.72367 36.1674 7.71883C36.1773 7.7147 36.1788 7.71897 36.1621 7.7148L36.1015 7.95734C36.152 7.96996 36.209 7.97244 36.2639 7.94946C36.3205 7.92578 36.3576 7.88233 36.3803 7.83603C36.4212 7.75233 36.4244 7.64032 36.4164 7.53098C36.3999 7.30343 36.3243 6.97856 36.232 6.61668L35.9897 6.6785ZM36.1624 7.71488C35.8547 7.63718 35.6561 7.80161 35.4831 7.9314C35.3069 8.06364 35.1235 8.19327 34.8039 8.19327V8.44327C35.2084 8.44327 35.4474 8.27076 35.6332 8.13138C35.8222 7.98956 35.9255 7.91289 36.1012 7.95727L36.1624 7.71488ZM34.8039 8.19327C34.7901 8.19327 34.7474 8.18126 34.6712 8.11408C34.5998 8.05112 34.5165 7.95543 34.4236 7.82952C34.2382 7.57836 34.0266 7.22429 33.8067 6.81827L33.5869 6.93731C33.8085 7.34657 34.0266 7.71273 34.2224 7.978C34.3201 8.11029 34.4154 8.22186 34.5058 8.3016C34.5915 8.37712 34.6939 8.44327 34.8039 8.44327V8.19327ZM33.7133 6.75388C33.7148 6.75408 33.7151 6.75419 33.7129 6.75374C33.7119 6.75352 33.7108 6.75326 33.709 6.75287C33.7075 6.75253 33.7053 6.75202 33.703 6.75153C33.6955 6.74988 33.677 6.74581 33.6558 6.74581V6.99581C33.651 6.99581 33.6479 6.99535 33.6473 6.99526C33.6467 6.99518 33.6471 6.99521 33.6496 6.99576C33.6509 6.99604 33.6521 6.99632 33.6541 6.99676C33.6558 6.99715 33.6581 6.99767 33.6606 6.99819C33.6653 6.9992 33.6723 7.00063 33.6803 7.00169L33.7133 6.75388ZM33.6558 6.74581C33.5613 6.74581 33.4676 6.78608 33.3825 6.84007C33.2954 6.89532 33.205 6.97282 33.1143 7.06494C32.9328 7.24939 32.7389 7.50395 32.555 7.79111C32.188 8.36415 31.8478 9.08706 31.7224 9.67967L31.9669 9.73144C32.084 9.17829 32.4082 8.48384 32.7655 7.92594C32.9438 7.64764 33.1271 7.40834 33.2925 7.2403C33.3753 7.15617 33.4508 7.09277 33.5164 7.05118C33.584 7.00833 33.6297 6.99581 33.6558 6.99581V6.74581ZM31.7223 9.67999C31.6666 9.94634 31.5655 10.1102 31.4324 10.217C31.2966 10.326 31.1132 10.3873 30.8707 10.4198C30.6275 10.4524 30.3399 10.4544 30.0027 10.4553C29.6683 10.4562 29.29 10.4562 28.877 10.4869L28.8955 10.7362C29.2982 10.7063 29.6676 10.7062 30.0034 10.7053C30.3364 10.7044 30.6414 10.7028 30.9039 10.6676C31.167 10.6323 31.4023 10.5617 31.5888 10.412C31.778 10.2603 31.9027 10.0389 31.967 9.73112L31.7223 9.67999ZM28.877 10.4869C28.4462 10.5189 28.1488 10.6564 27.9493 10.8731C27.7524 11.0871 27.6655 11.3626 27.6223 11.6411C27.5795 11.9173 27.5773 12.2183 27.5636 12.4809C27.5495 12.7525 27.5233 12.9829 27.444 13.155L27.6711 13.2597C27.7728 13.0389 27.7993 12.7637 27.8133 12.4938C27.8278 12.215 27.8292 11.9388 27.8694 11.6794C27.9092 11.4224 27.9847 11.2038 28.1332 11.0424C28.2792 10.8838 28.5105 10.7648 28.8955 10.7362L28.877 10.4869ZM27.444 13.155C27.4161 13.2156 27.376 13.251 27.3233 13.2721C27.2665 13.2947 27.1882 13.3031 27.085 13.2925C26.8768 13.2711 26.6087 13.1776 26.3081 13.0492C26.0078 12.9209 25.6959 12.7673 25.3897 12.6283C25.0898 12.4922 24.7963 12.3707 24.5544 12.3211L24.5042 12.566C24.7152 12.6092 24.9852 12.7193 25.2864 12.856C25.5811 12.9897 25.9077 13.15 26.2099 13.2791C26.5119 13.4082 26.8104 13.5156 27.0595 13.5412C27.1849 13.5541 27.3079 13.5474 27.416 13.5043C27.528 13.4595 27.6163 13.3785 27.6711 13.2597L27.444 13.155ZM24.4076 12.4721C24.484 12.7974 24.5772 13.1325 24.6845 13.3884C24.7379 13.5157 24.7976 13.6305 24.8649 13.7156C24.9292 13.7969 25.0209 13.8764 25.1409 13.8764V13.6264C25.1379 13.6264 25.1106 13.6233 25.0609 13.5605C25.0142 13.5014 24.9649 13.4106 24.9151 13.2918C24.816 13.0555 24.7265 12.7366 24.651 12.415L24.4076 12.4721ZM25.1409 13.8764C25.217 13.8764 25.3236 13.9272 25.4668 14.0342C25.6064 14.1385 25.7494 14.2709 25.9065 14.404C26.0572 14.5318 26.2207 14.6598 26.3828 14.7299C26.5497 14.8021 26.7375 14.8212 26.9069 14.6936L26.7565 14.4939C26.685 14.5477 26.6016 14.5522 26.482 14.5004C26.3576 14.4466 26.2193 14.3414 26.0681 14.2133C25.9231 14.0904 25.764 13.9442 25.6165 13.8339C25.4725 13.7264 25.3069 13.6264 25.1409 13.6264V13.8764ZM26.9064 14.694C26.9986 14.6253 27.1507 14.5826 27.3605 14.5625C27.5668 14.5427 27.8085 14.5462 28.0653 14.5537C28.3192 14.5611 28.5882 14.5726 28.8377 14.5669C29.0865 14.5613 29.328 14.5385 29.5274 14.4727L29.449 14.2353C29.2855 14.2893 29.0739 14.3115 28.832 14.317C28.591 14.3225 28.3317 14.3114 28.0727 14.3038C27.8165 14.2963 27.5604 14.2922 27.3366 14.3137C27.1164 14.3348 26.9064 14.3822 26.757 14.4935L26.9064 14.694ZM29.5275 14.4726C29.9112 14.3457 30.1539 14.1121 30.4038 13.9456C30.6568 13.777 30.9651 13.634 31.5419 13.634V13.384C30.9122 13.384 30.5561 13.5437 30.2652 13.7376C29.971 13.9336 29.7902 14.1224 29.449 14.2353L29.5275 14.4726ZM31.5419 13.634C31.8257 13.634 31.9999 13.6905 32.1214 13.7593C32.2483 13.8311 32.3223 13.9163 32.4229 14.0086C32.5219 14.0994 32.6398 14.1869 32.8268 14.1945C33.0028 14.2018 33.2225 14.1374 33.5292 13.9845L33.4177 13.7608C33.1208 13.9087 32.948 13.9493 32.8371 13.9448C32.7372 13.9407 32.674 13.8997 32.5919 13.8243C32.5113 13.7505 32.4042 13.632 32.2445 13.5417C32.0794 13.4482 31.8614 13.384 31.5419 13.384V13.634ZM33.5293 13.9845C34.1221 13.6885 34.5662 13.669 34.9134 13.5697C35.0817 13.5215 35.237 13.4492 35.3312 13.2905C35.4222 13.1372 35.4404 12.9291 35.4089 12.6501L35.1604 12.6782C35.1904 12.9428 35.1642 13.082 35.1162 13.1629C35.0714 13.2383 34.9931 13.2868 34.8446 13.3294C34.5579 13.4114 34.0349 13.4525 33.4176 13.7608L33.5293 13.9845ZM35.4089 12.6502C35.3805 12.3958 35.4092 12.2119 35.4623 12.0661C35.516 11.9186 35.597 11.8027 35.6865 11.6835C35.7733 11.5679 35.8748 11.4414 35.9424 11.2894C36.0125 11.1316 36.0457 10.9492 36.0121 10.715L35.7646 10.7505C35.7917 10.9391 35.7646 11.0739 35.7139 11.1879C35.6607 11.3077 35.581 11.4077 35.4865 11.5334C35.3948 11.6557 35.2945 11.7962 35.2274 11.9805C35.1597 12.1664 35.1282 12.3896 35.1604 12.678L35.4089 12.6502ZM36.0121 10.7151C35.9994 10.6257 36.0088 10.566 36.0262 10.5239C36.0434 10.4822 36.0728 10.4471 36.1179 10.4136C36.1646 10.379 36.2247 10.3486 36.2996 10.316C36.3672 10.2866 36.4631 10.2489 36.5444 10.212C36.7183 10.133 36.9099 10.0228 37.0461 9.81614C37.1828 9.60873 37.2524 9.32184 37.2204 8.9111L36.9712 8.93048C37.0003 9.30494 36.9344 9.5313 36.8374 9.67856C36.7398 9.8266 36.5994 9.91243 36.4411 9.98434C36.3563 10.0228 36.2861 10.0492 36.1998 10.0868C36.1209 10.1212 36.0393 10.1606 35.9689 10.2129C35.897 10.2663 35.8337 10.3351 35.7952 10.4285C35.7568 10.5215 35.7472 10.6281 35.7646 10.7503L36.0121 10.7151ZM37.2205 8.91129C37.1932 8.55389 37.3024 8.31348 37.4854 8.14384C37.6744 7.96868 37.9541 7.85816 38.284 7.79233C38.9474 7.65996 39.7394 7.71954 40.2366 7.71954V7.46954C39.7688 7.46954 38.9307 7.40836 38.2351 7.54716C37.8855 7.61692 37.5534 7.73998 37.3155 7.96047C37.0716 8.18649 36.9387 8.5038 36.9712 8.93029L37.2205 8.91129ZM40.2366 7.71954C40.3275 7.71954 40.4541 7.74718 40.6136 7.80334C40.771 7.85878 40.9516 7.93878 41.1476 8.0361L41.2588 7.81218C41.0579 7.71243 40.8673 7.62764 40.6966 7.56754C40.5281 7.50817 40.3698 7.46954 40.2366 7.46954V7.71954ZM41.2587 8.03617C41.6101 7.86224 42.0588 7.65158 42.3567 7.43076C42.5035 7.32201 42.6351 7.19587 42.6894 7.05275C42.7181 6.97717 42.7257 6.89528 42.7011 6.81217C42.6769 6.73055 42.625 6.65878 42.5536 6.59575L42.3881 6.78314C42.4347 6.82431 42.454 6.85821 42.4614 6.88312C42.4683 6.90654 42.4678 6.93204 42.4556 6.96409C42.4283 7.03623 42.3476 7.12634 42.2079 7.22991C41.9329 7.43373 41.5117 7.63202 41.1478 7.81211L41.2587 8.03617ZM42.554 6.59615C42.525 6.57023 42.5124 6.55363 42.5079 6.54595C42.5037 6.53883 42.513 6.55091 42.5079 6.57394C42.5027 6.59704 42.4888 6.60538 42.4926 6.60278C42.497 6.59975 42.5099 6.59288 42.5369 6.58476C42.5906 6.56858 42.6705 6.55588 42.775 6.54445C42.8784 6.53314 42.9958 6.52402 43.1243 6.51258C43.3762 6.49015 43.6656 6.45936 43.9088 6.38539C44.1465 6.31307 44.381 6.18711 44.4617 5.9451L44.2245 5.86601C44.1844 5.98629 44.0567 6.07909 43.836 6.14621C43.6208 6.21167 43.3557 6.24099 43.1021 6.26357C42.9778 6.27464 42.8546 6.28426 42.7478 6.29593C42.6422 6.30749 42.5423 6.32203 42.4648 6.34538C42.4261 6.35702 42.3856 6.37298 42.3509 6.39685C42.3156 6.42116 42.277 6.46048 42.2638 6.51964C42.2507 6.57873 42.2686 6.63194 42.292 6.67205C42.3151 6.71158 42.349 6.74828 42.3877 6.78275L42.554 6.59615ZM44.4616 5.94519C44.609 5.50435 44.3457 5.1212 44.0189 4.88176C43.8525 4.75976 43.6602 4.6666 43.472 4.61162C43.2855 4.55712 43.0932 4.5373 42.93 4.57319L42.9836 4.81736C43.0921 4.79352 43.2394 4.80411 43.4019 4.85158C43.5626 4.89856 43.7286 4.97892 43.8712 5.08341C44.1625 5.29695 44.3206 5.57868 44.2245 5.86592L44.4616 5.94519Z" fill="#868686"/>
</g>
<defs>
<filter id="filter0_d_877_3303" x="0.728516" y="0.518555" width="47.7754" height="20.2686" filterUnits="userSpaceOnUse" color-interpolation-filters="sRGB">
<feFlood flood-opacity="0" result="BackgroundImageFix"/>
<feColorMatrix in="SourceAlpha" type="matrix" values="0 0 0 0 0 0 0 0 0 0 0 0 0 0 0 0 0 0 127 0" result="hardAlpha"/>
<feOffset dy="2"/>
<feGaussianBlur stdDeviation="2"/>
<feColorMatrix type="matrix" values="0 0 0 0 0 0 0 0 0 0 0 0 0 0 0 0 0 0 0.01 0"/>
<feBlend mode="normal" in2="BackgroundImageFix" result="effect1_dropShadow_877_3303"/>
<feBlend mode="normal" in="SourceGraphic" in2="effect1_dropShadow_877_3303" result="shape"/>
</filter>
</defs>
</svg>
