<svg width="24" height="21" viewBox="0 0 24 21" fill="none" xmlns="http://www.w3.org/2000/svg">
<g filter="url(#filter0_d_877_3254)">
<path fill-rule="evenodd" clip-rule="evenodd" d="M6.51349 10.0667C6.20639 10.3353 5.45087 11.3223 4.94922 12.2152L5.05478 12.2588L5.21705 12.986L7.07184 13.9522C7.07184 13.9522 8.44068 12.986 9.00689 12.9041C9.57048 12.8239 16.0204 9.35868 16.0204 9.35868C16.0204 9.35868 16.5857 8.47277 16.5063 8.1484C16.4243 7.82665 16.3432 6.939 16.6677 6.5379C16.9905 6.13505 16.2646 5.4898 16.5063 4.84542C16.7471 4.1993 17.7958 3.88016 17.7958 3.88016L19.0049 2.99338L18.1997 2.75098C18.1997 2.75098 17.1528 3.15382 15.9418 3.07273C14.7327 2.99338 14.491 3.88016 13.2007 3.88016C11.9086 3.88016 11.1836 4.1993 10.8608 3.7982C10.5389 3.39448 10.4577 3.63689 9.57048 4.03886C8.68322 4.44171 8.11876 4.36236 7.71657 4.03886C7.31263 3.71798 6.99071 4.12082 6.90957 4.52367C6.83367 4.9021 6.95232 5.76883 5.70125 5.9406C5.61576 6.31206 5.46831 6.69921 5.68293 6.96864C6.00224 7.36626 5.61925 7.83712 5.52328 8.47888C7.12419 8.40738 6.89823 9.73014 6.51349 10.0667Z" fill="white"/>
<path fill-rule="evenodd" clip-rule="evenodd" d="M6.51349 10.0667C6.20639 10.3353 5.45087 11.3223 4.94922 12.2152L5.05478 12.2588L5.21705 12.986L7.07184 13.9522C7.07184 13.9522 8.44068 12.986 9.00689 12.9041C9.57048 12.8239 16.0204 9.35868 16.0204 9.35868C16.0204 9.35868 16.5857 8.47277 16.5063 8.1484C16.4243 7.82665 16.3432 6.939 16.6677 6.5379C16.9905 6.13505 16.2646 5.4898 16.5063 4.84542C16.7471 4.1993 17.7958 3.88016 17.7958 3.88016L19.0049 2.99338L18.1997 2.75098C18.1997 2.75098 17.1528 3.15382 15.9418 3.07273C14.7327 2.99338 14.491 3.88016 13.2007 3.88016C11.9086 3.88016 11.1836 4.1993 10.8608 3.7982C10.5389 3.39448 10.4577 3.63689 9.57048 4.03886C8.68322 4.44171 8.11876 4.36236 7.71657 4.03886C7.31263 3.71798 6.99071 4.12082 6.90957 4.52367C6.83367 4.9021 6.95232 5.76883 5.70125 5.9406C5.61576 6.31206 5.46831 6.69921 5.68293 6.96864C6.00224 7.36626 5.61925 7.83712 5.52328 8.47888C7.12419 8.40738 6.89823 9.73014 6.51349 10.0667Z" stroke="#868686" stroke-width="0.25"/>
</g>
<defs>
<filter id="filter0_d_877_3254" x="0.771484" y="0.619141" width="22.5098" height="19.4795" filterUnits="userSpaceOnUse" color-interpolation-filters="sRGB">
<feFlood flood-opacity="0" result="BackgroundImageFix"/>
<feColorMatrix in="SourceAlpha" type="matrix" values="0 0 0 0 0 0 0 0 0 0 0 0 0 0 0 0 0 0 127 0" result="hardAlpha"/>
<feOffset dy="2"/>
<feGaussianBlur stdDeviation="2"/>
<feColorMatrix type="matrix" values="0 0 0 0 0 0 0 0 0 0 0 0 0 0 0 0 0 0 0.01 0"/>
<feBlend mode="normal" in2="BackgroundImageFix" result="effect1_dropShadow_877_3254"/>
<feBlend mode="normal" in="SourceGraphic" in2="effect1_dropShadow_877_3254" result="shape"/>
</filter>
</defs>
</svg>
