<svg width="26" height="40" viewBox="0 0 26 40" fill="none" xmlns="http://www.w3.org/2000/svg">
<g filter="url(#filter0_d_877_3275)">
<path fill-rule="evenodd" clip-rule="evenodd" d="M15.2164 18.9119C15.2164 18.0408 14.344 18.0408 15.1309 17.0825C15.9126 16.1234 17.1332 15.4276 17.9175 15.6891C18.7018 15.9507 20.2704 15.2532 20.7058 15.7772C20.7843 15.8696 20.8741 15.9377 20.9675 15.9987C21.6576 15.2279 21.1559 14.5852 21.231 13.688C21.3173 12.6408 20.4449 11.6816 19.8351 11.5072C19.2244 11.3328 20.2704 9.4154 19.6606 9.06923C19.0508 8.71958 18.6163 8.11182 18.1801 7.58778C17.743 7.0646 16.4361 7.24074 16.2625 7.67497C16.088 8.1127 15.2164 8.37341 14.9538 8.02463C14.6939 7.67497 14.1713 7.58603 13.4725 8.11269C12.7754 8.635 11.8175 9.59067 11.643 8.80765C11.4685 8.0255 12.1664 8.11269 12.1664 7.23899C12.1664 6.36878 12.6026 5.93192 12.3392 5.06258C12.0774 4.19237 11.2068 5.14978 10.9433 4.53766C10.6842 3.92991 10.9459 3.23234 10.7697 2.97162C10.7156 2.88791 10.5568 2.73881 10.371 2.57227C10.22 2.64987 10.0892 2.73707 10.0359 2.86873C9.87368 3.2707 8.50483 3.35267 8.18203 3.91508C7.85924 4.48011 6.89171 4.39989 6.6483 4.39989C6.40489 4.39989 5.60051 4.48098 5.52025 5.04514C5.43999 5.60843 5.11719 7.86593 5.11719 8.26965C5.11719 8.67075 6.24437 9.96038 6.6483 10.1217C7.05137 10.2821 6.56629 11.25 7.05137 11.4915C7.53731 11.7313 7.21451 12.5379 6.9711 12.4559C6.72944 12.3774 7.1325 13.5058 6.6483 13.9077C6.1641 14.3106 6.56629 15.3604 7.37591 16.0859C8.18203 16.8096 8.18203 17.9379 8.18203 18.5841C8.18203 19.2276 8.82589 19.3095 8.82589 20.1126C8.82589 20.1126 7.86273 23.6275 7.07405 23.4766C6.90567 24.3556 6.6928 25.7341 6.49912 26.4831C6.25833 27.417 6.07773 28.2314 6.62038 28.2933C7.16304 28.3517 8.25008 29.5899 9.3066 30.9197C9.56396 31.2423 9.76201 31.5815 9.9173 31.9268C10.2828 31.9076 10.692 31.9303 11.1021 32.007C11.9047 32.1578 12.1045 32.8101 12.1045 33.2103C12.1045 33.6131 13.4637 33.4623 13.715 33.4117C13.9069 33.3734 13.66 32.8083 14.3431 32.5886C13.9331 32.0053 12.867 31.2981 11.9928 31.2205C10.9677 31.1298 10.4844 29.5908 10.5751 28.8967C10.6658 28.2026 9.81959 27.5992 9.81959 26.9958C9.81959 26.3925 9.21761 26.3619 8.52315 26.0288C7.82783 25.6975 8.67321 23.6458 8.76395 22.7712C8.85381 21.8975 10.3038 19.3915 9.88153 18.6085C9.4584 17.8246 11.3586 17.2203 11.6037 18.0923C11.8436 18.9695 11.9344 19.3915 13.1427 19.3313C14.351 19.2729 14.351 20.2059 15.3159 20.4797C15.3726 20.4936 15.411 20.5207 15.459 20.5399C15.4651 20.5207 15.4712 20.4963 15.4782 20.4797C15.7399 19.7839 15.2164 19.7839 15.2164 18.9119Z" fill="white"/>
<path fill-rule="evenodd" clip-rule="evenodd" d="M15.2164 18.9119C15.2164 18.0408 14.344 18.0408 15.1309 17.0825C15.9126 16.1234 17.1332 15.4276 17.9175 15.6891C18.7018 15.9507 20.2704 15.2532 20.7058 15.7772C20.7843 15.8696 20.8741 15.9377 20.9675 15.9987C21.6576 15.2279 21.1559 14.5852 21.231 13.688C21.3173 12.6408 20.4449 11.6816 19.8351 11.5072C19.2244 11.3328 20.2704 9.4154 19.6606 9.06923C19.0508 8.71958 18.6163 8.11182 18.1801 7.58778C17.743 7.0646 16.4361 7.24074 16.2625 7.67497C16.088 8.1127 15.2164 8.37341 14.9538 8.02463C14.6939 7.67497 14.1713 7.58603 13.4725 8.11269C12.7754 8.635 11.8175 9.59067 11.643 8.80765C11.4685 8.0255 12.1664 8.11269 12.1664 7.23899C12.1664 6.36878 12.6026 5.93192 12.3392 5.06258C12.0774 4.19237 11.2068 5.14978 10.9433 4.53766C10.6842 3.92991 10.9459 3.23234 10.7697 2.97162C10.7156 2.88791 10.5568 2.73881 10.371 2.57227C10.22 2.64987 10.0892 2.73707 10.0359 2.86873C9.87368 3.2707 8.50483 3.35267 8.18203 3.91508C7.85924 4.48011 6.89171 4.39989 6.6483 4.39989C6.40489 4.39989 5.60051 4.48098 5.52025 5.04514C5.43999 5.60843 5.11719 7.86593 5.11719 8.26965C5.11719 8.67075 6.24437 9.96038 6.6483 10.1217C7.05137 10.2821 6.56629 11.25 7.05137 11.4915C7.53731 11.7313 7.21451 12.5379 6.9711 12.4559C6.72944 12.3774 7.1325 13.5058 6.6483 13.9077C6.1641 14.3106 6.56629 15.3604 7.37591 16.0859C8.18203 16.8096 8.18203 17.9379 8.18203 18.5841C8.18203 19.2276 8.82589 19.3095 8.82589 20.1126C8.82589 20.1126 7.86273 23.6275 7.07405 23.4766C6.90567 24.3556 6.6928 25.7341 6.49912 26.4831C6.25833 27.417 6.07773 28.2314 6.62038 28.2933C7.16304 28.3517 8.25008 29.5899 9.3066 30.9197C9.56396 31.2423 9.76201 31.5815 9.9173 31.9268C10.2828 31.9076 10.692 31.9303 11.1021 32.007C11.9047 32.1578 12.1045 32.8101 12.1045 33.2103C12.1045 33.6131 13.4637 33.4623 13.715 33.4117C13.9069 33.3734 13.66 32.8083 14.3431 32.5886C13.9331 32.0053 12.867 31.2981 11.9928 31.2205C10.9677 31.1298 10.4844 29.5908 10.5751 28.8967C10.6658 28.2026 9.81959 27.5992 9.81959 26.9958C9.81959 26.3925 9.21761 26.3619 8.52315 26.0288C7.82783 25.6975 8.67321 23.6458 8.76395 22.7712C8.85381 21.8975 10.3038 19.3915 9.88153 18.6085C9.4584 17.8246 11.3586 17.2203 11.6037 18.0923C11.8436 18.9695 11.9344 19.3915 13.1427 19.3313C14.351 19.2729 14.351 20.2059 15.3159 20.4797C15.3726 20.4936 15.411 20.5207 15.459 20.5399C15.4651 20.5207 15.4712 20.4963 15.4782 20.4797C15.7399 19.7839 15.2164 19.7839 15.2164 18.9119Z" stroke="#868686" stroke-width="0.25"/>
</g>
<defs>
<filter id="filter0_d_877_3275" x="0.992188" y="0.421875" width="24.4707" height="39.1846" filterUnits="userSpaceOnUse" color-interpolation-filters="sRGB">
<feFlood flood-opacity="0" result="BackgroundImageFix"/>
<feColorMatrix in="SourceAlpha" type="matrix" values="0 0 0 0 0 0 0 0 0 0 0 0 0 0 0 0 0 0 127 0" result="hardAlpha"/>
<feOffset dy="2"/>
<feGaussianBlur stdDeviation="2"/>
<feColorMatrix type="matrix" values="0 0 0 0 0 0 0 0 0 0 0 0 0 0 0 0 0 0 0.01 0"/>
<feBlend mode="normal" in2="BackgroundImageFix" result="effect1_dropShadow_877_3275"/>
<feBlend mode="normal" in="SourceGraphic" in2="effect1_dropShadow_877_3275" result="shape"/>
</filter>
</defs>
</svg>
