<svg width="40" height="39" viewBox="0 0 40 39" fill="none" xmlns="http://www.w3.org/2000/svg">
<g filter="url(#filter0_d_877_3225)">
<path fill-rule="evenodd" clip-rule="evenodd" d="M8.22951 4.23949C8.01751 4.33017 6.93046 5.47767 6.65914 5.71746C6.38781 5.95986 6.3564 6.38276 6.4768 6.62255C6.59807 6.86496 6.38781 7.7404 6.11648 8.25312C5.84341 8.7667 4.87763 9.12944 4.81656 9.43026C4.75724 9.73196 5.36096 10.426 5.75268 11.3015C6.14615 12.1761 5.36009 12.7795 5.69248 13.4439C6.02488 14.1075 5.84429 14.4702 5.54068 14.8312C5.23969 15.1939 5.54068 15.7668 5.54068 16.0981C5.54068 16.4312 5.96381 16.9143 5.84429 17.0337C5.72389 17.1549 4.95702 17.7418 4.95702 18.0426C4.95702 18.3434 5.40982 18.6451 5.86086 19.3235C6.31278 19.9993 6.01266 20.3777 6.08769 20.9035C6.16272 21.4319 6.91738 21.7336 7.51935 21.7336C8.1222 21.7336 8.49822 22.1835 9.02517 22.1835C9.49453 22.1835 9.78505 22.9596 10.0546 23.9248C10.2797 23.9275 12.2357 23.9571 13.0462 24.4977C13.9082 25.0723 14.3391 25.7891 14.3391 25.7891L17.7844 23.924L33.3729 32.3035V31.2223H35.2635C35.2635 31.2223 35.2635 12.5937 35.2635 11.2091C35.2635 9.82439 34.6327 8.94196 35.2635 8.18772C35.8934 7.4326 35.0105 7.05592 35.5156 5.67037C35.5741 5.50644 35.6352 5.33641 35.7015 5.16202C35.6831 5.13673 35.6526 5.1097 35.6439 5.08267C35.4921 4.66239 34.6772 4.62925 32.8975 4.35895C31.1151 4.08689 31.779 2.87923 29.7873 2.76064C27.7938 2.6377 25.2576 4.23774 25.2279 5.08267C25.1974 5.92847 26.1623 6.86409 25.4993 7.73953C24.8353 8.61324 23.388 8.70305 22.3585 7.76918C21.3325 6.83444 19.8224 6.40979 18.587 6.40979C17.3482 6.40979 16.4722 5.6259 16.5621 4.96234C16.6528 4.29965 16.2611 3.99621 15.2351 3.78607C14.2083 3.57418 13.3332 2.72838 11.5221 3.03095C10.5519 3.19139 9.72922 2.9019 9.16563 2.54004C9.12462 2.93416 9.09234 3.33963 9.10456 3.6047C9.13335 4.27088 8.43977 4.14706 8.22951 4.23949Z" fill="white"/>
<path fill-rule="evenodd" clip-rule="evenodd" d="M8.22951 4.23949C8.01751 4.33017 6.93046 5.47767 6.65914 5.71746C6.38781 5.95986 6.3564 6.38276 6.4768 6.62255C6.59807 6.86496 6.38781 7.7404 6.11648 8.25312C5.84341 8.7667 4.87763 9.12944 4.81656 9.43026C4.75724 9.73196 5.36096 10.426 5.75268 11.3015C6.14615 12.1761 5.36009 12.7795 5.69248 13.4439C6.02488 14.1075 5.84429 14.4702 5.54068 14.8312C5.23969 15.1939 5.54068 15.7668 5.54068 16.0981C5.54068 16.4312 5.96381 16.9143 5.84429 17.0337C5.72389 17.1549 4.95702 17.7418 4.95702 18.0426C4.95702 18.3434 5.40982 18.6451 5.86086 19.3235C6.31278 19.9993 6.01266 20.3777 6.08769 20.9035C6.16272 21.4319 6.91738 21.7336 7.51935 21.7336C8.1222 21.7336 8.49822 22.1835 9.02517 22.1835C9.49453 22.1835 9.78505 22.9596 10.0546 23.9248C10.2797 23.9275 12.2357 23.9571 13.0462 24.4977C13.9082 25.0723 14.3391 25.7891 14.3391 25.7891L17.7844 23.924L33.3729 32.3035V31.2223H35.2635C35.2635 31.2223 35.2635 12.5937 35.2635 11.2091C35.2635 9.82439 34.6327 8.94196 35.2635 8.18772C35.8934 7.4326 35.0105 7.05592 35.5156 5.67037C35.5741 5.50644 35.6352 5.33641 35.7015 5.16202C35.6831 5.13673 35.6526 5.1097 35.6439 5.08267C35.4921 4.66239 34.6772 4.62925 32.8975 4.35895C31.1151 4.08689 31.779 2.87923 29.7873 2.76064C27.7938 2.6377 25.2576 4.23774 25.2279 5.08267C25.1974 5.92847 26.1623 6.86409 25.4993 7.73953C24.8353 8.61324 23.388 8.70305 22.3585 7.76918C21.3325 6.83444 19.8224 6.40979 18.587 6.40979C17.3482 6.40979 16.4722 5.6259 16.5621 4.96234C16.6528 4.29965 16.2611 3.99621 15.2351 3.78607C14.2083 3.57418 13.3332 2.72838 11.5221 3.03095C10.5519 3.19139 9.72922 2.9019 9.16563 2.54004C9.12462 2.93416 9.09234 3.33963 9.10456 3.6047C9.13335 4.27088 8.43977 4.14706 8.22951 4.23949Z" stroke="#868686" stroke-width="0.25"/>
</g>
<defs>
<filter id="filter0_d_877_3225" x="0.6875" y="0.325195" width="39.1543" height="38.1875" filterUnits="userSpaceOnUse" color-interpolation-filters="sRGB">
<feFlood flood-opacity="0" result="BackgroundImageFix"/>
<feColorMatrix in="SourceAlpha" type="matrix" values="0 0 0 0 0 0 0 0 0 0 0 0 0 0 0 0 0 0 127 0" result="hardAlpha"/>
<feOffset dy="2"/>
<feGaussianBlur stdDeviation="2"/>
<feColorMatrix type="matrix" values="0 0 0 0 0 0 0 0 0 0 0 0 0 0 0 0 0 0 0.01 0"/>
<feBlend mode="normal" in2="BackgroundImageFix" result="effect1_dropShadow_877_3225"/>
<feBlend mode="normal" in="SourceGraphic" in2="effect1_dropShadow_877_3225" result="shape"/>
</filter>
</defs>
</svg>
