<svg width="18" height="19" viewBox="0 0 18 19" fill="none" xmlns="http://www.w3.org/2000/svg">
<g filter="url(#filter0_d_877_3319)">
<path fill-rule="evenodd" clip-rule="evenodd" d="M8.91666 11.5218C9.36596 11.7459 10.4888 11.5218 10.9381 11.8575C11.1562 12.0223 11.5244 12.0258 11.9492 11.97C11.8184 11.7799 11.7172 11.6273 11.6674 11.5314C11.3507 10.9455 11.8934 9.76745 12.1656 8.90683C12.4369 8.0462 11.9388 5.96658 12.4369 5.42248C12.9351 4.87838 12.6629 4.56185 12.8906 3.2949C12.9045 3.21119 12.8941 3.15626 12.8949 3.08999C11.8759 3.05162 10.8343 4.01165 10.5088 4.0474C10.1154 4.091 8.71688 3.74221 8.54152 4.48425C8.36616 5.22716 7.49286 5.35795 6.31159 5.44515C5.13119 5.53322 5.74363 6.53859 5.65639 6.71298C5.56915 6.88824 5.04394 7.2815 5.04394 7.2815L4.28755 7.45676C4.25178 7.74102 4.23258 8.02004 4.6025 8.22931C5.32748 8.63565 6.3238 10.2217 7.09241 10.6289C7.46319 10.8243 7.69264 11.1443 7.79123 11.4556C8.23442 11.4207 8.6846 11.4041 8.91666 11.5218Z" fill="white"/>
<path fill-rule="evenodd" clip-rule="evenodd" d="M8.91666 11.5218C9.36596 11.7459 10.4888 11.5218 10.9381 11.8575C11.1562 12.0223 11.5244 12.0258 11.9492 11.97C11.8184 11.7799 11.7172 11.6273 11.6674 11.5314C11.3507 10.9455 11.8934 9.76745 12.1656 8.90683C12.4369 8.0462 11.9388 5.96658 12.4369 5.42248C12.9351 4.87838 12.6629 4.56185 12.8906 3.2949C12.9045 3.21119 12.8941 3.15626 12.8949 3.08999C11.8759 3.05162 10.8343 4.01165 10.5088 4.0474C10.1154 4.091 8.71688 3.74221 8.54152 4.48425C8.36616 5.22716 7.49286 5.35795 6.31159 5.44515C5.13119 5.53322 5.74363 6.53859 5.65639 6.71298C5.56915 6.88824 5.04394 7.2815 5.04394 7.2815L4.28755 7.45676C4.25178 7.74102 4.23258 8.02004 4.6025 8.22931C5.32748 8.63565 6.3238 10.2217 7.09241 10.6289C7.46319 10.8243 7.69264 11.1443 7.79123 11.4556C8.23442 11.4207 8.6846 11.4041 8.91666 11.5218Z" stroke="#868686" stroke-width="0.25"/>
</g>
<defs>
<filter id="filter0_d_877_3319" x="0.144531" y="0.963867" width="16.8789" height="17.1641" filterUnits="userSpaceOnUse" color-interpolation-filters="sRGB">
<feFlood flood-opacity="0" result="BackgroundImageFix"/>
<feColorMatrix in="SourceAlpha" type="matrix" values="0 0 0 0 0 0 0 0 0 0 0 0 0 0 0 0 0 0 127 0" result="hardAlpha"/>
<feOffset dy="2"/>
<feGaussianBlur stdDeviation="2"/>
<feColorMatrix type="matrix" values="0 0 0 0 0 0 0 0 0 0 0 0 0 0 0 0 0 0 0.01 0"/>
<feBlend mode="normal" in2="BackgroundImageFix" result="effect1_dropShadow_877_3319"/>
<feBlend mode="normal" in="SourceGraphic" in2="effect1_dropShadow_877_3319" result="shape"/>
</filter>
</defs>
</svg>
