<svg width="35" height="35" viewBox="0 0 35 35" fill="none" xmlns="http://www.w3.org/2000/svg">
<g filter="url(#filter0_d_877_3210)">
<path fill-rule="evenodd" clip-rule="evenodd" d="M13.9166 27.2764C13.9166 26.8535 14.6434 26.0705 15.0639 26.6739C15.487 27.2764 15.3055 28.1222 16.1509 28.1222C16.9946 28.1222 18.5047 28.423 18.7481 28.062C18.9872 27.6984 20.0751 27.3967 20.0751 26.734C20.0751 26.0713 20.0751 13.7575 20.0751 13.2753C20.0751 12.7923 22.1288 13.2753 22.1288 12.4897C22.1288 11.7049 22.1288 5.48873 22.1288 5.48873C22.1288 5.48873 23.6372 5.37014 24.0604 5.24894C24.4835 5.12861 25.9937 4.34297 26.3566 4.58538C26.7187 4.82429 27.2003 5.67184 27.4419 5.3684C27.6827 5.0667 28.2882 4.46243 28.8919 4.46243C29.2208 4.46243 29.7608 4.32117 30.2642 4.19997C30.1639 4.02296 30.1002 3.85642 30.1002 3.72911C30.1002 3.21815 26.4247 3.83113 25.8113 4.03604C25.198 4.24095 23.2595 4.54614 22.6462 4.24008C22.0337 3.93402 18.154 4.24008 18.154 4.24008L17.4386 3.52508C17.4386 3.52508 11.1065 3.52508 10.3929 3.52508C9.67836 3.52508 9.16625 3.42393 8.55467 3.01759C7.94048 2.6069 7.32978 2.6069 6.61352 2.91209C5.89987 3.21902 6.20609 2.50488 5.69572 2.50488C5.18448 2.50488 4.98033 3.01759 4.98033 3.01759L4.34345 3.18414C4.27628 3.80497 4.82678 4.9516 5.49332 5.85233C6.18777 6.78795 7.03228 8.5371 7.48595 10.0159C7.93874 11.4948 9.23866 13.1541 9.56844 14.272C9.90258 15.3872 9.32852 16.9881 9.65917 17.7119C9.99244 18.4356 10.2018 19.672 10.385 20.9102C10.5656 22.1475 10.6564 24.7721 11.7731 25.8586C12.1971 26.2719 12.6359 26.8465 13.0416 27.4883C13.538 27.5362 13.9166 27.5955 13.9166 27.2764Z" fill="white"/>
<path fill-rule="evenodd" clip-rule="evenodd" d="M13.9166 27.2764C13.9166 26.8535 14.6434 26.0705 15.0639 26.6739C15.487 27.2764 15.3055 28.1222 16.1509 28.1222C16.9946 28.1222 18.5047 28.423 18.7481 28.062C18.9872 27.6984 20.0751 27.3967 20.0751 26.734C20.0751 26.0713 20.0751 13.7575 20.0751 13.2753C20.0751 12.7923 22.1288 13.2753 22.1288 12.4897C22.1288 11.7049 22.1288 5.48873 22.1288 5.48873C22.1288 5.48873 23.6372 5.37014 24.0604 5.24894C24.4835 5.12861 25.9937 4.34297 26.3566 4.58538C26.7187 4.82429 27.2003 5.67184 27.4419 5.3684C27.6827 5.0667 28.2882 4.46243 28.8919 4.46243C29.2208 4.46243 29.7608 4.32117 30.2642 4.19997C30.1639 4.02296 30.1002 3.85642 30.1002 3.72911C30.1002 3.21815 26.4247 3.83113 25.8113 4.03604C25.198 4.24095 23.2595 4.54614 22.6462 4.24008C22.0337 3.93402 18.154 4.24008 18.154 4.24008L17.4386 3.52508C17.4386 3.52508 11.1065 3.52508 10.3929 3.52508C9.67836 3.52508 9.16625 3.42393 8.55467 3.01759C7.94048 2.6069 7.32978 2.6069 6.61352 2.91209C5.89987 3.21902 6.20609 2.50488 5.69572 2.50488C5.18448 2.50488 4.98033 3.01759 4.98033 3.01759L4.34345 3.18414C4.27628 3.80497 4.82678 4.9516 5.49332 5.85233C6.18777 6.78795 7.03228 8.5371 7.48595 10.0159C7.93874 11.4948 9.23866 13.1541 9.56844 14.272C9.90258 15.3872 9.32852 16.9881 9.65917 17.7119C9.99244 18.4356 10.2018 19.672 10.385 20.9102C10.5656 22.1475 10.6564 24.7721 11.7731 25.8586C12.1971 26.2719 12.6359 26.8465 13.0416 27.4883C13.538 27.5362 13.9166 27.5955 13.9166 27.2764Z" stroke="#868686" stroke-width="0.25"/>
</g>
<defs>
<filter id="filter0_d_877_3210" x="0.212891" y="0.379883" width="34.2422" height="33.9844" filterUnits="userSpaceOnUse" color-interpolation-filters="sRGB">
<feFlood flood-opacity="0" result="BackgroundImageFix"/>
<feColorMatrix in="SourceAlpha" type="matrix" values="0 0 0 0 0 0 0 0 0 0 0 0 0 0 0 0 0 0 127 0" result="hardAlpha"/>
<feOffset dy="2"/>
<feGaussianBlur stdDeviation="2"/>
<feColorMatrix type="matrix" values="0 0 0 0 0 0 0 0 0 0 0 0 0 0 0 0 0 0 0.01 0"/>
<feBlend mode="normal" in2="BackgroundImageFix" result="effect1_dropShadow_877_3210"/>
<feBlend mode="normal" in="SourceGraphic" in2="effect1_dropShadow_877_3210" result="shape"/>
</filter>
</defs>
</svg>
