<svg width="31" height="43" viewBox="0 0 31 43" fill="none" xmlns="http://www.w3.org/2000/svg">
<g filter="url(#filter0_d_877_3298)">
<path fill-rule="evenodd" clip-rule="evenodd" d="M22.9081 31.2633C23.3923 30.1768 25.5629 29.338 25.9293 28.3666C26.109 27.8818 26.1692 27.6412 25.3849 26.7352C24.5997 25.8301 22.8496 25.2267 22.7868 24.7445C22.7266 24.2597 24.1164 24.2013 24.0553 23.597C23.9951 22.9927 23.2728 22.9954 22.9674 22.5114C22.6664 22.0284 23.3312 21.7249 23.271 21.4851C23.2108 21.2445 22.3044 21.1233 22.2442 20.8198C22.184 20.519 22.8488 20.5792 22.7266 20.2182C22.6053 19.8563 22.0034 19.1901 22.4256 18.6486C22.8487 18.1054 23.7543 18.6486 23.0887 17.4418C22.4256 16.2351 21.3979 14.7257 21.1571 14.3621C20.9146 14.0002 21.3979 13.3968 21.7617 13.1579C22.1238 12.9155 23.0285 12.0104 23.0285 11.6477C23.0285 11.2858 21.8821 10.3188 21.5802 10.1392C21.2766 9.95782 20.6145 10.0189 20.3126 9.41372C20.0081 8.8112 19.7089 8.6307 20.0081 8.26796C20.3126 7.9061 20.3126 7.54424 20.3126 7.18063C20.3126 6.81877 20.9765 7.12047 21.0943 6.57724C21.1493 6.33047 21.3246 6.05929 21.5471 5.83345C21.5488 5.42189 21.5933 4.97893 21.5471 4.69729C21.4502 4.11395 19.8014 3.92038 19.414 3.24199C19.024 2.56535 18.0547 2.85484 17.7625 3.24199C17.4728 3.63001 15.7254 3.14608 15.7254 3.72854C15.7254 4.31014 14.4656 4.4078 14.4656 5.08531C14.4656 5.76457 15.0475 6.92689 14.0773 6.83098C13.1072 6.73332 13.7859 7.21813 13.204 7.9933C12.6213 8.76934 12.6213 7.50762 12.0393 7.70206C11.4592 7.89651 10.7796 7.12047 10.4873 7.60528C10.1968 8.09183 9.2275 7.70206 8.25561 7.50849C7.2846 7.31491 6.80127 5.95902 6.02393 5.86049C5.5092 5.79683 4.95782 6.20753 4.66992 6.85626C5.42108 7.34194 5.91401 8.03166 6.89636 8.47985C7.96422 8.96466 9.9045 9.54451 9.81028 10.2246C9.7117 10.903 9.41943 11.8726 9.9045 12.1648C10.3904 12.4542 9.81028 13.716 10.3904 14.0072C10.9724 14.2993 10.7787 15.7511 10.2936 15.7511C9.81028 15.7511 10.3904 16.5263 10.6827 16.8158C10.8136 16.9501 10.9209 17.3442 10.9689 17.8238C11.5656 17.9676 12.0943 18.2685 12.6125 18.4995C13.4282 18.8614 13.3061 19.4334 13.3375 20.0673C13.3663 20.7004 13.396 21.0614 12.9755 20.791C12.5532 20.5199 12.0995 20.791 11.8579 21.6979C11.6153 22.6021 10.4681 23.6894 9.77364 23.7496C9.07831 23.8098 9.13938 24.5335 8.56532 24.6843C7.99301 24.8352 7.44948 25.1674 7.48002 25.8004C7.50881 26.4344 6.63463 26.4945 6.0597 26.4945C5.48652 26.4945 5.60691 27.52 5.15412 27.7911C4.70133 28.0641 4.79119 28.4259 5.21345 28.9692C5.63657 29.5133 5.27452 29.9954 5.42457 30.3878C5.57725 30.7802 6.24117 31.6853 5.78663 32.6802C5.33471 33.6769 4.85226 34.9142 5.24485 34.7938C5.6357 34.6735 6.54216 35.61 7.14762 35.549C7.75047 35.487 7.81242 36.3913 8.38473 36.2116C8.95704 36.0311 8.95704 36.7531 10.6199 36.6956C12.281 36.6345 15.6311 35.2473 16.9607 35.2473C17.7145 35.2473 18.3165 35.1566 18.7919 35.0389C19.0772 34.6099 19.4227 34.1442 19.7691 33.7981C20.6145 32.9514 22.4256 32.3497 22.9081 31.2633Z" fill="white"/>
<path fill-rule="evenodd" clip-rule="evenodd" d="M22.9081 31.2633C23.3923 30.1768 25.5629 29.338 25.9293 28.3666C26.109 27.8818 26.1692 27.6412 25.3849 26.7352C24.5997 25.8301 22.8496 25.2267 22.7868 24.7445C22.7266 24.2597 24.1164 24.2013 24.0553 23.597C23.9951 22.9927 23.2728 22.9954 22.9674 22.5114C22.6664 22.0284 23.3312 21.7249 23.271 21.4851C23.2108 21.2445 22.3044 21.1233 22.2442 20.8198C22.184 20.519 22.8488 20.5792 22.7266 20.2182C22.6053 19.8563 22.0034 19.1901 22.4256 18.6486C22.8487 18.1054 23.7543 18.6486 23.0887 17.4418C22.4256 16.2351 21.3979 14.7257 21.1571 14.3621C20.9146 14.0002 21.3979 13.3968 21.7617 13.1579C22.1238 12.9155 23.0285 12.0104 23.0285 11.6477C23.0285 11.2858 21.8821 10.3188 21.5802 10.1392C21.2766 9.95782 20.6145 10.0189 20.3126 9.41372C20.0081 8.8112 19.7089 8.6307 20.0081 8.26796C20.3126 7.9061 20.3126 7.54424 20.3126 7.18063C20.3126 6.81877 20.9765 7.12047 21.0943 6.57724C21.1493 6.33047 21.3246 6.05929 21.5471 5.83345C21.5488 5.42189 21.5933 4.97893 21.5471 4.69729C21.4502 4.11395 19.8014 3.92038 19.414 3.24199C19.024 2.56535 18.0547 2.85484 17.7625 3.24199C17.4728 3.63001 15.7254 3.14608 15.7254 3.72854C15.7254 4.31014 14.4656 4.4078 14.4656 5.08531C14.4656 5.76457 15.0475 6.92689 14.0773 6.83098C13.1072 6.73332 13.7859 7.21813 13.204 7.9933C12.6213 8.76934 12.6213 7.50762 12.0393 7.70206C11.4592 7.89651 10.7796 7.12047 10.4873 7.60528C10.1968 8.09183 9.2275 7.70206 8.25561 7.50849C7.2846 7.31491 6.80127 5.95902 6.02393 5.86049C5.5092 5.79683 4.95782 6.20753 4.66992 6.85626C5.42108 7.34194 5.91401 8.03166 6.89636 8.47985C7.96422 8.96466 9.9045 9.54451 9.81028 10.2246C9.7117 10.903 9.41943 11.8726 9.9045 12.1648C10.3904 12.4542 9.81028 13.716 10.3904 14.0072C10.9724 14.2993 10.7787 15.7511 10.2936 15.7511C9.81028 15.7511 10.3904 16.5263 10.6827 16.8158C10.8136 16.9501 10.9209 17.3442 10.9689 17.8238C11.5656 17.9676 12.0943 18.2685 12.6125 18.4995C13.4282 18.8614 13.3061 19.4334 13.3375 20.0673C13.3663 20.7004 13.396 21.0614 12.9755 20.791C12.5532 20.5199 12.0995 20.791 11.8579 21.6979C11.6153 22.6021 10.4681 23.6894 9.77364 23.7496C9.07831 23.8098 9.13938 24.5335 8.56532 24.6843C7.99301 24.8352 7.44948 25.1674 7.48002 25.8004C7.50881 26.4344 6.63463 26.4945 6.0597 26.4945C5.48652 26.4945 5.60691 27.52 5.15412 27.7911C4.70133 28.0641 4.79119 28.4259 5.21345 28.9692C5.63657 29.5133 5.27452 29.9954 5.42457 30.3878C5.57725 30.7802 6.24117 31.6853 5.78663 32.6802C5.33471 33.6769 4.85226 34.9142 5.24485 34.7938C5.6357 34.6735 6.54216 35.61 7.14762 35.549C7.75047 35.487 7.81242 36.3913 8.38473 36.2116C8.95704 36.0311 8.95704 36.7531 10.6199 36.6956C12.281 36.6345 15.6311 35.2473 16.9607 35.2473C17.7145 35.2473 18.3165 35.1566 18.7919 35.0389C19.0772 34.6099 19.4227 34.1442 19.7691 33.7981C20.6145 32.9514 22.4256 32.3497 22.9081 31.2633Z" stroke="#868686" stroke-width="0.25"/>
</g>
<defs>
<filter id="filter0_d_877_3298" x="0.511719" y="0.710938" width="29.6562" height="42.1133" filterUnits="userSpaceOnUse" color-interpolation-filters="sRGB">
<feFlood flood-opacity="0" result="BackgroundImageFix"/>
<feColorMatrix in="SourceAlpha" type="matrix" values="0 0 0 0 0 0 0 0 0 0 0 0 0 0 0 0 0 0 127 0" result="hardAlpha"/>
<feOffset dy="2"/>
<feGaussianBlur stdDeviation="2"/>
<feColorMatrix type="matrix" values="0 0 0 0 0 0 0 0 0 0 0 0 0 0 0 0 0 0 0.01 0"/>
<feBlend mode="normal" in2="BackgroundImageFix" result="effect1_dropShadow_877_3298"/>
<feBlend mode="normal" in="SourceGraphic" in2="effect1_dropShadow_877_3298" result="shape"/>
</filter>
</defs>
</svg>
