<svg width="18" height="17" viewBox="0 0 18 17" fill="none" xmlns="http://www.w3.org/2000/svg">
<g filter="url(#filter0_d_877_3315)">
<path fill-rule="evenodd" clip-rule="evenodd" d="M12.3255 7.77882C12.7696 7.41957 13.1508 6.99057 13.4283 6.64091C12.7172 7.02457 12.5009 6.65748 12.6056 6.1561L11.5831 6.293L11.6886 2.16863C10.8642 2.20438 8.55486 2.1416 8.25998 2.1416C7.91101 2.1416 7.82377 3.54022 7.60566 3.66927C7.38755 3.80268 9.31126 5.07051 9.09228 5.63816C8.87417 6.20668 6.59975 5.89887 6.38251 5.94334C6.28044 5.96427 5.51183 7.00016 4.71094 8.14679C5.6139 8.94812 6.51512 9.78345 6.95134 10.059C7.81243 10.6022 9.21617 10.0137 9.80506 10.5569C9.82251 10.5726 9.84781 10.59 9.86962 10.6066C10.4821 10.025 11.1154 9.45647 11.3213 9.39717C11.7576 9.26289 11.4077 8.52173 12.3255 7.77882Z" fill="white"/>
<path fill-rule="evenodd" clip-rule="evenodd" d="M12.3255 7.77882C12.7696 7.41957 13.1508 6.99057 13.4283 6.64091C12.7172 7.02457 12.5009 6.65748 12.6056 6.1561L11.5831 6.293L11.6886 2.16863C10.8642 2.20438 8.55486 2.1416 8.25998 2.1416C7.91101 2.1416 7.82377 3.54022 7.60566 3.66927C7.38755 3.80268 9.31126 5.07051 9.09228 5.63816C8.87417 6.20668 6.59975 5.89887 6.38251 5.94334C6.28044 5.96427 5.51183 7.00016 4.71094 8.14679C5.6139 8.94812 6.51512 9.78345 6.95134 10.059C7.81243 10.6022 9.21617 10.0137 9.80506 10.5569C9.82251 10.5726 9.84781 10.59 9.86962 10.6066C10.4821 10.025 11.1154 9.45647 11.3213 9.39717C11.7576 9.26289 11.4077 8.52173 12.3255 7.77882Z" stroke="#868686" stroke-width="0.25"/>
</g>
<defs>
<filter id="filter0_d_877_3315" x="0.544922" y="0.0166016" width="16.9805" height="16.7539" filterUnits="userSpaceOnUse" color-interpolation-filters="sRGB">
<feFlood flood-opacity="0" result="BackgroundImageFix"/>
<feColorMatrix in="SourceAlpha" type="matrix" values="0 0 0 0 0 0 0 0 0 0 0 0 0 0 0 0 0 0 127 0" result="hardAlpha"/>
<feOffset dy="2"/>
<feGaussianBlur stdDeviation="2"/>
<feColorMatrix type="matrix" values="0 0 0 0 0 0 0 0 0 0 0 0 0 0 0 0 0 0 0.01 0"/>
<feBlend mode="normal" in2="BackgroundImageFix" result="effect1_dropShadow_877_3315"/>
<feBlend mode="normal" in="SourceGraphic" in2="effect1_dropShadow_877_3315" result="shape"/>
</filter>
</defs>
</svg>
