<svg width="134" height="103" viewBox="0 0 134 103" fill="none" xmlns="http://www.w3.org/2000/svg">
<g filter="url(#filter0_d_877_3345)">
<path fill-rule="evenodd" clip-rule="evenodd" d="M122.639 11.5015C120.404 11.5015 118.593 11.8642 118.473 13.4328C118.351 15.0024 115.513 13.1312 114.306 13.6744C113.097 14.2185 113.702 12.4066 112.494 13.0091C111.286 13.6133 109.959 15.0625 108.509 15.6659C107.06 16.2685 105.973 17.7778 105.067 17.8982C104.16 18.0202 107 15.1227 108.449 13.6744C109.898 12.2261 109.113 10.5353 107.18 10.7167C105.248 10.8981 105.671 12.1049 104.583 12.3473C103.495 12.5888 98.3035 15.1829 98.0618 14.399C97.8201 13.6142 102.35 12.2862 102.29 11.7421C102.229 11.1989 96.5516 11.1396 94.0172 11.5023C91.4802 11.8651 87.0116 13.3134 86.9514 12.5897C86.8903 11.8651 92.1459 10.8379 94.8024 10.5371C97.5192 10.2284 102.351 10.7184 104.404 9.87351C106.457 9.02771 109.536 8.96842 110.08 8.30398C110.623 7.64042 107.725 6.73533 106.277 6.79549C104.827 6.85566 103.378 6.67429 103.497 5.94969C103.618 5.2251 101.264 5.04373 101.022 4.50137C100.78 3.95814 96.2515 4.38104 95.2857 3.77677C94.3191 3.17425 91.4802 2.87081 89.0662 3.05217C86.6504 3.23354 81.6985 3.17425 80.5513 3.29371C79.4049 3.41404 78.679 3.83781 77.653 3.77677C76.6271 3.71748 75.0558 4.07934 75.6604 4.7429C76.7536 5.94446 74.0298 6.43276 74.2113 5.52767C74.3928 4.62257 71.8558 4.1988 71.0706 4.86323C70.1763 5.62009 66.1178 4.07934 65.5149 4.86323C64.9112 5.648 60.1399 5.40646 58.7518 5.648C57.3629 5.88953 60.9268 6.91495 60.8055 7.51922C60.6852 8.12262 56.2759 7.51922 57.1832 8.60568C58.0888 9.69214 60.987 10.476 62.375 11.8651C63.764 13.2515 61.2889 12.4074 59.7185 11.3803C58.149 10.3548 56.1555 10.7167 55.1906 9.69127C54.2231 8.66498 50.6007 7.88196 49.6951 8.48361C48.6168 9.20385 52.1702 10.5362 52.1702 11.3218C52.1702 12.1049 49.7553 11.1396 49.3331 11.4422C48.91 11.7447 46.7969 9.38957 45.5895 9.38957C44.3812 9.38957 45.408 10.476 45.408 11.9845C45.408 13.4939 43.0533 14.3999 43.7173 13.3727C44.3803 12.3473 43.8987 9.69127 42.6302 9.20821C41.3626 8.72601 38.1014 10.2362 36.4107 10.1743C34.7199 10.115 32.4865 10.6565 33.9347 11.5023C35.3855 12.3473 33.8754 12.8295 32.6069 11.9244C31.3392 11.0184 27.1725 11.9244 28.0179 12.5278C28.8633 13.132 29.1651 14.882 28.6216 15.6058C28.0781 16.3295 26.3262 14.8812 24.6957 15.0015C23.066 15.1236 14.9742 18.9846 15.4575 20.0127C15.9391 21.0381 19.3826 20.1931 20.4696 20.7948C21.5567 21.3991 20.1067 23.6322 18.7788 24.5381C17.4501 25.4441 12.4982 24.5983 12.3778 25.6839C12.2574 26.7695 4.58789 26.9517 4.58789 28.7026C4.58789 29.3662 4.94995 30.0288 5.79533 30.2102C6.88064 30.4448 8.21109 30.0908 9.17775 31.1772C10.1435 32.2637 12.8611 32.3247 14.7325 31.6001C16.6047 30.8755 17.9937 31.7205 17.9326 32.806C17.8724 33.8934 13.7065 32.3831 12.4389 33.1696C11.1704 33.9535 7.24444 33.2891 7.42591 34.1349C7.60737 34.9798 9.5398 34.7985 11.1102 35.0993C12.6797 35.4019 11.2306 36.0654 11.1704 36.729C11.1102 37.3934 12.0149 37.2713 13.5853 38.0561C15.1548 38.8417 17.752 39.3239 16.9066 38.4188C16.0621 37.5129 18.5372 37.6332 18.9603 38.1773C19.3834 38.7205 20.5307 37.3934 21.6779 37.6951C22.8252 37.9968 23.2483 36.6087 24.153 37.2129C25.0603 37.8172 29.2873 38.1773 30.7355 38.9629C32.1855 39.7477 34.1781 39.9291 33.9975 41.0748C33.816 42.2215 35.2032 43.0664 36.8338 43.7901C38.4644 44.5147 38.7671 46.0851 38.706 47.1105C38.6458 48.1368 40.457 48.8606 40.1551 49.3445C39.8533 49.8267 40.0949 50.4902 41.182 51.4564C42.2682 52.4225 39.4912 53.1462 40.1551 53.9912C40.819 54.8378 39.1885 56.4658 41.1218 56.7684C43.0542 57.07 42.7515 55.4404 44.2023 55.4404C45.6506 55.4404 44.1413 56.7082 44.9264 57.493C45.7108 58.2768 47.3413 58.0955 48.8524 59.3633C50.3608 60.6311 49.3959 61.2345 48.0053 60.2091C46.6172 59.1828 42.5718 59.4252 42.5718 59.7862C42.5718 60.1481 47.0403 62.6829 48.0672 62.321C49.0923 61.9591 50.4812 63.8312 49.8775 64.4337C49.2729 65.0363 49.5765 66.5474 49.4535 67.2702C49.334 67.9948 47.8238 67.2702 46.858 67.3914C45.8922 67.5126 45.2274 67.8135 45.2274 68.8389C45.2274 69.8669 43.7173 70.5898 43.5367 71.8567C43.3552 73.1237 44.7424 73.0661 45.5284 73.6076C46.3136 74.1526 44.0802 74.5127 43.9598 75.4196C43.8385 76.3238 46.0117 77.9543 46.7969 78.3764C47.5812 78.7975 46.8571 80.8519 47.159 81.8773C47.4609 82.9036 48.4877 81.6331 48.3664 82.9629C48.246 84.2909 49.3331 84.2307 49.3942 85.0155C49.4544 85.7994 51.3248 85.679 50.9645 86.7646C50.6007 87.8528 51.5072 88.6367 51.9303 89.2384C52.3534 89.8435 53.9229 90.8698 54.2239 91.6537C54.5258 92.4376 55.4323 93.463 56.5184 93.1622C57.6063 92.8596 57.6665 93.8868 58.5111 93.7647C59.3564 93.6453 60.686 94.1266 60.9286 94.7919C61.1702 95.4563 63.7648 96.0588 64.4898 96.1792C65.2157 96.3004 65.337 94.9724 66.0017 94.6114C66.6639 94.2495 66.424 91.5927 67.0277 91.4113C67.6314 91.2308 67.45 88.4554 66.8463 88.2138C66.2425 87.9714 66.4833 87.0062 67.874 87.1875C69.262 87.3689 68.7804 85.9799 69.4426 85.7994C70.1065 85.618 69.8055 84.351 70.288 84.2298C70.7713 84.1086 70.712 83.2628 70.3491 82.7824C69.987 82.2993 70.4101 81.9375 71.1351 81.8163C71.8601 81.6951 71.6786 80.6705 70.7129 80.3069C69.7453 79.945 70.0481 78.8594 71.0139 79.523C71.9805 80.1857 72.7046 79.7035 72.1611 78.9798C71.6176 78.2552 72.8259 77.8933 74.0935 77.773C75.3612 77.6518 76.0268 76.9882 75.7843 76.0212C75.5418 75.0568 77.2334 75.1161 76.8103 75.9628C76.388 76.8077 76.6288 77.6526 77.2334 77.0493C77.8371 76.4459 78.9844 76.8688 81.0389 76.2645C83.0909 75.662 85.0844 73.9704 85.566 72.3415C86.0502 70.7119 88.4049 70.8932 88.1039 69.8068C87.802 68.7203 88.5261 68.2983 90.0346 69.0229C91.5456 69.7466 90.3382 68.5398 92.0281 68.5398C93.7189 68.5398 93.4179 67.9347 95.0484 67.8762C96.6781 67.8161 100.904 67.0924 102.355 65.8838C103.804 64.6762 106.883 63.6507 108.151 62.866C109.42 62.0803 109.723 61.4176 108.938 61.8405C108.151 62.2634 106.521 62.3219 105.313 62.0219C104.106 61.7202 102.173 60.6939 100.784 61.4778C99.3966 62.2634 100.241 60.3312 101.388 60.1498C102.536 59.9684 102.052 59.4261 101.75 58.2193C101.449 57.0125 103.683 57.7964 104.65 59.1846C105.615 60.5727 107.486 61.1761 109.117 60.6939C110.748 60.2108 109.178 58.8829 109.842 57.9786C110.506 57.0727 104.83 54.2362 104.527 53.2709C104.227 52.3039 105.977 52.9692 107.548 53.6328C109.117 54.2963 109.48 52.3658 109.48 51.5209C109.48 50.6768 106.099 50.6149 104.588 51.4599C103.078 52.3039 101.629 50.3734 103.683 50.1327C105.737 49.8921 103.863 49.0454 104.469 48.4429C105.072 47.8386 107.667 50.192 108.997 49.7691C110.325 49.348 111.291 49.8302 112.439 48.9242C113.587 48.02 110.385 47.1751 109.722 46.3894C109.057 45.6038 113.041 45.9072 114.251 45.9665C115.457 46.0276 115.759 44.2174 114.794 44.5784C113.827 44.9411 110.385 43.3724 111.11 42.286C111.836 41.1995 113.164 42.4674 114.672 41.6817C116.182 40.8969 114.794 37.9401 113.707 37.9401C112.621 37.9401 110.084 37.5783 110.084 37.0342C110.084 36.4909 107.97 36.0079 108.574 35.4646C109.177 34.9205 109.964 36.13 111.352 35.1019C112.741 34.0765 115.639 35.3443 116.908 35.1019C118.176 34.8621 116.365 32.5078 115.639 32.9299C114.914 33.3528 112.439 33.4722 112.258 32.2053C112.077 30.9383 114.614 32.2053 115.036 31.6027C115.458 30.9985 111.534 29.4298 110.929 30.6968C110.325 31.9646 108.151 31.5417 109.3 30.8171C110.447 30.0934 110.689 28.0408 110.567 27.0154C110.447 25.9891 114.675 25.9298 114.191 24.239C113.708 22.5492 116.183 22.1864 117.574 22.1864C118.961 22.1864 117.512 20.3763 116.183 20.5576C114.855 20.739 113.466 22.2466 112.802 21.645C112.139 21.0407 114.372 19.9542 115.581 19.9542C116.789 19.9542 119.688 19.8339 120.713 19.2296C121.739 18.628 118.902 18.083 116.969 18.3245C115.037 18.5661 115.037 17.7211 117.936 17.661C120.835 17.5999 120.351 16.9957 122.405 16.7559C124.459 16.5135 123.792 15.6694 125.06 15.6084C126.329 15.5491 129.651 14.1601 129.651 13.4956C129.651 12.8312 124.872 11.5015 122.639 11.5015ZM47.3972 64.0693C47.4565 63.1049 46.3703 63.7074 45.7666 62.5608C45.1629 61.4142 42.0806 60.9407 41.7822 61.8371C41.6609 62.1989 40.6952 62.7421 41.4795 63.5862C42.2638 64.4329 42.8073 64.0693 43.7138 64.9133C44.6185 65.7591 47.3352 65.0337 47.3972 64.0693Z" fill="white"/>
<path d="M118.473 13.4328L118.598 13.4425L118.598 13.4423L118.473 13.4328ZM114.306 13.6744L114.254 13.5604L114.254 13.5604L114.306 13.6744ZM112.494 13.0091L112.439 12.8972L112.439 12.8973L112.494 13.0091ZM108.509 15.6659L108.557 15.7814L108.557 15.7813L108.509 15.6659ZM105.067 17.8982L105.051 17.7742L105.051 17.7743L105.067 17.8982ZM104.583 12.3473L104.61 12.4693L104.61 12.4693L104.583 12.3473ZM98.0618 14.399L97.9423 14.4358L97.9424 14.4358L98.0618 14.399ZM102.29 11.7421L102.414 11.7284L102.414 11.7282L102.29 11.7421ZM94.0172 11.5023L94.0349 11.6261L94.0349 11.6261L94.0172 11.5023ZM86.9514 12.5897L87.076 12.5793L87.076 12.5792L86.9514 12.5897ZM94.8024 10.5371L94.8165 10.6613L94.8165 10.6613L94.8024 10.5371ZM104.404 9.87351L104.451 9.9891L104.451 9.98909L104.404 9.87351ZM110.08 8.30398L110.177 8.38321L110.177 8.38312L110.08 8.30398ZM106.277 6.79549L106.282 6.92039L106.282 6.92039L106.277 6.79549ZM103.497 5.94969L103.374 5.92906L103.374 5.92935L103.497 5.94969ZM101.022 4.50137L100.908 4.55218L100.908 4.55225L101.022 4.50137ZM95.2857 3.77677L95.352 3.6708L95.3519 3.67069L95.2857 3.77677ZM89.0662 3.05217L89.0755 3.17682V3.17682L89.0662 3.05217ZM80.5513 3.29371L80.5383 3.16938L80.5382 3.16939L80.5513 3.29371ZM77.653 3.77677L77.6605 3.65199L77.6603 3.65198L77.653 3.77677ZM75.6604 4.7429L75.7529 4.65878L75.7528 4.65871L75.6604 4.7429ZM71.0706 4.86323L70.9898 4.76781L70.9898 4.76782L71.0706 4.86323ZM65.5149 4.86323L65.614 4.93945L65.614 4.93944L65.5149 4.86323ZM58.7518 5.648L58.7733 5.77115L58.7733 5.77115L58.7518 5.648ZM60.8055 7.51922L60.683 7.49463L60.683 7.49476L60.8055 7.51922ZM57.1832 8.60568L57.2792 8.52565L57.2792 8.52556L57.1832 8.60568ZM62.375 11.8651L62.2866 11.9534L62.2867 11.9535L62.375 11.8651ZM59.7185 11.3803L59.7869 11.2756L59.7869 11.2756L59.7185 11.3803ZM55.1906 9.69127L55.2816 9.60561L55.2815 9.60553L55.1906 9.69127ZM49.6951 8.48361L49.626 8.37949L49.6257 8.37966L49.6951 8.48361ZM49.3331 11.4422L49.4058 11.5438L49.4059 11.5438L49.3331 11.4422ZM43.7173 13.3727L43.6123 13.3048L43.6123 13.3048L43.7173 13.3727ZM42.6302 9.20821L42.6747 9.09139L42.6747 9.09137L42.6302 9.20821ZM36.4107 10.1743L36.4152 10.0494L36.415 10.0494L36.4107 10.1743ZM33.9347 11.5023L33.8717 11.6103L33.8718 11.6103L33.9347 11.5023ZM32.6069 11.9244L32.5342 12.0261L32.5343 12.0261L32.6069 11.9244ZM28.0179 12.5278L28.0906 12.4261L28.0905 12.426L28.0179 12.5278ZM24.6957 15.0015L24.6865 14.8768L24.6863 14.8769L24.6957 15.0015ZM15.4575 20.0127L15.5706 19.9595L15.5706 19.9595L15.4575 20.0127ZM20.4696 20.7948L20.5303 20.6855L20.5301 20.6854L20.4696 20.7948ZM18.7788 24.5381L18.8493 24.6414L18.8493 24.6414L18.7788 24.5381ZM5.79533 30.2102L5.82174 30.088L5.82155 30.088L5.79533 30.2102ZM9.17775 31.1772L9.27117 31.0942L9.27113 31.0941L9.17775 31.1772ZM14.7325 31.6001L14.6874 31.4835L14.6874 31.4836L14.7325 31.6001ZM17.9326 32.806L17.8078 32.799L17.8078 32.7991L17.9326 32.806ZM12.4389 33.1696L12.5046 33.276L12.5048 33.2759L12.4389 33.1696ZM7.42591 34.1349L7.30369 34.1611L7.30369 34.1612L7.42591 34.1349ZM11.1102 35.0993L11.1338 34.9766L11.1337 34.9765L11.1102 35.0993ZM11.1704 36.729L11.0459 36.7177L11.0459 36.7177L11.1704 36.729ZM13.5853 38.0561L13.6412 37.9443L13.6411 37.9443L13.5853 38.0561ZM16.9066 38.4188L16.8152 38.5041L16.8153 38.5042L16.9066 38.4188ZM18.9603 38.1773L18.8616 38.254L18.8617 38.2541L18.9603 38.1773ZM24.153 37.2129L24.0836 37.3169L24.0837 37.317L24.153 37.2129ZM30.7355 38.9629L30.6759 39.0728L30.676 39.0729L30.7355 38.9629ZM33.9975 41.0748L34.121 41.0944L34.121 41.0943L33.9975 41.0748ZM36.8338 43.7901L36.8845 43.6759L36.8845 43.6759L36.8338 43.7901ZM38.706 47.1105L38.5812 47.1031L38.5812 47.1032L38.706 47.1105ZM40.1551 49.3445L40.2611 49.4108L40.2612 49.4106L40.1551 49.3445ZM41.182 51.4564L41.2651 51.363L41.265 51.3629L41.182 51.4564ZM40.1551 53.9912L40.2535 53.914L40.2534 53.9139L40.1551 53.9912ZM41.1218 56.7684L41.1024 56.8918L41.1025 56.8919L41.1218 56.7684ZM44.9264 57.493L45.0148 57.4045L44.9264 57.493ZM48.8524 59.3633L48.9328 59.2676L48.9327 59.2675L48.8524 59.3633ZM48.0053 60.2091L47.9309 60.3096L47.9311 60.3097L48.0053 60.2091ZM48.0672 62.321L48.1087 62.4389L48.1088 62.4389L48.0672 62.321ZM49.8775 64.4337L49.9657 64.5223L49.9658 64.5222L49.8775 64.4337ZM49.4535 67.2702L49.3303 67.2493L49.3302 67.2499L49.4535 67.2702ZM43.5367 71.8567L43.6604 71.8745L43.6604 71.8744L43.5367 71.8567ZM45.5284 73.6076L45.5997 73.5049L45.5993 73.5047L45.5284 73.6076ZM43.9598 75.4196L44.0837 75.4362L44.0837 75.436L43.9598 75.4196ZM46.7969 78.3764L46.7378 78.4865L46.7378 78.4865L46.7969 78.3764ZM47.159 81.8773L47.2789 81.842L47.2789 81.842L47.159 81.8773ZM48.3664 82.9629L48.242 82.9515L48.242 82.9516L48.3664 82.9629ZM49.3942 85.0155L49.5188 85.0059L49.5188 85.0058L49.3942 85.0155ZM50.9645 86.7646L51.0831 86.8043L51.0832 86.804L50.9645 86.7646ZM51.9303 89.2384L52.0328 89.1667L52.0326 89.1665L51.9303 89.2384ZM54.2239 91.6537L54.1072 91.6985L54.1073 91.6986L54.2239 91.6537ZM56.5184 93.1622L56.5518 93.2827L56.5519 93.2826L56.5184 93.1622ZM58.5111 93.7647L58.4936 93.6409L58.4932 93.641L58.5111 93.7647ZM60.9286 94.7919L61.046 94.7492L61.046 94.7491L60.9286 94.7919ZM64.4898 96.1792L64.5104 96.0559L64.5103 96.0559L64.4898 96.1792ZM66.0017 94.6114L66.0614 94.7212L66.0617 94.7211L66.0017 94.6114ZM67.0277 91.4113L66.9919 91.2915L66.9918 91.2916L67.0277 91.4113ZM66.8463 88.2138L66.7997 88.3298L66.7998 88.3299L66.8463 88.2138ZM67.874 87.1875L67.8902 87.0636H67.8901L67.874 87.1875ZM69.4426 85.7994L69.4755 85.92L69.4755 85.9199L69.4426 85.7994ZM70.288 84.2298L70.2576 84.1086L70.2575 84.1086L70.288 84.2298ZM70.3491 82.7824L70.249 82.8574L70.2493 82.8577L70.3491 82.7824ZM70.7129 80.3069L70.7569 80.1899L70.7567 80.1898L70.7129 80.3069ZM71.0139 79.523L70.9431 79.626L70.9432 79.6261L71.0139 79.523ZM72.1611 78.9798L72.0611 79.0548L72.0611 79.0548L72.1611 78.9798ZM74.0935 77.773L74.1053 77.8974L74.1054 77.8974L74.0935 77.773ZM75.7843 76.0212L75.9055 75.9908L75.9055 75.9907L75.7843 76.0212ZM76.8103 75.9628L76.6985 75.9069L76.8103 75.9628ZM77.2334 77.0493L77.3217 77.1377L77.3218 77.1377L77.2334 77.0493ZM81.0389 76.2645L81.0037 76.1446L81.0037 76.1446L81.0389 76.2645ZM85.566 72.3415L85.4462 72.3059L85.4461 72.3061L85.566 72.3415ZM88.1039 69.8068L88.2243 69.7734L88.2243 69.7733L88.1039 69.8068ZM90.0346 69.0229L89.9805 69.1355L89.9806 69.1356L90.0346 69.0229ZM95.0484 67.8762L95.0529 68.0012L95.053 68.0012L95.0484 67.8762ZM102.355 65.8838L102.435 65.9799L102.435 65.9798L102.355 65.8838ZM108.151 62.866L108.217 62.9723L108.217 62.9722L108.151 62.866ZM108.938 61.8405L108.997 61.9506L108.997 61.9506L108.938 61.8405ZM105.313 62.0219L105.283 62.1432L105.283 62.1432L105.313 62.0219ZM100.784 61.4778L100.722 61.3689L100.722 61.369L100.784 61.4778ZM101.75 58.2193L101.629 58.2495L101.629 58.2496L101.75 58.2193ZM104.65 59.1846L104.752 59.1132L104.752 59.1131L104.65 59.1846ZM109.117 60.6939L109.153 60.8138L109.153 60.8138L109.117 60.6939ZM109.842 57.9786L109.943 58.0526L109.943 58.0525L109.842 57.9786ZM104.527 53.2709L104.408 53.308L104.408 53.3083L104.527 53.2709ZM107.548 53.6328L107.596 53.5177L107.596 53.5176L107.548 53.6328ZM104.588 51.4599L104.649 51.569L104.649 51.569L104.588 51.4599ZM104.469 48.4429L104.557 48.5315L104.557 48.5312L104.469 48.4429ZM108.997 49.7691L108.959 49.65L108.959 49.65L108.997 49.7691ZM112.439 48.9242L112.361 48.826L112.361 48.8261L112.439 48.9242ZM109.722 46.3894L109.817 46.3088L109.817 46.3087L109.722 46.3894ZM114.251 45.9665L114.257 45.8417L114.257 45.8417L114.251 45.9665ZM114.794 44.5784L114.75 44.4613L114.75 44.4613L114.794 44.5784ZM111.11 42.286L111.006 42.2165L111.006 42.2166L111.11 42.286ZM114.672 41.6817L114.614 41.5708L114.614 41.5709L114.672 41.6817ZM108.574 35.4646L108.657 35.5576L108.657 35.5575L108.574 35.4646ZM111.352 35.1019L111.278 35.0013L111.278 35.0015L111.352 35.1019ZM116.908 35.1019L116.885 34.9791L116.885 34.9791L116.908 35.1019ZM115.639 32.9299L115.576 32.8218L115.576 32.8219L115.639 32.9299ZM112.258 32.2053L112.134 32.2229L112.134 32.223L112.258 32.2053ZM115.036 31.6027L115.138 31.6745L115.138 31.6743L115.036 31.6027ZM110.929 30.6968L110.816 30.6429L110.816 30.643L110.929 30.6968ZM109.3 30.8171L109.233 30.7114L109.233 30.7114L109.3 30.8171ZM110.567 27.0154L110.443 27.0299L110.443 27.0301L110.567 27.0154ZM114.191 24.239L114.071 24.2734L114.071 24.2735L114.191 24.239ZM116.183 20.5576L116.166 20.4338L116.166 20.4338L116.183 20.5576ZM112.802 21.645L112.718 21.7373L112.718 21.7376L112.802 21.645ZM120.713 19.2296L120.649 19.1218L120.649 19.122L120.713 19.2296ZM117.936 17.661L117.938 17.786L117.938 17.786L117.936 17.661ZM122.405 16.7559L122.42 16.88L122.42 16.88L122.405 16.7559ZM125.06 15.6084L125.054 15.4835L125.054 15.4835L125.06 15.6084ZM47.3972 64.0693L47.5219 64.0773L47.5219 64.0769L47.3972 64.0693ZM41.7822 61.8371L41.9007 61.8768L41.9008 61.8765L41.7822 61.8371ZM41.4795 63.5862L41.5712 63.5013L41.571 63.5011L41.4795 63.5862ZM43.7138 64.9133L43.7991 64.822L43.799 64.8218L43.7138 64.9133ZM122.639 11.3765C121.519 11.3765 120.488 11.4668 119.718 11.7622C119.332 11.9105 119.005 12.1128 118.766 12.3872C118.526 12.6632 118.38 13.0059 118.349 13.4234L118.598 13.4423C118.626 13.0755 118.752 12.7845 118.954 12.5513C119.159 12.3165 119.447 12.1341 119.808 11.9956C120.532 11.7175 121.524 11.6265 122.639 11.6265V11.3765ZM118.349 13.4232C118.335 13.5998 118.284 13.713 118.216 13.7872C118.148 13.8614 118.051 13.9097 117.918 13.9333C117.645 13.9819 117.265 13.9192 116.825 13.8167C116.396 13.7169 115.912 13.5802 115.47 13.505C115.029 13.4299 114.593 13.4081 114.254 13.5604L114.357 13.7884C114.622 13.669 114.993 13.6774 115.428 13.7514C115.861 13.8251 116.321 13.9563 116.768 14.0602C117.203 14.1614 117.631 14.2383 117.962 14.1794C118.132 14.1492 118.285 14.0819 118.401 13.956C118.516 13.8299 118.581 13.6583 118.598 13.4425L118.349 13.4232ZM114.254 13.5604C113.97 13.6884 113.831 13.6613 113.75 13.6097C113.653 13.5485 113.592 13.4293 113.512 13.2651C113.441 13.1197 113.351 12.9267 113.18 12.8273C112.994 12.7192 112.755 12.7393 112.439 12.8972L112.55 13.1209C112.837 12.9776 112.976 12.9982 113.054 13.0435C113.147 13.0973 113.207 13.2102 113.287 13.3746C113.358 13.52 113.448 13.7141 113.616 13.8207C113.799 13.9371 114.037 13.9324 114.357 13.7884L114.254 13.5604ZM112.439 12.8973C111.821 13.2063 111.174 13.73 110.516 14.2389C109.851 14.7529 109.169 15.256 108.461 15.5505L108.557 15.7813C109.299 15.4724 110.006 14.9493 110.669 14.4367C111.338 13.9192 111.96 13.4161 112.55 13.1209L112.439 12.8973ZM108.461 15.5505C107.716 15.8602 107.068 16.4014 106.505 16.8665C106.221 17.1013 105.96 17.3157 105.714 17.4793C105.468 17.6436 105.249 17.7479 105.051 17.7742L105.084 18.0221C105.339 17.9882 105.596 17.8587 105.853 17.6874C106.111 17.5153 106.382 17.2921 106.664 17.0592C107.233 16.589 107.853 16.0742 108.557 15.7814L108.461 15.5505ZM105.051 17.7743C105.004 17.7806 104.992 17.7732 104.997 17.7758C105.013 17.7838 105.017 17.8001 105.017 17.7999C105.017 17.792 105.018 17.7678 105.036 17.7214C105.052 17.6771 105.079 17.622 105.117 17.5562C105.272 17.2906 105.58 16.9025 105.969 16.4574C106.743 15.5708 107.813 14.4871 108.537 13.7628L108.361 13.586C107.636 14.31 106.561 15.3992 105.78 16.2929C105.392 16.738 105.069 17.1419 104.901 17.4305C104.859 17.5032 104.824 17.5718 104.801 17.6342C104.779 17.6945 104.763 17.7599 104.768 17.8224C104.775 17.8925 104.81 17.96 104.882 17.9977C104.945 18.0301 105.018 18.031 105.084 18.022L105.051 17.7743ZM108.537 13.7628C109.285 13.0153 109.481 12.1771 109.197 11.5339C108.912 10.8893 108.171 10.4982 107.169 10.5922L107.192 10.8411C108.122 10.7538 108.74 11.1174 108.968 11.6349C109.198 12.1538 109.062 12.8852 108.361 13.586L108.537 13.7628ZM107.169 10.5922C106.672 10.6388 106.318 10.7522 106.05 10.9054C105.782 11.059 105.607 11.2483 105.466 11.4331C105.178 11.8089 105.044 12.1166 104.556 12.2253L104.61 12.4693C105.211 12.3356 105.409 11.9186 105.664 11.5851C105.795 11.4152 105.945 11.2536 106.174 11.1224C106.405 10.9908 106.722 10.8852 107.192 10.8411L107.169 10.5922ZM104.556 12.2252C104.271 12.2885 103.731 12.5013 103.092 12.7644C102.446 13.0301 101.69 13.3515 100.959 13.6415C100.227 13.9317 99.5282 14.1873 98.9989 14.3219C98.7329 14.3896 98.5193 14.4241 98.3695 14.4208C98.2944 14.4192 98.2452 14.4082 98.2157 14.3944C98.1899 14.3825 98.1841 14.3713 98.1813 14.3622L97.9424 14.4358C97.9697 14.5246 98.0327 14.5851 98.1102 14.6211C98.1838 14.6554 98.2719 14.6688 98.3641 14.6708C98.5487 14.6748 98.7889 14.6333 99.0605 14.5642C99.6067 14.4253 100.319 14.1643 101.051 13.8738C101.784 13.5831 102.545 13.2597 103.187 12.9956C103.835 12.7288 104.351 12.5268 104.61 12.4693L104.556 12.2252ZM98.1813 14.3622C98.171 14.3288 98.1777 14.268 98.2697 14.1652C98.3585 14.0659 98.5035 13.955 98.6951 13.8353C99.0769 13.5969 99.6113 13.3435 100.159 13.0941C100.704 12.8465 101.262 12.6027 101.678 12.3875C101.886 12.2801 102.065 12.1764 102.191 12.0796C102.254 12.0314 102.31 11.9808 102.349 11.9279C102.388 11.8764 102.423 11.8076 102.414 11.7284L102.165 11.7559C102.164 11.7447 102.17 11.75 102.149 11.7781C102.129 11.8048 102.094 11.8393 102.039 11.881C101.931 11.964 101.768 12.0596 101.563 12.1654C101.154 12.3768 100.606 12.616 100.056 12.8665C99.5093 13.1152 98.9604 13.3749 98.5627 13.6233C98.3646 13.7469 98.1959 13.8728 98.0834 13.9985C97.9742 14.1206 97.8922 14.2729 97.9423 14.4358L98.1813 14.3622ZM102.414 11.7282C102.404 11.6387 102.34 11.5789 102.284 11.5417C102.224 11.5023 102.146 11.4698 102.059 11.4419C101.882 11.3856 101.637 11.339 101.344 11.3005C100.757 11.2234 99.9573 11.1763 99.0836 11.1575C97.3366 11.1201 95.2762 11.1959 93.9995 11.3786L94.0349 11.6261C95.2926 11.4461 97.3379 11.3701 99.0782 11.4075C99.9482 11.4261 100.738 11.473 101.311 11.5484C101.599 11.5862 101.827 11.6306 101.983 11.6801C102.061 11.705 102.114 11.7292 102.145 11.7501C102.18 11.7733 102.168 11.7776 102.165 11.7561L102.414 11.7282ZM93.9995 11.3786C92.725 11.5608 90.9624 12.0161 89.5287 12.3313C88.8075 12.4899 88.1714 12.6127 87.7135 12.6515C87.4829 12.6711 87.3088 12.6683 87.1948 12.6435C87.138 12.6311 87.1063 12.6153 87.0905 12.6028C87.0784 12.5932 87.0766 12.5871 87.076 12.5793L86.8268 12.6C86.8337 12.6827 86.8739 12.7501 86.9352 12.7987C86.9926 12.8442 87.0656 12.8712 87.1416 12.8877C87.2935 12.9208 87.4982 12.9207 87.7346 12.9007C88.2108 12.8602 88.8617 12.7339 89.5823 12.5755C91.0322 12.2568 92.7725 11.8066 94.0349 11.6261L93.9995 11.3786ZM87.076 12.5792C87.0756 12.5743 87.0759 12.5578 87.1001 12.5258C87.1246 12.4933 87.1673 12.4539 87.2329 12.4089C87.364 12.319 87.5641 12.2224 87.8238 12.1222C88.3414 11.9224 89.069 11.7182 89.8864 11.5261C91.5199 11.1423 93.493 10.8111 94.8165 10.6613L94.7883 10.4129C93.4552 10.5638 91.4723 10.8967 89.8292 11.2828C89.0082 11.4757 88.2674 11.6829 87.7338 11.8889C87.4679 11.9916 87.2466 12.0964 87.0916 12.2027C87.0142 12.2557 86.9476 12.3129 86.9006 12.3752C86.8531 12.438 86.8196 12.5144 86.8269 12.6002L87.076 12.5792ZM94.8165 10.6613C96.1665 10.5079 98.041 10.5532 99.8534 10.5314C100.756 10.5205 101.642 10.4929 102.432 10.4146C103.219 10.3366 103.921 10.2073 104.451 9.9891L104.356 9.75792C103.86 9.96214 103.187 10.0885 102.407 10.1658C101.628 10.243 100.752 10.2706 99.8504 10.2814C98.0547 10.303 96.155 10.2576 94.7883 10.4129L94.8165 10.6613ZM104.451 9.98909C105.463 9.57222 106.732 9.34807 107.831 9.14363C108.377 9.04204 108.883 8.94492 109.286 8.83088C109.489 8.7738 109.669 8.71144 109.818 8.64034C109.966 8.56991 110.092 8.48665 110.177 8.38321L109.984 8.22476C109.932 8.28743 109.843 8.35136 109.711 8.41466C109.579 8.47728 109.414 8.53516 109.219 8.5903C108.828 8.70068 108.333 8.79583 107.785 8.89784C106.695 9.1006 105.397 9.329 104.356 9.75793L104.451 9.98909ZM110.177 8.38312C110.271 8.26832 110.295 8.1367 110.25 8.00573C110.209 7.88519 110.114 7.77752 109.997 7.68289C109.763 7.4922 109.39 7.31303 108.967 7.16074C108.12 6.85552 107.017 6.63964 106.271 6.6706L106.282 6.92039C106.985 6.89118 108.055 7.09776 108.883 7.39595C109.298 7.54535 109.638 7.71311 109.84 7.87688C109.941 7.95947 109.995 8.0309 110.014 8.08663C110.029 8.13194 110.025 8.17376 109.984 8.22485L110.177 8.38312ZM106.271 6.6706C105.55 6.70052 104.839 6.6697 104.328 6.54541C104.071 6.48297 103.877 6.39995 103.757 6.29993C103.643 6.20533 103.599 6.10022 103.62 5.97004L103.374 5.92935C103.335 6.16146 103.427 6.35076 103.597 6.49207C103.76 6.62797 103.997 6.72239 104.269 6.78835C104.814 6.92085 105.553 6.95064 106.282 6.92039L106.271 6.6706ZM103.62 5.97033C103.664 5.7071 103.475 5.51907 103.261 5.38745C103.04 5.25169 102.736 5.14026 102.436 5.03875C102.128 4.93514 101.823 4.84154 101.575 4.73907C101.452 4.68814 101.35 4.63737 101.272 4.58564C101.193 4.53271 101.152 4.48677 101.136 4.45049L100.908 4.55225C100.952 4.65155 101.038 4.72993 101.133 4.79355C101.23 4.85839 101.35 4.91643 101.48 4.97009C101.738 5.07681 102.059 5.17554 102.356 5.27563C102.659 5.37784 102.936 5.48151 103.13 5.6005C103.331 5.72363 103.39 5.82999 103.374 5.92906L103.62 5.97033ZM101.136 4.45056C101.106 4.38252 101.049 4.33542 100.991 4.30204C100.932 4.26793 100.859 4.24093 100.779 4.21867C100.62 4.17407 100.411 4.14284 100.172 4.11954C99.6928 4.07284 99.0688 4.05582 98.4291 4.03701C97.7866 4.01813 97.1267 3.99744 96.5673 3.94409C96.2878 3.91742 96.0362 3.88284 95.8263 3.83699C95.6141 3.79067 95.4544 3.73487 95.352 3.6708L95.2194 3.88274C95.3585 3.96974 95.5516 4.03291 95.7729 4.08124C95.9965 4.13005 96.259 4.16581 96.5436 4.19296C97.1126 4.24724 97.781 4.26808 98.4217 4.28691C99.0651 4.30582 99.679 4.32268 100.147 4.36836C100.382 4.39124 100.574 4.42082 100.712 4.45944C100.781 4.47878 100.832 4.49899 100.866 4.51866C100.901 4.53906 100.908 4.55232 100.908 4.55218L101.136 4.45056ZM95.3519 3.67069C95.0939 3.50989 94.7205 3.37414 94.276 3.26262C93.8295 3.15058 93.3028 3.061 92.7328 2.99631C91.5929 2.86694 90.2718 2.83624 89.0568 2.92752L89.0755 3.17682C90.2746 3.08674 91.58 3.11708 92.7046 3.24472C93.2669 3.30853 93.7821 3.39645 94.2152 3.5051C94.6503 3.61427 94.9943 3.74239 95.2196 3.88285L95.3519 3.67069ZM89.0568 2.92752C87.8536 3.01786 86.0159 3.04837 84.3313 3.07117C82.6531 3.09388 81.1193 3.10888 80.5383 3.16938L80.5642 3.41803C81.1305 3.35907 82.6463 3.34399 84.3347 3.32114C86.0168 3.29838 87.863 3.26786 89.0755 3.17682L89.0568 2.92752ZM80.5382 3.16939C79.9539 3.23072 79.4748 3.36985 79.0267 3.48199C78.5766 3.59461 78.1538 3.68134 77.6605 3.65199L77.6456 3.90155C78.1783 3.93324 78.6314 3.8386 79.0873 3.72451C79.5452 3.60994 80.0022 3.47702 80.5643 3.41802L80.5382 3.16939ZM77.6603 3.65198C77.134 3.62157 76.4668 3.69831 76.0016 3.87163C75.7736 3.95661 75.5675 4.07432 75.4662 4.2378C75.4126 4.32423 75.3885 4.42343 75.4073 4.5301C75.4255 4.63387 75.4822 4.73291 75.568 4.82709L75.7528 4.65871C75.6875 4.587 75.661 4.52958 75.6535 4.48678C75.6465 4.44689 75.6539 4.40942 75.6787 4.36953C75.7339 4.28039 75.8715 4.18692 76.0889 4.1059C76.5147 3.94723 77.1461 3.87268 77.6458 3.90156L77.6603 3.65198ZM75.568 4.82702C75.8206 5.10474 75.8257 5.30609 75.7575 5.44448C75.681 5.59988 75.4881 5.7304 75.2413 5.80572C74.9973 5.88016 74.7337 5.89004 74.5503 5.83595C74.4591 5.80907 74.3986 5.76975 74.3651 5.72651C74.3348 5.68737 74.3175 5.63385 74.3339 5.55224L74.0888 5.50309C74.0597 5.64775 74.0879 5.77697 74.1675 5.87967C74.2439 5.97827 74.358 6.03991 74.4796 6.07575C74.7216 6.14712 75.0366 6.12953 75.3142 6.04484C75.589 5.96102 75.8607 5.80075 75.9818 5.55493C76.1112 5.29211 76.0468 4.98184 75.7529 4.65878L75.568 4.82702ZM74.3339 5.55224C74.3934 5.25554 74.2225 5.01585 73.979 4.84604C73.7348 4.67571 73.3914 4.55395 73.027 4.48411C72.6609 4.41396 72.2631 4.39413 71.9039 4.43528C71.548 4.47603 71.2135 4.57855 70.9898 4.76781L71.1513 4.95865C71.3202 4.8157 71.5973 4.72202 71.9323 4.68365C72.2639 4.64567 72.6362 4.66377 72.9799 4.72964C73.3252 4.79583 73.6311 4.90819 73.836 5.05111C74.0417 5.19455 74.12 5.34724 74.0888 5.50309L74.3339 5.55224ZM70.9898 4.76782C70.9027 4.84151 70.7671 4.89484 70.58 4.92497C70.3943 4.95486 70.1697 4.96012 69.9163 4.94745C69.4088 4.9221 68.806 4.82627 68.2033 4.72967C67.6048 4.63377 67.0052 4.53688 66.5174 4.5141C66.2735 4.5027 66.0503 4.50938 65.8653 4.54668C65.6825 4.58356 65.518 4.65419 65.4158 4.78703L65.614 4.93944C65.6626 4.8763 65.7568 4.82361 65.9148 4.79175C66.0706 4.76031 66.2704 4.75283 66.5057 4.76383C66.9764 4.78581 67.5604 4.87983 68.1637 4.97652C68.7627 5.07252 69.3799 5.17097 69.9038 5.19714C70.1659 5.21024 70.4099 5.20558 70.6197 5.17179C70.828 5.13826 71.0148 5.07417 71.1513 4.95865L70.9898 4.76782ZM65.4159 4.78701C65.3627 4.85604 65.2503 4.92804 65.0655 4.99479C64.8846 5.06011 64.6517 5.11448 64.3783 5.15963C63.832 5.24987 63.1417 5.30055 62.4216 5.33446C61.7014 5.36839 60.9593 5.38524 60.3047 5.40892C59.6548 5.43243 59.0874 5.46273 58.7304 5.52485L58.7733 5.77115C59.1103 5.71249 59.6599 5.68241 60.3138 5.65876C60.9631 5.63527 61.7118 5.61817 62.4334 5.58419C63.1552 5.55019 63.8576 5.49902 64.4191 5.40629C64.6996 5.35995 64.9493 5.30256 65.1504 5.22993C65.3475 5.15873 65.5162 5.06661 65.614 4.93945L65.4159 4.78701ZM58.7304 5.52484C58.6388 5.54078 58.5613 5.56094 58.4993 5.58679C58.4391 5.61185 58.3806 5.64754 58.343 5.70251C58.3006 5.76467 58.2963 5.8348 58.3174 5.89819C58.3364 5.95502 58.3747 6.00411 58.4146 6.04484C58.4952 6.12696 58.6193 6.21112 58.7594 6.29434C58.9018 6.3789 59.0703 6.46804 59.246 6.55868C59.6011 6.74175 59.9846 6.93057 60.2742 7.11184C60.4192 7.20263 60.5327 7.28675 60.6051 7.36193C60.6828 7.4426 60.6852 7.4834 60.683 7.49463L60.9281 7.54382C60.9562 7.40397 60.8738 7.28054 60.7852 7.18853C60.6913 7.09103 60.5571 6.99401 60.4068 6.89993C60.1057 6.71143 59.7078 6.5155 59.3606 6.33648C59.1853 6.24608 59.0225 6.15985 58.8871 6.07941C58.7495 5.99763 58.6494 5.92717 58.5931 5.86976C58.5646 5.84071 58.5562 5.8238 58.5546 5.81899C58.5542 5.81787 58.5556 5.82145 58.5548 5.82817C58.554 5.83536 58.5513 5.8408 58.5495 5.84342C58.5477 5.84605 58.5551 5.83435 58.5954 5.81756C58.6338 5.80156 58.6913 5.7854 58.7733 5.77115L58.7304 5.52484ZM60.683 7.49476C60.6829 7.49489 60.6829 7.49519 60.6826 7.49581C60.6823 7.49645 60.6817 7.49775 60.6803 7.4997C60.6774 7.50372 60.6715 7.51037 60.6601 7.51889C60.6364 7.53664 60.5973 7.55645 60.5387 7.57598C60.4214 7.61499 60.2537 7.64408 60.0477 7.66649C59.6354 7.71133 59.1099 7.72595 58.6015 7.75653C58.1034 7.78649 57.6144 7.83198 57.3064 7.94509C57.1566 8.00011 57.0113 8.08446 56.9567 8.22709C56.898 8.3804 56.9644 8.53862 57.0873 8.68581L57.2792 8.52556C57.1752 8.40113 57.181 8.34054 57.1901 8.31653C57.2034 8.28185 57.2548 8.23038 57.3926 8.17976C57.6599 8.08158 58.1106 8.0365 58.6165 8.00608C59.112 7.97627 59.6547 7.9607 60.0747 7.91502C60.2848 7.89217 60.4742 7.86091 60.6176 7.81319C60.6892 7.78935 60.7563 7.75919 60.81 7.71895C60.8645 7.67815 60.9127 7.62094 60.9281 7.54368L60.683 7.49476ZM57.0872 8.68572C57.3277 8.97431 57.6939 9.23582 58.1178 9.48567C58.5431 9.73633 59.0381 9.98171 59.5423 10.2337C60.5585 10.7416 61.6098 11.2761 62.2866 11.9534L62.4635 11.7767C61.7523 11.065 60.6604 10.513 59.6541 10.0101C59.1471 9.7567 58.661 9.51559 58.2448 9.27029C57.8272 9.02418 57.4915 8.78028 57.2792 8.52565L57.0872 8.68572ZM62.2867 11.9535C62.4576 12.1241 62.5618 12.2535 62.6159 12.347C62.6757 12.4504 62.6511 12.4681 62.6602 12.4533C62.6644 12.4464 62.6667 12.4499 62.6501 12.4556C62.6327 12.4616 62.6033 12.4667 62.5587 12.4668C62.4694 12.4669 62.344 12.4472 62.1878 12.4067C61.5629 12.2449 60.564 11.7839 59.7869 11.2756L59.6501 11.4849C60.4434 12.0038 61.4672 12.4784 62.1252 12.6488C62.2897 12.6914 62.4388 12.717 62.5591 12.7168C62.6193 12.7167 62.6786 12.7102 62.7312 12.6921C62.7846 12.6738 62.8384 12.6408 62.8733 12.5841C62.9436 12.4694 62.8969 12.3336 62.8323 12.2219C62.762 12.1002 62.6397 11.9526 62.4634 11.7766L62.2867 11.9535ZM59.7869 11.2756C58.9785 10.7474 58.0626 10.5781 57.2527 10.4133C56.4289 10.2456 55.7321 10.0844 55.2816 9.60561L55.0996 9.77693C55.6139 10.3236 56.3964 10.4941 57.2029 10.6583C58.0234 10.8252 58.889 10.9876 59.6501 11.4849L59.7869 11.2756ZM55.2815 9.60553C55.0219 9.33012 54.5952 9.08057 54.1 8.86997C53.6019 8.65809 53.0225 8.48063 52.4463 8.35484C51.8704 8.2291 51.2937 8.15411 50.801 8.14917C50.3161 8.1443 49.8861 8.20665 49.626 8.37949L49.7643 8.58772C49.957 8.45974 50.3194 8.39435 50.7985 8.39915C51.27 8.40388 51.8292 8.47599 52.393 8.59908C52.9565 8.72213 53.5207 8.89524 54.0022 9.10003C54.4866 9.30608 54.8755 9.53928 55.0996 9.77702L55.2815 9.60553ZM49.6257 8.37966C49.4702 8.48357 49.376 8.61463 49.3671 8.77308C49.3586 8.92372 49.4296 9.06753 49.5275 9.19616C49.723 9.45297 50.083 9.72215 50.4572 9.981C50.8398 10.2457 51.2424 10.503 51.555 10.7468C51.7106 10.8681 51.8372 10.9812 51.924 11.0843C52.0134 11.1906 52.0452 11.2686 52.0452 11.3218H52.2952C52.2952 11.1786 52.216 11.0432 52.1153 10.9234C52.0119 10.8005 51.8694 10.6749 51.7087 10.5496C51.3888 10.3001 50.9704 10.032 50.5994 9.7754C50.22 9.51292 49.894 9.26486 49.7264 9.04475C49.6428 8.9349 49.6131 8.85032 49.6167 8.78717C49.6198 8.73183 49.6506 8.66371 49.7646 8.58755L49.6257 8.37966ZM52.0452 11.3218C52.0452 11.3818 52.025 11.4142 51.9916 11.4387C51.9509 11.4686 51.8807 11.4929 51.7733 11.5041C51.559 11.5265 51.2593 11.4918 50.9299 11.4388C50.609 11.3871 50.2581 11.3178 49.97 11.2818C49.8247 11.2636 49.6879 11.2529 49.5714 11.2573C49.4599 11.2616 49.3444 11.2803 49.2603 11.3406L49.4059 11.5438C49.4274 11.5284 49.4797 11.511 49.581 11.5071C49.6774 11.5034 49.7986 11.5123 49.939 11.5299C50.2225 11.5653 50.5545 11.6316 50.8902 11.6856C51.2172 11.7382 51.5477 11.779 51.7993 11.7527C51.9249 11.7396 52.0467 11.7084 52.1397 11.6401C52.24 11.5664 52.2952 11.4577 52.2952 11.3218H52.0452ZM49.2604 11.3405C49.2603 11.3406 49.2592 11.3413 49.2561 11.3422C49.2527 11.3431 49.2465 11.3442 49.2366 11.344C49.2158 11.3437 49.1848 11.3381 49.1418 11.3229C49.0553 11.2925 48.9432 11.2317 48.8072 11.144C48.5357 10.969 48.2 10.7075 47.8306 10.4295C47.4645 10.1539 47.0686 9.86483 46.6868 9.64457C46.3089 9.42654 45.9261 9.26457 45.5895 9.26457V9.51457C45.8566 9.51457 46.1907 9.647 46.5619 9.86111C46.9291 10.073 47.3143 10.3538 47.6802 10.6292C48.0429 10.9022 48.3902 11.1727 48.6717 11.3542C48.8122 11.4447 48.944 11.5183 49.0588 11.5587C49.1659 11.5965 49.2995 11.6199 49.4058 11.5438L49.2604 11.3405ZM45.5895 9.26457C45.2787 9.26457 45.0532 9.33292 44.9436 9.51961C44.8912 9.60884 44.8747 9.71107 44.8761 9.8145C44.8774 9.91776 44.8966 10.031 44.9238 10.1493C45.0349 10.6333 45.283 11.249 45.283 11.9845H45.533C45.533 11.2116 45.2677 10.5298 45.1675 10.0934C45.1418 9.98161 45.1271 9.88837 45.1261 9.81127C45.1251 9.73435 45.1379 9.68239 45.1592 9.6462C45.1968 9.58203 45.2961 9.51457 45.5895 9.51457V9.26457ZM45.283 11.9845C45.283 12.6743 44.7397 13.2445 44.252 13.5211C44.1323 13.5889 44.0205 13.6363 43.9269 13.6624C43.8293 13.6897 43.7661 13.6898 43.7353 13.6811C43.7223 13.6774 43.7219 13.6741 43.7244 13.6773C43.7274 13.681 43.7244 13.6811 43.7243 13.6684C43.7239 13.6357 43.7428 13.5634 43.8222 13.4405L43.6123 13.3048C43.5257 13.4388 43.473 13.5629 43.4743 13.6714C43.475 13.7292 43.4912 13.7861 43.5291 13.8334C43.5665 13.8802 43.6167 13.9074 43.6674 13.9217C43.764 13.9489 43.8805 13.9349 43.9941 13.9032C44.1115 13.8705 44.2422 13.814 44.3753 13.7385C44.899 13.4416 45.533 12.8041 45.533 11.9845H45.283ZM43.8222 13.4406C44.0037 13.1599 44.1011 12.7784 44.1302 12.3661C44.1594 11.9519 44.1204 11.4963 44.0199 11.059C43.9194 10.6221 43.7563 10.1987 43.5337 9.8511C43.3116 9.50422 43.025 9.22478 42.6747 9.09139L42.5857 9.32502C42.8697 9.43316 43.1189 9.66688 43.3232 9.9859C43.527 10.3042 43.6807 10.6995 43.7762 11.1151C43.8718 11.5304 43.9081 11.9612 43.8808 12.3485C43.8534 12.7378 43.7623 13.0728 43.6123 13.3048L43.8222 13.4406ZM42.6747 9.09137C42.3263 8.95885 41.8576 8.96739 41.3437 9.0407C40.8255 9.11462 40.2401 9.25795 39.6475 9.41272C39.0523 9.56818 38.4507 9.73499 37.8903 9.85967C37.329 9.98457 36.8212 10.0643 36.4152 10.0494L36.4061 10.2993C36.8455 10.3153 37.3793 10.2295 37.9446 10.1037C38.5109 9.9777 39.1208 9.80869 39.7107 9.65461C40.3032 9.49983 40.8764 9.35989 41.379 9.28819C41.8859 9.21588 42.3003 9.21646 42.5858 9.32504L42.6747 9.09137ZM36.415 10.0494C35.5601 10.0194 34.56 10.1404 33.9494 10.3827C33.7959 10.4437 33.6608 10.5147 33.5577 10.5973C33.4553 10.6793 33.3738 10.7815 33.35 10.9063C33.3255 11.0352 33.3675 11.1611 33.4572 11.2766C33.5452 11.39 33.6839 11.5006 33.8717 11.6103L33.9977 11.3944C33.8235 11.2926 33.7151 11.2012 33.6547 11.1234C33.5959 11.0476 33.588 10.9929 33.5956 10.9531C33.604 10.9091 33.6367 10.8543 33.714 10.7924C33.7906 10.731 33.9009 10.671 34.0417 10.6151C34.6084 10.3901 35.5705 10.2699 36.4063 10.2993L36.415 10.0494ZM33.8718 11.6103C34.0475 11.7127 34.1736 11.8068 34.2592 11.8899C34.3458 11.974 34.3844 12.0404 34.3975 12.0862C34.4089 12.1265 34.4014 12.151 34.3864 12.1711C34.3676 12.1964 34.3269 12.2268 34.2526 12.2505C34.104 12.2978 33.8661 12.3032 33.5817 12.2373C33.3001 12.1721 32.983 12.0392 32.6795 11.8226L32.5343 12.0261C32.865 12.2621 33.2123 12.4083 33.5253 12.4808C33.8355 12.5527 34.1223 12.5544 34.3285 12.4887C34.4315 12.4559 34.5258 12.4025 34.5868 12.3205C34.6517 12.2335 34.6691 12.1274 34.6379 12.0178C34.6083 11.9137 34.5368 11.8109 34.4333 11.7105C34.3287 11.609 34.1846 11.5032 33.9976 11.3943L33.8718 11.6103ZM32.6795 11.8227C32.3332 11.5752 31.8058 11.4602 31.2436 11.4268C30.6766 11.3931 30.0535 11.4412 29.4987 11.5369C28.9464 11.6321 28.45 11.7764 28.1411 11.9412C27.9923 12.0207 27.8597 12.1188 27.8059 12.2411C27.7762 12.3087 27.7708 12.3837 27.7999 12.4575C27.8274 12.5272 27.8809 12.5836 27.9453 12.6295L28.0905 12.426C28.0492 12.3965 28.0361 12.375 28.0324 12.3657C28.0303 12.3604 28.029 12.3549 28.0348 12.3417C28.052 12.3025 28.1161 12.238 28.2589 12.1618C28.5331 12.0154 28.9991 11.8767 29.5412 11.7832C30.0809 11.6902 30.6844 11.644 31.2287 11.6764C31.7779 11.709 32.2467 11.8206 32.5342 12.0261L32.6795 11.8227ZM27.9452 12.6294C28.3313 12.9054 28.6076 13.458 28.7177 14.045C28.8283 14.6346 28.7624 15.2101 28.5216 15.5307L28.7215 15.6808C29.0243 15.2777 29.0792 14.6163 28.9634 13.9989C28.8471 13.3789 28.5498 12.7543 28.0906 12.4261L27.9452 12.6294ZM28.5216 15.5307C28.4251 15.6593 28.2705 15.7055 28.0231 15.6757C27.7736 15.6455 27.4663 15.5416 27.1088 15.4124C26.4083 15.1591 25.5343 14.8143 24.6865 14.8768L24.7049 15.1262C25.4876 15.0684 26.3048 15.3875 27.0238 15.6475C27.376 15.7748 27.7104 15.8897 27.9932 15.9239C28.2782 15.9583 28.5464 15.9141 28.7215 15.6808L28.5216 15.5307ZM24.6863 14.8769C24.4672 14.8933 24.1508 14.9709 23.7732 15.0906C23.3929 15.2111 22.9419 15.3772 22.45 15.5755C21.4659 15.9722 20.3134 16.5 19.2272 17.0561C18.1419 17.6117 17.1187 18.1977 16.3955 18.7112C16.0349 18.9673 15.7426 19.2096 15.5547 19.425C15.4609 19.5324 15.3878 19.6391 15.3473 19.7428C15.3063 19.8477 15.2949 19.9607 15.3444 20.0658L15.5706 19.9595C15.5597 19.9361 15.5549 19.8985 15.5801 19.8338C15.6059 19.7679 15.6586 19.6861 15.743 19.5894C15.9115 19.3963 16.1848 19.1674 16.5402 18.915C17.2492 18.4117 18.2603 17.832 19.3412 17.2786C20.4213 16.7256 21.567 16.201 22.5434 15.8074C23.0317 15.6105 23.4765 15.4469 23.8488 15.3289C24.2237 15.21 24.5167 15.1403 24.705 15.1262L24.6863 14.8769ZM15.3444 20.0658C15.4929 20.3821 15.8563 20.5306 16.2685 20.6058C16.689 20.6826 17.2095 20.6916 17.7374 20.6876C18.2704 20.6837 18.8111 20.6666 19.2901 20.6878C19.7732 20.7093 20.1654 20.7693 20.4091 20.9042L20.5301 20.6854C20.2303 20.5195 19.7844 20.4595 19.3011 20.4381C18.8136 20.4165 18.2595 20.4338 17.7356 20.4376C17.2066 20.4416 16.7079 20.4319 16.3134 20.3599C15.9105 20.2864 15.6629 20.1559 15.5706 19.9595L15.3444 20.0658ZM20.4089 20.9041C20.632 21.0281 20.7291 21.2325 20.7258 21.5057C20.7223 21.786 20.6112 22.1297 20.4192 22.4952C20.0357 23.2248 19.3548 23.9939 18.7084 24.4349L18.8493 24.6414C19.5307 24.1764 20.2387 23.3759 20.6405 22.6115C20.841 22.2299 20.9716 21.8454 20.9757 21.5088C20.98 21.1649 20.8507 20.8636 20.5303 20.6855L20.4089 20.9041ZM18.7084 24.4348C18.4052 24.6416 17.8762 24.7572 17.2227 24.8223C16.5754 24.8868 15.8338 24.8999 15.1219 24.9187C14.4145 24.9374 13.7331 24.9617 13.2204 25.0511C12.9647 25.0957 12.7401 25.1582 12.5725 25.2507C12.4034 25.344 12.2748 25.4788 12.2536 25.6701L12.5021 25.6977C12.5109 25.6175 12.5634 25.5413 12.6933 25.4696C12.8248 25.397 13.0172 25.3403 13.2634 25.2974C13.7546 25.2118 14.4168 25.1874 15.1285 25.1686C15.8357 25.1499 16.5888 25.1367 17.2475 25.0711C17.8999 25.0061 18.4881 24.8877 18.8493 24.6414L18.7084 24.4348ZM12.2536 25.6701C12.2503 25.7001 12.233 25.7393 12.1831 25.7881C12.1329 25.8372 12.0566 25.8889 11.952 25.942C11.7426 26.0482 11.4434 26.1486 11.0775 26.2466C10.3462 26.4424 9.38314 26.6203 8.41236 26.8213C7.44688 27.0213 6.47475 27.2439 5.74284 27.5284C5.37729 27.6705 5.06281 27.8314 4.83773 28.0186C4.61205 28.2064 4.46289 28.4327 4.46289 28.7026H4.71289C4.71289 28.5348 4.80341 28.3724 4.99762 28.2108C5.19244 28.0487 5.47808 27.8996 5.83343 27.7614C6.54332 27.4854 7.49611 27.2664 8.46305 27.0662C9.42471 26.867 10.4016 26.6864 11.1422 26.4881C11.5123 26.3889 11.8319 26.2833 12.0651 26.1649C12.1817 26.1057 12.2825 26.0405 12.3579 25.9668C12.4336 25.8928 12.4903 25.8034 12.5021 25.6977L12.2536 25.6701ZM4.46289 28.7026C4.46289 29.4132 4.85525 30.1364 5.76911 30.3324L5.82155 30.088C5.04465 29.9213 4.71289 29.3191 4.71289 28.7026H4.46289ZM5.76893 30.3324C6.05062 30.3933 6.34581 30.4155 6.63861 30.4323C6.93428 30.4492 7.22613 30.4606 7.51491 30.4982C8.08741 30.5727 8.6284 30.7478 9.08436 31.2603L9.27113 31.0941C8.76044 30.5201 8.15288 30.3291 7.54716 30.2503C7.24683 30.2112 6.94216 30.1993 6.65292 30.1827C6.36081 30.1659 6.0827 30.1444 5.82174 30.088L5.76893 30.3324ZM9.08432 31.2603C9.60101 31.8415 10.5644 32.1315 11.6082 32.1926C12.6588 32.2541 13.824 32.0859 14.7776 31.7167L14.6874 31.4836C13.7696 31.8389 12.6404 32.0026 11.6228 31.943C10.5986 31.8831 9.72026 31.5994 9.27117 31.0942L9.08432 31.2603ZM14.7776 31.7167C15.6897 31.3637 16.4696 31.3984 17.0065 31.6384C17.5429 31.8781 17.8348 32.3183 17.8078 32.799L18.0574 32.8131C18.0914 32.2082 17.7194 31.6831 17.1085 31.4101C16.4982 31.1374 15.6475 31.112 14.6874 31.4835L14.7776 31.7167ZM17.8078 32.7991C17.8031 32.884 17.7631 32.9435 17.673 32.991C17.5748 33.0427 17.4238 33.0747 17.22 33.0862C16.8144 33.109 16.2602 33.0486 15.6533 32.9765C15.052 32.9052 14.4037 32.8231 13.8267 32.809C13.256 32.795 12.7241 32.8456 12.373 33.0634L12.5048 33.2759C12.7875 33.1005 13.2517 33.0449 13.8205 33.0589C14.383 33.0727 15.0176 33.1528 15.6238 33.2248C16.2243 33.2961 16.8021 33.3601 17.2341 33.3358C17.4492 33.3236 17.6434 33.2891 17.7895 33.2122C17.9437 33.131 18.047 32.9999 18.0574 32.813L17.8078 32.7991ZM12.3732 33.0633C12.0815 33.2436 11.6227 33.3471 11.081 33.408C10.5433 33.4685 9.945 33.4853 9.38445 33.5041C8.82893 33.5228 8.30478 33.5436 7.9309 33.6147C7.7457 33.6499 7.58069 33.7002 7.4658 33.7801C7.40669 33.8212 7.35552 33.8738 7.32467 33.9413C7.29313 34.0104 7.28738 34.0851 7.30369 34.1611L7.54812 34.1087C7.54175 34.079 7.54541 34.0598 7.55205 34.0452C7.5594 34.0292 7.5752 34.0086 7.60855 33.9854C7.67859 33.9366 7.80043 33.894 7.97759 33.8603C8.32843 33.7936 8.83102 33.7729 9.39286 33.754C9.94967 33.7353 10.5593 33.7183 11.1089 33.6564C11.6544 33.5951 12.162 33.4877 12.5046 33.276L12.3732 33.0633ZM7.30369 34.1612C7.36048 34.4256 7.55433 34.5978 7.805 34.7133C8.05364 34.8278 8.37644 34.8957 8.72994 34.9449C9.08456 34.9944 9.48358 35.0267 9.88569 35.065C10.29 35.1034 10.7003 35.148 11.0867 35.2221L11.1337 34.9765C10.7349 34.9001 10.3147 34.8546 9.90936 34.8161C9.50181 34.7773 9.11193 34.7458 8.76446 34.6973C8.41587 34.6487 8.12339 34.5847 7.9096 34.4862C7.69782 34.3887 7.58207 34.2667 7.54812 34.1087L7.30369 34.1612ZM11.0865 35.222C11.2777 35.2589 11.4169 35.3002 11.5157 35.3435C11.6153 35.3871 11.6652 35.429 11.6892 35.4619C11.7248 35.5107 11.7269 35.578 11.6445 35.714C11.6053 35.7787 11.5533 35.8481 11.4934 35.9242C11.4352 35.9982 11.368 36.0804 11.307 36.1621C11.1868 36.3229 11.0644 36.5136 11.0459 36.7177L11.2949 36.7403C11.3065 36.6126 11.3878 36.4715 11.5072 36.3118C11.5659 36.2332 11.6276 36.158 11.6899 36.0788C11.7505 36.0017 11.8107 35.9222 11.8583 35.8435C11.9496 35.6929 12.0234 35.496 11.8912 35.3146C11.8312 35.2324 11.7373 35.1676 11.616 35.1145C11.4939 35.061 11.335 35.0153 11.1338 34.9766L11.0865 35.222ZM11.0459 36.7177C11.0277 36.9181 11.0842 37.0744 11.2161 37.1976C11.3376 37.3111 11.5165 37.3897 11.7237 37.4649C12.1489 37.6193 12.7528 37.7798 13.5294 38.1679L13.6411 37.9443C12.8474 37.5476 12.2137 37.3768 11.809 37.2299C11.6013 37.1545 11.4671 37.09 11.3868 37.015C11.317 36.9497 11.2829 36.8721 11.2949 36.7403L11.0459 36.7177ZM13.5293 38.1679C14.3259 38.5666 15.3805 38.8877 16.1339 38.9952C16.3228 39.0222 16.4958 39.0362 16.643 39.034C16.7869 39.0317 16.9192 39.0139 17.018 38.9677C17.0688 38.9439 17.1175 38.9095 17.1518 38.8592C17.1875 38.8068 17.2014 38.7462 17.1954 38.6835C17.1845 38.5682 17.1074 38.4507 16.998 38.3335L16.8153 38.5042C16.9172 38.6133 16.9438 38.6787 16.9465 38.7071C16.9474 38.7164 16.9456 38.7179 16.9452 38.7184C16.9435 38.7209 16.9358 38.7301 16.912 38.7413C16.8617 38.7648 16.7722 38.7819 16.6391 38.784C16.5093 38.786 16.3502 38.7736 16.1692 38.7478C15.4429 38.6441 14.4141 38.3312 13.6412 37.9443L13.5293 38.1679ZM16.998 38.3336C16.8998 38.2282 16.8655 38.1536 16.8587 38.1075C16.8533 38.0716 16.8627 38.0446 16.8952 38.0154C16.9334 37.9811 17.0017 37.9475 17.1038 37.9221C17.2039 37.8973 17.326 37.8829 17.4614 37.8793C17.7324 37.872 18.0432 37.9083 18.3102 37.9789C18.4435 38.0142 18.563 38.0573 18.6598 38.106C18.7581 38.1554 18.8248 38.2066 18.8616 38.254L19.059 38.1006C18.9901 38.012 18.8868 37.9404 18.7721 37.8826C18.6558 37.8242 18.5191 37.7756 18.3741 37.7373C18.0844 37.6606 17.7498 37.6214 17.4547 37.6293C17.3071 37.6333 17.166 37.6491 17.0436 37.6795C16.9233 37.7094 16.8099 37.756 16.7282 37.8294C16.6408 37.9078 16.5921 38.0158 16.6114 38.1445C16.6291 38.2632 16.7023 38.383 16.8152 38.5041L16.998 38.3336ZM18.8617 38.2541C18.9324 38.3448 19.0219 38.3997 19.1247 38.4223C19.2239 38.4441 19.3283 38.4344 19.4306 38.4104C19.6315 38.3634 19.8649 38.2503 20.1006 38.14C20.5908 37.9105 21.123 37.6784 21.6461 37.816L21.7097 37.5742C21.0856 37.4101 20.4705 37.6908 19.9946 37.9136C19.7472 38.0294 19.5427 38.1274 19.3736 38.167C19.291 38.1864 19.2274 38.1889 19.1783 38.1781C19.1329 38.1681 19.094 38.1456 19.0589 38.1005L18.8617 38.2541ZM21.6461 37.816C22.2799 37.9827 22.7178 37.6756 23.0742 37.4456C23.2581 37.3269 23.4133 37.2327 23.5727 37.1979C23.7218 37.1652 23.8835 37.1832 24.0836 37.3169L24.2224 37.109C23.9702 36.9405 23.7397 36.9054 23.5192 36.9537C23.3089 36.9997 23.117 37.1204 22.9386 37.2355C22.5705 37.4731 22.2232 37.7093 21.7097 37.5742L21.6461 37.816ZM24.0837 37.317C24.2109 37.4016 24.3885 37.4775 24.597 37.5478C24.8072 37.6187 25.0565 37.6864 25.3315 37.7524C25.8812 37.8842 26.5431 38.011 27.2175 38.1426C27.8934 38.2746 28.5828 38.4115 29.1933 38.5643C29.8061 38.7177 30.3286 38.8844 30.6759 39.0728L30.7951 38.8531C30.4182 38.6486 29.8693 38.4758 29.2539 38.3218C28.6362 38.1672 27.9406 38.029 27.2654 37.8972C26.5885 37.7651 25.933 37.6395 25.3898 37.5093C25.1183 37.4442 24.8771 37.3785 24.6769 37.3109C24.475 37.2428 24.322 37.1753 24.2223 37.1089L24.0837 37.317ZM30.676 39.0729C31.0464 39.2734 31.4496 39.4343 31.8385 39.5799C32.2304 39.7267 32.6036 39.8565 32.928 39.9981C33.2531 40.14 33.5117 40.2867 33.678 40.4587C33.8383 40.6245 33.9123 40.8123 33.874 41.0554L34.121 41.0943C34.173 40.7645 34.0657 40.5 33.8578 40.285C33.656 40.0762 33.3596 39.9137 33.028 39.769C32.6955 39.6238 32.3099 39.4895 31.9261 39.3458C31.5392 39.2009 31.1495 39.0449 30.795 38.853L30.676 39.0729ZM33.8741 41.0553C33.7733 41.692 34.1135 42.2297 34.6556 42.6866C35.1978 43.1437 35.9661 43.5417 36.7831 43.9044L36.8845 43.6759C36.0709 43.3148 35.3303 42.9284 34.8167 42.4955C34.3029 42.0623 34.0403 41.6042 34.121 41.0944L33.8741 41.0553ZM36.783 43.9043C38.3445 44.5982 38.6409 46.1014 38.5812 47.1031L38.8308 47.118C38.8933 46.0688 38.5842 44.4312 36.8845 43.6759L36.783 43.9043ZM38.5812 47.1032C38.5639 47.3991 38.6822 47.6648 38.8477 47.8971C39.0129 48.1288 39.2332 48.3384 39.4372 48.5235C39.6466 48.7135 39.8324 48.8724 39.9515 49.0155C40.0105 49.0865 40.044 49.1432 40.0574 49.1877C40.0691 49.2267 40.065 49.2528 40.0491 49.2783L40.2612 49.4106C40.3207 49.3152 40.326 49.2129 40.2967 49.1156C40.2691 49.0239 40.2111 48.9366 40.1437 48.8557C40.0099 48.6949 39.8033 48.5181 39.6052 48.3383C39.4017 48.1537 39.1994 47.9597 39.0513 47.7519C38.9036 47.5447 38.8181 47.3352 38.8308 47.1179L38.5812 47.1032ZM40.0492 49.2782C39.8715 49.5619 39.8618 49.894 40.034 50.2709C40.2033 50.6413 40.5506 51.0625 41.0989 51.5498L41.265 51.3629C40.7263 50.8841 40.4093 50.4905 40.2614 50.167C40.1165 49.85 40.1369 49.6092 40.2611 49.4108L40.0492 49.2782ZM41.0989 51.5498C41.2224 51.6597 41.2801 51.7564 41.3014 51.8392C41.3223 51.9202 41.3119 52.0018 41.2723 52.0901C41.1885 52.2771 40.9874 52.4672 40.7456 52.6743C40.5155 52.8714 40.2487 53.0836 40.0879 53.2999C40.006 53.4102 39.9422 53.5329 39.9288 53.6668C39.9149 53.8054 39.9565 53.9407 40.0568 54.0684L40.2534 53.9139C40.1878 53.8304 40.1709 53.7582 40.1776 53.6917C40.1847 53.6206 40.2205 53.5406 40.2885 53.4491C40.4277 53.2619 40.6628 53.0744 40.9082 52.8642C41.1419 52.664 41.3898 52.4391 41.5005 52.1923C41.5581 52.0637 41.5813 51.9237 41.5435 51.7769C41.5062 51.6318 41.4131 51.4946 41.2651 51.363L41.0989 51.5498ZM40.0568 54.0683C40.1928 54.2418 40.2181 54.4621 40.1901 54.7266C40.1761 54.8582 40.1497 54.9951 40.1205 55.1371C40.0918 55.2771 40.0602 55.4233 40.0388 55.5652C39.9966 55.8456 39.9879 56.1431 40.1423 56.3918C40.2993 56.6447 40.6027 56.8136 41.1024 56.8918L41.1411 56.6449C40.6742 56.5718 40.4564 56.4238 40.3547 56.2599C40.2503 56.0917 40.2453 55.8726 40.286 55.6024C40.3062 55.4689 40.3359 55.3314 40.3654 55.1873C40.3946 55.0452 40.4233 54.8977 40.4387 54.7529C40.4692 54.4645 40.4494 54.1638 40.2535 53.914L40.0568 54.0683ZM41.1025 56.8919C41.6025 56.9699 41.9701 56.9248 42.2622 56.8036C42.5532 56.6829 42.7566 56.4917 42.9338 56.3031C43.2905 55.9232 43.5405 55.5654 44.2023 55.5654V55.3154C43.4133 55.3154 43.0892 55.7724 42.7515 56.1319C42.5814 56.313 42.4075 56.4727 42.1664 56.5727C41.9265 56.6722 41.6072 56.7176 41.1411 56.6448L41.1025 56.8919ZM44.2023 55.5654C44.5583 55.5654 44.6693 55.6454 44.7073 55.7124C44.7286 55.7498 44.7393 55.802 44.736 55.8773C44.7326 55.953 44.7156 56.041 44.6914 56.1436C44.6448 56.3405 44.5698 56.5913 44.5608 56.8366C44.5514 57.0906 44.6109 57.3543 44.8381 57.5814L45.0148 57.4045C44.8494 57.2392 44.8031 57.0502 44.8106 56.8458C44.8185 56.6326 44.8831 56.4193 44.9347 56.2011C44.9595 56.0962 44.9812 55.989 44.9857 55.8885C44.9902 55.7876 44.9779 55.6827 44.9247 55.589C44.8139 55.3938 44.5704 55.3154 44.2023 55.3154V55.5654ZM44.8381 57.5814C45.0512 57.7944 45.3178 57.9378 45.6124 58.0539C45.9053 58.1694 46.2376 58.262 46.5805 58.3662C47.2714 58.5762 48.0366 58.842 48.772 59.4591L48.9327 59.2675C48.1571 58.6168 47.3515 58.3393 46.6532 58.1271C46.3016 58.0202 45.9847 57.9319 45.7041 57.8213C45.4252 57.7114 45.1938 57.5835 45.0148 57.4045L44.8381 57.5814ZM48.772 59.459C49.1427 59.7706 49.3494 60.0318 49.4382 60.2265C49.5279 60.4228 49.4852 60.5107 49.4379 60.5486C49.3722 60.6011 49.2193 60.6318 48.9677 60.5668C48.7244 60.504 48.4177 60.3579 48.0794 60.1085L47.9311 60.3097C48.2881 60.573 48.6235 60.7361 48.9051 60.8089C49.1784 60.8795 49.4333 60.8724 49.594 60.7438C49.7732 60.6005 49.7759 60.3639 49.6657 60.1226C49.5547 59.8796 49.3163 59.5899 48.9328 59.2676L48.772 59.459ZM48.0796 60.1086C47.7107 59.8358 47.1763 59.654 46.5954 59.5368C46.0117 59.4189 45.3681 59.3638 44.7704 59.3524C44.1728 59.3411 43.6168 59.3733 43.2078 59.4319C43.0042 59.4611 42.8318 59.4975 42.7075 59.5405C42.6461 59.5617 42.5891 59.587 42.545 59.6184C42.5052 59.6468 42.4468 59.7014 42.4468 59.7862H42.6968C42.6968 59.8259 42.6699 59.8363 42.6901 59.822C42.7059 59.8107 42.7372 59.7947 42.7891 59.7768C42.8915 59.7414 43.0459 59.7077 43.2433 59.6794C43.6362 59.6231 44.1783 59.5912 44.7656 59.6024C45.3528 59.6136 45.9808 59.6677 46.546 59.7818C47.114 59.8965 47.6058 60.0692 47.9309 60.3096L48.0796 60.1086ZM42.4468 59.7862C42.4468 59.8276 42.4619 59.8627 42.4751 59.8867C42.4892 59.9123 42.5077 59.9368 42.5274 59.9598C42.5669 60.0057 42.6214 60.0564 42.6859 60.11C42.8155 60.2177 42.9986 60.348 43.2179 60.4906C43.6572 60.7763 44.2518 61.1179 44.8777 61.4364C45.5034 61.7547 46.164 62.0518 46.7349 62.2468C47.0202 62.3442 47.2864 62.4173 47.5164 62.4542C47.7426 62.4905 47.9502 62.4947 48.1087 62.4389L48.0257 62.2031C47.9274 62.2377 47.7708 62.2419 47.5561 62.2074C47.3452 62.1735 47.0938 62.1051 46.8157 62.0102C46.26 61.8204 45.611 61.529 44.9911 61.2136C44.3715 60.8984 43.7848 60.5611 43.3542 60.281C43.1384 60.1407 42.9645 60.0165 42.8457 59.9177C42.7859 59.8681 42.7434 59.8275 42.717 59.7968C42.7037 59.7814 42.697 59.7712 42.6941 59.766C42.6903 59.7592 42.6968 59.7674 42.6968 59.7862H42.4468ZM48.1088 62.4389C48.3225 62.3634 48.565 62.4008 48.811 62.5253C49.0567 62.6496 49.2943 62.8556 49.4857 63.094C49.6773 63.3327 49.816 63.5956 49.872 63.8278C49.9286 64.0629 49.8957 64.239 49.7892 64.3453L49.9658 64.5222C50.1612 64.3272 50.181 64.0434 50.115 63.7693C50.0483 63.4924 49.8889 63.1969 49.6806 62.9375C49.4721 62.6777 49.208 62.4459 48.9238 62.3022C48.64 62.1586 48.3245 62.0976 48.0256 62.2031L48.1088 62.4389ZM49.7892 64.3452C49.6159 64.5179 49.5136 64.7496 49.4521 64.9996C49.3905 65.25 49.3676 65.5282 49.3599 65.8034C49.3523 66.078 49.3599 66.3584 49.3616 66.6077C49.3633 66.8611 49.3589 67.0808 49.3303 67.2493L49.5767 67.2912C49.6096 67.0983 49.6133 66.858 49.6116 66.606C49.6099 66.3497 49.6024 66.0792 49.6098 65.8103C49.6173 65.5421 49.6395 65.2844 49.6949 65.0593C49.7503 64.834 49.8367 64.6508 49.9657 64.5223L49.7892 64.3452ZM49.3302 67.2499C49.3192 67.3164 49.2943 67.3576 49.2631 67.3861C49.2301 67.4162 49.1806 67.4404 49.108 67.4554C48.9585 67.4863 48.7482 67.4712 48.4913 67.4334C48.3649 67.4149 48.2317 67.3916 48.0934 67.3677C47.9558 67.3439 47.8135 67.3196 47.6717 67.2995C47.3897 67.2595 47.1009 67.235 46.8424 67.2674L46.8736 67.5155C47.098 67.4873 47.3601 67.5078 47.6366 67.547C47.7742 67.5665 47.913 67.5902 48.0508 67.6141C48.188 67.6378 48.3247 67.6616 48.4549 67.6808C48.7112 67.7184 48.9612 67.741 49.1586 67.7002C49.2595 67.6794 49.3552 67.6404 49.4314 67.5709C49.5094 67.4999 49.5579 67.4053 49.5768 67.2906L49.3302 67.2499ZM46.8424 67.2674C46.3552 67.3286 45.9194 67.4371 45.6048 67.6766C45.2809 67.9233 45.1024 68.2953 45.1024 68.8389H45.3524C45.3524 68.3571 45.5064 68.0659 45.7563 67.8755C46.0156 67.678 46.395 67.5755 46.8736 67.5155L46.8424 67.2674ZM45.1024 68.8389C45.1024 69.0641 45.02 69.2789 44.8825 69.4999C44.7441 69.7224 44.5565 69.9412 44.3548 70.1769C43.9592 70.6392 43.5092 71.1637 43.4129 71.8391L43.6604 71.8744C43.7447 71.2828 44.1401 70.8124 44.5447 70.3395C44.7432 70.1076 44.9444 69.8738 45.0948 69.632C45.2461 69.3888 45.3524 69.1277 45.3524 68.8389H45.1024ZM43.4129 71.839C43.3642 72.1793 43.4195 72.445 43.5557 72.6564C43.6899 72.8646 43.8935 73.0056 44.1137 73.116C44.3323 73.2255 44.5835 73.3122 44.8156 73.4006C45.0527 73.4909 45.2744 73.5844 45.4575 73.7106L45.5993 73.5047C45.3894 73.3601 45.143 73.2578 44.9046 73.167C44.6612 73.0743 44.4295 72.9946 44.2257 72.8925C44.0236 72.7912 43.8653 72.6752 43.7658 72.5209C43.6685 72.3699 43.6184 72.1677 43.6604 71.8745L43.4129 71.839ZM45.4571 73.7103C45.545 73.7713 45.5653 73.813 45.5692 73.8313C45.5719 73.8437 45.572 73.868 45.5344 73.9145C45.4959 73.962 45.4308 74.0159 45.3391 74.0776C45.2488 74.1384 45.1407 74.2014 45.0217 74.2694C44.7876 74.4031 44.5117 74.5555 44.2884 74.7326C44.067 74.9082 43.8725 75.127 43.8359 75.4031L44.0837 75.436C44.1073 75.2587 44.2371 75.0924 44.4438 74.9284C44.6486 74.766 44.9046 74.6242 45.1457 74.4864C45.2643 74.4187 45.3798 74.3516 45.4787 74.285C45.5762 74.2194 45.6663 74.1488 45.7287 74.0718C45.7919 73.9937 45.8385 73.8933 45.8135 73.7783C45.7898 73.6689 45.7081 73.5802 45.5997 73.5049L45.4571 73.7103ZM43.8359 75.4029C43.799 75.678 43.9363 75.9833 44.1388 76.275C44.3452 76.5723 44.6375 76.8812 44.954 77.171C45.5867 77.7502 46.3346 78.2698 46.7378 78.4865L46.8561 78.2663C46.4741 78.0609 45.7428 77.5542 45.1229 76.9866C44.8131 76.703 44.5357 76.4083 44.3442 76.1324C44.1488 75.8509 44.0599 75.6133 44.0837 75.4362L43.8359 75.4029ZM46.7378 78.4865C46.8842 78.5651 46.9744 78.7261 47.0188 78.9785C47.0631 79.2303 47.0567 79.5454 47.0342 79.8921C47.012 80.2317 46.9737 80.6076 46.9605 80.9521C46.9472 81.2981 46.9576 81.6358 47.0391 81.9126L47.2789 81.842C47.2095 81.6061 47.1972 81.3025 47.2103 80.9617C47.2234 80.6195 47.2605 80.2631 47.2836 79.9084C47.3063 79.5606 47.315 79.2191 47.265 78.9352C47.2152 78.652 47.1018 78.3982 46.8561 78.2662L46.7378 78.4865ZM47.0391 81.9126C47.1229 82.1975 47.2672 82.3492 47.4522 82.4114C47.6197 82.4677 47.8051 82.4413 47.9317 82.4309C48.0013 82.4251 48.0553 82.423 48.0996 82.4294C48.1412 82.4353 48.1656 82.4476 48.183 82.465C48.2014 82.4833 48.2246 82.5202 48.2387 82.5988C48.253 82.6779 48.2566 82.7911 48.242 82.9515L48.4909 82.9742C48.5066 82.8022 48.5046 82.6643 48.4848 82.5543C48.4648 82.4439 48.4253 82.3538 48.3598 82.2882C48.2932 82.2217 48.2125 82.193 48.135 82.1819C48.0602 82.1712 47.9812 82.1759 47.9111 82.1817C47.7584 82.1944 47.6381 82.2101 47.5319 82.1744C47.4433 82.1446 47.346 82.0703 47.2789 81.842L47.0391 81.9126ZM48.242 82.9516C48.2103 83.3011 48.2574 83.5683 48.3534 83.7843C48.449 83.9994 48.589 84.1543 48.7265 84.2839C48.8709 84.4199 48.9928 84.5126 49.0964 84.6322C49.1923 84.743 49.2568 84.8621 49.2695 85.0252L49.5188 85.0058C49.5009 84.7765 49.4067 84.6088 49.2854 84.4686C49.1718 84.3374 49.0179 84.2149 48.898 84.1019C48.7712 83.9825 48.6581 83.8543 48.5819 83.6827C48.506 83.5119 48.4624 83.2886 48.4909 82.9742L48.242 82.9516ZM49.2695 85.025C49.289 85.2786 49.4566 85.4475 49.6474 85.5716C49.835 85.6936 50.0786 85.7929 50.2836 85.8899C50.4992 85.992 50.677 86.0932 50.7829 86.2227C50.8337 86.2849 50.8669 86.3525 50.8796 86.4302C50.8925 86.5085 50.8859 86.6047 50.8459 86.7253L51.0832 86.804C51.1332 86.6532 51.147 86.5156 51.1263 86.3897C51.1055 86.2631 51.0512 86.1559 50.9764 86.0644C50.8311 85.8867 50.605 85.7655 50.3905 85.6639C50.1654 85.5574 49.9525 85.4718 49.7838 85.362C49.6182 85.2543 49.5294 85.1443 49.5188 85.0059L49.2695 85.025ZM50.846 86.725C50.649 87.3142 50.799 87.8201 51.0439 88.2462C51.1657 88.4581 51.312 88.6524 51.4518 88.8287C51.594 89.0081 51.725 89.1638 51.8281 89.3103L52.0326 89.1665C51.924 89.0122 51.7831 88.8443 51.6477 88.6734C51.5099 88.4996 51.373 88.317 51.2607 88.1217C51.0376 87.7334 50.9163 87.3033 51.0831 86.8043L50.846 86.725ZM51.8279 89.31C51.9423 89.4737 52.1291 89.6594 52.3405 89.853C52.5521 90.0469 52.8016 90.2601 53.0398 90.4723C53.2805 90.6868 53.5141 90.9039 53.7055 91.1147C53.8985 91.3272 54.0404 91.5245 54.1072 91.6985L54.3406 91.6089C54.2569 91.3909 54.0898 91.166 53.8906 90.9467C53.6899 90.7257 53.4482 90.5014 53.2061 90.2857C52.9614 90.0677 52.7203 89.8619 52.5093 89.6686C52.298 89.4751 52.1299 89.3056 52.0328 89.1667L51.8279 89.31ZM54.1073 91.6986C54.2654 92.1093 54.5801 92.5807 54.9995 92.9127C55.4205 93.246 55.9591 93.4468 56.5518 93.2827L56.4851 93.0417C55.9916 93.1784 55.5338 93.0169 55.1546 92.7167C54.7738 92.4152 54.4843 91.982 54.3406 91.6088L54.1073 91.6986ZM56.5519 93.2826C56.8048 93.2123 56.9881 93.2215 57.1339 93.2655C57.2821 93.3103 57.4028 93.394 57.5283 93.4937C57.7728 93.6877 58.0434 93.9586 58.5289 93.8884L58.4932 93.641C58.1342 93.6929 57.9525 93.5112 57.6837 93.2979C57.5527 93.1938 57.4015 93.0851 57.2061 93.0262C57.0082 92.9665 56.776 92.9608 56.4849 93.0418L56.5519 93.2826ZM58.5285 93.8885C58.9241 93.8326 59.4453 93.9173 59.8992 94.1C60.125 94.1909 60.3291 94.3041 60.4896 94.4317C60.6509 94.5601 60.7611 94.6974 60.8111 94.8347L61.046 94.7491C60.9748 94.5537 60.8278 94.3814 60.6452 94.2361C60.4617 94.0901 60.2352 93.9657 59.9926 93.8681C59.5096 93.6737 58.9434 93.5774 58.4936 93.6409L58.5285 93.8885ZM60.8111 94.8346C60.8519 94.9469 60.9373 95.046 61.0408 95.133C61.1456 95.2211 61.278 95.3044 61.4268 95.3827C61.7245 95.5393 62.1018 95.6832 62.4895 95.8085C63.2653 96.0593 64.1013 96.2414 64.4694 96.3025L64.5103 96.0559C64.1534 95.9966 63.3295 95.8173 62.5664 95.5706C62.1846 95.4472 61.8226 95.3084 61.5432 95.1614C61.4035 95.0879 61.2879 95.0141 61.2017 94.9417C61.1141 94.868 61.0656 94.803 61.046 94.7492L60.8111 94.8346ZM64.4692 96.3025C64.6961 96.3403 64.8771 96.2617 65.0231 96.1284C65.1632 96.0004 65.2756 95.8183 65.3776 95.6375C65.4832 95.4502 65.5783 95.2633 65.691 95.0953C65.8027 94.9286 65.9212 94.7974 66.0614 94.7212L65.9421 94.5015C65.7499 94.6059 65.604 94.776 65.4833 94.9561C65.3635 95.1348 65.2583 95.34 65.1598 95.5147C65.0576 95.6958 64.962 95.8456 64.8545 95.9438C64.7528 96.0366 64.6465 96.0786 64.5104 96.0559L64.4692 96.3025ZM66.0617 94.7211C66.1738 94.6598 66.2571 94.5557 66.3212 94.4367C66.3857 94.317 66.4361 94.1724 66.4774 94.0162C66.5598 93.7043 66.6117 93.3244 66.6605 92.9603C66.7101 92.5913 66.7564 92.2396 66.8268 91.9683C66.862 91.8328 66.9014 91.7252 66.9456 91.6487C66.9904 91.5713 67.0314 91.5407 67.0637 91.531L66.9918 91.2916C66.8731 91.3272 66.7895 91.4193 66.7293 91.5234C66.6686 91.6283 66.6224 91.7609 66.5848 91.9055C66.5098 92.1948 66.4615 92.5639 66.4128 92.927C66.3634 93.295 66.3133 93.6585 66.2357 93.9523C66.1969 94.0989 66.1526 94.2226 66.1011 94.3181C66.0493 94.4144 65.9952 94.4725 65.9418 94.5017L66.0617 94.7211ZM67.0635 91.5311C67.1834 91.4952 67.2681 91.4 67.3275 91.2924C67.3876 91.1833 67.4309 91.0455 67.4615 90.8943C67.5228 90.5909 67.5376 90.2079 67.5145 89.8279C67.4914 89.4475 67.4298 89.0619 67.3335 88.7528C67.2855 88.5984 67.2275 88.4588 67.1584 88.3473C67.0907 88.238 67.004 88.1423 66.8927 88.0978L66.7998 88.3299C66.8395 88.3457 66.8905 88.3896 66.9459 88.479C67 88.5663 67.0504 88.6844 67.0949 88.8271C67.1836 89.112 67.2428 89.4768 67.265 89.843C67.2873 90.2096 67.2721 90.5694 67.2164 90.8448C67.1885 90.9828 67.1517 91.0934 67.1086 91.1716C67.0647 91.2512 67.023 91.2822 66.9919 91.2915L67.0635 91.5311ZM66.8928 88.0978C66.7721 88.0493 66.7029 87.9693 66.6752 87.8862C66.6474 87.8028 66.657 87.7041 66.7177 87.6089C66.8388 87.4188 67.1853 87.2238 67.8578 87.3115L67.8901 87.0636C67.172 86.9699 66.7028 87.1668 66.5068 87.4746C66.4089 87.6284 66.3846 87.8051 66.438 87.9652C66.4915 88.1256 66.6186 88.2571 66.7997 88.3298L66.8928 88.0978ZM67.8578 87.3115C68.2237 87.3593 68.4875 87.3061 68.6811 87.1763C68.873 87.0477 68.9756 86.8569 69.0469 86.6747C69.0825 86.5837 69.1122 86.4897 69.1401 86.4046C69.1686 86.3175 69.1955 86.2391 69.2271 86.1698C69.2897 86.0324 69.3615 85.951 69.4755 85.92L69.4097 85.6788C69.1926 85.7379 69.0763 85.8979 68.9996 86.0661C68.9616 86.1495 68.931 86.2399 68.9025 86.3268C68.8733 86.4157 68.8464 86.501 68.8141 86.5836C68.7495 86.7485 68.6708 86.8823 68.5419 86.9687C68.4147 87.054 68.2182 87.1064 67.8902 87.0636L67.8578 87.3115ZM69.4755 85.9199C69.6858 85.8625 69.8156 85.7179 69.8989 85.5503C69.9801 85.387 70.0222 85.1922 70.0561 85.0156C70.0915 84.8312 70.1176 84.6698 70.1633 84.5431C70.209 84.4165 70.2598 84.3658 70.3185 84.3511L70.2575 84.1086C70.075 84.1545 69.9825 84.3076 69.9281 84.4583C69.8738 84.6089 69.8432 84.7984 69.8106 84.9685C69.7764 85.1465 69.7392 85.31 69.675 85.439C69.613 85.5638 69.5313 85.6455 69.4097 85.6788L69.4755 85.9199ZM70.3184 84.3511C70.6454 84.2691 70.7606 83.947 70.7609 83.6409C70.7611 83.3279 70.6472 82.9696 70.4488 82.707L70.2493 82.8577C70.4139 83.0756 70.5111 83.3805 70.5109 83.6407C70.5107 83.908 70.4139 84.0694 70.2576 84.1086L70.3184 84.3511ZM70.4491 82.7074C70.3697 82.6014 70.3421 82.514 70.3422 82.4448C70.3422 82.3774 70.3684 82.312 70.4269 82.2478C70.5497 82.1129 70.8027 81.9986 71.1557 81.9395L71.1145 81.693C70.7426 81.7551 70.4215 81.8823 70.242 82.0795C70.1493 82.1812 70.0923 82.3045 70.0922 82.4446C70.0921 82.5829 70.1474 82.7218 70.249 82.8574L70.4491 82.7074ZM71.1557 81.9395C71.3679 81.9041 71.5273 81.799 71.6186 81.6438C71.7084 81.4911 71.723 81.3056 71.6796 81.1235C71.593 80.7598 71.2719 80.3838 70.7569 80.1899L70.6688 80.4239C71.1196 80.5936 71.3722 80.9117 71.4364 81.1814C71.4685 81.316 71.453 81.4322 71.4031 81.5171C71.3546 81.5994 71.2648 81.6678 71.1145 81.693L71.1557 81.9395ZM70.7567 80.1898C70.3064 80.0214 70.2107 79.7131 70.2573 79.5688C70.279 79.5016 70.3335 79.4487 70.4351 79.4391C70.5439 79.4288 70.7147 79.4691 70.9431 79.626L71.0846 79.42C70.8302 79.2451 70.6009 79.1723 70.4115 79.1902C70.215 79.2088 70.0732 79.3255 70.0194 79.492C69.9151 79.8151 70.1518 80.2305 70.6691 80.424L70.7567 80.1898ZM70.9432 79.6261C71.4411 79.9675 71.918 80.0431 72.2139 79.8809C72.368 79.7964 72.4632 79.6503 72.4719 79.4692C72.4804 79.2938 72.4076 79.0998 72.2611 78.9047L72.0611 79.0548C72.1864 79.2216 72.2269 79.3593 72.2222 79.4572C72.2178 79.5493 72.1735 79.618 72.0937 79.6617C71.9218 79.7559 71.5532 79.7412 71.0845 79.4199L70.9432 79.6261ZM72.2611 78.9048C72.1421 78.7461 72.1365 78.6341 72.1711 78.55C72.2104 78.4544 72.3169 78.355 72.504 78.2616C72.8749 78.0764 73.4745 77.9573 74.1053 77.8974L74.0817 77.6485C73.4449 77.709 72.8066 77.831 72.3923 78.0379C72.1868 78.1406 72.0138 78.2751 71.9399 78.4549C71.8612 78.6462 71.9084 78.8512 72.0611 79.0548L72.2611 78.9048ZM74.1054 77.8974C74.7557 77.8352 75.2719 77.6324 75.5947 77.3016C75.9232 76.9649 76.036 76.5111 75.9055 75.9908L75.6631 76.0516C75.7751 76.4983 75.6764 76.8598 75.4158 77.127C75.1494 77.4 74.699 77.5895 74.0816 77.6485L74.1054 77.8974ZM75.9055 75.9907C75.8544 75.7873 75.9069 75.6571 75.9898 75.575C76.0788 75.4867 76.2196 75.4378 76.365 75.4379C76.5121 75.4379 76.6361 75.4876 76.7001 75.5612C76.7545 75.6237 76.7873 75.7291 76.6985 75.9069L76.9221 76.0187C77.0448 75.7731 77.0248 75.5536 76.8887 75.3971C76.7621 75.2515 76.5576 75.1879 76.3651 75.1879C76.1708 75.1878 75.9605 75.252 75.8138 75.3974C75.6609 75.5489 75.593 75.7729 75.6631 76.0517L75.9055 75.9907ZM76.6985 75.9069C76.4792 76.3456 76.4205 76.8046 76.5186 77.0898C76.5686 77.2353 76.6727 77.3647 76.8435 77.3775C77.0003 77.3893 77.163 77.2962 77.3217 77.1377L77.1451 76.9608C77.0015 77.1041 76.9074 77.1316 76.8622 77.1282C76.831 77.1259 76.7879 77.1044 76.755 77.0085C76.687 76.8109 76.7191 76.4249 76.9221 76.0187L76.6985 75.9069ZM77.3218 77.1377C77.5847 76.8748 77.9699 76.828 78.6012 76.7819C79.22 76.7367 80.0327 76.6907 81.0742 76.3844L81.0037 76.1446C79.9907 76.4425 79.2024 76.4873 78.583 76.5325C77.9761 76.5769 77.4858 76.6203 77.145 76.9608L77.3218 77.1377ZM81.0742 76.3844C82.1187 76.0777 83.1456 75.4949 83.9729 74.7826C84.7988 74.0715 85.4359 73.2223 85.6859 72.377L85.4461 72.3061C85.2145 73.0896 84.6141 73.9006 83.8098 74.5932C83.0069 75.2845 82.0111 75.8487 81.0037 76.1446L81.0742 76.3844ZM85.6858 72.3771C85.9103 71.6216 86.5669 71.2797 87.1836 70.9831C87.482 70.8396 87.7825 70.7014 87.9843 70.5264C88.0879 70.4366 88.1729 70.3313 88.2188 70.2028C88.2653 70.0728 88.2678 69.9301 88.2243 69.7734L87.9834 69.8401C88.0153 69.955 88.01 70.0443 87.9834 70.1187C87.9563 70.1946 87.9029 70.2661 87.8205 70.3375C87.6504 70.4851 87.3884 70.6072 87.0752 70.7578C86.4688 71.0495 85.7059 71.4318 85.4462 72.3059L85.6858 72.3771ZM88.2243 69.7733C88.1523 69.5141 88.1457 69.3084 88.1867 69.1567C88.2265 69.0099 88.3117 68.9087 88.4421 68.8495C88.5775 68.788 88.7725 68.7672 89.0338 68.8102C89.2939 68.8531 89.6104 68.9578 89.9805 69.1355L90.0887 68.9102C89.7046 68.7257 89.3649 68.6114 89.0744 68.5635C88.7851 68.5159 88.5351 68.5326 88.3387 68.6219C88.1372 68.7134 88.0037 68.8761 87.9454 69.0914C87.8885 69.3017 87.9045 69.5562 87.9835 69.8402L88.2243 69.7733ZM89.9806 69.1356C90.1719 69.2272 90.3243 69.2903 90.4471 69.3291C90.5686 69.3674 90.6703 69.385 90.7571 69.3772C90.8505 69.3688 90.9216 69.3313 90.9755 69.273C91.0236 69.221 91.0541 69.1559 91.0776 69.1055C91.1277 68.9977 91.1705 68.9002 91.287 68.82C91.4058 68.7384 91.6182 68.6648 92.0281 68.6648V68.4148C91.593 68.4148 91.3227 68.4921 91.1453 68.6141C90.9658 68.7376 90.8991 68.8965 90.8509 69C90.8253 69.0551 90.8095 69.0844 90.7921 69.1032C90.7805 69.1156 90.767 69.1253 90.7346 69.1282C90.6958 69.1317 90.6307 69.1249 90.5224 69.0907C90.4155 69.0569 90.275 68.9994 90.0886 68.9101L89.9806 69.1356ZM92.0281 68.6648C92.4583 68.6648 92.7668 68.6263 93.0138 68.5657C93.2612 68.505 93.4422 68.4232 93.6137 68.3432C93.7849 68.2633 93.9442 68.1866 94.1607 68.1248C94.3767 68.0631 94.6533 68.0155 95.0529 68.0012L95.044 67.7513C94.6282 67.7662 94.331 67.8161 94.0921 67.8844C93.8535 67.9525 93.6767 68.0379 93.508 68.1167C93.3395 68.1952 93.1768 68.2683 92.9542 68.3229C92.7312 68.3776 92.4433 68.4148 92.0281 68.4148V68.6648ZM95.053 68.0012C95.8778 67.9707 97.35 67.7732 98.7975 67.4323C99.5217 67.2618 100.243 67.0546 100.875 66.8133C101.506 66.5727 102.057 66.295 102.435 65.9799L102.275 65.7878C101.928 66.0769 101.407 66.3428 100.786 66.5797C100.167 66.8159 99.4574 67.0201 98.7401 67.189C97.3044 67.5271 95.8487 67.7216 95.0438 67.7513L95.053 68.0012ZM102.435 65.9798C103.145 65.3884 104.262 64.8363 105.373 64.3301C106.474 63.8285 107.574 63.3702 108.217 62.9723L108.086 62.7597C107.46 63.1465 106.387 63.5933 105.269 64.1026C104.162 64.6071 103.014 65.1716 102.275 65.7878L102.435 65.9798ZM108.217 62.9722C108.856 62.5769 109.268 62.2029 109.42 61.9678C109.457 61.9107 109.49 61.8444 109.493 61.7786C109.495 61.7426 109.488 61.6987 109.46 61.6594C109.431 61.6195 109.39 61.5992 109.354 61.5903C109.287 61.5744 109.212 61.5897 109.143 61.612C109.069 61.636 108.98 61.6756 108.878 61.7305L108.997 61.9506C109.091 61.8998 109.165 61.8676 109.22 61.8499C109.28 61.8305 109.299 61.8344 109.295 61.8334C109.289 61.832 109.272 61.8258 109.257 61.8061C109.244 61.7869 109.243 61.7694 109.244 61.7654C109.244 61.7635 109.241 61.7839 109.21 61.8323C109.089 62.0193 108.716 62.3694 108.086 62.7597L108.217 62.9722ZM108.878 61.7305C108.51 61.9289 107.927 62.0478 107.278 62.0774C106.631 62.1069 105.934 62.0473 105.344 61.9006L105.283 62.1432C105.9 62.2965 106.622 62.3576 107.289 62.3272C107.953 62.2969 108.579 62.1751 108.997 61.9506L108.878 61.7305ZM105.344 61.9006C105.048 61.8268 104.707 61.7082 104.332 61.581C103.959 61.4546 103.556 61.3209 103.146 61.2213C102.33 61.023 101.46 60.9528 100.722 61.3689L100.845 61.5867C101.497 61.2189 102.287 61.2699 103.087 61.4642C103.485 61.5609 103.879 61.6913 104.251 61.8178C104.622 61.9433 104.975 62.0662 105.283 62.1432L105.344 61.9006ZM100.722 61.369C100.554 61.464 100.429 61.513 100.339 61.5313C100.248 61.5501 100.214 61.533 100.207 61.5273C100.202 61.5239 100.187 61.5095 100.188 61.4538C100.189 61.3981 100.208 61.3207 100.25 61.2272C100.332 61.0415 100.491 60.8217 100.698 60.6378C100.905 60.4538 101.152 60.3138 101.408 60.2733L101.369 60.0263C101.052 60.0765 100.762 60.246 100.532 60.4508C100.301 60.6557 100.12 60.9038 100.021 61.1257C99.9724 61.236 99.9405 61.3472 99.938 61.4476C99.9356 61.548 99.9632 61.6571 100.057 61.7272C100.147 61.795 100.266 61.8014 100.39 61.7762C100.515 61.7505 100.666 61.688 100.845 61.5866L100.722 61.369ZM101.408 60.2733C101.7 60.227 101.914 60.1548 102.053 60.0363C102.201 59.9092 102.247 59.7444 102.238 59.563C102.229 59.3899 102.171 59.1881 102.102 58.9672C102.031 58.7413 101.946 58.4861 101.872 58.189L101.629 58.2496C101.706 58.5559 101.794 58.821 101.863 59.0418C101.934 59.2677 101.981 59.4392 101.988 59.5752C101.994 59.7029 101.964 59.7831 101.89 59.8464C101.806 59.9183 101.65 59.9819 101.369 60.0263L101.408 60.2733ZM101.872 58.189C101.838 58.0525 101.844 57.9605 101.866 57.9011C101.887 57.8461 101.925 57.8071 101.988 57.7815C102.126 57.7249 102.37 57.7399 102.684 57.8471C103.303 58.0579 104.08 58.5855 104.547 59.256L104.752 59.1131C104.252 58.3954 103.43 57.837 102.765 57.6105C102.438 57.4991 102.119 57.4576 101.893 57.5501C101.774 57.599 101.68 57.6859 101.632 57.8136C101.586 57.9369 101.588 58.0844 101.629 58.2495L101.872 58.189ZM104.547 59.2559C105.545 60.691 107.473 61.3103 109.153 60.8138L109.082 60.574C107.499 61.0419 105.685 60.4544 104.752 59.1132L104.547 59.2559ZM109.153 60.8138C109.579 60.6874 109.826 60.4967 109.939 60.2441C110.049 59.9986 110.018 59.7243 109.965 59.4687C109.938 59.3403 109.903 59.2053 109.873 59.079C109.842 58.9498 109.816 58.8246 109.802 58.7029C109.776 58.4607 109.802 58.244 109.943 58.0526L109.741 57.9047C109.55 58.1654 109.524 58.4537 109.554 58.73C109.569 58.8675 109.598 59.0048 109.629 59.1366C109.661 59.2711 109.694 59.3954 109.72 59.5198C109.772 59.7695 109.786 59.9743 109.711 60.1419C109.639 60.3024 109.47 60.4589 109.082 60.5741L109.153 60.8138ZM109.943 58.0525C110.069 57.8806 110.028 57.6781 109.926 57.4951C109.824 57.3112 109.644 57.1114 109.419 56.9046C108.968 56.4893 108.304 56.015 107.618 55.544C106.928 55.0704 106.215 54.5999 105.653 54.1857C105.372 53.9788 105.133 53.7887 104.955 53.6221C104.773 53.4503 104.674 53.3199 104.647 53.2335L104.408 53.3083C104.457 53.4632 104.602 53.6327 104.784 53.8043C104.973 53.9811 105.221 54.178 105.505 54.387C106.071 54.8044 106.793 55.2806 107.477 55.7501C108.164 56.2221 108.814 56.687 109.25 57.0885C109.469 57.2902 109.625 57.4682 109.708 57.6165C109.791 57.7659 109.781 57.8502 109.741 57.9047L109.943 58.0525ZM104.647 53.2339C104.613 53.1249 104.614 53.0573 104.626 53.0179C104.636 52.985 104.657 52.9602 104.701 52.9409C104.751 52.9196 104.826 52.9073 104.933 52.9104C105.038 52.9136 105.165 52.9314 105.309 52.9626C105.892 53.0881 106.711 53.4153 107.499 53.7479L107.596 53.5176C106.813 53.1868 105.972 52.8495 105.362 52.7182C105.209 52.6852 105.066 52.6643 104.941 52.6606C104.816 52.6569 104.699 52.6695 104.602 52.7115C104.5 52.7555 104.421 52.8322 104.387 52.9453C104.355 53.052 104.367 53.1752 104.408 53.308L104.647 53.2339ZM107.499 53.7479C107.914 53.9232 108.265 53.9336 108.558 53.8178C108.848 53.703 109.059 53.4721 109.211 53.2042C109.513 52.6723 109.605 51.9538 109.605 51.5209H109.355C109.355 51.9329 109.266 52.6021 108.994 53.0808C108.859 53.3183 108.685 53.4984 108.466 53.5853C108.249 53.6713 107.966 53.6741 107.596 53.5177L107.499 53.7479ZM109.605 51.5209C109.605 51.3683 109.527 51.2428 109.413 51.1459C109.3 51.0505 109.145 50.9758 108.967 50.9176C108.61 50.8009 108.126 50.7398 107.602 50.732C106.558 50.7165 105.31 50.913 104.527 51.3508L104.649 51.569C105.377 51.1618 106.575 50.9668 107.599 50.982C108.109 50.9896 108.565 51.0494 108.889 51.1553C109.052 51.2084 109.173 51.2704 109.251 51.3367C109.328 51.4014 109.355 51.4625 109.355 51.5209H109.605ZM104.527 51.3507C103.825 51.7431 103.156 51.4836 102.901 51.1298C102.774 50.9552 102.757 50.7744 102.851 50.6278C102.95 50.4727 103.199 50.3153 103.697 50.2569L103.668 50.0086C103.14 50.0705 102.8 50.2447 102.64 50.4928C102.476 50.7495 102.53 51.0437 102.698 51.2763C103.031 51.737 103.841 52.0207 104.649 51.569L104.527 51.3507ZM103.697 50.2569C103.959 50.2263 104.163 50.1855 104.32 50.1347C104.476 50.0842 104.594 50.0212 104.675 49.9403C104.76 49.8556 104.798 49.7569 104.799 49.6532C104.801 49.5552 104.77 49.4596 104.734 49.3743C104.697 49.2889 104.649 49.2005 104.606 49.1204C104.562 49.0372 104.523 48.9602 104.498 48.8862C104.472 48.8125 104.462 48.7499 104.469 48.695C104.476 48.643 104.5 48.5888 104.557 48.5315L104.381 48.3543C104.287 48.4476 104.236 48.5516 104.222 48.6622C104.207 48.7699 104.229 48.8741 104.261 48.9683C104.294 49.0622 104.341 49.1541 104.385 49.2374C104.431 49.3238 104.473 49.3996 104.504 49.4728C104.535 49.546 104.55 49.6032 104.549 49.6491C104.549 49.6893 104.536 49.7256 104.499 49.7635C104.457 49.8053 104.38 49.8525 104.243 49.8968C104.107 49.9407 103.921 49.979 103.668 50.0086L103.697 50.2569ZM104.557 48.5312C104.599 48.4893 104.666 48.4638 104.777 48.4686C104.889 48.4735 105.031 48.5091 105.2 48.5719C105.54 48.6976 105.954 48.9171 106.403 49.1491C106.847 49.3786 107.323 49.6184 107.772 49.7735C108.218 49.9273 108.662 50.0067 109.035 49.8883L108.959 49.65C108.667 49.743 108.288 49.6868 107.854 49.5372C107.424 49.3888 106.964 49.1573 106.518 48.9269C106.076 48.699 105.645 48.4698 105.287 48.3374C105.108 48.2712 104.938 48.2254 104.787 48.2188C104.636 48.2123 104.489 48.2454 104.38 48.3546L104.557 48.5312ZM109.035 49.8883C109.681 49.6834 110.23 49.6996 110.796 49.6531C111.36 49.6066 111.916 49.4964 112.516 49.0223L112.361 48.8261C111.814 49.258 111.313 49.3596 110.775 49.4039C110.239 49.448 109.641 49.4338 108.959 49.65L109.035 49.8883ZM112.516 49.0224C112.673 48.8989 112.773 48.7628 112.801 48.6111C112.831 48.4574 112.782 48.3137 112.695 48.1867C112.528 47.9412 112.189 47.7139 111.821 47.5038C111.452 47.293 111.013 47.0787 110.647 46.8799C110.268 46.6743 109.966 46.4844 109.817 46.3088L109.626 46.47C109.81 46.6873 110.156 46.8976 110.528 47.0996C110.913 47.3085 111.327 47.5093 111.697 47.7209C112.069 47.9332 112.358 48.1358 112.488 48.3276C112.551 48.4193 112.569 48.4961 112.556 48.5647C112.542 48.6354 112.491 48.7235 112.361 48.826L112.516 49.0224ZM109.817 46.3087C109.784 46.2692 109.775 46.2444 109.773 46.2334C109.772 46.227 109.772 46.2236 109.778 46.2159C109.786 46.2046 109.805 46.1861 109.847 46.1645C109.887 46.1435 109.942 46.1231 110.012 46.1042C110.294 46.0276 110.753 45.9936 111.285 45.9861C112.344 45.9713 113.636 46.0615 114.245 46.0914L114.257 45.8417C113.656 45.8122 112.351 45.7211 111.282 45.7361C110.75 45.7436 110.262 45.7773 109.946 45.8629C109.866 45.8846 109.793 45.9107 109.732 45.9426C109.671 45.9741 109.614 46.0152 109.574 46.0706C109.532 46.1297 109.514 46.2003 109.527 46.2757C109.539 46.3466 109.577 46.4115 109.626 46.4702L109.817 46.3087ZM114.244 46.0914C114.922 46.1256 115.341 45.6329 115.458 45.1919C115.515 44.9745 115.507 44.7382 115.386 44.5765C115.323 44.4925 115.233 44.4344 115.12 44.4139C115.009 44.3939 114.885 44.4109 114.75 44.4613L114.838 44.6954C114.944 44.6556 115.022 44.6502 115.075 44.6599C115.126 44.669 115.161 44.6927 115.186 44.7266C115.242 44.8008 115.264 44.9456 115.216 45.128C115.121 45.4866 114.786 45.8685 114.257 45.8417L114.244 46.0914ZM114.75 44.4613C114.652 44.4981 114.512 44.5136 114.335 44.5038C114.16 44.494 113.957 44.4599 113.739 44.4048C113.302 44.2945 112.814 44.1024 112.377 43.8657C111.938 43.628 111.562 43.3509 111.341 43.0753C111.231 42.938 111.165 42.8078 111.143 42.6889C111.122 42.5738 111.142 42.4635 111.214 42.3554L111.006 42.2166C110.897 42.3801 110.865 42.5564 110.897 42.7337C110.929 42.9071 111.02 43.0749 111.146 43.2317C111.397 43.5445 111.806 43.8407 112.258 44.0855C112.712 44.3314 113.22 44.5314 113.678 44.6472C113.907 44.7051 114.126 44.7425 114.321 44.7534C114.515 44.7641 114.694 44.7493 114.838 44.6954L114.75 44.4613ZM111.214 42.3554C111.376 42.1126 111.565 42.0068 111.783 41.9666C112.011 41.9246 112.272 41.953 112.581 41.9949C113.186 42.077 113.935 42.2065 114.73 41.7926L114.614 41.5709C113.9 41.9426 113.231 41.8309 112.614 41.7472C112.311 41.7061 112.011 41.6704 111.738 41.7208C111.455 41.7729 111.207 41.9162 111.006 42.2165L111.214 42.3554ZM114.73 41.7926C115.148 41.5751 115.364 41.2056 115.434 40.7868C115.504 40.3721 115.433 39.9068 115.281 39.4752C115.13 39.0429 114.894 38.634 114.622 38.331C114.355 38.0326 114.033 37.8151 113.707 37.8151V38.0651C113.925 38.0651 114.184 38.2172 114.436 38.4978C114.683 38.7737 114.903 39.1531 115.046 39.5581C115.188 39.9638 115.249 40.3848 115.188 40.7453C115.128 41.1016 114.951 41.3959 114.614 41.5708L114.73 41.7926ZM113.707 37.8151C113.174 37.8151 112.276 37.7258 111.513 37.5688C111.131 37.4902 110.79 37.396 110.547 37.2906C110.425 37.2377 110.335 37.1849 110.277 37.1349C110.218 37.0838 110.209 37.0501 110.209 37.0342H109.959C109.959 37.1542 110.029 37.2509 110.113 37.3238C110.198 37.3977 110.315 37.4625 110.448 37.52C110.714 37.6355 111.075 37.7338 111.463 37.8136C112.24 37.9736 113.154 38.0651 113.707 38.0651V37.8151ZM110.209 37.0342C110.209 36.9244 110.156 36.8295 110.089 36.7518C110.022 36.6736 109.932 36.6009 109.834 36.5332C109.639 36.3989 109.385 36.2656 109.164 36.1406C108.934 36.0103 108.746 35.8919 108.649 35.7806C108.602 35.7265 108.59 35.6892 108.59 35.6657C108.59 35.6462 108.599 35.6105 108.657 35.5576L108.49 35.3717C108.398 35.4546 108.34 35.5529 108.34 35.6658C108.34 35.7748 108.395 35.8687 108.461 35.9447C108.59 36.0938 108.818 36.2319 109.041 36.3582C109.273 36.4898 109.509 36.6131 109.692 36.7391C109.783 36.8016 109.853 36.86 109.899 36.9143C109.946 36.9691 109.959 37.0081 109.959 37.0342H110.209ZM108.657 35.5575C108.774 35.4522 108.897 35.4292 109.053 35.4472C109.134 35.4565 109.222 35.4768 109.321 35.5027C109.417 35.528 109.527 35.5595 109.64 35.5864C109.87 35.641 110.135 35.6823 110.435 35.6395C110.736 35.5966 111.065 35.4703 111.427 35.2024L111.278 35.0015C110.946 35.2476 110.655 35.3556 110.4 35.392C110.143 35.4286 109.913 35.3943 109.698 35.3431C109.588 35.3171 109.488 35.2882 109.384 35.2609C109.283 35.2344 109.181 35.2103 109.082 35.1988C108.877 35.1752 108.675 35.205 108.49 35.3718L108.657 35.5575ZM111.427 35.2025C111.747 34.9659 112.162 34.8565 112.635 34.8282C113.109 34.7998 113.631 34.853 114.157 34.9319C114.419 34.9713 114.681 35.0168 114.937 35.0612C115.193 35.1056 115.444 35.149 115.682 35.1837C116.154 35.2524 116.591 35.2896 116.931 35.2247L116.885 34.9791C116.59 35.0354 116.19 35.005 115.718 34.9363C115.484 34.9022 115.236 34.8594 114.98 34.8149C114.724 34.7705 114.459 34.7245 114.194 34.6847C113.663 34.605 113.12 34.5487 112.62 34.5786C112.121 34.6085 111.652 34.7252 111.278 35.0013L111.427 35.2025ZM116.931 35.2247C117.111 35.1908 117.251 35.1162 117.344 35.0013C117.438 34.8866 117.473 34.7457 117.472 34.6006C117.468 34.3165 117.322 33.9882 117.124 33.6974C116.924 33.4036 116.658 33.1287 116.39 32.9529C116.132 32.7839 115.824 32.6774 115.576 32.8218L115.701 33.0379C115.816 32.9713 116.007 33.0008 116.253 33.162C116.489 33.3165 116.732 33.566 116.918 33.838C117.105 34.113 117.219 34.3918 117.222 34.6035C117.223 34.7062 117.198 34.7853 117.15 34.8435C117.103 34.9016 117.022 34.9531 116.885 34.9791L116.931 35.2247ZM115.576 32.8219C115.414 32.9161 115.141 32.9998 114.811 33.0496C114.484 33.0991 114.112 33.1136 113.757 33.0769C113.402 33.0401 113.072 32.9527 112.825 32.8051C112.58 32.6593 112.421 32.4586 112.382 32.1875L112.134 32.223C112.186 32.5854 112.404 32.8449 112.697 33.0198C112.987 33.1929 113.356 33.2867 113.732 33.3256C114.109 33.3646 114.503 33.3491 114.849 33.2968C115.192 33.2449 115.501 33.1551 115.702 33.0378L115.576 32.8219ZM112.382 32.1876C112.362 32.0471 112.382 31.9601 112.415 31.9048C112.448 31.8506 112.504 31.8088 112.594 31.7806C112.783 31.7212 113.07 31.7369 113.405 31.7789C113.727 31.8191 114.092 31.8832 114.392 31.8978C114.544 31.9051 114.69 31.9007 114.816 31.8714C114.942 31.842 115.061 31.7843 115.138 31.6745L114.933 31.531C114.905 31.5718 114.852 31.6063 114.759 31.6279C114.667 31.6496 114.547 31.655 114.404 31.6481C114.116 31.6341 113.778 31.5736 113.436 31.5308C113.108 31.4897 112.768 31.4639 112.519 31.5421C112.39 31.5827 112.274 31.6545 112.201 31.7758C112.129 31.8961 112.109 32.0467 112.134 32.2229L112.382 32.1876ZM115.138 31.6743C115.235 31.5364 115.19 31.3848 115.108 31.2672C115.027 31.1498 114.891 31.0335 114.727 30.9241C114.396 30.7034 113.914 30.4857 113.404 30.3286C112.895 30.1716 112.345 30.0714 111.879 30.094C111.419 30.1163 110.998 30.2621 110.816 30.6429L111.042 30.7506C111.163 30.498 111.459 30.3647 111.891 30.3437C112.318 30.323 112.837 30.4152 113.331 30.5675C113.825 30.7197 114.283 30.9283 114.588 31.1321C114.742 31.2349 114.848 31.3304 114.903 31.4095C114.957 31.4884 114.943 31.518 114.933 31.5311L115.138 31.6743ZM110.816 30.643C110.543 31.2158 109.909 31.4146 109.467 31.3795C109.359 31.3709 109.269 31.3484 109.204 31.3183C109.137 31.2873 109.109 31.2547 109.1 31.2334C109.094 31.2187 109.088 31.191 109.121 31.1385C109.156 31.0823 109.231 31.0085 109.366 30.9228L109.233 30.7114C109.082 30.8069 108.973 30.9047 108.909 31.0055C108.844 31.1098 108.824 31.2241 108.87 31.3312C108.912 31.4316 109.002 31.5004 109.099 31.5452C109.198 31.5908 109.318 31.6184 109.447 31.6287C109.956 31.6692 110.711 31.4456 111.042 30.7506L110.816 30.643ZM109.366 30.9228C109.98 30.5357 110.339 29.8039 110.53 29.0606C110.723 28.3139 110.754 27.5288 110.691 27.0006L110.443 27.0301C110.502 27.5274 110.473 28.2813 110.288 28.9981C110.103 29.7184 109.766 30.3748 109.233 30.7114L109.366 30.9228ZM110.691 27.0008C110.682 26.9218 110.711 26.8445 110.797 26.7591C110.885 26.6712 111.023 26.5854 111.204 26.4993C111.569 26.3264 112.059 26.1743 112.558 25.9939C113.048 25.817 113.546 25.6133 113.89 25.3397C114.064 25.2017 114.205 25.0408 114.285 24.8498C114.366 24.6563 114.379 24.4412 114.311 24.2046L114.071 24.2735C114.124 24.4596 114.112 24.6162 114.054 24.7535C113.996 24.8934 113.887 25.0225 113.735 25.1439C113.426 25.389 112.965 25.5813 112.473 25.7588C111.991 25.9329 111.476 26.0937 111.097 26.2734C110.907 26.3636 110.738 26.464 110.62 26.5824C110.499 26.7033 110.422 26.8523 110.443 27.0299L110.691 27.0008ZM114.311 24.2047C114.2 23.8142 114.261 23.5138 114.424 23.276C114.59 23.0325 114.873 22.8409 115.227 22.6946C115.937 22.4019 116.885 22.3114 117.574 22.3114V22.0614C116.872 22.0614 115.887 22.1524 115.132 22.4635C114.755 22.6191 114.422 22.8351 114.217 23.1348C114.008 23.4403 113.941 23.819 114.071 24.2734L114.311 24.2047ZM117.574 22.3114C117.759 22.3114 117.911 22.2816 118.026 22.2189C118.146 22.154 118.222 22.0555 118.25 21.9345C118.277 21.8183 118.256 21.6946 118.21 21.5774C118.163 21.4593 118.088 21.3392 117.993 21.2244C117.62 20.7728 116.886 20.3355 116.166 20.4338L116.2 20.6815C116.808 20.5984 117.463 20.9755 117.8 21.3836C117.883 21.4838 117.943 21.5814 117.977 21.6691C118.012 21.7576 118.018 21.8277 118.007 21.8784C117.996 21.9243 117.969 21.9658 117.907 21.9992C117.842 22.0347 117.735 22.0614 117.574 22.0614V22.3114ZM116.166 20.4338C115.815 20.4817 115.466 20.6162 115.134 20.776C114.803 20.9352 114.477 21.1255 114.184 21.2851C113.885 21.4477 113.621 21.5777 113.394 21.6329C113.171 21.6874 113.009 21.6639 112.886 21.5523L112.718 21.7376C112.927 21.9269 113.188 21.9405 113.454 21.8758C113.716 21.8119 114.006 21.6665 114.303 21.5047C114.606 21.34 114.919 21.1569 115.242 21.0013C115.565 20.8462 115.887 20.7243 116.2 20.6815L116.166 20.4338ZM112.887 21.5526C112.825 21.4967 112.807 21.4456 112.807 21.3988C112.807 21.347 112.829 21.2804 112.888 21.1991C113.007 21.0347 113.242 20.8531 113.55 20.6823C114.165 20.3419 115.004 20.0792 115.581 20.0792V19.8292C114.949 19.8292 114.068 20.1098 113.429 20.4637C113.111 20.6401 112.837 20.8433 112.685 21.0527C112.609 21.1581 112.557 21.2756 112.557 21.3989C112.557 21.5272 112.614 21.6422 112.718 21.7373L112.887 21.5526ZM115.581 20.0792C116.188 20.0792 117.219 20.049 118.228 19.9428C118.733 19.8898 119.234 19.8175 119.675 19.7198C120.114 19.6227 120.503 19.4985 120.776 19.3373L120.649 19.122C120.41 19.2629 120.052 19.3803 119.621 19.4757C119.193 19.5706 118.701 19.6417 118.202 19.6942C117.204 19.7993 116.182 19.8292 115.581 19.8292V20.0792ZM120.776 19.3375C120.912 19.258 121.018 19.1606 121.047 19.0366C121.079 18.8993 121.006 18.7859 120.914 18.706C120.822 18.6259 120.688 18.5574 120.533 18.4983C120.376 18.4385 120.187 18.385 119.977 18.3388C119.141 18.1547 117.935 18.0779 116.954 18.2005L116.985 18.4486C117.936 18.3297 119.114 18.4046 119.923 18.583C120.125 18.6274 120.301 18.6777 120.444 18.732C120.589 18.7871 120.691 18.843 120.75 18.8948C120.81 18.9469 120.806 18.9729 120.804 18.9796C120.799 18.9996 120.77 19.0509 120.649 19.1218L120.776 19.3375ZM116.954 18.2005C116.477 18.2601 116.13 18.2511 115.922 18.2087C115.815 18.1869 115.763 18.1595 115.745 18.1434C115.738 18.1372 115.745 18.1404 115.747 18.1545C115.749 18.1696 115.743 18.1774 115.746 18.1733C115.756 18.1582 115.795 18.1211 115.897 18.0751C115.995 18.0315 116.133 17.9869 116.317 17.946C116.684 17.8645 117.219 17.8009 117.938 17.786L117.933 17.536C117.203 17.5512 116.651 17.6158 116.263 17.702C116.069 17.7451 115.913 17.7942 115.795 17.847C115.683 17.8974 115.586 17.9593 115.535 18.0385C115.508 18.0815 115.49 18.1353 115.5 18.1943C115.509 18.2522 115.542 18.2972 115.578 18.3298C115.647 18.3912 115.753 18.4294 115.872 18.4537C116.118 18.5037 116.495 18.5098 116.985 18.4486L116.954 18.2005ZM117.938 17.786C119.399 17.7552 120.017 17.5871 120.531 17.3924C121.033 17.2022 121.411 16.9978 122.42 16.88L122.391 16.6317C121.345 16.7538 120.937 16.9713 120.443 17.1586C119.961 17.3412 119.372 17.5057 117.933 17.536L117.938 17.786ZM122.42 16.88C122.942 16.8184 123.299 16.7177 123.561 16.5963C123.824 16.4739 123.985 16.3332 124.116 16.2024C124.249 16.0688 124.333 15.9671 124.465 15.8856C124.59 15.8081 124.764 15.7478 125.066 15.7332L125.054 15.4835C124.722 15.4995 124.504 15.5676 124.333 15.673C124.169 15.7746 124.054 15.9105 123.939 16.0258C123.821 16.144 123.684 16.2636 123.455 16.3695C123.225 16.4765 122.895 16.5722 122.391 16.6317L122.42 16.88ZM125.066 15.7333C125.399 15.7177 125.856 15.6161 126.349 15.4663C126.844 15.3158 127.383 15.114 127.882 14.8932C128.38 14.6728 128.842 14.4316 129.182 14.2012C129.352 14.0862 129.495 13.971 129.598 13.8593C129.696 13.7518 129.776 13.6274 129.776 13.4956H129.526C129.526 13.53 129.501 13.5944 129.413 13.6902C129.329 13.7819 129.204 13.8846 129.042 13.9943C128.719 14.213 128.272 14.4473 127.781 14.6646C127.291 14.8816 126.761 15.0797 126.276 15.2271C125.79 15.3751 125.356 15.4694 125.054 15.4835L125.066 15.7333ZM129.776 13.4956C129.776 13.4162 129.74 13.3457 129.696 13.2876C129.65 13.2287 129.588 13.1725 129.515 13.1187C129.37 13.0111 129.165 12.9003 128.921 12.7898C128.43 12.5681 127.756 12.3377 127.016 12.1291C125.539 11.7124 123.773 11.3765 122.639 11.3765V11.6265C123.739 11.6265 125.479 11.9553 126.949 12.3697C127.682 12.5766 128.343 12.8031 128.818 13.0177C129.056 13.1252 129.242 13.2274 129.367 13.3196C129.429 13.3658 129.472 13.4063 129.497 13.4399C129.524 13.4742 129.526 13.492 129.526 13.4956H129.776ZM47.5219 64.0769C47.5383 63.8114 47.476 63.6271 47.3381 63.497C47.2112 63.3774 47.0329 63.3191 46.8701 63.2648C46.5351 63.1531 46.1549 63.0299 45.8772 62.5025L45.656 62.619C45.982 63.2383 46.4467 63.3871 46.791 63.5019C46.9677 63.5609 47.0876 63.6044 47.1666 63.6789C47.2345 63.7429 47.2857 63.8449 47.2724 64.0616L47.5219 64.0769ZM45.8772 62.5025C45.7089 62.1828 45.3765 61.9232 44.9878 61.7264C44.5962 61.5282 44.1327 61.3861 43.6808 61.3095C43.2298 61.2331 42.782 61.2206 42.4227 61.2879C42.0728 61.3534 41.7611 61.5047 41.6636 61.7976L41.9008 61.8765C41.9525 61.7212 42.1379 61.5956 42.4688 61.5336C42.7902 61.4734 43.2067 61.4828 43.639 61.556C44.0705 61.6291 44.5093 61.7644 44.8748 61.9494C45.2431 62.1359 45.5225 62.3654 45.656 62.619L45.8772 62.5025ZM41.6637 61.7973C41.6544 61.8252 41.6343 61.8614 41.6005 61.9089C41.567 61.9557 41.5254 62.0065 41.4772 62.0645C41.3836 62.1775 41.2679 62.3149 41.1819 62.4703C41.0948 62.6276 41.0332 62.8118 41.0545 63.0204C41.0758 63.2294 41.1785 63.4459 41.3879 63.6713L41.571 63.5011C41.3883 63.3045 41.3176 63.1366 41.3032 62.995C41.2887 62.8531 41.3291 62.7205 41.4006 62.5913C41.4732 62.4602 41.5727 62.3411 41.6697 62.2241C41.7169 62.1672 41.7644 62.1095 41.804 62.0541C41.8431 61.9993 41.8797 61.9394 41.9007 61.8768L41.6637 61.7973ZM41.3878 63.6712C41.8008 64.117 42.1559 64.2461 42.5099 64.3688C42.8533 64.488 43.1952 64.6012 43.6286 65.0048L43.799 64.8218C43.3259 64.3814 42.9428 64.2544 42.5918 64.1326C42.2513 64.0145 41.9425 63.9021 41.5712 63.5013L41.3878 63.6712ZM43.6284 65.0046C43.8829 65.2425 44.2537 65.3612 44.6506 65.3983C45.0498 65.4357 45.4903 65.3923 45.9013 65.2915C46.3118 65.1908 46.7004 65.0311 46.9934 64.83C47.2818 64.6322 47.5027 64.3763 47.5219 64.0773L47.2724 64.0613C47.2607 64.2444 47.1188 64.4409 46.852 64.6239C46.59 64.8036 46.2312 64.9532 45.8417 65.0487C45.4527 65.1441 45.0405 65.1838 44.6739 65.1494C44.3051 65.1149 43.997 65.007 43.7991 64.822L43.6284 65.0046Z" fill="#868686"/>
</g>
<defs>
<filter id="filter0_d_877_3345" x="0.462891" y="0.875" width="133.312" height="101.437" filterUnits="userSpaceOnUse" color-interpolation-filters="sRGB">
<feFlood flood-opacity="0" result="BackgroundImageFix"/>
<feColorMatrix in="SourceAlpha" type="matrix" values="0 0 0 0 0 0 0 0 0 0 0 0 0 0 0 0 0 0 127 0" result="hardAlpha"/>
<feOffset dy="2"/>
<feGaussianBlur stdDeviation="2"/>
<feColorMatrix type="matrix" values="0 0 0 0 0 0 0 0 0 0 0 0 0 0 0 0 0 0 0.01 0"/>
<feBlend mode="normal" in2="BackgroundImageFix" result="effect1_dropShadow_877_3345"/>
<feBlend mode="normal" in="SourceGraphic" in2="effect1_dropShadow_877_3345" result="shape"/>
</filter>
</defs>
</svg>
