<svg width="39" height="34" viewBox="0 0 39 34" fill="none" xmlns="http://www.w3.org/2000/svg">
<g filter="url(#filter0_d_877_3309)">
<path fill-rule="evenodd" clip-rule="evenodd" d="M30.5252 8.34878C30.2539 8.395 30.0262 7.98605 29.4373 7.98605C28.8501 7.98605 28.3973 7.71487 28.1243 7.35301C27.8529 6.9894 26.4509 6.90046 25.9973 6.9894C25.5436 7.08095 25.4084 6.22033 24.9538 6.31101C24.5019 6.4017 24.3667 5.72244 24.3667 5.36058C24.3667 4.99959 23.8685 5.6335 23.4611 5.81487C23.0537 5.99536 22.9167 5.40679 22.8722 5.13561C22.8269 4.86356 22.012 4.59238 21.6037 4.36654C21.1963 4.13984 20.7435 3.41524 20.562 3.73263C20.3823 4.04828 19.8833 3.27921 19.8379 2.96095C19.8083 2.75255 19.666 2.81794 19.5744 2.69238C19.4192 2.72377 19.2656 2.74296 19.1129 2.73511C18.3879 2.70546 17.7546 3.27921 17.8767 4.48775C17.9962 5.69279 16.999 5.814 15.7619 5.90468C14.5239 5.99536 14.9471 6.96062 14.4341 7.35301C13.9211 7.74626 12.1082 7.14286 11.8674 6.4793C11.6266 5.81574 9.99603 6.4793 10.6896 7.26145C11.3849 8.04708 11.3535 9.13355 10.9627 9.43437C10.5701 9.73694 9.72383 8.95218 9.17944 9.34369C8.63591 9.73607 8.60625 8.98183 7.9432 8.74291C7.27841 8.49963 7.00534 9.04199 5.9497 8.95218C4.89144 8.86149 4.28859 9.46402 4.68119 9.91657C5.07291 10.3691 4.62099 10.7911 4.92198 11.1844C5.22471 11.5768 6.61275 11.5149 7.63873 12.0598C8.66645 12.6013 8.90637 12.1497 9.4211 12.5429C9.93496 12.9353 10.0562 12.6929 10.085 13.4489C10.1164 14.2022 10.6887 14.9251 11.6851 15.1989C12.6822 15.4709 11.9267 16.1336 12.2286 16.7989C12.5304 17.4625 11.7758 18.4269 11.9267 19.2422C12.0785 20.0575 11.4434 22.6812 10.9618 22.9236C10.9304 22.941 10.8807 22.941 10.8405 22.9471C11.2933 23.173 11.7688 23.3692 12.0026 23.5226C12.4441 23.8191 13.3976 24.1094 13.9865 24.4774C14.5728 24.8463 15.6023 24.7739 15.6023 24.3301C15.6023 23.8915 16.1894 24.1853 16.5576 24.5515C16.924 24.9186 18.3208 24.9927 18.9821 25.1384C19.5395 25.2622 20.3518 25.1846 21.0794 25.1994C21.0506 25.0346 21.0148 24.8628 20.9564 24.6745C20.5943 23.4973 21.65 22.8033 22.6463 22.6515C23.6417 22.5016 25.8176 23.1049 26.3916 23.4659C26.9639 23.8295 27.7509 23.7389 28.7472 22.682C29.2497 22.1493 29.6615 21.9548 30.0262 21.8502C30.0532 21.6139 30.1762 21.3724 30.2556 21.1596C30.3917 20.7969 29.7574 20.8867 29.3038 20.8413C28.851 20.7969 28.5352 20.3443 28.851 19.8456C29.1686 19.3477 28.5797 19.3023 28.2621 18.8053C27.9445 18.3083 28.3973 18.4435 28.6687 18.3083C28.9409 18.1723 29.3038 17.6282 29.0761 17.493C28.851 17.3579 28.6687 17.0405 28.851 16.4972C29.0325 15.9523 28.4889 15.9069 28.4889 15.4997C28.4889 15.0925 27.9908 14.9111 27.5825 15.409C27.1751 15.9061 27.0381 15.5451 27.3094 14.7307C27.5825 13.9136 28.5334 13.5526 28.6233 13.101C28.7132 12.6475 29.2575 12.2403 29.6641 12.2403C30.0724 12.2403 29.9808 11.2908 30.1186 10.7013C30.2539 10.1136 30.3446 9.52506 30.9344 9.02717C31.5224 8.53189 30.7974 8.30431 30.5252 8.34878ZM33.7575 23.7101C33.4243 23.6804 33.3335 24.2812 32.4899 24.7974C31.6445 25.3101 32.496 27.6261 33.3335 27.5118C34.2086 27.3915 34.0882 23.7406 33.7575 23.7101Z" fill="white"/>
<path d="M30.5252 8.34878L30.505 8.22542L30.5042 8.22556L30.5252 8.34878ZM28.1243 7.35301L28.0241 7.42776L28.0245 7.4283L28.1243 7.35301ZM25.9973 6.9894L25.9732 6.86673L25.9725 6.86687L25.9973 6.9894ZM24.9538 6.31101L24.9294 6.18843L24.9293 6.18846L24.9538 6.31101ZM23.4611 5.81487L23.5118 5.92916L23.512 5.92907L23.4611 5.81487ZM22.8722 5.13561L22.9956 5.11537L22.9955 5.11505L22.8722 5.13561ZM21.6037 4.36654L21.5429 4.47577L21.5432 4.47593L21.6037 4.36654ZM20.562 3.73263L20.4535 3.67059L20.4534 3.67078L20.562 3.73263ZM19.8379 2.96095L19.7142 2.97856L19.7142 2.97859L19.8379 2.96095ZM19.5744 2.69238L19.6754 2.61871L19.6282 2.55399L19.5497 2.56986L19.5744 2.69238ZM19.1129 2.73511L19.1193 2.61027L19.118 2.61021L19.1129 2.73511ZM17.8767 4.48775L18.0011 4.47541L18.0011 4.47518L17.8767 4.48775ZM15.7619 5.90468L15.7711 6.02935L15.7711 6.02935L15.7619 5.90468ZM14.4341 7.35301L14.3581 7.25372L14.358 7.2538L14.4341 7.35301ZM10.6896 7.26145L10.7832 7.1786L10.7831 7.17851L10.6896 7.26145ZM10.9627 9.43437L10.8864 9.33532L10.8864 9.33536L10.9627 9.43437ZM9.17944 9.34369L9.10646 9.24221L9.10627 9.24234L9.17944 9.34369ZM7.9432 8.74291L7.90025 8.8603L7.90083 8.86051L7.9432 8.74291ZM5.9497 8.95218L5.93903 9.07672L5.9391 9.07673L5.9497 8.95218ZM4.68119 9.91657L4.7757 9.83476L4.77561 9.83465L4.68119 9.91657ZM4.92198 11.1844L4.82271 11.2604L4.82301 11.2608L4.92198 11.1844ZM7.63873 12.0598L7.58009 12.1702L7.58046 12.1704L7.63873 12.0598ZM9.4211 12.5429L9.34521 12.6422L9.34524 12.6423L9.4211 12.5429ZM10.085 13.4489L9.96011 13.4536L9.96013 13.4541L10.085 13.4489ZM11.6851 15.1989L11.6519 15.3194L11.6522 15.3195L11.6851 15.1989ZM12.2286 16.7989L12.1147 16.8506L12.1148 16.8507L12.2286 16.7989ZM11.9267 19.2422L11.8038 19.2649L11.8038 19.2651L11.9267 19.2422ZM10.9618 22.9236L10.9056 22.8118L10.9011 22.8143L10.9618 22.9236ZM10.8405 22.9471L10.8217 22.8235L10.4317 22.8829L10.7848 23.059L10.8405 22.9471ZM12.0026 23.5226L12.0723 23.4188L12.0712 23.4181L12.0026 23.5226ZM13.9865 24.4774L14.0531 24.3716L14.0528 24.3714L13.9865 24.4774ZM16.5576 24.5515L16.6461 24.4632L16.6457 24.4629L16.5576 24.5515ZM18.9821 25.1384L19.0092 25.0163L19.0089 25.0163L18.9821 25.1384ZM21.0794 25.1994L21.0768 25.3244L21.2287 25.3275L21.2025 25.1779L21.0794 25.1994ZM20.9564 24.6745L20.8369 24.7112L20.837 24.7115L20.9564 24.6745ZM22.6463 22.6515L22.6276 22.5279L22.6275 22.528L22.6463 22.6515ZM26.3916 23.4659L26.4586 23.3604L26.4582 23.3601L26.3916 23.4659ZM28.7472 22.682L28.6562 22.5963L28.6562 22.5963L28.7472 22.682ZM30.0262 21.8502L30.0606 21.9704L30.1409 21.9473L30.1503 21.8644L30.0262 21.8502ZM30.2556 21.1596L30.1386 21.1157L30.1385 21.1159L30.2556 21.1596ZM29.3038 20.8413L29.3162 20.717L29.316 20.7169L29.3038 20.8413ZM28.851 19.8456L28.7456 19.7783L28.7454 19.7787L28.851 19.8456ZM28.6687 18.3083L28.7244 18.4202L28.7245 18.4201L28.6687 18.3083ZM29.0761 17.493L29.0117 17.6002L29.0123 17.6005L29.0761 17.493ZM28.851 16.4972L28.9695 16.537L28.9696 16.5367L28.851 16.4972ZM27.5825 15.409L27.4858 15.3298L27.4858 15.3298L27.5825 15.409ZM27.3094 14.7307L27.1909 14.691L27.1908 14.6911L27.3094 14.7307ZM28.6233 13.101L28.7459 13.1254L28.7459 13.1253L28.6233 13.101ZM30.1186 10.7013L30.2404 10.7298L30.2405 10.7294L30.1186 10.7013ZM30.9344 9.02717L30.8538 8.93156L30.8537 8.93165L30.9344 9.02717ZM33.7575 23.7101L33.769 23.5856L33.7686 23.5856L33.7575 23.7101ZM32.4899 24.7974L32.5547 24.9043L32.5551 24.904L32.4899 24.7974ZM33.3335 27.5118L33.3504 27.6357L33.3506 27.6357L33.3335 27.5118ZM30.5042 8.22556C30.4716 8.2311 30.4337 8.22487 30.3761 8.19819C30.3147 8.16973 30.2529 8.12935 30.1636 8.07692C29.9915 7.97598 29.7643 7.86105 29.4373 7.86105V8.11105C29.6991 8.11105 29.8803 8.20059 30.0371 8.29257C30.1121 8.3366 30.195 8.38979 30.271 8.42501C30.3508 8.46202 30.4431 8.48957 30.5462 8.47201L30.5042 8.22556ZM29.4373 7.86105C28.8914 7.86105 28.4747 7.60994 28.224 7.27771L28.0245 7.4283C28.3199 7.8198 28.8089 8.11105 29.4373 8.11105V7.86105ZM28.2244 7.27825C28.132 7.15434 27.9607 7.07085 27.7803 7.01154C27.5934 6.95011 27.3701 6.90637 27.145 6.87751C26.6983 6.82022 26.2191 6.81853 25.9732 6.86673L26.0213 7.11206C26.2291 7.07133 26.6778 7.06964 27.1132 7.12548C27.3293 7.15319 27.5357 7.1943 27.7022 7.24904C27.8752 7.30589 27.9809 7.36987 28.0241 7.42776L28.2244 7.27825ZM25.9725 6.86687C25.9052 6.88046 25.8483 6.86204 25.7845 6.8114C25.7154 6.7565 25.6513 6.674 25.5751 6.57453C25.504 6.4816 25.4208 6.37175 25.3226 6.29377C25.2192 6.21156 25.089 6.15658 24.9294 6.18843L24.9783 6.4336C25.0459 6.4201 25.1032 6.4387 25.1671 6.48949C25.2363 6.54451 25.3005 6.62709 25.3766 6.72654C25.4478 6.81944 25.531 6.92926 25.629 7.00715C25.7324 7.08929 25.8625 7.14412 26.022 7.11193L25.9725 6.86687ZM24.9293 6.18846C24.8513 6.2041 24.7941 6.18698 24.746 6.15128C24.6935 6.11234 24.6454 6.04591 24.6051 5.95485C24.5241 5.7722 24.4917 5.5307 24.4917 5.36058H24.2417C24.2417 5.55232 24.2769 5.83138 24.3765 6.05615C24.4265 6.16881 24.497 6.2778 24.597 6.35202C24.7013 6.42949 24.8305 6.46327 24.9784 6.43357L24.9293 6.18846ZM24.4917 5.36058C24.4917 5.30833 24.4842 5.23999 24.4395 5.18778C24.3841 5.12302 24.3079 5.12035 24.256 5.1316C24.2079 5.14203 24.161 5.1671 24.1214 5.19184C24.0797 5.21789 24.0351 5.25069 23.9901 5.28555C23.945 5.32053 23.8967 5.3598 23.8481 5.39901C23.7991 5.43863 23.7492 5.47872 23.6987 5.51721C23.5965 5.59516 23.4984 5.66147 23.4103 5.70067L23.512 5.92907C23.6276 5.87759 23.7445 5.79664 23.8503 5.71601C23.9038 5.6752 23.9561 5.63316 24.0053 5.59348C24.0549 5.55338 24.1007 5.51616 24.1433 5.48313C24.186 5.44998 24.2228 5.42323 24.2538 5.40388C24.2869 5.38321 24.3041 5.37699 24.309 5.37593C24.3101 5.37568 24.276 5.38129 24.2495 5.35025C24.2337 5.33176 24.2417 5.32258 24.2417 5.36058H24.4917ZM23.4105 5.70058C23.3368 5.73323 23.2905 5.72617 23.2576 5.71035C23.2188 5.6917 23.1781 5.65073 23.1391 5.58251C23.0603 5.445 23.0176 5.2495 22.9956 5.11537L22.7489 5.15585C22.7714 5.29291 22.8194 5.52728 22.9221 5.70673C22.9738 5.79699 23.0465 5.88627 23.1493 5.93568C23.2581 5.98793 23.3817 5.98676 23.5118 5.92916L23.4105 5.70058ZM22.9955 5.11505C22.9756 4.99563 22.8797 4.90208 22.7875 4.83262C22.6891 4.75837 22.5619 4.68783 22.4299 4.62191C22.2972 4.55566 22.153 4.49091 22.0197 4.43003C21.8846 4.36834 21.7614 4.31094 21.6642 4.25716L21.5432 4.47593C21.6501 4.53507 21.7819 4.59625 21.9159 4.65743C22.0516 4.71941 22.1905 4.7818 22.3182 4.84558C22.4466 4.90969 22.5572 4.97208 22.6371 5.03225C22.7232 5.0972 22.7462 5.13957 22.7489 5.15617L22.9955 5.11505ZM21.6645 4.25732C21.5764 4.2083 21.4808 4.12915 21.3795 4.03544C21.3294 3.98914 21.2797 3.941 21.2298 3.89277C21.1803 3.84499 21.1306 3.79699 21.0822 3.75305C20.99 3.66919 20.887 3.58462 20.7865 3.54833C20.7333 3.5291 20.6688 3.51894 20.6029 3.54079C20.5354 3.56314 20.487 3.6121 20.4535 3.67059L20.6706 3.79467C20.6825 3.77381 20.6879 3.77599 20.6815 3.7781C20.6767 3.77971 20.6805 3.77586 20.7016 3.78347C20.7498 3.80085 20.8195 3.85209 20.9141 3.93804C20.9591 3.97902 21.0063 4.02443 21.0561 4.07254C21.1054 4.1202 21.1572 4.17044 21.2097 4.219C21.3135 4.315 21.4273 4.41144 21.5429 4.47577L21.6645 4.25732ZM20.4534 3.67078C20.4428 3.68948 20.4391 3.68511 20.4479 3.68268C20.4543 3.68089 20.4509 3.68502 20.4307 3.67595C20.3862 3.65597 20.3209 3.59926 20.2475 3.50679C20.177 3.41803 20.1093 3.3094 20.0567 3.20427C20.0031 3.09696 19.9702 3.00328 19.9617 2.94331L19.7142 2.97859C19.7283 3.07774 19.7748 3.19955 19.8331 3.31609C19.8925 3.43481 19.9693 3.55839 20.0517 3.66223C20.1312 3.76235 20.2272 3.85861 20.3282 3.904C20.3808 3.92761 20.4462 3.94252 20.5145 3.92363C20.5852 3.90408 20.6364 3.85469 20.6707 3.79448L20.4534 3.67078ZM19.9617 2.94333C19.9522 2.87658 19.9319 2.81994 19.897 2.77351C19.8618 2.72678 19.8194 2.70085 19.7854 2.68383C19.7104 2.6463 19.6978 2.64932 19.6754 2.61871L19.4735 2.76606C19.5427 2.861 19.647 2.89411 19.6734 2.90737C19.6902 2.91574 19.6946 2.9204 19.6973 2.92393C19.7002 2.92778 19.7088 2.94111 19.7142 2.97856L19.9617 2.94333ZM19.5497 2.56986C19.3999 2.60014 19.2576 2.61738 19.1193 2.61027L19.1065 2.85994C19.2736 2.86853 19.4384 2.8474 19.5992 2.8149L19.5497 2.56986ZM19.118 2.61021C18.7198 2.59393 18.3406 2.74414 18.0797 3.06881C17.8199 3.39212 17.689 3.87346 17.7523 4.50032L18.0011 4.47518C17.9423 3.89349 18.067 3.4837 18.2746 3.22541C18.4811 2.96848 18.781 2.84664 19.1078 2.86L19.118 2.61021ZM17.7523 4.50008C17.7805 4.78448 17.7416 4.99177 17.6601 5.14651C17.579 5.30032 17.4493 5.41471 17.2727 5.50204C16.9098 5.68137 16.378 5.73419 15.7528 5.78002L15.7711 6.02935C16.383 5.98449 16.9683 5.93137 17.3834 5.72616C17.5957 5.62122 17.7703 5.4737 17.8812 5.26303C17.9917 5.05329 18.0326 4.79353 18.0011 4.47541L17.7523 4.50008ZM15.7528 5.78001C15.427 5.80388 15.1955 5.88642 15.0282 6.01492C14.8604 6.1438 14.7701 6.30893 14.7091 6.47183C14.6788 6.55258 14.655 6.63486 14.633 6.71199C14.6106 6.79067 14.5903 6.86328 14.566 6.93239C14.5176 7.06962 14.4584 7.177 14.3581 7.25372L14.51 7.45229C14.6662 7.33282 14.7465 7.1724 14.8018 7.01545C14.8293 6.93748 14.8518 6.8564 14.8735 6.78046C14.8955 6.70296 14.9169 6.62968 14.9432 6.55958C14.9952 6.42079 15.0634 6.30308 15.1804 6.2132C15.298 6.12295 15.4778 6.05082 15.7711 6.02935L15.7528 5.78001ZM14.358 7.2538C14.2659 7.3244 14.0942 7.3621 13.8564 7.35085C13.6247 7.33988 13.3541 7.28355 13.0886 7.19401C12.8233 7.10452 12.5687 6.98376 12.3681 6.84762C12.1637 6.70893 12.0316 6.56539 11.9849 6.43666L11.7499 6.52194C11.8236 6.725 12.0084 6.90571 12.2277 7.0545C12.4507 7.20583 12.7266 7.33576 13.0087 7.4309C13.2907 7.52601 13.5846 7.58826 13.8446 7.60057C14.0985 7.61258 14.3457 7.57824 14.5101 7.45221L14.358 7.2538ZM11.9849 6.43666C11.9034 6.21201 11.7042 6.10948 11.4976 6.0873C11.2932 6.06535 11.0641 6.11766 10.8709 6.2171C10.6789 6.31593 10.5034 6.47153 10.4298 6.67308C10.3523 6.88523 10.3977 7.12061 10.5961 7.34438L10.7831 7.17851C10.6348 7.01122 10.6239 6.87034 10.6646 6.75883C10.7092 6.63673 10.8263 6.52125 10.9853 6.43937C11.1432 6.3581 11.3235 6.32004 11.4709 6.33587C11.6161 6.35145 11.711 6.41481 11.7499 6.52194L11.9849 6.43666ZM10.596 7.34429C10.9243 7.71519 11.0805 8.15681 11.1088 8.53896C11.123 8.73003 11.1049 8.90296 11.063 9.04242C11.0206 9.18328 10.9568 9.28119 10.8864 9.33532L11.0389 9.53343C11.164 9.43714 11.2507 9.28643 11.3024 9.11442C11.3545 8.94101 11.3742 8.73682 11.3581 8.52047C11.326 8.08777 11.1503 7.59335 10.7832 7.1786L10.596 7.34429ZM10.8864 9.33536C10.8297 9.37901 10.7469 9.39236 10.6164 9.36965C10.4852 9.3468 10.3376 9.29374 10.1675 9.23708C10.0036 9.1825 9.82165 9.12588 9.64313 9.11069C9.46169 9.09525 9.27402 9.1217 9.10646 9.24221L9.25242 9.44517C9.35705 9.36992 9.47932 9.34765 9.62193 9.35979C9.76746 9.37217 9.92374 9.41942 10.0885 9.47428C10.247 9.52705 10.4187 9.58898 10.5735 9.61594C10.7292 9.64303 10.8993 9.64102 11.039 9.53338L10.8864 9.33536ZM9.10627 9.24234C8.98471 9.3301 8.91727 9.33551 8.8765 9.32674C8.82801 9.31631 8.7756 9.27832 8.69748 9.1947C8.55281 9.03984 8.35347 8.75787 7.98558 8.62531L7.90083 8.86051C8.19598 8.96686 8.343 9.18147 8.5148 9.36537C8.59492 9.45113 8.69328 9.54306 8.82394 9.57116C8.96232 9.60092 9.1024 9.55347 9.2526 9.44504L9.10627 9.24234ZM7.98616 8.62552C7.61008 8.4879 7.33866 8.57684 7.05368 8.67135C6.77389 8.76413 6.46177 8.87029 5.9603 8.82763L5.9391 9.07673C6.49328 9.12388 6.8455 9.00377 7.13237 8.90864C7.41403 8.81524 7.61154 8.75465 7.90025 8.8603L7.98616 8.62552ZM5.96037 8.82763C5.40909 8.78039 4.95759 8.91171 4.69113 9.13482C4.55736 9.24682 4.46485 9.38719 4.44134 9.54363C4.41737 9.70311 4.4679 9.86146 4.58677 9.99848L4.77561 9.83465C4.69818 9.7454 4.67685 9.65873 4.68856 9.58079C4.70073 9.49981 4.75147 9.41036 4.85162 9.3265C5.053 9.15789 5.43206 9.03328 5.93903 9.07672L5.96037 8.82763ZM4.58668 9.99837C4.74559 10.182 4.73712 10.3527 4.71157 10.5572C4.6868 10.7555 4.63559 11.0159 4.82272 11.2604L5.02124 11.1084C4.90737 10.9596 4.93164 10.8124 4.95964 10.5882C4.98687 10.3703 5.00851 10.1037 4.7757 9.83476L4.58668 9.99837ZM4.82301 11.2608C4.92446 11.3922 5.10219 11.471 5.29325 11.5296C5.48943 11.5898 5.7305 11.6371 5.98483 11.6875C6.50097 11.7898 7.08604 11.9078 7.58009 12.1702L7.69736 11.9494C7.16543 11.6669 6.54349 11.5434 6.03344 11.4423C5.77468 11.391 5.54785 11.3462 5.36656 11.2906C5.18017 11.2334 5.07086 11.1727 5.02095 11.108L4.82301 11.2608ZM7.58046 12.1704C8.11541 12.4523 8.45258 12.4778 8.72034 12.4819C8.85396 12.484 8.94918 12.4817 9.04628 12.5004C9.13727 12.518 9.23107 12.555 9.34521 12.6422L9.49699 12.4436C9.35376 12.3342 9.22455 12.2802 9.09367 12.2549C8.9689 12.2308 8.84339 12.2338 8.72422 12.232C8.48641 12.2283 8.18976 12.2089 7.69699 11.9493L7.58046 12.1704ZM9.34524 12.6423C9.48117 12.746 9.59165 12.8081 9.67934 12.8543C9.77272 12.9035 9.81872 12.925 9.85428 12.955C9.90438 12.9974 9.94538 13.0669 9.96011 13.4536L10.2099 13.4441C10.1959 13.0749 10.1618 12.8876 10.0156 12.7641C9.95305 12.7112 9.87059 12.6725 9.79581 12.6331C9.71534 12.5907 9.61797 12.536 9.49696 12.4436L9.34524 12.6423ZM9.96013 13.4541C9.9942 14.2714 10.6132 15.034 11.6519 15.3194L11.7182 15.0784C10.7643 14.8162 10.2387 14.133 10.2099 13.4437L9.96013 13.4541ZM11.6522 15.3195C11.8878 15.3838 11.9941 15.4645 12.0443 15.5396C12.0943 15.6142 12.1055 15.7076 12.0931 15.8398C12.0869 15.9057 12.0757 15.9749 12.0634 16.0526C12.0514 16.1286 12.0388 16.2113 12.0319 16.2965C12.0182 16.4682 12.0273 16.6579 12.1147 16.8506L12.3424 16.7473C12.2789 16.6073 12.2693 16.4647 12.2811 16.3165C12.2871 16.2418 12.2983 16.1677 12.3104 16.0915C12.3221 16.017 12.3349 15.9387 12.342 15.8631C12.3561 15.7124 12.3504 15.5475 12.2521 15.4006C12.1541 15.2541 11.9809 15.15 11.718 15.0783L11.6522 15.3195ZM12.1148 16.8507C12.177 16.9875 12.1878 17.1461 12.1636 17.3296C12.1392 17.5142 12.0811 17.7129 12.0149 17.9266C11.9497 18.1368 11.8766 18.3616 11.8303 18.5843C11.7838 18.8079 11.762 19.0389 11.8038 19.2649L12.0496 19.2194C12.016 19.0378 12.0319 18.8425 12.075 18.6352C12.1183 18.4271 12.1867 18.2165 12.2536 18.0007C12.3194 17.7884 12.3839 17.5707 12.4115 17.3623C12.4391 17.153 12.4311 16.9422 12.3424 16.7472L12.1148 16.8507ZM11.8038 19.2651C11.838 19.4487 11.8292 19.7493 11.7837 20.1117C11.7387 20.4703 11.6595 20.8771 11.5606 21.267C11.4616 21.6572 11.3437 22.0267 11.2221 22.3117C11.1613 22.4544 11.1008 22.5727 11.0432 22.6608C10.9831 22.7527 10.9354 22.7969 10.9056 22.8119L11.018 23.0352C11.1086 22.9896 11.1862 22.8989 11.2524 22.7977C11.321 22.6927 11.388 22.5599 11.4521 22.4098C11.5803 22.1091 11.702 21.7264 11.8029 21.3285C11.904 20.9301 11.9853 20.513 12.0317 20.1428C12.0777 19.7764 12.0913 19.4433 12.0496 19.2193L11.8038 19.2651ZM10.9011 22.8143C10.9051 22.8121 10.9067 22.812 10.9035 22.8129C10.9005 22.8137 10.8955 22.8147 10.8874 22.8158C10.8792 22.8169 10.8705 22.8178 10.859 22.819C10.8484 22.8201 10.8351 22.8215 10.8217 22.8235L10.8593 23.0707C10.8661 23.0697 10.874 23.0688 10.885 23.0676C10.8951 23.0666 10.9084 23.0652 10.9215 23.0634C10.9454 23.0602 10.9853 23.0535 11.0225 23.0329L10.9011 22.8143ZM10.7848 23.059C11.0128 23.1727 11.2478 23.2796 11.4504 23.3751C11.6565 23.4722 11.8257 23.556 11.934 23.6271L12.0712 23.4181C11.9457 23.3357 11.7603 23.2447 11.557 23.1489C11.3502 23.0515 11.1211 22.9474 10.8963 22.8353L10.7848 23.059ZM11.9329 23.6264C12.166 23.7829 12.5284 23.9348 12.8905 24.0883C13.2601 24.2449 13.6359 24.4057 13.9203 24.5834L14.0528 24.3714C13.7483 24.1812 13.3529 24.0128 12.9881 23.8581C12.6158 23.7003 12.2807 23.5588 12.0723 23.4188L11.9329 23.6264ZM13.92 24.5832C14.2402 24.7847 14.6723 24.8623 15.0246 24.8331C15.2009 24.8184 15.3687 24.7761 15.4966 24.6994C15.6268 24.6212 15.7273 24.4983 15.7273 24.3301H15.4773C15.4773 24.3837 15.4491 24.4363 15.3679 24.485C15.2844 24.5351 15.1582 24.5711 15.0039 24.5839C14.6949 24.6096 14.3191 24.539 14.0531 24.3716L13.92 24.5832ZM15.7273 24.3301C15.7273 24.2478 15.7522 24.2416 15.7527 24.2414C15.7688 24.2338 15.8145 24.2282 15.9023 24.2575C16.0706 24.3138 16.2935 24.4651 16.4694 24.6402L16.6457 24.4629C16.4535 24.2717 16.1987 24.093 15.9815 24.0204C15.8764 23.9853 15.7523 23.9656 15.6468 24.0149C15.5257 24.0715 15.4773 24.193 15.4773 24.3301H15.7273ZM16.4691 24.6398C16.5831 24.754 16.7637 24.8348 16.9604 24.8968C17.1611 24.9602 17.3972 25.0095 17.6379 25.0512C17.879 25.0929 18.1293 25.1276 18.3579 25.1606C18.5883 25.1938 18.7951 25.2252 18.9552 25.2604L19.0089 25.0163C18.8384 24.9787 18.6226 24.9462 18.3936 24.9131C18.1629 24.8798 17.9172 24.8458 17.6805 24.8048C17.4436 24.7639 17.2205 24.7167 17.0356 24.6584C16.8467 24.5988 16.7153 24.5326 16.646 24.4632L16.4691 24.6398ZM18.955 25.2604C19.2486 25.3256 19.6034 25.3368 19.9676 25.3347C20.3383 25.3326 20.7143 25.317 21.0768 25.3244L21.0819 25.0744C20.7168 25.067 20.323 25.0827 19.9662 25.0848C19.6031 25.0868 19.273 25.0749 19.0092 25.0163L18.955 25.2604ZM21.2025 25.1779C21.1732 25.0102 21.1364 24.8327 21.0758 24.6374L20.837 24.7115C20.8933 24.8929 20.928 25.059 20.9563 25.2209L21.2025 25.1779ZM21.0758 24.6377C20.9097 24.0974 21.0669 23.6771 21.3799 23.3673C21.6992 23.0513 22.185 22.8482 22.6651 22.7751L22.6275 22.528C22.1112 22.6066 21.5711 22.8264 21.204 23.1896C20.8306 23.5591 20.641 24.0744 20.8369 24.7112L21.0758 24.6377ZM22.6649 22.7751C23.1367 22.704 23.909 22.8118 24.6479 22.9887C25.0142 23.0764 25.3671 23.1798 25.6629 23.2833C25.9613 23.3876 26.194 23.4893 26.3251 23.5718L26.4582 23.3601C26.3022 23.2621 26.0476 23.153 25.7455 23.0473C25.4408 22.9408 25.0798 22.8351 24.7061 22.7456C23.9646 22.568 23.1512 22.449 22.6276 22.5279L22.6649 22.7751ZM26.3246 23.5714C26.6398 23.7717 27.0161 23.8462 27.4439 23.7271C27.8668 23.6094 28.3313 23.3054 28.8381 22.7678L28.6562 22.5963C28.1667 23.1156 27.7396 23.3853 27.3769 23.4862C27.0191 23.5858 26.7157 23.5238 26.4586 23.3604L26.3246 23.5714ZM28.8381 22.7678C29.3251 22.2516 29.7173 22.0689 30.0606 21.9704L29.9917 21.73C29.6057 21.8408 29.1743 22.047 28.6562 22.5963L28.8381 22.7678ZM30.1503 21.8644C30.1621 21.7616 30.1954 21.6535 30.2382 21.5403C30.2595 21.484 30.2824 21.4281 30.3057 21.3716C30.3287 21.3156 30.352 21.2587 30.3727 21.2033L30.1385 21.1159C30.1195 21.1668 30.0977 21.2199 30.0744 21.2765C30.0515 21.3325 30.0271 21.3917 30.0043 21.4519C29.959 21.5717 29.9172 21.7025 29.902 21.836L30.1503 21.8644ZM30.3726 21.2035C30.3946 21.1449 30.4055 21.0839 30.3958 21.0238C30.3857 20.9611 30.355 20.9099 30.3124 20.8709C30.2349 20.8001 30.1202 20.7724 30.0187 20.7577C29.9114 20.7423 29.7868 20.7378 29.6668 20.7342C29.5437 20.7306 29.4242 20.7278 29.3162 20.717L29.2914 20.9657C29.4102 20.9776 29.5401 20.9806 29.6593 20.9841C29.7816 20.9878 29.8921 20.9921 29.983 21.0052C30.0797 21.0191 30.1265 21.0397 30.1438 21.0555C30.1486 21.0599 30.1486 21.0615 30.149 21.0635C30.1497 21.068 30.1506 21.0837 30.1386 21.1157L30.3726 21.2035ZM29.316 20.7169C29.1271 20.6984 28.9741 20.5957 28.8996 20.4552C28.8272 20.3188 28.8196 20.1289 28.9566 19.9124L28.7454 19.7787C28.5666 20.061 28.559 20.3468 28.6787 20.5724C28.7963 20.794 29.0276 20.9398 29.2916 20.9657L29.316 20.7169ZM28.9564 19.9128C29.0447 19.7743 29.0842 19.6452 29.0604 19.5196C29.0372 19.397 28.9586 19.3061 28.8794 19.2332C28.8391 19.196 28.7942 19.1596 28.75 19.1241C28.7049 19.0879 28.6598 19.0521 28.6144 19.0129C28.5243 18.9351 28.4378 18.8481 28.3674 18.738L28.1568 18.8726C28.2452 19.011 28.3514 19.1161 28.4511 19.2021C28.5006 19.2449 28.5497 19.284 28.5935 19.3191C28.6381 19.3549 28.6768 19.3864 28.71 19.417C28.7781 19.4798 28.8069 19.5247 28.8148 19.5661C28.8221 19.6046 28.816 19.6679 28.7456 19.7783L28.9564 19.9128ZM28.3674 18.738C28.2895 18.6161 28.2778 18.5596 28.2784 18.5413C28.2785 18.5378 28.2786 18.5418 28.2752 18.5459C28.2738 18.5476 28.2767 18.5432 28.2931 18.5363C28.3309 18.5204 28.3846 18.5117 28.4689 18.496C28.5442 18.4819 28.6392 18.4626 28.7244 18.4202L28.6129 18.1964C28.5625 18.2215 28.4991 18.236 28.4231 18.2502C28.3561 18.2627 28.2656 18.2766 28.196 18.3059C28.1587 18.3216 28.1171 18.3456 28.0841 18.3847C28.0491 18.4262 28.0305 18.4768 28.0286 18.5327C28.0251 18.6331 28.0759 18.746 28.1568 18.8726L28.3674 18.738ZM28.7245 18.4201C28.8901 18.3374 29.0648 18.1451 29.1686 17.962C29.221 17.8695 29.2628 17.7665 29.2713 17.6691C29.28 17.5682 29.2523 17.4522 29.1399 17.3855L29.0123 17.6005C29.0137 17.6014 29.026 17.6042 29.0222 17.6475C29.0182 17.6943 28.995 17.7612 28.9511 17.8387C28.8623 17.9954 28.7194 18.1432 28.6128 18.1965L28.7245 18.4201ZM29.1404 17.3859C29.0526 17.3331 28.9714 17.2442 28.9301 17.1111C28.8887 16.9776 28.8846 16.7899 28.9695 16.537L28.7325 16.4575C28.635 16.7478 28.6309 16.9905 28.6914 17.1852C28.7519 17.3804 28.8745 17.5178 29.0117 17.6002L29.1404 17.3859ZM28.9696 16.5367C29.0214 16.3811 29.0248 16.2498 28.991 16.1337C28.9579 16.0203 28.8927 15.9343 28.8324 15.8649C28.7014 15.714 28.6139 15.6443 28.6139 15.4997H28.3639C28.3639 15.7623 28.5482 15.9189 28.6436 16.0288C28.6965 16.0897 28.7332 16.1427 28.751 16.2037C28.768 16.2622 28.7713 16.3409 28.7324 16.4578L28.9696 16.5367ZM28.6139 15.4997C28.6139 15.2397 28.4503 15.0383 28.2126 14.9922C27.9786 14.9469 27.7093 15.0573 27.4858 15.3298L27.6791 15.4883C27.864 15.2629 28.0479 15.215 28.1651 15.2377C28.2785 15.2597 28.3639 15.3525 28.3639 15.4997H28.6139ZM27.4858 15.3298C27.3862 15.4513 27.3196 15.4983 27.2881 15.5094C27.2763 15.5136 27.2845 15.5075 27.2999 15.515C27.3142 15.5219 27.3134 15.5301 27.3077 15.5158C27.2943 15.4819 27.2859 15.4028 27.3042 15.2668C27.3218 15.1361 27.3618 14.9688 27.428 14.7702L27.1908 14.6911C27.1213 14.8998 27.0767 15.0829 27.0564 15.2334C27.0369 15.3786 27.0372 15.5114 27.0751 15.6075C27.0951 15.6581 27.1305 15.7108 27.1911 15.7401C27.2528 15.7699 27.3173 15.7643 27.3715 15.7451C27.4718 15.7096 27.5751 15.6152 27.6791 15.4883L27.4858 15.3298ZM27.428 14.7703C27.5529 14.3966 27.8348 14.1213 28.1176 13.8727C28.255 13.7519 28.3977 13.6331 28.5085 13.518C28.6187 13.4035 28.7162 13.2746 28.7459 13.1254L28.5007 13.0766C28.4855 13.1531 28.4303 13.2388 28.3284 13.3445C28.2272 13.4497 28.0982 13.5569 27.9525 13.6849C27.6691 13.934 27.339 14.2477 27.1909 14.691L27.428 14.7703ZM28.7459 13.1253C28.7833 12.9365 28.9195 12.745 29.103 12.5982C29.2871 12.451 29.498 12.3653 29.6641 12.3653V12.1153C29.4236 12.1153 29.1591 12.2332 28.9469 12.403C28.734 12.5732 28.5531 12.812 28.5007 13.0767L28.7459 13.1253ZM29.6641 12.3653C29.8288 12.3653 29.935 12.2636 29.9989 12.1403C30.0602 12.0224 30.0935 11.8675 30.1165 11.7099C30.1397 11.5507 30.1544 11.3715 30.1713 11.2029C30.1884 11.0312 30.2079 10.8685 30.2404 10.7298L29.9969 10.6729C29.9604 10.8289 29.9397 11.0059 29.9225 11.178C29.905 11.3533 29.8912 11.522 29.8691 11.6738C29.8467 11.8273 29.8178 11.9467 29.777 12.0252C29.739 12.0984 29.7035 12.1153 29.6641 12.1153V12.3653ZM30.2405 10.7294C30.3778 10.1324 30.4626 9.58902 31.015 9.12268L30.8537 8.93165C30.2266 9.46109 30.1299 10.0948 29.9968 10.6733L30.2405 10.7294ZM31.0149 9.12277C31.1712 8.99111 31.265 8.85755 31.2809 8.72037C31.2979 8.57372 31.2227 8.46165 31.1304 8.38791C31.0401 8.31581 30.9231 8.27004 30.8153 8.24469C30.7077 8.21941 30.5941 8.21087 30.505 8.22542L30.5453 8.47215C30.5924 8.46446 30.6714 8.46769 30.758 8.48805C30.8443 8.50834 30.9228 8.54209 30.9743 8.58324C31.0238 8.62274 31.0365 8.65765 31.0326 8.69158C31.0276 8.73497 30.9915 8.81559 30.8538 8.93156L31.0149 9.12277ZM33.7686 23.5856C33.6398 23.5741 33.5391 23.6271 33.455 23.701C33.3762 23.7702 33.2988 23.8699 33.2177 23.9707C33.051 24.1779 32.8281 24.4439 32.4247 24.6908L32.5551 24.904C32.9953 24.6347 33.2397 24.3422 33.4125 24.1274C33.5012 24.0172 33.5617 23.94 33.62 23.8888C33.673 23.8422 33.7087 23.8312 33.7465 23.8346L33.7686 23.5856ZM32.4251 24.6905C32.1661 24.8476 32.0506 25.135 32.0228 25.4427C31.9949 25.7519 32.0523 26.1037 32.1622 26.4296C32.272 26.7556 32.4378 27.0662 32.6358 27.2907C32.8301 27.511 33.0787 27.6727 33.3504 27.6357L33.3166 27.388C33.1696 27.408 32.9977 27.3231 32.8232 27.1253C32.6524 26.9316 32.5011 26.6526 32.3991 26.3498C32.297 26.047 32.2478 25.7308 32.2718 25.4652C32.2959 25.198 32.391 25.0036 32.5547 24.9043L32.4251 24.6905ZM33.3506 27.6357C33.506 27.6143 33.6268 27.5156 33.7182 27.388C33.8093 27.2607 33.88 27.0933 33.9353 26.9069C34.0461 26.5331 34.1034 26.0529 34.1226 25.5824C34.1418 25.1108 34.123 24.6408 34.0778 24.2844C34.0554 24.107 34.0258 23.9526 33.9891 23.8389C33.971 23.7827 33.949 23.7296 33.9211 23.6875C33.8962 23.6499 33.8479 23.5929 33.769 23.5856L33.7461 23.8346C33.7085 23.8311 33.6999 23.8062 33.7127 23.8255C33.7224 23.8403 33.7361 23.8689 33.7512 23.9157C33.7809 24.0079 33.8082 24.1447 33.8298 24.3158C33.8729 24.6562 33.8915 25.1122 33.8728 25.5722C33.854 26.0333 33.798 26.4903 33.6956 26.8358C33.6443 27.009 33.5834 27.1469 33.5149 27.2424C33.4467 27.3376 33.3798 27.3793 33.3165 27.388L33.3506 27.6357Z" fill="#868686"/>
</g>
<defs>
<filter id="filter0_d_877_3309" x="0.435547" y="0.553711" width="37.6953" height="33.0869" filterUnits="userSpaceOnUse" color-interpolation-filters="sRGB">
<feFlood flood-opacity="0" result="BackgroundImageFix"/>
<feColorMatrix in="SourceAlpha" type="matrix" values="0 0 0 0 0 0 0 0 0 0 0 0 0 0 0 0 0 0 127 0" result="hardAlpha"/>
<feOffset dy="2"/>
<feGaussianBlur stdDeviation="2"/>
<feColorMatrix type="matrix" values="0 0 0 0 0 0 0 0 0 0 0 0 0 0 0 0 0 0 0.01 0"/>
<feBlend mode="normal" in2="BackgroundImageFix" result="effect1_dropShadow_877_3309"/>
<feBlend mode="normal" in="SourceGraphic" in2="effect1_dropShadow_877_3309" result="shape"/>
</filter>
</defs>
</svg>
