<svg width="35" height="48" viewBox="0 0 35 48" fill="none" xmlns="http://www.w3.org/2000/svg">
<g filter="url(#filter0_d_877_3331)">
<path fill-rule="evenodd" clip-rule="evenodd" d="M28.7439 38.7994C28.7692 38.7575 28.7927 38.7383 28.8137 38.7322C28.7596 38.3625 28.7639 38.0207 28.9864 37.8934C29.4078 37.6528 30.0734 36.6875 30.0734 36.2637C30.0734 35.8434 29.2883 35.8434 29.2883 35.2993C29.2883 34.757 30.1328 33.8501 29.7707 33.5484C29.4087 33.2476 30.3151 32.3408 30.2549 31.8586C30.1938 31.3747 29.8327 29.2017 30.0743 28.9619C30.3151 28.7213 30.8595 28.5408 30.6178 27.8764C30.4268 27.3506 29.5666 25.8944 29.2097 25.005C28.5371 24.9099 27.7153 24.9248 27.2354 25.1C26.5715 25.3416 26.753 23.2279 26.753 22.444C26.753 21.6593 26.0891 22.0813 25.8474 22.6254C25.6049 23.1678 24.6399 22.9262 23.6733 22.9262C22.7058 22.9262 23.19 21.7186 22.5863 21.7787C21.9825 21.8407 21.4992 21.5982 21.5603 20.9957C21.6196 20.3915 21.1363 19.9093 20.714 19.2448C20.2918 18.5804 19.8076 17.9186 20.1705 17.4957C20.5334 17.0719 19.9306 16.7109 20.4732 16.1677C21.0167 15.6245 21.5611 15.8049 21.3797 15.0812C21.1991 14.3575 21.9825 13.9355 22.0436 13.1498C22.1038 12.3651 23.0094 12.6057 23.8548 11.9439C24.7001 11.2777 25.6049 11.6405 26.3298 11.0371C27.0112 10.4703 27.478 10.9603 27.9822 10.9228C27.6786 10.5008 26.9362 10.2898 26.7669 9.95585C26.5541 9.52684 27.5486 8.74644 27.833 8.24768C28.1175 7.75328 26.6954 7.18301 26.3403 7.04001C25.9844 6.89963 25.3449 7.3234 24.9889 7.11151C24.6338 6.89963 24.065 7.04001 23.7815 7.25452C23.4979 7.4664 21.364 7.6094 21.4355 6.96939C21.5062 6.33024 20.5823 6.11835 20.6538 5.68935C20.7254 5.26558 20.1557 4.48169 19.374 4.41193C18.5923 4.3413 18.7345 3.06214 18.1665 2.70812C17.8428 2.50495 17.042 2.62441 16.4077 2.76305C17.0899 3.53299 17.3333 3.85387 16.8814 4.21661C16.2812 4.69706 16.8814 4.78164 15.749 6.291C14.6157 7.80385 12.6798 8.17879 11.735 8.46392C10.7919 8.74644 10.4132 10.4895 9.89413 11.7189C9.37504 12.9449 8.95017 12.5203 8.43107 11.8122C7.91197 11.1033 7.48623 11.9535 6.87204 11.3885C6.25872 10.8243 6.54226 10.8243 6.87204 10.3508C7.05088 10.0971 6.85284 9.69077 6.47683 9.301C5.80331 9.43965 5.12107 10.3726 4.78606 11.0833C4.42313 11.8541 5.42031 13.3469 5.55641 13.8893C5.69251 14.4334 5.01289 13.9355 4.92216 14.4334C4.83142 14.9295 6.41663 15.6541 7.14075 16.1965C7.86661 16.7406 8.49999 18.2813 9.17874 19.0042C9.85837 19.7288 9.9046 20.3618 10.6287 22.1275C11.3537 23.8924 12.8028 26.8806 13.7991 28.1475C14.7963 29.4145 15.2482 30.4111 15.0223 30.7739C14.7963 31.1366 15.0676 32.1324 15.7918 32.6303C16.5168 33.1264 17.1048 33.9426 19.0075 34.8939C20.9094 35.8443 24.3965 37.6536 24.8956 38.5151C25.3937 39.3731 27.0243 40.1884 27.341 40.3707C27.4274 40.4204 27.4544 40.5625 27.4562 40.7517C27.6437 40.5974 27.8008 40.4788 27.9002 40.4308C28.5022 40.1283 28.5624 39.1028 28.7439 38.7994Z" fill="white"/>
<path fill-rule="evenodd" clip-rule="evenodd" d="M28.7439 38.7994C28.7692 38.7575 28.7927 38.7383 28.8137 38.7322C28.7596 38.3625 28.7639 38.0207 28.9864 37.8934C29.4078 37.6528 30.0734 36.6875 30.0734 36.2637C30.0734 35.8434 29.2883 35.8434 29.2883 35.2993C29.2883 34.757 30.1328 33.8501 29.7707 33.5484C29.4087 33.2476 30.3151 32.3408 30.2549 31.8586C30.1938 31.3747 29.8327 29.2017 30.0743 28.9619C30.3151 28.7213 30.8595 28.5408 30.6178 27.8764C30.4268 27.3506 29.5666 25.8944 29.2097 25.005C28.5371 24.9099 27.7153 24.9248 27.2354 25.1C26.5715 25.3416 26.753 23.2279 26.753 22.444C26.753 21.6593 26.0891 22.0813 25.8474 22.6254C25.6049 23.1678 24.6399 22.9262 23.6733 22.9262C22.7058 22.9262 23.19 21.7186 22.5863 21.7787C21.9825 21.8407 21.4992 21.5982 21.5603 20.9957C21.6196 20.3915 21.1363 19.9093 20.714 19.2448C20.2918 18.5804 19.8076 17.9186 20.1705 17.4957C20.5334 17.0719 19.9306 16.7109 20.4732 16.1677C21.0167 15.6245 21.5611 15.8049 21.3797 15.0812C21.1991 14.3575 21.9825 13.9355 22.0436 13.1498C22.1038 12.3651 23.0094 12.6057 23.8548 11.9439C24.7001 11.2777 25.6049 11.6405 26.3298 11.0371C27.0112 10.4703 27.478 10.9603 27.9822 10.9228C27.6786 10.5008 26.9362 10.2898 26.7669 9.95585C26.5541 9.52684 27.5486 8.74644 27.833 8.24768C28.1175 7.75328 26.6954 7.18301 26.3403 7.04001C25.9844 6.89963 25.3449 7.3234 24.9889 7.11151C24.6338 6.89963 24.065 7.04001 23.7815 7.25452C23.4979 7.4664 21.364 7.6094 21.4355 6.96939C21.5062 6.33024 20.5823 6.11835 20.6538 5.68935C20.7254 5.26558 20.1557 4.48169 19.374 4.41193C18.5923 4.3413 18.7345 3.06214 18.1665 2.70812C17.8428 2.50495 17.042 2.62441 16.4077 2.76305C17.0899 3.53299 17.3333 3.85387 16.8814 4.21661C16.2812 4.69706 16.8814 4.78164 15.749 6.291C14.6157 7.80385 12.6798 8.17879 11.735 8.46392C10.7919 8.74644 10.4132 10.4895 9.89413 11.7189C9.37504 12.9449 8.95017 12.5203 8.43107 11.8122C7.91197 11.1033 7.48623 11.9535 6.87204 11.3885C6.25872 10.8243 6.54226 10.8243 6.87204 10.3508C7.05088 10.0971 6.85284 9.69077 6.47683 9.301C5.80331 9.43965 5.12107 10.3726 4.78606 11.0833C4.42313 11.8541 5.42031 13.3469 5.55641 13.8893C5.69251 14.4334 5.01289 13.9355 4.92216 14.4334C4.83142 14.9295 6.41663 15.6541 7.14075 16.1965C7.86661 16.7406 8.49999 18.2813 9.17874 19.0042C9.85837 19.7288 9.9046 20.3618 10.6287 22.1275C11.3537 23.8924 12.8028 26.8806 13.7991 28.1475C14.7963 29.4145 15.2482 30.4111 15.0223 30.7739C14.7963 31.1366 15.0676 32.1324 15.7918 32.6303C16.5168 33.1264 17.1048 33.9426 19.0075 34.8939C20.9094 35.8443 24.3965 37.6536 24.8956 38.5151C25.3937 39.3731 27.0243 40.1884 27.341 40.3707C27.4274 40.4204 27.4544 40.5625 27.4562 40.7517C27.6437 40.5974 27.8008 40.4788 27.9002 40.4308C28.5022 40.1283 28.5624 39.1028 28.7439 38.7994Z" stroke="#868686" stroke-width="0.25"/>
</g>
<defs>
<filter id="filter0_d_877_3331" x="0.582031" y="0.474609" width="34.2207" height="46.54" filterUnits="userSpaceOnUse" color-interpolation-filters="sRGB">
<feFlood flood-opacity="0" result="BackgroundImageFix"/>
<feColorMatrix in="SourceAlpha" type="matrix" values="0 0 0 0 0 0 0 0 0 0 0 0 0 0 0 0 0 0 127 0" result="hardAlpha"/>
<feOffset dy="2"/>
<feGaussianBlur stdDeviation="2"/>
<feColorMatrix type="matrix" values="0 0 0 0 0 0 0 0 0 0 0 0 0 0 0 0 0 0 0.01 0"/>
<feBlend mode="normal" in2="BackgroundImageFix" result="effect1_dropShadow_877_3331"/>
<feBlend mode="normal" in="SourceGraphic" in2="effect1_dropShadow_877_3331" result="shape"/>
</filter>
</defs>
</svg>
