<svg width="92" height="48" viewBox="0 0 92 48" fill="none" xmlns="http://www.w3.org/2000/svg">
<g filter="url(#filter0_d_877_3489)">
<path fill-rule="evenodd" clip-rule="evenodd" d="M87.2746 18.8718C87.2162 18.4507 86.8506 18.6303 86.5496 18.8099C86.2478 18.9904 85.2811 19.1134 84.9191 19.1134C84.557 19.1134 83.8931 18.6303 83.8931 18.2684C83.8931 17.9057 83.8155 17.4994 83.4551 17.4994C83.0931 17.4994 82.5478 17.3163 82.1875 16.4565C81.8237 15.5976 81.281 15.5976 80.8727 15.3709C80.4644 15.1442 79.3329 15.7781 78.8347 15.9586C78.3366 16.1409 77.4755 15.7781 76.8421 15.643C76.207 15.507 75.8458 14.376 75.2578 14.512C74.668 14.6472 74.5328 15.8243 74.0783 15.8243C73.6263 15.8243 72.8106 13.4709 71.9504 12.1569C71.0919 10.8455 69.5512 8.21999 68.1928 7.72035C66.8327 7.22334 67.2393 6.54408 67.6031 6.18222C67.9651 5.82035 66.7874 5.72967 66.243 6.04532C65.7003 6.36184 65.0224 6.95129 64.3873 7.08731C63.7522 7.22247 62.8475 8.21999 62.1678 7.99241C61.4882 7.76482 61.1707 8.85216 60.628 8.3534C60.0845 7.85638 61.353 7.49539 61.353 7.04197C61.353 6.58855 60.4919 7.178 60.2651 6.90594C60.0391 6.63389 59.3124 6.36184 59.3124 6.77166C59.3124 7.17887 58.7244 6.95129 58.7244 6.63476C58.7244 6.31912 58.3178 5.73054 57.954 6.13862C57.5928 6.54495 56.3705 6.77253 56.0975 6.45427C55.8253 6.13862 56.2781 6.00259 56.3252 5.59365C56.3705 5.18644 55.8715 4.64408 55.9622 4.14706C56.053 3.64743 55.1012 3.15042 54.6492 3.33004C54.1956 3.51228 53.5613 3.33004 53.064 3.10507C52.5659 2.87749 50.6177 3.24023 50.5279 3.69277C50.4371 4.14706 47.9935 4.50806 47.5381 4.68768C47.0861 4.87079 45.2741 5.1411 44.6407 5.23178C44.0056 5.32159 43.3722 5.8657 42.5556 5.8657C41.7408 5.8657 40.2009 5.95638 39.4777 6.49961C38.7527 7.04371 37.574 6.59029 37.0314 6.77253C36.487 6.95216 35.5823 6.68098 35.3092 6.86322C35.037 7.04371 35.1286 8.13018 35.3999 8.58359C35.6721 9.03614 37.1212 9.21664 37.2102 9.48869C37.3018 9.75987 35.762 9.75987 35.037 9.85055C34.3138 9.94123 34.4944 10.8472 34.6749 11.298C34.8564 11.7523 33.9508 12.2048 33.4073 12.3845C32.8638 12.565 33.4073 13.4718 33.9508 13.4718C34.4944 13.4718 34.948 13.9243 35.3999 13.9243C35.8519 13.9243 35.9426 14.8294 35.9426 15.3727C35.9426 15.9142 35.3999 16.0964 34.6749 16.0964C33.9508 16.0964 33.5888 15.5532 33.1351 15.4616C32.6823 15.3718 32.7731 16.2786 32.4092 16.4583C32.0489 16.6396 31.9573 15.8252 31.4147 15.8252C30.8694 15.8252 30.2351 15.7345 30.0554 15.1904C29.874 14.6481 28.6055 14.5556 28.0628 15.1006C27.5193 15.643 27.3378 15.3718 26.885 15.0099C26.4314 14.6481 25.0721 15.1904 24.8924 15.6438C24.7118 16.0964 23.7137 16.2786 22.9887 15.8252C22.2638 15.3718 21.8118 15.1904 21.8118 15.8252C21.8118 16.4583 21.2683 15.9142 21.2683 15.5523C21.2683 15.1904 20.0897 14.4667 19.547 14.104C19.0026 13.743 17.2822 13.743 17.1914 13.3794C17.1007 13.0184 16.0137 12.7446 15.7441 13.3794C15.471 14.015 15.0182 13.5625 14.6553 13.3794C14.2932 13.1989 13.4784 13.6514 13.1155 13.8328C12.7534 14.015 11.5747 14.8294 10.9414 14.8294C10.308 14.8294 10.6683 15.6447 9.85518 15.8261C9.03946 16.0066 9.22092 16.5498 9.31166 16.9125C9.40152 17.2735 9.85518 17.9083 9.13106 18.1795C8.40607 18.4516 8.13213 17.2735 7.49875 16.8192C6.86449 16.3684 6.32271 16.9117 6.32271 17.5456C6.32271 18.1795 5.59685 18.1795 5.23479 18.8117C4.87273 19.4456 5.86992 19.5363 5.86992 19.8092C5.86992 20.0804 5.3264 20.3516 5.1458 20.4431C4.96434 20.5347 4.51155 21.4389 4.69214 21.7101C4.87273 21.9812 5.95978 21.8906 5.86992 22.5254C5.77919 23.1584 5.68933 23.7923 6.23111 23.6118C6.7755 23.4304 7.31903 23.5203 7.68108 23.5203C8.04402 23.5203 8.31709 24.2449 8.95047 24.9712C9.58385 25.6949 9.85518 26.0559 9.2218 26.2373C8.58667 26.4178 8.85887 26.7805 9.67546 27.1432C9.89095 27.2383 10.116 27.383 10.335 27.5374C10.4659 27.4493 10.5924 27.3612 10.7023 27.2636C11.7274 26.3594 13.6014 25.5118 14.9894 25.8763C16.3792 26.2373 17.5265 25.6348 18.1311 26.4788C18.7322 27.3229 18.1276 28.8933 18.371 29.4967C18.6126 30.0992 17.2839 30.1611 16.3792 30.0382C15.4719 29.9196 13.5988 30.4026 13.8431 30.9441C14.0847 31.4873 14.7478 32.756 13.5395 32.0916C12.3329 31.4272 11.8487 32.7543 12.5143 32.7543C13.1774 32.7543 14.0847 33.5399 14.0847 34.0823C14.0847 34.6255 14.144 35.8332 14.7478 35.651C15.3524 35.4696 15.3524 36.556 16.1969 36.4968C17.044 36.4383 17.8274 36.7392 17.1627 37.5239C16.4987 38.3087 17.5849 40.4816 17.8274 39.9977C17.9801 39.6934 17.8458 39.035 18.0839 38.6165C17.612 37.5074 19.6142 37.503 20.1935 37.503C20.8373 37.503 21.968 38.4691 22.6921 39.4387C23.418 40.404 24.1438 39.7605 24.1438 39.7605L24.3855 30.734L29.552 29.358C29.6009 29.2298 29.6567 29.1104 29.7222 29.0136C30.3878 28.0475 31.2812 28.8462 31.5944 29.0738C31.857 29.263 31.7148 28.0483 32.4398 28.1085C33.1639 28.1695 32.3796 29.3144 32.9249 29.3144C33.3462 29.3144 34.3138 30.8142 34.0102 31.9931C34.8154 32.654 36.2698 34.2087 36.398 34.6002C36.5603 35.0833 38.6567 34.2802 39.0607 34.4389C39.4637 34.6002 42.608 34.6002 43.1742 34.6002C43.7378 34.6002 44.1382 35.6475 44.7847 35.8088C45.4311 35.9727 45.1886 37.0199 45.2697 37.7437C45.3517 38.4691 46.3193 39.1963 46.3987 39.8416C46.4807 40.4834 47.5285 40.1633 48.1732 40.3247C48.8188 40.4851 49.7846 40.7266 49.8648 41.371C49.9451 42.0154 50.753 41.5332 50.8324 41.0484C50.9135 40.5662 51.7205 39.9209 52.9279 39.4379C53.4741 39.219 53.8335 39.2199 54.1066 39.3228C54.3317 38.7447 54.5629 38.2555 54.7234 38.1857C55.1439 38.0061 55.93 37.4027 55.9919 36.7993C56.0512 36.1951 57.6827 36.1951 58.7697 36.7365C59.8559 37.2806 60.5216 37.2824 60.5809 36.4375C60.6402 35.5908 62.2106 35.3501 62.6948 35.5908C63.1772 35.8323 64.6874 36.6781 65.4115 36.3747C66.1365 36.073 69.7589 36.4366 70.6662 36.6781C71.5718 36.917 71.8126 36.3163 72.5977 37.2214C73.2556 37.9808 73.5766 37.2972 74.3086 37.8832C74.3051 37.6521 74.258 37.3617 74.258 37.0531C74.258 36.4662 75.1636 35.9675 75.3433 35.5149C75.5256 35.0615 74.5284 33.7047 74.5284 33.2513C74.5284 32.7988 74.5284 31.7123 74.0739 31.4865C73.622 31.2615 74.935 30.6712 75.2482 30.6869C75.92 30.7209 76.8779 30.0207 77.171 30.3102C77.4624 30.6032 78.0478 30.6869 78.6332 30.6869C79.2177 30.6869 78.9691 30.0207 78.6332 29.726C78.2982 29.4339 79.6784 26.7195 79.8878 25.8004C80.0963 24.8796 80.5979 25.7167 81.2662 25.8004C81.9371 25.8824 82.7301 25.7586 83.148 25.967C83.5651 26.1728 84.7777 25.7167 85.0709 25.2563C85.3631 24.7968 84.7359 24.6721 84.7777 23.6275C84.8214 22.5829 85.4478 22.0807 86.1152 22.0807C86.7861 22.0807 86.992 21.4555 86.992 20.9541C86.992 20.5007 87.5364 20.2155 87.7013 19.64C87.4893 19.409 87.3069 19.1055 87.2746 18.8718ZM35.5936 27.7179C35.3511 28.0492 32.9632 27.4319 32.7652 26.9436C32.5497 26.4221 36.1136 27.0072 35.5936 27.7179ZM69.8827 27.5007C68.192 27.5007 64.4475 26.6567 62.9373 28.2846C61.428 29.9161 62.5159 30.761 61.852 30.8822C61.1384 31.0104 60.765 28.4067 61.6086 27.5618C62.4549 26.7169 65.1734 26.355 66.8633 26.777C68.554 27.1999 71.5726 26.416 71.9966 26.5372C72.4198 26.6576 71.5753 27.5007 69.8827 27.5007Z" fill="white"/>
<path d="M87.2746 18.8718L87.3985 18.8547L87.3984 18.8547L87.2746 18.8718ZM86.5496 18.8099L86.4856 18.7026L86.4855 18.7026L86.5496 18.8099ZM82.1875 16.4565L82.3028 16.4082L82.3026 16.4078L82.1875 16.4565ZM78.8347 15.9586L78.7922 15.8411L78.7918 15.8412L78.8347 15.9586ZM76.8421 15.643L76.8159 15.7652L76.816 15.7652L76.8421 15.643ZM75.2578 14.512L75.2857 14.6339L75.286 14.6338L75.2578 14.512ZM71.9504 12.1569L71.8458 12.2253V12.2253L71.9504 12.1569ZM68.1928 7.72035L68.236 7.60304L68.2357 7.60295L68.1928 7.72035ZM67.6031 6.18222L67.6912 6.27084L67.6914 6.27063L67.6031 6.18222ZM66.243 6.04532L66.1803 5.93718L66.18 5.93735L66.243 6.04532ZM64.3873 7.08731L64.4133 7.20957L64.4135 7.20954L64.3873 7.08731ZM60.628 8.3534L60.7126 8.26136L60.7124 8.26115L60.628 8.3534ZM60.2651 6.90594L60.1689 6.98581L60.1691 6.98599L60.2651 6.90594ZM57.954 6.13862L57.8607 6.05544L57.8606 6.05557L57.954 6.13862ZM56.0975 6.45427L56.1923 6.37287L56.1921 6.37264L56.0975 6.45427ZM56.3252 5.59365L56.4494 5.60795L56.4494 5.60749L56.3252 5.59365ZM55.9622 4.14706L56.0852 4.16951L56.0852 4.1694L55.9622 4.14706ZM54.6492 3.33004L54.6031 3.21388L54.6026 3.21405L54.6492 3.33004ZM53.064 3.10507L53.0121 3.21877L53.0125 3.21896L53.064 3.10507ZM50.5279 3.69277L50.6505 3.71726L50.6505 3.71712L50.5279 3.69277ZM47.5381 4.68768L47.4922 4.57139L47.4911 4.57183L47.5381 4.68768ZM44.6407 5.23178L44.6582 5.35555L44.6584 5.35552L44.6407 5.23178ZM39.4777 6.49961L39.5527 6.59959L39.5527 6.59956L39.4777 6.49961ZM37.0314 6.77253L37.0705 6.89124L37.0712 6.89103L37.0314 6.77253ZM35.3092 6.86322L35.3783 6.9674L35.3786 6.96719L35.3092 6.86322ZM35.3999 8.58359L35.2927 8.64778L35.2928 8.64802L35.3999 8.58359ZM37.2102 9.48869L37.0914 9.52755L37.0918 9.52869L37.2102 9.48869ZM35.037 9.85055L35.0215 9.72652L35.0215 9.72652L35.037 9.85055ZM34.6749 11.298L34.791 11.2516L34.791 11.2515L34.6749 11.298ZM33.4073 12.3845L33.3681 12.2658L33.3679 12.2658L33.4073 12.3845ZM33.1351 15.4616L33.1598 15.3391L33.1594 15.339L33.1351 15.4616ZM32.4092 16.4583L32.3539 16.3462L32.353 16.3466L32.4092 16.4583ZM30.0554 15.1904L30.1741 15.1512L30.174 15.1508L30.0554 15.1904ZM28.0628 15.1006L28.1511 15.1891L28.1514 15.1888L28.0628 15.1006ZM26.885 15.0099L26.9631 14.9123L26.963 14.9122L26.885 15.0099ZM24.8924 15.6438L25.0085 15.6902L25.0086 15.6899L24.8924 15.6438ZM19.547 14.104L19.6165 14L19.6161 13.9998L19.547 14.104ZM17.1914 13.3794L17.3127 13.3491L17.3127 13.3489L17.1914 13.3794ZM15.7441 13.3794L15.8589 13.4287L15.8591 13.4282L15.7441 13.3794ZM14.6553 13.3794L14.7116 13.2678L14.7111 13.2675L14.6553 13.3794ZM13.1155 13.8328L13.0596 13.721L13.0593 13.7211L13.1155 13.8328ZM9.85518 15.8261L9.88219 15.9481L9.88239 15.9481L9.85518 15.8261ZM9.31166 16.9125L9.43296 16.8824L9.43292 16.8822L9.31166 16.9125ZM9.13106 18.1795L9.08722 18.0624L9.08715 18.0625L9.13106 18.1795ZM7.49875 16.8192L7.5716 16.7177L7.57116 16.7174L7.49875 16.8192ZM5.23479 18.8117L5.12632 18.7496L5.12625 18.7497L5.23479 18.8117ZM5.1458 20.4431L5.20211 20.5547L5.20233 20.5546L5.1458 20.4431ZM5.86992 22.5254L5.99366 22.5431L5.99369 22.5429L5.86992 22.5254ZM6.23111 23.6118L6.1916 23.4932L6.23111 23.6118ZM8.95047 24.9712L8.85626 25.0534L8.85641 25.0535L8.95047 24.9712ZM9.2218 26.2373L9.25597 26.3575L9.25621 26.3575L9.2218 26.2373ZM9.67546 27.1432L9.62472 27.2575L9.62502 27.2576L9.67546 27.1432ZM10.335 27.5374L10.263 27.6395L10.3334 27.6891L10.4048 27.6411L10.335 27.5374ZM10.7023 27.2636L10.6196 27.1698L10.6193 27.1701L10.7023 27.2636ZM14.9894 25.8763L14.9577 25.9972L14.958 25.9973L14.9894 25.8763ZM18.1311 26.4788L18.2329 26.4063L18.2327 26.406L18.1311 26.4788ZM18.371 29.4967L18.487 29.4501L18.4869 29.4499L18.371 29.4967ZM16.3792 30.0382L16.396 29.9143L16.3954 29.9142L16.3792 30.0382ZM13.8431 30.9441L13.9573 30.8933L13.957 30.8927L13.8431 30.9441ZM13.5395 32.0916L13.4792 32.2011L13.4792 32.2011L13.5395 32.0916ZM14.7478 35.651L14.7119 35.5312L14.7116 35.5313L14.7478 35.651ZM16.1969 36.4968L16.1883 36.3721L16.1881 36.3721L16.1969 36.4968ZM17.1627 37.5239L17.0673 37.4431L17.0672 37.4432L17.1627 37.5239ZM17.8274 39.9977L17.7157 39.9416L17.7157 39.9417L17.8274 39.9977ZM18.0839 38.6165L18.1926 38.6783L18.2232 38.6245L18.199 38.5675L18.0839 38.6165ZM22.6921 39.4387L22.592 39.5135L22.5922 39.5139L22.6921 39.4387ZM24.1438 39.7605L24.2268 39.854L24.2673 39.8181L24.2688 39.7638L24.1438 39.7605ZM24.3855 30.734L24.3533 30.6132L24.2631 30.6372L24.2605 30.7306L24.3855 30.734ZM29.552 29.358L29.5842 29.4788L29.646 29.4623L29.6688 29.4025L29.552 29.358ZM29.7222 29.0136L29.6192 28.9427L29.6186 28.9436L29.7222 29.0136ZM31.5944 29.0738L31.5209 29.1749L31.5213 29.1752L31.5944 29.0738ZM32.4398 28.1085L32.4503 27.9839L32.4501 27.9839L32.4398 28.1085ZM34.0102 31.9931L33.8891 31.9619L33.8692 32.0391L33.9309 32.0897L34.0102 31.9931ZM36.398 34.6002L36.2792 34.6392L36.2795 34.64L36.398 34.6002ZM39.0607 34.4389L39.1071 34.3229L39.1064 34.3226L39.0607 34.4389ZM44.7847 35.8088L44.8154 35.6876L44.8149 35.6875L44.7847 35.8088ZM45.2697 37.7437L45.1455 37.7576L45.1455 37.7577L45.2697 37.7437ZM46.3987 39.8416L46.2746 39.8569L46.2747 39.8574L46.3987 39.8416ZM48.1732 40.3247L48.1428 40.4459L48.143 40.446L48.1732 40.3247ZM50.8324 41.0484L50.7091 41.0276L50.709 41.0282L50.8324 41.0484ZM52.9279 39.4379L52.9744 39.5539L52.9744 39.5539L52.9279 39.4379ZM54.1066 39.3228L54.0625 39.4397L54.1782 39.4833L54.2231 39.3681L54.1066 39.3228ZM54.7234 38.1857L54.6743 38.0708L54.6736 38.0711L54.7234 38.1857ZM55.9919 36.7993L56.1163 36.8121L56.1163 36.8115L55.9919 36.7993ZM58.7697 36.7365L58.8257 36.6248L58.8255 36.6247L58.7697 36.7365ZM60.5809 36.4375L60.7056 36.4462V36.4462L60.5809 36.4375ZM62.6948 35.5908L62.7507 35.479L62.7504 35.4789L62.6948 35.5908ZM65.4115 36.3747L65.3635 36.2593L65.3632 36.2594L65.4115 36.3747ZM70.6662 36.6781L70.634 36.7989L70.6343 36.799L70.6662 36.6781ZM72.5977 37.2214L72.6922 37.1395L72.6922 37.1394L72.5977 37.2214ZM74.3086 37.8832L74.2305 37.9808L74.4376 38.1465L74.4336 37.8813L74.3086 37.8832ZM75.3433 35.5149L75.2273 35.4683L75.2271 35.4688L75.3433 35.5149ZM74.0739 31.4865L74.0182 31.5984L74.0183 31.5984L74.0739 31.4865ZM75.2482 30.6869L75.2545 30.562L75.2544 30.562L75.2482 30.6869ZM77.171 30.3102L77.2597 30.2221L77.2589 30.2213L77.171 30.3102ZM78.6332 29.726L78.7157 29.632L78.7154 29.6318L78.6332 29.726ZM79.8878 25.8004L80.0097 25.8282L80.0097 25.828L79.8878 25.8004ZM81.2662 25.8004L81.2507 25.9245L81.2511 25.9245L81.2662 25.8004ZM83.148 25.967L83.0923 26.0788L83.0927 26.0791L83.148 25.967ZM85.0709 25.2563L85.1763 25.3235L85.1764 25.3234L85.0709 25.2563ZM84.7777 23.6275L84.6528 23.6223L84.6528 23.6225L84.7777 23.6275ZM87.7013 19.64L87.8214 19.6745L87.8407 19.6071L87.7934 19.5555L87.7013 19.64ZM35.5936 27.7179L35.6945 27.7917L35.6945 27.7917L35.5936 27.7179ZM32.7652 26.9436L32.881 26.8966L32.8807 26.8958L32.7652 26.9436ZM62.9373 28.2846L62.8457 28.1996L62.8456 28.1998L62.9373 28.2846ZM61.852 30.8822L61.8741 31.0052L61.8745 31.0052L61.852 30.8822ZM61.6086 27.5618L61.5203 27.4733L61.5202 27.4735L61.6086 27.5618ZM66.8633 26.777L66.8936 26.6558L66.8935 26.6557L66.8633 26.777ZM71.9966 26.5372L71.9623 26.6574L71.9624 26.6575L71.9966 26.5372ZM87.3984 18.8547C87.3815 18.7328 87.3393 18.6305 87.2593 18.5635C87.1776 18.4949 87.0788 18.4817 86.9897 18.4913C86.9021 18.5008 86.8122 18.5331 86.7296 18.571C86.6459 18.6093 86.562 18.657 86.4856 18.7026L86.6137 18.9173C86.6878 18.873 86.7625 18.8309 86.8338 18.7982C86.9062 18.7651 86.9678 18.7451 87.0165 18.7399C87.0637 18.7348 87.0861 18.7444 87.0987 18.755C87.1131 18.7671 87.1385 18.8003 87.1508 18.889L87.3984 18.8547ZM86.4855 18.7026C86.4256 18.7384 86.3226 18.7764 86.1863 18.8127C86.0527 18.8482 85.8965 18.8798 85.7367 18.906C85.4157 18.9587 85.0909 18.9884 84.9191 18.9884V19.2384C85.1094 19.2384 85.4488 19.2066 85.7772 19.1527C85.942 19.1256 86.1067 19.0926 86.2506 19.0543C86.3917 19.0167 86.5227 18.9717 86.6138 18.9172L86.4855 18.7026ZM84.9191 18.9884C84.8533 18.9884 84.7623 18.9655 84.6573 18.9183C84.5542 18.8718 84.4459 18.8056 84.3475 18.7283C84.2489 18.6508 84.1639 18.565 84.1046 18.481C84.044 18.3952 84.0181 18.3225 84.0181 18.2684H83.7681C83.7681 18.3954 83.8252 18.5187 83.9004 18.6252C83.9769 18.7336 84.0805 18.8364 84.1931 18.9249C84.306 19.0136 84.4315 19.0908 84.5547 19.1462C84.6761 19.2009 84.8038 19.2384 84.9191 19.2384V18.9884ZM84.0181 18.2684C84.0181 18.0821 83.9987 17.8687 83.9237 17.6977C83.8855 17.6106 83.8305 17.5289 83.7509 17.4688C83.6697 17.4075 83.5704 17.3744 83.4551 17.3744V17.6244C83.52 17.6244 83.5655 17.6421 83.6003 17.6683C83.6365 17.6957 83.6685 17.7382 83.6948 17.7981C83.7486 17.9209 83.7681 18.0921 83.7681 18.2684H84.0181ZM83.4551 17.3744C83.2954 17.3744 83.0938 17.3341 82.8907 17.1968C82.6877 17.0595 82.4753 16.8199 82.3028 16.4082L82.0722 16.5048C82.26 16.9529 82.5004 17.2347 82.7506 17.4039C83.0008 17.5731 83.2528 17.6244 83.4551 17.6244V17.3744ZM82.3026 16.4078C82.1105 15.9542 81.8659 15.7184 81.6099 15.5687C81.4848 15.4957 81.3595 15.4446 81.2454 15.3993C81.1287 15.3529 81.0269 15.3135 80.9334 15.2616L80.8121 15.4802C80.9227 15.5417 81.0418 15.5874 81.1531 15.6316C81.267 15.6768 81.3766 15.722 81.4837 15.7846C81.692 15.9063 81.9007 16.1 82.0724 16.5053L82.3026 16.4078ZM80.9334 15.2616C80.792 15.1831 80.6079 15.1872 80.4303 15.2186C80.2473 15.2511 80.0433 15.3181 79.8425 15.3954C79.641 15.4731 79.4373 15.5634 79.2551 15.6446C79.0706 15.7267 78.9115 15.7979 78.7922 15.8411L78.8773 16.0761C79.0071 16.0291 79.1762 15.9534 79.3568 15.873C79.5396 15.7916 79.7377 15.7037 79.9324 15.6287C80.1278 15.5534 80.3144 15.4931 80.4739 15.4648C80.6389 15.4356 80.7494 15.4454 80.8121 15.4802L80.9334 15.2616ZM78.7918 15.8412C78.5818 15.9181 78.2762 15.8833 77.9181 15.7982C77.7428 15.7566 77.5631 15.7051 77.3846 15.6546C77.2075 15.6046 77.0311 15.5555 76.8682 15.5207L76.816 15.7652C76.9698 15.798 77.1386 15.8449 77.3166 15.8952C77.4933 15.9451 77.6787 15.9983 77.8602 16.0414C78.2156 16.1259 78.5896 16.1814 78.8777 16.076L78.7918 15.8412ZM76.8683 15.5207C76.7414 15.4936 76.6197 15.4146 76.4944 15.2982C76.3686 15.1813 76.2517 15.0389 76.1271 14.894C76.0063 14.7536 75.8769 14.6092 75.736 14.51C75.5918 14.4085 75.4228 14.3456 75.2296 14.3903L75.286 14.6338C75.3868 14.6105 75.4834 14.6379 75.5921 14.7145C75.7042 14.7933 75.8151 14.9146 75.9375 15.057C76.0561 15.1948 76.1853 15.3522 76.3242 15.4813C76.4637 15.6109 76.6252 15.7244 76.8159 15.7652L76.8683 15.5207ZM75.2299 14.3902C75.0434 14.4329 74.9021 14.5561 74.7907 14.6964C74.6797 14.8362 74.5883 15.0062 74.5068 15.1605C74.4224 15.3202 74.35 15.4603 74.272 15.5625C74.1931 15.6659 74.1318 15.6993 74.0783 15.6993V15.9493C74.252 15.9493 74.3781 15.8356 74.4708 15.7141C74.5644 15.5914 74.6479 15.4287 74.7278 15.2773C74.8107 15.1204 74.8921 14.9707 74.9865 14.8518C75.0806 14.7334 75.1773 14.6587 75.2857 14.6339L75.2299 14.3902ZM74.0783 15.6993C74.0737 15.6993 74.0425 15.6937 73.9805 15.6321C73.9229 15.5747 73.8564 15.4866 73.7815 15.369C73.6323 15.1345 73.4639 14.8052 73.2797 14.4285C72.9146 13.6817 72.4907 12.754 72.055 12.0884L71.8458 12.2253C72.2703 12.8738 72.6843 13.7799 73.0551 14.5383C73.2389 14.9142 73.4129 15.2554 73.5706 15.5032C73.6493 15.6268 73.7273 15.7328 73.8042 15.8093C73.8767 15.8814 73.9698 15.9493 74.0783 15.9493V15.6993ZM72.055 12.0884C71.6288 11.4374 71.0246 10.4462 70.3591 9.55918C70.0258 9.11502 69.6746 8.69327 69.3191 8.35001C68.965 8.00803 68.5992 7.73664 68.236 7.60304L68.1497 7.83767C68.4656 7.95388 68.8019 8.19804 69.1455 8.52984C69.4877 8.86036 69.83 9.27062 70.1591 9.70921C70.8182 10.5877 71.4135 11.5649 71.8458 12.2253L72.055 12.0884ZM68.2357 7.60295C67.5675 7.35877 67.3927 7.09105 67.3761 6.89031C67.3581 6.67338 67.512 6.44908 67.6912 6.27084L67.5149 6.09359C67.3303 6.27722 67.099 6.57348 67.1269 6.9109C67.1561 7.26451 67.458 7.58492 68.1499 7.83776L68.2357 7.60295ZM67.6914 6.27063C67.7469 6.21522 67.7927 6.14595 67.7958 6.06422C67.7992 5.9761 67.7521 5.90954 67.698 5.8662C67.6458 5.82442 67.5785 5.79616 67.5098 5.77648C67.4394 5.75634 67.3591 5.74282 67.2741 5.7352C66.9411 5.70534 66.4821 5.76216 66.1803 5.93718L66.3057 6.15346C66.5482 6.01283 66.9503 5.95717 67.2518 5.9842C67.3254 5.99081 67.3895 6.0021 67.441 6.01683C67.494 6.03201 67.5259 6.04868 67.5417 6.06135C67.5556 6.07247 67.5454 6.0699 67.546 6.05476C67.5463 6.04603 67.5498 6.05875 67.5147 6.09381L67.6914 6.27063ZM66.18 5.93735C65.9076 6.09624 65.5866 6.33283 65.2821 6.52891C64.9671 6.73174 64.655 6.90213 64.3611 6.96508L64.4135 7.20954C64.7547 7.13646 65.0991 6.94412 65.4175 6.7391C65.7464 6.52731 66.0357 6.31092 66.3059 6.15329L66.18 5.93735ZM64.3613 6.96505C64.1814 7.00332 63.9911 7.10013 63.8046 7.21009C63.6228 7.31736 63.4141 7.45656 63.2292 7.56912C63.0358 7.68696 62.8489 7.78845 62.6724 7.84745C62.4963 7.90634 62.3421 7.91895 62.2075 7.87387L62.1281 8.11094C62.3334 8.17965 62.5472 8.15292 62.7517 8.08455C62.9558 8.0163 63.1622 7.90264 63.3593 7.78264C63.565 7.65739 63.744 7.53608 63.9316 7.42542C64.1147 7.31744 64.2756 7.23888 64.4133 7.20957L64.3613 6.96505ZM62.2075 7.87387C61.7926 7.73495 61.4861 8.00726 61.2697 8.17602C61.1501 8.26927 61.0589 8.33302 60.9726 8.35391C60.9029 8.37078 60.8228 8.36266 60.7126 8.26136L60.5434 8.44543C60.7045 8.59351 60.8677 8.63651 61.0314 8.5969C61.1785 8.56129 61.3108 8.46096 61.4234 8.37317C61.6713 8.17984 61.8634 8.02228 62.1281 8.11094L62.2075 7.87387ZM60.7124 8.26115C60.6556 8.20925 60.6319 8.16767 60.6229 8.13734C60.6145 8.10905 60.6159 8.0808 60.6287 8.04732C60.6582 7.97027 60.741 7.88281 60.867 7.7771C60.9812 7.68132 61.1361 7.56694 61.2496 7.45871C61.3616 7.35183 61.478 7.21189 61.478 7.04197H61.228C61.228 7.09876 61.1858 7.17398 61.077 7.27784C60.9696 7.38035 60.8414 7.47229 60.7063 7.58557C60.5832 7.68891 60.4507 7.81323 60.3953 7.95782C60.3656 8.03516 60.357 8.1202 60.3833 8.20855C60.4089 8.29486 60.4645 8.37329 60.5436 8.44564L60.7124 8.26115ZM61.478 7.04197C61.478 6.96625 61.4599 6.89305 61.4102 6.83545C61.3605 6.7778 61.2942 6.75326 61.2336 6.74409C61.1213 6.7271 60.9822 6.7571 60.8658 6.7842C60.7374 6.81406 60.621 6.84477 60.5198 6.85369C60.4136 6.86304 60.3753 6.84301 60.3611 6.8259L60.1691 6.98599C60.2682 7.1049 60.4226 7.11321 60.5417 7.10273C60.6657 7.0918 60.8072 7.05451 60.9224 7.02769C61.0496 6.99811 61.1399 6.98277 61.1962 6.99128C61.2199 6.99487 61.2227 7.00079 61.2209 6.99875C61.2192 6.99677 61.228 7.00434 61.228 7.04197H61.478ZM60.3612 6.82608C60.2272 6.66471 59.9629 6.51714 59.7334 6.46161C59.6193 6.43401 59.4912 6.42335 59.3841 6.465C59.3277 6.48695 59.2759 6.52409 59.2392 6.58049C59.203 6.6363 59.1874 6.70193 59.1874 6.77166H59.4374C59.4374 6.73893 59.4445 6.72342 59.4489 6.71673C59.4528 6.71063 59.4596 6.70391 59.4748 6.69799C59.511 6.68389 59.5787 6.6814 59.6746 6.7046C59.8649 6.75064 60.077 6.87513 60.1689 6.98581L60.3612 6.82608ZM59.1874 6.77166C59.1874 6.84161 59.1646 6.85459 59.1593 6.8576C59.1452 6.86553 59.1106 6.87234 59.0554 6.85521C59.0026 6.83885 58.948 6.80523 58.9079 6.76198C58.8678 6.71874 58.8494 6.67412 58.8494 6.63476H58.5994C58.5994 6.75367 58.6544 6.8562 58.7246 6.93192C58.7947 7.00764 58.8871 7.06481 58.9814 7.09401C59.0731 7.12244 59.1856 7.12958 59.2817 7.07554C59.3866 7.01659 59.4374 6.90531 59.4374 6.77166H59.1874ZM58.8494 6.63476C58.8494 6.53202 58.8172 6.41759 58.7683 6.31352C58.7189 6.20846 58.6478 6.10402 58.5603 6.02338C58.4736 5.94341 58.3612 5.87861 58.2317 5.87465C58.0973 5.87055 57.9703 5.93254 57.8607 6.05544L58.0473 6.2218C58.1196 6.14066 58.1799 6.12319 58.224 6.12454C58.273 6.12603 58.3305 6.15159 58.3909 6.20721C58.4505 6.26216 58.5038 6.33854 58.542 6.41986C58.5807 6.50218 58.5994 6.57968 58.5994 6.63476H58.8494ZM57.8606 6.05557C57.7875 6.13783 57.662 6.21933 57.5002 6.28942C57.3405 6.35862 57.1549 6.41262 56.971 6.44507C56.7865 6.47761 56.6091 6.48755 56.4653 6.47207C56.3153 6.45593 56.2286 6.4151 56.1923 6.37287L56.0026 6.53566C56.1029 6.65257 56.2714 6.70265 56.4386 6.72064C56.6121 6.73931 56.814 6.72663 57.0144 6.69127C57.2154 6.65581 57.4201 6.59662 57.5996 6.51881C57.7772 6.4419 57.9399 6.34258 58.0474 6.22167L57.8606 6.05557ZM56.1921 6.37264C56.1389 6.31086 56.1346 6.27479 56.1362 6.25377C56.1384 6.22526 56.154 6.18923 56.1948 6.12943C56.2675 6.02291 56.4212 5.85198 56.4494 5.60795L56.201 5.57934C56.182 5.74426 56.0857 5.84582 55.9883 5.98846C55.9441 6.05324 55.8946 6.13596 55.887 6.23451C55.8788 6.34055 55.92 6.43985 56.0028 6.5359L56.1921 6.37264ZM56.4494 5.60749C56.4637 5.479 56.4345 5.34833 56.3933 5.22586C56.3522 5.10352 56.2938 4.97518 56.2414 4.85433C56.1314 4.60046 56.0477 4.3751 56.0852 4.16951L55.8393 4.12462C55.7861 4.41605 55.9065 4.71037 56.012 4.95374C56.0674 5.08151 56.1196 5.19617 56.1564 5.30558C56.1931 5.41486 56.2093 5.50469 56.2009 5.5798L56.4494 5.60749ZM56.0852 4.1694C56.116 4.00021 56.0562 3.84119 55.9598 3.7095C55.8634 3.57793 55.7241 3.46395 55.572 3.37571C55.4193 3.28716 55.2477 3.22093 55.0814 3.18891C54.9171 3.15728 54.7464 3.15691 54.6031 3.21388L54.6954 3.4462C54.778 3.41335 54.8958 3.40775 55.0342 3.43441C55.1706 3.46068 55.316 3.51625 55.4465 3.59195C55.5775 3.66796 55.6874 3.76069 55.7581 3.85722C55.8287 3.95363 55.8539 4.04411 55.8393 4.12473L56.0852 4.1694ZM54.6026 3.21405C54.4066 3.29278 54.1614 3.29609 53.8955 3.24731C53.6313 3.19883 53.3585 3.10107 53.1156 2.99119L53.0125 3.21896C53.2669 3.33404 53.5598 3.43989 53.8504 3.49321C54.1394 3.54623 54.4382 3.54953 54.6958 3.44603L54.6026 3.21405ZM53.116 2.99138C52.9626 2.92131 52.7214 2.9032 52.4658 2.91233C52.2035 2.9217 51.9032 2.96092 51.6169 3.02159C51.3313 3.08212 51.054 3.1652 50.8395 3.26461C50.7324 3.3142 50.6362 3.37004 50.5618 3.43254C50.4891 3.49362 50.4245 3.5718 50.4053 3.66843L50.6505 3.71712C50.6538 3.70061 50.6697 3.66846 50.7226 3.62397C50.7739 3.58091 50.8485 3.53594 50.9446 3.49144C51.1361 3.40267 51.3938 3.32444 51.6688 3.26616C51.943 3.20803 52.2288 3.17095 52.4747 3.16217C52.7273 3.15315 52.9164 3.17505 53.0121 3.21877L53.116 2.99138ZM50.4053 3.66829C50.4037 3.67616 50.3898 3.70737 50.3202 3.75632C50.255 3.8021 50.1603 3.84999 50.0397 3.89872C49.7992 3.99584 49.4779 4.08748 49.1395 4.17195C48.8017 4.25622 48.453 4.33189 48.1572 4.39837C47.8673 4.46351 47.6174 4.52203 47.4922 4.5714L47.5839 4.80396C47.6865 4.76351 47.9127 4.70955 48.212 4.64229C48.5053 4.57637 48.8585 4.49972 49.2 4.41451C49.5407 4.32949 49.8759 4.23447 50.1333 4.13053C50.2616 4.07872 50.3763 4.02247 50.4639 3.96085C50.5471 3.90241 50.6293 3.82296 50.6505 3.71726L50.4053 3.66829ZM47.4911 4.57183C47.3894 4.61304 47.2013 4.66238 46.9574 4.71501C46.7165 4.767 46.4297 4.82046 46.1361 4.87122C45.5492 4.97272 44.9392 5.06277 44.623 5.10804L44.6584 5.35552C44.9756 5.31011 45.5883 5.21967 46.1787 5.11756C46.4739 5.06652 46.7644 5.0124 47.0101 4.95938C47.2529 4.90699 47.4608 4.85387 47.585 4.80353L47.4911 4.57183ZM44.6232 5.10801C44.2841 5.15597 43.9453 5.32526 43.6165 5.46772C43.279 5.61397 42.9366 5.7407 42.5556 5.7407V5.9907C42.9912 5.9907 43.3738 5.84537 43.7159 5.69711C44.0668 5.54508 44.3622 5.3974 44.6582 5.35555L44.6232 5.10801ZM42.5556 5.7407C42.1445 5.7407 41.5488 5.76352 40.9629 5.85545C40.3819 5.94663 39.7901 6.10864 39.4026 6.39966L39.5527 6.59956C39.8885 6.34735 40.4283 6.19241 41.0017 6.10243C41.5702 6.01321 42.1519 5.9907 42.5556 5.9907V5.7407ZM39.4026 6.39963C39.0787 6.64274 38.6438 6.66941 38.1924 6.64693C38.0809 6.64138 37.9707 6.63304 37.862 6.62491C37.7541 6.61683 37.6473 6.60892 37.5459 6.60463C37.3465 6.5962 37.1508 6.60056 36.9916 6.65404L37.0712 6.89103C37.1833 6.85339 37.3385 6.84609 37.5353 6.85441C37.632 6.8585 37.7348 6.86608 37.8434 6.87421C37.9513 6.88229 38.0648 6.89088 38.1799 6.89662C38.6347 6.91926 39.1516 6.90058 39.5527 6.59959L39.4026 6.39963ZM36.9922 6.65383C36.748 6.73439 36.4128 6.71526 36.0771 6.69219C35.9151 6.68106 35.7528 6.66929 35.6141 6.67246C35.4809 6.6755 35.3405 6.69203 35.2398 6.75925L35.3786 6.96719C35.4144 6.94328 35.4895 6.92537 35.6198 6.92239C35.7445 6.91954 35.8936 6.93017 36.06 6.9416C36.381 6.96366 36.7703 6.9903 37.0705 6.89124L36.9922 6.65383ZM35.2401 6.75904C35.1266 6.83429 35.0739 6.98218 35.0476 7.12114C35.0195 7.26912 35.0142 7.44725 35.026 7.62916C35.0494 7.98937 35.1425 8.39687 35.2927 8.64778L35.5072 8.51941C35.386 8.3169 35.2977 7.95446 35.2755 7.61296C35.2645 7.44402 35.2703 7.28835 35.2932 7.16768C35.3178 7.038 35.3557 6.98239 35.3783 6.9674L35.2401 6.75904ZM35.2928 8.64802C35.381 8.79457 35.552 8.90388 35.7307 8.99023C35.9143 9.07891 36.1306 9.15458 36.3343 9.22242C36.5418 9.29152 36.7333 9.35168 36.8809 9.41188C36.9545 9.4419 37.0109 9.46948 37.0496 9.49484C37.0926 9.52297 37.0941 9.53566 37.0914 9.52755L37.329 9.44983C37.3041 9.3737 37.2409 9.32124 37.1865 9.28566C37.1279 9.2473 37.0543 9.21262 36.9753 9.18039C36.8177 9.11609 36.6132 9.05183 36.4133 8.98523C36.2096 8.91738 36.007 8.84607 35.8395 8.76513C35.6672 8.68185 35.555 8.59889 35.5071 8.51917L35.2928 8.64802ZM37.0918 9.52869C37.0882 9.51796 37.0877 9.50191 37.0941 9.48701C37.0991 9.47536 37.1045 9.47338 37.0978 9.47846C37.0824 9.49004 37.0456 9.50767 36.9779 9.52641C36.8465 9.56282 36.6494 9.59031 36.4177 9.61289C36.1878 9.6353 35.9324 9.65214 35.6867 9.66919C35.4425 9.68613 35.2068 9.70334 35.0215 9.72652L35.0525 9.97458C35.2297 9.95242 35.4584 9.93563 35.704 9.91859C35.948 9.90166 36.2077 9.88454 36.442 9.86172C36.6744 9.83906 36.8904 9.81005 37.0446 9.76734C37.1197 9.74654 37.1939 9.71897 37.248 9.67829C37.276 9.65724 37.3058 9.62736 37.3237 9.58588C37.343 9.54114 37.3437 9.49331 37.3287 9.44868L37.0918 9.52869ZM35.0215 9.72652C34.8121 9.75277 34.6562 9.84066 34.5515 9.97455C34.4492 10.1052 34.4049 10.2678 34.3924 10.4296C34.3676 10.7508 34.4652 11.1105 34.5589 11.3445L34.791 11.2515C34.7041 11.0347 34.6211 10.716 34.6417 10.4488C34.6519 10.3165 34.6867 10.2074 34.7484 10.1286C34.8075 10.053 34.9003 9.99367 35.0526 9.97458L35.0215 9.72652ZM34.5589 11.3444C34.5855 11.4111 34.577 11.4825 34.5237 11.5681C34.4684 11.657 34.3704 11.7504 34.2408 11.8422C33.9826 12.0251 33.6327 12.1783 33.3681 12.2658L33.4465 12.5032C33.7254 12.411 34.1001 12.2482 34.3852 12.0462C34.5272 11.9457 34.6556 11.8295 34.736 11.7002C34.8185 11.5676 34.8551 11.4121 34.791 11.2516L34.5589 11.3444ZM33.3679 12.2658C33.1889 12.3253 33.0873 12.4533 33.063 12.6115C33.0403 12.7588 33.0863 12.9174 33.1617 13.0556C33.2381 13.1959 33.352 13.3289 33.4859 13.4278C33.6192 13.5263 33.7806 13.5968 33.9508 13.5968V13.3468C33.8493 13.3468 33.7389 13.3039 33.6344 13.2267C33.5305 13.15 33.4406 13.045 33.3812 12.936C33.3206 12.8249 33.2987 12.723 33.31 12.6495C33.3197 12.587 33.3539 12.5339 33.4467 12.5031L33.3679 12.2658ZM33.9508 13.5968C34.1905 13.5968 34.4155 13.6966 34.656 13.811C34.8843 13.9195 35.1395 14.0493 35.3999 14.0493V13.7993C35.2085 13.7993 35.0109 13.7029 34.7634 13.5852C34.5282 13.4733 34.2547 13.3468 33.9508 13.3468V13.5968ZM35.3999 14.0493C35.4642 14.0493 35.5212 14.0791 35.5764 14.1506C35.6341 14.2253 35.6824 14.3374 35.72 14.4773C35.795 14.7559 35.8176 15.1053 35.8176 15.3727H36.0676C36.0676 15.0968 36.0448 14.722 35.9614 14.4123C35.9199 14.2581 35.8608 14.1099 35.7743 13.9979C35.6855 13.8827 35.5616 13.7993 35.3999 13.7993V14.0493ZM35.8176 15.3727C35.8176 15.4861 35.7895 15.5743 35.7425 15.6448C35.6949 15.7161 35.623 15.7766 35.5247 15.8258C35.3245 15.926 35.031 15.9714 34.6749 15.9714V16.2214C35.0439 16.2214 35.3842 16.1757 35.6366 16.0494C35.7645 15.9853 35.8736 15.8987 35.9505 15.7836C36.0278 15.6676 36.0676 15.53 36.0676 15.3727H35.8176ZM34.6749 15.9714C34.3473 15.9714 34.0997 15.8497 33.8694 15.7071C33.7602 15.6394 33.637 15.5551 33.5284 15.4915C33.4145 15.4249 33.293 15.366 33.1598 15.3391L33.1104 15.5841C33.2041 15.603 33.2979 15.6463 33.4021 15.7073C33.5116 15.7714 33.6093 15.84 33.7378 15.9196C33.983 16.0715 34.2785 16.2214 34.6749 16.2214V15.9714ZM33.1594 15.339C33.0826 15.3238 33.0096 15.3285 32.9426 15.3552C32.8764 15.3815 32.8249 15.4258 32.7847 15.4756C32.7077 15.5707 32.6594 15.7021 32.6202 15.8193C32.5782 15.9454 32.5448 16.0614 32.4988 16.1622C32.4527 16.263 32.4056 16.3207 32.3539 16.3462L32.4646 16.5703C32.5948 16.506 32.6728 16.383 32.7262 16.2661C32.7796 16.1491 32.8201 16.0103 32.8574 15.8985C32.8977 15.7778 32.9343 15.6881 32.979 15.6328C32.9996 15.6074 33.0182 15.5941 33.0351 15.5874C33.0512 15.581 33.0744 15.577 33.1108 15.5842L33.1594 15.339ZM32.353 16.3466C32.3266 16.3599 32.3108 16.3604 32.3013 16.3592C32.2906 16.3578 32.2753 16.3525 32.2532 16.3359C32.2031 16.2983 32.1529 16.2314 32.0803 16.1347C31.9505 15.9617 31.7569 15.7002 31.4147 15.7002V15.9502C31.6151 15.9502 31.7386 16.0959 31.8804 16.2848C31.9436 16.369 32.0177 16.4717 32.1031 16.5358C32.1487 16.5701 32.2039 16.5987 32.2693 16.6071C32.3359 16.6157 32.4018 16.602 32.4654 16.5699L32.353 16.3466ZM31.4147 15.7002C31.1464 15.7002 30.8691 15.6775 30.6407 15.5944C30.4162 15.5127 30.2487 15.3769 30.1741 15.1512L29.9367 15.2296C30.0419 15.5481 30.2814 15.7297 30.5552 15.8293C30.8252 15.9276 31.1377 15.9502 31.4147 15.9502V15.7002ZM30.174 15.1508C30.1145 14.9731 29.9704 14.8444 29.7997 14.7591C29.6282 14.6734 29.4182 14.6251 29.2015 14.613C28.7729 14.589 28.2795 14.7059 27.9742 15.0124L28.1514 15.1888C28.3888 14.9504 28.801 14.841 29.1876 14.8626C29.3786 14.8733 29.5536 14.9156 29.688 14.9828C29.8231 15.0503 29.9056 15.1366 29.9369 15.2301L30.174 15.1508ZM27.9745 15.0121C27.7095 15.2766 27.5734 15.3005 27.472 15.2736C27.4113 15.2574 27.3451 15.2188 27.2593 15.1535C27.1698 15.0854 27.0846 15.0094 26.9631 14.9123L26.807 15.1076C26.9118 15.1914 27.0191 15.285 27.108 15.3525C27.2005 15.4229 27.2985 15.4861 27.4077 15.5152C27.6462 15.5786 27.8726 15.467 28.1511 15.1891L27.9745 15.0121ZM26.963 14.9122C26.8153 14.7945 26.6092 14.7602 26.403 14.7676C26.1932 14.7753 25.9625 14.8267 25.7446 14.9032C25.5264 14.9798 25.3154 15.0834 25.1453 15.1993C24.9798 15.3122 24.8353 15.4487 24.7762 15.5978L25.0086 15.6899C25.0394 15.6123 25.1321 15.511 25.2862 15.4059C25.4357 15.304 25.6266 15.2096 25.8274 15.1391C26.0285 15.0685 26.2338 15.0239 26.4121 15.0175C26.5939 15.0109 26.7279 15.0445 26.8071 15.1077L26.963 14.9122ZM24.7763 15.5975C24.7449 15.6763 24.6733 15.7535 24.5592 15.818C24.4458 15.8822 24.2977 15.9291 24.1292 15.9502C23.7914 15.9926 23.3902 15.9289 23.055 15.7192L22.9225 15.9312C23.3123 16.175 23.7726 16.2469 24.1603 16.1983C24.3544 16.174 24.5351 16.1189 24.6822 16.0357C24.8287 15.9529 24.9496 15.8377 25.0085 15.6902L24.7763 15.5975ZM23.055 15.7192C22.8726 15.6052 22.7042 15.5061 22.5541 15.4325C22.4059 15.3597 22.2659 15.3067 22.1423 15.2929C22.0145 15.2787 21.8867 15.3057 21.7973 15.4142C21.7156 15.5134 21.6868 15.6574 21.6868 15.8252H21.9368C21.9368 15.6757 21.9646 15.6043 21.9903 15.5731C22.0083 15.5513 22.0387 15.5329 22.1146 15.5414C22.1946 15.5503 22.3034 15.5879 22.4439 15.6569C22.5825 15.7249 22.7424 15.8186 22.9225 15.9312L23.055 15.7192ZM21.6868 15.8252C21.6868 15.8967 21.679 15.943 21.6698 15.9709C21.6606 15.9988 21.6532 15.9993 21.6599 15.995C21.6803 15.982 21.6757 16.0074 21.6152 15.9619C21.5644 15.9237 21.5071 15.8564 21.4626 15.7761C21.4177 15.6951 21.3933 15.6144 21.3933 15.5523H21.1433C21.1433 15.6711 21.1868 15.7941 21.2439 15.8972C21.3013 16.0008 21.3799 16.0978 21.465 16.1618C21.5403 16.2184 21.6716 16.2837 21.7939 16.206C21.8516 16.1694 21.8867 16.1114 21.9072 16.0493C21.9277 15.9872 21.9368 15.912 21.9368 15.8252H21.6868ZM21.3933 15.5523C21.3933 15.4747 21.3625 15.4008 21.3236 15.3364C21.2839 15.2706 21.229 15.2038 21.166 15.1379C21.04 15.0061 20.8693 14.8656 20.6861 14.7284C20.32 14.4542 19.8837 14.1787 19.6165 14L19.4775 14.2079C19.753 14.392 20.1773 14.6597 20.5362 14.9285C20.7155 15.0628 20.8734 15.1937 20.9853 15.3107C21.0413 15.3693 21.0828 15.4212 21.1096 15.4657C21.1373 15.5115 21.1433 15.5394 21.1433 15.5523H21.3933ZM19.6161 13.9998C19.4599 13.8963 19.2312 13.8247 18.9907 13.7679C18.7472 13.7105 18.4736 13.6645 18.221 13.6196C17.9648 13.574 17.7321 13.5299 17.5583 13.4759C17.4713 13.4488 17.4062 13.4213 17.3626 13.3941C17.3413 13.3807 17.3281 13.3693 17.3206 13.3607C17.3169 13.3566 17.3149 13.3535 17.3139 13.3517C17.3134 13.3508 17.3131 13.3501 17.3129 13.3497C17.3128 13.3493 17.3127 13.3491 17.3127 13.3491L17.0702 13.4096C17.093 13.5011 17.1621 13.5635 17.2301 13.6061C17.3002 13.6499 17.3886 13.6849 17.4841 13.7146C17.6754 13.7741 17.9239 13.8207 18.1772 13.8657C18.4341 13.9114 18.6984 13.9558 18.9333 14.0112C19.1714 14.0674 19.3619 14.1312 19.4779 14.2081L19.6161 13.9998ZM17.3127 13.3489C17.2774 13.2086 17.1555 13.1012 17.026 13.0287C16.8911 12.9532 16.7218 12.9004 16.5483 12.8817C16.2085 12.845 15.7957 12.9381 15.629 13.3305L15.8591 13.4282C15.9621 13.1859 16.2275 13.0985 16.5214 13.1302C16.6647 13.1457 16.801 13.1893 16.9039 13.2469C17.0121 13.3074 17.0601 13.3696 17.0702 13.4098L17.3127 13.3489ZM15.6292 13.33C15.5672 13.4743 15.5038 13.5361 15.453 13.5619C15.4044 13.5867 15.3464 13.5893 15.2686 13.5665C15.1886 13.543 15.1011 13.4964 15.0041 13.4386C14.9126 13.3841 14.8075 13.3162 14.7116 13.2678L14.599 13.491C14.6845 13.5341 14.7722 13.5914 14.8761 13.6534C14.9746 13.7121 15.0855 13.7733 15.1982 13.8063C15.3131 13.8401 15.4421 13.8481 15.5666 13.7847C15.6889 13.7223 15.7844 13.6022 15.8589 13.4287L15.6292 13.33ZM14.7111 13.2675C14.5869 13.2056 14.4376 13.2035 14.2945 13.2249C14.1488 13.2467 13.9921 13.2955 13.8408 13.3537C13.5391 13.4698 13.2363 13.6327 13.0596 13.721L13.1713 13.9446C13.3576 13.8515 13.6436 13.6975 13.9306 13.587C14.0736 13.532 14.2112 13.4902 14.3315 13.4722C14.4543 13.4538 14.5427 13.4629 14.5995 13.4912L14.7111 13.2675ZM13.0593 13.7211C12.9637 13.7693 12.8168 13.8576 12.6481 13.958C12.4769 14.0599 12.2778 14.1776 12.0707 14.2895C11.8634 14.4015 11.6506 14.5062 11.4523 14.5827C11.2519 14.6601 11.0766 14.7044 10.9414 14.7044V14.9544C11.1228 14.9544 11.3324 14.897 11.5424 14.816C11.7546 14.7341 11.9778 14.6238 12.1896 14.5094C12.4016 14.3949 12.6046 14.2748 12.776 14.1728C12.9499 14.0693 13.0862 13.9874 13.1717 13.9444L13.0593 13.7211ZM10.9414 14.7044C10.7508 14.7044 10.6183 14.7683 10.5239 14.8783C10.4392 14.977 10.3916 15.1085 10.3496 15.2133C10.3043 15.3263 10.26 15.4268 10.1854 15.5109C10.1137 15.5916 10.0077 15.664 9.82797 15.7041L9.88239 15.9481C10.1092 15.8975 10.2631 15.7999 10.3723 15.6768C10.4786 15.557 10.5363 15.4196 10.5817 15.3062C10.6305 15.1845 10.6624 15.1008 10.7137 15.041C10.7553 14.9925 10.8152 14.9544 10.9414 14.9544V14.7044ZM9.82818 15.704C9.61126 15.752 9.44879 15.8266 9.33233 15.9258C9.21387 16.0267 9.14956 16.1474 9.12147 16.2739C9.09401 16.3975 9.10192 16.5227 9.12021 16.6352C9.13834 16.7467 9.16878 16.8565 9.19039 16.9429L9.43292 16.8822C9.40917 16.7873 9.3829 16.6931 9.36697 16.5951C9.35121 16.4981 9.34773 16.4082 9.36552 16.3281C9.38269 16.2508 9.42029 16.1793 9.4944 16.1162C9.57049 16.0514 9.69124 15.9904 9.88219 15.9481L9.82818 15.704ZM9.19036 16.9427C9.21526 17.0428 9.26528 17.1619 9.30645 17.2694C9.35003 17.3832 9.38795 17.4936 9.40287 17.5975C9.41761 17.7001 9.40826 17.7856 9.36837 17.8568C9.32889 17.9272 9.24931 18.0017 9.08722 18.0624L9.1749 18.2966C9.37487 18.2217 9.51013 18.1152 9.58644 17.979C9.66234 17.8436 9.66973 17.697 9.65033 17.5619C9.63112 17.4281 9.58403 17.2952 9.53991 17.18C9.49337 17.0584 9.45299 16.9628 9.43296 16.8824L9.19036 16.9427ZM9.08715 18.0625C8.94228 18.1168 8.82815 18.0987 8.72166 18.0373C8.60726 17.9714 8.49783 17.8529 8.38051 17.6967C8.32266 17.6197 8.26518 17.5367 8.20524 17.45C8.14579 17.3639 8.08398 17.2743 8.01947 17.1873C7.89107 17.0141 7.74594 16.8427 7.5716 16.7177L7.42589 16.9208C7.56825 17.0229 7.69488 17.1692 7.81864 17.3361C7.88021 17.4192 7.93958 17.5053 7.99957 17.5921C8.05908 17.6782 8.11931 17.7652 8.1806 17.8468C8.30156 18.0079 8.43614 18.1613 8.5968 18.2539C8.76537 18.3511 8.95736 18.3782 9.17498 18.2965L9.08715 18.0625ZM7.57116 16.7174C7.39591 16.5928 7.21918 16.5315 7.0497 16.5284C6.87987 16.5253 6.72614 16.5809 6.59859 16.6751C6.34633 16.8616 6.19771 17.1966 6.19771 17.5456H6.44771C6.44771 17.2607 6.56998 17.0071 6.74718 16.8762C6.83435 16.8118 6.93499 16.7764 7.04513 16.7784C7.15562 16.7804 7.28445 16.8203 7.42633 16.9211L7.57116 16.7174ZM6.19771 17.5456C6.19771 17.6771 6.16109 17.7698 6.10337 17.8473C6.04258 17.929 5.95511 17.9985 5.84298 18.0768C5.62608 18.2282 5.32457 18.4034 5.12632 18.7496L5.34326 18.8738C5.50707 18.5878 5.74952 18.4469 5.98607 18.2818C6.10066 18.2018 6.21728 18.113 6.30391 17.9966C6.3936 17.8761 6.44771 17.7311 6.44771 17.5456H6.19771ZM5.12625 18.7497C5.02172 18.9327 5.00478 19.0984 5.06595 19.2448C5.12326 19.382 5.24012 19.4784 5.34725 19.5498C5.4022 19.5865 5.45941 19.6195 5.51143 19.6493C5.56491 19.6799 5.61155 19.7062 5.6519 19.7323C5.69282 19.7588 5.71913 19.7799 5.73441 19.7971C5.74888 19.8133 5.74492 19.8162 5.74492 19.8092H5.99492C5.99492 19.7339 5.9598 19.6743 5.92115 19.6309C5.88331 19.5884 5.83454 19.5527 5.78764 19.5224C5.74015 19.4917 5.68621 19.4613 5.63556 19.4323C5.58345 19.4025 5.53298 19.3732 5.48592 19.3418C5.38901 19.2772 5.32446 19.215 5.29663 19.1484C5.27265 19.091 5.26683 19.0076 5.34333 18.8737L5.12625 18.7497ZM5.74492 19.8092C5.74492 19.8353 5.73115 19.8754 5.68587 19.9301C5.64179 19.9834 5.57784 20.0383 5.50295 20.0918C5.35337 20.1986 5.18069 20.2853 5.08928 20.3316L5.20233 20.5546C5.29151 20.5094 5.48089 20.4147 5.64822 20.2952C5.73178 20.2356 5.815 20.1662 5.87848 20.0895C5.94075 20.0142 5.99492 19.9187 5.99492 19.8092H5.74492ZM5.0895 20.3315C5.04432 20.3543 5.00437 20.3938 4.97222 20.431C4.93774 20.4709 4.90232 20.52 4.86765 20.5742C4.79823 20.6828 4.727 20.8194 4.66785 20.9611C4.60893 21.1022 4.55986 21.2535 4.53789 21.3908C4.51713 21.5206 4.51511 21.6698 4.5881 21.7794L4.79618 21.6408C4.77887 21.6148 4.76573 21.5492 4.78475 21.4303C4.80255 21.319 4.84416 21.1877 4.89855 21.0574C4.95271 20.9277 5.01741 20.8041 5.07828 20.7089C5.10876 20.6612 5.13708 20.6226 5.16138 20.5944C5.1735 20.5804 5.18365 20.5701 5.19166 20.5631C5.20014 20.5556 5.20359 20.554 5.20211 20.5547L5.0895 20.3315ZM4.5881 21.7794C4.627 21.8378 4.68418 21.878 4.73994 21.9075C4.7966 21.9374 4.86181 21.9612 4.92753 21.9818C4.99351 22.0026 5.06535 22.0217 5.13537 22.0405C5.2065 22.0597 5.27674 22.0788 5.34436 22.1004C5.48259 22.1446 5.59344 22.1946 5.66442 22.2602C5.72743 22.3183 5.76266 22.3912 5.74615 22.5078L5.99369 22.5429C6.02211 22.3421 5.95516 22.1883 5.83398 22.0764C5.72076 21.9719 5.56541 21.9087 5.42054 21.8623C5.34661 21.8386 5.27107 21.8182 5.20033 21.7991C5.12849 21.7798 5.06237 21.7622 5.00245 21.7433C4.94227 21.7244 4.89363 21.7059 4.85662 21.6864C4.81872 21.6664 4.80243 21.6502 4.79618 21.6408L4.5881 21.7794ZM5.74618 22.5076C5.72361 22.6651 5.70044 22.827 5.68736 22.9767C5.67439 23.1252 5.67048 23.2703 5.68985 23.3931C5.70876 23.513 5.75414 23.6385 5.86433 23.7114C5.97721 23.7862 6.11921 23.7808 6.27061 23.7304L6.1916 23.4932C6.07212 23.533 6.02218 23.5161 6.00237 23.503C5.97986 23.4881 5.9518 23.4493 5.93679 23.3542C5.92225 23.2619 5.92395 23.1411 5.93642 22.9984C5.94878 22.8569 5.97086 22.7021 5.99366 22.5431L5.74618 22.5076ZM6.27061 23.7304C6.78937 23.5576 7.29229 23.6453 7.68108 23.6453V23.3953C7.34577 23.3953 6.76164 23.3033 6.1916 23.4932L6.27061 23.7304ZM7.68108 23.6453C7.7272 23.6453 7.78332 23.6676 7.85903 23.737C7.93496 23.8066 8.0164 23.9103 8.11239 24.0456C8.30017 24.3105 8.53406 24.6839 8.85626 25.0534L9.04468 24.889C8.73349 24.5322 8.51416 24.1801 8.31633 23.9011C8.21951 23.7645 8.12505 23.6417 8.02791 23.5527C7.93055 23.4635 7.81643 23.3953 7.68108 23.3953V23.6453ZM8.85641 25.0535C9.01491 25.2346 9.14785 25.3898 9.24941 25.5242C9.3523 25.6604 9.4154 25.7656 9.44259 25.8472C9.4681 25.9237 9.45714 25.9615 9.43619 25.989C9.40749 26.0268 9.33832 26.0739 9.18739 26.1171L9.25621 26.3575C9.42197 26.31 9.5564 26.244 9.63518 26.1404C9.7217 26.0266 9.72207 25.895 9.67975 25.7681C9.63911 25.6462 9.5552 25.5142 9.44888 25.3735C9.34122 25.231 9.20272 25.0696 9.04453 24.8889L8.85641 25.0535ZM9.18763 26.117C9.02214 26.1641 8.88779 26.2297 8.81156 26.3268C8.77103 26.3785 8.74723 26.4389 8.74594 26.5052C8.74468 26.5698 8.76499 26.6303 8.79573 26.684C8.85541 26.7883 8.96519 26.8863 9.10094 26.9777C9.23936 27.0709 9.41648 27.165 9.62472 27.2575L9.7262 27.029C9.52615 26.9401 9.36302 26.8528 9.24058 26.7704C9.11547 26.6861 9.04379 26.6141 9.01273 26.5599C8.9981 26.5343 8.99573 26.5183 8.99589 26.51C8.99602 26.5034 8.99774 26.4945 9.00825 26.4811C9.03409 26.4482 9.10389 26.4007 9.25597 26.3575L9.18763 26.117ZM9.62502 27.2576C9.82877 27.3475 10.0456 27.4863 10.263 27.6395L10.407 27.4352C10.1864 27.2797 9.95313 27.1291 9.7259 27.0289L9.62502 27.2576ZM10.4048 27.6411C10.5358 27.5529 10.6685 27.4608 10.7853 27.357L10.6193 27.1701C10.5162 27.2617 10.3959 27.3457 10.2652 27.4337L10.4048 27.6411ZM10.785 27.3573C11.2853 26.916 11.9964 26.4859 12.7524 26.2117C13.5101 25.9368 14.2978 25.8239 14.9577 25.9972L15.0212 25.7554C14.293 25.5642 13.4497 25.6928 12.6671 25.9767C11.8829 26.2611 11.1444 26.707 10.6196 27.1698L10.785 27.3573ZM14.958 25.9973C15.6731 26.183 16.3323 26.1214 16.8547 26.1214C17.3869 26.1214 17.7659 26.1836 18.0294 26.5516L18.2327 26.406C17.8917 25.9299 17.3946 25.8714 16.8547 25.8714C16.3049 25.8714 15.6955 25.9305 15.0209 25.7553L14.958 25.9973ZM18.0292 26.5513C18.3002 26.9318 18.3064 27.4907 18.2605 28.0681C18.2385 28.346 18.2036 28.6367 18.1905 28.8826C18.1774 29.1282 18.1829 29.3645 18.255 29.5434L18.4869 29.4499C18.4374 29.3271 18.4271 29.1408 18.4402 28.8959C18.4532 28.6513 18.4863 28.3835 18.5098 28.0879C18.555 27.5183 18.563 26.8698 18.2329 26.4063L18.0292 26.5513ZM18.255 29.5432C18.2775 29.5994 18.2779 29.639 18.2707 29.6673C18.2635 29.6957 18.2454 29.7259 18.2082 29.7573C18.1292 29.8242 17.9844 29.8798 17.7826 29.9165C17.3851 29.9887 16.841 29.9748 16.396 29.9143L16.3624 30.162C16.8221 30.2245 17.3947 30.2411 17.8273 30.1624C18.0407 30.1237 18.2392 30.0586 18.3697 29.9482C18.4372 29.891 18.4903 29.8184 18.5131 29.7287C18.5358 29.6387 18.5248 29.5445 18.487 29.4501L18.255 29.5432ZM16.3954 29.9142C15.9182 29.8518 15.204 29.9473 14.6417 30.1244C14.3608 30.2129 14.105 30.3257 13.9325 30.4584C13.8462 30.5247 13.7723 30.6025 13.731 30.6929C13.6874 30.7883 13.6828 30.8928 13.7291 30.9955L13.957 30.8927C13.9423 30.8601 13.9427 30.8311 13.9584 30.7968C13.9763 30.7577 14.0157 30.7098 14.0849 30.6565C14.2233 30.5501 14.4466 30.448 14.7168 30.3628C15.2569 30.1927 15.9329 30.1059 16.363 30.1621L16.3954 29.9142ZM13.7289 30.9949C13.7915 31.1357 13.8754 31.3105 13.9522 31.4942C14.029 31.6782 14.0914 31.8547 14.1114 31.9891C14.1215 32.057 14.1187 32.1015 14.1108 32.1268C14.1051 32.1453 14.0998 32.1476 14.0918 32.1502C14.0744 32.1559 14.0308 32.1602 13.9438 32.1352C13.8592 32.1109 13.7464 32.0628 13.5997 31.9821L13.4792 32.2011C13.6345 32.2866 13.7654 32.3441 13.8749 32.3755C13.982 32.4062 14.0829 32.4161 14.1695 32.3878C14.2654 32.3565 14.3236 32.2851 14.3497 32.2007C14.3736 32.1232 14.371 32.0355 14.3586 31.9523C14.3337 31.7848 14.2605 31.5837 14.1828 31.3978C14.1051 31.2117 14.0155 31.0241 13.9573 30.8933L13.7289 30.9949ZM13.5998 31.9821C13.2796 31.8058 12.9955 31.7553 12.7579 31.7913C12.5204 31.8272 12.3388 31.9485 12.2252 32.0983C12.1142 32.2446 12.0617 32.4283 12.103 32.5885C12.1241 32.6706 12.1703 32.7458 12.2443 32.7997C12.3178 32.8532 12.4103 32.8793 12.5143 32.8793V32.6293C12.452 32.6293 12.414 32.614 12.3913 32.5975C12.3691 32.5813 12.3533 32.5581 12.3451 32.5262C12.3276 32.4583 12.3467 32.3518 12.4244 32.2493C12.4995 32.1503 12.6236 32.0644 12.7954 32.0384C12.9672 32.0124 13.196 32.0452 13.4792 32.2011L13.5998 31.9821ZM12.5143 32.8793C12.8037 32.8793 13.1682 33.0551 13.4671 33.31C13.6143 33.4356 13.7396 33.5755 13.8271 33.7131C13.9158 33.8524 13.9597 33.9796 13.9597 34.0823H14.2097C14.2097 33.9138 14.1403 33.7395 14.038 33.5789C13.9348 33.4166 13.7918 33.2584 13.6293 33.1198C13.3087 32.8463 12.8881 32.6293 12.5143 32.6293V32.8793ZM13.9597 34.0823C13.9597 34.3552 13.9743 34.8066 14.0689 35.1702C14.1157 35.3502 14.1863 35.5257 14.2985 35.6448C14.3562 35.7061 14.4269 35.7546 14.5122 35.7785C14.5978 35.8025 14.6893 35.7992 14.7839 35.7706L14.7116 35.5313C14.6554 35.5483 14.6129 35.5471 14.5797 35.5378C14.5462 35.5284 14.5132 35.5082 14.4805 35.4734C14.4117 35.4004 14.3543 35.2742 14.3108 35.1072C14.2248 34.7767 14.2097 34.3527 14.2097 34.0823H13.9597ZM14.7837 35.7707C14.8927 35.738 14.9648 35.7607 15.0344 35.8141C15.1155 35.8764 15.1866 35.9754 15.2824 36.1031C15.4641 36.3455 15.7119 36.6561 16.2056 36.6214L16.1881 36.3721C15.8373 36.3967 15.6628 36.1937 15.4824 35.9531C15.397 35.8392 15.3019 35.7043 15.1866 35.6158C15.0597 35.5183 14.9052 35.4732 14.7119 35.5312L14.7837 35.7707ZM16.2055 36.6215C16.4092 36.6074 16.6066 36.6152 16.7769 36.6453C16.949 36.6758 17.0839 36.7274 17.1712 36.7937C17.2539 36.8565 17.2909 36.9288 17.2865 37.018C17.2816 37.1162 17.2255 37.2563 17.0673 37.4431L17.258 37.6047C17.4322 37.3991 17.5274 37.2074 17.5362 37.0303C17.5454 36.8442 17.4582 36.6978 17.3223 36.5946C17.191 36.4949 17.0127 36.4332 16.8204 36.3992C16.6263 36.3648 16.4081 36.3569 16.1883 36.3721L16.2055 36.6215ZM17.0672 37.4432C16.8722 37.6737 16.8146 37.9939 16.8274 38.3146C16.8404 38.6379 16.9254 38.9814 17.0382 39.2806C17.1504 39.5785 17.2943 39.8437 17.4326 40.0066C17.4986 40.0843 17.5787 40.1575 17.6679 40.1828C17.7172 40.1967 17.7739 40.1972 17.8283 40.1702C17.8809 40.1441 17.916 40.0999 17.9392 40.0537L17.7157 39.9417C17.7085 39.956 17.7068 39.9514 17.7172 39.9463C17.7293 39.9403 17.7385 39.9429 17.7361 39.9422C17.7221 39.9383 17.6827 39.9149 17.6232 39.8448C17.5103 39.7118 17.3787 39.4755 17.2721 39.1925C17.166 38.9109 17.0888 38.5943 17.0772 38.3046C17.0655 38.0122 17.1212 37.7665 17.2581 37.6047L17.0672 37.4432ZM17.9392 40.0537C17.9875 39.9574 18.0096 39.8413 18.0226 39.7264C18.0357 39.611 18.041 39.4811 18.0484 39.3574C18.0638 39.0996 18.0898 38.8589 18.1926 38.6783L17.9753 38.5547C17.8399 38.7926 17.814 39.0903 17.7989 39.3424C17.791 39.4736 17.7863 39.5916 17.7742 39.6982C17.7621 39.8055 17.7437 39.8858 17.7157 39.9416L17.9392 40.0537ZM18.199 38.5675C18.1461 38.4433 18.1316 38.3433 18.1397 38.2627C18.1477 38.1834 18.1784 38.1153 18.229 38.0546C18.3343 37.9283 18.5276 37.8323 18.7773 37.7644C19.2726 37.6298 19.9013 37.628 20.1935 37.628V37.378C19.9064 37.378 19.2443 37.3784 18.7117 37.5232C18.4474 37.5951 18.1924 37.7081 18.037 37.8945C17.9572 37.9902 17.9044 38.1045 17.8909 38.2377C17.8776 38.3696 17.9038 38.5124 17.9689 38.6654L18.199 38.5675ZM20.1935 37.628C20.3261 37.628 20.4969 37.6787 20.697 37.7805C20.8951 37.8813 21.1122 38.0271 21.3346 38.2049C21.7795 38.5606 22.2359 39.0367 22.592 39.5135L22.7923 39.3639C22.4242 38.8711 21.9532 38.3794 21.4908 38.0096C21.2595 37.8247 21.028 37.6684 20.8104 37.5577C20.5948 37.448 20.3828 37.378 20.1935 37.378V37.628ZM22.5922 39.5139C22.7837 39.7686 22.9811 39.9248 23.1745 40.0105C23.3686 40.0965 23.5516 40.1084 23.7085 40.0853C23.864 40.0623 23.9923 40.0051 24.081 39.9546C24.1256 39.9292 24.1609 39.905 24.1855 39.8868C24.1978 39.8777 24.2076 39.87 24.2145 39.8644C24.2179 39.8616 24.2207 39.8592 24.2228 39.8575C24.2238 39.8566 24.2246 39.8559 24.2253 39.8553C24.2256 39.855 24.2259 39.8548 24.2262 39.8546C24.2263 39.8544 24.2264 39.8544 24.2265 39.8543C24.2266 39.8542 24.2266 39.8542 24.2266 39.8541C24.2267 39.8541 24.2268 39.854 24.1438 39.7605C24.0609 39.667 24.061 39.6669 24.061 39.6669C24.061 39.6669 24.0611 39.6668 24.0611 39.6668C24.0612 39.6667 24.0612 39.6667 24.0612 39.6667C24.0613 39.6666 24.0613 39.6666 24.0613 39.6666C24.0613 39.6666 24.0611 39.6668 24.0607 39.6671C24.06 39.6678 24.0586 39.6689 24.0565 39.6706C24.0525 39.6739 24.0459 39.6791 24.037 39.6857C24.0191 39.699 23.992 39.7175 23.9572 39.7374C23.8871 39.7773 23.7885 39.8207 23.6719 39.8379C23.5566 39.855 23.422 39.8468 23.2758 39.782C23.129 39.7169 22.9634 39.5916 22.792 39.3636L22.5922 39.5139ZM24.2688 39.7638L24.5105 30.7373L24.2605 30.7306L24.0189 39.7572L24.2688 39.7638ZM24.4177 30.8548L29.5842 29.4788L29.5199 29.2372L24.3533 30.6132L24.4177 30.8548ZM29.6688 29.4025C29.716 29.2788 29.7678 29.1692 29.8257 29.0836L29.6186 28.9436C29.5456 29.0515 29.4858 29.1809 29.4352 29.3135L29.6688 29.4025ZM29.8251 29.0845C29.9791 28.8609 30.1386 28.75 30.289 28.7026C30.4405 28.6549 30.5973 28.667 30.7534 28.7154C31.0737 28.8149 31.3527 29.0527 31.5209 29.1749L31.6679 28.9726C31.5229 28.8673 31.1986 28.5919 30.8275 28.4767C30.6379 28.4178 30.427 28.397 30.2139 28.4642C29.9999 28.5316 29.798 28.6832 29.6192 28.9427L29.8251 29.0845ZM31.5213 29.1752C31.5486 29.1948 31.5835 29.213 31.6253 29.2177C31.6703 29.2227 31.7116 29.2107 31.7453 29.1884C31.8028 29.1504 31.8333 29.0855 31.8512 29.0412C31.8716 28.9908 31.8894 28.9297 31.9064 28.8697C31.924 28.8074 31.9416 28.7433 31.9627 28.6779C32.0054 28.5454 32.0573 28.4264 32.1314 28.3444C32.1997 28.269 32.2894 28.2215 32.4294 28.2331L32.4501 27.9839C32.2277 27.9655 32.0633 28.0472 31.9461 28.1767C31.8348 28.2996 31.7699 28.4612 31.7247 28.6012C31.7019 28.672 31.6827 28.7421 31.6658 28.8016C31.6484 28.8633 31.634 28.9115 31.6194 28.9474C31.6024 28.9894 31.5953 28.9879 31.6074 28.9799C31.6185 28.9725 31.6353 28.9672 31.6531 28.9692C31.6677 28.9709 31.6731 28.9764 31.6675 28.9723L31.5213 29.1752ZM32.4293 28.2331C32.5027 28.2393 32.5452 28.2581 32.5706 28.2774C32.5952 28.2961 32.6131 28.3222 32.6252 28.3605C32.6524 28.4461 32.6446 28.5677 32.6254 28.7186C32.6165 28.7886 32.6051 28.8663 32.5983 28.9369C32.5914 29.0078 32.5878 29.0825 32.597 29.1511C32.6061 29.2196 32.6298 29.2959 32.6898 29.3545C32.7519 29.4152 32.8346 29.4394 32.9249 29.4394V29.1894C32.8787 29.1894 32.8667 29.1778 32.8645 29.1757C32.8602 29.1715 32.8501 29.1579 32.8448 29.118C32.8395 29.0783 32.8408 29.0264 32.8471 28.961C32.8535 28.8953 32.8636 28.8271 32.8734 28.7501C32.8916 28.6072 32.91 28.431 32.8635 28.2848C32.8389 28.2073 32.795 28.1339 32.7218 28.0783C32.6493 28.0233 32.5578 27.993 32.4503 27.9839L32.4293 28.2331ZM32.9249 29.4394C32.9427 29.4394 32.9796 29.4486 33.0365 29.4858C33.0913 29.5216 33.1546 29.577 33.2226 29.6515C33.3584 29.8002 33.5031 30.0141 33.6272 30.2668C33.877 30.7753 34.0305 31.4128 33.8891 31.9619L34.1312 32.0243C34.2934 31.3945 34.115 30.6927 33.8516 30.1566C33.7191 29.8869 33.5618 29.6522 33.4072 29.4829C33.33 29.3983 33.2509 29.3273 33.1734 29.2766C33.0978 29.2272 33.0123 29.1894 32.9249 29.1894V29.4394ZM33.9309 32.0897C34.3273 32.4151 34.8878 32.9644 35.3661 33.4825C35.605 33.7412 35.8217 33.9904 35.986 34.1982C36.0682 34.3022 36.1363 34.3945 36.1873 34.4718C36.2398 34.5514 36.2686 34.6069 36.2792 34.6392L36.5168 34.5613C36.4953 34.4957 36.4507 34.417 36.3959 34.3341C36.3397 34.2488 36.2668 34.1503 36.1821 34.0431C36.0125 33.8286 35.7912 33.5744 35.5498 33.3129C35.0676 32.7906 34.4983 32.232 34.0895 31.8965L33.9309 32.0897ZM36.2795 34.64C36.3167 34.7506 36.4073 34.8122 36.5029 34.8441C36.5965 34.8753 36.7099 34.884 36.8284 34.8815C37.0665 34.8763 37.3664 34.8239 37.6635 34.7637C37.9664 34.7024 38.2644 34.6334 38.5189 34.5882C38.6451 34.5658 38.7553 34.5503 38.8445 34.5449C38.9384 34.5392 38.9916 34.5461 39.0149 34.5553L39.1064 34.3226C39.0287 34.2921 38.9281 34.2894 38.8294 34.2953C38.726 34.3016 38.6048 34.319 38.4752 34.342C38.2178 34.3877 37.9059 34.4595 37.6139 34.5187C37.3161 34.579 37.0362 34.6269 36.823 34.6315C36.7158 34.6339 36.6357 34.6248 36.582 34.6069C36.5302 34.5896 36.5199 34.5706 36.5165 34.5604L36.2795 34.64ZM39.0142 34.555C39.0817 34.582 39.1902 34.601 39.3147 34.6162C39.4438 34.6321 39.6047 34.6455 39.786 34.6569C40.1488 34.6798 40.5992 34.695 41.0535 34.705C41.9622 34.7252 42.891 34.7252 43.1742 34.7252V34.4752C42.8911 34.4752 41.9647 34.4752 41.059 34.4551C40.606 34.445 40.1595 34.43 39.8017 34.4074C39.6226 34.3962 39.4673 34.3831 39.3451 34.3681C39.2183 34.3525 39.1404 34.3362 39.1071 34.3229L39.0142 34.555ZM43.1742 34.7252C43.2747 34.7252 43.3783 34.7718 43.495 34.8643C43.612 34.9572 43.7281 35.0848 43.855 35.2272C43.979 35.3663 44.1128 35.5188 44.2569 35.6457C44.4014 35.7729 44.5654 35.8829 44.7544 35.9301L44.8149 35.6875C44.6807 35.654 44.5522 35.5726 44.4222 35.4581C44.2918 35.3433 44.169 35.2037 44.0416 35.0608C43.9172 34.9213 43.7871 34.777 43.6504 34.6685C43.5132 34.5596 43.3554 34.4752 43.1742 34.4752V34.7252ZM44.7539 35.9299C44.8774 35.9612 44.9562 36.0318 45.0111 36.1365C45.0688 36.2468 45.0999 36.3958 45.1146 36.5764C45.1292 36.7561 45.1269 36.9537 45.1256 37.1583C45.1244 37.3598 45.1243 37.5682 45.1455 37.7576L45.394 37.7297C45.3746 37.5573 45.3744 37.3633 45.3756 37.1598C45.3768 36.9594 45.3795 36.7492 45.3638 36.5562C45.3482 36.3641 45.3136 36.1753 45.2325 36.0205C45.1485 35.8601 45.0152 35.7383 44.8154 35.6876L44.7539 35.9299ZM45.1455 37.7577C45.1687 37.963 45.2536 38.1616 45.3612 38.349C45.4688 38.5366 45.6042 38.7212 45.7348 38.8972C45.8672 39.0756 45.994 39.2443 46.0934 39.4084C46.1931 39.573 46.2579 39.7215 46.2746 39.8569L46.5227 39.8263C46.4997 39.6391 46.4138 39.4547 46.3072 39.2788C46.2003 39.1024 46.0652 38.923 45.9356 38.7482C45.8041 38.571 45.6773 38.3975 45.578 38.2246C45.4786 38.0514 45.4117 37.887 45.394 37.7296L45.1455 37.7577ZM46.2747 39.8574C46.3006 40.0605 46.4078 40.1952 46.5619 40.2759C46.7065 40.3516 46.8878 40.3777 47.0677 40.3881C47.2473 40.3985 47.4508 40.3938 47.6337 40.3964C47.8226 40.3991 47.9966 40.4093 48.1428 40.4459L48.2035 40.2034C48.0274 40.1593 47.8287 40.1491 47.6372 40.1464C47.4398 40.1436 47.2553 40.1485 47.0821 40.1385C46.9092 40.1285 46.7729 40.1042 46.6779 40.0544C46.5923 40.0096 46.5377 39.9436 46.5227 39.8257L46.2747 39.8574ZM48.143 40.446C48.4684 40.5268 48.8581 40.6245 49.1765 40.7788C49.4989 40.9351 49.7089 41.1301 49.7408 41.3865L49.9889 41.3556C49.9405 40.9675 49.6275 40.7196 49.2855 40.5539C48.9396 40.3862 48.5236 40.2829 48.2033 40.2033L48.143 40.446ZM49.7408 41.3865C49.7642 41.5747 49.8468 41.7143 49.9895 41.7755C50.1235 41.833 50.2741 41.8043 50.4005 41.747C50.53 41.6883 50.6554 41.5907 50.7541 41.4751C50.8524 41.3598 50.9312 41.2184 50.9557 41.0686L50.709 41.0282C50.6938 41.1207 50.6419 41.2214 50.5639 41.3128C50.4863 41.4038 50.3897 41.4774 50.2973 41.5193C50.2019 41.5626 50.1304 41.5639 50.088 41.5457C50.0541 41.5312 50.0056 41.4895 49.9889 41.3556L49.7408 41.3865ZM50.9556 41.0691C50.9712 40.9763 51.0242 40.8645 51.1228 40.7381C51.2207 40.6126 51.3587 40.4787 51.5345 40.3422C51.886 40.069 52.3787 39.7922 52.9744 39.5539L52.8815 39.3218C52.2697 39.5666 51.7552 39.854 51.3811 40.1448C51.194 40.2901 51.0396 40.4382 50.9256 40.5844C50.8124 40.7296 50.734 40.8794 50.7091 41.0276L50.9556 41.0691ZM52.9744 39.5539C53.503 39.3421 53.8285 39.3516 54.0625 39.4397L54.1507 39.2058C53.8386 39.0882 53.4451 39.0959 52.8814 39.3218L52.9744 39.5539ZM54.2231 39.3681C54.335 39.0806 54.4472 38.8187 54.55 38.6214C54.6016 38.5226 54.6492 38.4431 54.6915 38.3858C54.7371 38.324 54.7652 38.3039 54.7732 38.3004L54.6736 38.0711C54.6013 38.1025 54.5403 38.1697 54.4904 38.2373C54.4372 38.3093 54.3828 38.4014 54.3284 38.5058C54.2192 38.7151 54.1032 38.9868 53.9901 39.2774L54.2231 39.3681ZM54.7725 38.3007C54.9986 38.2041 55.3128 37.9991 55.5791 37.7412C55.8424 37.4862 56.0807 37.1584 56.1163 36.8121L55.8676 36.7866C55.8412 37.0437 55.6554 37.3192 55.4052 37.5617C55.1578 37.8012 54.8687 37.9878 54.6743 38.0708L54.7725 38.3007ZM56.1163 36.8115C56.1247 36.7256 56.1888 36.6414 56.3474 36.5733C56.5049 36.5057 56.7302 36.4671 56.9972 36.4633C57.5301 36.4557 58.1898 36.5873 58.714 36.8484L58.8255 36.6247C58.2626 36.3443 57.563 36.2052 56.9936 36.2133C56.7095 36.2173 56.4479 36.2581 56.2488 36.3436C56.0508 36.4286 55.8887 36.5709 55.8675 36.7871L56.1163 36.8115ZM58.7137 36.8483C59.2578 37.1209 59.7255 37.274 60.0753 37.232C60.257 37.2102 60.4119 37.1351 60.5234 36.995C60.6324 36.8581 60.6897 36.672 60.7056 36.4462L60.4562 36.4287C60.4424 36.6254 60.3942 36.7559 60.3278 36.8393C60.2639 36.9195 60.1734 36.9684 60.0455 36.9838C59.776 37.0161 59.3678 36.8963 58.8257 36.6248L58.7137 36.8483ZM60.7056 36.4462C60.7175 36.2763 60.8045 36.1316 60.9488 36.0096C61.0946 35.8864 61.2942 35.7911 61.5139 35.7263C61.7328 35.6617 61.9648 35.6293 62.1697 35.6275C62.3783 35.6256 62.544 35.6554 62.6392 35.7027L62.7504 35.4789C62.6035 35.4058 62.3914 35.3755 62.1674 35.3775C61.9398 35.3795 61.6847 35.4152 61.4431 35.4865C61.2023 35.5576 60.9679 35.6661 60.7874 35.8187C60.6055 35.9724 60.474 36.1753 60.4562 36.4287L60.7056 36.4462ZM62.6388 35.7026C62.875 35.8208 63.3818 36.0972 63.9176 36.3037C64.1859 36.4072 64.4667 36.4953 64.7295 36.5376C64.9901 36.5795 65.2475 36.5789 65.4598 36.49L65.3632 36.2594C65.2135 36.3221 65.0106 36.3296 64.7693 36.2908C64.5303 36.2523 64.2675 36.1707 64.0075 36.0705C63.4865 35.8696 62.9971 35.6023 62.7507 35.479L62.6388 35.7026ZM65.4596 36.4901C65.5331 36.4595 65.6545 36.4336 65.8217 36.4155C65.9864 36.3976 66.1866 36.3881 66.4121 36.3858C66.863 36.3813 67.4083 36.4058 67.9611 36.4473C69.0702 36.5307 70.1925 36.6814 70.634 36.7989L70.6983 36.5573C70.2325 36.4333 69.09 36.2815 67.9799 36.198C67.4231 36.1562 66.8701 36.1312 66.4096 36.1359C66.1794 36.1382 65.9705 36.1479 65.7948 36.1669C65.6216 36.1857 65.4712 36.2145 65.3635 36.2593L65.4596 36.4901ZM70.6343 36.799C71.1098 36.9244 71.4419 36.8312 71.6804 36.8249C71.8011 36.8217 71.9113 36.8367 72.0355 36.8997C72.1628 36.9644 72.3128 37.0836 72.5033 37.3033L72.6922 37.1394C72.4901 36.9065 72.3155 36.7615 72.1486 36.6768C71.9785 36.5904 71.8247 36.571 71.6738 36.575C71.3692 36.583 71.1282 36.6707 70.6981 36.5573L70.6343 36.799ZM72.5033 37.3032C72.6772 37.504 72.8365 37.6182 72.9945 37.6793C73.1519 37.7402 73.2967 37.7437 73.4267 37.7423C73.5599 37.7409 73.6726 37.735 73.7992 37.7617C73.9217 37.7875 74.0613 37.8454 74.2305 37.9808L74.3867 37.7856C74.1898 37.628 74.0149 37.5516 73.8507 37.517C73.6907 37.4834 73.5447 37.491 73.424 37.4923C73.3 37.4937 73.1954 37.489 73.0847 37.4462C72.9746 37.4036 72.8472 37.3185 72.6922 37.1395L72.5033 37.3032ZM74.4336 37.8813C74.4317 37.76 74.4185 37.6238 74.4065 37.4864C74.3943 37.3466 74.383 37.2015 74.383 37.0531H74.133C74.133 37.2133 74.1452 37.3677 74.1574 37.5081C74.1699 37.6507 74.1819 37.7752 74.1836 37.8851L74.4336 37.8813ZM74.383 37.0531C74.383 36.9391 74.427 36.8215 74.5074 36.6964C74.588 36.5712 74.6994 36.447 74.8226 36.321C74.9416 36.1993 75.0786 36.069 75.1898 35.9484C75.3017 35.8269 75.4056 35.6968 75.4595 35.5611L75.2271 35.4688C75.1912 35.5593 75.1144 35.6613 75.006 35.779C74.8968 35.8974 74.7737 36.0134 74.6438 36.1463C74.5182 36.2749 74.392 36.4137 74.2972 36.5612C74.2022 36.7088 74.133 36.8736 74.133 37.0531H74.383ZM75.4593 35.5616C75.493 35.4777 75.4958 35.3833 75.4847 35.2911C75.4735 35.1978 75.4466 35.0967 75.4111 34.9932C75.3403 34.7864 75.2293 34.5535 75.116 34.3272C75.0011 34.0975 74.8845 33.8759 74.7951 33.6805C74.7506 33.5834 74.7145 33.4961 74.6896 33.4209C74.6642 33.344 74.6534 33.2881 74.6534 33.2513H74.4034C74.4034 33.3279 74.4239 33.4136 74.4522 33.4994C74.4812 33.587 74.5215 33.6836 74.5677 33.7846C74.6596 33.9852 74.7809 34.2162 74.8925 34.4391C75.0057 34.6653 75.1098 34.8849 75.1746 35.0742C75.207 35.1687 75.2281 35.2516 75.2365 35.321C75.245 35.3917 75.2392 35.4388 75.2273 35.4683L75.4593 35.5616ZM74.6534 33.2513C74.6534 33.0261 74.6537 32.6318 74.5951 32.2642C74.5658 32.0805 74.5209 31.8971 74.4505 31.7422C74.3806 31.5883 74.2793 31.449 74.1295 31.3745L74.0183 31.5984C74.0958 31.6369 74.1649 31.718 74.2229 31.8456C74.2803 31.972 74.3206 32.1309 74.3482 32.3036C74.4032 32.6488 74.4034 33.024 74.4034 33.2513H74.6534ZM74.1296 31.3746C74.0914 31.3556 74.1018 31.348 74.1048 31.3649C74.107 31.377 74.0993 31.3709 74.123 31.339C74.1705 31.275 74.2816 31.1914 74.4351 31.1056C74.5839 31.0224 74.7567 30.9459 74.9107 30.8914C74.9876 30.8642 75.0582 30.843 75.1175 30.8293C75.1791 30.815 75.2204 30.8107 75.2419 30.8117L75.2544 30.562C75.1977 30.5592 75.1294 30.5699 75.061 30.5857C74.9903 30.6021 74.9105 30.6263 74.8273 30.6557C74.6611 30.7145 74.4753 30.7967 74.3131 30.8873C74.1558 30.9753 74.0037 31.0803 73.9223 31.1899C73.8817 31.2446 73.8431 31.3215 73.8587 31.4089C73.8752 31.5011 73.9434 31.5612 74.0182 31.5984L74.1296 31.3746ZM75.2419 30.8117C75.4309 30.8213 75.6327 30.7793 75.8265 30.7215C76.0207 30.6635 76.2182 30.5861 76.3954 30.5198C76.5769 30.452 76.7344 30.397 76.8626 30.3749C76.9961 30.3519 77.0556 30.3719 77.0832 30.3991L77.2589 30.2213C77.1398 30.1037 76.9697 30.1027 76.8201 30.1285C76.6653 30.1552 76.4864 30.2189 76.3078 30.2857C76.1249 30.354 75.9387 30.4271 75.7551 30.4819C75.5712 30.5367 75.4014 30.5695 75.2545 30.562L75.2419 30.8117ZM77.0824 30.3984C77.2522 30.5691 77.4981 30.6705 77.7644 30.7304C78.0328 30.7907 78.3356 30.8119 78.6332 30.8119V30.5619C78.3455 30.5619 78.0628 30.5412 77.8193 30.4865C77.5738 30.4313 77.3813 30.3443 77.2597 30.2221L77.0824 30.3984ZM78.6332 30.8119C78.8017 30.8119 78.939 30.7634 79.0247 30.6563C79.1085 30.5515 79.1203 30.4184 79.1019 30.2981C79.0656 30.0601 78.9012 29.7948 78.7157 29.632L78.5508 29.8199C78.7012 29.9519 78.829 30.167 78.8548 30.3358C78.8675 30.4189 78.8529 30.4708 78.8294 30.5001C78.8078 30.5271 78.757 30.5619 78.6332 30.5619V30.8119ZM78.7154 29.6318C78.7211 29.6368 78.7164 29.6367 78.7117 29.6161C78.707 29.5956 78.7045 29.5639 78.7071 29.5184C78.7125 29.4276 78.737 29.3039 78.779 29.1519C78.8625 28.8491 79.0079 28.4593 79.1725 28.0444C79.2546 27.8376 79.341 27.6257 79.4262 27.4165C79.5114 27.2076 79.5955 27.0013 79.6725 26.8064C79.8256 26.4194 79.9548 26.0688 80.0097 25.8282L79.7659 25.7727C79.716 25.9916 79.5942 26.3249 79.4401 26.7145C79.3635 26.9079 79.28 27.113 79.1947 27.3222C79.1096 27.5311 79.0227 27.7441 78.9402 27.9522C78.7754 28.3673 78.6255 28.7683 78.538 29.0854C78.4944 29.2432 78.4644 29.3868 78.4576 29.5038C78.4541 29.5624 78.4561 29.6198 78.4679 29.6717C78.4797 29.7233 78.5035 29.7787 78.5511 29.8202L78.7154 29.6318ZM80.0097 25.828C80.0608 25.6024 80.1217 25.5302 80.1593 25.5087C80.1899 25.4911 80.2415 25.488 80.3537 25.5379C80.4066 25.5615 80.4645 25.5929 80.5301 25.6298C80.5941 25.6658 80.6658 25.7072 80.74 25.7463C80.8886 25.8244 81.0612 25.9007 81.2507 25.9245L81.2817 25.6764C81.1371 25.6583 80.9964 25.5986 80.8564 25.525C80.7863 25.4882 80.72 25.4498 80.6526 25.4119C80.5869 25.3749 80.52 25.3383 80.4554 25.3096C80.3327 25.2549 80.178 25.2099 80.035 25.2917C79.899 25.3696 79.819 25.538 79.7659 25.7728L80.0097 25.828ZM81.2511 25.9245C81.5952 25.9666 81.9737 25.9561 82.3 25.9613C82.6385 25.9667 82.9126 25.9892 83.0923 26.0788L83.2038 25.8551C82.9656 25.7363 82.6343 25.7166 82.304 25.7113C81.9615 25.7058 81.6081 25.7163 81.2814 25.6764L81.2511 25.9245ZM83.0927 26.0791C83.2299 26.1468 83.4136 26.1535 83.5979 26.1316C83.7869 26.1092 83.9965 26.0541 84.1995 25.9786C84.4027 25.903 84.6031 25.8054 84.7732 25.6955C84.9412 25.587 85.0891 25.4605 85.1763 25.3235L84.9654 25.1892C84.9061 25.2824 84.7924 25.3855 84.6376 25.4855C84.4848 25.5842 84.3011 25.6741 84.1123 25.7443C83.9234 25.8146 83.7333 25.8638 83.5685 25.8834C83.3989 25.9035 83.2746 25.8901 83.2034 25.8549L83.0927 26.0791ZM85.1764 25.3234C85.2639 25.1858 85.289 25.0601 85.2654 24.9322C85.2441 24.8166 85.1829 24.7061 85.1289 24.6032C85.0185 24.3929 84.883 24.1234 84.9026 23.6325L84.6528 23.6225C84.6306 24.1762 84.7878 24.4914 84.9075 24.7194C84.9686 24.8357 85.0067 24.9078 85.0196 24.9775C85.0301 25.0349 85.024 25.0971 84.9654 25.1892L85.1764 25.3234ZM84.9026 23.6327C84.9234 23.1347 85.0822 22.779 85.3028 22.5488C85.5233 22.3187 85.8135 22.2057 86.1152 22.2057V21.9557C85.7494 21.9557 85.3927 22.0937 85.1223 22.3759C84.8519 22.658 84.6757 23.0757 84.6528 23.6223L84.9026 23.6327ZM86.1152 22.2057C86.4978 22.2057 86.7555 22.0235 86.9115 21.7711C87.0632 21.5257 87.117 21.2185 87.117 20.9541H86.867C86.867 21.191 86.8178 21.4472 86.6988 21.6397C86.5842 21.8252 86.4035 21.9557 86.1152 21.9557V22.2057ZM87.117 20.9541C87.117 20.7771 87.222 20.6255 87.3831 20.42C87.5363 20.2246 87.731 19.99 87.8214 19.6745L87.5811 19.6056C87.5066 19.8656 87.3467 20.0613 87.1864 20.2657C87.0341 20.46 86.867 20.6777 86.867 20.9541H87.117ZM87.7934 19.5555C87.5883 19.3321 87.4257 19.0516 87.3985 18.8547L87.1508 18.8889C87.1882 19.1595 87.3902 19.4859 87.6091 19.7245L87.7934 19.5555ZM35.4928 27.644C35.4938 27.6426 35.4749 27.6632 35.3913 27.6763C35.3156 27.6881 35.2122 27.6898 35.0862 27.6807C34.8354 27.6625 34.5161 27.603 34.1949 27.5173C33.874 27.4317 33.557 27.3214 33.3102 27.2042C33.1867 27.1455 33.0841 27.0867 33.0082 27.0303C32.9293 26.9716 32.8927 26.9255 32.881 26.8966L32.6494 26.9905C32.6872 27.0837 32.7686 27.1637 32.8591 27.2309C32.9527 27.3005 33.071 27.3674 33.2029 27.4301C33.4672 27.5556 33.7995 27.6705 34.1305 27.7589C34.4614 27.8471 34.7969 27.9104 35.0682 27.93C35.2033 27.9398 35.3278 27.9392 35.4299 27.9233C35.524 27.9086 35.6328 27.876 35.6945 27.7917L35.4928 27.644ZM32.8807 26.8958C32.8792 26.8922 32.8842 26.9059 32.8751 26.9216C32.87 26.9304 32.8691 26.9242 32.8955 26.9129C32.9484 26.8902 33.0479 26.8732 33.1925 26.8696C33.4753 26.8625 33.8741 26.9073 34.2676 26.991C34.6624 27.0749 35.0378 27.1951 35.2789 27.3324C35.4015 27.4021 35.4734 27.4675 35.5039 27.521C35.5178 27.5455 35.5213 27.5641 35.5204 27.5791C35.5195 27.594 35.5137 27.6154 35.4927 27.6441L35.6945 27.7917C35.7385 27.7316 35.7658 27.665 35.77 27.5936C35.7741 27.5221 35.7545 27.4559 35.7212 27.3973C35.6571 27.2848 35.5376 27.192 35.4026 27.1151C35.1284 26.9591 34.7238 26.8324 34.3196 26.7464C33.914 26.6602 33.4948 26.612 33.1862 26.6197C33.0351 26.6234 32.8956 26.6408 32.7969 26.6831C32.7475 26.7043 32.6926 26.7383 32.6593 26.7954C32.6218 26.8595 32.6242 26.9297 32.6497 26.9913L32.8807 26.8958ZM69.8827 27.3757C69.467 27.3757 68.9232 27.3238 68.3075 27.2698C67.6951 27.2161 67.0168 27.161 66.343 27.1572C65.006 27.1497 63.6407 27.3426 62.8457 28.1996L63.029 28.3697C63.7441 27.5987 65.0061 27.3997 66.3416 27.4072C67.0041 27.4109 67.6733 27.4651 68.2857 27.5188C68.8948 27.5722 69.4531 27.6257 69.8827 27.6257V27.3757ZM62.8456 28.1998C62.0692 29.0389 61.9523 29.6885 61.9527 30.1499C61.9527 30.2619 61.9597 30.3621 61.9644 30.4443C61.9693 30.53 61.9713 30.5914 61.9654 30.6394C61.9598 30.6849 61.9486 30.7044 61.9376 30.7157C61.9257 30.728 61.8983 30.7467 61.8296 30.7592L61.8745 31.0052C61.9717 30.9874 62.0556 30.9532 62.1171 30.8897C62.1796 30.8253 62.2042 30.7461 62.2135 30.6699C62.2226 30.5961 62.2187 30.5127 62.214 30.4301C62.2091 30.3442 62.2027 30.2528 62.2027 30.1497C62.2024 29.7504 62.2961 29.1618 63.0291 28.3695L62.8456 28.1998ZM61.8299 30.7592C61.7828 30.7676 61.7343 30.756 61.6794 30.7128C61.6219 30.6675 61.5622 30.5902 61.5056 30.4794C61.3928 30.2585 61.3083 29.9351 61.2707 29.574C61.2332 29.2142 61.2433 28.8264 61.3129 28.4797C61.383 28.1308 61.5106 27.8369 61.6971 27.6501L61.5202 27.4735C61.2848 27.7092 61.1427 28.0575 61.0678 28.4305C60.9925 28.8056 60.9824 29.2191 61.022 29.5999C61.0615 29.9792 61.1514 30.3355 61.283 30.5931C61.3486 30.7217 61.4285 30.8333 61.5247 30.9092C61.6236 30.9871 61.7428 31.0288 61.8741 31.0052L61.8299 30.7592ZM61.6969 27.6502C61.8901 27.4573 62.1995 27.2841 62.5919 27.1408C62.9823 26.9982 63.4455 26.8888 63.9374 26.818C64.9228 26.6763 66.0079 26.6922 66.833 26.8983L66.8935 26.6557C66.0288 26.4398 64.9096 26.4256 63.9018 26.5706C63.397 26.6432 62.9163 26.7562 62.5062 26.9059C62.098 27.055 61.7502 27.2438 61.5203 27.4733L61.6969 27.6502ZM66.8329 26.8983C67.7039 27.1161 68.9033 27.022 69.9206 26.8943C70.4297 26.8304 70.9058 26.7561 71.2702 26.7069C71.4543 26.6821 71.6103 26.6635 71.7326 26.6548C71.8613 26.6456 71.9335 26.6492 71.9623 26.6574L72.031 26.417C71.9538 26.395 71.8389 26.3966 71.7148 26.4054C71.5842 26.4147 71.4217 26.4342 71.2367 26.4592C70.863 26.5096 70.3993 26.5822 69.8894 26.6462C68.8687 26.7744 67.7134 26.8608 66.8936 26.6558L66.8329 26.8983ZM71.9624 26.6575C71.9928 26.6661 71.9862 26.6733 71.981 26.6604C71.9767 26.6499 71.9849 26.6538 71.9702 26.6844C71.9397 26.7479 71.8455 26.849 71.6679 26.9574C71.3205 27.1696 70.7094 27.3757 69.8827 27.3757V27.6257C70.7485 27.6257 71.406 27.4103 71.7982 27.1708C71.9904 27.0534 72.1338 26.9211 72.1955 26.7927C72.2269 26.7273 72.2449 26.6456 72.2125 26.566C72.179 26.4839 72.1062 26.4384 72.0308 26.417L71.9624 26.6575Z" fill="#868686"/>
</g>
<defs>
<filter id="filter0_d_877_3489" x="0.525391" y="0.910156" width="91.3145" height="46.8965" filterUnits="userSpaceOnUse" color-interpolation-filters="sRGB">
<feFlood flood-opacity="0" result="BackgroundImageFix"/>
<feColorMatrix in="SourceAlpha" type="matrix" values="0 0 0 0 0 0 0 0 0 0 0 0 0 0 0 0 0 0 127 0" result="hardAlpha"/>
<feOffset dy="2"/>
<feGaussianBlur stdDeviation="2"/>
<feColorMatrix type="matrix" values="0 0 0 0 0 0 0 0 0 0 0 0 0 0 0 0 0 0 0.01 0"/>
<feBlend mode="normal" in2="BackgroundImageFix" result="effect1_dropShadow_877_3489"/>
<feBlend mode="normal" in="SourceGraphic" in2="effect1_dropShadow_877_3489" result="shape"/>
</filter>
</defs>
</svg>
