<svg width="38" height="32" viewBox="0 0 38 32" fill="none" xmlns="http://www.w3.org/2000/svg">
<g filter="url(#filter0_d_877_3332)">
<path fill-rule="evenodd" clip-rule="evenodd" d="M7.68633 3.69519C7.09395 4.49477 5.91006 5.18624 5.88912 6.00239C5.86906 6.82029 5.88912 7.1246 5.5829 7.5135C5.27581 7.90152 4.82651 8.49271 5.27581 8.45172C5.72598 8.41074 6.23635 8.41074 6.23635 8.90078C6.23635 9.39082 7.21609 9.49284 7.13496 10.248C7.05382 11.0039 6.70659 12.9842 8.46279 12.9432C10.219 12.9031 11.2205 12.3101 11.9551 13.251C12.6906 14.1892 13.6712 14.6383 14.8141 14.4953C15.9578 14.3531 17.8161 14.1291 17.2037 15.1283C16.5921 16.1276 16.1838 18.2717 16.7142 18.8647C17.2447 19.4559 17.94 19.945 17.5108 20.4351C17.0824 20.926 16.8774 21.539 17.4288 21.9662C17.9819 22.3935 17.8179 22.9053 17.7969 23.0065C17.7926 23.0335 17.6809 23.0972 17.509 23.1765C18.3221 23.9839 18.61 24.869 19.0698 25.2369C19.6831 25.727 19.8672 25.9711 20.2964 25.727C20.7248 25.4828 21.031 25.2997 21.3992 25.5421C21.7674 25.788 22.2577 25.2997 22.8108 24.8071C23.3622 24.3162 23.9746 24.7478 24.1587 24.1348C24.3428 23.5183 24.6499 23.1521 25.3243 23.0291C25.9978 22.9088 25.9978 22.172 25.5685 22.172C25.1393 22.172 24.5269 22.7222 24.5269 21.9279C24.5269 21.1291 23.9746 21.3149 23.9746 20.64C23.9746 19.9651 23.9127 19.5361 23.1772 19.1079C22.4417 18.6789 24.1587 18.4958 24.5269 18.8638C24.8941 19.23 26.1819 18.9248 26.304 19.4768C26.427 20.0279 27.1005 20.2118 27.1005 19.5361C27.1005 18.8638 27.8979 18.617 28.5112 18.7408C29.1254 18.8638 30.4742 17.943 31.0256 17.759C31.3135 17.664 31.4182 17.3187 31.5752 17.0266C31.1722 16.4772 30.5283 15.6262 30.2369 15.3803C29.7972 15.0141 30.5309 14.7952 30.4568 14.2825C30.3835 13.7689 30.4568 13.4018 31.4112 13.3286C32.3648 13.2553 32.2182 12.5212 31.7043 12.2273C31.1905 11.9335 31.9242 11.1269 32.438 10.8339C32.6483 10.7136 32.9301 10.3526 33.1875 9.85558C32.2112 9.48674 30.8127 9.52075 30.2256 9.55388C29.4561 9.59922 30.7237 8.69674 30.7691 7.87972C30.8136 7.06444 28.595 6.92928 27.7339 6.74792C26.8737 6.56742 27.0996 5.66233 28.0061 5.61786C28.9126 5.57077 27.5071 4.9386 26.2857 5.11822C25.0625 5.29872 23.3412 5.97885 22.3449 6.52208C21.3477 7.06444 19.6273 4.9386 18.4949 5.3894C17.3625 5.84282 15.7772 5.84282 15.8226 4.93773C15.868 4.03089 15.3698 3.26182 14.2374 3.35338C13.1059 3.44319 13.3772 2.2207 12.517 2.2207C11.6559 2.2207 12.517 3.26182 11.9281 3.533C11.3392 3.80505 9.3012 4.30381 9.1651 5.11735C9.029 5.93263 10.253 7.29027 9.84472 8.10556C9.43643 8.92084 8.07805 8.23984 7.67063 7.3827C7.26233 6.52208 8.84754 5.20978 8.57621 4.71189C8.38777 4.36659 8.14523 3.72309 8.30576 3.29757C8.0545 3.37779 7.83203 3.50336 7.68633 3.69519Z" fill="white"/>
<path fill-rule="evenodd" clip-rule="evenodd" d="M7.68633 3.69519C7.09395 4.49477 5.91006 5.18624 5.88912 6.00239C5.86906 6.82029 5.88912 7.1246 5.5829 7.5135C5.27581 7.90152 4.82651 8.49271 5.27581 8.45172C5.72598 8.41074 6.23635 8.41074 6.23635 8.90078C6.23635 9.39082 7.21609 9.49284 7.13496 10.248C7.05382 11.0039 6.70659 12.9842 8.46279 12.9432C10.219 12.9031 11.2205 12.3101 11.9551 13.251C12.6906 14.1892 13.6712 14.6383 14.8141 14.4953C15.9578 14.3531 17.8161 14.1291 17.2037 15.1283C16.5921 16.1276 16.1838 18.2717 16.7142 18.8647C17.2447 19.4559 17.94 19.945 17.5108 20.4351C17.0824 20.926 16.8774 21.539 17.4288 21.9662C17.9819 22.3935 17.8179 22.9053 17.7969 23.0065C17.7926 23.0335 17.6809 23.0972 17.509 23.1765C18.3221 23.9839 18.61 24.869 19.0698 25.2369C19.6831 25.727 19.8672 25.9711 20.2964 25.727C20.7248 25.4828 21.031 25.2997 21.3992 25.5421C21.7674 25.788 22.2577 25.2997 22.8108 24.8071C23.3622 24.3162 23.9746 24.7478 24.1587 24.1348C24.3428 23.5183 24.6499 23.1521 25.3243 23.0291C25.9978 22.9088 25.9978 22.172 25.5685 22.172C25.1393 22.172 24.5269 22.7222 24.5269 21.9279C24.5269 21.1291 23.9746 21.3149 23.9746 20.64C23.9746 19.9651 23.9127 19.5361 23.1772 19.1079C22.4417 18.6789 24.1587 18.4958 24.5269 18.8638C24.8941 19.23 26.1819 18.9248 26.304 19.4768C26.427 20.0279 27.1005 20.2118 27.1005 19.5361C27.1005 18.8638 27.8979 18.617 28.5112 18.7408C29.1254 18.8638 30.4742 17.943 31.0256 17.759C31.3135 17.664 31.4182 17.3187 31.5752 17.0266C31.1722 16.4772 30.5283 15.6262 30.2369 15.3803C29.7972 15.0141 30.5309 14.7952 30.4568 14.2825C30.3835 13.7689 30.4568 13.4018 31.4112 13.3286C32.3648 13.2553 32.2182 12.5212 31.7043 12.2273C31.1905 11.9335 31.9242 11.1269 32.438 10.8339C32.6483 10.7136 32.9301 10.3526 33.1875 9.85558C32.2112 9.48674 30.8127 9.52075 30.2256 9.55388C29.4561 9.59922 30.7237 8.69674 30.7691 7.87972C30.8136 7.06444 28.595 6.92928 27.7339 6.74792C26.8737 6.56742 27.0996 5.66233 28.0061 5.61786C28.9126 5.57077 27.5071 4.9386 26.2857 5.11822C25.0625 5.29872 23.3412 5.97885 22.3449 6.52208C21.3477 7.06444 19.6273 4.9386 18.4949 5.3894C17.3625 5.84282 15.7772 5.84282 15.8226 4.93773C15.868 4.03089 15.3698 3.26182 14.2374 3.35338C13.1059 3.44319 13.3772 2.2207 12.517 2.2207C11.6559 2.2207 12.517 3.26182 11.9281 3.533C11.3392 3.80505 9.3012 4.30381 9.1651 5.11735C9.029 5.93263 10.253 7.29027 9.84472 8.10556C9.43643 8.92084 8.07805 8.23984 7.67063 7.3827C7.26233 6.52208 8.84754 5.20978 8.57621 4.71189C8.38777 4.36659 8.14523 3.72309 8.30576 3.29757C8.0545 3.37779 7.83203 3.50336 7.68633 3.69519Z" stroke="#868686" stroke-width="0.25"/>
</g>
<defs>
<filter id="filter0_d_877_3332" x="0.960938" y="0.0957031" width="36.4023" height="31.8516" filterUnits="userSpaceOnUse" color-interpolation-filters="sRGB">
<feFlood flood-opacity="0" result="BackgroundImageFix"/>
<feColorMatrix in="SourceAlpha" type="matrix" values="0 0 0 0 0 0 0 0 0 0 0 0 0 0 0 0 0 0 127 0" result="hardAlpha"/>
<feOffset dy="2"/>
<feGaussianBlur stdDeviation="2"/>
<feColorMatrix type="matrix" values="0 0 0 0 0 0 0 0 0 0 0 0 0 0 0 0 0 0 0.01 0"/>
<feBlend mode="normal" in2="BackgroundImageFix" result="effect1_dropShadow_877_3332"/>
<feBlend mode="normal" in="SourceGraphic" in2="effect1_dropShadow_877_3332" result="shape"/>
</filter>
</defs>
</svg>
