<svg width="33" height="30" viewBox="0 0 33 30" fill="none" xmlns="http://www.w3.org/2000/svg">
<g filter="url(#filter0_d_877_3219)">
<path fill-rule="evenodd" clip-rule="evenodd" d="M23.1258 3.83872C22.8528 3.83872 22.2054 3.40797 21.6514 2.99902C21.258 3.43849 19.8734 3.36525 19.1938 3.36525C18.4688 3.36525 19.1031 4.36015 18.6494 4.72289C18.1957 5.08388 18.0151 5.62711 18.3772 5.80673C18.741 5.99072 18.2873 7.52885 18.2873 8.07208C18.2873 8.61531 17.5615 9.79159 17.8337 9.97208C18.1059 10.1543 18.5578 11.4213 19.1929 11.6026C19.8272 11.784 20.2791 11.1492 20.5504 11.1492C20.8226 11.1492 20.8226 11.9654 20.8226 12.5984C20.8226 13.2315 20.4614 13.5035 20.4614 13.5035C20.4614 13.5035 19.4634 13.8654 19.0114 13.5035C18.5587 13.1425 18.1957 12.1459 18.1957 11.7831C18.1957 11.4204 17.1096 11.4204 16.6559 11.4204C16.204 11.4204 15.7512 10.6051 15.5715 10.2424C15.3874 9.8814 14.8447 10.3331 14.8447 10.6051C14.8447 10.8772 14.3919 10.8772 13.9391 10.8772C13.4863 10.8772 12.5799 10.1534 12.2178 10.3339C11.8558 10.5162 11.4928 9.70177 11.5836 9.33817C11.6743 8.97543 10.6771 9.24923 10.3159 9.42972C9.95301 9.60935 9.77241 8.97543 9.77241 8.97543C9.77241 8.97543 9.56303 8.6127 9.23761 8.454L8.80576 12.5086L8.28317 13.0318L5.25148 12.9272L5.04297 19.7171L7.37236 22.8997C8.58591 22.6521 11.1011 22.3051 11.1011 22.7271C11.1011 22.8544 11.1648 23.021 11.2651 23.198C11.6883 23.0968 12.087 23.0114 12.3068 23.0384C12.7919 23.0986 14.4216 23.702 14.904 23.4595C15.3865 23.2198 16.2336 21.4087 17.0179 21.1672C17.8023 20.9256 18.8902 20.0798 18.8902 19.7197C18.8902 19.357 18.8902 18.9942 20.0374 18.6917L21.7884 18.635L21.9088 18.6333L21.4883 17.1221C21.4883 17.1221 26.8389 15.1262 27.1434 15.0757C26.9078 14.5926 26.6662 14.2368 26.7831 14.1802C26.9924 14.0755 27.0954 12.6115 27.0954 12.1956C27.0954 11.777 28.3499 12.0909 27.9312 11.6715C27.5142 11.2547 27.6188 8.85249 27.8274 8.32844C28.0367 7.80614 28.5593 8.32844 28.5593 7.91164C28.5593 7.4931 27.9312 6.13546 27.6188 5.71605C27.3929 5.41609 25.5285 4.67057 25.0059 4.56855C24.4833 4.46479 23.6475 3.83872 23.1258 3.83872Z" fill="white"/>
<path fill-rule="evenodd" clip-rule="evenodd" d="M23.1258 3.83872C22.8528 3.83872 22.2054 3.40797 21.6514 2.99902C21.258 3.43849 19.8734 3.36525 19.1938 3.36525C18.4688 3.36525 19.1031 4.36015 18.6494 4.72289C18.1957 5.08388 18.0151 5.62711 18.3772 5.80673C18.741 5.99072 18.2873 7.52885 18.2873 8.07208C18.2873 8.61531 17.5615 9.79159 17.8337 9.97208C18.1059 10.1543 18.5578 11.4213 19.1929 11.6026C19.8272 11.784 20.2791 11.1492 20.5504 11.1492C20.8226 11.1492 20.8226 11.9654 20.8226 12.5984C20.8226 13.2315 20.4614 13.5035 20.4614 13.5035C20.4614 13.5035 19.4634 13.8654 19.0114 13.5035C18.5587 13.1425 18.1957 12.1459 18.1957 11.7831C18.1957 11.4204 17.1096 11.4204 16.6559 11.4204C16.204 11.4204 15.7512 10.6051 15.5715 10.2424C15.3874 9.8814 14.8447 10.3331 14.8447 10.6051C14.8447 10.8772 14.3919 10.8772 13.9391 10.8772C13.4863 10.8772 12.5799 10.1534 12.2178 10.3339C11.8558 10.5162 11.4928 9.70177 11.5836 9.33817C11.6743 8.97543 10.6771 9.24923 10.3159 9.42972C9.95301 9.60935 9.77241 8.97543 9.77241 8.97543C9.77241 8.97543 9.56303 8.6127 9.23761 8.454L8.80576 12.5086L8.28317 13.0318L5.25148 12.9272L5.04297 19.7171L7.37236 22.8997C8.58591 22.6521 11.1011 22.3051 11.1011 22.7271C11.1011 22.8544 11.1648 23.021 11.2651 23.198C11.6883 23.0968 12.087 23.0114 12.3068 23.0384C12.7919 23.0986 14.4216 23.702 14.904 23.4595C15.3865 23.2198 16.2336 21.4087 17.0179 21.1672C17.8023 20.9256 18.8902 20.0798 18.8902 19.7197C18.8902 19.357 18.8902 18.9942 20.0374 18.6917L21.7884 18.635L21.9088 18.6333L21.4883 17.1221C21.4883 17.1221 26.8389 15.1262 27.1434 15.0757C26.9078 14.5926 26.6662 14.2368 26.7831 14.1802C26.9924 14.0755 27.0954 12.6115 27.0954 12.1956C27.0954 11.777 28.3499 12.0909 27.9312 11.6715C27.5142 11.2547 27.6188 8.85249 27.8274 8.32844C28.0367 7.80614 28.5593 8.32844 28.5593 7.91164C28.5593 7.4931 27.9312 6.13546 27.6188 5.71605C27.3929 5.41609 25.5285 4.67057 25.0059 4.56855C24.4833 4.46479 23.6475 3.83872 23.1258 3.83872Z" stroke="#868686" stroke-width="0.25"/>
</g>
<defs>
<filter id="filter0_d_877_3219" x="0.916016" y="0.831055" width="31.7676" height="28.8105" filterUnits="userSpaceOnUse" color-interpolation-filters="sRGB">
<feFlood flood-opacity="0" result="BackgroundImageFix"/>
<feColorMatrix in="SourceAlpha" type="matrix" values="0 0 0 0 0 0 0 0 0 0 0 0 0 0 0 0 0 0 127 0" result="hardAlpha"/>
<feOffset dy="2"/>
<feGaussianBlur stdDeviation="2"/>
<feColorMatrix type="matrix" values="0 0 0 0 0 0 0 0 0 0 0 0 0 0 0 0 0 0 0.01 0"/>
<feBlend mode="normal" in2="BackgroundImageFix" result="effect1_dropShadow_877_3219"/>
<feBlend mode="normal" in="SourceGraphic" in2="effect1_dropShadow_877_3219" result="shape"/>
</filter>
</defs>
</svg>
