<svg width="42" height="38" viewBox="0 0 42 38" fill="none" xmlns="http://www.w3.org/2000/svg">
<g filter="url(#filter0_d_877_3215)">
<path fill-rule="evenodd" clip-rule="evenodd" d="M36.3072 13.7906C36.3072 13.7906 36.295 13.7069 36.2801 13.5761C36.1196 13.7069 35.9556 13.8935 35.9355 14.1219C35.8919 14.5858 35.4312 14.6268 34.7979 14.5858C34.1662 14.5431 33.5355 12.9431 33.5355 12.6911C33.5355 12.4399 34.4201 11.2209 34.9244 11.2209C35.2507 11.2209 35.7183 11.5706 36.0899 11.8191C36.0742 11.6351 36.0716 11.4947 36.0795 11.4372C36.1248 11.1651 36.4424 8.04177 35.8971 7.72525C35.3545 7.40786 34.8118 4.23916 34.6304 3.92176C34.4498 3.60699 32.4554 3.78748 32.2286 3.42387C32.007 3.06899 30.3258 3.41428 30.2891 3.07422C30.0283 3.45962 29.7352 3.8834 29.5877 4.0604C29.2859 4.42227 28.4405 4.17986 28.3201 4.78326C28.1979 5.38753 27.1728 5.99267 26.6895 5.99267C26.2053 5.99267 25.8432 6.83585 25.8432 7.37995C25.8432 7.92144 24.8783 8.64778 24.0923 8.64778C23.308 8.64778 23.5496 9.31047 23.3071 10.1563C23.0672 10.9995 22.7051 11.0614 21.3755 11.0614C20.0486 11.0614 19.9866 10.9393 18.958 10.2783C17.932 9.61391 17.6311 10.8198 17.5717 11.3622C17.5107 11.9054 16.1209 12.9928 15.6986 13.4741C15.2764 13.958 14.2495 13.597 13.6467 13.597C13.0421 13.597 13.2837 13.0538 13.2837 12.6911C13.2837 12.3292 13.5856 12.5707 13.7051 12.2071C13.8273 11.847 13.2837 10.5173 13.0412 9.91474C12.9391 9.65315 12.5177 9.43865 12.0745 9.27908C12.0745 12.7015 12.0745 16.3821 12.0745 16.7352C12.0745 17.3988 10.9866 17.6996 10.7476 18.0632C10.505 18.4242 8.994 18.1234 8.15036 18.1234C7.30497 18.1234 7.48644 17.2776 7.06331 16.675C6.6428 16.0725 5.91606 16.8547 5.91606 17.2776C5.91606 17.5967 5.53743 17.5374 5.04102 17.4886C5.70319 18.5341 6.27987 19.7565 6.58173 20.7488C7.06418 22.3498 8.24109 23.8556 8.54382 24.7904C8.84481 25.7277 9.17808 26.6032 8.54382 26.6921C7.90957 26.7828 7.90957 27.3269 8.57261 28.3532C9.2374 29.3777 8.66335 29.9829 9.2374 30.1023C9.81059 30.2235 9.63 30.5837 10.0819 30.6159C10.5365 30.6456 10.8688 31.0981 11.1707 31.4905C11.4708 31.8838 12.167 31.8838 12.4977 31.3998C12.8301 30.9176 13.8569 30.7668 14.9134 30.7668C15.9708 30.7668 15.7597 30.3125 16.7857 30.0108C17.8116 29.7117 19.0496 29.6803 19.9255 29.9838C20.8015 30.2837 21.4663 30.0108 21.8885 29.7431C22.3108 29.4702 23.1256 30.1651 23.1876 29.4702C23.2469 28.7752 24.0923 28.8947 24.8783 28.8947C25.6626 28.8947 27.5645 27.6582 29.0747 26.2404C30.5858 24.8226 33.0905 21.7132 33.9368 20.2954C34.7813 18.8785 36.1711 17.6699 36.8655 17.0369C37.3829 16.5626 37.6839 14.8928 37.8269 13.6764C37.1142 13.665 36.3072 13.7906 36.3072 13.7906ZM30.01 20.5361C30.01 21.02 28.9229 20.4149 28.683 20.8971C28.4405 21.381 28.1979 21.9835 28.1979 21.9835L27.3525 21.8623L26.146 20.1725C26.146 20.1725 27.1109 18.8462 27.3525 18.3623C27.5942 17.8801 29.1637 17.0343 29.4062 17.5174C29.6462 17.9995 30.7332 18.6029 30.7332 19.0851C30.735 19.5699 30.01 20.0521 30.01 20.5361Z" fill="white"/>
<path d="M36.3072 13.7906L36.1835 13.8086L36.2017 13.9335L36.3264 13.9141L36.3072 13.7906ZM36.2801 13.5761L36.4043 13.562L36.3785 13.3347L36.2012 13.4792L36.2801 13.5761ZM35.9355 14.1219L36.06 14.1336L36.06 14.1329L35.9355 14.1219ZM34.7979 14.5858L34.7894 14.7105L34.7898 14.7106L34.7979 14.5858ZM36.0899 11.8191L36.0205 11.923L36.2366 12.0675L36.2145 11.8085L36.0899 11.8191ZM36.0795 11.4372L35.9561 11.4166L35.9556 11.4203L36.0795 11.4372ZM35.8971 7.72525L35.834 7.83315L35.8344 7.83336L35.8971 7.72525ZM34.6304 3.92176L34.7389 3.85972L34.7388 3.85956L34.6304 3.92176ZM32.2286 3.42387L32.3346 3.35771L32.3346 3.35767L32.2286 3.42387ZM30.2891 3.07422L30.4134 3.06083L30.3769 2.7216L30.1856 3.00415L30.2891 3.07422ZM29.5877 4.0604L29.6837 4.14048L29.6838 4.14041L29.5877 4.0604ZM28.3201 4.78326L28.4426 4.80802L28.4427 4.80772L28.3201 4.78326ZM23.3071 10.1563L23.1869 10.1218L23.1869 10.1221L23.3071 10.1563ZM18.958 10.2783L18.8901 10.3833L18.8904 10.3835L18.958 10.2783ZM17.5717 11.3622L17.6959 11.3762L17.696 11.3758L17.5717 11.3622ZM15.6986 13.4741L15.6047 13.3916L15.6044 13.3919L15.6986 13.4741ZM13.7051 12.2071L13.5867 12.167L13.5864 12.1681L13.7051 12.2071ZM13.0412 9.91474L12.9247 9.96018L12.9252 9.96142L13.0412 9.91474ZM12.0745 9.27908L12.1169 9.16147L11.9495 9.10122V9.27908H12.0745ZM10.7476 18.0632L10.8513 18.1329L10.852 18.1319L10.7476 18.0632ZM7.06331 16.675L6.9608 16.7466L6.96101 16.7469L7.06331 16.675ZM5.04102 17.4886L5.05325 17.3642L4.79838 17.3391L4.93541 17.5555L5.04102 17.4886ZM6.58173 20.7488L6.70141 20.7128L6.70132 20.7125L6.58173 20.7488ZM8.54382 24.7904L8.66284 24.7521L8.66274 24.7519L8.54382 24.7904ZM8.54382 26.6921L8.52646 26.5683L8.52613 26.5684L8.54382 26.6921ZM8.57261 28.3532L8.46762 28.421L8.46775 28.4212L8.57261 28.3532ZM9.2374 30.1023L9.26326 29.98L9.26287 29.98L9.2374 30.1023ZM10.0819 30.6159L10.073 30.7406L10.0738 30.7407L10.0819 30.6159ZM11.1707 31.4905L11.2701 31.4147L11.2698 31.4143L11.1707 31.4905ZM12.4977 31.3998L12.3948 31.3289L12.3945 31.3293L12.4977 31.3998ZM16.7857 30.0108L16.7507 29.8908L16.7504 29.8909L16.7857 30.0108ZM19.9255 29.9838L19.8846 30.1019L19.8851 30.102L19.9255 29.9838ZM21.8885 29.7431L21.9554 29.8487L21.9564 29.8481L21.8885 29.7431ZM23.1876 29.4702L23.3121 29.4813L23.3121 29.4808L23.1876 29.4702ZM29.0747 26.2404L28.9892 26.1493L28.9892 26.1493L29.0747 26.2404ZM33.9368 20.2954L34.0441 20.3595L34.0442 20.3594L33.9368 20.2954ZM36.8655 17.0369L36.9497 17.1293L36.95 17.129L36.8655 17.0369ZM37.8269 13.6764L37.9511 13.691L37.9672 13.5536L37.8289 13.5514L37.8269 13.6764ZM28.683 20.8971L28.7948 20.9531L28.7949 20.9527L28.683 20.8971ZM28.1979 21.9835L28.1802 22.1073L28.2773 22.1212L28.3139 22.0302L28.1979 21.9835ZM27.3525 21.8623L27.2508 21.935L27.2819 21.9785L27.3348 21.9861L27.3525 21.8623ZM26.146 20.1725L26.0449 20.0989L25.9919 20.1718L26.0442 20.2451L26.146 20.1725ZM27.3525 18.3623L27.2408 18.3063L27.2407 18.3064L27.3525 18.3623ZM29.4062 17.5174L29.5182 17.4617L29.518 17.4613L29.4062 17.5174ZM30.7332 19.0851H30.6082L30.6082 19.0856L30.7332 19.0851ZM36.3072 13.7906C36.4309 13.7726 36.4309 13.7726 36.4309 13.7726C36.4309 13.7726 36.4309 13.7726 36.4309 13.7726C36.4309 13.7726 36.4309 13.7726 36.4309 13.7726C36.4309 13.7726 36.4309 13.7726 36.4309 13.7725C36.4309 13.7725 36.4308 13.7725 36.4308 13.7724C36.4308 13.7723 36.4308 13.7721 36.4307 13.7718C36.4307 13.7712 36.4305 13.7703 36.4304 13.7691C36.43 13.7667 36.4295 13.763 36.4288 13.7582C36.4275 13.7486 36.4256 13.7344 36.4231 13.7161C36.4183 13.6794 36.4116 13.6266 36.4043 13.562L36.1559 13.5902C36.1634 13.6564 36.1703 13.7108 36.1753 13.7487C36.1778 13.7677 36.1798 13.7825 36.1812 13.7927C36.1819 13.7978 36.1825 13.8017 36.1829 13.8044C36.1831 13.8057 36.1832 13.8068 36.1833 13.8075C36.1834 13.8078 36.1834 13.8081 36.1834 13.8083C36.1834 13.8084 36.1835 13.8085 36.1835 13.8085C36.1835 13.8086 36.1835 13.8086 36.1835 13.8086C36.1835 13.8086 36.1835 13.8086 36.1835 13.8086C36.1835 13.8086 36.1835 13.8086 36.1835 13.8086C36.1835 13.8086 36.1835 13.8086 36.3072 13.7906ZM36.2012 13.4792C36.0336 13.6157 35.8356 13.8305 35.811 14.111L36.06 14.1329C36.0755 13.9565 36.2056 13.798 36.3591 13.673L36.2012 13.4792ZM35.8111 14.1102C35.8021 14.2051 35.7732 14.2687 35.7339 14.3141C35.6938 14.3604 35.6347 14.3973 35.5502 14.424C35.3754 14.4792 35.1237 14.4816 34.8059 14.4611L34.7898 14.7106C35.1054 14.731 35.4007 14.7334 35.6255 14.6624C35.7407 14.626 35.8446 14.5683 35.9229 14.4777C36.0021 14.3862 36.0471 14.2708 36.06 14.1336L35.8111 14.1102ZM34.8063 14.4611C34.6972 14.4537 34.5675 14.3754 34.4259 14.2223C34.2878 14.073 34.1554 13.871 34.0397 13.6574C33.9244 13.4446 33.8282 13.225 33.7611 13.044C33.7275 12.9534 33.7017 12.8737 33.6844 12.8103C33.6661 12.743 33.6605 12.7045 33.6605 12.6911H33.4105C33.4105 12.7407 33.4245 12.8073 33.4432 12.8759C33.4629 12.9483 33.4912 13.0353 33.5267 13.1309C33.5976 13.322 33.6985 13.5524 33.8199 13.7765C33.9408 13.9997 34.0846 14.2215 34.2424 14.3921C34.3967 14.5589 34.5827 14.6966 34.7894 14.7105L34.8063 14.4611ZM33.6605 12.6911C33.6605 12.6919 33.6606 12.6851 33.6656 12.668C33.6702 12.652 33.6778 12.6314 33.6889 12.606C33.7112 12.5553 33.7448 12.4922 33.7884 12.4203C33.8755 12.2768 33.998 12.1061 34.1363 11.9425C34.2749 11.7786 34.4263 11.6254 34.5708 11.5144C34.7204 11.3995 34.8419 11.3459 34.9244 11.3459V11.0959C34.7547 11.0959 34.5765 11.1948 34.4185 11.3162C34.2552 11.4416 34.0909 11.6089 33.9454 11.7811C33.7995 11.9537 33.6692 12.1349 33.5747 12.2905C33.5275 12.3683 33.4881 12.4415 33.46 12.5056C33.434 12.5648 33.4105 12.6318 33.4105 12.6911H33.6605ZM34.9244 11.3459C35.0511 11.3459 35.2239 11.4168 35.4274 11.5349C35.627 11.6508 35.8301 11.7957 36.0205 11.923L36.1594 11.7152C35.9781 11.594 35.7616 11.4398 35.5529 11.3187C35.3481 11.1999 35.124 11.0959 34.9244 11.0959V11.3459ZM36.2145 11.8085C36.1987 11.6234 36.1976 11.4961 36.2033 11.4541L35.9556 11.4203C35.9456 11.4934 35.9498 11.6469 35.9654 11.8297L36.2145 11.8085ZM36.2028 11.4577C36.2267 11.3141 36.3178 10.459 36.3348 9.60036C36.3433 9.17089 36.3334 8.73481 36.2859 8.38376C36.2622 8.20858 36.2285 8.04928 36.1805 7.92073C36.134 7.79643 36.0663 7.67891 35.9599 7.61714L35.8344 7.83336C35.8643 7.85072 35.9059 7.90005 35.9463 8.0082C35.9851 8.11211 36.0157 8.25088 36.0382 8.41727C36.0831 8.74937 36.0932 9.17048 36.0848 9.59542C36.068 10.4456 35.9776 11.2882 35.9562 11.4166L36.2028 11.4577ZM35.9602 7.61735C35.9221 7.59507 35.8678 7.53547 35.8029 7.42176C35.7404 7.31228 35.6767 7.16812 35.6128 6.99779C35.4852 6.65749 35.3621 6.22689 35.2493 5.79211C35.1365 5.35742 35.0353 4.92404 34.9499 4.5756C34.9075 4.40214 34.8688 4.24923 34.8349 4.12929C34.8026 4.01506 34.7706 3.91516 34.7389 3.85972L34.5218 3.98381C34.5355 4.00772 34.5601 4.07626 34.5943 4.19732C34.627 4.31265 34.6647 4.46185 34.7071 4.63505C34.7916 4.97993 34.8939 5.41807 35.0073 5.85491C35.1206 6.29164 35.2463 6.73257 35.3787 7.08559C35.4449 7.26192 35.514 7.41986 35.5858 7.54566C35.6551 7.66723 35.7364 7.77608 35.834 7.83315L35.9602 7.61735ZM34.7388 3.85956C34.6927 3.77917 34.6041 3.73495 34.5268 3.70724C34.4434 3.67735 34.3406 3.65571 34.2297 3.63874C34.0076 3.60477 33.7282 3.58612 33.4558 3.56645C33.1797 3.54652 32.9101 3.52552 32.6959 3.4877C32.5887 3.46879 32.5009 3.44657 32.4357 3.42061C32.3669 3.39325 32.3416 3.36886 32.3346 3.35771L32.1225 3.49004C32.1723 3.56979 32.2588 3.6193 32.3433 3.6529C32.4312 3.68789 32.5379 3.71368 32.6524 3.7339C32.8816 3.77434 33.1644 3.79607 33.4378 3.81581C33.7149 3.83581 33.9821 3.85378 34.1919 3.88587C34.2969 3.90192 34.3813 3.92067 34.4424 3.94258C34.5096 3.96667 34.5229 3.98567 34.5219 3.98397L34.7388 3.85956ZM32.3346 3.35767C32.2859 3.27974 32.2057 3.23336 32.1269 3.20385C32.0464 3.17369 31.9514 3.15521 31.8522 3.14324C31.654 3.11933 31.4139 3.11876 31.1896 3.11849C30.9602 3.11821 30.7488 3.11819 30.5921 3.0984C30.5131 3.08841 30.4594 3.0746 30.4277 3.05949C30.3965 3.04463 30.4114 3.0417 30.4134 3.06083L30.1649 3.08761C30.1761 3.19176 30.2515 3.25242 30.3201 3.28515C30.3882 3.31764 30.4736 3.33542 30.5608 3.34643C30.7366 3.36863 30.9662 3.36822 31.1893 3.36849C31.4176 3.36876 31.6417 3.36966 31.8222 3.39144C31.9124 3.40232 31.9853 3.41775 32.0393 3.43797C32.095 3.45883 32.1158 3.47928 32.1225 3.49008L32.3346 3.35767ZM30.1856 3.00415C29.9234 3.39162 29.6342 3.80929 29.4917 3.9804L29.6838 4.14041C29.8361 3.9575 30.1332 3.52763 30.3927 3.14428L30.1856 3.00415ZM29.4917 3.98033C29.4392 4.04325 29.3574 4.08673 29.2429 4.12157C29.1245 4.15757 29.0013 4.17682 28.8581 4.20937C28.7238 4.23991 28.578 4.28143 28.4568 4.36288C28.3298 4.44817 28.2344 4.57402 28.1975 4.7588L28.4427 4.80772C28.466 4.6908 28.5213 4.62068 28.5962 4.5704C28.6767 4.51629 28.7838 4.48266 28.9136 4.45315C29.0345 4.42564 29.1868 4.39993 29.3156 4.36075C29.4482 4.32041 29.5853 4.25849 29.6837 4.14048L29.4917 3.98033ZM28.1975 4.75849C28.1727 4.88147 28.0995 5.01369 27.9866 5.14605C27.8745 5.27751 27.7288 5.40268 27.5697 5.51135C27.4108 5.61991 27.2416 5.70999 27.0847 5.77256C26.9258 5.83593 26.7879 5.86767 26.6895 5.86767V6.11767C26.8328 6.11767 27.0043 6.07376 27.1773 6.00478C27.3523 5.935 27.5377 5.83603 27.7107 5.71777C27.8837 5.59963 28.0473 5.46022 28.1768 5.30826C28.3057 5.15721 28.4064 4.98718 28.4426 4.80802L28.1975 4.75849ZM26.6895 5.86767C26.5302 5.86767 26.389 5.9373 26.2716 6.03805C26.1546 6.13846 26.0552 6.27453 25.9749 6.42273C25.815 6.71788 25.7182 7.08501 25.7182 7.37995H25.9682C25.9682 7.1308 26.0525 6.80428 26.1947 6.54181C26.2655 6.41121 26.3474 6.30247 26.4344 6.22778C26.5211 6.15343 26.6067 6.11767 26.6895 6.11767V5.86767ZM25.7182 7.37995C25.7182 7.47955 25.6729 7.60123 25.5784 7.73397C25.4849 7.86517 25.35 7.99762 25.1885 8.11617C24.8634 8.35494 24.451 8.52278 24.0923 8.52278V8.77278C24.5196 8.77278 24.9827 8.57745 25.3365 8.31768C25.5145 8.18696 25.67 8.03629 25.782 7.87901C25.8929 7.72327 25.9682 7.5511 25.9682 7.37995H25.7182ZM24.0923 8.52278C23.8798 8.52278 23.7152 8.56761 23.5933 8.66808C23.4721 8.768 23.4121 8.90747 23.3753 9.0545C23.339 9.19931 23.3208 9.37222 23.2979 9.54752C23.2744 9.72697 23.2449 9.91954 23.1869 10.1218L23.4272 10.1907C23.4905 9.9701 23.5218 9.76266 23.5457 9.57998C23.5702 9.39314 23.5861 9.24179 23.6178 9.11521C23.6489 8.99083 23.6907 8.91177 23.7523 8.86101C23.8132 8.81079 23.9126 8.77278 24.0923 8.77278V8.52278ZM23.1869 10.1221C23.0713 10.5282 22.9371 10.7105 22.7014 10.8098C22.5756 10.8629 22.4132 10.8954 22.194 10.914C21.9752 10.9324 21.708 10.9364 21.3755 10.9364V11.1864C21.7078 11.1864 21.9845 11.1825 22.215 11.1631C22.4452 11.1436 22.6376 11.108 22.7985 11.0402C23.1362 10.8978 23.3029 10.6276 23.4273 10.1905L23.1869 10.1221ZM21.3755 10.9364C20.7123 10.9364 20.3849 10.9051 20.0977 10.8003C19.8048 10.6934 19.5492 10.5096 19.0256 10.1732L18.8904 10.3835C19.3954 10.708 19.6851 10.9158 20.012 11.0351C20.3447 11.1566 20.7118 11.1864 21.3755 11.1864V10.9364ZM19.026 10.1734C18.7538 9.99715 18.5112 9.93302 18.2969 9.96773C18.0815 10.0026 17.9199 10.1332 17.8018 10.2936C17.5704 10.6076 17.4777 11.0726 17.4475 11.3486L17.696 11.3758C17.7251 11.1094 17.8126 10.7003 18.003 10.4419C18.0958 10.316 18.2055 10.2358 18.3369 10.2145C18.4695 10.193 18.6493 10.2273 18.8901 10.3833L19.026 10.1734ZM17.4475 11.3482C17.4365 11.4461 17.3591 11.5916 17.2142 11.7766C17.0739 11.956 16.8858 12.1533 16.6831 12.3521C16.4806 12.5507 16.2671 12.7471 16.0755 12.9261C15.8859 13.1032 15.7151 13.2658 15.6047 13.3916L15.7926 13.5565C15.8933 13.4417 16.0545 13.2879 16.2462 13.1088C16.4358 12.9316 16.6528 12.7319 16.8581 12.5306C17.0633 12.3295 17.2605 12.1231 17.4111 11.9307C17.5572 11.744 17.6764 11.5499 17.6959 11.3762L17.4475 11.3482ZM15.6044 13.3919C15.4376 13.5831 15.1357 13.6222 14.75 13.5924C14.5625 13.5779 14.3694 13.5487 14.1796 13.5221C13.993 13.4959 13.8074 13.472 13.6467 13.472V13.722C13.7874 13.722 13.9562 13.7432 14.1449 13.7697C14.3303 13.7956 14.5334 13.8264 14.7307 13.8417C15.1147 13.8713 15.5374 13.8489 15.7928 13.5563L15.6044 13.3919ZM13.6467 13.472C13.5122 13.472 13.4495 13.4416 13.4189 13.4139C13.3891 13.3869 13.3692 13.3436 13.363 13.2696C13.3567 13.1941 13.366 13.1048 13.3794 13.0017C13.392 12.9044 13.4087 12.792 13.4087 12.6911H13.1587C13.1587 12.7715 13.1453 12.863 13.1315 12.9696C13.1184 13.0704 13.1051 13.1848 13.1139 13.2905C13.1229 13.3976 13.156 13.5129 13.2509 13.599C13.3451 13.6845 13.4789 13.722 13.6467 13.722V13.472ZM13.4087 12.6911C13.4087 12.6163 13.4245 12.5989 13.4262 12.597C13.4313 12.5913 13.4409 12.5845 13.4893 12.5683C13.5302 12.5545 13.5999 12.5336 13.6643 12.4849C13.7326 12.4332 13.7873 12.3574 13.8239 12.2462L13.5864 12.1681C13.5632 12.2386 13.5353 12.269 13.5134 12.2856C13.4876 12.3051 13.4594 12.3146 13.4099 12.3312C13.3679 12.3453 13.2946 12.3687 13.2394 12.4309C13.1807 12.4968 13.1587 12.5849 13.1587 12.6911H13.4087ZM13.8235 12.2473C13.8461 12.1805 13.8504 12.1021 13.8464 12.0236C13.8424 11.9432 13.829 11.8528 13.8095 11.7568C13.7705 11.5649 13.7046 11.3407 13.6285 11.1123C13.4761 10.6552 13.278 10.1684 13.1572 9.86806L12.9252 9.96142C13.0469 10.2636 13.2418 10.7429 13.3913 11.1914C13.4661 11.4158 13.5284 11.6291 13.5645 11.8067C13.5826 11.8954 13.5935 11.9727 13.5968 12.0363C13.6001 12.1018 13.5946 12.1437 13.5867 12.167L13.8235 12.2473ZM13.1576 9.8693C13.0912 9.69912 12.9306 9.56201 12.7511 9.45206C12.5673 9.3395 12.3423 9.24262 12.1169 9.16147L12.0322 9.39669C12.25 9.47511 12.4573 9.56527 12.6205 9.66525C12.788 9.76784 12.8891 9.86877 12.9248 9.96018L13.1576 9.8693ZM11.9495 9.27908C11.9495 9.28577 11.9495 9.29245 11.9495 9.29914C11.9495 9.30582 11.9495 9.31251 11.9495 9.3192C11.9495 9.32589 11.9495 9.33258 11.9495 9.33927C11.9495 9.34596 11.9495 9.35265 11.9495 9.35934C11.9495 9.36603 11.9495 9.37272 11.9495 9.37942C11.9495 9.38611 11.9495 9.39281 11.9495 9.3995C11.9495 9.4062 11.9495 9.41289 11.9495 9.41959C11.9495 9.42629 11.9495 9.43298 11.9495 9.43968C11.9495 9.44638 11.9495 9.45308 11.9495 9.45978C11.9495 9.46648 11.9495 9.47318 11.9495 9.47988C11.9495 9.48658 11.9495 9.49329 11.9495 9.49999C11.9495 9.50669 11.9495 9.5134 11.9495 9.5201C11.9495 9.5268 11.9495 9.53351 11.9495 9.54022C11.9495 9.54692 11.9495 9.55363 11.9495 9.56033C11.9495 9.56704 11.9495 9.57375 11.9495 9.58046C11.9495 9.58716 11.9495 9.59387 11.9495 9.60058C11.9495 9.60729 11.9495 9.614 11.9495 9.62071C11.9495 9.62742 11.9495 9.63413 11.9495 9.64084C11.9495 9.64755 11.9495 9.65427 11.9495 9.66098C11.9495 9.66769 11.9495 9.6744 11.9495 9.68112C11.9495 9.68783 11.9495 9.69454 11.9495 9.70126C11.9495 9.70797 11.9495 9.71468 11.9495 9.7214C11.9495 9.72811 11.9495 9.73483 11.9495 9.74155C11.9495 9.74826 11.9495 9.75498 11.9495 9.76169C11.9495 9.76841 11.9495 9.77513 11.9495 9.78184C11.9495 9.78856 11.9495 9.79528 11.9495 9.802C11.9495 9.80871 11.9495 9.81543 11.9495 9.82215C11.9495 9.82887 11.9495 9.83559 11.9495 9.8423C11.9495 9.84902 11.9495 9.85574 11.9495 9.86246C11.9495 9.86918 11.9495 9.8759 11.9495 9.88262C11.9495 9.88934 11.9495 9.89606 11.9495 9.90278C11.9495 9.9095 11.9495 9.91622 11.9495 9.92294C11.9495 9.92966 11.9495 9.93638 11.9495 9.9431C11.9495 9.94982 11.9495 9.95654 11.9495 9.96326C11.9495 9.96998 11.9495 9.9767 11.9495 9.98342C11.9495 9.99014 11.9495 9.99686 11.9495 10.0036C11.9495 10.0103 11.9495 10.017 11.9495 10.0237C11.9495 10.0305 11.9495 10.0372 11.9495 10.0439C11.9495 10.0506 11.9495 10.0573 11.9495 10.0641C11.9495 10.0708 11.9495 10.0775 11.9495 10.0842C11.9495 10.091 11.9495 10.0977 11.9495 10.1044C11.9495 10.1111 11.9495 10.1178 11.9495 10.1246C11.9495 10.1313 11.9495 10.138 11.9495 10.1447C11.9495 10.1514 11.9495 10.1582 11.9495 10.1649C11.9495 10.1716 11.9495 10.1783 11.9495 10.185C11.9495 10.1917 11.9495 10.1985 11.9495 10.2052C11.9495 10.2119 11.9495 10.2186 11.9495 10.2253C11.9495 10.2321 11.9495 10.2388 11.9495 10.2455C11.9495 10.2522 11.9495 10.2589 11.9495 10.2656C11.9495 10.2724 11.9495 10.2791 11.9495 10.2858C11.9495 10.2925 11.9495 10.2992 11.9495 10.3059C11.9495 10.3127 11.9495 10.3194 11.9495 10.3261C11.9495 10.3328 11.9495 10.3395 11.9495 10.3462C11.9495 10.3529 11.9495 10.3597 11.9495 10.3664C11.9495 10.3731 11.9495 10.3798 11.9495 10.3865C11.9495 10.3932 11.9495 10.3999 11.9495 10.4066C11.9495 10.4134 11.9495 10.4201 11.9495 10.4268C11.9495 10.4335 11.9495 10.4402 11.9495 10.4469C11.9495 10.4536 11.9495 10.4603 11.9495 10.467C11.9495 10.4737 11.9495 10.4804 11.9495 10.4871C11.9495 10.4939 11.9495 10.5006 11.9495 10.5073C11.9495 10.514 11.9495 10.5207 11.9495 10.5274C11.9495 10.5341 11.9495 10.5408 11.9495 10.5475C11.9495 10.5542 11.9495 10.5609 11.9495 10.5676C11.9495 10.5743 11.9495 10.581 11.9495 10.5877C11.9495 10.5944 11.9495 10.6011 11.9495 10.6078C11.9495 10.6145 11.9495 10.6212 11.9495 10.6279C11.9495 10.6346 11.9495 10.6413 11.9495 10.648C11.9495 10.6547 11.9495 10.6614 11.9495 10.668C11.9495 10.6747 11.9495 10.6814 11.9495 10.6881C11.9495 10.6948 11.9495 10.7015 11.9495 10.7082C11.9495 10.7149 11.9495 10.7216 11.9495 10.7283C11.9495 10.735 11.9495 10.7416 11.9495 10.7483C11.9495 10.755 11.9495 10.7617 11.9495 10.7684C11.9495 10.7751 11.9495 10.7817 11.9495 10.7884C11.9495 10.7951 11.9495 10.8018 11.9495 10.8085C11.9495 10.8151 11.9495 10.8218 11.9495 10.8285C11.9495 10.8352 11.9495 10.8419 11.9495 10.8485C11.9495 10.8552 11.9495 10.8619 11.9495 10.8686C11.9495 10.8752 11.9495 10.8819 11.9495 10.8886C11.9495 10.8952 11.9495 10.9019 11.9495 10.9086C11.9495 10.9153 11.9495 10.9219 11.9495 10.9286C11.9495 10.9353 11.9495 10.9419 11.9495 10.9486C11.9495 10.9552 11.9495 10.9619 11.9495 10.9686C11.9495 10.9752 11.9495 10.9819 11.9495 10.9886C11.9495 10.9952 11.9495 11.0019 11.9495 11.0085C11.9495 11.0152 11.9495 11.0218 11.9495 11.0285C11.9495 11.0351 11.9495 11.0418 11.9495 11.0484C11.9495 11.0551 11.9495 11.0617 11.9495 11.0684C11.9495 11.075 11.9495 11.0817 11.9495 11.0883C11.9495 11.095 11.9495 11.1016 11.9495 11.1083C11.9495 11.1149 11.9495 11.1215 11.9495 11.1282C11.9495 11.1348 11.9495 11.1415 11.9495 11.1481C11.9495 11.1547 11.9495 11.1614 11.9495 11.168C11.9495 11.1746 11.9495 11.1813 11.9495 11.1879C11.9495 11.1945 11.9495 11.2012 11.9495 11.2078C11.9495 11.2144 11.9495 11.221 11.9495 11.2277C11.9495 11.2343 11.9495 11.2409 11.9495 11.2475C11.9495 11.2542 11.9495 11.2608 11.9495 11.2674C11.9495 11.274 11.9495 11.2806 11.9495 11.2872C11.9495 11.2939 11.9495 11.3005 11.9495 11.3071C11.9495 11.3137 11.9495 11.3203 11.9495 11.3269C11.9495 11.3335 11.9495 11.3401 11.9495 11.3467C11.9495 11.3533 11.9495 11.3599 11.9495 11.3665C11.9495 11.3731 11.9495 11.3797 11.9495 11.3863C11.9495 11.3929 11.9495 11.3995 11.9495 11.4061C11.9495 11.4127 11.9495 11.4193 11.9495 11.4259C11.9495 11.4325 11.9495 11.4391 11.9495 11.4456C11.9495 11.4522 11.9495 11.4588 11.9495 11.4654C11.9495 11.472 11.9495 11.4786 11.9495 11.4851C11.9495 11.4917 11.9495 11.4983 11.9495 11.5049C11.9495 11.5114 11.9495 11.518 11.9495 11.5246C11.9495 11.5311 11.9495 11.5377 11.9495 11.5443C11.9495 11.5508 11.9495 11.5574 11.9495 11.564C11.9495 11.5705 11.9495 11.5771 11.9495 11.5837C11.9495 11.5902 11.9495 11.5968 11.9495 11.6033C11.9495 11.6099 11.9495 11.6164 11.9495 11.623C11.9495 11.6295 11.9495 11.6361 11.9495 11.6426C11.9495 11.6492 11.9495 11.6557 11.9495 11.6622C11.9495 11.6688 11.9495 11.6753 11.9495 11.6819C11.9495 11.6884 11.9495 11.6949 11.9495 11.7015C11.9495 11.708 11.9495 11.7145 11.9495 11.721C11.9495 11.7276 11.9495 11.7341 11.9495 11.7406C11.9495 11.7471 11.9495 11.7537 11.9495 11.7602C11.9495 11.7667 11.9495 11.7732 11.9495 11.7797C11.9495 11.7862 11.9495 11.7928 11.9495 11.7993C11.9495 11.8058 11.9495 11.8123 11.9495 11.8188C11.9495 11.8253 11.9495 11.8318 11.9495 11.8383C11.9495 11.8448 11.9495 11.8513 11.9495 11.8578C11.9495 11.8643 11.9495 11.8708 11.9495 11.8772C11.9495 11.8837 11.9495 11.8902 11.9495 11.8967C11.9495 11.9032 11.9495 11.9097 11.9495 11.9161C11.9495 11.9226 11.9495 11.9291 11.9495 11.9356C11.9495 11.9421 11.9495 11.9485 11.9495 11.955C11.9495 11.9615 11.9495 11.9679 11.9495 11.9744C11.9495 11.9809 11.9495 11.9873 11.9495 11.9938C11.9495 12.0002 11.9495 12.0067 11.9495 12.0131C11.9495 12.0196 11.9495 12.026 11.9495 12.0325C11.9495 12.0389 11.9495 12.0454 11.9495 12.0518C11.9495 12.0583 11.9495 12.0647 11.9495 12.0711C11.9495 12.0776 11.9495 12.084 11.9495 12.0904C11.9495 12.0969 11.9495 12.1033 11.9495 12.1097C11.9495 12.1162 11.9495 12.1226 11.9495 12.129C11.9495 12.1354 11.9495 12.1418 11.9495 12.1482C11.9495 12.1547 11.9495 12.1611 11.9495 12.1675C11.9495 12.1739 11.9495 12.1803 11.9495 12.1867C11.9495 12.1931 11.9495 12.1995 11.9495 12.2059C11.9495 12.2123 11.9495 12.2187 11.9495 12.2251C11.9495 12.2315 11.9495 12.2379 11.9495 12.2442C11.9495 12.2506 11.9495 12.257 11.9495 12.2634C11.9495 12.2698 11.9495 12.2761 11.9495 12.2825C11.9495 12.2889 11.9495 12.2953 11.9495 12.3016C11.9495 12.308 11.9495 12.3144 11.9495 12.3207C11.9495 12.3271 11.9495 12.3334 11.9495 12.3398C11.9495 12.3461 11.9495 12.3525 11.9495 12.3588C11.9495 12.3652 11.9495 12.3715 11.9495 12.3779C11.9495 12.3842 11.9495 12.3905 11.9495 12.3969C11.9495 12.4032 11.9495 12.4096 11.9495 12.4159C11.9495 12.4222 11.9495 12.4285 11.9495 12.4349C11.9495 12.4412 11.9495 12.4475 11.9495 12.4538C11.9495 12.4601 11.9495 12.4664 11.9495 12.4727C11.9495 12.4791 11.9495 12.4854 11.9495 12.4917C11.9495 12.498 11.9495 12.5043 11.9495 12.5106C11.9495 12.5169 11.9495 12.5232 11.9495 12.5294C11.9495 12.5357 11.9495 12.542 11.9495 12.5483C11.9495 12.5546 11.9495 12.5609 11.9495 12.5671C11.9495 12.5734 11.9495 12.5797 11.9495 12.5859C11.9495 12.5922 11.9495 12.5985 11.9495 12.6047C11.9495 12.611 11.9495 12.6173 11.9495 12.6235C11.9495 12.6298 11.9495 12.636 11.9495 12.6423C11.9495 12.6485 11.9495 12.6548 11.9495 12.661C11.9495 12.6672 11.9495 12.6735 11.9495 12.6797C11.9495 12.6859 11.9495 12.6922 11.9495 12.6984C11.9495 12.7046 11.9495 12.7108 11.9495 12.7171C11.9495 12.7233 11.9495 12.7295 11.9495 12.7357C11.9495 12.7419 11.9495 12.7481 11.9495 12.7543C11.9495 12.7605 11.9495 12.7667 11.9495 12.7729C11.9495 12.7791 11.9495 12.7853 11.9495 12.7915C11.9495 12.7977 11.9495 12.8039 11.9495 12.8101C11.9495 12.8162 11.9495 12.8224 11.9495 12.8286C11.9495 12.8348 11.9495 12.8409 11.9495 12.8471C11.9495 12.8533 11.9495 12.8594 11.9495 12.8656C11.9495 12.8717 11.9495 12.8779 11.9495 12.884C11.9495 12.8902 11.9495 12.8963 11.9495 12.9025C11.9495 12.9086 11.9495 12.9148 11.9495 12.9209C11.9495 12.927 11.9495 12.9332 11.9495 12.9393C11.9495 12.9454 11.9495 12.9515 11.9495 12.9577C11.9495 12.9638 11.9495 12.9699 11.9495 12.976C11.9495 12.9821 11.9495 12.9882 11.9495 12.9943C11.9495 13.0004 11.9495 13.0065 11.9495 13.0126C11.9495 13.0187 11.9495 13.0248 11.9495 13.0309C11.9495 13.037 11.9495 13.0431 11.9495 13.0491C11.9495 13.0552 11.9495 13.0613 11.9495 13.0674C11.9495 13.0734 11.9495 13.0795 11.9495 13.0855C11.9495 13.0916 11.9495 13.0977 11.9495 13.1037C11.9495 13.1098 11.9495 13.1158 11.9495 13.1219C11.9495 13.1279 11.9495 13.1339 11.9495 13.14C11.9495 13.146 11.9495 13.1521 11.9495 13.1581C11.9495 13.1641 11.9495 13.1701 11.9495 13.1761C11.9495 13.1822 11.9495 13.1882 11.9495 13.1942C11.9495 13.2002 11.9495 13.2062 11.9495 13.2122C11.9495 13.2182 11.9495 13.2242 11.9495 13.2302C11.9495 13.2362 11.9495 13.2422 11.9495 13.2482C11.9495 13.2541 11.9495 13.2601 11.9495 13.2661C11.9495 13.2721 11.9495 13.278 11.9495 13.284C11.9495 13.29 11.9495 13.2959 11.9495 13.3019C11.9495 13.3078 11.9495 13.3138 11.9495 13.3197C11.9495 13.3257 11.9495 13.3316 11.9495 13.3376C11.9495 13.3435 11.9495 13.3494 11.9495 13.3554C11.9495 13.3613 11.9495 13.3672 11.9495 13.3731C11.9495 13.3791 11.9495 13.385 11.9495 13.3909C11.9495 13.3968 11.9495 13.4027 11.9495 13.4086C11.9495 13.4145 11.9495 13.4204 11.9495 13.4263C11.9495 13.4322 11.9495 13.4381 11.9495 13.444C11.9495 13.4498 11.9495 13.4557 11.9495 13.4616C11.9495 13.4675 11.9495 13.4733 11.9495 13.4792C11.9495 13.4851 11.9495 13.4909 11.9495 13.4968C11.9495 13.5026 11.9495 13.5085 11.9495 13.5143C11.9495 13.5202 11.9495 13.526 11.9495 13.5318C11.9495 13.5377 11.9495 13.5435 11.9495 13.5493C11.9495 13.5552 11.9495 13.561 11.9495 13.5668C11.9495 13.5726 11.9495 13.5784 11.9495 13.5842C11.9495 13.59 11.9495 13.5958 11.9495 13.6016C11.9495 13.6074 11.9495 13.6132 11.9495 13.619C11.9495 13.6248 11.9495 13.6306 11.9495 13.6363C11.9495 13.6421 11.9495 13.6479 11.9495 13.6536C11.9495 13.6594 11.9495 13.6652 11.9495 13.6709C11.9495 13.6767 11.9495 13.6824 11.9495 13.6882C11.9495 13.6939 11.9495 13.6997 11.9495 13.7054C11.9495 13.7111 11.9495 13.7169 11.9495 13.7226C11.9495 13.7283 11.9495 13.734 11.9495 13.7397C11.9495 13.7454 11.9495 13.7512 11.9495 13.7569C11.9495 13.7626 11.9495 13.7683 11.9495 13.774C11.9495 13.7796 11.9495 13.7853 11.9495 13.791C11.9495 13.7967 11.9495 13.8024 11.9495 13.808C11.9495 13.8137 11.9495 13.8194 11.9495 13.825C11.9495 13.8307 11.9495 13.8364 11.9495 13.842C11.9495 13.8477 11.9495 13.8533 11.9495 13.859C11.9495 13.8646 11.9495 13.8702 11.9495 13.8759C11.9495 13.8815 11.9495 13.8871 11.9495 13.8927C11.9495 13.8983 11.9495 13.904 11.9495 13.9096C11.9495 13.9152 11.9495 13.9208 11.9495 13.9264C11.9495 13.932 11.9495 13.9376 11.9495 13.9431C11.9495 13.9487 11.9495 13.9543 11.9495 13.9599C11.9495 13.9655 11.9495 13.971 11.9495 13.9766C11.9495 13.9822 11.9495 13.9877 11.9495 13.9933C11.9495 13.9988 11.9495 14.0044 11.9495 14.0099C11.9495 14.0154 11.9495 14.021 11.9495 14.0265C11.9495 14.032 11.9495 14.0376 11.9495 14.0431C11.9495 14.0486 11.9495 14.0541 11.9495 14.0596C11.9495 14.0651 11.9495 14.0706 11.9495 14.0761C11.9495 14.0816 11.9495 14.0871 11.9495 14.0926C11.9495 14.0981 11.9495 14.1036 11.9495 14.109C11.9495 14.1145 11.9495 14.12 11.9495 14.1254C11.9495 14.1309 11.9495 14.1363 11.9495 14.1418C11.9495 14.1472 11.9495 14.1527 11.9495 14.1581C11.9495 14.1636 11.9495 14.169 11.9495 14.1744C11.9495 14.1799 11.9495 14.1853 11.9495 14.1907C11.9495 14.1961 11.9495 14.2015 11.9495 14.2069C11.9495 14.2123 11.9495 14.2177 11.9495 14.2231C11.9495 14.2285 11.9495 14.2339 11.9495 14.2393C11.9495 14.2446 11.9495 14.25 11.9495 14.2554C11.9495 14.2607 11.9495 14.2661 11.9495 14.2715C11.9495 14.2768 11.9495 14.2822 11.9495 14.2875C11.9495 14.2928 11.9495 14.2982 11.9495 14.3035C11.9495 14.3088 11.9495 14.3142 11.9495 14.3195C11.9495 14.3248 11.9495 14.3301 11.9495 14.3354C11.9495 14.3407 11.9495 14.346 11.9495 14.3513C11.9495 14.3566 11.9495 14.3619 11.9495 14.3672C11.9495 14.3725 11.9495 14.3777 11.9495 14.383C11.9495 14.3883 11.9495 14.3935 11.9495 14.3988C11.9495 14.404 11.9495 14.4093 11.9495 14.4145C11.9495 14.4198 11.9495 14.425 11.9495 14.4303C11.9495 14.4355 11.9495 14.4407 11.9495 14.4459C11.9495 14.4511 11.9495 14.4564 11.9495 14.4616C11.9495 14.4668 11.9495 14.472 11.9495 14.4772C11.9495 14.4824 11.9495 14.4875 11.9495 14.4927C11.9495 14.4979 11.9495 14.5031 11.9495 14.5082C11.9495 14.5134 11.9495 14.5186 11.9495 14.5237C11.9495 14.5289 11.9495 14.534 11.9495 14.5392C11.9495 14.5443 11.9495 14.5494 11.9495 14.5546C11.9495 14.5597 11.9495 14.5648 11.9495 14.5699C11.9495 14.5751 11.9495 14.5802 11.9495 14.5853C11.9495 14.5904 11.9495 14.5955 11.9495 14.6006C11.9495 14.6056 11.9495 14.6107 11.9495 14.6158C11.9495 14.6209 11.9495 14.6259 11.9495 14.631C11.9495 14.6361 11.9495 14.6411 11.9495 14.6462C11.9495 14.6512 11.9495 14.6563 11.9495 14.6613C11.9495 14.6663 11.9495 14.6714 11.9495 14.6764C11.9495 14.6814 11.9495 14.6864 11.9495 14.6914C11.9495 14.6964 11.9495 14.7014 11.9495 14.7064C11.9495 14.7114 11.9495 14.7164 11.9495 14.7214C11.9495 14.7264 11.9495 14.7314 11.9495 14.7363C11.9495 14.7413 11.9495 14.7463 11.9495 14.7512C11.9495 14.7562 11.9495 14.7611 11.9495 14.7661C11.9495 14.771 11.9495 14.7759 11.9495 14.7809C11.9495 14.7858 11.9495 14.7907 11.9495 14.7956C11.9495 14.8005 11.9495 14.8054 11.9495 14.8103C11.9495 14.8152 11.9495 14.8201 11.9495 14.825C11.9495 14.8299 11.9495 14.8348 11.9495 14.8396C11.9495 14.8445 11.9495 14.8494 11.9495 14.8542C11.9495 14.8591 11.9495 14.8639 11.9495 14.8688C11.9495 14.8736 11.9495 14.8785 11.9495 14.8833C11.9495 14.8881 11.9495 14.8929 11.9495 14.8978C11.9495 14.9026 11.9495 14.9074 11.9495 14.9122C11.9495 14.917 11.9495 14.9218 11.9495 14.9266C11.9495 14.9313 11.9495 14.9361 11.9495 14.9409C11.9495 14.9457 11.9495 14.9504 11.9495 14.9552C11.9495 14.9599 11.9495 14.9647 11.9495 14.9694C11.9495 14.9742 11.9495 14.9789 11.9495 14.9836C11.9495 14.9884 11.9495 14.9931 11.9495 14.9978C11.9495 15.0025 11.9495 15.0072 11.9495 15.0119C11.9495 15.0166 11.9495 15.0213 11.9495 15.026C11.9495 15.0307 11.9495 15.0353 11.9495 15.04C11.9495 15.0447 11.9495 15.0493 11.9495 15.054C11.9495 15.0587 11.9495 15.0633 11.9495 15.0679C11.9495 15.0726 11.9495 15.0772 11.9495 15.0818C11.9495 15.0865 11.9495 15.0911 11.9495 15.0957C11.9495 15.1003 11.9495 15.1049 11.9495 15.1095C11.9495 15.1141 11.9495 15.1187 11.9495 15.1233C11.9495 15.1278 11.9495 15.1324 11.9495 15.137C11.9495 15.1415 11.9495 15.1461 11.9495 15.1506C11.9495 15.1552 11.9495 15.1597 11.9495 15.1643C11.9495 15.1688 11.9495 15.1733 11.9495 15.1778C11.9495 15.1824 11.9495 15.1869 11.9495 15.1914C11.9495 15.1959 11.9495 15.2004 11.9495 15.2049C11.9495 15.2093 11.9495 15.2138 11.9495 15.2183C11.9495 15.2228 11.9495 15.2272 11.9495 15.2317C11.9495 15.2361 11.9495 15.2406 11.9495 15.245C11.9495 15.2495 11.9495 15.2539 11.9495 15.2583C11.9495 15.2628 11.9495 15.2672 11.9495 15.2716C11.9495 15.276 11.9495 15.2804 11.9495 15.2848C11.9495 15.2892 11.9495 15.2936 11.9495 15.2979C11.9495 15.3023 11.9495 15.3067 11.9495 15.3111C11.9495 15.3154 11.9495 15.3198 11.9495 15.3241C11.9495 15.3285 11.9495 15.3328 11.9495 15.3371C11.9495 15.3415 11.9495 15.3458 11.9495 15.3501C11.9495 15.3544 11.9495 15.3587 11.9495 15.363C11.9495 15.3673 11.9495 15.3716 11.9495 15.3759C11.9495 15.3802 11.9495 15.3844 11.9495 15.3887C11.9495 15.393 11.9495 15.3972 11.9495 15.4015C11.9495 15.4057 11.9495 15.41 11.9495 15.4142C11.9495 15.4184 11.9495 15.4227 11.9495 15.4269C11.9495 15.4311 11.9495 15.4353 11.9495 15.4395C11.9495 15.4437 11.9495 15.4479 11.9495 15.4521C11.9495 15.4563 11.9495 15.4604 11.9495 15.4646C11.9495 15.4688 11.9495 15.4729 11.9495 15.4771C11.9495 15.4812 11.9495 15.4854 11.9495 15.4895C11.9495 15.4937 11.9495 15.4978 11.9495 15.5019C11.9495 15.506 11.9495 15.5101 11.9495 15.5142C11.9495 15.5183 11.9495 15.5224 11.9495 15.5265C11.9495 15.5306 11.9495 15.5347 11.9495 15.5387C11.9495 15.5428 11.9495 15.5469 11.9495 15.5509C11.9495 15.555 11.9495 15.559 11.9495 15.563C11.9495 15.5671 11.9495 15.5711 11.9495 15.5751C11.9495 15.5791 11.9495 15.5831 11.9495 15.5871C11.9495 15.5911 11.9495 15.5951 11.9495 15.5991C11.9495 15.6031 11.9495 15.6071 11.9495 15.611C11.9495 15.615 11.9495 15.619 11.9495 15.6229C11.9495 15.6269 11.9495 15.6308 11.9495 15.6347C11.9495 15.6387 11.9495 15.6426 11.9495 15.6465C11.9495 15.6504 11.9495 15.6543 11.9495 15.6582C11.9495 15.6621 11.9495 15.666 11.9495 15.6699C11.9495 15.6737 11.9495 15.6776 11.9495 15.6815C11.9495 15.6853 11.9495 15.6892 11.9495 15.693C11.9495 15.6969 11.9495 15.7007 11.9495 15.7045C11.9495 15.7084 11.9495 15.7122 11.9495 15.716C11.9495 15.7198 11.9495 15.7236 11.9495 15.7274C11.9495 15.7312 11.9495 15.735 11.9495 15.7387C11.9495 15.7425 11.9495 15.7463 11.9495 15.75C11.9495 15.7538 11.9495 15.7575 11.9495 15.7613C11.9495 15.765 11.9495 15.7688 11.9495 15.7725C11.9495 15.7762 11.9495 15.7799 11.9495 15.7836C11.9495 15.7873 11.9495 15.791 11.9495 15.7947C11.9495 15.7984 11.9495 15.802 11.9495 15.8057C11.9495 15.8094 11.9495 15.813 11.9495 15.8167C11.9495 15.8203 11.9495 15.824 11.9495 15.8276C11.9495 15.8312 11.9495 15.8348 11.9495 15.8385C11.9495 15.8421 11.9495 15.8457 11.9495 15.8493C11.9495 15.8529 11.9495 15.8564 11.9495 15.86C11.9495 15.8636 11.9495 15.8672 11.9495 15.8707C11.9495 15.8743 11.9495 15.8778 11.9495 15.8814C11.9495 15.8849 11.9495 15.8884 11.9495 15.892C11.9495 15.8955 11.9495 15.899 11.9495 15.9025C11.9495 15.906 11.9495 15.9095 11.9495 15.913C11.9495 15.9164 11.9495 15.9199 11.9495 15.9234C11.9495 15.9268 11.9495 15.9303 11.9495 15.9337C11.9495 15.9372 11.9495 15.9406 11.9495 15.9441C11.9495 15.9475 11.9495 15.9509 11.9495 15.9543C11.9495 15.9577 11.9495 15.9611 11.9495 15.9645C11.9495 15.9679 11.9495 15.9713 11.9495 15.9746C11.9495 15.978 11.9495 15.9814 11.9495 15.9847C11.9495 15.9881 11.9495 15.9914 11.9495 15.9948C11.9495 15.9981 11.9495 16.0014 11.9495 16.0047C11.9495 16.008 11.9495 16.0113 11.9495 16.0146C11.9495 16.0179 11.9495 16.0212 11.9495 16.0245C11.9495 16.0278 11.9495 16.031 11.9495 16.0343C11.9495 16.0375 11.9495 16.0408 11.9495 16.044C11.9495 16.0473 11.9495 16.0505 11.9495 16.0537C11.9495 16.0569 11.9495 16.0601 11.9495 16.0633C11.9495 16.0665 11.9495 16.0697 11.9495 16.0729C11.9495 16.0761 11.9495 16.0792 11.9495 16.0824C11.9495 16.0856 11.9495 16.0887 11.9495 16.0918C11.9495 16.095 11.9495 16.0981 11.9495 16.1012C11.9495 16.1043 11.9495 16.1075 11.9495 16.1106C11.9495 16.1137 11.9495 16.1167 11.9495 16.1198C11.9495 16.1229 11.9495 16.126 11.9495 16.129C11.9495 16.1321 11.9495 16.1352 11.9495 16.1382C11.9495 16.1412 11.9495 16.1443 11.9495 16.1473C11.9495 16.1503 11.9495 16.1533 11.9495 16.1563C11.9495 16.1593 11.9495 16.1623 11.9495 16.1653C11.9495 16.1683 11.9495 16.1712 11.9495 16.1742C11.9495 16.1772 11.9495 16.1801 11.9495 16.1831C11.9495 16.186 11.9495 16.1889 11.9495 16.1919C11.9495 16.1948 11.9495 16.1977 11.9495 16.2006C11.9495 16.2035 11.9495 16.2064 11.9495 16.2093C11.9495 16.2121 11.9495 16.215 11.9495 16.2179C11.9495 16.2207 11.9495 16.2236 11.9495 16.2264C11.9495 16.2293 11.9495 16.2321 11.9495 16.2349C11.9495 16.2377 11.9495 16.2405 11.9495 16.2433C11.9495 16.2461 11.9495 16.2489 11.9495 16.2517C11.9495 16.2545 11.9495 16.2573 11.9495 16.26C11.9495 16.2628 11.9495 16.2655 11.9495 16.2683C11.9495 16.271 11.9495 16.2737 11.9495 16.2764C11.9495 16.2792 11.9495 16.2819 11.9495 16.2846C11.9495 16.2873 11.9495 16.2899 11.9495 16.2926C11.9495 16.2953 11.9495 16.298 11.9495 16.3006C11.9495 16.3033 11.9495 16.3059 11.9495 16.3085C11.9495 16.3112 11.9495 16.3138 11.9495 16.3164C11.9495 16.319 11.9495 16.3216 11.9495 16.3242C11.9495 16.3268 11.9495 16.3294 11.9495 16.332C11.9495 16.3345 11.9495 16.3371 11.9495 16.3396C11.9495 16.3422 11.9495 16.3447 11.9495 16.3473C11.9495 16.3498 11.9495 16.3523 11.9495 16.3548C11.9495 16.3573 11.9495 16.3598 11.9495 16.3623C11.9495 16.3648 11.9495 16.3673 11.9495 16.3697C11.9495 16.3722 11.9495 16.3746 11.9495 16.3771C11.9495 16.3795 11.9495 16.382 11.9495 16.3844C11.9495 16.3868 11.9495 16.3892 11.9495 16.3916C11.9495 16.394 11.9495 16.3964 11.9495 16.3988C11.9495 16.4012 11.9495 16.4035 11.9495 16.4059C11.9495 16.4083 11.9495 16.4106 11.9495 16.4129C11.9495 16.4153 11.9495 16.4176 11.9495 16.4199C11.9495 16.4222 11.9495 16.4245 11.9495 16.4268C11.9495 16.4291 11.9495 16.4314 11.9495 16.4337C11.9495 16.4359 11.9495 16.4382 11.9495 16.4404C11.9495 16.4427 11.9495 16.4449 11.9495 16.4472C11.9495 16.4494 11.9495 16.4516 11.9495 16.4538C11.9495 16.456 11.9495 16.4582 11.9495 16.4604C11.9495 16.4626 11.9495 16.4647 11.9495 16.4669C11.9495 16.4691 11.9495 16.4712 11.9495 16.4734C11.9495 16.4755 11.9495 16.4776 11.9495 16.4797C11.9495 16.4819 11.9495 16.484 11.9495 16.4861C11.9495 16.4881 11.9495 16.4902 11.9495 16.4923C11.9495 16.4944 11.9495 16.4964 11.9495 16.4985C11.9495 16.5005 11.9495 16.5026 11.9495 16.5046C11.9495 16.5066 11.9495 16.5086 11.9495 16.5107C11.9495 16.5127 11.9495 16.5147 11.9495 16.5166C11.9495 16.5186 11.9495 16.5206 11.9495 16.5226C11.9495 16.5245 11.9495 16.5265 11.9495 16.5284C11.9495 16.5303 11.9495 16.5323 11.9495 16.5342C11.9495 16.5361 11.9495 16.538 11.9495 16.5399C11.9495 16.5418 11.9495 16.5437 11.9495 16.5455C11.9495 16.5474 11.9495 16.5493 11.9495 16.5511C11.9495 16.5529 11.9495 16.5548 11.9495 16.5566C11.9495 16.5584 11.9495 16.5602 11.9495 16.562C11.9495 16.5638 11.9495 16.5656 11.9495 16.5674C11.9495 16.5692 11.9495 16.571 11.9495 16.5727C11.9495 16.5745 11.9495 16.5762 11.9495 16.5779C11.9495 16.5797 11.9495 16.5814 11.9495 16.5831C11.9495 16.5848 11.9495 16.5865 11.9495 16.5882C11.9495 16.5899 11.9495 16.5916 11.9495 16.5932C11.9495 16.5949 11.9495 16.5965 11.9495 16.5982C11.9495 16.5998 11.9495 16.6014 11.9495 16.6031C11.9495 16.6047 11.9495 16.6063 11.9495 16.6079C11.9495 16.6095 11.9495 16.611 11.9495 16.6126C11.9495 16.6142 11.9495 16.6157 11.9495 16.6173C11.9495 16.6188 11.9495 16.6204 11.9495 16.6219C11.9495 16.6234 11.9495 16.6249 11.9495 16.6264C11.9495 16.6279 11.9495 16.6294 11.9495 16.6309C11.9495 16.6323 11.9495 16.6338 11.9495 16.6353C11.9495 16.6367 11.9495 16.6382 11.9495 16.6396C11.9495 16.641 11.9495 16.6424 11.9495 16.6438C11.9495 16.6452 11.9495 16.6466 11.9495 16.648C11.9495 16.6494 11.9495 16.6507 11.9495 16.6521C11.9495 16.6535 11.9495 16.6548 11.9495 16.6561C11.9495 16.6575 11.9495 16.6588 11.9495 16.6601C11.9495 16.6614 11.9495 16.6627 11.9495 16.664C11.9495 16.6653 11.9495 16.6665 11.9495 16.6678C11.9495 16.6691 11.9495 16.6703 11.9495 16.6715C11.9495 16.6728 11.9495 16.674 11.9495 16.6752C11.9495 16.6764 11.9495 16.6776 11.9495 16.6788C11.9495 16.68 11.9495 16.6812 11.9495 16.6823C11.9495 16.6835 11.9495 16.6846 11.9495 16.6858C11.9495 16.6869 11.9495 16.688 11.9495 16.6892C11.9495 16.6903 11.9495 16.6914 11.9495 16.6925C11.9495 16.6935 11.9495 16.6946 11.9495 16.6957C11.9495 16.6968 11.9495 16.6978 11.9495 16.6988C11.9495 16.6999 11.9495 16.7009 11.9495 16.7019C11.9495 16.7029 11.9495 16.7039 11.9495 16.7049C11.9495 16.7059 11.9495 16.7069 11.9495 16.7079C11.9495 16.7088 11.9495 16.7098 11.9495 16.7107C11.9495 16.7117 11.9495 16.7126 11.9495 16.7135C11.9495 16.7144 11.9495 16.7153 11.9495 16.7162C11.9495 16.7171 11.9495 16.718 11.9495 16.7189C11.9495 16.7197 11.9495 16.7206 11.9495 16.7214C11.9495 16.7223 11.9495 16.7231 11.9495 16.7239C11.9495 16.7247 11.9495 16.7255 11.9495 16.7263C11.9495 16.7271 11.9495 16.7279 11.9495 16.7287C11.9495 16.7294 11.9495 16.7302 11.9495 16.7309C11.9495 16.7317 11.9495 16.7324 11.9495 16.7331C11.9495 16.7338 11.9495 16.7345 11.9495 16.7352H12.1995C12.1995 16.7345 12.1995 16.7338 12.1995 16.7331C12.1995 16.7324 12.1995 16.7317 12.1995 16.7309C12.1995 16.7302 12.1995 16.7294 12.1995 16.7287C12.1995 16.7279 12.1995 16.7271 12.1995 16.7263C12.1995 16.7255 12.1995 16.7247 12.1995 16.7239C12.1995 16.7231 12.1995 16.7223 12.1995 16.7214C12.1995 16.7206 12.1995 16.7197 12.1995 16.7189C12.1995 16.718 12.1995 16.7171 12.1995 16.7162C12.1995 16.7153 12.1995 16.7144 12.1995 16.7135C12.1995 16.7126 12.1995 16.7117 12.1995 16.7107C12.1995 16.7098 12.1995 16.7088 12.1995 16.7079C12.1995 16.7069 12.1995 16.7059 12.1995 16.7049C12.1995 16.7039 12.1995 16.7029 12.1995 16.7019C12.1995 16.7009 12.1995 16.6999 12.1995 16.6988C12.1995 16.6978 12.1995 16.6968 12.1995 16.6957C12.1995 16.6946 12.1995 16.6935 12.1995 16.6925C12.1995 16.6914 12.1995 16.6903 12.1995 16.6892C12.1995 16.688 12.1995 16.6869 12.1995 16.6858C12.1995 16.6846 12.1995 16.6835 12.1995 16.6823C12.1995 16.6812 12.1995 16.68 12.1995 16.6788C12.1995 16.6776 12.1995 16.6764 12.1995 16.6752C12.1995 16.674 12.1995 16.6728 12.1995 16.6715C12.1995 16.6703 12.1995 16.6691 12.1995 16.6678C12.1995 16.6665 12.1995 16.6653 12.1995 16.664C12.1995 16.6627 12.1995 16.6614 12.1995 16.6601C12.1995 16.6588 12.1995 16.6575 12.1995 16.6561C12.1995 16.6548 12.1995 16.6535 12.1995 16.6521C12.1995 16.6507 12.1995 16.6494 12.1995 16.648C12.1995 16.6466 12.1995 16.6452 12.1995 16.6438C12.1995 16.6424 12.1995 16.641 12.1995 16.6396C12.1995 16.6382 12.1995 16.6367 12.1995 16.6353C12.1995 16.6338 12.1995 16.6323 12.1995 16.6309C12.1995 16.6294 12.1995 16.6279 12.1995 16.6264C12.1995 16.6249 12.1995 16.6234 12.1995 16.6219C12.1995 16.6204 12.1995 16.6188 12.1995 16.6173C12.1995 16.6157 12.1995 16.6142 12.1995 16.6126C12.1995 16.611 12.1995 16.6095 12.1995 16.6079C12.1995 16.6063 12.1995 16.6047 12.1995 16.6031C12.1995 16.6014 12.1995 16.5998 12.1995 16.5982C12.1995 16.5965 12.1995 16.5949 12.1995 16.5932C12.1995 16.5916 12.1995 16.5899 12.1995 16.5882C12.1995 16.5865 12.1995 16.5848 12.1995 16.5831C12.1995 16.5814 12.1995 16.5797 12.1995 16.5779C12.1995 16.5762 12.1995 16.5745 12.1995 16.5727C12.1995 16.571 12.1995 16.5692 12.1995 16.5674C12.1995 16.5656 12.1995 16.5638 12.1995 16.562C12.1995 16.5602 12.1995 16.5584 12.1995 16.5566C12.1995 16.5548 12.1995 16.5529 12.1995 16.5511C12.1995 16.5493 12.1995 16.5474 12.1995 16.5455C12.1995 16.5437 12.1995 16.5418 12.1995 16.5399C12.1995 16.538 12.1995 16.5361 12.1995 16.5342C12.1995 16.5323 12.1995 16.5303 12.1995 16.5284C12.1995 16.5265 12.1995 16.5245 12.1995 16.5226C12.1995 16.5206 12.1995 16.5186 12.1995 16.5166C12.1995 16.5147 12.1995 16.5127 12.1995 16.5107C12.1995 16.5086 12.1995 16.5066 12.1995 16.5046C12.1995 16.5026 12.1995 16.5005 12.1995 16.4985C12.1995 16.4964 12.1995 16.4944 12.1995 16.4923C12.1995 16.4902 12.1995 16.4881 12.1995 16.4861C12.1995 16.484 12.1995 16.4819 12.1995 16.4797C12.1995 16.4776 12.1995 16.4755 12.1995 16.4734C12.1995 16.4712 12.1995 16.4691 12.1995 16.4669C12.1995 16.4647 12.1995 16.4626 12.1995 16.4604C12.1995 16.4582 12.1995 16.456 12.1995 16.4538C12.1995 16.4516 12.1995 16.4494 12.1995 16.4472C12.1995 16.4449 12.1995 16.4427 12.1995 16.4404C12.1995 16.4382 12.1995 16.4359 12.1995 16.4337C12.1995 16.4314 12.1995 16.4291 12.1995 16.4268C12.1995 16.4245 12.1995 16.4222 12.1995 16.4199C12.1995 16.4176 12.1995 16.4153 12.1995 16.4129C12.1995 16.4106 12.1995 16.4083 12.1995 16.4059C12.1995 16.4035 12.1995 16.4012 12.1995 16.3988C12.1995 16.3964 12.1995 16.394 12.1995 16.3916C12.1995 16.3892 12.1995 16.3868 12.1995 16.3844C12.1995 16.382 12.1995 16.3795 12.1995 16.3771C12.1995 16.3746 12.1995 16.3722 12.1995 16.3697C12.1995 16.3673 12.1995 16.3648 12.1995 16.3623C12.1995 16.3598 12.1995 16.3573 12.1995 16.3548C12.1995 16.3523 12.1995 16.3498 12.1995 16.3473C12.1995 16.3447 12.1995 16.3422 12.1995 16.3396C12.1995 16.3371 12.1995 16.3345 12.1995 16.332C12.1995 16.3294 12.1995 16.3268 12.1995 16.3242C12.1995 16.3216 12.1995 16.319 12.1995 16.3164C12.1995 16.3138 12.1995 16.3112 12.1995 16.3085C12.1995 16.3059 12.1995 16.3033 12.1995 16.3006C12.1995 16.298 12.1995 16.2953 12.1995 16.2926C12.1995 16.2899 12.1995 16.2873 12.1995 16.2846C12.1995 16.2819 12.1995 16.2792 12.1995 16.2764C12.1995 16.2737 12.1995 16.271 12.1995 16.2683C12.1995 16.2655 12.1995 16.2628 12.1995 16.26C12.1995 16.2573 12.1995 16.2545 12.1995 16.2517C12.1995 16.2489 12.1995 16.2461 12.1995 16.2433C12.1995 16.2405 12.1995 16.2377 12.1995 16.2349C12.1995 16.2321 12.1995 16.2293 12.1995 16.2264C12.1995 16.2236 12.1995 16.2207 12.1995 16.2179C12.1995 16.215 12.1995 16.2121 12.1995 16.2093C12.1995 16.2064 12.1995 16.2035 12.1995 16.2006C12.1995 16.1977 12.1995 16.1948 12.1995 16.1919C12.1995 16.1889 12.1995 16.186 12.1995 16.1831C12.1995 16.1801 12.1995 16.1772 12.1995 16.1742C12.1995 16.1712 12.1995 16.1683 12.1995 16.1653C12.1995 16.1623 12.1995 16.1593 12.1995 16.1563C12.1995 16.1533 12.1995 16.1503 12.1995 16.1473C12.1995 16.1443 12.1995 16.1412 12.1995 16.1382C12.1995 16.1352 12.1995 16.1321 12.1995 16.129C12.1995 16.126 12.1995 16.1229 12.1995 16.1198C12.1995 16.1167 12.1995 16.1137 12.1995 16.1106C12.1995 16.1075 12.1995 16.1043 12.1995 16.1012C12.1995 16.0981 12.1995 16.095 12.1995 16.0918C12.1995 16.0887 12.1995 16.0856 12.1995 16.0824C12.1995 16.0792 12.1995 16.0761 12.1995 16.0729C12.1995 16.0697 12.1995 16.0665 12.1995 16.0633C12.1995 16.0601 12.1995 16.0569 12.1995 16.0537C12.1995 16.0505 12.1995 16.0473 12.1995 16.044C12.1995 16.0408 12.1995 16.0375 12.1995 16.0343C12.1995 16.031 12.1995 16.0278 12.1995 16.0245C12.1995 16.0212 12.1995 16.0179 12.1995 16.0146C12.1995 16.0113 12.1995 16.008 12.1995 16.0047C12.1995 16.0014 12.1995 15.9981 12.1995 15.9948C12.1995 15.9914 12.1995 15.9881 12.1995 15.9847C12.1995 15.9814 12.1995 15.978 12.1995 15.9746C12.1995 15.9713 12.1995 15.9679 12.1995 15.9645C12.1995 15.9611 12.1995 15.9577 12.1995 15.9543C12.1995 15.9509 12.1995 15.9475 12.1995 15.9441C12.1995 15.9406 12.1995 15.9372 12.1995 15.9337C12.1995 15.9303 12.1995 15.9268 12.1995 15.9234C12.1995 15.9199 12.1995 15.9164 12.1995 15.913C12.1995 15.9095 12.1995 15.906 12.1995 15.9025C12.1995 15.899 12.1995 15.8955 12.1995 15.892C12.1995 15.8884 12.1995 15.8849 12.1995 15.8814C12.1995 15.8778 12.1995 15.8743 12.1995 15.8707C12.1995 15.8672 12.1995 15.8636 12.1995 15.86C12.1995 15.8564 12.1995 15.8529 12.1995 15.8493C12.1995 15.8457 12.1995 15.8421 12.1995 15.8385C12.1995 15.8348 12.1995 15.8312 12.1995 15.8276C12.1995 15.824 12.1995 15.8203 12.1995 15.8167C12.1995 15.813 12.1995 15.8094 12.1995 15.8057C12.1995 15.802 12.1995 15.7984 12.1995 15.7947C12.1995 15.791 12.1995 15.7873 12.1995 15.7836C12.1995 15.7799 12.1995 15.7762 12.1995 15.7725C12.1995 15.7688 12.1995 15.765 12.1995 15.7613C12.1995 15.7575 12.1995 15.7538 12.1995 15.75C12.1995 15.7463 12.1995 15.7425 12.1995 15.7387C12.1995 15.735 12.1995 15.7312 12.1995 15.7274C12.1995 15.7236 12.1995 15.7198 12.1995 15.716C12.1995 15.7122 12.1995 15.7084 12.1995 15.7045C12.1995 15.7007 12.1995 15.6969 12.1995 15.693C12.1995 15.6892 12.1995 15.6853 12.1995 15.6815C12.1995 15.6776 12.1995 15.6737 12.1995 15.6699C12.1995 15.666 12.1995 15.6621 12.1995 15.6582C12.1995 15.6543 12.1995 15.6504 12.1995 15.6465C12.1995 15.6426 12.1995 15.6387 12.1995 15.6347C12.1995 15.6308 12.1995 15.6269 12.1995 15.6229C12.1995 15.619 12.1995 15.615 12.1995 15.611C12.1995 15.6071 12.1995 15.6031 12.1995 15.5991C12.1995 15.5951 12.1995 15.5911 12.1995 15.5871C12.1995 15.5831 12.1995 15.5791 12.1995 15.5751C12.1995 15.5711 12.1995 15.5671 12.1995 15.563C12.1995 15.559 12.1995 15.555 12.1995 15.5509C12.1995 15.5469 12.1995 15.5428 12.1995 15.5387C12.1995 15.5347 12.1995 15.5306 12.1995 15.5265C12.1995 15.5224 12.1995 15.5183 12.1995 15.5142C12.1995 15.5101 12.1995 15.506 12.1995 15.5019C12.1995 15.4978 12.1995 15.4937 12.1995 15.4895C12.1995 15.4854 12.1995 15.4812 12.1995 15.4771C12.1995 15.4729 12.1995 15.4688 12.1995 15.4646C12.1995 15.4604 12.1995 15.4563 12.1995 15.4521C12.1995 15.4479 12.1995 15.4437 12.1995 15.4395C12.1995 15.4353 12.1995 15.4311 12.1995 15.4269C12.1995 15.4227 12.1995 15.4184 12.1995 15.4142C12.1995 15.41 12.1995 15.4057 12.1995 15.4015C12.1995 15.3972 12.1995 15.393 12.1995 15.3887C12.1995 15.3844 12.1995 15.3802 12.1995 15.3759C12.1995 15.3716 12.1995 15.3673 12.1995 15.363C12.1995 15.3587 12.1995 15.3544 12.1995 15.3501C12.1995 15.3458 12.1995 15.3415 12.1995 15.3371C12.1995 15.3328 12.1995 15.3285 12.1995 15.3241C12.1995 15.3198 12.1995 15.3154 12.1995 15.3111C12.1995 15.3067 12.1995 15.3023 12.1995 15.2979C12.1995 15.2936 12.1995 15.2892 12.1995 15.2848C12.1995 15.2804 12.1995 15.276 12.1995 15.2716C12.1995 15.2672 12.1995 15.2628 12.1995 15.2583C12.1995 15.2539 12.1995 15.2495 12.1995 15.245C12.1995 15.2406 12.1995 15.2361 12.1995 15.2317C12.1995 15.2272 12.1995 15.2228 12.1995 15.2183C12.1995 15.2138 12.1995 15.2093 12.1995 15.2049C12.1995 15.2004 12.1995 15.1959 12.1995 15.1914C12.1995 15.1869 12.1995 15.1824 12.1995 15.1778C12.1995 15.1733 12.1995 15.1688 12.1995 15.1643C12.1995 15.1597 12.1995 15.1552 12.1995 15.1506C12.1995 15.1461 12.1995 15.1415 12.1995 15.137C12.1995 15.1324 12.1995 15.1278 12.1995 15.1233C12.1995 15.1187 12.1995 15.1141 12.1995 15.1095C12.1995 15.1049 12.1995 15.1003 12.1995 15.0957C12.1995 15.0911 12.1995 15.0865 12.1995 15.0818C12.1995 15.0772 12.1995 15.0726 12.1995 15.0679C12.1995 15.0633 12.1995 15.0587 12.1995 15.054C12.1995 15.0493 12.1995 15.0447 12.1995 15.04C12.1995 15.0353 12.1995 15.0307 12.1995 15.026C12.1995 15.0213 12.1995 15.0166 12.1995 15.0119C12.1995 15.0072 12.1995 15.0025 12.1995 14.9978C12.1995 14.9931 12.1995 14.9884 12.1995 14.9836C12.1995 14.9789 12.1995 14.9742 12.1995 14.9694C12.1995 14.9647 12.1995 14.9599 12.1995 14.9552C12.1995 14.9504 12.1995 14.9457 12.1995 14.9409C12.1995 14.9361 12.1995 14.9313 12.1995 14.9266C12.1995 14.9218 12.1995 14.917 12.1995 14.9122C12.1995 14.9074 12.1995 14.9026 12.1995 14.8978C12.1995 14.8929 12.1995 14.8881 12.1995 14.8833C12.1995 14.8785 12.1995 14.8736 12.1995 14.8688C12.1995 14.8639 12.1995 14.8591 12.1995 14.8542C12.1995 14.8494 12.1995 14.8445 12.1995 14.8396C12.1995 14.8348 12.1995 14.8299 12.1995 14.825C12.1995 14.8201 12.1995 14.8152 12.1995 14.8103C12.1995 14.8054 12.1995 14.8005 12.1995 14.7956C12.1995 14.7907 12.1995 14.7858 12.1995 14.7809C12.1995 14.7759 12.1995 14.771 12.1995 14.7661C12.1995 14.7611 12.1995 14.7562 12.1995 14.7512C12.1995 14.7463 12.1995 14.7413 12.1995 14.7363C12.1995 14.7314 12.1995 14.7264 12.1995 14.7214C12.1995 14.7164 12.1995 14.7114 12.1995 14.7064C12.1995 14.7014 12.1995 14.6964 12.1995 14.6914C12.1995 14.6864 12.1995 14.6814 12.1995 14.6764C12.1995 14.6714 12.1995 14.6663 12.1995 14.6613C12.1995 14.6563 12.1995 14.6512 12.1995 14.6462C12.1995 14.6411 12.1995 14.6361 12.1995 14.631C12.1995 14.6259 12.1995 14.6209 12.1995 14.6158C12.1995 14.6107 12.1995 14.6056 12.1995 14.6006C12.1995 14.5955 12.1995 14.5904 12.1995 14.5853C12.1995 14.5802 12.1995 14.5751 12.1995 14.5699C12.1995 14.5648 12.1995 14.5597 12.1995 14.5546C12.1995 14.5494 12.1995 14.5443 12.1995 14.5392C12.1995 14.534 12.1995 14.5289 12.1995 14.5237C12.1995 14.5186 12.1995 14.5134 12.1995 14.5082C12.1995 14.5031 12.1995 14.4979 12.1995 14.4927C12.1995 14.4875 12.1995 14.4824 12.1995 14.4772C12.1995 14.472 12.1995 14.4668 12.1995 14.4616C12.1995 14.4564 12.1995 14.4511 12.1995 14.4459C12.1995 14.4407 12.1995 14.4355 12.1995 14.4303C12.1995 14.425 12.1995 14.4198 12.1995 14.4145C12.1995 14.4093 12.1995 14.404 12.1995 14.3988C12.1995 14.3935 12.1995 14.3883 12.1995 14.383C12.1995 14.3777 12.1995 14.3725 12.1995 14.3672C12.1995 14.3619 12.1995 14.3566 12.1995 14.3513C12.1995 14.346 12.1995 14.3407 12.1995 14.3354C12.1995 14.3301 12.1995 14.3248 12.1995 14.3195C12.1995 14.3142 12.1995 14.3088 12.1995 14.3035C12.1995 14.2982 12.1995 14.2928 12.1995 14.2875C12.1995 14.2822 12.1995 14.2768 12.1995 14.2715C12.1995 14.2661 12.1995 14.2607 12.1995 14.2554C12.1995 14.25 12.1995 14.2446 12.1995 14.2393C12.1995 14.2339 12.1995 14.2285 12.1995 14.2231C12.1995 14.2177 12.1995 14.2123 12.1995 14.2069C12.1995 14.2015 12.1995 14.1961 12.1995 14.1907C12.1995 14.1853 12.1995 14.1799 12.1995 14.1744C12.1995 14.169 12.1995 14.1636 12.1995 14.1581C12.1995 14.1527 12.1995 14.1472 12.1995 14.1418C12.1995 14.1363 12.1995 14.1309 12.1995 14.1254C12.1995 14.12 12.1995 14.1145 12.1995 14.109C12.1995 14.1036 12.1995 14.0981 12.1995 14.0926C12.1995 14.0871 12.1995 14.0816 12.1995 14.0761C12.1995 14.0706 12.1995 14.0651 12.1995 14.0596C12.1995 14.0541 12.1995 14.0486 12.1995 14.0431C12.1995 14.0376 12.1995 14.032 12.1995 14.0265C12.1995 14.021 12.1995 14.0154 12.1995 14.0099C12.1995 14.0044 12.1995 13.9988 12.1995 13.9933C12.1995 13.9877 12.1995 13.9822 12.1995 13.9766C12.1995 13.971 12.1995 13.9655 12.1995 13.9599C12.1995 13.9543 12.1995 13.9487 12.1995 13.9431C12.1995 13.9376 12.1995 13.932 12.1995 13.9264C12.1995 13.9208 12.1995 13.9152 12.1995 13.9096C12.1995 13.904 12.1995 13.8983 12.1995 13.8927C12.1995 13.8871 12.1995 13.8815 12.1995 13.8759C12.1995 13.8702 12.1995 13.8646 12.1995 13.859C12.1995 13.8533 12.1995 13.8477 12.1995 13.842C12.1995 13.8364 12.1995 13.8307 12.1995 13.825C12.1995 13.8194 12.1995 13.8137 12.1995 13.808C12.1995 13.8024 12.1995 13.7967 12.1995 13.791C12.1995 13.7853 12.1995 13.7796 12.1995 13.774C12.1995 13.7683 12.1995 13.7626 12.1995 13.7569C12.1995 13.7512 12.1995 13.7454 12.1995 13.7397C12.1995 13.734 12.1995 13.7283 12.1995 13.7226C12.1995 13.7169 12.1995 13.7111 12.1995 13.7054C12.1995 13.6997 12.1995 13.6939 12.1995 13.6882C12.1995 13.6824 12.1995 13.6767 12.1995 13.6709C12.1995 13.6652 12.1995 13.6594 12.1995 13.6536C12.1995 13.6479 12.1995 13.6421 12.1995 13.6363C12.1995 13.6306 12.1995 13.6248 12.1995 13.619C12.1995 13.6132 12.1995 13.6074 12.1995 13.6016C12.1995 13.5958 12.1995 13.59 12.1995 13.5842C12.1995 13.5784 12.1995 13.5726 12.1995 13.5668C12.1995 13.561 12.1995 13.5552 12.1995 13.5493C12.1995 13.5435 12.1995 13.5377 12.1995 13.5318C12.1995 13.526 12.1995 13.5202 12.1995 13.5143C12.1995 13.5085 12.1995 13.5026 12.1995 13.4968C12.1995 13.4909 12.1995 13.4851 12.1995 13.4792C12.1995 13.4733 12.1995 13.4675 12.1995 13.4616C12.1995 13.4557 12.1995 13.4498 12.1995 13.444C12.1995 13.4381 12.1995 13.4322 12.1995 13.4263C12.1995 13.4204 12.1995 13.4145 12.1995 13.4086C12.1995 13.4027 12.1995 13.3968 12.1995 13.3909C12.1995 13.385 12.1995 13.3791 12.1995 13.3731C12.1995 13.3672 12.1995 13.3613 12.1995 13.3554C12.1995 13.3494 12.1995 13.3435 12.1995 13.3376C12.1995 13.3316 12.1995 13.3257 12.1995 13.3197C12.1995 13.3138 12.1995 13.3078 12.1995 13.3019C12.1995 13.2959 12.1995 13.29 12.1995 13.284C12.1995 13.278 12.1995 13.2721 12.1995 13.2661C12.1995 13.2601 12.1995 13.2541 12.1995 13.2482C12.1995 13.2422 12.1995 13.2362 12.1995 13.2302C12.1995 13.2242 12.1995 13.2182 12.1995 13.2122C12.1995 13.2062 12.1995 13.2002 12.1995 13.1942C12.1995 13.1882 12.1995 13.1822 12.1995 13.1761C12.1995 13.1701 12.1995 13.1641 12.1995 13.1581C12.1995 13.1521 12.1995 13.146 12.1995 13.14C12.1995 13.1339 12.1995 13.1279 12.1995 13.1219C12.1995 13.1158 12.1995 13.1098 12.1995 13.1037C12.1995 13.0977 12.1995 13.0916 12.1995 13.0855C12.1995 13.0795 12.1995 13.0734 12.1995 13.0674C12.1995 13.0613 12.1995 13.0552 12.1995 13.0491C12.1995 13.0431 12.1995 13.037 12.1995 13.0309C12.1995 13.0248 12.1995 13.0187 12.1995 13.0126C12.1995 13.0065 12.1995 13.0004 12.1995 12.9943C12.1995 12.9882 12.1995 12.9821 12.1995 12.976C12.1995 12.9699 12.1995 12.9638 12.1995 12.9577C12.1995 12.9515 12.1995 12.9454 12.1995 12.9393C12.1995 12.9332 12.1995 12.927 12.1995 12.9209C12.1995 12.9148 12.1995 12.9086 12.1995 12.9025C12.1995 12.8963 12.1995 12.8902 12.1995 12.884C12.1995 12.8779 12.1995 12.8717 12.1995 12.8656C12.1995 12.8594 12.1995 12.8533 12.1995 12.8471C12.1995 12.8409 12.1995 12.8348 12.1995 12.8286C12.1995 12.8224 12.1995 12.8162 12.1995 12.8101C12.1995 12.8039 12.1995 12.7977 12.1995 12.7915C12.1995 12.7853 12.1995 12.7791 12.1995 12.7729C12.1995 12.7667 12.1995 12.7605 12.1995 12.7543C12.1995 12.7481 12.1995 12.7419 12.1995 12.7357C12.1995 12.7295 12.1995 12.7233 12.1995 12.7171C12.1995 12.7108 12.1995 12.7046 12.1995 12.6984C12.1995 12.6922 12.1995 12.6859 12.1995 12.6797C12.1995 12.6735 12.1995 12.6672 12.1995 12.661C12.1995 12.6548 12.1995 12.6485 12.1995 12.6423C12.1995 12.636 12.1995 12.6298 12.1995 12.6235C12.1995 12.6173 12.1995 12.611 12.1995 12.6047C12.1995 12.5985 12.1995 12.5922 12.1995 12.5859C12.1995 12.5797 12.1995 12.5734 12.1995 12.5671C12.1995 12.5609 12.1995 12.5546 12.1995 12.5483C12.1995 12.542 12.1995 12.5357 12.1995 12.5294C12.1995 12.5232 12.1995 12.5169 12.1995 12.5106C12.1995 12.5043 12.1995 12.498 12.1995 12.4917C12.1995 12.4854 12.1995 12.4791 12.1995 12.4727C12.1995 12.4664 12.1995 12.4601 12.1995 12.4538C12.1995 12.4475 12.1995 12.4412 12.1995 12.4349C12.1995 12.4285 12.1995 12.4222 12.1995 12.4159C12.1995 12.4096 12.1995 12.4032 12.1995 12.3969C12.1995 12.3905 12.1995 12.3842 12.1995 12.3779C12.1995 12.3715 12.1995 12.3652 12.1995 12.3588C12.1995 12.3525 12.1995 12.3461 12.1995 12.3398C12.1995 12.3334 12.1995 12.3271 12.1995 12.3207C12.1995 12.3144 12.1995 12.308 12.1995 12.3016C12.1995 12.2953 12.1995 12.2889 12.1995 12.2825C12.1995 12.2761 12.1995 12.2698 12.1995 12.2634C12.1995 12.257 12.1995 12.2506 12.1995 12.2442C12.1995 12.2379 12.1995 12.2315 12.1995 12.2251C12.1995 12.2187 12.1995 12.2123 12.1995 12.2059C12.1995 12.1995 12.1995 12.1931 12.1995 12.1867C12.1995 12.1803 12.1995 12.1739 12.1995 12.1675C12.1995 12.1611 12.1995 12.1547 12.1995 12.1482C12.1995 12.1418 12.1995 12.1354 12.1995 12.129C12.1995 12.1226 12.1995 12.1162 12.1995 12.1097C12.1995 12.1033 12.1995 12.0969 12.1995 12.0904C12.1995 12.084 12.1995 12.0776 12.1995 12.0711C12.1995 12.0647 12.1995 12.0583 12.1995 12.0518C12.1995 12.0454 12.1995 12.0389 12.1995 12.0325C12.1995 12.026 12.1995 12.0196 12.1995 12.0131C12.1995 12.0067 12.1995 12.0002 12.1995 11.9938C12.1995 11.9873 12.1995 11.9809 12.1995 11.9744C12.1995 11.9679 12.1995 11.9615 12.1995 11.955C12.1995 11.9485 12.1995 11.9421 12.1995 11.9356C12.1995 11.9291 12.1995 11.9226 12.1995 11.9161C12.1995 11.9097 12.1995 11.9032 12.1995 11.8967C12.1995 11.8902 12.1995 11.8837 12.1995 11.8772C12.1995 11.8708 12.1995 11.8643 12.1995 11.8578C12.1995 11.8513 12.1995 11.8448 12.1995 11.8383C12.1995 11.8318 12.1995 11.8253 12.1995 11.8188C12.1995 11.8123 12.1995 11.8058 12.1995 11.7993C12.1995 11.7928 12.1995 11.7862 12.1995 11.7797C12.1995 11.7732 12.1995 11.7667 12.1995 11.7602C12.1995 11.7537 12.1995 11.7471 12.1995 11.7406C12.1995 11.7341 12.1995 11.7276 12.1995 11.721C12.1995 11.7145 12.1995 11.708 12.1995 11.7015C12.1995 11.6949 12.1995 11.6884 12.1995 11.6819C12.1995 11.6753 12.1995 11.6688 12.1995 11.6622C12.1995 11.6557 12.1995 11.6492 12.1995 11.6426C12.1995 11.6361 12.1995 11.6295 12.1995 11.623C12.1995 11.6164 12.1995 11.6099 12.1995 11.6033C12.1995 11.5968 12.1995 11.5902 12.1995 11.5837C12.1995 11.5771 12.1995 11.5705 12.1995 11.564C12.1995 11.5574 12.1995 11.5508 12.1995 11.5443C12.1995 11.5377 12.1995 11.5311 12.1995 11.5246C12.1995 11.518 12.1995 11.5114 12.1995 11.5049C12.1995 11.4983 12.1995 11.4917 12.1995 11.4851C12.1995 11.4786 12.1995 11.472 12.1995 11.4654C12.1995 11.4588 12.1995 11.4522 12.1995 11.4456C12.1995 11.4391 12.1995 11.4325 12.1995 11.4259C12.1995 11.4193 12.1995 11.4127 12.1995 11.4061C12.1995 11.3995 12.1995 11.3929 12.1995 11.3863C12.1995 11.3797 12.1995 11.3731 12.1995 11.3665C12.1995 11.3599 12.1995 11.3533 12.1995 11.3467C12.1995 11.3401 12.1995 11.3335 12.1995 11.3269C12.1995 11.3203 12.1995 11.3137 12.1995 11.3071C12.1995 11.3005 12.1995 11.2939 12.1995 11.2872C12.1995 11.2806 12.1995 11.274 12.1995 11.2674C12.1995 11.2608 12.1995 11.2542 12.1995 11.2475C12.1995 11.2409 12.1995 11.2343 12.1995 11.2277C12.1995 11.221 12.1995 11.2144 12.1995 11.2078C12.1995 11.2012 12.1995 11.1945 12.1995 11.1879C12.1995 11.1813 12.1995 11.1746 12.1995 11.168C12.1995 11.1614 12.1995 11.1547 12.1995 11.1481C12.1995 11.1415 12.1995 11.1348 12.1995 11.1282C12.1995 11.1215 12.1995 11.1149 12.1995 11.1083C12.1995 11.1016 12.1995 11.095 12.1995 11.0883C12.1995 11.0817 12.1995 11.075 12.1995 11.0684C12.1995 11.0617 12.1995 11.0551 12.1995 11.0484C12.1995 11.0418 12.1995 11.0351 12.1995 11.0285C12.1995 11.0218 12.1995 11.0152 12.1995 11.0085C12.1995 11.0019 12.1995 10.9952 12.1995 10.9886C12.1995 10.9819 12.1995 10.9752 12.1995 10.9686C12.1995 10.9619 12.1995 10.9552 12.1995 10.9486C12.1995 10.9419 12.1995 10.9353 12.1995 10.9286C12.1995 10.9219 12.1995 10.9153 12.1995 10.9086C12.1995 10.9019 12.1995 10.8952 12.1995 10.8886C12.1995 10.8819 12.1995 10.8752 12.1995 10.8686C12.1995 10.8619 12.1995 10.8552 12.1995 10.8485C12.1995 10.8419 12.1995 10.8352 12.1995 10.8285C12.1995 10.8218 12.1995 10.8151 12.1995 10.8085C12.1995 10.8018 12.1995 10.7951 12.1995 10.7884C12.1995 10.7817 12.1995 10.7751 12.1995 10.7684C12.1995 10.7617 12.1995 10.755 12.1995 10.7483C12.1995 10.7416 12.1995 10.735 12.1995 10.7283C12.1995 10.7216 12.1995 10.7149 12.1995 10.7082C12.1995 10.7015 12.1995 10.6948 12.1995 10.6881C12.1995 10.6814 12.1995 10.6747 12.1995 10.668C12.1995 10.6614 12.1995 10.6547 12.1995 10.648C12.1995 10.6413 12.1995 10.6346 12.1995 10.6279C12.1995 10.6212 12.1995 10.6145 12.1995 10.6078C12.1995 10.6011 12.1995 10.5944 12.1995 10.5877C12.1995 10.581 12.1995 10.5743 12.1995 10.5676C12.1995 10.5609 12.1995 10.5542 12.1995 10.5475C12.1995 10.5408 12.1995 10.5341 12.1995 10.5274C12.1995 10.5207 12.1995 10.514 12.1995 10.5073C12.1995 10.5006 12.1995 10.4939 12.1995 10.4871C12.1995 10.4804 12.1995 10.4737 12.1995 10.467C12.1995 10.4603 12.1995 10.4536 12.1995 10.4469C12.1995 10.4402 12.1995 10.4335 12.1995 10.4268C12.1995 10.4201 12.1995 10.4134 12.1995 10.4066C12.1995 10.3999 12.1995 10.3932 12.1995 10.3865C12.1995 10.3798 12.1995 10.3731 12.1995 10.3664C12.1995 10.3597 12.1995 10.3529 12.1995 10.3462C12.1995 10.3395 12.1995 10.3328 12.1995 10.3261C12.1995 10.3194 12.1995 10.3127 12.1995 10.3059C12.1995 10.2992 12.1995 10.2925 12.1995 10.2858C12.1995 10.2791 12.1995 10.2724 12.1995 10.2656C12.1995 10.2589 12.1995 10.2522 12.1995 10.2455C12.1995 10.2388 12.1995 10.2321 12.1995 10.2253C12.1995 10.2186 12.1995 10.2119 12.1995 10.2052C12.1995 10.1985 12.1995 10.1917 12.1995 10.185C12.1995 10.1783 12.1995 10.1716 12.1995 10.1649C12.1995 10.1582 12.1995 10.1514 12.1995 10.1447C12.1995 10.138 12.1995 10.1313 12.1995 10.1246C12.1995 10.1178 12.1995 10.1111 12.1995 10.1044C12.1995 10.0977 12.1995 10.091 12.1995 10.0842C12.1995 10.0775 12.1995 10.0708 12.1995 10.0641C12.1995 10.0573 12.1995 10.0506 12.1995 10.0439C12.1995 10.0372 12.1995 10.0305 12.1995 10.0237C12.1995 10.017 12.1995 10.0103 12.1995 10.0036C12.1995 9.99686 12.1995 9.99014 12.1995 9.98342C12.1995 9.9767 12.1995 9.96998 12.1995 9.96326C12.1995 9.95654 12.1995 9.94982 12.1995 9.9431C12.1995 9.93638 12.1995 9.92966 12.1995 9.92294C12.1995 9.91622 12.1995 9.9095 12.1995 9.90278C12.1995 9.89606 12.1995 9.88934 12.1995 9.88262C12.1995 9.8759 12.1995 9.86918 12.1995 9.86246C12.1995 9.85574 12.1995 9.84902 12.1995 9.8423C12.1995 9.83559 12.1995 9.82887 12.1995 9.82215C12.1995 9.81543 12.1995 9.80871 12.1995 9.802C12.1995 9.79528 12.1995 9.78856 12.1995 9.78184C12.1995 9.77513 12.1995 9.76841 12.1995 9.76169C12.1995 9.75498 12.1995 9.74826 12.1995 9.74155C12.1995 9.73483 12.1995 9.72811 12.1995 9.7214C12.1995 9.71468 12.1995 9.70797 12.1995 9.70126C12.1995 9.69454 12.1995 9.68783 12.1995 9.68112C12.1995 9.6744 12.1995 9.66769 12.1995 9.66098C12.1995 9.65427 12.1995 9.64755 12.1995 9.64084C12.1995 9.63413 12.1995 9.62742 12.1995 9.62071C12.1995 9.614 12.1995 9.60729 12.1995 9.60058C12.1995 9.59387 12.1995 9.58716 12.1995 9.58046C12.1995 9.57375 12.1995 9.56704 12.1995 9.56033C12.1995 9.55363 12.1995 9.54692 12.1995 9.54022C12.1995 9.53351 12.1995 9.5268 12.1995 9.5201C12.1995 9.5134 12.1995 9.50669 12.1995 9.49999C12.1995 9.49329 12.1995 9.48658 12.1995 9.47988C12.1995 9.47318 12.1995 9.46648 12.1995 9.45978C12.1995 9.45308 12.1995 9.44638 12.1995 9.43968C12.1995 9.43298 12.1995 9.42629 12.1995 9.41959C12.1995 9.41289 12.1995 9.4062 12.1995 9.3995C12.1995 9.39281 12.1995 9.38611 12.1995 9.37942C12.1995 9.37272 12.1995 9.36603 12.1995 9.35934C12.1995 9.35265 12.1995 9.34596 12.1995 9.33927C12.1995 9.33258 12.1995 9.32589 12.1995 9.3192C12.1995 9.31251 12.1995 9.30582 12.1995 9.29914C12.1995 9.29245 12.1995 9.28577 12.1995 9.27908H11.9495ZM11.9495 16.7352C11.9495 16.8639 11.8976 16.9798 11.8047 17.0916C11.7104 17.205 11.5787 17.3083 11.4308 17.4081C11.3574 17.4576 11.2818 17.5051 11.2063 17.5521C11.1316 17.5988 11.0563 17.6454 10.9868 17.6914C10.852 17.7805 10.7186 17.8798 10.6431 17.9945L10.852 18.1319C10.8961 18.0648 10.9883 17.9901 11.1247 17.8999C11.1908 17.8562 11.2626 17.8117 11.3386 17.7642C11.4141 17.7172 11.4931 17.6676 11.5706 17.6153C11.7246 17.5115 11.8798 17.3924 11.997 17.2514C12.1155 17.1088 12.1995 16.9383 12.1995 16.7352H11.9495ZM10.6438 17.9935C10.6326 18.0102 10.6076 18.0323 10.5548 18.0533C10.5024 18.0741 10.4319 18.0902 10.3433 18.1008C10.1658 18.122 9.93697 18.1188 9.68169 18.1039C9.42714 18.089 9.15452 18.0629 8.88862 18.0402C8.62478 18.0176 8.36725 17.9984 8.15036 17.9984V18.2484C8.35528 18.2484 8.603 18.2667 8.86734 18.2893C9.12961 18.3117 9.40809 18.3383 9.66707 18.3534C9.92533 18.3686 10.1725 18.3729 10.3729 18.349C10.4732 18.337 10.5671 18.3174 10.6471 18.2856C10.7267 18.254 10.8019 18.2065 10.8513 18.1329L10.6438 17.9935ZM8.15036 17.9984C7.96114 17.9984 7.84394 17.9516 7.76249 17.885C7.67823 17.8161 7.61824 17.7147 7.56476 17.5793C7.50903 17.4381 7.47105 17.2917 7.41115 17.1153C7.35399 16.947 7.28144 16.7682 7.1656 16.6032L6.96101 16.7469C7.05674 16.8832 7.12019 17.036 7.17442 17.1957C7.22592 17.3474 7.27475 17.5255 7.33222 17.671C7.39194 17.8223 7.47153 17.97 7.60423 18.0786C7.73974 18.1894 7.91688 18.2484 8.15036 18.2484V17.9984ZM7.16581 16.6035C7.04192 16.426 6.88376 16.3371 6.71136 16.3306C6.54581 16.3244 6.38808 16.3949 6.25771 16.4912C6.12617 16.5884 6.01152 16.7197 5.92926 16.8555C5.8483 16.9893 5.79106 17.1402 5.79106 17.2776H6.04106C6.04106 17.2034 6.07467 17.0981 6.14311 16.985C6.21026 16.8741 6.30358 16.7682 6.40628 16.6923C6.51015 16.6155 6.61295 16.5771 6.70194 16.5804C6.78407 16.5835 6.87445 16.6228 6.9608 16.7466L7.16581 16.6035ZM5.79106 17.2776C5.79106 17.3308 5.77653 17.3493 5.76597 17.3587C5.75038 17.3726 5.71729 17.3888 5.64968 17.397C5.51054 17.4138 5.31109 17.3895 5.05325 17.3642L5.02878 17.613C5.26736 17.6364 5.50543 17.6662 5.67971 17.6452C5.76881 17.6344 5.8614 17.6086 5.93232 17.5453C6.00826 17.4777 6.04106 17.3839 6.04106 17.2776H5.79106ZM4.93541 17.5555C5.59264 18.5931 6.16408 19.8054 6.46214 20.7852L6.70132 20.7125C6.39565 19.7077 5.81374 18.475 5.14662 17.4217L4.93541 17.5555ZM6.46204 20.7849C6.70765 21.5999 7.12877 22.3871 7.52138 23.081C7.91886 23.7834 8.27863 24.3772 8.4249 24.8289L8.66274 24.7519C8.50629 24.2688 8.12623 23.6423 7.73896 22.9579C7.34682 22.2648 6.93826 21.4987 6.70141 20.7128L6.46204 20.7849ZM8.42481 24.8286C8.57797 25.3056 8.73062 25.7425 8.77043 26.0743C8.79033 26.2401 8.77871 26.3579 8.74137 26.4345C8.70925 26.5004 8.6509 26.5509 8.52646 26.5683L8.56118 26.8159C8.75387 26.7889 8.89171 26.6966 8.96609 26.544C9.03523 26.4022 9.04041 26.2258 9.01865 26.0445C8.97514 25.6819 8.81067 25.2125 8.66284 24.7521L8.42481 24.8286ZM8.52613 26.5684C8.35199 26.5933 8.20339 26.6516 8.09858 26.7577C7.99121 26.8664 7.94461 27.0101 7.94674 27.1734C7.95084 27.4877 8.1353 27.9066 8.46762 28.421L8.67761 28.2854C8.34688 27.7734 8.19981 27.4072 8.19672 27.1702C8.19525 27.0579 8.22613 26.9843 8.27643 26.9334C8.32928 26.8799 8.41852 26.8363 8.56152 26.8158L8.52613 26.5684ZM8.46775 28.4212C8.78205 28.9056 8.80311 29.2863 8.81413 29.572C8.81939 29.7085 8.82136 29.8553 8.86945 29.9708C8.8958 30.034 8.93628 30.0905 8.99696 30.1354C9.05617 30.1792 9.12838 30.2073 9.21194 30.2247L9.26287 29.98C9.20292 29.9675 9.16749 29.9506 9.14561 29.9344C9.12521 29.9193 9.11117 29.9009 9.10023 29.8747C9.07372 29.811 9.07002 29.7201 9.06394 29.5624C9.05227 29.2595 9.02797 28.8253 8.67747 28.2852L8.46775 28.4212ZM9.21154 30.2246C9.34072 30.252 9.41999 30.291 9.47423 30.3304C9.52909 30.3702 9.56511 30.4148 9.60561 30.4681C9.64394 30.5186 9.69303 30.5872 9.76666 30.6404C9.84462 30.6968 9.94159 30.7312 10.073 30.7406L10.0908 30.4912C9.99629 30.4845 9.94636 30.4618 9.91316 30.4378C9.87564 30.4107 9.84933 30.3756 9.80466 30.3169C9.76217 30.2609 9.70763 30.1908 9.62102 30.128C9.53379 30.0647 9.42068 30.0133 9.26326 29.98L9.21154 30.2246ZM10.0738 30.7407C10.26 30.7528 10.4305 30.8519 10.5983 31.0085C10.7667 31.1658 10.9184 31.3675 11.0716 31.5667L11.2698 31.4143C11.1212 31.2211 10.9557 31.0003 10.7689 30.8258C10.5813 30.6507 10.3584 30.5087 10.0901 30.4912L10.0738 30.7407ZM11.0713 31.5663C11.4263 32.0315 12.2252 32.0202 12.6009 31.4703L12.3945 31.3293C12.1089 31.7473 11.5153 31.736 11.2701 31.4147L11.0713 31.5663ZM12.6006 31.4708C12.7387 31.2705 13.0377 31.1209 13.4618 31.0244C13.8793 30.9293 14.3898 30.8918 14.9134 30.8918V30.6418C14.3806 30.6418 13.8494 30.6797 13.4063 30.7806C12.9697 30.88 12.5891 31.047 12.3948 31.3289L12.6006 31.4708ZM14.9134 30.8918C15.1864 30.8918 15.3854 30.8625 15.5466 30.8099C15.7091 30.7569 15.8259 30.6824 15.9349 30.6029C16.1454 30.4496 16.3321 30.2745 16.8209 30.1307L16.7504 29.8909C16.2133 30.0488 15.9926 30.2516 15.7877 30.4009C15.6891 30.4728 15.5964 30.5307 15.469 30.5722C15.3403 30.6143 15.1692 30.6418 14.9134 30.6418V30.8918ZM16.8207 30.1308C17.8286 29.837 19.0391 29.809 19.8846 30.1019L19.9665 29.8656C19.0601 29.5517 17.7947 29.5864 16.7507 29.8908L16.8207 30.1308ZM19.8851 30.102C20.809 30.4184 21.5139 30.1286 21.9554 29.8487L21.8216 29.6375C21.4187 29.893 20.7939 30.149 19.966 29.8655L19.8851 30.102ZM21.9564 29.8481C22.0253 29.8035 22.1197 29.7924 22.2465 29.8072C22.3772 29.8224 22.5034 29.8585 22.6487 29.8875C22.7785 29.9134 22.9341 29.936 23.0644 29.8836C23.2157 29.8228 23.2942 29.6819 23.3121 29.4813L23.0631 29.4591C23.05 29.6059 23.0034 29.6387 22.9712 29.6516C22.9181 29.673 22.832 29.6691 22.6976 29.6423C22.5787 29.6186 22.4182 29.5755 22.2754 29.5589C22.1287 29.5418 21.9628 29.5462 21.8207 29.6381L21.9564 29.8481ZM23.3121 29.4808C23.3245 29.3351 23.376 29.244 23.4481 29.1815C23.524 29.1158 23.6349 29.0714 23.7825 29.0448C23.9296 29.0184 24.1017 29.0115 24.2907 29.0119C24.3847 29.012 24.4813 29.014 24.58 29.0159C24.6783 29.0178 24.7787 29.0197 24.8783 29.0197V28.7697C24.7815 28.7697 24.6835 28.7678 24.5849 28.7659C24.4867 28.764 24.3878 28.762 24.2911 28.7619C24.0986 28.7615 23.9082 28.7682 23.7383 28.7988C23.5689 28.8292 23.4082 28.8853 23.2844 28.9926C23.1567 29.1032 23.0802 29.2578 23.063 29.4595L23.3121 29.4808ZM24.8783 29.0197C25.1013 29.0197 25.3869 28.9335 25.7031 28.7936C26.0228 28.6523 26.387 28.45 26.7716 28.2046C27.5408 27.7138 28.3999 27.0454 29.1603 26.3316L28.9892 26.1493C28.2393 26.8533 27.3924 27.512 26.6371 27.9939C26.2594 28.2348 25.9066 28.4303 25.602 28.565C25.2938 28.7013 25.0475 28.7697 24.8783 28.7697V29.0197ZM29.1603 26.3316C30.6791 24.9064 33.1914 21.788 34.0441 20.3595L33.8294 20.2313C32.9896 21.6384 30.4924 24.7388 28.9892 26.1493L29.1603 26.3316ZM34.0442 20.3594C34.8772 18.9617 36.251 17.7663 36.9497 17.1293L36.7813 16.9445C36.0912 17.5736 34.6854 18.7952 33.8294 20.2314L34.0442 20.3594ZM36.95 17.129C37.099 16.9925 37.2233 16.7797 37.3289 16.5318C37.4356 16.2813 37.528 15.9833 37.6078 15.6653C37.7675 15.0292 37.8792 14.3018 37.9511 13.691L37.7028 13.6618C37.6316 14.2673 37.5213 14.983 37.3653 15.6045C37.2873 15.9153 37.1986 16.1997 37.0989 16.4338C36.9981 16.6703 36.8908 16.8442 36.781 16.9448L36.95 17.129ZM37.8289 13.5514C37.4655 13.5456 37.08 13.5747 36.787 13.6049C36.6401 13.62 36.5157 13.6355 36.4278 13.6473C36.3839 13.6531 36.3491 13.6581 36.3252 13.6615C36.3133 13.6633 36.3041 13.6646 36.2978 13.6656C36.2946 13.6661 36.2922 13.6664 36.2906 13.6667C36.2898 13.6668 36.2891 13.6669 36.2887 13.667C36.2885 13.667 36.2883 13.667 36.2882 13.6671C36.2881 13.6671 36.2881 13.6671 36.288 13.6671C36.288 13.6671 36.288 13.6671 36.288 13.6671C36.288 13.6671 36.288 13.6671 36.3072 13.7906C36.3264 13.9141 36.3264 13.9141 36.3264 13.9141C36.3264 13.9141 36.3264 13.9141 36.3264 13.9141C36.3264 13.9141 36.3264 13.9141 36.3265 13.9141C36.3265 13.9141 36.3267 13.9141 36.3268 13.914C36.3272 13.914 36.3277 13.9139 36.3284 13.9138C36.3299 13.9136 36.3321 13.9132 36.335 13.9128C36.3409 13.9119 36.3497 13.9106 36.3612 13.9089C36.3842 13.9056 36.4181 13.9008 36.461 13.8951C36.5467 13.8836 36.6686 13.8684 36.8126 13.8536C37.1012 13.8238 37.4756 13.7958 37.825 13.8014L37.8289 13.5514ZM29.885 20.5361C29.885 20.5719 29.8757 20.581 29.8737 20.5831C29.8687 20.5881 29.8539 20.5987 29.8144 20.6058C29.7301 20.6208 29.6075 20.6089 29.449 20.5929C29.3016 20.5779 29.1277 20.5604 28.9745 20.5815C28.8178 20.603 28.6569 20.6689 28.5711 20.8414L28.7949 20.9527C28.8291 20.8841 28.894 20.8449 29.0086 20.8291C29.1267 20.8129 29.2696 20.826 29.4239 20.8416C29.5671 20.8561 29.7314 20.8745 29.8583 20.8519C29.9245 20.8401 29.9965 20.8148 30.0519 20.7584C30.1102 20.6991 30.135 20.6213 30.135 20.5361H29.885ZM28.5713 20.8411C28.4484 21.0862 28.3261 21.3603 28.2347 21.5723C28.189 21.6785 28.1508 21.7695 28.1241 21.834C28.1108 21.8662 28.1003 21.8919 28.0931 21.9095C28.0895 21.9183 28.0867 21.9251 28.0849 21.9297C28.0839 21.932 28.0832 21.9338 28.0827 21.935C28.0825 21.9356 28.0823 21.936 28.0822 21.9363C28.0821 21.9365 28.0821 21.9366 28.082 21.9367C28.082 21.9368 28.082 21.9368 28.082 21.9368C28.082 21.9368 28.082 21.9368 28.082 21.9368C28.082 21.9368 28.082 21.9369 28.1979 21.9835C28.3139 22.0302 28.3139 22.0302 28.3139 22.0302C28.3139 22.0302 28.3139 22.0302 28.3139 22.0302C28.3139 22.0302 28.3139 22.0302 28.3139 22.0301C28.3139 22.0301 28.314 22.03 28.314 22.0298C28.3141 22.0296 28.3143 22.0291 28.3145 22.0286C28.315 22.0275 28.3157 22.0258 28.3166 22.0236C28.3184 22.0191 28.3211 22.0125 28.3246 22.0039C28.3316 21.9867 28.3419 21.9615 28.3551 21.9297C28.3815 21.866 28.4191 21.7762 28.4643 21.6712C28.5549 21.461 28.6751 21.1919 28.7948 20.9531L28.5713 20.8411ZM28.2157 21.8598L27.3703 21.7386L27.3348 21.9861L28.1802 22.1073L28.2157 21.8598ZM27.4543 21.7897L26.2477 20.0998L26.0442 20.2451L27.2508 21.935L27.4543 21.7897ZM26.146 20.1725C26.2471 20.246 26.2471 20.246 26.2471 20.246C26.2471 20.246 26.2471 20.246 26.2471 20.2459C26.2471 20.2459 26.2472 20.2458 26.2472 20.2457C26.2474 20.2456 26.2475 20.2453 26.2478 20.245C26.2483 20.2443 26.249 20.2434 26.2499 20.2421C26.2517 20.2395 26.2545 20.2358 26.2581 20.2308C26.2653 20.2209 26.2758 20.2064 26.2893 20.1877C26.3162 20.1503 26.355 20.0965 26.4022 20.0303C26.4967 19.8981 26.6252 19.7167 26.7614 19.52C27.0314 19.1301 27.3388 18.6697 27.4644 18.4181L27.2407 18.3064C27.1247 18.5388 26.8288 18.9835 26.5559 19.3777C26.4206 19.5731 26.2928 19.7535 26.1988 19.885C26.1518 19.9508 26.1133 20.0043 26.0865 20.0414C26.0732 20.0599 26.0627 20.0743 26.0557 20.0841C26.0521 20.089 26.0494 20.0927 26.0476 20.0952C26.0467 20.0964 26.046 20.0974 26.0456 20.098C26.0453 20.0983 26.0452 20.0986 26.0451 20.0987C26.045 20.0988 26.045 20.0988 26.0449 20.0989C26.0449 20.0989 26.0449 20.0989 26.0449 20.0989C26.0449 20.0989 26.0449 20.0989 26.146 20.1725ZM27.4643 18.4183C27.5111 18.3248 27.6347 18.196 27.8166 18.0587C27.9942 17.9246 28.213 17.7933 28.4319 17.6911C28.6524 17.5882 28.8645 17.519 29.0297 17.5021C29.2041 17.4843 29.2714 17.5273 29.2945 17.5734L29.518 17.4613C29.4199 17.2659 29.2 17.2334 29.0043 17.2534C28.7995 17.2743 28.5586 17.3561 28.3262 17.4646C28.0922 17.5738 27.8582 17.7141 27.666 17.8591C27.478 18.001 27.3148 18.1586 27.2408 18.3063L27.4643 18.4183ZM29.2943 17.573C29.3644 17.7138 29.4907 17.8543 29.6277 17.9875C29.7656 18.1217 29.9285 18.2614 30.0761 18.3942C30.2268 18.5297 30.3634 18.6595 30.4621 18.7827C30.5633 18.9092 30.6082 19.0088 30.6082 19.0851H30.8582C30.8582 18.9204 30.7672 18.7638 30.6572 18.6264C30.5445 18.4858 30.3944 18.3442 30.2433 18.2083C30.0892 18.0697 29.9353 17.938 29.8019 17.8083C29.6676 17.6777 29.5681 17.562 29.5182 17.4617L29.2943 17.573ZM30.6082 19.0856C30.6085 19.176 30.5748 19.2749 30.5119 19.3872C30.449 19.4996 30.3638 19.6137 30.2722 19.736C30.1829 19.8552 30.087 19.9828 30.0143 20.1121C29.9415 20.2415 29.885 20.3844 29.885 20.5361H30.135C30.135 20.4458 30.169 20.3469 30.2322 20.2346C30.2954 20.1223 30.3806 20.0083 30.4723 19.8859C30.5617 19.7666 30.6575 19.6389 30.73 19.5094C30.8026 19.3798 30.8588 19.2367 30.8582 19.0847L30.6082 19.0856Z" fill="#868686"/>
</g>
<defs>
<filter id="filter0_d_877_3215" x="0.798828" y="0.72168" width="41.168" height="37.1787" filterUnits="userSpaceOnUse" color-interpolation-filters="sRGB">
<feFlood flood-opacity="0" result="BackgroundImageFix"/>
<feColorMatrix in="SourceAlpha" type="matrix" values="0 0 0 0 0 0 0 0 0 0 0 0 0 0 0 0 0 0 127 0" result="hardAlpha"/>
<feOffset dy="2"/>
<feGaussianBlur stdDeviation="2"/>
<feColorMatrix type="matrix" values="0 0 0 0 0 0 0 0 0 0 0 0 0 0 0 0 0 0 0.01 0"/>
<feBlend mode="normal" in2="BackgroundImageFix" result="effect1_dropShadow_877_3215"/>
<feBlend mode="normal" in="SourceGraphic" in2="effect1_dropShadow_877_3215" result="shape"/>
</filter>
</defs>
</svg>
