<svg width="24" height="40" viewBox="0 0 24 40" fill="none" xmlns="http://www.w3.org/2000/svg">
<g filter="url(#filter0_d_877_3272)">
<path fill-rule="evenodd" clip-rule="evenodd" d="M15.5167 6.28948C14.9531 6.21014 13.5005 5.16378 13.5005 4.75832C13.5005 4.35548 14.2281 3.7111 12.936 3.54979C11.6475 3.3876 11.4852 2.90454 11.2444 2.66301C11.0027 2.42147 9.9532 3.14607 9.63127 3.71023C9.30935 4.27351 8.98655 3.54892 8.26069 3.95176C7.53482 4.35461 6.81071 3.3876 6.48878 3.95176C6.16598 4.51505 5.35811 3.62914 4.95418 4.1122C4.8015 4.29793 4.59997 4.44703 4.39844 4.54644C4.7509 4.94056 5.13564 5.32684 5.13564 5.62243C5.13564 6.14038 6.17034 6.52927 6.17034 7.17452C6.17034 7.82152 7.46416 8.33772 7.85326 8.07874C8.24149 7.82152 9.14795 7.56167 9.27707 8.46677C9.40444 9.37273 9.92354 9.37273 9.92354 10.0171C9.92354 10.6641 8.62885 10.2778 8.37061 10.9239C8.11237 11.5701 10.57 12.3461 10.57 12.8632C10.57 13.3794 11.3465 14.0281 11.6047 14.6716C11.8638 15.3177 13.0294 16.0964 13.2859 16.8698C13.545 17.6459 14.5806 18.0339 14.9697 18.4211C15.3562 18.8091 15.4862 19.715 15.3562 20.4911C15.2279 21.2654 15.2262 22.6875 16.0026 23.8516C16.7791 25.0157 15.097 25.5336 14.5806 26.1789C14.0632 26.825 14.3215 27.7292 12.7685 27.3429C11.2165 26.9549 13.0294 28.6352 12.7685 29.1514C12.5103 29.6702 10.4409 28.6352 10.4409 29.1514C10.4409 29.4627 9.7412 29.8664 9.18284 30.1393C9.40531 30.4297 9.72026 30.5927 10.0867 30.8229C10.5718 31.1238 9.48558 31.6382 9.51524 32.6017C9.54403 33.5687 10.2699 33.8111 10.5395 33.417C10.8125 33.0238 11.9301 32.1501 12.3829 31.9992C12.8357 31.8484 12.3829 31.1857 12.8654 31.2144C13.3487 31.2432 13.1978 30.5195 13.4098 30.128C13.6218 29.7382 13.9524 29.8856 14.6774 29.9178C15.4033 29.9475 16.4275 29.2534 17.4561 28.589C18.4821 27.9272 18.6635 27.7763 19.0544 25.8754C19.4496 23.9728 18.6016 21.7118 18.5728 21.1355C18.544 20.5626 17.1534 17.9066 16.6404 17.938C16.1256 17.9685 13.7727 15.5541 13.3487 15.1608C12.9282 14.7684 13.0477 14.1057 12.4431 13.5904C11.8403 13.0786 11.7792 11.7506 11.9301 10.8158C12.0837 9.88021 13.4098 9.66745 13.381 9.03267C13.3513 8.39963 13.4996 7.85727 14.1635 7.82762C14.8283 7.79623 15.4626 7.253 15.7645 6.77081C15.8081 6.6993 15.8692 6.65571 15.9372 6.6217C15.7671 6.42987 15.6205 6.30518 15.5167 6.28948Z" fill="white"/>
<path fill-rule="evenodd" clip-rule="evenodd" d="M15.5167 6.28948C14.9531 6.21014 13.5005 5.16378 13.5005 4.75832C13.5005 4.35548 14.2281 3.7111 12.936 3.54979C11.6475 3.3876 11.4852 2.90454 11.2444 2.66301C11.0027 2.42147 9.9532 3.14607 9.63127 3.71023C9.30935 4.27351 8.98655 3.54892 8.26069 3.95176C7.53482 4.35461 6.81071 3.3876 6.48878 3.95176C6.16598 4.51505 5.35811 3.62914 4.95418 4.1122C4.8015 4.29793 4.59997 4.44703 4.39844 4.54644C4.7509 4.94056 5.13564 5.32684 5.13564 5.62243C5.13564 6.14038 6.17034 6.52927 6.17034 7.17452C6.17034 7.82152 7.46416 8.33772 7.85326 8.07874C8.24149 7.82152 9.14795 7.56167 9.27707 8.46677C9.40444 9.37273 9.92354 9.37273 9.92354 10.0171C9.92354 10.6641 8.62885 10.2778 8.37061 10.9239C8.11237 11.5701 10.57 12.3461 10.57 12.8632C10.57 13.3794 11.3465 14.0281 11.6047 14.6716C11.8638 15.3177 13.0294 16.0964 13.2859 16.8698C13.545 17.6459 14.5806 18.0339 14.9697 18.4211C15.3562 18.8091 15.4862 19.715 15.3562 20.4911C15.2279 21.2654 15.2262 22.6875 16.0026 23.8516C16.7791 25.0157 15.097 25.5336 14.5806 26.1789C14.0632 26.825 14.3215 27.7292 12.7685 27.3429C11.2165 26.9549 13.0294 28.6352 12.7685 29.1514C12.5103 29.6702 10.4409 28.6352 10.4409 29.1514C10.4409 29.4627 9.7412 29.8664 9.18284 30.1393C9.40531 30.4297 9.72026 30.5927 10.0867 30.8229C10.5718 31.1238 9.48558 31.6382 9.51524 32.6017C9.54403 33.5687 10.2699 33.8111 10.5395 33.417C10.8125 33.0238 11.9301 32.1501 12.3829 31.9992C12.8357 31.8484 12.3829 31.1857 12.8654 31.2144C13.3487 31.2432 13.1978 30.5195 13.4098 30.128C13.6218 29.7382 13.9524 29.8856 14.6774 29.9178C15.4033 29.9475 16.4275 29.2534 17.4561 28.589C18.4821 27.9272 18.6635 27.7763 19.0544 25.8754C19.4496 23.9728 18.6016 21.7118 18.5728 21.1355C18.544 20.5626 17.1534 17.9066 16.6404 17.938C16.1256 17.9685 13.7727 15.5541 13.3487 15.1608C12.9282 14.7684 13.0477 14.1057 12.4431 13.5904C11.8403 13.0786 11.7792 11.7506 11.9301 10.8158C12.0837 9.88021 13.4098 9.66745 13.381 9.03267C13.3513 8.39963 13.4996 7.85727 14.1635 7.82762C14.8283 7.79623 15.4626 7.253 15.7645 6.77081C15.8081 6.6993 15.8692 6.65571 15.9372 6.6217C15.7671 6.42987 15.6205 6.30518 15.5167 6.28948Z" stroke="#868686" stroke-width="0.25"/>
</g>
<defs>
<filter id="filter0_d_877_3272" x="0.195312" y="0.490234" width="23.0879" height="39.2324" filterUnits="userSpaceOnUse" color-interpolation-filters="sRGB">
<feFlood flood-opacity="0" result="BackgroundImageFix"/>
<feColorMatrix in="SourceAlpha" type="matrix" values="0 0 0 0 0 0 0 0 0 0 0 0 0 0 0 0 0 0 127 0" result="hardAlpha"/>
<feOffset dy="2"/>
<feGaussianBlur stdDeviation="2"/>
<feColorMatrix type="matrix" values="0 0 0 0 0 0 0 0 0 0 0 0 0 0 0 0 0 0 0.01 0"/>
<feBlend mode="normal" in2="BackgroundImageFix" result="effect1_dropShadow_877_3272"/>
<feBlend mode="normal" in="SourceGraphic" in2="effect1_dropShadow_877_3272" result="shape"/>
</filter>
</defs>
</svg>
