<svg width="23" height="15" viewBox="0 0 23 15" fill="none" xmlns="http://www.w3.org/2000/svg">
<g filter="url(#filter0_d_877_3263)">
<path fill-rule="evenodd" clip-rule="evenodd" d="M10.3933 7.14903C11.0564 6.84908 11.2998 7.57367 11.8407 8.2974C11.8791 8.34623 11.9026 8.38634 11.9305 8.43081C12.6756 8.31746 13.2418 8.10121 13.9982 8.01227C14.5435 7.94862 15.2527 8.0672 15.8102 8.19887C15.7099 8.02448 15.648 7.86665 15.7064 7.7533C15.887 7.39143 16.7926 7.8745 17.0962 8.17533C17.3972 8.4779 18.3638 8.59648 18.6657 8.2974C18.9676 7.99396 18.1824 7.69313 18.0018 7.39144C17.9102 7.23971 18.1501 6.92755 18.4118 6.64853C17.8866 6.35642 17.3448 5.93962 17.1564 6.00328C16.8842 6.09309 16.8842 4.7337 16.5213 4.7337C16.1592 4.7337 16.1592 4.4634 15.7971 4.4634C15.4333 4.4634 14.0758 4.4634 13.7138 4.7337C13.3517 5.00663 12.8981 4.10153 12.4461 4.10153C11.9916 4.10153 11.4489 3.64724 11.1776 3.28538C10.9063 2.92352 8.64234 3.46587 8.00721 3.01333C7.37208 2.56165 6.19604 2.19805 5.56092 2.2896C5.39777 2.31314 5.11772 2.45353 4.79492 2.6471C5.98492 3.3377 7.71407 3.1572 7.94614 4.4041C8.21921 5.85068 9.03319 5.27693 8.72958 6.51424C8.67113 6.75839 8.49839 6.99469 8.25847 7.21268C9.20069 7.28506 10.0845 7.28767 10.3933 7.14903Z" fill="white"/>
<path fill-rule="evenodd" clip-rule="evenodd" d="M10.3933 7.14903C11.0564 6.84908 11.2998 7.57367 11.8407 8.2974C11.8791 8.34623 11.9026 8.38634 11.9305 8.43081C12.6756 8.31746 13.2418 8.10121 13.9982 8.01227C14.5435 7.94862 15.2527 8.0672 15.8102 8.19887C15.7099 8.02448 15.648 7.86665 15.7064 7.7533C15.887 7.39143 16.7926 7.8745 17.0962 8.17533C17.3972 8.4779 18.3638 8.59648 18.6657 8.2974C18.9676 7.99396 18.1824 7.69313 18.0018 7.39144C17.9102 7.23971 18.1501 6.92755 18.4118 6.64853C17.8866 6.35642 17.3448 5.93962 17.1564 6.00328C16.8842 6.09309 16.8842 4.7337 16.5213 4.7337C16.1592 4.7337 16.1592 4.4634 15.7971 4.4634C15.4333 4.4634 14.0758 4.4634 13.7138 4.7337C13.3517 5.00663 12.8981 4.10153 12.4461 4.10153C11.9916 4.10153 11.4489 3.64724 11.1776 3.28538C10.9063 2.92352 8.64234 3.46587 8.00721 3.01333C7.37208 2.56165 6.19604 2.19805 5.56092 2.2896C5.39777 2.31314 5.11772 2.45353 4.79492 2.6471C5.98492 3.3377 7.71407 3.1572 7.94614 4.4041C8.21921 5.85068 9.03319 5.27693 8.72958 6.51424C8.67113 6.75839 8.49839 6.99469 8.25847 7.21268C9.20069 7.28506 10.0845 7.28767 10.3933 7.14903Z" stroke="#868686" stroke-width="0.25"/>
</g>
<defs>
<filter id="filter0_d_877_3263" x="0.548828" y="0.150391" width="22.3105" height="14.4453" filterUnits="userSpaceOnUse" color-interpolation-filters="sRGB">
<feFlood flood-opacity="0" result="BackgroundImageFix"/>
<feColorMatrix in="SourceAlpha" type="matrix" values="0 0 0 0 0 0 0 0 0 0 0 0 0 0 0 0 0 0 127 0" result="hardAlpha"/>
<feOffset dy="2"/>
<feGaussianBlur stdDeviation="2"/>
<feColorMatrix type="matrix" values="0 0 0 0 0 0 0 0 0 0 0 0 0 0 0 0 0 0 0.01 0"/>
<feBlend mode="normal" in2="BackgroundImageFix" result="effect1_dropShadow_877_3263"/>
<feBlend mode="normal" in="SourceGraphic" in2="effect1_dropShadow_877_3263" result="shape"/>
</filter>
</defs>
</svg>
