<svg width="15" height="13" viewBox="0 0 15 13" fill="none" xmlns="http://www.w3.org/2000/svg">
<g filter="url(#filter0_d_877_3228)">
<path fill-rule="evenodd" clip-rule="evenodd" d="M7.60535 6.12263C8.05901 5.80785 8.9646 4.99082 9.28216 5.12772C9.59885 5.26462 10.0063 4.99082 10.0063 4.81033C10.0063 4.62983 9.37202 4.04039 9.87018 3.86076C10.2122 3.73695 10.2959 3.33846 10.3177 3.09867C10.138 3.01322 9.95044 2.94957 9.80213 2.96265C9.38336 3.00014 6.82453 3.1911 6.82453 3.1911C6.82453 3.1911 6.05853 3.68899 5.67815 3.65062C5.3571 3.61661 5.67641 3.10477 4.64258 3.36811C5.1608 4.01161 5.22798 4.33424 6.27926 4.62983C7.45617 4.96205 6.18852 5.56544 7.1543 6.16884C7.24504 6.22639 7.31483 6.28394 7.38812 6.34062C7.47623 6.24121 7.55475 6.16186 7.60535 6.12263Z" fill="white"/>
<path fill-rule="evenodd" clip-rule="evenodd" d="M7.60535 6.12263C8.05901 5.80785 8.9646 4.99082 9.28216 5.12772C9.59885 5.26462 10.0063 4.99082 10.0063 4.81033C10.0063 4.62983 9.37202 4.04039 9.87018 3.86076C10.2122 3.73695 10.2959 3.33846 10.3177 3.09867C10.138 3.01322 9.95044 2.94957 9.80213 2.96265C9.38336 3.00014 6.82453 3.1911 6.82453 3.1911C6.82453 3.1911 6.05853 3.68899 5.67815 3.65062C5.3571 3.61661 5.67641 3.10477 4.64258 3.36811C5.1608 4.01161 5.22798 4.33424 6.27926 4.62983C7.45617 4.96205 6.18852 5.56544 7.1543 6.16884C7.24504 6.22639 7.31483 6.28394 7.38812 6.34062C7.47623 6.24121 7.55475 6.16186 7.60535 6.12263Z" stroke="#868686" stroke-width="0.25"/>
</g>
<defs>
<filter id="filter0_d_877_3228" x="0.423828" y="0.835938" width="14.0254" height="11.6748" filterUnits="userSpaceOnUse" color-interpolation-filters="sRGB">
<feFlood flood-opacity="0" result="BackgroundImageFix"/>
<feColorMatrix in="SourceAlpha" type="matrix" values="0 0 0 0 0 0 0 0 0 0 0 0 0 0 0 0 0 0 127 0" result="hardAlpha"/>
<feOffset dy="2"/>
<feGaussianBlur stdDeviation="2"/>
<feColorMatrix type="matrix" values="0 0 0 0 0 0 0 0 0 0 0 0 0 0 0 0 0 0 0.01 0"/>
<feBlend mode="normal" in2="BackgroundImageFix" result="effect1_dropShadow_877_3228"/>
<feBlend mode="normal" in="SourceGraphic" in2="effect1_dropShadow_877_3228" result="shape"/>
</filter>
</defs>
</svg>
