<svg width="22" height="16" viewBox="0 0 22 16" fill="none" xmlns="http://www.w3.org/2000/svg">
<g filter="url(#filter0_d_877_3422)">
<path fill-rule="evenodd" clip-rule="evenodd" d="M16.3806 4.51403C16.6301 3.97516 17.2853 3.8836 16.7968 3.17382C16.7052 3.25056 16.5726 3.32119 16.3518 3.3831C15.475 3.6255 13.5723 2.78144 12.4852 2.99071C11.3982 3.20173 9.1953 3.20173 8.68231 3.74496C8.16757 4.28906 6.87027 4.43904 7.44346 4.9221C8.01752 5.40604 7.44346 5.6467 7.86571 6.22045C8.28884 6.7942 8.49997 7.03573 9.0749 6.91366C9.64896 6.7942 10.1018 7.09415 9.49541 7.72807C9.48669 7.74202 9.48058 7.75161 9.47098 7.76207C10.4376 7.67226 11.5125 7.61035 11.6704 7.72807C11.912 7.90944 13.3612 9.05693 13.7241 8.9366C13.9457 8.86336 14.9368 8.96887 15.6722 9.06391C15.5867 8.83894 15.5937 8.62706 15.7455 8.49888C16.0186 8.27304 16.6066 8.27304 16.289 7.8205C15.9732 7.36708 15.8816 7.27727 15.8371 6.73316C15.7909 6.19168 15.6548 5.91962 15.701 5.55689C15.7455 5.19415 16.1084 5.10347 16.3806 4.51403ZM5.69074 5.97979C4.60544 6.28236 4.44404 7.78387 4.87677 7.7612C5.42029 7.72894 6.65827 6.70352 6.99154 6.37043C7.32306 6.03908 6.77866 5.67722 5.69074 5.97979ZM6.5972 5.10347C6.84061 4.65092 4.85408 4.84973 5.2999 5.25519C5.63229 5.55776 6.35728 5.55602 6.5972 5.10347Z" fill="white"/>
<path d="M16.3806 4.51403L16.2672 4.4615L16.2671 4.46162L16.3806 4.51403ZM16.7968 3.17382L16.8997 3.10295L16.8218 2.98977L16.7165 3.078L16.7968 3.17382ZM16.3518 3.3831L16.3851 3.50358L16.3856 3.50345L16.3518 3.3831ZM12.4852 2.99071L12.4616 2.86797L12.4614 2.868L12.4852 2.99071ZM8.68231 3.74496L8.77311 3.83086L8.77319 3.83078L8.68231 3.74496ZM7.44346 4.9221L7.52402 4.82653L7.52401 4.82652L7.44346 4.9221ZM7.86571 6.22045L7.76504 6.29454L7.76511 6.29464L7.86571 6.22045ZM9.0749 6.91366L9.04943 6.79128L9.04894 6.79138L9.0749 6.91366ZM9.49541 7.72807L9.40508 7.64167L9.39622 7.65093L9.38943 7.66179L9.49541 7.72807ZM9.47098 7.76207L9.37886 7.67758L9.15971 7.91653L9.48255 7.88654L9.47098 7.76207ZM11.6704 7.72807L11.7454 7.62809L11.7451 7.62785L11.6704 7.72807ZM13.7241 8.9366L13.6849 8.81792L13.6847 8.81796L13.7241 8.9366ZM15.6722 9.06391L15.6562 9.18788L15.8632 9.21463L15.7891 9.0195L15.6722 9.06391ZM15.7455 8.49888L15.6658 8.40255L15.6649 8.40337L15.7455 8.49888ZM16.289 7.8205L16.1865 7.89194L16.1867 7.8923L16.289 7.8205ZM15.8371 6.73316L15.9617 6.72298L15.9617 6.72253L15.8371 6.73316ZM15.701 5.55689L15.825 5.5727L15.8251 5.57211L15.701 5.55689ZM5.69074 5.97979L5.65725 5.85936L5.65718 5.85938L5.69074 5.97979ZM4.87677 7.7612L4.88331 7.88603L4.88417 7.88598L4.87677 7.7612ZM6.99154 6.37043L6.90317 6.28202L6.99154 6.37043ZM6.5972 5.10347L6.48711 5.04426L6.48676 5.04492L6.5972 5.10347ZM5.2999 5.25519L5.38404 5.16275L5.384 5.16272L5.2999 5.25519ZM16.4941 4.56655C16.5483 4.44951 16.6256 4.3541 16.7111 4.26228C16.7914 4.17606 16.8933 4.07942 16.9656 3.9829C17.0428 3.87975 17.1024 3.75775 17.0979 3.60327C17.0935 3.4528 17.0288 3.29048 16.8997 3.10295L16.6938 3.2447C16.809 3.41206 16.8456 3.52735 16.848 3.61051C16.8503 3.68966 16.8221 3.75731 16.7654 3.83313C16.7037 3.91558 16.6256 3.98722 16.5281 4.09191C16.4359 4.19099 16.3378 4.30911 16.2672 4.4615L16.4941 4.56655ZM16.7165 3.078C16.6426 3.13992 16.5278 3.20392 16.3181 3.26274L16.3856 3.50345C16.6174 3.43845 16.7678 3.3612 16.877 3.26965L16.7165 3.078ZM16.3185 3.26261C16.1245 3.31626 15.8619 3.31197 15.5469 3.27068C15.2343 3.2297 14.8856 3.15469 14.5236 3.07711C14.1639 3.00003 13.7919 2.9206 13.4412 2.87392C13.0915 2.82738 12.753 2.81186 12.4616 2.86797L12.5089 3.11346C12.7609 3.06493 13.068 3.07645 13.4082 3.12173C13.7474 3.16688 14.1097 3.24408 14.4712 3.32155C14.8304 3.39853 15.1897 3.476 15.5144 3.51856C15.8368 3.56082 16.1408 3.57113 16.3851 3.50358L16.3185 3.26261ZM12.4614 2.868C11.9222 2.97267 11.1174 3.02322 10.3529 3.11923C9.97591 3.16658 9.61166 3.22494 9.30753 3.30691C9.00905 3.38737 8.74523 3.49626 8.59143 3.65914L8.77319 3.83078C8.87588 3.72204 9.07979 3.62722 9.3726 3.5483C9.65976 3.47089 10.0104 3.41421 10.3841 3.36728C11.121 3.27473 11.9612 3.21977 12.5091 3.11342L12.4614 2.868ZM8.5915 3.65905C8.47716 3.77992 8.31426 3.88365 8.13242 3.98006C8.04229 4.02786 7.9499 4.07265 7.85877 4.11652C7.76848 4.16 7.6785 4.203 7.59696 4.24567C7.51563 4.28822 7.43841 4.33263 7.37381 4.3801C7.3104 4.42669 7.25018 4.48263 7.21294 4.55132C7.17273 4.62549 7.16211 4.70998 7.19331 4.79723C7.22222 4.87809 7.28315 4.95047 7.3629 5.01769L7.52401 4.82652C7.46047 4.77297 7.43655 4.735 7.42871 4.71306C7.42316 4.69753 7.42387 4.6868 7.43272 4.67047C7.44454 4.64867 7.4711 4.61884 7.52184 4.58156C7.57139 4.54515 7.63568 4.50756 7.71287 4.46717C7.78983 4.4269 7.87536 4.386 7.96722 4.34178C8.05823 4.29796 8.15462 4.25127 8.24954 4.20093C8.4378 4.10111 8.63008 3.98205 8.77311 3.83086L8.5915 3.65905ZM7.36289 5.01767C7.49469 5.12878 7.54964 5.21661 7.57376 5.28831C7.59826 5.36112 7.59634 5.43177 7.58711 5.52533C7.57829 5.61474 7.56152 5.73125 7.57838 5.85984C7.59588 5.99324 7.64799 6.1355 7.76504 6.29454L7.96639 6.14636C7.87231 6.01853 7.83783 5.91555 7.82626 5.82733C7.81406 5.73431 7.82575 5.65283 7.83591 5.54987C7.84565 5.45105 7.85322 5.33493 7.81071 5.20858C7.76782 5.08112 7.67925 4.95739 7.52402 4.82653L7.36289 5.01767ZM7.76511 6.29464C7.97323 6.57685 8.1449 6.80093 8.34466 6.9324C8.55754 7.0725 8.79059 7.10181 9.10086 7.03593L9.04894 6.79138C8.78428 6.84758 8.6243 6.81716 8.4821 6.72357C8.32679 6.62136 8.18132 6.4378 7.96631 6.14626L7.76511 6.29464ZM9.10037 7.03604C9.23139 7.00877 9.35057 7.0066 9.44511 7.02425C9.54125 7.04219 9.60009 7.07803 9.62942 7.11545C9.6547 7.14771 9.67096 7.1973 9.64629 7.2814C9.62028 7.37006 9.54955 7.49063 9.40508 7.64167L9.58574 7.81447C9.74444 7.64855 9.84449 7.49391 9.88618 7.35177C9.92921 7.20507 9.91008 7.06828 9.82619 6.96124C9.74636 6.85938 9.62226 6.803 9.49099 6.77849C9.35813 6.75369 9.20544 6.75882 9.04943 6.79128L9.10037 7.03604ZM9.38943 7.66179C9.38049 7.67608 9.37978 7.67658 9.37886 7.67758L9.56311 7.84657C9.58138 7.82664 9.59288 7.80796 9.6014 7.79434L9.38943 7.66179ZM9.48255 7.88654C9.96481 7.84173 10.4722 7.80407 10.8776 7.7922C11.0807 7.78625 11.2554 7.78686 11.3876 7.79581C11.4539 7.80029 11.5065 7.80669 11.5454 7.81456C11.5889 7.82337 11.5995 7.83112 11.5957 7.82829L11.7451 7.62785C11.7018 7.59559 11.6443 7.57952 11.595 7.56954C11.5411 7.55861 11.4763 7.55124 11.4045 7.54638C11.2605 7.53663 11.0765 7.53626 10.8703 7.5423C10.4572 7.5544 9.94382 7.59261 9.45942 7.63761L9.48255 7.88654ZM11.5953 7.82804C11.7132 7.91651 12.1406 8.25229 12.582 8.54919C12.8026 8.69756 13.0308 8.83906 13.229 8.93627C13.328 8.98478 13.4233 9.0242 13.5089 9.04734C13.5905 9.06936 13.6824 9.08212 13.7634 9.05525L13.6847 8.81796C13.675 8.82117 13.6423 8.82439 13.5741 8.80599C13.5101 8.7887 13.4308 8.75679 13.3391 8.71181C13.156 8.62203 12.9388 8.48789 12.7215 8.34175C12.2872 8.04965 11.8692 7.72099 11.7454 7.62809L11.5953 7.82804ZM13.7633 9.05529C13.7963 9.04438 13.8797 9.03613 14.0175 9.03723C14.1489 9.03827 14.3132 9.04731 14.4956 9.06176C14.86 9.09062 15.2893 9.14047 15.6562 9.18788L15.6882 8.93994C15.3197 8.89231 14.8857 8.84188 14.5153 8.81254C14.3303 8.79788 14.1593 8.78834 14.0195 8.78723C13.8862 8.78618 13.7626 8.7922 13.6849 8.81792L13.7633 9.05529ZM15.7891 9.0195C15.7104 8.81252 15.7358 8.67071 15.8261 8.59439L15.6649 8.40337C15.4516 8.58341 15.463 8.86537 15.5554 9.10832L15.7891 9.0195ZM15.8252 8.59521C15.8787 8.55095 15.9521 8.51447 16.0405 8.47573C16.1221 8.43993 16.2233 8.3997 16.303 8.35191C16.3829 8.30402 16.4726 8.23093 16.4986 8.11244C16.5245 7.99439 16.4783 7.87259 16.3913 7.74869L16.1867 7.8923C16.2585 7.99467 16.258 8.04258 16.2544 8.05887C16.2509 8.07471 16.236 8.1006 16.1745 8.1375C16.1127 8.17451 16.0356 8.20491 15.9401 8.24677C15.8513 8.28569 15.7489 8.33389 15.6658 8.40255L15.8252 8.59521ZM16.3916 7.74905C16.2291 7.51574 16.1368 7.39263 16.0748 7.25844C16.0158 7.13068 15.9834 6.98904 15.9617 6.72298L15.7125 6.74335C15.7353 7.02139 15.7709 7.19671 15.8478 7.36324C15.9218 7.52333 16.0331 7.67183 16.1865 7.89194L16.3916 7.74905ZM15.9617 6.72253C15.9379 6.44378 15.8905 6.23217 15.8572 6.05491C15.8237 5.87655 15.8045 5.7338 15.825 5.5727L15.577 5.54108C15.5513 5.74271 15.577 5.91736 15.6115 6.10108C15.6463 6.2859 15.6901 6.48106 15.7126 6.7438L15.9617 6.72253ZM15.8251 5.57211C15.8418 5.43582 15.9143 5.34987 16.0474 5.20509C16.1789 5.06216 16.3493 4.88005 16.4941 4.56643L16.2671 4.46162C16.1398 4.73744 15.9926 4.8954 15.8634 5.03586C15.7359 5.17446 15.6047 5.31523 15.5769 5.54167L15.8251 5.57211ZM5.65718 5.85938C5.06072 6.02567 4.72467 6.51931 4.59467 6.95686C4.52975 7.17539 4.51232 7.39184 4.54625 7.55973C4.56316 7.64338 4.5948 7.72465 4.64931 7.78634C4.70729 7.85196 4.78801 7.89102 4.88331 7.88603L4.87023 7.63637C4.85734 7.63705 4.84845 7.63415 4.83666 7.62081C4.82141 7.60355 4.80315 7.56887 4.7913 7.51021C4.7677 7.39348 4.77732 7.2199 4.83432 7.02806C4.94816 6.64488 5.23546 6.23648 5.72431 6.1002L5.65718 5.85938ZM4.88417 7.88598C5.04886 7.87621 5.2485 7.7945 5.44864 7.68732C5.65303 7.57786 5.87408 7.43281 6.08608 7.28004C6.50948 6.9749 6.90764 6.63101 7.0799 6.45884L6.90317 6.28202C6.74216 6.44294 6.3547 6.7783 5.93992 7.07722C5.73282 7.22646 5.52164 7.36463 5.33062 7.46693C5.13536 7.5715 4.97644 7.63007 4.86936 7.63642L4.88417 7.88598ZM7.0799 6.45884C7.18168 6.35712 7.23949 6.22776 7.20143 6.09307C7.16513 5.96461 7.05326 5.87573 6.92063 5.82165C6.65343 5.71268 6.21371 5.7046 5.65725 5.85936L5.72424 6.10022C6.2557 5.95241 6.63214 5.97398 6.82623 6.05314C6.92425 6.09311 6.95431 6.13792 6.96085 6.16104C6.96562 6.17793 6.96716 6.21807 6.90317 6.28202L7.0799 6.45884ZM6.70729 5.16268C6.73028 5.11994 6.74507 5.07177 6.74271 5.02041C6.74029 4.9676 6.72016 4.92161 6.69004 4.88457C6.63445 4.8162 6.54667 4.77978 6.46669 4.75846C6.30064 4.71419 6.07183 4.71061 5.85938 4.73328C5.64829 4.75582 5.42886 4.80686 5.28662 4.88832C5.21852 4.92733 5.14074 4.98879 5.11658 5.08249C5.08898 5.18957 5.14306 5.28152 5.21579 5.34767L5.384 5.16272C5.34527 5.1275 5.36392 5.12454 5.35867 5.14491C5.35686 5.1519 5.35924 5.13484 5.41088 5.10526C5.50813 5.04956 5.68652 5.00316 5.88591 4.98187C6.08394 4.96073 6.27826 4.96696 6.40229 5.00002C6.46735 5.01737 6.49136 5.03649 6.49607 5.04229C6.4961 5.04233 6.49326 5.03808 6.49298 5.03188C6.49276 5.02712 6.49455 5.03044 6.48711 5.04426L6.70729 5.16268ZM5.21575 5.34763C5.41271 5.52691 5.71349 5.60833 5.99268 5.58714C6.27312 5.56586 6.56139 5.43789 6.70764 5.16202L6.48676 5.04492C6.39309 5.2216 6.1989 5.32077 5.97377 5.33786C5.74739 5.35504 5.51948 5.28604 5.38404 5.16275L5.21575 5.34763Z" fill="#868686"/>
</g>
<defs>
<filter id="filter0_d_877_3422" x="0.529297" y="0.832031" width="20.5684" height="14.3828" filterUnits="userSpaceOnUse" color-interpolation-filters="sRGB">
<feFlood flood-opacity="0" result="BackgroundImageFix"/>
<feColorMatrix in="SourceAlpha" type="matrix" values="0 0 0 0 0 0 0 0 0 0 0 0 0 0 0 0 0 0 127 0" result="hardAlpha"/>
<feOffset dy="2"/>
<feGaussianBlur stdDeviation="2"/>
<feColorMatrix type="matrix" values="0 0 0 0 0 0 0 0 0 0 0 0 0 0 0 0 0 0 0.01 0"/>
<feBlend mode="normal" in2="BackgroundImageFix" result="effect1_dropShadow_877_3422"/>
<feBlend mode="normal" in="SourceGraphic" in2="effect1_dropShadow_877_3422" result="shape"/>
</filter>
</defs>
</svg>
