<svg width="21" height="14" viewBox="0 0 21 14" fill="none" xmlns="http://www.w3.org/2000/svg">
<g filter="url(#filter0_d_877_3283)">
<path fill-rule="evenodd" clip-rule="evenodd" d="M13.0536 3.14022C12.3801 3.20562 12.0416 2.8019 11.5033 3.00507C10.9641 3.20562 10.0856 3.00507 9.74972 2.80277C9.41035 2.60135 9.00728 3.20649 8.53443 2.93793C8.42974 2.87776 8.34249 2.79231 8.26572 2.69727C7.86178 2.92136 7.37671 3.25358 7.0827 3.67037C6.51475 4.48217 5.70426 4.56326 5.13544 4.64348C4.90337 4.67836 4.71406 4.97046 4.56836 5.30442C4.75331 5.78313 5.09356 6.55394 5.49924 6.91493C6.10645 7.45642 8.26397 7.38753 8.26397 6.91493C8.26397 6.44407 10.0176 6.24091 10.4224 6.24091C10.828 6.24091 12.1114 4.95913 12.312 5.02801C12.5153 5.09515 13.8632 5.29832 14.2009 5.6349C14.3675 5.80144 14.9163 5.96798 15.4851 6.09529C15.2469 5.88515 15.0576 5.61397 15.0576 5.38988C15.0576 5.02888 15.739 4.07758 15.964 3.89708C15.9824 3.88226 15.992 3.8561 16.0042 3.83343C15.4851 3.75495 14.9154 3.64945 14.8081 3.54394C14.6057 3.3399 13.7271 3.07134 13.0536 3.14022Z" fill="white"/>
<path fill-rule="evenodd" clip-rule="evenodd" d="M13.0536 3.14022C12.3801 3.20562 12.0416 2.8019 11.5033 3.00507C10.9641 3.20562 10.0856 3.00507 9.74972 2.80277C9.41035 2.60135 9.00728 3.20649 8.53443 2.93793C8.42974 2.87776 8.34249 2.79231 8.26572 2.69727C7.86178 2.92136 7.37671 3.25358 7.0827 3.67037C6.51475 4.48217 5.70426 4.56326 5.13544 4.64348C4.90337 4.67836 4.71406 4.97046 4.56836 5.30442C4.75331 5.78313 5.09356 6.55394 5.49924 6.91493C6.10645 7.45642 8.26397 7.38753 8.26397 6.91493C8.26397 6.44407 10.0176 6.24091 10.4224 6.24091C10.828 6.24091 12.1114 4.95913 12.312 5.02801C12.5153 5.09515 13.8632 5.29832 14.2009 5.6349C14.3675 5.80144 14.9163 5.96798 15.4851 6.09529C15.2469 5.88515 15.0576 5.61397 15.0576 5.38988C15.0576 5.02888 15.739 4.07758 15.964 3.89708C15.9824 3.88226 15.992 3.8561 16.0042 3.83343C15.4851 3.75495 14.9154 3.64945 14.8081 3.54394C14.6057 3.3399 13.7271 3.07134 13.0536 3.14022Z" stroke="#868686" stroke-width="0.25"/>
</g>
<defs>
<filter id="filter0_d_877_3283" x="0.433594" y="0.537109" width="19.7656" height="12.8838" filterUnits="userSpaceOnUse" color-interpolation-filters="sRGB">
<feFlood flood-opacity="0" result="BackgroundImageFix"/>
<feColorMatrix in="SourceAlpha" type="matrix" values="0 0 0 0 0 0 0 0 0 0 0 0 0 0 0 0 0 0 127 0" result="hardAlpha"/>
<feOffset dy="2"/>
<feGaussianBlur stdDeviation="2"/>
<feColorMatrix type="matrix" values="0 0 0 0 0 0 0 0 0 0 0 0 0 0 0 0 0 0 0.01 0"/>
<feBlend mode="normal" in2="BackgroundImageFix" result="effect1_dropShadow_877_3283"/>
<feBlend mode="normal" in="SourceGraphic" in2="effect1_dropShadow_877_3283" result="shape"/>
</filter>
</defs>
</svg>
