<svg width="28" height="37" viewBox="0 0 28 37" fill="none" xmlns="http://www.w3.org/2000/svg">
<g filter="url(#filter0_d_877_3444)">
<path fill-rule="evenodd" clip-rule="evenodd" d="M14.8055 13.3434C15.9545 13.1603 17.5222 14.6104 17.2814 15.1527C17.0389 15.6942 17.3408 17.446 17.8852 16.962C18.4287 16.4816 19.2741 17.0824 18.7297 17.8671C18.187 18.6519 19.5759 19.4358 19.7565 20.4037C19.9371 21.3689 20.5417 20.5842 20.4222 19.8596C20.3027 19.1341 20.5426 19.196 21.3278 18.6519C22.113 18.1087 21.2658 17.2027 20.7851 16.1781C20.3027 15.1518 18.4889 15.5128 18.4889 14.5485C18.4889 13.5823 17.1619 13.2815 17.1 12.7374C17.0389 12.1942 15.2879 11.6509 14.2628 12.2535C13.236 12.8577 13.9583 11.167 13.2351 10.3831C12.5092 9.59834 13.7778 8.45171 14.6249 7.48645C15.4694 6.52119 14.3832 4.89063 14.5019 4.16603C14.6249 3.44318 14.5621 3.20164 14.1407 3.44318C13.7193 3.68209 11.9666 2.71945 11.1823 3.20164C10.3971 3.68471 11.1212 7.66695 10.7591 7.97039C10.3971 8.27034 9.92772 7.32514 9.79162 7.72886C9.6119 8.27034 9.85269 10.5052 10.336 10.5052C10.8211 10.5052 11.1831 11.1077 10.8804 12.0738C10.5777 13.04 11.7851 13.1603 12.9332 12.7383C14.0805 12.3162 13.6574 13.523 14.8055 13.3434ZM10.9406 13.884C11.1212 14.7307 11.5435 16.4816 12.873 16.0569C14.2009 15.634 10.8089 13.278 10.9406 13.884ZM14.3213 19.7401C14.6249 19.6782 15.3499 19.7401 15.4083 19.1341C15.4685 18.5316 16.1324 20.2205 15.5898 20.7638C15.0454 21.3079 15.0454 22.8164 15.8925 22.9986C16.737 23.18 18.3065 20.2825 18.0657 19.741C17.8241 19.1969 17.1 20.1011 17.2814 19.3782C17.4612 18.6528 15.1073 16.7807 14.2018 16.962C13.2944 17.1443 13.6102 19.8796 14.3213 19.7401ZM7.19614 20.8859C6.35163 21.9723 4.33282 23.7764 4.59804 24.2664C4.96185 24.9291 7.19614 21.6087 8.28319 20.8266C9.36936 20.0409 9.18964 19.3782 8.82758 18.6528C8.46378 17.929 8.04152 19.7985 7.19614 20.8859ZM17.9445 22.0935C18.1861 22.696 19.9362 21.7308 19.4529 21.1274C18.9722 20.5249 17.7648 21.641 17.9445 22.0935ZM23.3797 26.8004C24.1056 25.9528 22.8964 23.7223 22.8964 22.2758C22.8964 20.8266 20.9038 21.246 21.4473 22.1528C21.9908 23.057 20.4213 22.3324 20.2992 23.2384C20.1805 24.1435 19.0315 23.4198 19.0917 24.1435C19.1537 24.8681 17.8852 24.1435 17.2814 23.7223C16.6777 23.3003 15.8323 24.8681 14.9259 25.1114C14.0203 25.3529 13.5396 27.2738 14.1416 27.2233C14.8657 27.164 15.2277 26.1952 15.9527 26.2571C16.6777 26.3173 16.4378 25.5343 17.4612 25.7139C18.4889 25.897 17.7639 28.9741 19.1537 29.2139C20.5417 29.4563 20.6019 30.3013 21.2649 30.3013C21.9297 30.3013 21.1472 28.3716 21.2065 27.7072C21.2649 27.0401 22.6547 27.6453 23.3797 26.8004Z" fill="white"/>
<path d="M14.8055 13.3434L14.8248 13.4669L14.8251 13.4668L14.8055 13.3434ZM17.2814 15.1527L17.3955 15.2038L17.3957 15.2034L17.2814 15.1527ZM17.8852 16.962L17.8024 16.8684L17.8021 16.8686L17.8852 16.962ZM18.7297 17.8671L18.627 17.7959L18.6269 17.796L18.7297 17.8671ZM19.7565 20.4037L19.6336 20.4266L19.6336 20.4266L19.7565 20.4037ZM20.4222 19.8596L20.2988 19.8799L20.2988 19.8799L20.4222 19.8596ZM21.3278 18.6519L21.2566 18.5491L21.2566 18.5491L21.3278 18.6519ZM20.7851 16.1781L20.8983 16.125L20.8982 16.125L20.7851 16.1781ZM17.1 12.7374L16.9757 12.7514L16.9758 12.7515L17.1 12.7374ZM14.2628 12.2535L14.1995 12.1457L14.1994 12.1457L14.2628 12.2535ZM13.2351 10.3831L13.327 10.2983L13.3269 10.2982L13.2351 10.3831ZM14.6249 7.48645L14.7188 7.5689L14.719 7.56876L14.6249 7.48645ZM14.5019 4.16603L14.3786 4.14506L14.3785 4.14583L14.5019 4.16603ZM14.1407 3.44318L14.2023 3.55192L14.2028 3.55163L14.1407 3.44318ZM11.1823 3.20164L11.1168 3.09516L11.1168 3.09518L11.1823 3.20164ZM10.7591 7.97039L10.8389 8.06665L10.8394 8.06619L10.7591 7.97039ZM9.79162 7.72886L9.67317 7.68893L9.67298 7.68948L9.79162 7.72886ZM12.9332 12.7383L12.9764 12.8556L12.9764 12.8556L12.9332 12.7383ZM10.9406 13.884L11.0629 13.8579L11.0628 13.8575L10.9406 13.884ZM12.873 16.0569L12.8351 15.9378L12.835 15.9379L12.873 16.0569ZM14.3213 19.7401L14.3453 19.8628L14.3463 19.8626L14.3213 19.7401ZM15.4083 19.1341L15.2839 19.1217L15.2839 19.1221L15.4083 19.1341ZM15.5898 20.7638L15.6782 20.8522L15.6782 20.8521L15.5898 20.7638ZM15.8925 22.9986L15.8662 23.1208L15.8663 23.1208L15.8925 22.9986ZM18.0657 19.741L17.9515 19.7917L17.9515 19.7918L18.0657 19.741ZM17.2814 19.3782L17.4027 19.4087L17.4028 19.4083L17.2814 19.3782ZM14.2018 16.962L14.1772 16.8395L14.1771 16.8395L14.2018 16.962ZM7.19614 20.8859L7.09746 20.8091L7.09745 20.8091L7.19614 20.8859ZM4.59804 24.2664L4.48811 24.3259L4.48847 24.3266L4.59804 24.2664ZM8.28319 20.8266L8.35619 20.928L8.35645 20.9278L8.28319 20.8266ZM8.82758 18.6528L8.93943 18.5969L8.93927 18.5966L8.82758 18.6528ZM17.9445 22.0935L17.8283 22.1397L17.8285 22.14L17.9445 22.0935ZM19.4529 21.1274L19.3552 21.2053L19.3554 21.2055L19.4529 21.1274ZM23.3797 26.8004L23.4746 26.8817L23.4747 26.8817L23.3797 26.8004ZM21.4473 22.1528L21.3401 22.2171L21.3402 22.2172L21.4473 22.1528ZM20.2992 23.2384L20.1753 23.2217L20.1752 23.2221L20.2992 23.2384ZM19.0917 24.1435L18.9672 24.1539L18.9672 24.1541L19.0917 24.1435ZM17.2814 23.7223L17.2098 23.8248L17.2099 23.8249L17.2814 23.7223ZM14.9259 25.1114L14.9581 25.2321L14.9583 25.2321L14.9259 25.1114ZM14.1416 27.2233L14.1314 27.0987L14.1311 27.0987L14.1416 27.2233ZM15.9527 26.2571L15.9421 26.3817L15.9424 26.3817L15.9527 26.2571ZM17.4612 25.7139L17.4831 25.5908L17.4828 25.5908L17.4612 25.7139ZM19.1537 29.2139L19.1752 29.0908L19.1749 29.0908L19.1537 29.2139ZM21.2065 27.7072L21.331 27.7183L21.331 27.7181L21.2065 27.7072ZM14.8251 13.4668C15.3472 13.3836 15.9905 13.6738 16.4862 14.0733C16.7311 14.2707 16.9299 14.4871 17.0518 14.6818C17.1128 14.7792 17.1519 14.867 17.1698 14.9411C17.1878 15.0155 17.1826 15.0674 17.1672 15.102L17.3957 15.2034C17.4405 15.1025 17.4389 14.9904 17.4128 14.8823C17.3866 14.7741 17.3338 14.6611 17.2637 14.5491C17.1234 14.3251 16.9036 14.0887 16.6431 13.8787C16.1278 13.4633 15.4127 13.1201 14.7858 13.22L14.8251 13.4668ZM17.1674 15.1016C17.0955 15.2621 17.0691 15.4952 17.0719 15.7334C17.0747 15.9755 17.1079 16.24 17.1671 16.4727C17.2249 16.7001 17.3125 16.9174 17.4371 17.0465C17.5017 17.1133 17.5854 17.1658 17.6875 17.1703C17.7899 17.1748 17.8846 17.1298 17.9682 17.0555L17.8021 16.8686C17.7496 16.9153 17.7158 16.9213 17.6985 16.9206C17.6807 16.9198 17.6535 16.9106 17.617 16.8728C17.5395 16.7926 17.4647 16.6289 17.4093 16.4111C17.3553 16.1986 17.3245 15.9539 17.3219 15.7305C17.3192 15.503 17.3461 15.314 17.3955 15.2038L17.1674 15.1016ZM17.9679 17.0557C18.1915 16.8581 18.4674 16.8866 18.6322 17.0334C18.7144 17.1067 18.7703 17.2104 18.7791 17.3358C18.7879 17.4614 18.7501 17.6184 18.627 17.7959L18.8324 17.9384C18.9815 17.7235 19.0421 17.5111 19.0285 17.3183C19.0149 17.1254 18.9276 16.9618 18.7985 16.8468C18.5409 16.6172 18.1224 16.5855 17.8024 16.8684L17.9679 17.0557ZM18.6269 17.796C18.4672 18.0269 18.45 18.2626 18.5156 18.4927C18.5788 18.7146 18.7191 18.9318 18.8708 19.1403C19.0279 19.3562 19.1937 19.5587 19.3394 19.7784C19.4829 19.9949 19.593 20.2089 19.6336 20.4266L19.8794 20.3807C19.8297 20.1145 19.6985 19.8675 19.5477 19.6403C19.3992 19.4163 19.2178 19.1923 19.073 18.9932C18.9226 18.7866 18.8062 18.6001 18.756 18.4242C18.7082 18.2563 18.7208 18.0998 18.8325 17.9382L18.6269 17.796ZM19.6336 20.4266C19.6575 20.5542 19.6894 20.6589 19.7293 20.7415C19.7688 20.8233 19.82 20.8911 19.8866 20.9333C19.9572 20.9781 20.0358 20.988 20.1112 20.9673C20.1822 20.9477 20.2429 20.9033 20.2923 20.8517C20.3907 20.7487 20.4686 20.5916 20.5148 20.4182C20.5615 20.2428 20.5786 20.0399 20.5455 19.8392L20.2988 19.8799C20.3255 20.0415 20.3119 20.2084 20.2732 20.3538C20.234 20.5012 20.1719 20.6158 20.1115 20.6789C20.0815 20.7104 20.0581 20.7226 20.0449 20.7262C20.0359 20.7287 20.0301 20.7283 20.0204 20.7222C20.0069 20.7136 19.9821 20.69 19.9544 20.6328C19.9272 20.5763 19.9007 20.4945 19.8794 20.3807L19.6336 20.4266ZM20.5455 19.8392C20.5163 19.6616 20.5117 19.5461 20.526 19.4624C20.5393 19.3852 20.5693 19.3309 20.6241 19.2761C20.6841 19.2161 20.7717 19.1572 20.9045 19.0741C21.0341 18.9929 21.1996 18.8928 21.399 18.7546L21.2566 18.5491C21.0633 18.6831 20.9044 18.7792 20.7719 18.8622C20.6426 18.9431 20.5305 19.0161 20.4473 19.0993C20.3589 19.1877 20.3023 19.288 20.2796 19.4202C20.2581 19.5459 20.2683 19.6948 20.2988 19.8799L20.5455 19.8392ZM21.3989 18.7547C21.6201 18.6016 21.737 18.4136 21.7657 18.1967C21.7935 17.9872 21.7367 17.7667 21.6468 17.548C21.5564 17.3282 21.4259 17.0952 21.2918 16.8588C21.1563 16.62 21.016 16.3759 20.8983 16.125L20.6719 16.2312C20.7946 16.4927 20.9404 16.7461 21.0744 16.9822C21.2098 17.2208 21.3322 17.4403 21.4155 17.6431C21.4993 17.8468 21.5371 18.0186 21.5179 18.1639C21.4997 18.3016 21.428 18.4305 21.2566 18.5491L21.3989 18.7547ZM20.8982 16.125C20.7624 15.8361 20.5342 15.6491 20.2811 15.5156C20.0308 15.3835 19.7465 15.2989 19.4929 15.2206C19.2319 15.1401 19.0087 15.0674 18.8489 14.9615C18.6985 14.8617 18.6139 14.7392 18.6139 14.5485H18.3639C18.3639 14.8399 18.5059 15.0339 18.7107 15.1698C18.9061 15.2994 19.1665 15.3815 19.4192 15.4595C19.6794 15.5399 19.939 15.6177 20.1644 15.7367C20.3872 15.8543 20.5666 16.007 20.672 16.2313L20.8982 16.125ZM18.6139 14.5485C18.6139 14.0005 18.2346 13.6505 17.8944 13.386C17.7163 13.2475 17.5557 13.1372 17.4267 13.0211C17.2978 12.9051 17.2342 12.811 17.2242 12.7233L16.9758 12.7515C16.9967 12.9358 17.1222 13.0834 17.2595 13.207C17.3968 13.3305 17.5796 13.4579 17.7409 13.5833C18.0797 13.8468 18.3639 14.1303 18.3639 14.5485H18.6139ZM17.2242 12.7234C17.2022 12.5276 17.037 12.3641 16.8413 12.2419C16.6378 12.1147 16.3672 12.0103 16.0702 11.9438C15.4799 11.8116 14.7497 11.8223 14.1995 12.1457L14.3262 12.3612C14.8011 12.0821 15.4589 12.0631 16.0156 12.1877C16.2922 12.2497 16.5348 12.3452 16.7088 12.4539C16.8906 12.5674 16.9672 12.6756 16.9757 12.7514L17.2242 12.7234ZM14.1994 12.1457C14.0768 12.2179 13.9931 12.2478 13.9379 12.2547C13.8892 12.2608 13.8703 12.2489 13.858 12.2369C13.839 12.2183 13.817 12.1793 13.7985 12.104C13.7804 12.0307 13.7691 11.9385 13.7597 11.8282C13.7413 11.6139 13.7308 11.3352 13.6791 11.0673C13.627 10.7971 13.5301 10.5185 13.327 10.2983L13.1432 10.4679C13.3017 10.6396 13.3857 10.8664 13.4337 11.1147C13.482 11.3654 13.4908 11.6187 13.5106 11.8495C13.5202 11.9618 13.5327 12.0704 13.5557 12.1638C13.5782 12.2552 13.6146 12.3487 13.6835 12.4159C13.7591 12.4896 13.858 12.5167 13.9691 12.5027C14.0738 12.4896 14.1921 12.4401 14.3262 12.3612L14.1994 12.1457ZM13.3269 10.2982C13.1721 10.1309 13.1252 9.94964 13.1509 9.75118C13.1774 9.54574 13.2826 9.31745 13.4446 9.07113C13.7705 8.57537 14.2864 8.06163 14.7188 7.5689L14.5309 7.404C14.1162 7.87653 13.5743 8.41874 13.2357 8.93379C13.0653 9.19289 12.9366 9.45873 12.9029 9.71916C12.8684 9.98657 12.9352 10.243 13.1433 10.468L13.3269 10.2982ZM14.719 7.56876C15.1861 7.03485 15.1086 6.32713 14.957 5.70634C14.882 5.39907 14.7791 5.07968 14.7106 4.82259C14.6382 4.55098 14.6004 4.33759 14.6252 4.18623L14.3785 4.14583C14.344 4.35677 14.3975 4.61892 14.469 4.887C14.5444 5.16961 14.638 5.45405 14.7141 5.76565C14.8648 6.3826 14.9082 6.9728 14.5308 7.40414L14.719 7.56876ZM14.6251 4.187C14.6562 4.00432 14.6763 3.84759 14.6815 3.71917C14.6865 3.59457 14.6783 3.48017 14.6399 3.39265C14.6195 3.34645 14.5888 3.30308 14.543 3.27188C14.4967 3.2403 14.4444 3.22755 14.3921 3.22757C14.2947 3.22762 14.1878 3.27208 14.0785 3.33473L14.2028 3.55163C14.3042 3.4935 14.3632 3.47759 14.3922 3.47757C14.4032 3.47757 14.4043 3.47988 14.4022 3.47843C14.4006 3.47736 14.4048 3.4792 14.411 3.49327C14.4255 3.5263 14.4364 3.59271 14.4317 3.70916C14.4272 3.82179 14.4091 3.96632 14.3786 4.14506L14.6251 4.187ZM14.079 3.33444C14.0559 3.34756 14.0098 3.35895 13.9283 3.35667C13.8493 3.35445 13.7515 3.34001 13.6364 3.31605C13.404 3.26764 13.1296 3.18702 12.8285 3.11008C12.5328 3.0345 12.2178 2.96434 11.9244 2.94483C11.6331 2.92545 11.3454 2.95462 11.1168 3.09516L11.2477 3.30813C11.4113 3.20757 11.6369 3.17625 11.9079 3.19428C12.1769 3.21218 12.4734 3.27734 12.7666 3.35229C13.0545 3.42586 13.3462 3.51097 13.5855 3.5608C13.7062 3.58595 13.8206 3.60375 13.9212 3.60657C14.0193 3.60931 14.1201 3.59852 14.2023 3.55192L14.079 3.33444ZM11.1168 3.09518C10.9832 3.17734 10.8958 3.32398 10.8359 3.49046C10.7751 3.65942 10.7361 3.86681 10.7115 4.09446C10.6623 4.55008 10.6683 5.1104 10.6871 5.65767C10.7061 6.20978 10.7379 6.74448 10.7426 7.16658C10.7449 7.37708 10.7403 7.5529 10.7249 7.68353C10.7172 7.74899 10.7072 7.7987 10.6959 7.83387C10.6836 7.87217 10.6744 7.87835 10.6789 7.87459L10.8394 8.06619C10.8892 8.0245 10.9167 7.96401 10.9339 7.9104C10.9522 7.85367 10.9645 7.78623 10.9732 7.71282C10.9906 7.56571 10.9949 7.37685 10.9926 7.1638C10.9879 6.7388 10.9556 6.19084 10.937 5.64908C10.9182 5.10248 10.913 4.5577 10.9601 4.12131C10.9837 3.90295 11.0198 3.7176 11.0711 3.57513C11.1233 3.43019 11.185 3.34672 11.2478 3.30811L11.1168 3.09518ZM10.6794 7.87413C10.653 7.89601 10.6303 7.90336 10.6097 7.90494C10.5871 7.90666 10.5586 7.90198 10.5221 7.88691C10.4453 7.85514 10.3625 7.79051 10.2702 7.71433C10.2269 7.6785 10.1806 7.63962 10.1371 7.60697C10.0944 7.57493 10.0457 7.54211 9.99519 7.52219C9.9444 7.50214 9.87274 7.48796 9.8012 7.52398C9.73212 7.55877 9.6948 7.62477 9.67317 7.68893L9.91007 7.76879C9.92247 7.73201 9.92958 7.73924 9.91364 7.74727C9.89523 7.75654 9.88539 7.74762 9.90341 7.75473C9.92174 7.76197 9.94876 7.77819 9.98707 7.80694C10.0246 7.83508 10.0646 7.86875 10.111 7.90709C10.1984 7.97925 10.3094 8.06946 10.4266 8.11794C10.4872 8.14299 10.5558 8.15978 10.6287 8.15421C10.7036 8.14849 10.7748 8.11976 10.8389 8.06665L10.6794 7.87413ZM9.67298 7.68948C9.62077 7.84679 9.60305 8.10685 9.60791 8.39322C9.61287 8.68489 9.64175 9.02077 9.69168 9.33942C9.74141 9.6568 9.81301 9.96362 9.90582 10.1942C9.95199 10.3089 10.0063 10.4121 10.071 10.4887C10.135 10.5646 10.2234 10.6302 10.336 10.6302V10.3802C10.3278 10.3802 10.3029 10.3759 10.262 10.3274C10.2217 10.2797 10.1793 10.2041 10.1377 10.1008C10.0551 9.89547 9.98709 9.60974 9.93867 9.30072C9.89045 8.99299 9.86263 8.66863 9.85788 8.38897C9.85303 8.10402 9.87261 7.88167 9.91026 7.76823L9.67298 7.68948ZM10.336 10.6302C10.5192 10.6302 10.6907 10.7417 10.7883 10.9754C10.887 11.2118 10.9066 11.5722 10.7611 12.0365L10.9997 12.1112C11.1569 11.6094 11.1469 11.1854 11.019 10.879C10.8899 10.5699 10.6379 10.3802 10.336 10.3802V10.6302ZM10.7611 12.0365C10.6782 12.3011 10.6924 12.5305 10.8062 12.7112C10.9184 12.8892 11.1116 12.9947 11.3335 13.0481C11.7747 13.1543 12.3906 13.0709 12.9764 12.8556L12.8901 12.6209C12.3278 12.8276 11.7659 12.8951 11.392 12.8051C11.2064 12.7604 11.0827 12.681 11.0178 12.5779C10.9545 12.4775 10.9313 12.3296 10.9997 12.1112L10.7611 12.0365ZM12.9764 12.8556C13.2494 12.7552 13.4049 12.7607 13.5054 12.7974C13.6085 12.8351 13.6799 12.9136 13.7714 13.028C13.8577 13.1359 13.9631 13.2779 14.127 13.3733C14.2971 13.4722 14.5164 13.5152 14.8248 13.4669L14.7862 13.2199C14.5205 13.2615 14.3622 13.2209 14.2528 13.1572C14.1373 13.0901 14.0615 12.9904 13.9667 12.8719C13.877 12.7598 13.7673 12.6269 13.5912 12.5626C13.4125 12.4974 13.1908 12.5103 12.8901 12.6209L12.9764 12.8556ZM10.8184 13.9101C10.9083 14.3318 11.0623 15.0009 11.3688 15.5115C11.5227 15.768 11.7209 15.9947 11.9785 16.1269C12.2402 16.2611 12.5505 16.2912 12.9111 16.176L12.835 15.9379C12.5308 16.035 12.2897 16.0055 12.0926 15.9044C11.8915 15.8013 11.7236 15.6169 11.5831 15.3829C11.3009 14.9126 11.1535 14.2829 11.0629 13.8579L10.8184 13.9101ZM12.911 16.176C13.0994 16.116 13.2328 16.0116 13.2844 15.8568C13.3339 15.7084 13.2961 15.5478 13.2256 15.4C13.0844 15.1041 12.7718 14.7747 12.4364 14.4894C12.0979 14.2015 11.7197 13.9447 11.4305 13.7971C11.2899 13.7253 11.155 13.6712 11.0519 13.6616C11.0033 13.657 10.928 13.6589 10.8705 13.712C10.8055 13.7718 10.8062 13.854 10.8185 13.9106L11.0628 13.8575C11.0586 13.8383 11.0703 13.8678 11.0399 13.8958C11.0169 13.917 10.9997 13.9078 11.0286 13.9105C11.0806 13.9154 11.1788 13.9493 11.3169 14.0197C11.5851 14.1567 11.9473 14.4016 12.2744 14.6799C12.6045 14.9607 12.8826 15.2617 12.9999 15.5076C13.0586 15.6307 13.0669 15.7188 13.0473 15.7778C13.0297 15.8304 12.9786 15.8921 12.8351 15.9378L12.911 16.176ZM14.3463 19.8626C14.4147 19.8486 14.5056 19.842 14.6248 19.8287C14.7379 19.8162 14.8681 19.7983 14.9927 19.7608C15.1172 19.7234 15.244 19.6644 15.3446 19.5644C15.4475 19.4622 15.5155 19.3247 15.5327 19.1461L15.2839 19.1221C15.2719 19.2465 15.2274 19.3285 15.1684 19.387C15.1072 19.4479 15.0227 19.4908 14.9208 19.5214C14.8188 19.552 14.7072 19.5681 14.5972 19.5803C14.4933 19.5918 14.3796 19.6006 14.2963 19.6176L14.3463 19.8626ZM15.5327 19.1465C15.5359 19.1144 15.5405 19.0983 15.5427 19.0926C15.5461 19.0839 15.5398 19.1079 15.5075 19.1226C15.468 19.1406 15.4357 19.1251 15.4288 19.1209C15.4236 19.1177 15.4274 19.1186 15.4388 19.1336C15.4856 19.1954 15.5523 19.3473 15.604 19.5501C15.6546 19.7488 15.6862 19.9788 15.674 20.188C15.6617 20.4001 15.6056 20.571 15.5014 20.6754L15.6782 20.8521C15.8453 20.6849 15.9097 20.441 15.9236 20.2025C15.9377 19.9611 15.9013 19.7046 15.8463 19.4884C15.7923 19.2764 15.7156 19.0851 15.638 18.9826C15.6183 18.9566 15.5921 18.9277 15.559 18.9075C15.5243 18.8863 15.4662 18.8666 15.4038 18.8951C15.3487 18.9202 15.3225 18.9692 15.3098 19.0017C15.296 19.0372 15.2883 19.0784 15.2839 19.1217L15.5327 19.1465ZM15.5014 20.6754C15.1945 20.9821 15.0551 21.5369 15.0947 22.027C15.1341 22.5139 15.3603 23.012 15.8662 23.1208L15.9188 22.8764C15.5776 22.803 15.3802 22.4557 15.3439 22.0068C15.3079 21.561 15.4406 21.0896 15.6782 20.8522L15.5014 20.6754ZM15.8663 23.1208C16.0101 23.1517 16.1572 23.1146 16.2951 23.0442C16.4334 22.9736 16.5732 22.8641 16.7093 22.7319C16.9818 22.4673 17.2559 22.0955 17.4929 21.7058C17.7303 21.3155 17.9341 20.9008 18.0639 20.5469C18.1287 20.3703 18.1762 20.2053 18.1995 20.0642C18.2218 19.9289 18.2257 19.7931 18.18 19.6902L17.9515 19.7918C17.9659 19.8242 17.9736 19.8975 17.9528 20.0235C17.933 20.1438 17.8909 20.2926 17.8292 20.4609C17.706 20.7969 17.5098 21.1969 17.2793 21.5759C17.0485 21.9556 16.7869 22.308 16.5351 22.5526C16.4091 22.675 16.2896 22.7664 16.1814 22.8216C16.0727 22.8771 15.9861 22.8909 15.9188 22.8764L15.8663 23.1208ZM18.18 19.6902C18.1424 19.6055 18.0911 19.5397 18.0252 19.4952C17.9592 19.4506 17.8875 19.4335 17.8196 19.4315C17.692 19.4275 17.5603 19.4775 17.4727 19.509C17.4236 19.5266 17.388 19.539 17.3599 19.545C17.3272 19.552 17.3347 19.5434 17.3537 19.5538C17.384 19.5705 17.3795 19.596 17.3779 19.5711C17.3762 19.5451 17.3809 19.4953 17.4027 19.4087L17.1602 19.3478C17.1366 19.4419 17.1242 19.5219 17.1284 19.587C17.1326 19.6531 17.1567 19.7308 17.2332 19.7729C17.2983 19.8087 17.3694 19.7986 17.4124 19.7894C17.4599 19.7792 17.512 19.7605 17.5571 19.7443C17.6581 19.708 17.7414 19.6792 17.8119 19.6813C17.843 19.6823 17.8661 19.6895 17.8852 19.7024C17.9045 19.7154 17.9287 19.7404 17.9515 19.7917L18.18 19.6902ZM17.4028 19.4083C17.4342 19.2815 17.4075 19.1439 17.3536 19.0116C17.2991 18.8776 17.2115 18.7359 17.1028 18.5933C16.8851 18.3079 16.5711 18.0043 16.226 17.7319C15.8807 17.4594 15.499 17.2141 15.1432 17.0478C14.7942 16.8847 14.4455 16.7857 14.1772 16.8395L14.2263 17.0846C14.4108 17.0476 14.6959 17.1147 15.0373 17.2743C15.372 17.4307 15.7373 17.6647 16.0711 17.9282C16.4052 18.1919 16.7026 18.4809 16.904 18.745C17.0048 18.8771 17.0787 18.9993 17.1221 19.1058C17.1661 19.214 17.1736 19.2936 17.1601 19.3482L17.4028 19.4083ZM14.1771 16.8395C13.8819 16.8988 13.7097 17.1611 13.6183 17.4556C13.5252 17.7553 13.502 18.1269 13.53 18.4816C13.558 18.836 13.6383 19.1869 13.7624 19.4447C13.8243 19.5732 13.9011 19.687 13.9952 19.7647C14.0923 19.8448 14.212 19.8889 14.3453 19.8628L14.2972 19.6174C14.2528 19.6261 14.2071 19.6153 14.1543 19.5718C14.0987 19.5259 14.0412 19.4474 13.9877 19.3363C13.881 19.1148 13.8057 18.7966 13.7792 18.4619C13.7528 18.1274 13.7763 17.7897 13.857 17.5297C13.9394 17.2644 14.0679 17.1164 14.2264 17.0846L14.1771 16.8395ZM7.09745 20.8091C6.67815 21.3486 5.97274 22.0596 5.38759 22.7167C5.09855 23.0413 4.83916 23.3527 4.66843 23.6163C4.5833 23.7478 4.51619 23.8734 4.47984 23.9869C4.44441 24.0977 4.43092 24.2203 4.48811 24.3259L4.70797 24.2069C4.69886 24.1901 4.69044 24.1491 4.71795 24.0631C4.74454 23.98 4.79823 23.8758 4.87826 23.7522C5.03786 23.5058 5.28622 23.2064 5.57429 22.8829C6.14337 22.2439 6.86962 21.5096 7.29483 20.9626L7.09745 20.8091ZM4.48847 24.3266C4.52385 24.391 4.57704 24.4412 4.64882 24.4645C4.71742 24.4868 4.78795 24.4796 4.8516 24.4609C4.97546 24.4244 5.11324 24.3317 5.25427 24.2147C5.54064 23.9771 5.89414 23.5924 6.26344 23.1707C6.63651 22.7446 7.02499 22.2816 7.39306 21.8706C7.76173 21.4589 8.09692 21.1146 8.35619 20.928L8.21018 20.7251C7.92593 20.9296 7.57419 21.2936 7.20683 21.7038C6.83887 22.1147 6.44222 22.587 6.07535 23.006C5.70473 23.4292 5.3635 23.7993 5.09465 24.0223C4.95807 24.1356 4.85312 24.1998 4.78091 24.2211C4.74652 24.2312 4.73069 24.2282 4.72605 24.2267C4.72461 24.2263 4.71771 24.2247 4.70762 24.2063L4.48847 24.3266ZM8.35645 20.9278C8.91467 20.5241 9.17079 20.1349 9.22245 19.733C9.27324 19.338 9.12115 18.9611 8.93943 18.5969L8.71574 18.7086C8.89608 19.0699 9.01488 19.387 8.97449 19.7012C8.93499 20.0084 8.73788 20.3434 8.20993 20.7253L8.35645 20.9278ZM8.93927 18.5966C8.89037 18.4994 8.82449 18.4102 8.72727 18.3778C8.618 18.3413 8.5225 18.3913 8.45601 18.4492C8.38935 18.5072 8.32705 18.5929 8.26793 18.6891C8.20768 18.7871 8.14534 18.905 8.08068 19.0342C7.8186 19.5577 7.51015 20.2783 7.09746 20.8091L7.29482 20.9626C7.72751 20.4061 8.05288 19.6482 8.30423 19.1461C8.36793 19.0189 8.42642 18.9087 8.4809 18.82C8.53651 18.7296 8.58284 18.6702 8.62014 18.6377C8.6576 18.6051 8.66138 18.6193 8.64814 18.6149C8.64695 18.6145 8.67384 18.6252 8.7159 18.7089L8.93927 18.5966ZM17.8285 22.14C17.9195 22.3671 18.1487 22.4231 18.36 22.4062C18.5751 22.3891 18.8198 22.2973 19.0343 22.1702C19.2484 22.0433 19.448 21.8718 19.5622 21.6821C19.6198 21.5864 19.659 21.4805 19.6617 21.37C19.6646 21.2569 19.6289 21.1472 19.5505 21.0492L19.3554 21.2055C19.3977 21.2585 19.4131 21.3109 19.4118 21.3637C19.4104 21.4191 19.3903 21.4829 19.348 21.5532C19.2625 21.6953 19.1 21.8406 18.9068 21.9551C18.714 22.0694 18.5061 22.1438 18.3402 22.157C18.1704 22.1705 18.0903 22.1212 18.0605 22.047L17.8285 22.14ZM19.5506 21.0494C19.3967 20.8565 19.1824 20.8048 18.9704 20.8369C18.7643 20.8682 18.5544 20.978 18.375 21.1156C18.1945 21.2539 18.0342 21.4284 17.9296 21.6025C17.83 21.7684 17.7605 21.969 17.8283 22.1397L18.0607 22.0474C18.0386 21.9918 18.0527 21.8832 18.1439 21.7313C18.2302 21.5877 18.3681 21.4359 18.5271 21.314C18.6871 21.1913 18.858 21.1068 19.0079 21.0841C19.1519 21.0623 19.2688 21.097 19.3552 21.2053L19.5506 21.0494ZM23.4747 26.8817C23.6858 26.6351 23.7471 26.299 23.7354 25.9352C23.7236 25.5701 23.6376 25.1557 23.5315 24.7323C23.423 24.2993 23.2984 23.8741 23.1955 23.4447C23.0941 23.0211 23.0214 22.6222 23.0214 22.2758H22.7714C22.7714 22.6526 22.8499 23.0749 22.9524 23.5029C23.0536 23.925 23.1859 24.3817 23.289 24.7931C23.3945 25.214 23.4747 25.6066 23.4855 25.9433C23.4964 26.2813 23.4365 26.5418 23.2848 26.719L23.4747 26.8817ZM23.0214 22.2758C23.0214 21.8828 22.885 21.5998 22.6741 21.4221C22.4661 21.2468 22.1995 21.1854 21.9573 21.2062C21.7175 21.2269 21.4825 21.3303 21.3451 21.5097C21.2753 21.6009 21.2318 21.7111 21.2285 21.8351C21.2254 21.9585 21.2623 22.0874 21.3401 22.2171L21.5545 22.0885C21.4964 21.9916 21.4767 21.909 21.4785 21.8415C21.4802 21.7746 21.5031 21.7146 21.5437 21.6616C21.6271 21.5526 21.7884 21.4717 21.9787 21.4553C22.1668 21.4391 22.3643 21.4879 22.513 21.6132C22.6587 21.736 22.7714 21.9441 22.7714 22.2758H23.0214ZM21.3402 22.2172C21.4047 22.3246 21.4294 22.3946 21.435 22.4379C21.4397 22.4742 21.4308 22.4833 21.4255 22.4886C21.4132 22.5011 21.3843 22.518 21.3235 22.5338C21.2646 22.5492 21.1924 22.5596 21.1064 22.571C20.9429 22.5928 20.7303 22.617 20.5531 22.7007C20.3644 22.7898 20.2122 22.9476 20.1753 23.2217L20.423 23.2551C20.4472 23.0762 20.537 22.9848 20.6599 22.9268C20.7944 22.8632 20.9631 22.8423 21.1393 22.8189C21.2231 22.8077 21.3104 22.7956 21.3866 22.7757C21.4609 22.7564 21.543 22.7253 21.6032 22.6644C21.6706 22.5963 21.696 22.5066 21.683 22.4059C21.6709 22.3122 21.6258 22.2071 21.5544 22.0884L21.3402 22.2172ZM20.1752 23.2221C20.1498 23.4158 20.0745 23.5029 19.9898 23.5514C19.894 23.6063 19.7683 23.6228 19.6188 23.6343C19.5485 23.6397 19.4706 23.6444 19.3995 23.6538C19.3282 23.6633 19.2525 23.6789 19.1846 23.7111C19.114 23.7447 19.0506 23.7971 19.0099 23.8776C18.9703 23.9559 18.9584 24.0488 18.9672 24.1539L19.2163 24.1331C19.21 24.0572 19.2208 24.0145 19.233 23.9903C19.2441 23.9683 19.2615 23.9514 19.292 23.9369C19.3252 23.9211 19.3709 23.9098 19.4325 23.9016C19.4944 23.8934 19.561 23.8895 19.638 23.8836C19.783 23.8724 19.9631 23.8549 20.1141 23.7683C20.2764 23.6754 20.3892 23.5136 20.4231 23.2546L20.1752 23.2221ZM18.9672 24.1541C18.9736 24.2293 18.961 24.2674 18.95 24.2853C18.941 24.2998 18.9261 24.313 18.892 24.3208C18.8113 24.3392 18.6704 24.3164 18.4798 24.2454C18.1097 24.1077 17.6518 23.8283 17.353 23.6198L17.2099 23.8249C17.5147 24.0375 17.993 24.331 18.3926 24.4797C18.5868 24.552 18.7892 24.6007 18.9478 24.5644C19.0334 24.5449 19.1121 24.499 19.163 24.4162C19.2119 24.3366 19.2253 24.2388 19.2163 24.1328L18.9672 24.1541ZM17.353 23.6199C17.1491 23.4773 16.9291 23.5133 16.7291 23.6159C16.5335 23.7162 16.3313 23.8917 16.1324 24.0755C15.9284 24.264 15.7248 24.464 15.5129 24.6351C15.3011 24.8062 15.0947 24.9366 14.8935 24.9906L14.9583 25.2321C15.2103 25.1644 15.4495 25.0077 15.67 24.8296C15.8904 24.6515 16.1058 24.4404 16.302 24.2592C16.5031 24.0734 16.6822 23.9209 16.8432 23.8383C16.9998 23.758 17.1119 23.7564 17.2098 23.8248L17.353 23.6199ZM14.8937 24.9906C14.6307 25.0607 14.4096 25.249 14.2373 25.4744C14.0641 25.7011 13.9318 25.9759 13.8491 26.2394C13.7671 26.5008 13.7299 26.764 13.7591 26.9664C13.7736 27.0673 13.8065 27.1662 13.8717 27.2399C13.942 27.3191 14.0396 27.3573 14.152 27.3478L14.1311 27.0987C14.093 27.1019 14.0739 27.0911 14.0588 27.074C14.0387 27.0513 14.0174 27.0066 14.0065 26.9308C13.9848 26.7797 14.0115 26.557 14.0876 26.3143C14.1631 26.0737 14.2832 25.8261 14.4359 25.6263C14.5897 25.4252 14.7683 25.2828 14.9581 25.2321L14.8937 24.9906ZM14.1518 27.3478C14.5641 27.3141 14.8686 27.0207 15.1299 26.7881C15.4077 26.5408 15.6406 26.3559 15.9421 26.3817L15.9634 26.1326C15.5398 26.0964 15.2292 26.3649 14.9637 26.6014C14.6817 26.8525 14.4431 27.0731 14.1314 27.0987L14.1518 27.3478ZM15.9424 26.3817C16.1485 26.3988 16.2976 26.3558 16.4186 26.2771C16.53 26.2046 16.6158 26.0999 16.6854 26.0271C16.7596 25.9495 16.832 25.8868 16.9376 25.8492C17.044 25.8114 17.1977 25.7946 17.4395 25.837L17.4828 25.5908C17.2129 25.5434 17.0129 25.5571 16.8538 25.6137C16.6939 25.6706 16.589 25.7662 16.5047 25.8543C16.4158 25.9473 16.3616 26.0159 16.2822 26.0676C16.2122 26.1132 16.1194 26.1455 15.9631 26.1325L15.9424 26.3817ZM17.4392 25.837C17.6214 25.8694 17.7484 26.0308 17.8443 26.3412C17.9389 26.6473 17.9865 27.0428 18.048 27.4608C18.1082 27.8704 18.1818 28.2994 18.3331 28.6421C18.4863 28.9891 18.7287 29.2675 19.1324 29.3371L19.1749 29.0908C18.8837 29.0405 18.6956 28.8443 18.5618 28.5412C18.426 28.2337 18.356 27.8371 18.2953 27.4245C18.2359 27.0203 18.1851 26.5973 18.0832 26.2674C17.9826 25.9419 17.8147 25.6499 17.4831 25.5908L17.4392 25.837ZM19.1322 29.3371C19.7966 29.4531 20.1381 29.7106 20.3981 29.9419C20.6509 30.1668 20.8739 30.4263 21.2649 30.4263V30.1763C20.993 30.1763 20.8544 30.0133 20.5643 29.7551C20.2814 29.5034 19.8988 29.2172 19.1752 29.0908L19.1322 29.3371ZM21.2649 30.4263C21.3829 30.4263 21.4812 30.3811 21.5493 30.2941C21.6123 30.2137 21.6405 30.1089 21.6522 30.003C21.6755 29.7914 21.6382 29.513 21.5857 29.2305C21.5335 28.9497 21.4595 28.6338 21.4067 28.3684C21.3515 28.0915 21.318 27.8637 21.331 27.7183L21.082 27.6961C21.0653 27.8829 21.1074 28.1455 21.1615 28.4172C21.2179 28.7005 21.287 28.9916 21.3399 29.2762C21.3925 29.5592 21.4225 29.8048 21.4037 29.9757C21.3943 30.0611 21.3741 30.1123 21.3525 30.14C21.3359 30.1611 21.3131 30.1763 21.2649 30.1763V30.4263ZM21.331 27.7181C21.3362 27.6588 21.3548 27.6222 21.3789 27.596C21.4048 27.5678 21.4455 27.5425 21.5085 27.5214C21.6404 27.4772 21.8228 27.4646 22.0537 27.445C22.4947 27.4077 23.0749 27.3475 23.4746 26.8817L23.2849 26.719C22.9595 27.0981 22.4824 27.1578 22.0326 27.1959C21.8182 27.2141 21.5969 27.2281 21.429 27.2844C21.3422 27.3135 21.259 27.357 21.1949 27.4267C21.129 27.4984 21.0914 27.5889 21.082 27.6963L21.331 27.7181Z" fill="#868686"/>
</g>
<defs>
<filter id="filter0_d_877_3444" x="0.449219" y="0.939453" width="27.2871" height="35.4863" filterUnits="userSpaceOnUse" color-interpolation-filters="sRGB">
<feFlood flood-opacity="0" result="BackgroundImageFix"/>
<feColorMatrix in="SourceAlpha" type="matrix" values="0 0 0 0 0 0 0 0 0 0 0 0 0 0 0 0 0 0 127 0" result="hardAlpha"/>
<feOffset dy="2"/>
<feGaussianBlur stdDeviation="2"/>
<feColorMatrix type="matrix" values="0 0 0 0 0 0 0 0 0 0 0 0 0 0 0 0 0 0 0.01 0"/>
<feBlend mode="normal" in2="BackgroundImageFix" result="effect1_dropShadow_877_3444"/>
<feBlend mode="normal" in="SourceGraphic" in2="effect1_dropShadow_877_3444" result="shape"/>
</filter>
</defs>
</svg>
