<svg width="22" height="17" viewBox="0 0 22 17" fill="none" xmlns="http://www.w3.org/2000/svg">
<g filter="url(#filter0_d_877_3281)">
<path fill-rule="evenodd" clip-rule="evenodd" d="M16.9624 4.38561C16.8063 4.33416 16.6344 4.22604 16.4835 4.09437C15.9155 3.96707 15.3668 3.80052 15.1993 3.63398C14.8616 3.29653 13.5137 3.09424 13.3105 3.02709C13.1098 2.95821 11.8264 4.23999 11.4208 4.23999C11.016 4.23999 9.26238 4.44316 9.26238 4.91401C9.26238 5.38662 7.10486 5.4555 6.49764 4.91401C6.40168 4.82856 6.3092 4.71434 6.22196 4.59139C6.05968 4.74485 5.94889 4.92709 5.94889 5.13462C5.94889 5.74761 5.4769 5.70052 5.0529 5.65256C4.62628 5.60635 5.0529 6.174 4.81647 6.45564C4.58004 6.73902 4.81647 7.30754 4.48495 7.35201C4.30784 7.3773 4.21275 7.58134 4.1543 7.83333C4.2965 7.90135 4.6446 8.5963 4.6446 8.5963C4.6446 8.5963 4.62628 8.61374 4.59836 8.63902C5.05813 8.91282 5.99512 9.50139 6.29611 9.90337C6.70179 10.4422 7.84729 10.5102 8.38646 10.376C8.92649 10.2434 11.221 9.49965 11.221 9.49965C11.221 9.49965 11.761 9.70107 12.0969 9.76821C12.1772 9.78565 12.3918 9.82053 12.671 9.86151C12.8358 9.69148 13.3427 9.54586 13.8836 9.0035C14.5179 8.36959 15.4688 6.10685 15.7402 5.92723C16.0132 5.74499 16.7382 5.33691 17.1003 5.06748C17.4606 4.79281 17.3716 4.52163 16.9624 4.38561Z" fill="white"/>
<path fill-rule="evenodd" clip-rule="evenodd" d="M16.9624 4.38561C16.8063 4.33416 16.6344 4.22604 16.4835 4.09437C15.9155 3.96707 15.3668 3.80052 15.1993 3.63398C14.8616 3.29653 13.5137 3.09424 13.3105 3.02709C13.1098 2.95821 11.8264 4.23999 11.4208 4.23999C11.016 4.23999 9.26238 4.44316 9.26238 4.91401C9.26238 5.38662 7.10486 5.4555 6.49764 4.91401C6.40168 4.82856 6.3092 4.71434 6.22196 4.59139C6.05968 4.74485 5.94889 4.92709 5.94889 5.13462C5.94889 5.74761 5.4769 5.70052 5.0529 5.65256C4.62628 5.60635 5.0529 6.174 4.81647 6.45564C4.58004 6.73902 4.81647 7.30754 4.48495 7.35201C4.30784 7.3773 4.21275 7.58134 4.1543 7.83333C4.2965 7.90135 4.6446 8.5963 4.6446 8.5963C4.6446 8.5963 4.62628 8.61374 4.59836 8.63902C5.05813 8.91282 5.99512 9.50139 6.29611 9.90337C6.70179 10.4422 7.84729 10.5102 8.38646 10.376C8.92649 10.2434 11.221 9.49965 11.221 9.49965C11.221 9.49965 11.761 9.70107 12.0969 9.76821C12.1772 9.78565 12.3918 9.82053 12.671 9.86151C12.8358 9.69148 13.3427 9.54586 13.8836 9.0035C14.5179 8.36959 15.4688 6.10685 15.7402 5.92723C16.0132 5.74499 16.7382 5.33691 17.1003 5.06748C17.4606 4.79281 17.3716 4.52163 16.9624 4.38561Z" stroke="#868686" stroke-width="0.25"/>
</g>
<defs>
<filter id="filter0_d_877_3281" x="0.00976562" y="0.899414" width="21.4414" height="15.6611" filterUnits="userSpaceOnUse" color-interpolation-filters="sRGB">
<feFlood flood-opacity="0" result="BackgroundImageFix"/>
<feColorMatrix in="SourceAlpha" type="matrix" values="0 0 0 0 0 0 0 0 0 0 0 0 0 0 0 0 0 0 127 0" result="hardAlpha"/>
<feOffset dy="2"/>
<feGaussianBlur stdDeviation="2"/>
<feColorMatrix type="matrix" values="0 0 0 0 0 0 0 0 0 0 0 0 0 0 0 0 0 0 0.01 0"/>
<feBlend mode="normal" in2="BackgroundImageFix" result="effect1_dropShadow_877_3281"/>
<feBlend mode="normal" in="SourceGraphic" in2="effect1_dropShadow_877_3281" result="shape"/>
</filter>
</defs>
</svg>
