<svg width="74" height="36" viewBox="0 0 74 36" fill="none" xmlns="http://www.w3.org/2000/svg">
<g filter="url(#filter0_d_877_3258)">
<path fill-rule="evenodd" clip-rule="evenodd" d="M66.5032 13.7899C65.8445 13.0026 64.7932 13.3976 64.5306 14.0533C64.2663 14.7107 63.7393 13.7899 62.5563 13.7899C61.3715 13.7899 61.2407 14.4483 60.452 13.6591C59.6633 12.8709 60.7137 12.6067 60.7137 12.6067L60.8455 11.556L62.4795 8.29048C62.0137 8.09953 61.3297 8.02541 61.0025 8.14836C60.5192 8.32798 59.3702 8.20939 59.2515 7.78736C59.1294 7.36272 57.1978 7.3043 56.7145 7.66529C56.2312 8.02803 55.1441 8.32798 55.0857 8.75175C55.0237 9.17465 53.8774 9.05345 53.4534 9.35428C53.0311 9.65685 50.857 9.77718 50.7977 10.0196C50.7375 10.262 48.4421 10.3204 48.0809 10.0196C47.7171 9.71788 45.7254 10.0196 45.482 9.53477C45.2403 9.05258 44.3958 8.81017 44.3958 8.38989C44.3958 7.96699 42.8856 7.96699 42.705 7.606C42.5218 7.24326 41.3152 7.06102 41.1347 7.1831C40.9532 7.30517 39.6236 6.81862 39.2624 6.76107C38.9012 6.7009 37.754 7.00173 37.3902 7.00173C37.0281 7.00173 36.3642 7.66616 35.9428 7.72458C35.5197 7.78736 34.3707 7.00173 34.1299 7.1831C33.8891 7.36272 33.1633 6.5797 32.8623 6.21871C32.5587 5.8551 32.8623 4.82881 32.6206 4.46694C32.3807 4.10421 31.0511 4.10421 30.628 3.86355C30.2057 3.62201 29.5418 3.26102 29.1178 3.26102C28.6964 3.26102 28.0316 3.13982 27.8502 2.95933C27.6696 2.77796 26.764 2.47626 26.3417 2.35506C25.9177 2.23473 25.8575 2.77796 25.6167 3.01949C25.3759 3.26102 24.6492 3.32293 24.5297 3.74409C24.4075 4.16525 23.563 4.28645 23.6826 4.76951C23.8056 5.25258 24.1074 6.21958 24.4075 6.45937C24.7112 6.70178 24.5297 7.42463 24.3491 7.66791C24.1659 7.90857 22.8982 8.08732 22.6566 8.51283C22.4175 8.93486 21.8129 8.45267 21.2083 8.08819C20.6055 7.7272 19.8788 7.9696 19.5786 8.21288C19.2768 8.45267 18.1906 7.60948 17.887 7.54758C17.586 7.48828 17.5249 6.34078 17.2222 6.40182C16.923 6.46024 14.8065 6.04083 14.3851 5.91614C13.9619 5.79755 13.0572 5.85772 12.9368 6.15854C12.8138 6.46199 11.7285 6.40095 11.5462 6.76281C11.3647 7.12555 10.5185 7.30691 10.2192 7.66791C9.91474 8.03064 8.88963 8.03064 8.6471 8.573C8.40805 9.11623 7.13866 9.35689 6.77486 9.41793C6.4128 9.47897 5.44789 9.65946 5.38595 9.96116C5.36065 10.0893 5.20885 10.1076 5.01953 10.085C5.04134 10.1661 5.06926 10.2384 5.08496 10.3291C5.33622 11.7059 5.92162 11.6658 6.5489 12.2099C7.17705 12.7514 7.71796 13.1691 8.38711 13.2118C9.05627 13.2537 10.0596 14.0445 10.1433 14.6314C10.2262 15.2156 10.8526 15.8844 11.2295 16.1774C11.6055 16.4686 11.1039 17.4722 11.1039 18.2238C11.1039 18.9755 10.1843 19.1438 10.645 19.8945C11.1039 20.647 14.3231 21.0211 15.2427 21.0211C16.1622 21.0211 16.4964 21.9 16.7755 21.9462C17.3539 22.0404 17.4325 22.7345 18.0903 22.8679C18.749 22.997 19.4059 23.3919 19.6694 24.5778C19.932 25.7584 20.7215 26.1534 20.8515 26.6801C20.9841 27.2068 22.4332 26.8109 23.4845 26.9434C24.5367 27.0751 27.5631 26.9434 28.3527 27.0751C29.1414 27.2059 30.9839 27.0751 32.0361 27.8634C33.0891 28.6507 33.616 27.9933 34.273 28.3891C34.9317 28.7824 35.4551 29.0466 36.3764 28.9149C37.2986 28.7833 37.2977 29.5733 37.9555 29.7041C38.6125 29.8366 39.7981 28.6516 41.5089 27.8642C43.2171 27.076 45.1915 27.6009 46.1119 27.7343C47.0332 27.8642 48.7422 27.3393 49.7944 26.1534C50.8492 24.9719 52.163 25.2327 52.2957 24.1819C52.4265 23.1304 51.2435 22.7354 51.7687 21.8137C52.2957 20.8947 53.2161 21.0254 53.7439 21.2897C54.2682 21.5512 55.7173 21.9462 57.0329 21.0246C58.3486 20.1047 58.8746 20.2372 60.0585 20.1047C61.2424 19.9721 61.1107 19.1839 61.9002 18.3947C62.6898 17.6065 63.6102 17.3423 64.3997 17.3423C65.1893 17.3423 66.2406 16.5532 67.031 16.8165C67.8205 17.0798 69.0036 17.2106 69.137 16.5523C69.2662 15.8957 67.161 14.5791 66.5032 13.7899Z" fill="white"/>
<path fill-rule="evenodd" clip-rule="evenodd" d="M66.5032 13.7899C65.8445 13.0026 64.7932 13.3976 64.5306 14.0533C64.2663 14.7107 63.7393 13.7899 62.5563 13.7899C61.3715 13.7899 61.2407 14.4483 60.452 13.6591C59.6633 12.8709 60.7137 12.6067 60.7137 12.6067L60.8455 11.556L62.4795 8.29048C62.0137 8.09953 61.3297 8.02541 61.0025 8.14836C60.5192 8.32798 59.3702 8.20939 59.2515 7.78736C59.1294 7.36272 57.1978 7.3043 56.7145 7.66529C56.2312 8.02803 55.1441 8.32798 55.0857 8.75175C55.0237 9.17465 53.8774 9.05345 53.4534 9.35428C53.0311 9.65685 50.857 9.77718 50.7977 10.0196C50.7375 10.262 48.4421 10.3204 48.0809 10.0196C47.7171 9.71788 45.7254 10.0196 45.482 9.53477C45.2403 9.05258 44.3958 8.81017 44.3958 8.38989C44.3958 7.96699 42.8856 7.96699 42.705 7.606C42.5218 7.24326 41.3152 7.06102 41.1347 7.1831C40.9532 7.30517 39.6236 6.81862 39.2624 6.76107C38.9012 6.7009 37.754 7.00173 37.3902 7.00173C37.0281 7.00173 36.3642 7.66616 35.9428 7.72458C35.5197 7.78736 34.3707 7.00173 34.1299 7.1831C33.8891 7.36272 33.1633 6.5797 32.8623 6.21871C32.5587 5.8551 32.8623 4.82881 32.6206 4.46694C32.3807 4.10421 31.0511 4.10421 30.628 3.86355C30.2057 3.62201 29.5418 3.26102 29.1178 3.26102C28.6964 3.26102 28.0316 3.13982 27.8502 2.95933C27.6696 2.77796 26.764 2.47626 26.3417 2.35506C25.9177 2.23473 25.8575 2.77796 25.6167 3.01949C25.3759 3.26102 24.6492 3.32293 24.5297 3.74409C24.4075 4.16525 23.563 4.28645 23.6826 4.76951C23.8056 5.25258 24.1074 6.21958 24.4075 6.45937C24.7112 6.70178 24.5297 7.42463 24.3491 7.66791C24.1659 7.90857 22.8982 8.08732 22.6566 8.51283C22.4175 8.93486 21.8129 8.45267 21.2083 8.08819C20.6055 7.7272 19.8788 7.9696 19.5786 8.21288C19.2768 8.45267 18.1906 7.60948 17.887 7.54758C17.586 7.48828 17.5249 6.34078 17.2222 6.40182C16.923 6.46024 14.8065 6.04083 14.3851 5.91614C13.9619 5.79755 13.0572 5.85772 12.9368 6.15854C12.8138 6.46199 11.7285 6.40095 11.5462 6.76281C11.3647 7.12555 10.5185 7.30691 10.2192 7.66791C9.91474 8.03064 8.88963 8.03064 8.6471 8.573C8.40805 9.11623 7.13866 9.35689 6.77486 9.41793C6.4128 9.47897 5.44789 9.65946 5.38595 9.96116C5.36065 10.0893 5.20885 10.1076 5.01953 10.085C5.04134 10.1661 5.06926 10.2384 5.08496 10.3291C5.33622 11.7059 5.92162 11.6658 6.5489 12.2099C7.17705 12.7514 7.71796 13.1691 8.38711 13.2118C9.05627 13.2537 10.0596 14.0445 10.1433 14.6314C10.2262 15.2156 10.8526 15.8844 11.2295 16.1774C11.6055 16.4686 11.1039 17.4722 11.1039 18.2238C11.1039 18.9755 10.1843 19.1438 10.645 19.8945C11.1039 20.647 14.3231 21.0211 15.2427 21.0211C16.1622 21.0211 16.4964 21.9 16.7755 21.9462C17.3539 22.0404 17.4325 22.7345 18.0903 22.8679C18.749 22.997 19.4059 23.3919 19.6694 24.5778C19.932 25.7584 20.7215 26.1534 20.8515 26.6801C20.9841 27.2068 22.4332 26.8109 23.4845 26.9434C24.5367 27.0751 27.5631 26.9434 28.3527 27.0751C29.1414 27.2059 30.9839 27.0751 32.0361 27.8634C33.0891 28.6507 33.616 27.9933 34.273 28.3891C34.9317 28.7824 35.4551 29.0466 36.3764 28.9149C37.2986 28.7833 37.2977 29.5733 37.9555 29.7041C38.6125 29.8366 39.7981 28.6516 41.5089 27.8642C43.2171 27.076 45.1915 27.6009 46.1119 27.7343C47.0332 27.8642 48.7422 27.3393 49.7944 26.1534C50.8492 24.9719 52.163 25.2327 52.2957 24.1819C52.4265 23.1304 51.2435 22.7354 51.7687 21.8137C52.2957 20.8947 53.2161 21.0254 53.7439 21.2897C54.2682 21.5512 55.7173 21.9462 57.0329 21.0246C58.3486 20.1047 58.8746 20.2372 60.0585 20.1047C61.2424 19.9721 61.1107 19.1839 61.9002 18.3947C62.6898 17.6065 63.6102 17.3423 64.3997 17.3423C65.1893 17.3423 66.2406 16.5532 67.031 16.8165C67.8205 17.0798 69.0036 17.2106 69.137 16.5523C69.2662 15.8957 67.161 14.5791 66.5032 13.7899Z" stroke="#868686" stroke-width="0.25"/>
</g>
<defs>
<filter id="filter0_d_877_3258" x="0.851562" y="0.212891" width="72.416" height="35.626" filterUnits="userSpaceOnUse" color-interpolation-filters="sRGB">
<feFlood flood-opacity="0" result="BackgroundImageFix"/>
<feColorMatrix in="SourceAlpha" type="matrix" values="0 0 0 0 0 0 0 0 0 0 0 0 0 0 0 0 0 0 127 0" result="hardAlpha"/>
<feOffset dy="2"/>
<feGaussianBlur stdDeviation="2"/>
<feColorMatrix type="matrix" values="0 0 0 0 0 0 0 0 0 0 0 0 0 0 0 0 0 0 0.01 0"/>
<feBlend mode="normal" in2="BackgroundImageFix" result="effect1_dropShadow_877_3258"/>
<feBlend mode="normal" in="SourceGraphic" in2="effect1_dropShadow_877_3258" result="shape"/>
</filter>
</defs>
</svg>
