<svg width="16" height="22" viewBox="0 0 16 22" fill="none" xmlns="http://www.w3.org/2000/svg">
<g filter="url(#filter0_d_877_3284)">
<path fill-rule="evenodd" clip-rule="evenodd" d="M9.87835 13.0819C10.6853 12.9362 9.65675 12.2744 9.43603 12.0547C9.2153 11.8341 9.50931 10.9525 9.95076 10.9525C10.3905 10.9525 9.95076 10.439 9.36187 9.84951C8.77473 9.26181 9.36187 9.04294 9.87748 9.04294C10.3905 9.04294 9.73004 8.16139 10.2422 7.64606C10.7569 7.13161 10.0956 6.17856 10.0956 5.73735C10.0956 5.29875 10.831 5.15052 11.4199 4.56369C12.0071 3.97512 10.9061 4.19572 10.9061 3.75538C10.9061 3.31504 10.1697 3.16681 9.65675 3.53565C9.14115 3.90361 9.28946 3.53565 8.84801 3.53565C8.40656 3.53565 7.59869 3.68301 7.59869 3.24093C7.59869 2.79797 7.2314 2.72821 6.86498 3.16681C6.75679 3.2976 6.57184 3.36649 6.32145 3.39875C6.26736 3.97424 6.20804 4.5105 6.37642 4.78255C6.76814 5.41646 5.89222 8.76566 5.1079 9.67075C4.32271 10.5758 5.07911 10.8183 5.89222 11.4522C6.70794 12.0861 6.16529 14.3793 6.16529 14.9217C6.16529 15.4658 6.8894 15.3149 7.73479 15.3149C8.23818 15.3149 8.80701 15.0909 9.36536 14.9932C9.20047 14.7412 9.06874 14.4936 9.06874 14.3296C9.06874 13.8893 9.06874 13.2292 9.87835 13.0819Z" fill="white"/>
<path fill-rule="evenodd" clip-rule="evenodd" d="M9.87835 13.0819C10.6853 12.9362 9.65675 12.2744 9.43603 12.0547C9.2153 11.8341 9.50931 10.9525 9.95076 10.9525C10.3905 10.9525 9.95076 10.439 9.36187 9.84951C8.77473 9.26181 9.36187 9.04294 9.87748 9.04294C10.3905 9.04294 9.73004 8.16139 10.2422 7.64606C10.7569 7.13161 10.0956 6.17856 10.0956 5.73735C10.0956 5.29875 10.831 5.15052 11.4199 4.56369C12.0071 3.97512 10.9061 4.19572 10.9061 3.75538C10.9061 3.31504 10.1697 3.16681 9.65675 3.53565C9.14115 3.90361 9.28946 3.53565 8.84801 3.53565C8.40656 3.53565 7.59869 3.68301 7.59869 3.24093C7.59869 2.79797 7.2314 2.72821 6.86498 3.16681C6.75679 3.2976 6.57184 3.36649 6.32145 3.39875C6.26736 3.97424 6.20804 4.5105 6.37642 4.78255C6.76814 5.41646 5.89222 8.76566 5.1079 9.67075C4.32271 10.5758 5.07911 10.8183 5.89222 11.4522C6.70794 12.0861 6.16529 14.3793 6.16529 14.9217C6.16529 15.4658 6.8894 15.3149 7.73479 15.3149C8.23818 15.3149 8.80701 15.0909 9.36536 14.9932C9.20047 14.7412 9.06874 14.4936 9.06874 14.3296C9.06874 13.8893 9.06874 13.2292 9.87835 13.0819Z" stroke="#868686" stroke-width="0.25"/>
</g>
<defs>
<filter id="filter0_d_877_3284" x="0.652344" y="0.746094" width="15.0645" height="20.7129" filterUnits="userSpaceOnUse" color-interpolation-filters="sRGB">
<feFlood flood-opacity="0" result="BackgroundImageFix"/>
<feColorMatrix in="SourceAlpha" type="matrix" values="0 0 0 0 0 0 0 0 0 0 0 0 0 0 0 0 0 0 127 0" result="hardAlpha"/>
<feOffset dy="2"/>
<feGaussianBlur stdDeviation="2"/>
<feColorMatrix type="matrix" values="0 0 0 0 0 0 0 0 0 0 0 0 0 0 0 0 0 0 0.01 0"/>
<feBlend mode="normal" in2="BackgroundImageFix" result="effect1_dropShadow_877_3284"/>
<feBlend mode="normal" in="SourceGraphic" in2="effect1_dropShadow_877_3284" result="shape"/>
</filter>
</defs>
</svg>
