<svg width="52" height="50" viewBox="0 0 52 50" fill="none" xmlns="http://www.w3.org/2000/svg">
<g filter="url(#filter0_d_877_3224)">
<path fill-rule="evenodd" clip-rule="evenodd" d="M19.0945 10.7626C19.0945 11.5613 18.8267 12.5597 19.2271 12.626C19.6276 12.6922 19.9608 13.6906 20.0271 14.022C20.0935 14.3559 19.9608 14.8224 19.5613 14.8224C19.1617 14.8224 16.5662 14.5547 16.5662 14.955C16.5662 15.3535 15.9651 15.6866 15.3658 15.6866C14.7673 15.6866 14.7673 15.5549 14.7001 16.2193C14.6338 16.8846 14.8336 17.4819 14.4349 17.4819C14.0344 17.4819 14.1025 18.0147 13.5031 18.0801C12.9038 18.1481 11.972 18.0156 11.972 18.6137C11.972 19.2136 11.5724 19.6793 10.9068 19.8118C10.2402 19.9452 9.10868 19.6793 9.10868 20.2111C9.10868 20.7422 8.24323 20.3437 7.77823 20.6088C7.31148 20.8756 4.58164 22.4721 4.51534 22.7398C4.48219 22.8671 4.52842 24.1864 4.56158 25.5223C4.63224 25.6417 4.74479 25.7638 4.96202 25.8885C5.96793 26.4622 24.2017 38.5179 24.7775 39.0934C25.3525 39.6654 26.0679 40.9577 26.0679 40.9577C26.0679 40.9577 27.3608 41.1016 28.3667 41.6753C29.3717 42.2499 29.3709 43.8282 29.3709 43.8282C29.3709 43.8282 30.6629 43.5404 31.3818 43.3983C32.0998 43.2535 34.5409 42.3929 34.5409 42.3929L38.2732 39.3812L47.0332 33.9262C47.0332 33.9262 47.0419 33.9262 47.055 33.9262C46.7846 32.9609 46.4941 32.1849 46.0256 32.1849C45.4986 32.1849 45.1226 31.735 44.5198 31.735C43.9178 31.735 43.1631 31.4333 43.0881 30.9049C43.0131 30.3791 43.3132 30.0015 42.8613 29.3249C42.4102 28.6474 41.9574 28.3457 41.9574 28.044C41.9574 27.7423 42.7234 27.1554 42.8447 27.0351C42.9651 26.9148 42.5411 26.4326 42.5411 26.0995C42.5411 25.7681 42.2401 25.1953 42.5411 24.8325C42.8447 24.4715 43.0253 24.1088 42.6929 23.4452C42.3614 22.7808 43.1474 22.1774 42.7531 21.3028C42.3605 20.4265 41.7576 19.7324 41.817 19.4316C41.8431 19.3034 42.0368 19.1604 42.2706 19.0035C42.1624 18.8596 42.0892 18.6835 42.0892 18.4664C42.0892 17.6214 41.4854 15.3273 41.1225 14.8451C40.7613 14.362 39.5521 13.9993 39.5521 13.6383C39.5521 13.2747 39.5521 12.6731 38.7067 12.3112C37.8622 11.9485 37.3798 10.1391 37.8622 10.1391C38.3456 10.1391 38.7067 9.05181 39.1909 8.81028C39.6743 8.56962 40.278 7.36283 39.7929 6.63823C39.4719 6.15429 39.6333 4.65191 39.8139 3.45209C39.0138 3.44599 38.1292 3.15563 37.891 3.07802C37.529 2.95769 36.4733 3.25939 35.8077 3.28816C35.1446 3.31868 33.514 4.37462 32.9714 3.86017C32.427 3.3492 26.8714 4.25342 25.3019 4.31359C23.7315 4.37462 23.0658 6.00432 22.1323 6.00432C21.1962 6.00432 19.7148 6.78821 18.9305 7.66365C18.7098 7.91042 18.4463 8.00285 18.1601 8.00633C18.2823 8.27926 18.3966 8.50771 18.496 8.63589C18.9619 9.23231 19.0945 9.96476 19.0945 10.7626Z" fill="white"/>
<path fill-rule="evenodd" clip-rule="evenodd" d="M19.0945 10.7626C19.0945 11.5613 18.8267 12.5597 19.2271 12.626C19.6276 12.6922 19.9608 13.6906 20.0271 14.022C20.0935 14.3559 19.9608 14.8224 19.5613 14.8224C19.1617 14.8224 16.5662 14.5547 16.5662 14.955C16.5662 15.3535 15.9651 15.6866 15.3658 15.6866C14.7673 15.6866 14.7673 15.5549 14.7001 16.2193C14.6338 16.8846 14.8336 17.4819 14.4349 17.4819C14.0344 17.4819 14.1025 18.0147 13.5031 18.0801C12.9038 18.1481 11.972 18.0156 11.972 18.6137C11.972 19.2136 11.5724 19.6793 10.9068 19.8118C10.2402 19.9452 9.10868 19.6793 9.10868 20.2111C9.10868 20.7422 8.24323 20.3437 7.77823 20.6088C7.31148 20.8756 4.58164 22.4721 4.51534 22.7398C4.48219 22.8671 4.52842 24.1864 4.56158 25.5223C4.63224 25.6417 4.74479 25.7638 4.96202 25.8885C5.96793 26.4622 24.2017 38.5179 24.7775 39.0934C25.3525 39.6654 26.0679 40.9577 26.0679 40.9577C26.0679 40.9577 27.3608 41.1016 28.3667 41.6753C29.3717 42.2499 29.3709 43.8282 29.3709 43.8282C29.3709 43.8282 30.6629 43.5404 31.3818 43.3983C32.0998 43.2535 34.5409 42.3929 34.5409 42.3929L38.2732 39.3812L47.0332 33.9262C47.0332 33.9262 47.0419 33.9262 47.055 33.9262C46.7846 32.9609 46.4941 32.1849 46.0256 32.1849C45.4986 32.1849 45.1226 31.735 44.5198 31.735C43.9178 31.735 43.1631 31.4333 43.0881 30.9049C43.0131 30.3791 43.3132 30.0015 42.8613 29.3249C42.4102 28.6474 41.9574 28.3457 41.9574 28.044C41.9574 27.7423 42.7234 27.1554 42.8447 27.0351C42.9651 26.9148 42.5411 26.4326 42.5411 26.0995C42.5411 25.7681 42.2401 25.1953 42.5411 24.8325C42.8447 24.4715 43.0253 24.1088 42.6929 23.4452C42.3614 22.7808 43.1474 22.1774 42.7531 21.3028C42.3605 20.4265 41.7576 19.7324 41.817 19.4316C41.8431 19.3034 42.0368 19.1604 42.2706 19.0035C42.1624 18.8596 42.0892 18.6835 42.0892 18.4664C42.0892 17.6214 41.4854 15.3273 41.1225 14.8451C40.7613 14.362 39.5521 13.9993 39.5521 13.6383C39.5521 13.2747 39.5521 12.6731 38.7067 12.3112C37.8622 11.9485 37.3798 10.1391 37.8622 10.1391C38.3456 10.1391 38.7067 9.05181 39.1909 8.81028C39.6743 8.56962 40.278 7.36283 39.7929 6.63823C39.4719 6.15429 39.6333 4.65191 39.8139 3.45209C39.0138 3.44599 38.1292 3.15563 37.891 3.07802C37.529 2.95769 36.4733 3.25939 35.8077 3.28816C35.1446 3.31868 33.514 4.37462 32.9714 3.86017C32.427 3.3492 26.8714 4.25342 25.3019 4.31359C23.7315 4.37462 23.0658 6.00432 22.1323 6.00432C21.1962 6.00432 19.7148 6.78821 18.9305 7.66365C18.7098 7.91042 18.4463 8.00285 18.1601 8.00633C18.2823 8.27926 18.3966 8.50771 18.496 8.63589C18.9619 9.23231 19.0945 9.96476 19.0945 10.7626Z" stroke="#868686" stroke-width="0.25"/>
</g>
<defs>
<filter id="filter0_d_877_3224" x="0.378906" y="0.924805" width="50.8418" height="49.0596" filterUnits="userSpaceOnUse" color-interpolation-filters="sRGB">
<feFlood flood-opacity="0" result="BackgroundImageFix"/>
<feColorMatrix in="SourceAlpha" type="matrix" values="0 0 0 0 0 0 0 0 0 0 0 0 0 0 0 0 0 0 127 0" result="hardAlpha"/>
<feOffset dy="2"/>
<feGaussianBlur stdDeviation="2"/>
<feColorMatrix type="matrix" values="0 0 0 0 0 0 0 0 0 0 0 0 0 0 0 0 0 0 0.01 0"/>
<feBlend mode="normal" in2="BackgroundImageFix" result="effect1_dropShadow_877_3224"/>
<feBlend mode="normal" in="SourceGraphic" in2="effect1_dropShadow_877_3224" result="shape"/>
</filter>
</defs>
</svg>
