<svg width="13" height="17" viewBox="0 0 13 17" fill="none" xmlns="http://www.w3.org/2000/svg">
<g filter="url(#filter0_d_877_3279)">
<path fill-rule="evenodd" clip-rule="evenodd" d="M7.48079 8.9804C7.93358 8.89059 7.66138 8.52872 7.97894 8.21133C8.29476 7.89568 8.65595 7.26177 8.70306 7.03506C8.7083 7.01064 8.72487 6.9932 8.74668 6.97838C8.13249 6.51711 7.70151 6.18577 7.56541 5.71142C7.42757 5.22749 7.56977 4.28228 7.78614 3.59343C7.43542 3.34405 6.35535 2.59766 6.01685 2.59766C5.68184 2.59766 5.16448 3.34318 5.03711 4.05993C5.82928 4.48196 6.14161 4.78279 5.59285 5.33038C5.02141 5.90413 4.89927 7.83464 5.53265 8.34736C6.13637 8.83652 6.30999 9.80614 6.89364 10.0817C7.05679 9.596 7.18154 9.04318 7.48079 8.9804Z" fill="white"/>
<path fill-rule="evenodd" clip-rule="evenodd" d="M7.48079 8.9804C7.93358 8.89059 7.66138 8.52872 7.97894 8.21133C8.29476 7.89568 8.65595 7.26177 8.70306 7.03506C8.7083 7.01064 8.72487 6.9932 8.74668 6.97838C8.13249 6.51711 7.70151 6.18577 7.56541 5.71142C7.42757 5.22749 7.56977 4.28228 7.78614 3.59343C7.43542 3.34405 6.35535 2.59766 6.01685 2.59766C5.68184 2.59766 5.16448 3.34318 5.03711 4.05993C5.82928 4.48196 6.14161 4.78279 5.59285 5.33038C5.02141 5.90413 4.89927 7.83464 5.53265 8.34736C6.13637 8.83652 6.30999 9.80614 6.89364 10.0817C7.05679 9.596 7.18154 9.04318 7.48079 8.9804Z" stroke="#868686" stroke-width="0.25"/>
</g>
<defs>
<filter id="filter0_d_877_3279" x="0.898438" y="0.472656" width="12.0625" height="15.7822" filterUnits="userSpaceOnUse" color-interpolation-filters="sRGB">
<feFlood flood-opacity="0" result="BackgroundImageFix"/>
<feColorMatrix in="SourceAlpha" type="matrix" values="0 0 0 0 0 0 0 0 0 0 0 0 0 0 0 0 0 0 127 0" result="hardAlpha"/>
<feOffset dy="2"/>
<feGaussianBlur stdDeviation="2"/>
<feColorMatrix type="matrix" values="0 0 0 0 0 0 0 0 0 0 0 0 0 0 0 0 0 0 0.01 0"/>
<feBlend mode="normal" in2="BackgroundImageFix" result="effect1_dropShadow_877_3279"/>
<feBlend mode="normal" in="SourceGraphic" in2="effect1_dropShadow_877_3279" result="shape"/>
</filter>
</defs>
</svg>
