<svg width="28" height="28" viewBox="0 0 28 28" fill="none" xmlns="http://www.w3.org/2000/svg">
<g filter="url(#filter0_d_877_3212)">
<path fill-rule="evenodd" clip-rule="evenodd" d="M21.8408 10.1985C21.2205 10.2203 20.4126 9.38319 20.4126 8.77107C20.4126 8.15808 19.5943 7.64886 19.5943 7.23904C19.5943 6.83009 18.2673 6.11683 17.5511 5.81164C16.8357 5.50384 16.7345 3.36056 16.4291 3.36056C16.1979 3.36056 15.5671 2.72927 15.2653 2.19824C14.7619 2.31944 14.2219 2.4607 13.893 2.4607C13.2892 2.4607 12.6838 3.06497 12.443 3.36667C12.2013 3.67011 11.7197 2.82257 11.3577 2.58365C10.9947 2.34124 9.48543 3.12688 9.06143 3.24721C8.63918 3.36928 7.12987 3.487 7.12987 3.487C7.12987 3.487 7.12987 9.7032 7.12987 10.488C7.12987 11.2736 5.07617 10.7914 5.07617 11.2736C5.07617 11.4977 5.07617 14.288 5.07617 17.2762C5.52024 17.4366 5.94075 17.6511 6.04282 17.9118C6.28449 18.5143 6.82801 19.8441 6.70674 20.2042C6.58635 20.5678 6.28536 20.3263 6.28536 20.6881C6.28536 21.0509 6.0437 21.5941 6.64829 21.5941C7.25027 21.5941 8.27712 21.9551 8.70025 21.4712C9.1225 20.9898 10.5123 19.9025 10.5734 19.3593C10.6327 18.8169 10.9337 17.611 11.9596 18.2754C12.9882 18.9372 13.0493 19.0584 14.3772 19.0584C15.7059 19.0584 16.0679 18.9965 16.3087 18.1534C16.5512 17.3067 16.3096 16.6449 17.0939 16.6449C17.8791 16.6449 18.8449 15.9185 18.8449 15.377C18.8449 14.8329 19.2069 13.9897 19.6911 13.9897C20.1744 13.9897 21.1996 13.3855 21.3217 12.7803C21.4421 12.1769 22.2875 12.4193 22.5893 12.0575C22.7368 11.8805 23.0299 11.4576 23.2908 11.0713C23.2908 11.0678 23.2829 11.0661 23.2829 11.0661C23.2812 10.6998 23.1459 10.1557 21.8408 10.1985Z" fill="white"/>
<path fill-rule="evenodd" clip-rule="evenodd" d="M21.8408 10.1985C21.2205 10.2203 20.4126 9.38319 20.4126 8.77107C20.4126 8.15808 19.5943 7.64886 19.5943 7.23904C19.5943 6.83009 18.2673 6.11683 17.5511 5.81164C16.8357 5.50384 16.7345 3.36056 16.4291 3.36056C16.1979 3.36056 15.5671 2.72927 15.2653 2.19824C14.7619 2.31944 14.2219 2.4607 13.893 2.4607C13.2892 2.4607 12.6838 3.06497 12.443 3.36667C12.2013 3.67011 11.7197 2.82257 11.3577 2.58365C10.9947 2.34124 9.48543 3.12688 9.06143 3.24721C8.63918 3.36928 7.12987 3.487 7.12987 3.487C7.12987 3.487 7.12987 9.7032 7.12987 10.488C7.12987 11.2736 5.07617 10.7914 5.07617 11.2736C5.07617 11.4977 5.07617 14.288 5.07617 17.2762C5.52024 17.4366 5.94075 17.6511 6.04282 17.9118C6.28449 18.5143 6.82801 19.8441 6.70674 20.2042C6.58635 20.5678 6.28536 20.3263 6.28536 20.6881C6.28536 21.0509 6.0437 21.5941 6.64829 21.5941C7.25027 21.5941 8.27712 21.9551 8.70025 21.4712C9.1225 20.9898 10.5123 19.9025 10.5734 19.3593C10.6327 18.8169 10.9337 17.611 11.9596 18.2754C12.9882 18.9372 13.0493 19.0584 14.3772 19.0584C15.7059 19.0584 16.0679 18.9965 16.3087 18.1534C16.5512 17.3067 16.3096 16.6449 17.0939 16.6449C17.8791 16.6449 18.8449 15.9185 18.8449 15.377C18.8449 14.8329 19.2069 13.9897 19.6911 13.9897C20.1744 13.9897 21.1996 13.3855 21.3217 12.7803C21.4421 12.1769 22.2875 12.4193 22.5893 12.0575C22.7368 11.8805 23.0299 11.4576 23.2908 11.0713C23.2908 11.0678 23.2829 11.0661 23.2829 11.0661C23.2812 10.6998 23.1459 10.1557 21.8408 10.1985Z" stroke="#868686" stroke-width="0.25"/>
</g>
<defs>
<filter id="filter0_d_877_3212" x="0.951172" y="0.0546875" width="26.4648" height="27.7939" filterUnits="userSpaceOnUse" color-interpolation-filters="sRGB">
<feFlood flood-opacity="0" result="BackgroundImageFix"/>
<feColorMatrix in="SourceAlpha" type="matrix" values="0 0 0 0 0 0 0 0 0 0 0 0 0 0 0 0 0 0 127 0" result="hardAlpha"/>
<feOffset dy="2"/>
<feGaussianBlur stdDeviation="2"/>
<feColorMatrix type="matrix" values="0 0 0 0 0 0 0 0 0 0 0 0 0 0 0 0 0 0 0.01 0"/>
<feBlend mode="normal" in2="BackgroundImageFix" result="effect1_dropShadow_877_3212"/>
<feBlend mode="normal" in="SourceGraphic" in2="effect1_dropShadow_877_3212" result="shape"/>
</filter>
</defs>
</svg>
