<svg width="16" height="12" viewBox="0 0 16 12" fill="none" xmlns="http://www.w3.org/2000/svg">
<g filter="url(#filter0_d_877_3551)">
<path fill-rule="evenodd" clip-rule="evenodd" d="M5.03173 4.41766C4.79792 4.43597 4.5772 4.49439 4.37305 4.57985C4.57894 4.8144 4.87033 5.08035 5.04046 4.94781C5.18004 4.83969 5.26031 4.58944 5.34144 4.36447C5.25507 4.38278 5.16696 4.40022 5.06925 4.40981C5.05703 4.41069 5.04656 4.41592 5.03173 4.41766ZM7.93082 2.84901C7.11422 2.80715 6.78793 3.48031 6.18247 3.95901C6.12576 4.00261 6.06469 4.04272 6.00449 4.08283C6.21736 4.24065 6.45903 4.49963 6.64922 4.76296C7.81827 4.06801 10.7959 3.20302 10.952 2.78797C11.1326 2.30665 9.14001 2.90656 7.93082 2.84901Z" fill="white"/>
<path d="M5.03173 4.41766L5.0415 4.54237L5.04633 4.54181L5.03173 4.41766ZM4.37305 4.57985L4.32478 4.46454L4.16442 4.53166L4.27911 4.66231L4.37305 4.57985ZM5.04046 4.94781L4.96391 4.84899L4.96363 4.84921L5.04046 4.94781ZM5.34144 4.36447L5.45903 4.40688L5.53523 4.19561L5.31552 4.24219L5.34144 4.36447ZM5.06925 4.40981L5.07815 4.53454L5.08146 4.53422L5.06925 4.40981ZM7.93082 2.84901L7.92442 2.97384L7.92487 2.97387L7.93082 2.84901ZM6.18247 3.95901L6.25866 4.05812L6.25999 4.05707L6.18247 3.95901ZM6.00449 4.08283L5.93518 3.97881L5.78725 4.07737L5.93005 4.18324L6.00449 4.08283ZM6.64922 4.76296L6.54788 4.83615L6.61482 4.92882L6.71309 4.87041L6.64922 4.76296ZM10.952 2.78797L11.069 2.83199L11.0691 2.83188L10.952 2.78797ZM5.02197 4.29304C4.77352 4.3125 4.53983 4.37453 4.32478 4.46454L4.42131 4.69515C4.61456 4.61426 4.82232 4.55944 5.04149 4.54228L5.02197 4.29304ZM4.27911 4.66231C4.3841 4.78192 4.51722 4.91716 4.65123 5.00576C4.71803 5.04993 4.79305 5.08795 4.87087 5.10218C4.95246 5.1171 5.04084 5.10597 5.11728 5.04642L4.96363 4.84921C4.95501 4.85593 4.94317 4.86125 4.91584 4.85626C4.88475 4.85057 4.84215 4.83229 4.7891 4.79722C4.68341 4.72734 4.56789 4.61233 4.46699 4.49738L4.27911 4.66231ZM5.117 5.04664C5.21162 4.97334 5.27687 4.86056 5.32655 4.75195C5.37699 4.64165 5.41976 4.51578 5.45903 4.40688L5.22386 4.32206C5.182 4.43813 5.14406 4.54987 5.0992 4.64797C5.05356 4.74776 5.00888 4.81416 4.96391 4.84899L5.117 5.04664ZM5.31552 4.24219C5.23002 4.26032 5.14751 4.27653 5.05703 4.28541L5.08146 4.53422C5.18641 4.52391 5.28013 4.50525 5.36737 4.48675L5.31552 4.24219ZM5.06035 4.28513C5.04022 4.28657 5.02316 4.29157 5.0186 4.29281C5.01175 4.29468 5.01398 4.29389 5.01713 4.29352L5.04633 4.54181C5.06432 4.53969 5.07919 4.53541 5.08434 4.53401C5.08771 4.53309 5.08765 4.53314 5.087 4.53328C5.08591 4.53352 5.0827 4.53417 5.07815 4.5345L5.06035 4.28513ZM7.93722 2.72417C7.48596 2.70104 7.1699 2.87858 6.89599 3.114C6.76149 3.2296 6.63392 3.36202 6.50742 3.48978C6.37925 3.61923 6.24989 3.74636 6.10494 3.86096L6.25999 4.05707C6.41778 3.93231 6.55625 3.79578 6.68507 3.66568C6.81556 3.5339 6.93411 3.41089 7.05895 3.3036C7.3037 3.09323 7.55908 2.95512 7.92442 2.97384L7.93722 2.72417ZM6.10628 3.85991C6.0537 3.90034 5.99673 3.93779 5.93518 3.97881L6.0738 4.18685C6.13264 4.14765 6.19782 4.10488 6.25866 4.05811L6.10628 3.85991ZM5.93005 4.18324C6.12977 4.33132 6.36281 4.5799 6.54788 4.83615L6.75055 4.68977C6.55525 4.41936 6.30496 4.14999 6.07894 3.98242L5.93005 4.18324ZM6.71309 4.87041C7.28623 4.5297 8.30939 4.14447 9.22589 3.78696C9.68038 3.60967 10.1077 3.43944 10.4315 3.28703C10.5931 3.21095 10.7329 3.13749 10.8388 3.068C10.8918 3.03326 10.9391 2.99769 10.9772 2.96129C11.014 2.92612 11.0498 2.88307 11.069 2.83199L10.8351 2.74395C10.8352 2.74356 10.834 2.74681 10.8289 2.75375C10.8238 2.7606 10.816 2.76955 10.8045 2.78053C10.7812 2.80275 10.7474 2.829 10.7017 2.85899C10.6103 2.91896 10.4827 2.9866 10.325 3.06084C10.0101 3.20906 9.59061 3.37634 9.13504 3.55405C8.23144 3.90653 7.18126 4.30127 6.58534 4.65551L6.71309 4.87041ZM11.0691 2.83188C11.0859 2.78697 11.095 2.73546 11.0831 2.6825C11.0706 2.62717 11.0385 2.58472 10.9988 2.55488C10.928 2.50161 10.8279 2.48421 10.7347 2.47783C10.5398 2.46449 10.2573 2.49464 9.94626 2.53565C9.31003 2.61952 8.52671 2.75223 7.93676 2.72415L7.92487 2.97387C8.54411 3.00334 9.3617 2.86487 9.97893 2.7835C10.2946 2.74189 10.552 2.71591 10.7177 2.72725C10.8048 2.73322 10.8402 2.74837 10.8485 2.75464C10.8491 2.75505 10.8472 2.75375 10.8448 2.75022C10.8422 2.74647 10.8402 2.74196 10.8392 2.73744C10.8372 2.7286 10.8407 2.72881 10.835 2.74406L11.0691 2.83188Z" fill="#868686"/>
</g>
<defs>
<filter id="filter0_d_877_3551" x="0.164062" y="0.474609" width="14.9238" height="10.6338" filterUnits="userSpaceOnUse" color-interpolation-filters="sRGB">
<feFlood flood-opacity="0" result="BackgroundImageFix"/>
<feColorMatrix in="SourceAlpha" type="matrix" values="0 0 0 0 0 0 0 0 0 0 0 0 0 0 0 0 0 0 127 0" result="hardAlpha"/>
<feOffset dy="2"/>
<feGaussianBlur stdDeviation="2"/>
<feColorMatrix type="matrix" values="0 0 0 0 0 0 0 0 0 0 0 0 0 0 0 0 0 0 0.01 0"/>
<feBlend mode="normal" in2="BackgroundImageFix" result="effect1_dropShadow_877_3551"/>
<feBlend mode="normal" in="SourceGraphic" in2="effect1_dropShadow_877_3551" result="shape"/>
</filter>
</defs>
</svg>
