<svg width="34" height="37" viewBox="0 0 34 37" fill="none" xmlns="http://www.w3.org/2000/svg">
<g filter="url(#filter0_d_877_3330)">
<path fill-rule="evenodd" clip-rule="evenodd" d="M29.4998 19.283C29.197 18.3771 28.2932 18.255 28.2932 17.2915C28.2932 16.3253 27.9294 16.2059 26.6016 16.2634C25.2737 16.3245 24.4275 16.0228 24.3673 15.238C24.3071 14.4533 23.521 13.849 24.1265 13.5482C24.7293 13.2473 23.7025 12.7041 23.8237 11.9786C23.9433 11.2549 23.4617 10.9523 23.0394 10.5913C22.6163 10.2295 20.8034 10.7727 20.8034 10.1074C20.8034 9.44385 19.7172 9.32352 19.1144 9.32352C18.5106 9.32352 18.9329 8.5405 18.2681 8.60066C17.6042 8.65821 17.7246 8.17689 16.8181 8.29809C15.9117 8.41842 15.369 7.99552 14.4032 6.84889C13.4375 5.70314 13.557 3.46918 13.7384 2.86491C13.9199 2.26239 12.5921 2.74633 11.8078 2.74633C11.0217 2.74633 10.2365 3.34798 9.39025 3.83279C8.54574 4.31673 8.06328 4.31498 7.64015 4.73614C7.21615 5.15817 6.55311 5.40057 5.89006 5.15817C5.70423 5.0919 5.46518 5.03871 5.20607 5.00383C5.5629 5.89323 6.42311 7.3494 6.61418 7.87519C6.85584 8.53962 6.31231 8.72012 6.07065 8.96078C5.82899 9.20057 6.19017 11.3744 6.25124 11.8574C6.31144 12.3396 5.40499 13.2465 5.76705 13.5473C6.12998 13.849 5.28459 14.7558 5.28459 15.2982C5.28459 15.8423 6.06978 15.8423 6.06978 16.2626C6.06978 16.6863 5.40411 17.6516 4.98273 17.8923C4.76026 18.0196 4.7559 18.3614 4.80999 18.7311C4.93649 18.6892 5.02548 19.2386 5.64578 19.7024C6.37077 20.2465 5.52538 21.1516 6.1291 21.8745C6.73283 22.5991 7.39762 22.661 6.97536 23.0229C6.55223 23.3856 7.03469 24.1076 6.55223 24.4694C6.06978 24.8339 6.7337 25.9204 7.27722 26.161C7.82075 26.4017 7.45869 27.4873 8.00221 28.0314C8.54574 28.5729 8.30407 29.8425 8.48467 30.2645C8.66613 30.6865 10.2967 29.6628 11.2634 28.6357C12.23 27.6094 12.1698 28.4543 13.0754 28.5738C13.981 28.6958 15.0078 28.6958 15.4301 29.5408C15.8532 30.3857 16.3357 28.695 16.6375 28.3331C16.9403 27.9721 18.9922 28.4543 19.3551 28.3331C19.7172 28.2119 20.0191 25.6196 19.9589 25.1949C19.8987 24.772 20.8034 23.7466 21.5284 23.2644C22.2534 22.7796 23.4006 23.1441 24.0052 22.8406C24.608 22.5389 25.5145 22.5991 26.3608 22.5991C27.2053 22.5991 27.8099 23.4466 28.2932 23.4466C28.7756 23.4466 29.3802 22.6619 29.259 21.9373C29.1377 21.2127 29.8025 20.1873 29.4998 19.283Z" fill="white"/>
<path fill-rule="evenodd" clip-rule="evenodd" d="M29.4998 19.283C29.197 18.3771 28.2932 18.255 28.2932 17.2915C28.2932 16.3253 27.9294 16.2059 26.6016 16.2634C25.2737 16.3245 24.4275 16.0228 24.3673 15.238C24.3071 14.4533 23.521 13.849 24.1265 13.5482C24.7293 13.2473 23.7025 12.7041 23.8237 11.9786C23.9433 11.2549 23.4617 10.9523 23.0394 10.5913C22.6163 10.2295 20.8034 10.7727 20.8034 10.1074C20.8034 9.44385 19.7172 9.32352 19.1144 9.32352C18.5106 9.32352 18.9329 8.5405 18.2681 8.60066C17.6042 8.65821 17.7246 8.17689 16.8181 8.29809C15.9117 8.41842 15.369 7.99552 14.4032 6.84889C13.4375 5.70314 13.557 3.46918 13.7384 2.86491C13.9199 2.26239 12.5921 2.74633 11.8078 2.74633C11.0217 2.74633 10.2365 3.34798 9.39025 3.83279C8.54574 4.31673 8.06328 4.31498 7.64015 4.73614C7.21615 5.15817 6.55311 5.40057 5.89006 5.15817C5.70423 5.0919 5.46518 5.03871 5.20607 5.00383C5.5629 5.89323 6.42311 7.3494 6.61418 7.87519C6.85584 8.53962 6.31231 8.72012 6.07065 8.96078C5.82899 9.20057 6.19017 11.3744 6.25124 11.8574C6.31144 12.3396 5.40499 13.2465 5.76705 13.5473C6.12998 13.849 5.28459 14.7558 5.28459 15.2982C5.28459 15.8423 6.06978 15.8423 6.06978 16.2626C6.06978 16.6863 5.40411 17.6516 4.98273 17.8923C4.76026 18.0196 4.7559 18.3614 4.80999 18.7311C4.93649 18.6892 5.02548 19.2386 5.64578 19.7024C6.37077 20.2465 5.52538 21.1516 6.1291 21.8745C6.73283 22.5991 7.39762 22.661 6.97536 23.0229C6.55223 23.3856 7.03469 24.1076 6.55223 24.4694C6.06978 24.8339 6.7337 25.9204 7.27722 26.161C7.82075 26.4017 7.45869 27.4873 8.00221 28.0314C8.54574 28.5729 8.30407 29.8425 8.48467 30.2645C8.66613 30.6865 10.2967 29.6628 11.2634 28.6357C12.23 27.6094 12.1698 28.4543 13.0754 28.5738C13.981 28.6958 15.0078 28.6958 15.4301 29.5408C15.8532 30.3857 16.3357 28.695 16.6375 28.3331C16.9403 27.9721 18.9922 28.4543 19.3551 28.3331C19.7172 28.2119 20.0191 25.6196 19.9589 25.1949C19.8987 24.772 20.8034 23.7466 21.5284 23.2644C22.2534 22.7796 23.4006 23.1441 24.0052 22.8406C24.608 22.5389 25.5145 22.5991 26.3608 22.5991C27.2053 22.5991 27.8099 23.4466 28.2932 23.4466C28.7756 23.4466 29.3802 22.6619 29.259 21.9373C29.1377 21.2127 29.8025 20.1873 29.4998 19.283Z" stroke="#868686" stroke-width="0.25"/>
</g>
<defs>
<filter id="filter0_d_877_3330" x="0.65625" y="0.4375" width="33.0488" height="36.0498" filterUnits="userSpaceOnUse" color-interpolation-filters="sRGB">
<feFlood flood-opacity="0" result="BackgroundImageFix"/>
<feColorMatrix in="SourceAlpha" type="matrix" values="0 0 0 0 0 0 0 0 0 0 0 0 0 0 0 0 0 0 127 0" result="hardAlpha"/>
<feOffset dy="2"/>
<feGaussianBlur stdDeviation="2"/>
<feColorMatrix type="matrix" values="0 0 0 0 0 0 0 0 0 0 0 0 0 0 0 0 0 0 0.01 0"/>
<feBlend mode="normal" in2="BackgroundImageFix" result="effect1_dropShadow_877_3330"/>
<feBlend mode="normal" in="SourceGraphic" in2="effect1_dropShadow_877_3330" result="shape"/>
</filter>
</defs>
</svg>
