<svg width="22" height="26" viewBox="0 0 22 26" fill="none" xmlns="http://www.w3.org/2000/svg">
<g filter="url(#filter0_d_877_3400)">
<path fill-rule="evenodd" clip-rule="evenodd" d="M17.6772 2.74023C17.2235 2.78819 16.5954 2.95648 16.6966 3.21109C16.8178 3.51192 16.393 3.69329 15.9122 3.69329C15.9122 3.69329 14.2206 3.57383 13.7373 3.33142C13.3717 3.14918 11.7577 3.24248 10.997 3.29916C10.9935 3.32968 10.9821 3.35933 10.9586 3.39159C10.778 3.66277 9.32889 4.40044 9.05582 4.26529C8.78536 4.13101 8.64839 4.71958 8.10574 4.85386C7.56221 4.98989 6.74649 4.80852 6.70287 5.0361C6.65576 5.26281 6.29457 5.89586 5.97875 6.21238C5.66119 6.52977 5.93251 6.89163 5.4806 6.98144C5.18135 7.04335 5.05747 7.59705 4.89258 8.0836C4.92224 8.0993 4.94929 8.12022 4.98157 8.13069C5.64549 8.33996 6.15935 9.12734 6.06861 9.87984C5.97875 10.635 7.03439 10.9087 7.51772 10.3629C8.00017 9.82142 9.35942 10.6672 9.35942 11.0282C9.35942 11.3901 7.97051 10.6358 7.18445 11.2096C6.40101 11.7825 7.78817 12.3248 7.60845 12.93C7.42612 13.5333 7.97051 14.3765 8.66497 14.3486C9.36029 14.319 10.1437 15.4647 10.5669 15.2529C10.9909 15.0427 10.0547 13.4427 10.2057 13.2011C10.3575 12.9596 11.2011 13.624 11.6234 13.1401C12.0474 12.6579 11.3224 12.296 10.689 12.3248C10.0547 12.3553 10.6585 11.4808 11.414 11.9333C12.1669 12.385 12.5307 11.813 12.891 11.7511C13.2531 11.6909 13.3447 10.3943 12.2271 10.0926C11.1121 9.79177 11.2613 10.9096 10.5363 10.151C9.81221 9.39939 11.2011 9.69847 11.2011 9.0663C11.2011 8.43238 10.0844 7.52642 9.54001 6.77217C8.99823 6.01967 10.2964 5.65694 10.5974 6.20104C10.9001 6.74253 11.7141 6.65359 12.228 6.44083C12.7436 6.23069 11.6844 5.26368 12.6197 4.90095C13.5567 4.53909 13.5567 5.17387 13.8594 5.2942C14.1604 5.41453 14.4326 4.53909 15.3984 4.53909C15.9009 4.53909 16.3467 4.87217 16.7777 5.19393C17.0403 4.90531 17.2549 4.73877 17.2549 4.49287C17.2549 4.17722 17.8447 4.03945 17.8447 3.54244C17.8429 3.30265 17.7496 3.00182 17.6772 2.74023ZM15.9724 17.9673C15.4882 17.697 13.315 18.1478 12.7427 17.6063C12.1678 17.063 10.997 18.0335 11.503 18.1181C12.2271 18.2393 13.315 18.8724 14.4919 18.902C15.6706 18.9334 17.2697 18.3596 17.241 18.0571C17.2104 17.7554 16.4558 18.2393 15.9724 17.9673Z" fill="white"/>
<path d="M17.6772 2.74023L17.7976 2.70689L17.7694 2.60479L17.664 2.61593L17.6772 2.74023ZM16.6966 3.21109L16.5804 3.25726L16.5806 3.25783L16.6966 3.21109ZM15.9122 3.69329L15.9034 3.81829H15.9122V3.69329ZM13.7373 3.33142L13.7933 3.21969L13.793 3.21955L13.7373 3.33142ZM10.997 3.29916L10.9877 3.17451L10.8845 3.18219L10.8728 3.28496L10.997 3.29916ZM10.9586 3.39159L10.8575 3.31781L10.8545 3.3223L10.9586 3.39159ZM9.05582 4.26529L9.00023 4.37725L9.00037 4.37732L9.05582 4.26529ZM8.10574 4.85386L8.07571 4.73252L8.07539 4.7326L8.10574 4.85386ZM6.70287 5.0361L6.82527 5.06154L6.82564 5.05963L6.70287 5.0361ZM5.97875 6.21238L6.06712 6.30079L6.06724 6.30067L5.97875 6.21238ZM5.4806 6.98144L5.45623 6.85884L5.45527 6.85904L5.4806 6.98144ZM4.89258 8.0836L4.77419 8.04348L4.74002 8.1443L4.83412 8.19409L4.89258 8.0836ZM4.98157 8.13069L4.94302 8.2496L4.94399 8.2499L4.98157 8.13069ZM6.06861 9.87984L5.94451 9.86487L5.94449 9.86507L6.06861 9.87984ZM7.51772 10.3629L7.42439 10.2797L7.42414 10.28L7.51772 10.3629ZM7.18445 11.2096L7.11076 11.1086L7.11067 11.1087L7.18445 11.2096ZM7.60845 12.93L7.72811 12.9661L7.72828 12.9655L7.60845 12.93ZM8.66497 14.3486L8.66998 14.4735L8.67029 14.4735L8.66497 14.3486ZM10.5669 15.2529L10.5114 15.1409L10.5109 15.1411L10.5669 15.2529ZM10.2057 13.2011L10.0998 13.1346L10.0997 13.1349L10.2057 13.2011ZM11.6234 13.1401L11.5295 13.0575L11.5292 13.0579L11.6234 13.1401ZM10.689 12.3248L10.6833 12.1999L10.683 12.2L10.689 12.3248ZM11.414 11.9333L11.4783 11.8261L11.4782 11.8261L11.414 11.9333ZM12.891 11.7511L12.8705 11.6278L12.8699 11.6279L12.891 11.7511ZM12.2271 10.0926L12.2597 9.97192L12.2597 9.97191L12.2271 10.0926ZM10.5363 10.151L10.6267 10.0647L10.6263 10.0643L10.5363 10.151ZM9.54001 6.77217L9.43857 6.84521L9.43866 6.84533L9.54001 6.77217ZM10.5974 6.20104L10.488 6.26155L10.4883 6.26204L10.5974 6.20104ZM12.228 6.44083L12.1808 6.32507L12.1802 6.32534L12.228 6.44083ZM12.6197 4.90095L12.5747 4.78434L12.5745 4.78441L12.6197 4.90095ZM13.8594 5.2942L13.9058 5.17813L13.9056 5.17804L13.8594 5.2942ZM16.7777 5.19393L16.7029 5.29409L16.7938 5.36195L16.8702 5.27805L16.7777 5.19393ZM17.8447 3.54244H17.9697L17.9697 3.54153L17.8447 3.54244ZM15.9724 17.9673L16.0338 17.8583L16.0334 17.8581L15.9724 17.9673ZM12.7427 17.6063L12.8286 17.5155L12.8286 17.5154L12.7427 17.6063ZM11.503 18.1181L11.5236 17.9948L11.5236 17.9948L11.503 18.1181ZM14.4919 18.902L14.4953 18.777L14.4951 18.777L14.4919 18.902ZM17.241 18.0571L17.3654 18.0452L17.3653 18.0445L17.241 18.0571ZM17.664 2.61593C17.4307 2.64059 17.148 2.69642 16.9326 2.782C16.8266 2.82413 16.7243 2.87827 16.6544 2.94896C16.6185 2.98527 16.5867 3.03041 16.5709 3.08511C16.5545 3.14192 16.558 3.2008 16.5804 3.25726L16.8127 3.16492C16.8099 3.15773 16.8108 3.15565 16.8111 3.15435C16.8121 3.15091 16.8163 3.14077 16.8322 3.12474C16.8658 3.09077 16.9299 3.05209 17.0249 3.01434C17.2117 2.94012 17.47 2.88783 17.6903 2.86454L17.664 2.61593ZM16.5806 3.25783C16.5985 3.30229 16.5939 3.33203 16.5814 3.35649C16.5665 3.38574 16.5327 3.42099 16.47 3.45541C16.3439 3.52464 16.1406 3.56829 15.9122 3.56829V3.81829C16.1646 3.81829 16.4141 3.77125 16.5903 3.67458C16.6787 3.62606 16.7585 3.55956 16.8041 3.4702C16.8522 3.37604 16.8552 3.27031 16.8125 3.16436L16.5806 3.25783ZM15.9122 3.69329C15.921 3.5686 15.9211 3.5686 15.921 3.5686C15.921 3.5686 15.921 3.56859 15.921 3.56859C15.921 3.56859 15.9209 3.56859 15.9208 3.56858C15.9206 3.56857 15.9203 3.56855 15.9199 3.56852C15.9192 3.56846 15.918 3.56838 15.9164 3.56826C15.9133 3.56804 15.9086 3.56769 15.9024 3.56723C15.8901 3.56631 15.8719 3.56492 15.8485 3.56307C15.8017 3.55936 15.7342 3.55379 15.6516 3.54634C15.4864 3.53144 15.2613 3.50907 15.0214 3.47921C14.7813 3.44932 14.5279 3.4121 14.3055 3.36765C14.0796 3.32249 13.8978 3.2721 13.7933 3.21969L13.6812 3.44316C13.8184 3.51195 14.0293 3.56739 14.2565 3.6128C14.4873 3.65893 14.7474 3.69703 14.9906 3.7273C15.234 3.75761 15.4621 3.78026 15.6291 3.79533C15.7127 3.80287 15.7811 3.80852 15.8287 3.81229C15.8525 3.81417 15.8711 3.81559 15.8838 3.81654C15.8902 3.81701 15.895 3.81737 15.8983 3.81761C15.9 3.81773 15.9012 3.81782 15.9021 3.81788C15.9025 3.81791 15.9028 3.81793 15.9031 3.81795C15.9032 3.81796 15.9033 3.81796 15.9033 3.81797C15.9034 3.81797 15.9034 3.81797 15.9034 3.81797C15.9034 3.81797 15.9034 3.81798 15.9122 3.69329ZM13.793 3.21955C13.7317 3.18899 13.653 3.16797 13.5683 3.15244C13.4818 3.13658 13.3811 3.12507 13.2712 3.11687C13.0513 3.10049 12.7874 3.09687 12.5136 3.10071C11.9656 3.10839 11.369 3.1461 10.9877 3.17451L11.0063 3.42381C11.3857 3.39555 11.9765 3.35826 12.5171 3.35069C12.7876 3.34689 13.0432 3.35058 13.2526 3.36618C13.3573 3.37399 13.4485 3.38464 13.5232 3.39834C13.5997 3.41237 13.6514 3.42829 13.6815 3.44329L13.793 3.21955ZM10.8728 3.28496C10.872 3.29154 10.8699 3.30102 10.8576 3.31788L11.0595 3.4653C11.0943 3.41763 11.1149 3.36782 11.1212 3.31336L10.8728 3.28496ZM10.8545 3.3223C10.8431 3.33943 10.8134 3.37076 10.7582 3.41485C10.7054 3.45701 10.6369 3.50491 10.5564 3.55601C10.3958 3.65812 10.1936 3.76919 9.98772 3.86816C9.78149 3.9673 9.57524 4.05253 9.40623 4.10444C9.32145 4.13048 9.2497 4.14698 9.19399 4.15353C9.16624 4.15679 9.14502 4.15726 9.1297 4.15609C9.11373 4.15488 9.10922 4.15225 9.11126 4.15326L9.00037 4.37732C9.06862 4.4111 9.15208 4.41017 9.22315 4.40182C9.29965 4.39284 9.38733 4.37177 9.47963 4.34342C9.66477 4.28655 9.88329 4.19575 10.096 4.09347C10.3092 3.99101 10.5202 3.87526 10.6905 3.76701C10.7756 3.71294 10.8521 3.65977 10.9142 3.61022C10.9738 3.56258 11.0289 3.51154 11.0626 3.46087L10.8545 3.3223ZM9.1114 4.15333C9.05821 4.12692 9.00239 4.11582 8.94542 4.12233C8.89002 4.12865 8.84208 4.15064 8.80169 4.17677C8.72596 4.22575 8.65446 4.30536 8.59102 4.37406C8.45431 4.5221 8.30687 4.67532 8.07571 4.73252L8.13576 4.9752C8.44726 4.89812 8.63963 4.68992 8.77468 4.54367C8.84712 4.46523 8.8945 4.41448 8.93747 4.38668C8.95643 4.37441 8.9678 4.3714 8.97378 4.37071C8.97819 4.37021 8.98581 4.37009 9.00023 4.37725L9.1114 4.15333ZM8.07539 4.7326C7.82263 4.79586 7.50332 4.78554 7.21679 4.78565C7.0797 4.7857 6.94523 4.78829 6.84094 4.8079C6.78881 4.8177 6.73395 4.83347 6.68748 4.86229C6.63787 4.89307 6.59365 4.94193 6.58011 5.01257L6.82564 5.05963C6.823 5.07338 6.81381 5.07812 6.81928 5.07473C6.8279 5.06938 6.84816 5.06092 6.88713 5.05359C6.96504 5.03895 7.07666 5.03571 7.21689 5.03565C7.48501 5.03554 7.84532 5.04789 8.13609 4.97512L8.07539 4.7326ZM6.58049 5.01067C6.57182 5.05236 6.54569 5.12353 6.50124 5.21765C6.45788 5.30945 6.40049 5.41606 6.33438 5.52626C6.20126 5.7482 6.03804 5.97598 5.89027 6.12409L6.06724 6.30067C6.23528 6.13225 6.41057 5.88525 6.54877 5.65486C6.61833 5.5389 6.67981 5.42495 6.72729 5.32441C6.77368 5.22618 6.81036 5.1332 6.82526 5.06154L6.58049 5.01067ZM5.89039 6.12396C5.69897 6.31528 5.68305 6.53026 5.6575 6.65767C5.644 6.72496 5.6303 6.76181 5.60854 6.78784C5.58926 6.81089 5.55098 6.84001 5.45623 6.85884L5.50496 7.10405C5.63617 7.07797 5.73344 7.02818 5.80032 6.94821C5.86471 6.8712 5.88776 6.78091 5.90262 6.70684C5.93377 6.55151 5.94097 6.42687 6.06712 6.30079L5.89039 6.12396ZM5.45527 6.85904C5.34379 6.8821 5.25696 6.94971 5.18924 7.03181C5.12211 7.11318 5.0679 7.21568 5.02137 7.32391C4.92989 7.53668 4.85312 7.81058 4.77419 8.04348L5.01096 8.12372C5.09692 7.87007 5.16454 7.62384 5.25104 7.42265C5.2935 7.3239 5.33667 7.24596 5.38209 7.19089C5.4269 7.13657 5.46778 7.11174 5.50592 7.10385L5.45527 6.85904ZM4.83412 8.19409C4.84614 8.20045 4.85174 8.20456 4.87288 8.21695C4.88984 8.22689 4.91391 8.24016 4.94302 8.2496L5.02011 8.01178C5.01694 8.01075 5.01135 8.00833 4.9993 8.00127C4.99143 7.99665 4.96868 7.98245 4.95104 7.97311L4.83412 8.19409ZM4.94399 8.2499C5.24276 8.34408 5.51502 8.57141 5.70238 8.86827C5.88947 9.16471 5.98595 9.52119 5.94451 9.86487L6.19272 9.8948C6.24201 9.48598 6.12692 9.07253 5.91379 8.73483C5.70092 8.39756 5.38429 8.12656 5.01914 8.01147L4.94399 8.2499ZM5.94449 9.86507C5.89064 10.3176 6.18637 10.6214 6.54207 10.7289C6.89341 10.8351 7.3318 10.7614 7.61131 10.4458L7.42414 10.28C7.22031 10.5102 6.88922 10.5726 6.61438 10.4896C6.34389 10.4078 6.15672 10.1972 6.19274 9.89461L5.94449 9.86507ZM7.61105 10.4461C7.69817 10.3483 7.8308 10.3048 8.0034 10.3125C8.1767 10.3203 8.37518 10.38 8.56613 10.4702C8.75637 10.56 8.93087 10.6761 9.05583 10.7887C9.11841 10.8451 9.1657 10.898 9.19638 10.9436C9.22876 10.9917 9.23442 11.0194 9.23442 11.0282H9.48442C9.48442 10.9468 9.4476 10.8691 9.40377 10.804C9.35823 10.7363 9.29555 10.6682 9.22317 10.6029C9.07819 10.4723 8.88273 10.3432 8.67285 10.2441C8.46369 10.1453 8.23189 10.0726 8.01464 10.0628C7.79669 10.053 7.5785 10.1068 7.42439 10.2797L7.61105 10.4461ZM9.23442 11.0282C9.23442 11.0302 9.23425 11.0216 9.24195 11.0109C9.24928 11.0006 9.25657 10.9985 9.25351 10.9996C9.24173 11.0041 9.20848 11.0091 9.13962 11.0039C9.00379 10.9935 8.82024 10.9536 8.58655 10.916C8.14465 10.845 7.55042 10.7877 7.11076 11.1086L7.25815 11.3105C7.60455 11.0577 8.0978 11.0907 8.54687 11.1628C8.75866 11.1969 8.97147 11.2418 9.12062 11.2532C9.19426 11.2588 9.27565 11.2588 9.3429 11.2331C9.37935 11.2191 9.41725 11.1955 9.44531 11.1563C9.47374 11.1165 9.48442 11.0714 9.48442 11.0282H9.23442ZM7.11067 11.1087C6.89096 11.2693 6.7972 11.4506 6.82137 11.65C6.84317 11.8299 6.96007 11.9953 7.07247 12.1358C7.19419 12.2878 7.31461 12.4161 7.4025 12.5537C7.48819 12.6879 7.51802 12.7954 7.48863 12.8944L7.72828 12.9655C7.78875 12.7619 7.71257 12.5747 7.6132 12.4191C7.51603 12.267 7.37232 12.1103 7.26765 11.9796C7.15365 11.8371 7.08189 11.7217 7.06955 11.6199C7.05958 11.5376 7.08622 11.4363 7.25823 11.3105L7.11067 11.1087ZM7.4888 12.8938C7.3836 13.2419 7.48995 13.6432 7.70588 13.9482C7.92254 14.2543 8.26838 14.4897 8.66998 14.4735L8.65995 14.2237C8.3671 14.2355 8.09351 14.0632 7.90994 13.8038C7.72565 13.5434 7.65097 13.2214 7.72811 12.9661L7.4888 12.8938ZM8.67029 14.4735C8.81006 14.4676 8.96501 14.5208 9.13474 14.6162C9.30364 14.7111 9.47308 14.8394 9.64214 14.9684C9.80698 15.0943 9.97525 15.224 10.1299 15.3069C10.2795 15.3872 10.4583 15.447 10.6228 15.3646L10.5109 15.1411C10.4638 15.1647 10.3861 15.1607 10.2481 15.0866C10.1151 15.0153 9.96466 14.9001 9.79384 14.7697C9.62723 14.6425 9.44399 14.5032 9.25721 14.3982C9.07126 14.2937 8.86753 14.2149 8.65964 14.2237L8.67029 14.4735ZM10.6224 15.3649C10.7175 15.3177 10.7672 15.2328 10.7885 15.1431C10.809 15.0569 10.8057 14.9584 10.7919 14.8602C10.7641 14.6629 10.6875 14.4249 10.6065 14.1969C10.5232 13.9626 10.4364 13.7412 10.3771 13.556C10.3477 13.4641 10.3276 13.3885 10.3188 13.3311C10.3144 13.3024 10.3135 13.2823 10.3143 13.2693C10.3152 13.2552 10.3175 13.258 10.3117 13.2674L10.0997 13.1349C10.0749 13.1745 10.067 13.218 10.0648 13.254C10.0625 13.2911 10.0658 13.3303 10.0717 13.369C10.0835 13.4461 10.1085 13.5367 10.139 13.6321C10.1996 13.8214 10.292 14.0584 10.3709 14.2806C10.452 14.5091 10.5205 14.7256 10.5443 14.895C10.5563 14.98 10.5553 15.043 10.5453 15.0854C10.536 15.1244 10.5222 15.1355 10.5114 15.1409L10.6224 15.3649ZM10.3115 13.2676C10.3063 13.276 10.299 13.2745 10.3118 13.2726C10.3289 13.2699 10.3591 13.271 10.4081 13.2805C10.5105 13.3003 10.626 13.341 10.7809 13.3823C11.0587 13.4564 11.4512 13.5275 11.7176 13.2223L11.5292 13.0579C11.3733 13.2366 11.1329 13.2175 10.8453 13.1407C10.7175 13.1066 10.5673 13.0567 10.4557 13.035C10.3975 13.0238 10.3337 13.0163 10.2739 13.0255C10.2098 13.0353 10.143 13.0659 10.0998 13.1346L10.3115 13.2676ZM11.7172 13.2226C11.8401 13.0829 11.8953 12.9327 11.8683 12.7831C11.8422 12.6377 11.7437 12.523 11.625 12.4389C11.3892 12.2716 11.02 12.1846 10.6833 12.1999L10.6947 12.4497C10.9914 12.4362 11.3014 12.5158 11.4804 12.6428C11.5692 12.7058 11.612 12.7702 11.6223 12.8274C11.6318 12.8803 11.6187 12.9562 11.5295 13.0576L11.7172 13.2226ZM10.683 12.2C10.6158 12.2032 10.5783 12.1935 10.5603 12.1851C10.5519 12.1812 10.5489 12.178 10.5484 12.1774C10.5481 12.1771 10.5481 12.177 10.5482 12.1773C10.5484 12.1775 10.5484 12.1777 10.5484 12.1776C10.5476 12.1748 10.5457 12.1288 10.6166 12.0613C10.7428 11.941 11.0212 11.8437 11.3498 12.0405L11.4782 11.8261C11.0513 11.5703 10.65 11.6841 10.4441 11.8803C10.3489 11.971 10.2678 12.1097 10.3085 12.2482C10.355 12.4061 10.5207 12.4581 10.695 12.4497L10.683 12.2ZM11.3497 12.0405C11.5521 12.1619 11.7352 12.2185 11.9041 12.2288C12.0731 12.2392 12.2194 12.2028 12.3471 12.1504C12.4719 12.0993 12.5842 12.0303 12.6762 11.9776C12.7741 11.9216 12.8467 11.8855 12.9122 11.8743L12.8699 11.6279C12.7552 11.6476 12.6472 11.7062 12.552 11.7607C12.4509 11.8186 12.3577 11.876 12.2523 11.9191C12.1499 11.9611 12.0416 11.9868 11.9194 11.9793C11.7971 11.9718 11.6524 11.9305 11.4783 11.8261L11.3497 12.0405ZM12.9115 11.8744C13.075 11.8472 13.1707 11.6929 13.2165 11.5462C13.2655 11.3893 13.2758 11.191 13.2366 10.9886C13.1574 10.5794 12.871 10.137 12.2597 9.97192L12.1945 10.2133C12.7007 10.3499 12.9274 10.7067 12.9912 11.0362C13.0236 11.2032 13.013 11.3592 12.9779 11.4717C12.9396 11.5945 12.8881 11.6248 12.8705 11.6278L12.9115 11.8744ZM12.2597 9.97191C11.9616 9.89149 11.7366 9.90323 11.5555 9.96274C11.3778 10.0211 11.2527 10.1231 11.1596 10.1941C11.0579 10.2717 11.0096 10.2981 10.9574 10.2949C10.9024 10.2914 10.8046 10.2508 10.6267 10.0647L10.446 10.2374C10.6305 10.4305 10.7859 10.5346 10.9418 10.5444C11.1003 10.5543 11.2204 10.4622 11.3113 10.3928C11.4109 10.3168 11.5029 10.2432 11.6335 10.2002C11.7607 10.1585 11.9351 10.1433 12.1945 10.2133L12.2597 9.97191ZM10.6263 10.0643C10.54 9.97468 10.4927 9.90819 10.4696 9.86027C10.4472 9.81385 10.4524 9.7956 10.4536 9.79189C10.4555 9.78596 10.4632 9.77096 10.4972 9.7486C10.5313 9.72617 10.5791 9.7046 10.6418 9.68061C10.7571 9.63653 10.9286 9.58403 11.0606 9.50347C11.2016 9.41734 11.3261 9.28301 11.3261 9.0663H11.0761C11.0761 9.16567 11.027 9.23102 10.9303 9.2901C10.8244 9.35475 10.694 9.39299 10.5525 9.44711C10.4869 9.47222 10.4177 9.50162 10.3597 9.53977C10.3017 9.57799 10.2423 9.63317 10.2158 9.71478C10.1886 9.79861 10.2041 9.88524 10.2444 9.96881C10.2839 10.0509 10.3516 10.1394 10.4463 10.2377L10.6263 10.0643ZM11.3261 9.0663C11.3261 8.87362 11.2423 8.67431 11.1249 8.48145C11.0062 8.2865 10.8441 8.08396 10.6691 7.88242C10.3124 7.47143 9.90959 7.07063 9.64137 6.69902L9.43866 6.84533C9.71483 7.22797 10.1426 7.65726 10.4803 8.0463C10.6526 8.24478 10.8037 8.43472 10.9114 8.6115C11.0203 8.79036 11.0761 8.94202 11.0761 9.0663H11.3261ZM9.64146 6.69914C9.52321 6.5349 9.51992 6.41512 9.5511 6.33361C9.5847 6.24573 9.67155 6.16701 9.79874 6.11658C9.9246 6.06668 10.0738 6.05165 10.2048 6.07754C10.3354 6.10337 10.4355 6.1666 10.488 6.26155L10.7068 6.14053C10.6088 5.96343 10.4337 5.86796 10.2533 5.83229C10.0731 5.79668 9.87518 5.81735 9.7066 5.88418C9.53935 5.95049 9.38442 6.06954 9.31759 6.24431C9.24832 6.42545 9.28593 6.6332 9.43857 6.84521L9.64146 6.69914ZM10.4883 6.26204C10.6681 6.58374 10.9965 6.70822 11.3258 6.72854C11.6546 6.74883 12.0057 6.66814 12.2758 6.55632L12.1802 6.32534C11.9364 6.42628 11.6235 6.49644 11.3412 6.47901C11.0594 6.46162 10.8294 6.35983 10.7065 6.14004L10.4883 6.26204ZM12.2751 6.55658C12.3641 6.52032 12.4301 6.46217 12.4676 6.38237C12.5032 6.3066 12.5068 6.22468 12.4996 6.15055C12.4924 6.07611 12.4731 5.99787 12.4523 5.92332C12.4298 5.84271 12.4085 5.77559 12.3873 5.69595C12.3461 5.54128 12.3263 5.40854 12.3569 5.2985C12.3842 5.19999 12.4589 5.0974 12.6649 5.01749L12.5745 4.78441C12.3129 4.88587 12.1692 5.04018 12.116 5.23156C12.066 5.41142 12.1034 5.60158 12.1457 5.76027C12.1662 5.83731 12.1931 5.92449 12.2115 5.99048C12.2316 6.06252 12.2458 6.12317 12.2508 6.17461C12.2558 6.22635 12.2502 6.25729 12.2413 6.27604C12.2344 6.29077 12.2207 6.30881 12.1808 6.32507L12.2751 6.55658ZM12.6647 5.01756C12.8887 4.93107 13.0449 4.90886 13.1565 4.91744C13.2645 4.92575 13.3378 4.96337 13.3976 5.01297C13.4627 5.06697 13.5099 5.13218 13.5725 5.20969C13.6295 5.28011 13.7041 5.36697 13.8132 5.41036L13.9056 5.17804C13.8634 5.16127 13.8245 5.12366 13.767 5.05253C13.7152 4.98848 13.647 4.89504 13.5572 4.82053C13.462 4.74164 13.3407 4.68088 13.1757 4.66818C13.0143 4.65576 12.8192 4.68989 12.5747 4.78434L12.6647 5.01756ZM13.813 5.41027C13.9557 5.46732 14.08 5.39459 14.1683 5.32528C14.215 5.28856 14.2628 5.24389 14.3102 5.19861C14.359 5.15213 14.4084 5.10405 14.4632 5.05467C14.6789 4.86047 14.9596 4.66409 15.3984 4.66409V4.41409C14.8713 4.41409 14.5331 4.65542 14.296 4.86887C14.2376 4.9214 14.1842 4.97335 14.1377 5.0177C14.0899 5.06327 14.05 5.10025 14.0138 5.12868C13.9362 5.18968 13.9136 5.18125 13.9058 5.17813L13.813 5.41027ZM15.3984 4.66409C15.6215 4.66409 15.8377 4.73796 16.0554 4.85578C16.2741 4.97417 16.4859 5.13209 16.7029 5.29409L16.8525 5.09376C16.6385 4.93401 16.4119 4.76451 16.1744 4.63592C15.9358 4.50676 15.6778 4.41409 15.3984 4.41409V4.66409ZM16.8702 5.27805C16.9922 5.14396 17.1234 5.01707 17.2125 4.90531C17.3068 4.78707 17.3799 4.65667 17.3799 4.49287H17.1299C17.1299 4.57497 17.0957 4.65079 17.017 4.74945C16.9332 4.85459 16.8258 4.95528 16.6852 5.1098L16.8702 5.27805ZM17.3799 4.49287C17.3799 4.45628 17.396 4.41653 17.4423 4.36204C17.4911 4.30465 17.5547 4.25125 17.6346 4.17754C17.7843 4.03937 17.9697 3.84831 17.9697 3.54244H17.7197C17.7197 3.73358 17.6101 3.85992 17.465 3.99379C17.3975 4.05611 17.3136 4.1274 17.2518 4.20016C17.1875 4.2758 17.1299 4.37164 17.1299 4.49287H17.3799ZM17.9697 3.54153C17.9678 3.28063 17.8673 2.95854 17.7976 2.70689L17.5567 2.77358C17.6319 3.0451 17.7181 3.32466 17.7197 3.54335L17.9697 3.54153ZM16.0334 17.8581C15.9522 17.8128 15.8468 17.7878 15.735 17.7725C15.6209 17.7569 15.4884 17.7501 15.3459 17.748C15.0627 17.7437 14.7213 17.7579 14.3885 17.7635C14.0515 17.7691 13.7189 17.766 13.4369 17.7292C13.1491 17.6916 12.941 17.6218 12.8286 17.5155L12.6568 17.6971C12.8306 17.8615 13.1087 17.9384 13.4045 17.977C13.7061 18.0164 14.0544 18.0191 14.3927 18.0134C14.7353 18.0077 15.0638 17.9938 15.3421 17.998C15.4804 18 15.6015 18.0066 15.7012 18.0202C15.8033 18.0341 15.8716 18.0541 15.9115 18.0764L16.0334 17.8581ZM12.8286 17.5154C12.6527 17.3492 12.4333 17.3025 12.2244 17.3206C12.0178 17.3386 11.8148 17.4202 11.652 17.5203C11.4926 17.6183 11.3533 17.7456 11.2907 17.8698C11.2599 17.9309 11.2353 18.0171 11.2736 18.1014C11.3137 18.1893 11.4001 18.2276 11.4824 18.2414L11.5236 17.9948C11.4794 17.9874 11.4917 17.9769 11.5011 17.9977C11.5089 18.0148 11.4972 18.0156 11.514 17.9823C11.5466 17.9177 11.6411 17.8205 11.783 17.7332C11.9215 17.648 12.0874 17.5835 12.2461 17.5697C12.4027 17.5561 12.5453 17.5917 12.6569 17.6971L12.8286 17.5154ZM11.4823 18.2414C11.6525 18.2699 11.8481 18.3293 12.0691 18.4057C12.1791 18.4437 12.2939 18.4855 12.4139 18.5291C12.5336 18.5726 12.6583 18.6178 12.7866 18.6625C13.2991 18.8406 13.8803 19.0116 14.4888 19.027L14.4951 18.777C13.9267 18.7627 13.3755 18.6024 12.8687 18.4263C12.7422 18.3824 12.6192 18.3377 12.4993 18.2941C12.3797 18.2506 12.263 18.2082 12.1508 18.1694C11.9274 18.0921 11.7155 18.0269 11.5236 17.9948L11.4823 18.2414ZM14.4886 19.027C15.0962 19.0431 15.8053 18.9039 16.358 18.7236C16.6345 18.6334 16.8776 18.5311 17.0523 18.4291C17.1391 18.3785 17.2147 18.3247 17.2691 18.2686C17.3196 18.2166 17.3744 18.1394 17.3654 18.0452L17.1165 18.0689C17.1148 18.0504 17.1258 18.0573 17.0897 18.0945C17.0577 18.1275 17.0038 18.168 16.9263 18.2132C16.7725 18.3029 16.5475 18.3988 16.2805 18.4859C15.7461 18.6603 15.0663 18.7923 14.4953 18.777L14.4886 19.027ZM17.3653 18.0445C17.3584 17.9759 17.3273 17.9136 17.2664 17.8734C17.2126 17.838 17.1504 17.8298 17.0998 17.829C17.0006 17.8275 16.8713 17.8552 16.7526 17.8784C16.6259 17.903 16.4951 17.9265 16.3681 17.9287C16.2416 17.9308 16.1284 17.9116 16.0338 17.8583L15.9111 18.0762C16.0582 18.159 16.2205 18.1812 16.3724 18.1786C16.5238 18.176 16.6742 18.1483 16.8004 18.1237C16.9346 18.0976 17.0299 18.078 17.0959 18.079C17.1278 18.0795 17.1334 18.0852 17.1286 18.0821C17.1167 18.0742 17.1159 18.0628 17.1166 18.0697L17.3653 18.0445Z" fill="#868686"/>
</g>
<defs>
<filter id="filter0_d_877_3400" x="0.740234" y="0.604492" width="21.2285" height="24.4238" filterUnits="userSpaceOnUse" color-interpolation-filters="sRGB">
<feFlood flood-opacity="0" result="BackgroundImageFix"/>
<feColorMatrix in="SourceAlpha" type="matrix" values="0 0 0 0 0 0 0 0 0 0 0 0 0 0 0 0 0 0 127 0" result="hardAlpha"/>
<feOffset dy="2"/>
<feGaussianBlur stdDeviation="2"/>
<feColorMatrix type="matrix" values="0 0 0 0 0 0 0 0 0 0 0 0 0 0 0 0 0 0 0.01 0"/>
<feBlend mode="normal" in2="BackgroundImageFix" result="effect1_dropShadow_877_3400"/>
<feBlend mode="normal" in="SourceGraphic" in2="effect1_dropShadow_877_3400" result="shape"/>
</filter>
</defs>
</svg>
