<svg width="30" height="43" viewBox="0 0 30 43" fill="none" xmlns="http://www.w3.org/2000/svg">
<g filter="url(#filter0_d_877_3244)">
<path fill-rule="evenodd" clip-rule="evenodd" d="M25.3737 11.3043L9.78511 2.9248L7.95999 3.91273C8.01146 4.9059 8.08038 6.24174 8.08038 6.53646C8.08038 7.01953 8.98509 7.62467 8.92489 8.40768C8.86557 9.19245 9.52774 9.13054 9.28608 9.97547C9.04703 10.8239 8.92489 11.5467 8.92489 12.1493C8.92489 12.7518 8.92664 17.0366 8.68585 17.2171C8.44331 17.4002 5.6053 20.2376 5.42383 21.3249C5.24324 22.4087 5.00158 21.9867 5.00158 23.0732C5.00158 23.272 4.99721 23.4961 4.99023 23.7324C5.14553 23.7856 5.21619 23.9538 5.42209 24.1596C5.72569 24.4613 5.72569 25.0046 6.32767 25.0046C6.93226 25.0046 7.65725 26.3936 7.59618 26.9359C7.53686 27.4818 7.89892 27.7809 7.83785 28.7488C7.77852 29.7123 8.3805 31.1004 8.68585 31.2818C8.98596 31.4632 8.56196 31.6445 7.83785 31.5844C7.11373 31.5225 6.08775 31.5251 6.08775 31.8259C6.08775 32.1267 5.78502 32.5487 6.56933 33.2751C7.35627 33.9979 8.01931 34.2377 8.26098 35.0234C8.50264 35.809 8.80275 36.5327 9.04616 36.7132C9.28521 36.8963 9.76941 36.8353 10.1917 36.2319C10.6148 35.6276 11.099 36.7725 11.5204 36.2319C11.9426 35.6869 13.3926 35.748 13.7555 35.5666C14.1185 35.3852 15.2038 34.903 15.5667 34.6013C15.9288 34.2996 15.1445 33.8166 15.688 33.5149C16.2306 33.2141 17.9231 33.7564 18.5862 32.9132C19.2501 32.0657 20.277 31.1623 20.5788 30.8606C20.8807 30.5589 20.5788 30.3183 21.0011 29.8936C21.4216 29.4742 22.2687 28.9903 22.6901 29.2318C22.7843 29.285 22.9117 29.3059 23.0452 29.3112C23.005 29.2632 22.9797 29.2336 22.9797 29.2336L23.2327 28.3503C23.2327 28.3503 22.2242 27.8471 22.2242 27.092C22.2242 26.336 22.4764 25.5835 21.8465 25.5835C21.2166 25.5835 21.0901 24.9531 21.5943 24.4517C22.0986 23.9451 20.8388 22.9389 21.7217 22.9389C22.6029 22.9389 21.973 21.5542 22.6029 21.4304C23.2336 21.3031 23.3584 20.7991 23.3584 20.1713C23.3584 19.54 24.7438 19.1642 25.1216 19.0369C25.5002 18.9104 25.3737 16.8988 25.3737 16.8988V11.3043Z" fill="white"/>
<path fill-rule="evenodd" clip-rule="evenodd" d="M25.3737 11.3043L9.78511 2.9248L7.95999 3.91273C8.01146 4.9059 8.08038 6.24174 8.08038 6.53646C8.08038 7.01953 8.98509 7.62467 8.92489 8.40768C8.86557 9.19245 9.52774 9.13054 9.28608 9.97547C9.04703 10.8239 8.92489 11.5467 8.92489 12.1493C8.92489 12.7518 8.92664 17.0366 8.68585 17.2171C8.44331 17.4002 5.6053 20.2376 5.42383 21.3249C5.24324 22.4087 5.00158 21.9867 5.00158 23.0732C5.00158 23.272 4.99721 23.4961 4.99023 23.7324C5.14553 23.7856 5.21619 23.9538 5.42209 24.1596C5.72569 24.4613 5.72569 25.0046 6.32767 25.0046C6.93226 25.0046 7.65725 26.3936 7.59618 26.9359C7.53686 27.4818 7.89892 27.7809 7.83785 28.7488C7.77852 29.7123 8.3805 31.1004 8.68585 31.2818C8.98596 31.4632 8.56196 31.6445 7.83785 31.5844C7.11373 31.5225 6.08775 31.5251 6.08775 31.8259C6.08775 32.1267 5.78502 32.5487 6.56933 33.2751C7.35627 33.9979 8.01931 34.2377 8.26098 35.0234C8.50264 35.809 8.80275 36.5327 9.04616 36.7132C9.28521 36.8963 9.76941 36.8353 10.1917 36.2319C10.6148 35.6276 11.099 36.7725 11.5204 36.2319C11.9426 35.6869 13.3926 35.748 13.7555 35.5666C14.1185 35.3852 15.2038 34.903 15.5667 34.6013C15.9288 34.2996 15.1445 33.8166 15.688 33.5149C16.2306 33.2141 17.9231 33.7564 18.5862 32.9132C19.2501 32.0657 20.277 31.1623 20.5788 30.8606C20.8807 30.5589 20.5788 30.3183 21.0011 29.8936C21.4216 29.4742 22.2687 28.9903 22.6901 29.2318C22.7843 29.285 22.9117 29.3059 23.0452 29.3112C23.005 29.2632 22.9797 29.2336 22.9797 29.2336L23.2327 28.3503C23.2327 28.3503 22.2242 27.8471 22.2242 27.092C22.2242 26.336 22.4764 25.5835 21.8465 25.5835C21.2166 25.5835 21.0901 24.9531 21.5943 24.4517C22.0986 23.9451 20.8388 22.9389 21.7217 22.9389C22.6029 22.9389 21.973 21.5542 22.6029 21.4304C23.2336 21.3031 23.3584 20.7991 23.3584 20.1713C23.3584 19.54 24.7438 19.1642 25.1216 19.0369C25.5002 18.9104 25.3737 16.8988 25.3737 16.8988V11.3043Z" stroke="#868686" stroke-width="0.25"/>
</g>
<defs>
<filter id="filter0_d_877_3244" x="0.863281" y="0.783203" width="28.6562" height="42.1475" filterUnits="userSpaceOnUse" color-interpolation-filters="sRGB">
<feFlood flood-opacity="0" result="BackgroundImageFix"/>
<feColorMatrix in="SourceAlpha" type="matrix" values="0 0 0 0 0 0 0 0 0 0 0 0 0 0 0 0 0 0 127 0" result="hardAlpha"/>
<feOffset dy="2"/>
<feGaussianBlur stdDeviation="2"/>
<feColorMatrix type="matrix" values="0 0 0 0 0 0 0 0 0 0 0 0 0 0 0 0 0 0 0.01 0"/>
<feBlend mode="normal" in2="BackgroundImageFix" result="effect1_dropShadow_877_3244"/>
<feBlend mode="normal" in="SourceGraphic" in2="effect1_dropShadow_877_3244" result="shape"/>
</filter>
</defs>
</svg>
