<svg width="12" height="11" viewBox="0 0 12 11" fill="none" xmlns="http://www.w3.org/2000/svg">
<g filter="url(#filter0_d_877_3306)">
<path fill-rule="evenodd" clip-rule="evenodd" d="M5.80351 4.31911C6.52762 4.31911 6.64889 3.71572 7.13135 3.83692C7.40005 3.90406 7.29536 3.37652 7.11041 2.64844C6.68204 2.78359 6.10537 2.78185 6.10537 3.11058C6.10537 3.64073 5.19019 2.91351 4.69727 2.87776C5.13784 3.69392 5.55574 4.31911 5.80351 4.31911Z" fill="white"/>
<path fill-rule="evenodd" clip-rule="evenodd" d="M5.80351 4.31911C6.52762 4.31911 6.64889 3.71572 7.13135 3.83692C7.40005 3.90406 7.29536 3.37652 7.11041 2.64844C6.68204 2.78359 6.10537 2.78185 6.10537 3.11058C6.10537 3.64073 5.19019 2.91351 4.69727 2.87776C5.13784 3.69392 5.55574 4.31911 5.80351 4.31911Z" stroke="#868686" stroke-width="0.25"/>
</g>
<defs>
<filter id="filter0_d_877_3306" x="0.478516" y="0.489258" width="10.9414" height="9.95508" filterUnits="userSpaceOnUse" color-interpolation-filters="sRGB">
<feFlood flood-opacity="0" result="BackgroundImageFix"/>
<feColorMatrix in="SourceAlpha" type="matrix" values="0 0 0 0 0 0 0 0 0 0 0 0 0 0 0 0 0 0 127 0" result="hardAlpha"/>
<feOffset dy="2"/>
<feGaussianBlur stdDeviation="2"/>
<feColorMatrix type="matrix" values="0 0 0 0 0 0 0 0 0 0 0 0 0 0 0 0 0 0 0.01 0"/>
<feBlend mode="normal" in2="BackgroundImageFix" result="effect1_dropShadow_877_3306"/>
<feBlend mode="normal" in="SourceGraphic" in2="effect1_dropShadow_877_3306" result="shape"/>
</filter>
</defs>
</svg>
