<svg width="18" height="18" viewBox="0 0 18 18" fill="none" xmlns="http://www.w3.org/2000/svg">
<g filter="url(#filter0_d_877_3237)">
<path fill-rule="evenodd" clip-rule="evenodd" d="M11.6461 7.44404C11.011 7.03683 10.6943 7.03683 10.9665 6.81099C11.2378 6.58254 11.2832 6.08465 11.1933 5.3618C11.1646 5.12899 11.1899 4.97116 11.2422 4.84385C11.0302 4.7584 10.8627 4.65726 10.8365 4.53692C10.7467 4.1367 10.3462 4.71655 10.0356 5.16299C9.72155 5.60769 8.96603 5.11765 9.05414 4.44886C9.14488 3.78006 8.69819 2.71191 8.47572 2.71191C8.33439 2.71191 7.72979 2.80173 6.99957 2.97001C7.09641 3.29264 6.8783 3.64753 6.79978 4.00416C6.70992 4.41223 5.622 5.00081 5.16921 5.36267C5.04358 5.46295 4.87782 5.72279 4.70508 6.04977C5.55744 6.5869 6.55114 7.2121 7.35901 7.82247C8.83778 8.93858 11.0729 10.4192 12.1303 10.8089C12.2708 10.8639 12.4383 10.8848 12.6259 10.8865C12.878 9.74427 13.1493 9.60126 13.2313 8.98305C13.3212 8.30379 12.2795 7.85037 11.6461 7.44404Z" fill="white"/>
<path fill-rule="evenodd" clip-rule="evenodd" d="M11.6461 7.44404C11.011 7.03683 10.6943 7.03683 10.9665 6.81099C11.2378 6.58254 11.2832 6.08465 11.1933 5.3618C11.1646 5.12899 11.1899 4.97116 11.2422 4.84385C11.0302 4.7584 10.8627 4.65726 10.8365 4.53692C10.7467 4.1367 10.3462 4.71655 10.0356 5.16299C9.72155 5.60769 8.96603 5.11765 9.05414 4.44886C9.14488 3.78006 8.69819 2.71191 8.47572 2.71191C8.33439 2.71191 7.72979 2.80173 6.99957 2.97001C7.09641 3.29264 6.8783 3.64753 6.79978 4.00416C6.70992 4.41223 5.622 5.00081 5.16921 5.36267C5.04358 5.46295 4.87782 5.72279 4.70508 6.04977C5.55744 6.5869 6.55114 7.2121 7.35901 7.82247C8.83778 8.93858 11.0729 10.4192 12.1303 10.8089C12.2708 10.8639 12.4383 10.8848 12.6259 10.8865C12.878 9.74427 13.1493 9.60126 13.2313 8.98305C13.3212 8.30379 12.2795 7.85037 11.6461 7.44404Z" stroke="#868686" stroke-width="0.25"/>
</g>
<defs>
<filter id="filter0_d_877_3237" x="0.541016" y="0.586914" width="16.8203" height="16.4258" filterUnits="userSpaceOnUse" color-interpolation-filters="sRGB">
<feFlood flood-opacity="0" result="BackgroundImageFix"/>
<feColorMatrix in="SourceAlpha" type="matrix" values="0 0 0 0 0 0 0 0 0 0 0 0 0 0 0 0 0 0 127 0" result="hardAlpha"/>
<feOffset dy="2"/>
<feGaussianBlur stdDeviation="2"/>
<feColorMatrix type="matrix" values="0 0 0 0 0 0 0 0 0 0 0 0 0 0 0 0 0 0 0.01 0"/>
<feBlend mode="normal" in2="BackgroundImageFix" result="effect1_dropShadow_877_3237"/>
<feBlend mode="normal" in="SourceGraphic" in2="effect1_dropShadow_877_3237" result="shape"/>
</filter>
</defs>
</svg>
