<svg width="19" height="18" viewBox="0 0 19 18" fill="none" xmlns="http://www.w3.org/2000/svg">
<g filter="url(#filter0_d_877_3530)">
<path fill-rule="evenodd" clip-rule="evenodd" d="M14.642 5.3829C14.3943 4.93297 13.6265 4.01829 12.8195 3.02948C12.5691 3.77414 11.6758 3.56574 11.5004 3.99387C11.3207 4.44642 10.8662 3.90319 10.5957 3.99387C10.3244 4.08368 9.69099 2.99722 9.05673 2.90741C8.86393 2.88212 8.63797 2.77574 8.41026 2.64844C8.14853 2.92659 7.90862 3.23963 8.00022 3.39135C8.18081 3.69304 8.96513 3.99387 8.66414 4.29731C8.36228 4.59727 7.39563 4.47781 7.09464 4.17524C6.79103 3.87354 5.88545 3.39135 5.70486 3.75321C5.52339 4.11507 6.49004 4.89896 6.36965 5.3829C6.24925 5.8651 7.09464 6.40833 7.09464 7.01259C7.09464 7.61425 8.36228 8.03976 8.36228 8.52021C8.36228 8.75564 8.56119 9.17331 8.76621 9.54128C9.75729 9.12099 10.5713 8.34756 11.2125 8.02755C12.1783 7.54275 11.7761 9.56133 11.6156 9.88221C11.5022 10.1046 12.2716 10.6321 13.0778 10.939C13.0507 10.5022 13.1554 10.0749 13.4363 9.72875C14.4606 8.46179 15.2458 6.46936 14.642 5.3829ZM6.05557 8.38419C5.8584 8.29525 5.48064 8.01186 5.05664 7.9142C5.18663 8.27257 5.17529 8.74256 5.72928 8.99543C6.6148 9.3974 5.32535 9.55871 7.10074 9.80025C7.21852 9.81681 7.33368 9.81856 7.44972 9.81943C7.50381 9.36776 7.46978 9.23783 7.01263 8.7321C6.49092 8.1505 6.3173 8.49928 6.05557 8.38419Z" fill="white"/>
<path d="M14.642 5.3829L14.5325 5.4432L14.5328 5.44362L14.642 5.3829ZM12.8195 3.02948L12.9164 2.95045L12.7732 2.77503L12.701 2.98964L12.8195 3.02948ZM11.5004 3.99387L11.3847 3.94649L11.3842 3.94773L11.5004 3.99387ZM10.5957 3.99387L10.635 4.11254L10.6354 4.11239L10.5957 3.99387ZM9.05673 2.90741L9.07426 2.78364L9.07299 2.78347L9.05673 2.90741ZM8.41026 2.64844L8.47126 2.53933L8.38609 2.49172L8.31923 2.56278L8.41026 2.64844ZM8.00022 3.39135L8.10747 3.32715L8.10723 3.32674L8.00022 3.39135ZM8.66414 4.29731L8.75225 4.38598L8.75289 4.38534L8.66414 4.29731ZM7.09464 4.17524L7.18326 4.08708L7.18275 4.08657L7.09464 4.17524ZM5.70486 3.75321L5.81659 3.80924L5.8167 3.80903L5.70486 3.75321ZM6.36965 5.3829L6.49092 5.41318L6.49095 5.41308L6.36965 5.3829ZM8.76621 9.54128L8.65702 9.60212L8.71166 9.70018L8.81502 9.65636L8.76621 9.54128ZM11.2125 8.02755L11.2683 8.1394L11.2686 8.13927L11.2125 8.02755ZM11.6156 9.88221L11.7269 9.93901L11.7274 9.93814L11.6156 9.88221ZM13.0778 10.939L13.0333 11.0558L13.2145 11.1248L13.2025 10.9313L13.0778 10.939ZM13.4363 9.72875L13.5334 9.80751L13.5335 9.80733L13.4363 9.72875ZM6.05557 8.38419L6.00417 8.49814L6.00525 8.49861L6.05557 8.38419ZM5.05664 7.9142L5.0847 7.79239L4.86078 7.74081L4.93913 7.95682L5.05664 7.9142ZM5.72928 8.99543L5.67738 9.10914L5.67762 9.10925L5.72928 8.99543ZM7.10074 9.80025L7.11816 9.67647L7.11759 9.67639L7.10074 9.80025ZM7.44972 9.81943L7.44878 9.94443L7.56054 9.94527L7.57383 9.83429L7.44972 9.81943ZM7.01263 8.7321L6.91958 8.81557L6.9199 8.81592L7.01263 8.7321ZM14.7515 5.3226C14.6218 5.08699 14.3612 4.73785 14.0385 4.33063C13.7139 3.92118 13.319 3.44384 12.9164 2.95045L12.7227 3.10852C13.127 3.60393 13.5195 4.07833 13.8425 4.48591C14.1673 4.89571 14.4145 5.22888 14.5325 5.4432L14.7515 5.3226ZM12.701 2.98964C12.5954 3.30385 12.3595 3.42049 12.0914 3.51209C11.9639 3.55565 11.8128 3.59795 11.6925 3.65397C11.5673 3.71227 11.4457 3.79758 11.3847 3.94649L11.6161 4.04125C11.6428 3.9761 11.6986 3.9269 11.7981 3.8806C11.9024 3.83201 12.0232 3.7996 12.1722 3.74866C12.4573 3.65125 12.7933 3.49977 12.938 3.06932L12.701 2.98964ZM11.3842 3.94773C11.3501 4.03376 11.316 4.04569 11.2972 4.04937C11.2636 4.05596 11.2113 4.04662 11.1285 4.0135C11.0892 3.9978 11.049 3.9794 11.0049 3.95945C10.9621 3.9401 10.9158 3.91935 10.8695 3.90212C10.7823 3.86962 10.6673 3.83802 10.556 3.87536L10.6354 4.11239C10.6593 4.10438 10.7025 4.10668 10.7822 4.13638C10.8195 4.15026 10.8587 4.1677 10.9019 4.18724C10.9438 4.20618 10.99 4.22738 11.0357 4.24564C11.1227 4.28043 11.2347 4.31637 11.3453 4.2947C11.4707 4.27013 11.5609 4.18025 11.6166 4.04001L11.3842 3.94773ZM10.5564 3.8752C10.5668 3.87176 10.5632 3.87901 10.5316 3.86388C10.5013 3.84939 10.4613 3.8219 10.4106 3.77908C10.3085 3.69297 10.1902 3.56918 10.0507 3.42962C9.91455 3.29342 9.76184 3.14625 9.60097 3.02721C9.44124 2.909 9.2628 2.81034 9.07426 2.78364L9.03921 3.03117C9.1678 3.04938 9.30638 3.12021 9.45226 3.22817C9.59702 3.33529 9.73854 3.47096 9.87392 3.60638C10.0059 3.73844 10.1366 3.87503 10.2494 3.97018C10.306 4.01799 10.365 4.06135 10.4238 4.08943C10.4812 4.11688 10.5568 4.13843 10.635 4.11254L10.5564 3.8752ZM9.07299 2.78347C8.9062 2.7616 8.6987 2.66649 8.47126 2.53933L8.34926 2.75754C8.57723 2.885 8.82166 3.00265 9.04048 3.03135L9.07299 2.78347ZM8.31923 2.56278C8.18675 2.70357 8.05432 2.85876 7.96629 3.00178C7.92245 3.073 7.88563 3.14751 7.86754 3.22018C7.84953 3.29253 7.84655 3.37868 7.89321 3.45596L8.10723 3.32674C8.10714 3.3266 8.10689 3.32617 8.10657 3.32511C8.10624 3.324 8.10574 3.32185 8.10548 3.31832C8.10495 3.31096 8.10561 3.29873 8.11014 3.28057C8.11944 3.24318 8.14178 3.1936 8.17919 3.13283C8.25365 3.01186 8.37205 2.87146 8.5013 2.7341L8.31923 2.56278ZM7.89297 3.45555C7.95086 3.55226 8.05024 3.63981 8.14439 3.71512C8.24975 3.79941 8.33992 3.86235 8.43275 3.93971C8.52282 4.01476 8.57763 4.07446 8.59879 4.12148C8.60784 4.14158 8.60791 4.1534 8.60652 4.16089C8.6051 4.16858 8.5997 4.18478 8.57539 4.20928L8.75289 4.38534C8.80383 4.33398 8.83976 4.27441 8.85235 4.20639C8.86498 4.13816 8.85174 4.07434 8.82676 4.01886C8.77988 3.9147 8.68376 3.82344 8.59279 3.74765C8.5046 3.67416 8.38363 3.58636 8.30055 3.5199C8.20626 3.44447 8.13988 3.38128 8.10747 3.32715L7.89297 3.45555ZM8.57603 4.20864C8.52562 4.25873 8.4365 4.30053 8.31049 4.32454C8.18687 4.3481 8.04054 4.35204 7.89091 4.33778C7.74155 4.32356 7.59329 4.29163 7.46636 4.24639C7.33741 4.20044 7.24003 4.14415 7.18326 4.08708L7.00602 4.26339C7.09974 4.35761 7.23606 4.42972 7.38244 4.48189C7.53084 4.53477 7.69956 4.57069 7.86721 4.58666C8.0346 4.6026 8.20535 4.59907 8.35728 4.57012C8.50682 4.54162 8.65172 4.48587 8.75225 4.38598L8.57603 4.20864ZM7.18275 4.08657C7.01684 3.92171 6.69928 3.71721 6.39943 3.59909C6.2497 3.5401 6.09275 3.49791 5.95445 3.49907C5.81425 3.50025 5.66738 3.54837 5.59301 3.69739L5.8167 3.80903C5.83263 3.77712 5.86668 3.74982 5.95655 3.74906C6.04833 3.74829 6.17061 3.77765 6.3078 3.83169C6.58179 3.93962 6.86883 4.12707 7.00653 4.2639L7.18275 4.08657ZM5.59312 3.69718C5.51919 3.8446 5.5716 4.01128 5.63638 4.14647C5.70449 4.28861 5.81071 4.44421 5.91079 4.59228C6.01386 4.74477 6.11224 4.89173 6.17842 5.02921C6.24607 5.16974 6.26751 5.27567 6.24835 5.35272L6.49095 5.41308C6.53198 5.24816 6.47774 5.07463 6.40368 4.92077C6.32814 4.76385 6.21877 4.60148 6.11791 4.45228C6.01406 4.29864 5.92017 4.16018 5.86183 4.03844C5.80016 3.90975 5.79979 3.84275 5.81659 3.80924L5.59312 3.69718ZM6.24837 5.35262C6.20809 5.51393 6.25148 5.6703 6.31972 5.81065C6.38765 5.95035 6.48889 6.09125 6.58568 6.22519C6.68518 6.36286 6.78172 6.49542 6.85441 6.63018C6.92682 6.76442 6.96964 6.89053 6.96964 7.01259H7.21964C7.21964 6.83253 7.15678 6.66413 7.07444 6.51149C6.99239 6.35938 6.88511 6.21269 6.78831 6.07875C6.68881 5.94107 6.60127 5.81798 6.54455 5.70133C6.48815 5.58533 6.471 5.49297 6.49092 5.41318L6.24837 5.35262ZM6.96964 7.01259C6.96964 7.20838 7.07265 7.37681 7.19981 7.51805C7.32756 7.65996 7.49509 7.79111 7.65267 7.91125C7.81467 8.03478 7.96483 8.14582 8.07657 8.25569C8.19179 8.36899 8.23728 8.45411 8.23728 8.52021H8.48728C8.48728 8.34608 8.37431 8.19785 8.25185 8.07743C8.1259 7.95359 7.95916 7.83057 7.80425 7.71245C7.64491 7.59096 7.49553 7.47289 7.38561 7.35078C7.27508 7.22801 7.21964 7.11763 7.21964 7.01259H6.96964ZM8.23728 8.52021C8.23728 8.66484 8.29612 8.84809 8.37208 9.02935C8.44995 9.21521 8.55339 9.41613 8.65702 9.60212L8.87541 9.48044C8.77401 9.29845 8.67549 9.10656 8.60265 8.93273C8.52789 8.75431 8.48728 8.61101 8.48728 8.52021H8.23728ZM8.81502 9.65636C9.32344 9.44075 9.78374 9.13578 10.1923 8.84914C10.6066 8.55855 10.9586 8.29394 11.2683 8.1394L11.1567 7.91571C10.8251 8.08117 10.4496 8.36329 10.0488 8.64448C9.6423 8.92963 9.20007 9.22152 8.71741 9.4262L8.81502 9.65636ZM11.2686 8.13927C11.3771 8.08482 11.4511 8.07347 11.4993 8.07906C11.5426 8.08409 11.5761 8.10399 11.6059 8.14322C11.6382 8.18584 11.6656 8.25161 11.6844 8.34208C11.7029 8.43141 11.7114 8.53713 11.7114 8.65278C11.7115 8.88414 11.6777 9.14281 11.6335 9.36445C11.5886 9.59003 11.5359 9.76214 11.5038 9.82629L11.7274 9.93814C11.7755 9.84185 11.8333 9.6413 11.8787 9.4133C11.9249 9.18135 11.9615 8.90551 11.9614 8.65272C11.9614 8.52629 11.9522 8.40252 11.9292 8.29136C11.9064 8.18134 11.8684 8.07563 11.8051 7.99217C11.7393 7.90532 11.647 7.84454 11.5281 7.83073C11.414 7.81747 11.2894 7.84909 11.1564 7.91584L11.2686 8.13927ZM11.5042 9.82541C11.4708 9.89091 11.4751 9.95955 11.4939 10.0174C11.5121 10.0737 11.5459 10.1272 11.5854 10.1763C11.6647 10.2748 11.786 10.379 11.9295 10.4808C12.2182 10.6858 12.6217 10.8992 13.0333 11.0558L13.1222 10.8222C12.7277 10.672 12.3434 10.4681 12.0742 10.277C11.9387 10.1808 11.8386 10.0922 11.7802 10.0196C11.7509 9.9832 11.737 9.95669 11.7317 9.94035C11.7269 9.92558 11.732 9.9291 11.7269 9.93901L11.5042 9.82541ZM13.2025 10.9313C13.177 10.5194 13.2759 10.1248 13.5334 9.80751L13.3393 9.64998C13.0349 10.025 12.9244 10.485 12.953 10.9468L13.2025 10.9313ZM13.5335 9.80733C14.0548 9.16259 14.515 8.33397 14.7689 7.5256C15.021 6.72302 15.0785 5.91109 14.7513 5.32219L14.5328 5.44362C14.8092 5.94117 14.776 6.66869 14.5304 7.45068C14.2866 8.22688 13.8421 9.02794 13.3391 9.65016L13.5335 9.80733ZM6.10697 8.27024C6.06455 8.25111 6.00951 8.22007 5.93881 8.17893C5.87012 8.13895 5.78909 8.09092 5.70118 8.04281C5.52547 7.94665 5.31325 7.84503 5.0847 7.79239L5.02858 8.03601C5.22403 8.08103 5.4127 8.16993 5.58116 8.26212C5.66533 8.30818 5.74221 8.35377 5.81306 8.395C5.8819 8.43506 5.94801 8.4728 6.00417 8.49813L6.10697 8.27024ZM4.93913 7.95682C4.96916 8.0396 4.99104 8.12883 5.01778 8.23056C5.04379 8.32947 5.07378 8.43738 5.11898 8.5434C5.21198 8.76155 5.36793 8.9679 5.67738 9.10914L5.78119 8.88172C5.53664 8.77009 5.42127 8.61501 5.34895 8.44536C5.31148 8.35748 5.28531 8.26489 5.25957 8.16699C5.23457 8.0719 5.20912 7.96798 5.17415 7.87158L4.93913 7.95682ZM5.67762 9.10925C5.8917 9.20643 5.93961 9.27484 5.95208 9.30482C5.95813 9.31936 5.96012 9.33446 5.95931 9.35889C5.95882 9.37384 5.9578 9.38392 5.95661 9.40447C5.9556 9.42191 5.95471 9.44443 5.95676 9.46858C5.96129 9.52197 5.97992 9.57901 6.02915 9.63121C6.07404 9.67881 6.13743 9.71486 6.21674 9.74565C6.37449 9.8069 6.63995 9.86371 7.08389 9.92411L7.11759 9.67639C6.67384 9.61602 6.43471 9.56209 6.30723 9.5126C6.24392 9.48802 6.21954 9.4687 6.21103 9.45968C6.20685 9.45526 6.20646 9.45443 6.20586 9.44743C6.20535 9.44139 6.20537 9.43309 6.20619 9.41893C6.20683 9.40787 6.20856 9.38557 6.20918 9.36719C6.21058 9.32497 6.20822 9.26966 6.1829 9.20878C6.13261 9.08791 6.00962 8.98541 5.78095 8.88161L5.67762 9.10925ZM7.08333 9.92403C7.21027 9.94189 7.33303 9.94356 7.44878 9.94443L7.45066 9.69443C7.33433 9.69356 7.22677 9.69174 7.11816 9.67647L7.08333 9.92403ZM7.57383 9.83429C7.60107 9.60681 7.6104 9.43419 7.53946 9.25092C7.47112 9.07433 7.3326 8.89966 7.10536 8.64828L6.9199 8.81592C7.14981 9.07027 7.25688 9.21343 7.30632 9.34115C7.35316 9.46219 7.35245 9.58037 7.3256 9.80457L7.57383 9.83429ZM7.10568 8.64863C6.83141 8.34288 6.62636 8.25806 6.43651 8.2582C6.35648 8.25827 6.27073 8.27594 6.22712 8.28123C6.17627 8.28739 6.14208 8.28568 6.10589 8.26976L6.00525 8.49861C6.09993 8.54024 6.18559 8.53809 6.25721 8.52941C6.33607 8.51985 6.37541 8.50825 6.4367 8.5082C6.52952 8.50813 6.67214 8.53972 6.91958 8.81557L7.10568 8.64863Z" fill="#868686"/>
</g>
<defs>
<filter id="filter0_d_877_3530" x="0.861328" y="0.492188" width="18.1172" height="16.6328" filterUnits="userSpaceOnUse" color-interpolation-filters="sRGB">
<feFlood flood-opacity="0" result="BackgroundImageFix"/>
<feColorMatrix in="SourceAlpha" type="matrix" values="0 0 0 0 0 0 0 0 0 0 0 0 0 0 0 0 0 0 127 0" result="hardAlpha"/>
<feOffset dy="2"/>
<feGaussianBlur stdDeviation="2"/>
<feColorMatrix type="matrix" values="0 0 0 0 0 0 0 0 0 0 0 0 0 0 0 0 0 0 0.01 0"/>
<feBlend mode="normal" in2="BackgroundImageFix" result="effect1_dropShadow_877_3530"/>
<feBlend mode="normal" in="SourceGraphic" in2="effect1_dropShadow_877_3530" result="shape"/>
</filter>
</defs>
</svg>
