<svg width="45" height="30" viewBox="0 0 45 30" fill="none" xmlns="http://www.w3.org/2000/svg">
<g filter="url(#filter0_d_877_3428)">
<path fill-rule="evenodd" clip-rule="evenodd" d="M40.3012 14.2064C39.3328 13.4007 37.6403 12.4354 37.4789 12.9176C37.3175 13.4007 36.2688 13.4809 35.8666 12.9987C35.4644 12.5148 35.1416 11.9506 33.9298 12.4354C32.7215 12.9185 31.9145 13.5637 31.8342 14.0459C31.754 14.5307 30.9461 15.0129 30.8667 14.3686C30.7856 13.7242 29.8207 13.4818 29.1751 13.3222C28.5303 13.1609 27.4826 13.4818 27.4006 12.8391C27.3212 12.1939 26.3536 11.4667 26.2716 10.7412C26.1905 10.0175 26.4339 8.97113 25.7866 8.80633C25.141 8.64502 24.7396 7.59779 24.1761 7.59779C23.6107 7.59779 20.4656 7.59779 20.0625 7.43648C19.6586 7.27691 17.5622 8.07999 17.3999 7.59779C17.2716 7.20628 15.8173 5.65158 15.012 4.99063C14.9248 5.32459 14.7416 5.63414 14.4083 5.8748C12.8981 6.96039 11.4499 6.77902 11.9332 5.45103C12.4166 4.12391 12.4759 2.55351 11.6916 2.55351C10.9064 2.55351 11.4508 5.33157 10.8462 5.51207C10.3123 5.67251 10.1055 3.49697 10.5539 2.35645L5.38739 3.7324L5.14573 12.7589C5.14573 12.7589 5.13177 12.7668 5.12305 12.7764C5.60637 13.0118 6.16647 13.0859 6.55994 13.1182C7.34338 13.1783 7.28318 12.5767 7.28318 12.152C7.28318 11.7309 8.12857 11.0072 8.73316 11.0673C9.33601 11.1275 9.27756 10.2817 9.45815 10.2817C9.63875 10.2817 10.1221 10.1596 10.3018 9.86227C10.4833 9.55709 11.4499 9.91895 11.7535 10.2233C12.0536 10.525 12.7778 10.6427 13.3221 10.7665C13.8648 10.8868 14.0454 12.5776 14.0454 12.9385C14.0454 13.3013 16.6435 13.2402 17.0666 13.3013C17.4889 13.3606 17.4871 14.0843 17.9111 14.6275C18.3343 15.1708 18.637 15.8954 18.8167 16.3183C18.9982 16.7412 20.5075 17.2844 20.8704 17.8276C21.2325 18.37 22.3797 18.9123 23.2242 19.2158C24.0714 19.5192 24.8557 20.6632 25.339 20.6022C25.8223 20.5429 27.1502 21.2056 27.1502 21.2056L27.3046 22.5501C27.3613 22.5414 27.4197 22.531 27.4817 22.51C28.2049 22.2703 28.6089 23.0742 29.1742 23.0742C29.4115 23.0742 29.7055 23.2739 29.9908 23.4561C29.9515 22.2755 30.3694 21.6878 30.8344 21.3259C31.3771 20.9039 30.4724 20.181 30.5936 19.5157C30.7123 18.8513 29.2047 18.4894 29.3251 17.9471C29.4447 17.4038 30.7123 17.464 31.2576 17.2225C31.8002 16.9818 31.378 16.0759 31.9215 16.0759C32.4659 16.0759 32.7049 15.5326 32.8864 14.9894C33.0687 14.4462 33.9726 14.9894 34.4568 14.6267C34.941 14.2657 35.6651 14.0241 35.8457 14.3258C35.9905 14.563 35.3911 15.5745 35.1259 16.0009C35.9687 15.9764 37.2355 15.8247 37.4797 15.5806C37.8034 15.2588 39.0109 16.0636 39.4148 15.2588C39.8178 14.4488 41.2687 15.0129 40.3012 14.2064Z" fill="white"/>
<path fill-rule="evenodd" clip-rule="evenodd" d="M40.3012 14.2064C39.3328 13.4007 37.6403 12.4354 37.4789 12.9176C37.3175 13.4007 36.2688 13.4809 35.8666 12.9987C35.4644 12.5148 35.1416 11.9506 33.9298 12.4354C32.7215 12.9185 31.9145 13.5637 31.8342 14.0459C31.754 14.5307 30.9461 15.0129 30.8667 14.3686C30.7856 13.7242 29.8207 13.4818 29.1751 13.3222C28.5303 13.1609 27.4826 13.4818 27.4006 12.8391C27.3212 12.1939 26.3536 11.4667 26.2716 10.7412C26.1905 10.0175 26.4339 8.97113 25.7866 8.80633C25.141 8.64502 24.7396 7.59779 24.1761 7.59779C23.6107 7.59779 20.4656 7.59779 20.0625 7.43648C19.6586 7.27691 17.5622 8.07999 17.3999 7.59779C17.2716 7.20628 15.8173 5.65158 15.012 4.99063C14.9248 5.32459 14.7416 5.63414 14.4083 5.8748C12.8981 6.96039 11.4499 6.77902 11.9332 5.45103C12.4166 4.12391 12.4759 2.55351 11.6916 2.55351C10.9064 2.55351 11.4508 5.33157 10.8462 5.51207C10.3123 5.67251 10.1055 3.49697 10.5539 2.35645L5.38739 3.7324L5.14573 12.7589C5.14573 12.7589 5.13177 12.7668 5.12305 12.7764C5.60637 13.0118 6.16647 13.0859 6.55994 13.1182C7.34338 13.1783 7.28318 12.5767 7.28318 12.152C7.28318 11.7309 8.12857 11.0072 8.73316 11.0673C9.33601 11.1275 9.27756 10.2817 9.45815 10.2817C9.63875 10.2817 10.1221 10.1596 10.3018 9.86227C10.4833 9.55709 11.4499 9.91895 11.7535 10.2233C12.0536 10.525 12.7778 10.6427 13.3221 10.7665C13.8648 10.8868 14.0454 12.5776 14.0454 12.9385C14.0454 13.3013 16.6435 13.2402 17.0666 13.3013C17.4889 13.3606 17.4871 14.0843 17.9111 14.6275C18.3343 15.1708 18.637 15.8954 18.8167 16.3183C18.9982 16.7412 20.5075 17.2844 20.8704 17.8276C21.2325 18.37 22.3797 18.9123 23.2242 19.2158C24.0714 19.5192 24.8557 20.6632 25.339 20.6022C25.8223 20.5429 27.1502 21.2056 27.1502 21.2056L27.3046 22.5501C27.3613 22.5414 27.4197 22.531 27.4817 22.51C28.2049 22.2703 28.6089 23.0742 29.1742 23.0742C29.4115 23.0742 29.7055 23.2739 29.9908 23.4561C29.9515 22.2755 30.3694 21.6878 30.8344 21.3259C31.3771 20.9039 30.4724 20.181 30.5936 19.5157C30.7123 18.8513 29.2047 18.4894 29.3251 17.9471C29.4447 17.4038 30.7123 17.464 31.2576 17.2225C31.8002 16.9818 31.378 16.0759 31.9215 16.0759C32.4659 16.0759 32.7049 15.5326 32.8864 14.9894C33.0687 14.4462 33.9726 14.9894 34.4568 14.6267C34.941 14.2657 35.6651 14.0241 35.8457 14.3258C35.9905 14.563 35.3911 15.5745 35.1259 16.0009C35.9687 15.9764 37.2355 15.8247 37.4797 15.5806C37.8034 15.2588 39.0109 16.0636 39.4148 15.2588C39.8178 14.4488 41.2687 15.0129 40.3012 14.2064Z" stroke="#868686" stroke-width="0.25"/>
</g>
<defs>
<filter id="filter0_d_877_3428" x="0.917969" y="0.171875" width="43.834" height="29.5176" filterUnits="userSpaceOnUse" color-interpolation-filters="sRGB">
<feFlood flood-opacity="0" result="BackgroundImageFix"/>
<feColorMatrix in="SourceAlpha" type="matrix" values="0 0 0 0 0 0 0 0 0 0 0 0 0 0 0 0 0 0 127 0" result="hardAlpha"/>
<feOffset dy="2"/>
<feGaussianBlur stdDeviation="2"/>
<feColorMatrix type="matrix" values="0 0 0 0 0 0 0 0 0 0 0 0 0 0 0 0 0 0 0.01 0"/>
<feBlend mode="normal" in2="BackgroundImageFix" result="effect1_dropShadow_877_3428"/>
<feBlend mode="normal" in="SourceGraphic" in2="effect1_dropShadow_877_3428" result="shape"/>
</filter>
</defs>
</svg>
