<svg width="71" height="48" viewBox="0 0 71 48" fill="none" xmlns="http://www.w3.org/2000/svg">
<g filter="url(#filter0_d_877_3314)">
<path fill-rule="evenodd" clip-rule="evenodd" d="M56.382 38.9428C56.6001 38.8983 58.8737 39.207 59.0918 38.6376C59.3108 38.0708 57.3871 36.803 57.6052 36.6687C57.8233 36.5397 57.9105 35.1411 58.2595 35.1411C58.6102 35.1411 61.8024 35.2283 61.9761 35.1411C62.1514 35.053 62.763 33.9177 63.2873 33.8741C63.5272 33.8541 63.9015 34.1462 64.24 34.467C64.828 33.9212 65.0365 32.6943 65.1482 31.6968C65.2834 30.4761 64.876 30.068 65.5103 29.3896C66.1445 28.7095 66.8233 28.665 66.6418 27.7128C66.4604 26.7633 65.6001 27.7128 64.876 27.2612C64.1519 26.8086 63.5176 27.1269 61.6602 27.3972C59.8037 27.6675 58.9435 28.4383 59.0334 29.7489C59.1241 31.0638 58.4 30.4752 58.4453 31.6053C58.4898 32.7371 56.9962 32.7833 57.0861 33.4634C57.1768 34.1418 55.9083 33.4634 55.5463 33.235C55.1842 33.0083 51.2888 34.1871 50.7461 34.2752C50.2026 34.3659 49.2054 33.1451 48.4368 33.1914C47.6673 33.235 47.3498 32.0596 47.259 31.1074C47.1683 30.1569 45.7192 29.2963 45.0849 28.4374C44.4507 27.5768 44.3608 25.6742 44.3155 24.4517C44.2692 23.231 44.1331 21.1487 44.9951 18.7508C45.1102 18.4282 45.1635 18.1483 45.1774 17.8981C44.8642 17.7045 44.5589 17.5667 44.3277 17.5798C43.5538 17.6295 41.8116 16.5648 41.4722 16.5648C41.1346 16.5648 41.1826 15.7435 40.8929 15.3083C40.6024 14.8715 40.7952 14.0492 40.4087 13.7598C40.0214 13.4711 38.861 12.3585 38.4737 11.0035C38.0863 9.64846 35.715 8.97269 34.8444 8.92561C33.9745 8.87591 33.4895 10.7149 33.2478 10.809C33.007 10.9067 31.3607 9.84378 30.8774 9.60138C30.3932 9.35984 30.1516 8.87591 30.1516 8.29605C30.1516 7.71446 29.1352 6.79628 28.8447 6.70124C28.5541 6.60271 26.5222 4.61987 26.5222 4.61987H23.3283L22.6513 5.48834L16.8452 5.53892C16.8452 5.53892 12.3941 3.8944 11.5714 3.70257C10.7496 3.50987 9.29698 2.49316 9.29698 2.49316L4.60156 3.10877C4.84235 3.6241 5.17824 4.18215 5.68163 4.80909C6.63345 5.98623 7.3122 8.06673 7.40381 8.79133C7.49367 9.51505 8.80755 10.1045 9.93996 10.83C11.0724 11.5511 11.0724 13.1372 10.9363 13.5435C10.8002 13.9507 9.39644 13.2723 9.30658 13.6795C9.21585 14.0867 11.1177 15.6702 11.8427 15.5821C12.5677 15.4906 12.9298 15.9431 14.0613 16.9398C15.1937 17.9356 15.1039 19.1118 14.6502 19.4737C14.1974 19.8364 15.5558 20.6055 17.0058 21.5559C18.454 22.5072 19.0429 23.6835 19.179 24.1814C19.3142 24.6793 19.9485 24.2276 20.1762 23.5475C20.4021 22.8691 19.7234 22.6877 19.7234 21.9178C19.7234 21.1487 18.5447 21.283 18.0012 21.1949C17.4577 21.1034 18.0466 19.9262 17.5039 19.3839C16.9595 18.8398 16.4623 17.4821 16.1901 16.4872C15.9187 15.4906 14.515 14.4966 13.9261 13.411C13.3381 12.3219 12.7038 11.4639 12.2955 11.191C11.8881 10.9198 12.8835 10.5126 12.5215 10.1054C12.1594 9.69816 11.615 9.74351 10.9363 9.42611C10.2567 9.10959 9.80386 8.56723 9.80386 7.84263C9.80386 7.11716 9.3502 5.39853 9.12511 4.80996C8.89828 4.22139 9.62327 4.31294 9.84923 4.58238C10.0761 4.85443 10.2567 5.12648 10.5742 4.94599C10.8909 4.76462 11.4344 4.8989 11.6613 5.39853C11.8872 5.89555 12.6576 5.443 13.0196 5.67058C13.3817 5.89642 12.2039 6.16847 13.3817 8.24984C14.5595 10.333 13.7446 9.15493 13.7446 10.5588C13.7446 11.9618 14.4696 11.3287 14.6956 11.1011C14.9215 10.8744 15.5558 11.5528 16.1447 12.2792C16.7336 13.0046 17.8651 13.0474 17.8651 13.4546C17.8651 13.8635 18.092 14.6788 18.8623 14.8139C19.6318 14.9491 19.7679 15.8097 20.266 15.9004C20.7642 15.9911 20.8549 16.5352 20.5827 17.1212C20.3114 17.7115 20.5827 18.2085 21.8513 18.7064C23.1198 19.2043 22.5309 19.2949 23.5272 20.2454C24.5235 21.1967 27.331 24.273 27.9199 25.1336C28.5088 25.9933 28.6902 26.7179 28.9162 27.3501C29.143 27.9849 28.4634 28.3023 28.8255 28.8455C29.1875 29.3896 28.1458 29.1629 28.1912 29.5692C28.2366 29.9782 28.8255 32.0151 29.8218 32.1049C30.8181 32.1956 31.9496 33.4163 32.7654 34.0965C33.5811 34.7748 34.8034 34.6388 36.0265 35.0922C37.2496 35.5439 38.2905 36.6312 40.0571 37.13C41.8229 37.6279 43.5451 38.397 44.6766 39.1207C45.8082 39.8444 47.2128 39.5296 48.798 38.8948C50.3832 38.2601 51.6055 39.0745 52.5111 39.4372C52.9578 39.616 53.8337 40.3658 54.7096 41.1462C55.5114 39.9996 56.28 38.9646 56.382 38.9428Z" fill="white"/>
<path fill-rule="evenodd" clip-rule="evenodd" d="M56.382 38.9428C56.6001 38.8983 58.8737 39.207 59.0918 38.6376C59.3108 38.0708 57.3871 36.803 57.6052 36.6687C57.8233 36.5397 57.9105 35.1411 58.2595 35.1411C58.6102 35.1411 61.8024 35.2283 61.9761 35.1411C62.1514 35.053 62.763 33.9177 63.2873 33.8741C63.5272 33.8541 63.9015 34.1462 64.24 34.467C64.828 33.9212 65.0365 32.6943 65.1482 31.6968C65.2834 30.4761 64.876 30.068 65.5103 29.3896C66.1445 28.7095 66.8233 28.665 66.6418 27.7128C66.4604 26.7633 65.6001 27.7128 64.876 27.2612C64.1519 26.8086 63.5176 27.1269 61.6602 27.3972C59.8037 27.6675 58.9435 28.4383 59.0334 29.7489C59.1241 31.0638 58.4 30.4752 58.4453 31.6053C58.4898 32.7371 56.9962 32.7833 57.0861 33.4634C57.1768 34.1418 55.9083 33.4634 55.5463 33.235C55.1842 33.0083 51.2888 34.1871 50.7461 34.2752C50.2026 34.3659 49.2054 33.1451 48.4368 33.1914C47.6673 33.235 47.3498 32.0596 47.259 31.1074C47.1683 30.1569 45.7192 29.2963 45.0849 28.4374C44.4507 27.5768 44.3608 25.6742 44.3155 24.4517C44.2692 23.231 44.1331 21.1487 44.9951 18.7508C45.1102 18.4282 45.1635 18.1483 45.1774 17.8981C44.8642 17.7045 44.5589 17.5667 44.3277 17.5798C43.5538 17.6295 41.8116 16.5648 41.4722 16.5648C41.1346 16.5648 41.1826 15.7435 40.8929 15.3083C40.6024 14.8715 40.7952 14.0492 40.4087 13.7598C40.0214 13.4711 38.861 12.3585 38.4737 11.0035C38.0863 9.64846 35.715 8.97269 34.8444 8.92561C33.9745 8.87591 33.4895 10.7149 33.2478 10.809C33.007 10.9067 31.3607 9.84378 30.8774 9.60138C30.3932 9.35984 30.1516 8.87591 30.1516 8.29605C30.1516 7.71446 29.1352 6.79628 28.8447 6.70124C28.5541 6.60271 26.5222 4.61987 26.5222 4.61987H23.3283L22.6513 5.48834L16.8452 5.53892C16.8452 5.53892 12.3941 3.8944 11.5714 3.70257C10.7496 3.50987 9.29698 2.49316 9.29698 2.49316L4.60156 3.10877C4.84235 3.6241 5.17824 4.18215 5.68163 4.80909C6.63345 5.98623 7.3122 8.06673 7.40381 8.79133C7.49367 9.51505 8.80755 10.1045 9.93996 10.83C11.0724 11.5511 11.0724 13.1372 10.9363 13.5435C10.8002 13.9507 9.39644 13.2723 9.30658 13.6795C9.21585 14.0867 11.1177 15.6702 11.8427 15.5821C12.5677 15.4906 12.9298 15.9431 14.0613 16.9398C15.1937 17.9356 15.1039 19.1118 14.6502 19.4737C14.1974 19.8364 15.5558 20.6055 17.0058 21.5559C18.454 22.5072 19.0429 23.6835 19.179 24.1814C19.3142 24.6793 19.9485 24.2276 20.1762 23.5475C20.4021 22.8691 19.7234 22.6877 19.7234 21.9178C19.7234 21.1487 18.5447 21.283 18.0012 21.1949C17.4577 21.1034 18.0466 19.9262 17.5039 19.3839C16.9595 18.8398 16.4623 17.4821 16.1901 16.4872C15.9187 15.4906 14.515 14.4966 13.9261 13.411C13.3381 12.3219 12.7038 11.4639 12.2955 11.191C11.8881 10.9198 12.8835 10.5126 12.5215 10.1054C12.1594 9.69816 11.615 9.74351 10.9363 9.42611C10.2567 9.10959 9.80386 8.56723 9.80386 7.84263C9.80386 7.11716 9.3502 5.39853 9.12511 4.80996C8.89828 4.22139 9.62327 4.31294 9.84923 4.58238C10.0761 4.85443 10.2567 5.12648 10.5742 4.94599C10.8909 4.76462 11.4344 4.8989 11.6613 5.39853C11.8872 5.89555 12.6576 5.443 13.0196 5.67058C13.3817 5.89642 12.2039 6.16847 13.3817 8.24984C14.5595 10.333 13.7446 9.15493 13.7446 10.5588C13.7446 11.9618 14.4696 11.3287 14.6956 11.1011C14.9215 10.8744 15.5558 11.5528 16.1447 12.2792C16.7336 13.0046 17.8651 13.0474 17.8651 13.4546C17.8651 13.8635 18.092 14.6788 18.8623 14.8139C19.6318 14.9491 19.7679 15.8097 20.266 15.9004C20.7642 15.9911 20.8549 16.5352 20.5827 17.1212C20.3114 17.7115 20.5827 18.2085 21.8513 18.7064C23.1198 19.2043 22.5309 19.2949 23.5272 20.2454C24.5235 21.1967 27.331 24.273 27.9199 25.1336C28.5088 25.9933 28.6902 26.7179 28.9162 27.3501C29.143 27.9849 28.4634 28.3023 28.8255 28.8455C29.1875 29.3896 28.1458 29.1629 28.1912 29.5692C28.2366 29.9782 28.8255 32.0151 29.8218 32.1049C30.8181 32.1956 31.9496 33.4163 32.7654 34.0965C33.5811 34.7748 34.8034 34.6388 36.0265 35.0922C37.2496 35.5439 38.2905 36.6312 40.0571 37.13C41.8229 37.6279 43.5451 38.397 44.6766 39.1207C45.8082 39.8444 47.2128 39.5296 48.798 38.8948C50.3832 38.2601 51.6055 39.0745 52.5111 39.4372C52.9578 39.616 53.8337 40.3658 54.7096 41.1462C55.5114 39.9996 56.28 38.9646 56.382 38.9428Z" stroke="#868686" stroke-width="0.25"/>
</g>
<defs>
<filter id="filter0_d_877_3314" x="0.416016" y="0.363281" width="70.3809" height="46.9697" filterUnits="userSpaceOnUse" color-interpolation-filters="sRGB">
<feFlood flood-opacity="0" result="BackgroundImageFix"/>
<feColorMatrix in="SourceAlpha" type="matrix" values="0 0 0 0 0 0 0 0 0 0 0 0 0 0 0 0 0 0 127 0" result="hardAlpha"/>
<feOffset dy="2"/>
<feGaussianBlur stdDeviation="2"/>
<feColorMatrix type="matrix" values="0 0 0 0 0 0 0 0 0 0 0 0 0 0 0 0 0 0 0.01 0"/>
<feBlend mode="normal" in2="BackgroundImageFix" result="effect1_dropShadow_877_3314"/>
<feBlend mode="normal" in="SourceGraphic" in2="effect1_dropShadow_877_3314" result="shape"/>
</filter>
</defs>
</svg>
