<svg width="24" height="21" viewBox="0 0 24 21" fill="none" xmlns="http://www.w3.org/2000/svg">
<g filter="url(#filter0_d_877_3236)">
<path fill-rule="evenodd" clip-rule="evenodd" d="M9.5417 9.11174C9.58619 8.61385 9.99536 8.79435 10.4926 8.88503C10.9899 8.97571 11.5797 8.56764 12.0316 8.56764C12.4844 8.56764 13.6631 10.152 13.6631 10.6045C13.6631 11.0571 13.7084 11.4643 13.9344 11.827C13.964 11.8724 13.9841 11.9221 13.9981 11.97C14.7283 11.8017 15.3338 11.7119 15.4742 11.7119C15.6958 11.7119 16.1425 12.7809 16.0526 13.4489C15.9645 14.1185 16.7201 14.6077 17.0341 14.163C17.3456 13.7166 17.746 13.1367 17.835 13.5369C17.8612 13.6573 18.0287 13.7584 18.2407 13.8439C18.3532 13.5797 18.5958 13.475 18.7799 13.2309C19.0512 12.8673 18.3724 12.4592 18.5984 12.0075C18.8244 11.5558 19.2327 12.1871 19.5493 11.8724C19.866 11.5558 19.0957 10.8757 19.1873 10.6045C19.2771 10.3316 19.2318 9.87994 18.8235 9.6541C18.4885 9.4675 18.6743 8.69843 18.8278 8.02615C18.7232 7.94942 18.6254 7.84827 18.5522 7.74015C18.3105 7.37741 18.4928 6.59091 18.0697 6.59091C17.6466 6.59091 17.7068 5.98925 18.0697 5.86718C18.4326 5.74859 17.3456 5.32395 17.3456 4.90192C17.3456 4.48251 16.8021 3.4536 16.5604 3.3943C16.3187 3.33414 15.4734 4.4206 15.1104 4.4206C14.7484 4.4206 13.9649 3.69513 13.7224 4.2994C13.4807 4.90192 12.9381 3.99595 12.5751 4.48251C12.2122 4.96296 11.9723 3.93666 11.9723 3.93666C11.9723 3.93666 11.9775 3.79453 11.9854 3.60009C11.9112 3.62712 11.8362 3.65327 11.7603 3.68118C10.7186 4.0413 8.86121 3.81546 8.77134 3.49894C8.68061 3.18154 7.32137 2.91211 7.32137 2.91211C7.32137 2.91211 7.36586 3.68118 6.8677 3.86167C6.36954 4.0413 7.0038 4.63074 7.0038 4.81124C7.0038 4.99173 6.59638 5.26553 6.27968 5.12863C5.96212 4.99173 5.05654 5.80789 4.60287 6.12354C4.55227 6.16277 4.47463 6.24212 4.38477 6.34153C5.08358 6.90394 5.02251 7.53001 5.8426 8.13166C6.59899 8.68884 7.5639 9.4396 8.14232 10.6394C8.72685 10.1415 9.51117 9.45006 9.5417 9.11174Z" fill="white"/>
<path fill-rule="evenodd" clip-rule="evenodd" d="M9.5417 9.11174C9.58619 8.61385 9.99536 8.79435 10.4926 8.88503C10.9899 8.97571 11.5797 8.56764 12.0316 8.56764C12.4844 8.56764 13.6631 10.152 13.6631 10.6045C13.6631 11.0571 13.7084 11.4643 13.9344 11.827C13.964 11.8724 13.9841 11.9221 13.9981 11.97C14.7283 11.8017 15.3338 11.7119 15.4742 11.7119C15.6958 11.7119 16.1425 12.7809 16.0526 13.4489C15.9645 14.1185 16.7201 14.6077 17.0341 14.163C17.3456 13.7166 17.746 13.1367 17.835 13.5369C17.8612 13.6573 18.0287 13.7584 18.2407 13.8439C18.3532 13.5797 18.5958 13.475 18.7799 13.2309C19.0512 12.8673 18.3724 12.4592 18.5984 12.0075C18.8244 11.5558 19.2327 12.1871 19.5493 11.8724C19.866 11.5558 19.0957 10.8757 19.1873 10.6045C19.2771 10.3316 19.2318 9.87994 18.8235 9.6541C18.4885 9.4675 18.6743 8.69843 18.8278 8.02615C18.7232 7.94942 18.6254 7.84827 18.5522 7.74015C18.3105 7.37741 18.4928 6.59091 18.0697 6.59091C17.6466 6.59091 17.7068 5.98925 18.0697 5.86718C18.4326 5.74859 17.3456 5.32395 17.3456 4.90192C17.3456 4.48251 16.8021 3.4536 16.5604 3.3943C16.3187 3.33414 15.4734 4.4206 15.1104 4.4206C14.7484 4.4206 13.9649 3.69513 13.7224 4.2994C13.4807 4.90192 12.9381 3.99595 12.5751 4.48251C12.2122 4.96296 11.9723 3.93666 11.9723 3.93666C11.9723 3.93666 11.9775 3.79453 11.9854 3.60009C11.9112 3.62712 11.8362 3.65327 11.7603 3.68118C10.7186 4.0413 8.86121 3.81546 8.77134 3.49894C8.68061 3.18154 7.32137 2.91211 7.32137 2.91211C7.32137 2.91211 7.36586 3.68118 6.8677 3.86167C6.36954 4.0413 7.0038 4.63074 7.0038 4.81124C7.0038 4.99173 6.59638 5.26553 6.27968 5.12863C5.96212 4.99173 5.05654 5.80789 4.60287 6.12354C4.55227 6.16277 4.47463 6.24212 4.38477 6.34153C5.08358 6.90394 5.02251 7.53001 5.8426 8.13166C6.59899 8.68884 7.5639 9.4396 8.14232 10.6394C8.72685 10.1415 9.51117 9.45006 9.5417 9.11174Z" stroke="#868686" stroke-width="0.25"/>
</g>
<defs>
<filter id="filter0_d_877_3236" x="0.203125" y="0.757812" width="23.5488" height="19.7012" filterUnits="userSpaceOnUse" color-interpolation-filters="sRGB">
<feFlood flood-opacity="0" result="BackgroundImageFix"/>
<feColorMatrix in="SourceAlpha" type="matrix" values="0 0 0 0 0 0 0 0 0 0 0 0 0 0 0 0 0 0 127 0" result="hardAlpha"/>
<feOffset dy="2"/>
<feGaussianBlur stdDeviation="2"/>
<feColorMatrix type="matrix" values="0 0 0 0 0 0 0 0 0 0 0 0 0 0 0 0 0 0 0.01 0"/>
<feBlend mode="normal" in2="BackgroundImageFix" result="effect1_dropShadow_877_3236"/>
<feBlend mode="normal" in="SourceGraphic" in2="effect1_dropShadow_877_3236" result="shape"/>
</filter>
</defs>
</svg>
