<svg width="24" height="27" viewBox="0 0 24 27" fill="none" xmlns="http://www.w3.org/2000/svg">
<g filter="url(#filter0_d_877_3248)">
<path fill-rule="evenodd" clip-rule="evenodd" d="M9.01251 19.4521C9.3894 19.5795 9.6424 20.209 10.3997 19.5795C11.1569 18.9464 12.0416 19.0737 12.0416 19.7068C12.0416 20.3381 12.2946 20.2099 12.9262 19.5795C13.5561 18.9464 14.1869 19.705 14.1869 18.4407C14.1869 17.1798 14.945 18.3151 14.945 16.9278C14.945 15.5405 15.0707 14.1515 15.0707 13.522C15.0707 12.8907 16.8382 12.2602 16.8382 11.2514C16.8382 10.2416 18.3536 8.22305 18.3536 6.95958C18.3536 5.6996 18.734 5.44586 19.1118 4.81456C19.3744 4.37859 19.5663 3.51971 19.4154 2.69919V2.71489L17.6504 2.46289L16.771 2.71489L15.6369 2.96427C15.6369 2.96427 15.7642 3.84756 15.2591 4.47537C14.7548 5.10667 14.6292 6.4896 14.6292 6.4896C14.6292 6.4896 12.3618 5.35692 11.7327 5.48249C11.464 5.53655 10.4398 5.5226 9.35188 5.48685C9.24894 6.32916 9.13552 7.31447 9.13552 7.59088C9.13552 8.094 10.5253 7.08515 11.1561 7.59088C11.7877 8.094 11.663 8.85348 10.9048 9.23017C10.1467 9.60947 10.6509 10.4919 11.2834 10.8729C11.9151 11.2522 11.7877 12.0065 11.7877 13.018C11.7877 14.0259 11.7877 15.2885 11.1561 15.4158C10.5244 15.5405 10.1467 15.0365 9.64153 15.1621C9.13552 15.2885 9.01164 13.9013 8.50563 13.9013C8.00049 13.9013 8.25437 15.0374 7.62186 15.0374C6.99109 15.0374 5.98081 14.9101 6.35858 15.919C6.73896 16.9287 7.11672 17.56 6.10644 17.56C5.62923 17.56 5.32562 17.8434 5.13281 18.1433C5.20086 18.1983 5.26891 18.2541 5.34743 18.3134C6.19369 18.9673 6.73198 19.7146 7.09665 20.4671C7.93855 19.8925 8.80313 19.3833 9.01251 19.4521Z" fill="white"/>
<path fill-rule="evenodd" clip-rule="evenodd" d="M9.01251 19.4521C9.3894 19.5795 9.6424 20.209 10.3997 19.5795C11.1569 18.9464 12.0416 19.0737 12.0416 19.7068C12.0416 20.3381 12.2946 20.2099 12.9262 19.5795C13.5561 18.9464 14.1869 19.705 14.1869 18.4407C14.1869 17.1798 14.945 18.3151 14.945 16.9278C14.945 15.5405 15.0707 14.1515 15.0707 13.522C15.0707 12.8907 16.8382 12.2602 16.8382 11.2514C16.8382 10.2416 18.3536 8.22305 18.3536 6.95958C18.3536 5.6996 18.734 5.44586 19.1118 4.81456C19.3744 4.37859 19.5663 3.51971 19.4154 2.69919V2.71489L17.6504 2.46289L16.771 2.71489L15.6369 2.96427C15.6369 2.96427 15.7642 3.84756 15.2591 4.47537C14.7548 5.10667 14.6292 6.4896 14.6292 6.4896C14.6292 6.4896 12.3618 5.35692 11.7327 5.48249C11.464 5.53655 10.4398 5.5226 9.35188 5.48685C9.24894 6.32916 9.13552 7.31447 9.13552 7.59088C9.13552 8.094 10.5253 7.08515 11.1561 7.59088C11.7877 8.094 11.663 8.85348 10.9048 9.23017C10.1467 9.60947 10.6509 10.4919 11.2834 10.8729C11.9151 11.2522 11.7877 12.0065 11.7877 13.018C11.7877 14.0259 11.7877 15.2885 11.1561 15.4158C10.5244 15.5405 10.1467 15.0365 9.64153 15.1621C9.13552 15.2885 9.01164 13.9013 8.50563 13.9013C8.00049 13.9013 8.25437 15.0374 7.62186 15.0374C6.99109 15.0374 5.98081 14.9101 6.35858 15.919C6.73896 16.9287 7.11672 17.56 6.10644 17.56C5.62923 17.56 5.32562 17.8434 5.13281 18.1433C5.20086 18.1983 5.26891 18.2541 5.34743 18.3134C6.19369 18.9673 6.73198 19.7146 7.09665 20.4671C7.93855 19.8925 8.80313 19.3833 9.01251 19.4521Z" stroke="#868686" stroke-width="0.25"/>
</g>
<defs>
<filter id="filter0_d_877_3248" x="0.966797" y="0.334961" width="22.627" height="26.3174" filterUnits="userSpaceOnUse" color-interpolation-filters="sRGB">
<feFlood flood-opacity="0" result="BackgroundImageFix"/>
<feColorMatrix in="SourceAlpha" type="matrix" values="0 0 0 0 0 0 0 0 0 0 0 0 0 0 0 0 0 0 127 0" result="hardAlpha"/>
<feOffset dy="2"/>
<feGaussianBlur stdDeviation="2"/>
<feColorMatrix type="matrix" values="0 0 0 0 0 0 0 0 0 0 0 0 0 0 0 0 0 0 0.01 0"/>
<feBlend mode="normal" in2="BackgroundImageFix" result="effect1_dropShadow_877_3248"/>
<feBlend mode="normal" in="SourceGraphic" in2="effect1_dropShadow_877_3248" result="shape"/>
</filter>
</defs>
</svg>
