<svg width="18" height="17" viewBox="0 0 18 17" fill="none" xmlns="http://www.w3.org/2000/svg">
<g filter="url(#filter0_d_877_3285)">
<path fill-rule="evenodd" clip-rule="evenodd" d="M7.60149 8.72141C7.9714 8.35257 8.61787 8.53568 8.9869 8.90539C9.35681 9.2751 9.90994 9.36579 10.4639 9.91861C10.6061 10.0616 10.7597 10.1915 10.9089 10.3058C10.9612 9.91687 10.9717 9.14169 11.1436 8.74146C11.3241 8.32031 10.9612 7.77621 11.2648 7.77621C11.5658 7.77621 12.4112 7.7762 12.4112 7.23297C12.4112 6.69062 12.6537 6.87111 12.8343 6.56854C13.0158 6.26684 12.2917 5.66258 12.1687 5.48121C12.05 5.30158 12.7122 5.24055 13.1973 4.51857C13.3717 4.25436 13.2985 3.71636 13.1362 3.13477C13.0568 3.3484 12.8945 3.5036 12.6223 3.33968C12.1687 3.06762 11.4768 3.21935 10.5695 3.39984C9.66391 3.58121 9.39171 4.45578 9.72236 4.81852C10.0548 5.18125 8.84819 5.36175 8.75833 4.87956C8.66672 4.39387 7.76201 4.72784 7.82047 5.36175C7.88154 5.99566 6.82328 6.2372 6.88435 7.02022C6.94716 7.80585 5.91944 8.52871 5.25465 8.92196C5.14996 8.98387 5.04352 9.04752 4.93359 9.1103C5.26861 9.2629 5.53557 9.36579 5.66295 9.36579C6.21868 9.36579 7.23332 9.09112 7.60149 8.72141Z" fill="white"/>
<path fill-rule="evenodd" clip-rule="evenodd" d="M7.60149 8.72141C7.9714 8.35257 8.61787 8.53568 8.9869 8.90539C9.35681 9.2751 9.90994 9.36579 10.4639 9.91861C10.6061 10.0616 10.7597 10.1915 10.9089 10.3058C10.9612 9.91687 10.9717 9.14169 11.1436 8.74146C11.3241 8.32031 10.9612 7.77621 11.2648 7.77621C11.5658 7.77621 12.4112 7.7762 12.4112 7.23297C12.4112 6.69062 12.6537 6.87111 12.8343 6.56854C13.0158 6.26684 12.2917 5.66258 12.1687 5.48121C12.05 5.30158 12.7122 5.24055 13.1973 4.51857C13.3717 4.25436 13.2985 3.71636 13.1362 3.13477C13.0568 3.3484 12.8945 3.5036 12.6223 3.33968C12.1687 3.06762 11.4768 3.21935 10.5695 3.39984C9.66391 3.58121 9.39171 4.45578 9.72236 4.81852C10.0548 5.18125 8.84819 5.36175 8.75833 4.87956C8.66672 4.39387 7.76201 4.72784 7.82047 5.36175C7.88154 5.99566 6.82328 6.2372 6.88435 7.02022C6.94716 7.80585 5.91944 8.52871 5.25465 8.92196C5.14996 8.98387 5.04352 9.04752 4.93359 9.1103C5.26861 9.2629 5.53557 9.36579 5.66295 9.36579C6.21868 9.36579 7.23332 9.09112 7.60149 8.72141Z" stroke="#868686" stroke-width="0.25"/>
</g>
<defs>
<filter id="filter0_d_877_3285" x="0.660156" y="0.730469" width="16.7637" height="15.8057" filterUnits="userSpaceOnUse" color-interpolation-filters="sRGB">
<feFlood flood-opacity="0" result="BackgroundImageFix"/>
<feColorMatrix in="SourceAlpha" type="matrix" values="0 0 0 0 0 0 0 0 0 0 0 0 0 0 0 0 0 0 127 0" result="hardAlpha"/>
<feOffset dy="2"/>
<feGaussianBlur stdDeviation="2"/>
<feColorMatrix type="matrix" values="0 0 0 0 0 0 0 0 0 0 0 0 0 0 0 0 0 0 0.01 0"/>
<feBlend mode="normal" in2="BackgroundImageFix" result="effect1_dropShadow_877_3285"/>
<feBlend mode="normal" in="SourceGraphic" in2="effect1_dropShadow_877_3285" result="shape"/>
</filter>
</defs>
</svg>
