<svg width="20" height="19" viewBox="0 0 20 19" fill="none" xmlns="http://www.w3.org/2000/svg">
<g filter="url(#filter0_d_877_3278)">
<path fill-rule="evenodd" clip-rule="evenodd" d="M10.7767 10.2935C10.8212 9.93338 9.10779 8.94109 9.10779 8.26532C9.10779 7.5913 8.25193 7.31837 8.1612 6.86844C8.07047 6.41677 8.65761 6.01392 9.06242 6.32783C9.4681 6.64348 9.91915 5.87615 10.3711 6.05665C10.8212 6.23802 13.5258 6.37055 13.5258 6.37055C13.5258 6.37055 14.3616 6.60685 15.3675 7.30268C15.3465 7.11521 15.3143 6.95825 15.2733 6.86495C15.0316 6.29556 15.2733 5.6477 14.625 5.40442C14.29 5.27886 14.1513 4.70075 14.092 4.16973C13.7858 4.26216 13.5284 4.33889 13.3862 4.37464C12.847 4.50892 11.7007 4.44091 11.2958 3.90204C10.994 3.50006 10.0579 2.91149 9.59809 2.6377C9.40878 2.80162 8.68989 3.41723 8.37669 3.45472C8.01376 3.50094 8.24234 4.45224 7.87853 4.45224C7.51735 4.45224 7.24428 5.08528 7.15354 5.35821C7.06368 5.62852 6.25058 5.1751 5.8859 5.31112C5.62766 5.40878 4.86341 5.52824 4.44727 5.58841C4.51095 6.00171 4.48652 6.45688 4.8163 6.45688C5.3607 6.45688 6.35702 6.39933 6.38668 7.12218C6.4146 7.84591 7.71452 9.44595 8.1961 9.99006C8.67942 10.5342 9.76734 10.4121 9.82667 10.8655C9.88774 11.3172 10.6729 11.7401 11.5794 11.8002C11.8245 11.8168 12.1203 11.9581 12.437 12.1586C11.8036 11.2335 10.7445 10.5464 10.7767 10.2935Z" fill="white"/>
<path fill-rule="evenodd" clip-rule="evenodd" d="M10.7767 10.2935C10.8212 9.93338 9.10779 8.94109 9.10779 8.26532C9.10779 7.5913 8.25193 7.31837 8.1612 6.86844C8.07047 6.41677 8.65761 6.01392 9.06242 6.32783C9.4681 6.64348 9.91915 5.87615 10.3711 6.05665C10.8212 6.23802 13.5258 6.37055 13.5258 6.37055C13.5258 6.37055 14.3616 6.60685 15.3675 7.30268C15.3465 7.11521 15.3143 6.95825 15.2733 6.86495C15.0316 6.29556 15.2733 5.6477 14.625 5.40442C14.29 5.27886 14.1513 4.70075 14.092 4.16973C13.7858 4.26216 13.5284 4.33889 13.3862 4.37464C12.847 4.50892 11.7007 4.44091 11.2958 3.90204C10.994 3.50006 10.0579 2.91149 9.59809 2.6377C9.40878 2.80162 8.68989 3.41723 8.37669 3.45472C8.01376 3.50094 8.24234 4.45224 7.87853 4.45224C7.51735 4.45224 7.24428 5.08528 7.15354 5.35821C7.06368 5.62852 6.25058 5.1751 5.8859 5.31112C5.62766 5.40878 4.86341 5.52824 4.44727 5.58841C4.51095 6.00171 4.48652 6.45688 4.8163 6.45688C5.3607 6.45688 6.35702 6.39933 6.38668 7.12218C6.4146 7.84591 7.71452 9.44595 8.1961 9.99006C8.67942 10.5342 9.76734 10.4121 9.82667 10.8655C9.88774 11.3172 10.6729 11.7401 11.5794 11.8002C11.8245 11.8168 12.1203 11.9581 12.437 12.1586C11.8036 11.2335 10.7445 10.5464 10.7767 10.2935Z" stroke="#868686" stroke-width="0.25"/>
</g>
<defs>
<filter id="filter0_d_877_3278" x="0.304688" y="0.484375" width="19.2168" height="17.7803" filterUnits="userSpaceOnUse" color-interpolation-filters="sRGB">
<feFlood flood-opacity="0" result="BackgroundImageFix"/>
<feColorMatrix in="SourceAlpha" type="matrix" values="0 0 0 0 0 0 0 0 0 0 0 0 0 0 0 0 0 0 127 0" result="hardAlpha"/>
<feOffset dy="2"/>
<feGaussianBlur stdDeviation="2"/>
<feColorMatrix type="matrix" values="0 0 0 0 0 0 0 0 0 0 0 0 0 0 0 0 0 0 0.01 0"/>
<feBlend mode="normal" in2="BackgroundImageFix" result="effect1_dropShadow_877_3278"/>
<feBlend mode="normal" in="SourceGraphic" in2="effect1_dropShadow_877_3278" result="shape"/>
</filter>
</defs>
</svg>
