<svg width="28" height="21" viewBox="0 0 28 21" fill="none" xmlns="http://www.w3.org/2000/svg">
<g filter="url(#filter0_d_877_3288)">
<path fill-rule="evenodd" clip-rule="evenodd" d="M21.1312 10.8553C20.7098 10.796 20.1645 10.6164 20.346 10.3731C20.3582 10.3583 20.3826 10.3269 20.401 10.3042C19.8356 9.84733 19.6864 8.36674 20.0485 8.00488C20.5074 7.54361 19.3069 5.7901 18.7556 5.14572C18.4956 4.84141 17.9346 3.83342 17.4094 2.84375C16.9304 2.99983 16.5056 3.17422 16.4227 3.31199C16.2421 3.61282 15.6366 3.91626 15.2763 3.91626C14.9134 3.91626 14.5513 3.73489 14.2486 4.03485C13.9459 4.33654 13.5253 4.45775 13.343 4.27725C13.1615 4.09588 12.5578 3.91626 12.1329 3.91626C11.7133 3.91626 10.3837 3.55178 10.0819 3.55178C9.90214 3.55178 9.61249 3.57707 9.2958 3.62067C9.36385 3.75059 9.3115 3.90754 9.10037 4.06624C8.73831 4.33654 8.01332 4.74375 7.74025 4.92599C7.46893 5.10561 6.51798 7.36922 5.88372 8.00226C5.24947 8.6353 4.66145 8.72686 4.61521 8.9527C4.56984 9.17941 5.3402 9.76798 5.3402 10.1307C5.3402 10.4934 5.52079 10.8544 6.01982 10.8544C6.51711 10.8544 5.97358 12.0325 6.29028 12.1223C6.60871 12.213 8.55598 12.3481 8.55598 12.8007C8.55598 13.1538 8.77059 13.4494 8.67724 13.6935C9.22513 13.7842 9.62645 14.5289 9.84107 14.4757C10.0819 14.4146 11.7133 14.7774 12.0143 14.7163C12.3162 14.6571 13.7051 14.7163 14.1884 14.7765C14.6708 14.8367 15.2135 14.5951 15.6357 14.174C16.0597 13.7502 17.5708 13.6901 18.0533 13.7502C18.5348 13.8113 19.5015 13.9316 19.683 14.235C19.7772 14.3929 20.346 14.6292 20.9218 14.8227C20.989 14.5236 20.9017 14.133 20.9201 13.7511C20.9497 13.1172 21.3109 12.1528 21.946 12.0918C22.5803 12.0325 23.0933 12.0325 23.0034 10.9765C23.0017 10.9399 23.0017 10.9129 22.9991 10.8797C22.6771 10.6059 22.377 10.3731 22.2784 10.3731C22.0385 10.3731 21.3109 10.8806 21.1312 10.8553Z" fill="white"/>
<path fill-rule="evenodd" clip-rule="evenodd" d="M21.1312 10.8553C20.7098 10.796 20.1645 10.6164 20.346 10.3731C20.3582 10.3583 20.3826 10.3269 20.401 10.3042C19.8356 9.84733 19.6864 8.36674 20.0485 8.00488C20.5074 7.54361 19.3069 5.7901 18.7556 5.14572C18.4956 4.84141 17.9346 3.83342 17.4094 2.84375C16.9304 2.99983 16.5056 3.17422 16.4227 3.31199C16.2421 3.61282 15.6366 3.91626 15.2763 3.91626C14.9134 3.91626 14.5513 3.73489 14.2486 4.03485C13.9459 4.33654 13.5253 4.45775 13.343 4.27725C13.1615 4.09588 12.5578 3.91626 12.1329 3.91626C11.7133 3.91626 10.3837 3.55178 10.0819 3.55178C9.90214 3.55178 9.61249 3.57707 9.2958 3.62067C9.36385 3.75059 9.3115 3.90754 9.10037 4.06624C8.73831 4.33654 8.01332 4.74375 7.74025 4.92599C7.46893 5.10561 6.51798 7.36922 5.88372 8.00226C5.24947 8.6353 4.66145 8.72686 4.61521 8.9527C4.56984 9.17941 5.3402 9.76798 5.3402 10.1307C5.3402 10.4934 5.52079 10.8544 6.01982 10.8544C6.51711 10.8544 5.97358 12.0325 6.29028 12.1223C6.60871 12.213 8.55598 12.3481 8.55598 12.8007C8.55598 13.1538 8.77059 13.4494 8.67724 13.6935C9.22513 13.7842 9.62645 14.5289 9.84107 14.4757C10.0819 14.4146 11.7133 14.7774 12.0143 14.7163C12.3162 14.6571 13.7051 14.7163 14.1884 14.7765C14.6708 14.8367 15.2135 14.5951 15.6357 14.174C16.0597 13.7502 17.5708 13.6901 18.0533 13.7502C18.5348 13.8113 19.5015 13.9316 19.683 14.235C19.7772 14.3929 20.346 14.6292 20.9218 14.8227C20.989 14.5236 20.9017 14.133 20.9201 13.7511C20.9497 13.1172 21.3109 12.1528 21.946 12.0918C22.5803 12.0325 23.0933 12.0325 23.0034 10.9765C23.0017 10.9399 23.0017 10.9129 22.9991 10.8797C22.6771 10.6059 22.377 10.3731 22.2784 10.3731C22.0385 10.3731 21.3109 10.8806 21.1312 10.8553Z" stroke="#868686" stroke-width="0.25"/>
</g>
<defs>
<filter id="filter0_d_877_3288" x="0.488281" y="0.692383" width="26.6504" height="20.293" filterUnits="userSpaceOnUse" color-interpolation-filters="sRGB">
<feFlood flood-opacity="0" result="BackgroundImageFix"/>
<feColorMatrix in="SourceAlpha" type="matrix" values="0 0 0 0 0 0 0 0 0 0 0 0 0 0 0 0 0 0 127 0" result="hardAlpha"/>
<feOffset dy="2"/>
<feGaussianBlur stdDeviation="2"/>
<feColorMatrix type="matrix" values="0 0 0 0 0 0 0 0 0 0 0 0 0 0 0 0 0 0 0.01 0"/>
<feBlend mode="normal" in2="BackgroundImageFix" result="effect1_dropShadow_877_3288"/>
<feBlend mode="normal" in="SourceGraphic" in2="effect1_dropShadow_877_3288" result="shape"/>
</filter>
</defs>
</svg>
