<svg width="16" height="22" viewBox="0 0 16 22" fill="none" xmlns="http://www.w3.org/2000/svg">
<g filter="url(#filter0_d_877_3231)">
<path fill-rule="evenodd" clip-rule="evenodd" d="M9.10757 10.4642C9.24367 9.46928 9.96866 8.97139 9.96866 8.97139C9.96866 8.97139 10.2854 8.24505 10.739 7.79338C11.1918 7.33996 11.0103 5.3048 10.965 4.89498C10.9397 4.66217 10.8376 4.02215 10.7573 3.52165C10.6134 3.6071 10.3961 3.60884 10.1039 3.48067C9.55949 3.23913 10.0446 2.69329 9.44084 2.51279C8.83624 2.3323 8.59545 2.99498 8.71498 3.48067C8.83624 3.96112 8.41312 3.96112 8.17145 4.26369C7.92979 4.56451 6.84361 4.6238 6.48156 4.6238C6.11862 4.6238 5.69724 5.28824 5.33431 5.40944C5.25317 5.43647 5.13889 5.43996 5.00977 5.43037C5.09352 7.02256 5.35874 6.90049 6.11862 7.33909C6.97884 7.83697 6.16399 8.51623 6.52605 8.87809C6.88811 9.24083 6.75288 10.1451 6.84361 11.2786C6.8977 11.9622 6.97012 13.7384 7.01723 15.0385C7.51451 14.9426 8.03361 14.9147 8.38345 14.9147C9.03341 14.9147 9.42339 14.0558 9.77934 14.4726C9.55687 13.7986 9.15294 13.4044 9.15294 12.8621C9.15294 12.0939 8.97147 11.46 9.10757 10.4642Z" fill="white"/>
<path fill-rule="evenodd" clip-rule="evenodd" d="M9.10757 10.4642C9.24367 9.46928 9.96866 8.97139 9.96866 8.97139C9.96866 8.97139 10.2854 8.24505 10.739 7.79338C11.1918 7.33996 11.0103 5.3048 10.965 4.89498C10.9397 4.66217 10.8376 4.02215 10.7573 3.52165C10.6134 3.6071 10.3961 3.60884 10.1039 3.48067C9.55949 3.23913 10.0446 2.69329 9.44084 2.51279C8.83624 2.3323 8.59545 2.99498 8.71498 3.48067C8.83624 3.96112 8.41312 3.96112 8.17145 4.26369C7.92979 4.56451 6.84361 4.6238 6.48156 4.6238C6.11862 4.6238 5.69724 5.28824 5.33431 5.40944C5.25317 5.43647 5.13889 5.43996 5.00977 5.43037C5.09352 7.02256 5.35874 6.90049 6.11862 7.33909C6.97884 7.83697 6.16399 8.51623 6.52605 8.87809C6.88811 9.24083 6.75288 10.1451 6.84361 11.2786C6.8977 11.9622 6.97012 13.7384 7.01723 15.0385C7.51451 14.9426 8.03361 14.9147 8.38345 14.9147C9.03341 14.9147 9.42339 14.0558 9.77934 14.4726C9.55687 13.7986 9.15294 13.4044 9.15294 12.8621C9.15294 12.0939 8.97147 11.46 9.10757 10.4642Z" stroke="#868686" stroke-width="0.25"/>
</g>
<defs>
<filter id="filter0_d_877_3231" x="0.876953" y="0.357422" width="14.2871" height="20.8311" filterUnits="userSpaceOnUse" color-interpolation-filters="sRGB">
<feFlood flood-opacity="0" result="BackgroundImageFix"/>
<feColorMatrix in="SourceAlpha" type="matrix" values="0 0 0 0 0 0 0 0 0 0 0 0 0 0 0 0 0 0 127 0" result="hardAlpha"/>
<feOffset dy="2"/>
<feGaussianBlur stdDeviation="2"/>
<feColorMatrix type="matrix" values="0 0 0 0 0 0 0 0 0 0 0 0 0 0 0 0 0 0 0.01 0"/>
<feBlend mode="normal" in2="BackgroundImageFix" result="effect1_dropShadow_877_3231"/>
<feBlend mode="normal" in="SourceGraphic" in2="effect1_dropShadow_877_3231" result="shape"/>
</filter>
</defs>
</svg>
