<svg width="18" height="26" viewBox="0 0 18 26" fill="none" xmlns="http://www.w3.org/2000/svg">
<g filter="url(#filter0_d_877_3223)">
<path fill-rule="evenodd" clip-rule="evenodd" d="M6.79226 6.63479C7.27646 7.35939 6.67274 8.56618 6.19029 8.80684C5.70609 9.04837 5.3449 10.1357 4.86158 10.1357C4.37912 10.1357 4.86158 11.945 5.70609 12.3078C6.55147 12.6696 6.55147 13.2713 6.55147 13.6349C6.55147 13.9959 7.76066 14.3586 8.12185 14.8417C8.48478 15.3247 9.0885 17.6189 9.0885 18.4629C9.0885 18.68 9.16091 18.8562 9.26997 19C9.57968 18.7882 9.96006 18.5458 10.1171 18.2519C10.3884 17.7392 10.5987 16.8637 10.4774 16.6213C10.357 16.3815 10.3884 15.9586 10.6597 15.7162C10.9311 15.4765 12.0181 14.3281 12.2301 14.2383C12.4404 14.1467 13.134 14.2697 13.1043 13.6044C13.0921 13.3393 13.1244 12.9338 13.1654 12.5397C12.6751 12.2258 12.3793 11.8552 12.3793 11.6721C12.3793 11.2815 11.8358 10.6162 11.5339 10.9789C11.2329 11.3416 10.0866 11.0399 9.93389 10.2857C9.78383 9.53056 10.6885 9.56108 11.5339 8.86787C12.3793 8.17205 12.5006 6.84406 11.595 6.12033C10.6885 5.39486 11.3219 5.0051 11.9571 4.34153C12.5922 3.6771 12.0172 3.31437 11.6857 3.61606C11.3525 3.91776 10.8107 4.00757 10.7199 3.28385C10.631 2.56012 8.66624 2.43892 7.91247 3.133C7.64812 3.37453 7.24244 3.44952 6.81408 3.4469C6.63348 4.64846 6.47121 6.15085 6.79226 6.63479Z" fill="white"/>
<path fill-rule="evenodd" clip-rule="evenodd" d="M6.79226 6.63479C7.27646 7.35939 6.67274 8.56618 6.19029 8.80684C5.70609 9.04837 5.3449 10.1357 4.86158 10.1357C4.37912 10.1357 4.86158 11.945 5.70609 12.3078C6.55147 12.6696 6.55147 13.2713 6.55147 13.6349C6.55147 13.9959 7.76066 14.3586 8.12185 14.8417C8.48478 15.3247 9.0885 17.6189 9.0885 18.4629C9.0885 18.68 9.16091 18.8562 9.26997 19C9.57968 18.7882 9.96006 18.5458 10.1171 18.2519C10.3884 17.7392 10.5987 16.8637 10.4774 16.6213C10.357 16.3815 10.3884 15.9586 10.6597 15.7162C10.9311 15.4765 12.0181 14.3281 12.2301 14.2383C12.4404 14.1467 13.134 14.2697 13.1043 13.6044C13.0921 13.3393 13.1244 12.9338 13.1654 12.5397C12.6751 12.2258 12.3793 11.8552 12.3793 11.6721C12.3793 11.2815 11.8358 10.6162 11.5339 10.9789C11.2329 11.3416 10.0866 11.0399 9.93389 10.2857C9.78383 9.53056 10.6885 9.56108 11.5339 8.86787C12.3793 8.17205 12.5006 6.84406 11.595 6.12033C10.6885 5.39486 11.3219 5.0051 11.9571 4.34153C12.5922 3.6771 12.0172 3.31437 11.6857 3.61606C11.3525 3.91776 10.8107 4.00757 10.7199 3.28385C10.631 2.56012 8.66624 2.43892 7.91247 3.133C7.64812 3.37453 7.24244 3.44952 6.81408 3.4469C6.63348 4.64846 6.47121 6.15085 6.79226 6.63479Z" stroke="#868686" stroke-width="0.25"/>
</g>
<defs>
<filter id="filter0_d_877_3223" x="0.544922" y="0.546875" width="16.752" height="24.624" filterUnits="userSpaceOnUse" color-interpolation-filters="sRGB">
<feFlood flood-opacity="0" result="BackgroundImageFix"/>
<feColorMatrix in="SourceAlpha" type="matrix" values="0 0 0 0 0 0 0 0 0 0 0 0 0 0 0 0 0 0 127 0" result="hardAlpha"/>
<feOffset dy="2"/>
<feGaussianBlur stdDeviation="2"/>
<feColorMatrix type="matrix" values="0 0 0 0 0 0 0 0 0 0 0 0 0 0 0 0 0 0 0.01 0"/>
<feBlend mode="normal" in2="BackgroundImageFix" result="effect1_dropShadow_877_3223"/>
<feBlend mode="normal" in="SourceGraphic" in2="effect1_dropShadow_877_3223" result="shape"/>
</filter>
</defs>
</svg>
