<svg width="14" height="13" viewBox="0 0 14 13" fill="none" xmlns="http://www.w3.org/2000/svg">
<g filter="url(#filter0_d_877_3267)">
<path fill-rule="evenodd" clip-rule="evenodd" d="M6.99707 2.16679C6.27121 2.12493 4.87968 2.84256 4.68164 3.49391C4.82559 3.65261 4.96169 3.84531 5.02712 4.0694C5.18852 4.63269 5.67272 5.11663 6.23718 5.43663C6.58354 5.63631 6.53468 6.1717 6.4422 6.64604C6.76326 6.63296 7.09129 6.60942 7.31289 6.55536C7.90265 6.4202 9.17029 4.61089 9.35176 4.11213C9.53323 3.61337 7.76655 2.21213 6.99707 2.16679Z" fill="white"/>
<path fill-rule="evenodd" clip-rule="evenodd" d="M6.99707 2.16679C6.27121 2.12493 4.87968 2.84256 4.68164 3.49391C4.82559 3.65261 4.96169 3.84531 5.02712 4.0694C5.18852 4.63269 5.67272 5.11663 6.23718 5.43663C6.58354 5.63631 6.53468 6.1717 6.4422 6.64604C6.76326 6.63296 7.09129 6.60942 7.31289 6.55536C7.90265 6.4202 9.17029 4.61089 9.35176 4.11213C9.53323 3.61337 7.76655 2.21213 6.99707 2.16679Z" stroke="#868686" stroke-width="0.25"/>
</g>
<defs>
<filter id="filter0_d_877_3267" x="0.541016" y="0.0400391" width="12.9492" height="12.7373" filterUnits="userSpaceOnUse" color-interpolation-filters="sRGB">
<feFlood flood-opacity="0" result="BackgroundImageFix"/>
<feColorMatrix in="SourceAlpha" type="matrix" values="0 0 0 0 0 0 0 0 0 0 0 0 0 0 0 0 0 0 127 0" result="hardAlpha"/>
<feOffset dy="2"/>
<feGaussianBlur stdDeviation="2"/>
<feColorMatrix type="matrix" values="0 0 0 0 0 0 0 0 0 0 0 0 0 0 0 0 0 0 0.01 0"/>
<feBlend mode="normal" in2="BackgroundImageFix" result="effect1_dropShadow_877_3267"/>
<feBlend mode="normal" in="SourceGraphic" in2="effect1_dropShadow_877_3267" result="shape"/>
</filter>
</defs>
</svg>
