<svg width="48" height="48" viewBox="0 0 48 48" fill="none" xmlns="http://www.w3.org/2000/svg">
<path d="M45.8043 13.0069C45.2809 11.0361 43.7387 9.48392 41.7806 8.95717C38.2315 8 23.9997 8 23.9997 8C23.9997 8 9.76806 8 6.21881 8.95717C4.26072 9.484 2.71856 11.0361 2.19514 13.0069C1.24414 16.5792 1.24414 24.0323 1.24414 24.0323C1.24414 24.0323 1.24414 31.4855 2.19514 35.0577C2.71856 37.0286 4.26072 38.5161 6.21881 39.0428C9.76806 40 23.9997 40 23.9997 40C23.9997 40 38.2314 40 41.7806 39.0428C43.7387 38.5161 45.2809 37.0286 45.8043 35.0577C46.7553 31.4855 46.7553 24.0323 46.7553 24.0323C46.7553 24.0323 46.7553 16.5792 45.8043 13.0069ZM19.3451 30.7992V17.2654L31.2401 24.0325L19.3451 30.7992Z" fill="#8B8B8B"/>
</svg>
